<?xml version="1.0" encoding="UTF-8"?>
<svg xmlns="http://www.w3.org/2000/svg" id="Layer_1" data-name="Layer 1" viewBox="0 0 64 64" width="512" height="512"><path d="M32,40a8,8,0,1,0-8-8A8.00917,8.00917,0,0,0,32,40Zm0-14a6,6,0,1,1-6,6A6.00657,6.00657,0,0,1,32,26Z"/><path d="M19.49414,28.02881a.3607.3607,0,0,1-.31982.27588h-.90918a1,1,0,0,0-.98145.80859,14.82892,14.82892,0,0,0,0,5.77344,1,1,0,0,0,.98145.80859h.90918a.3607.3607,0,0,1,.31982.27588,13.07517,13.07517,0,0,0,.85645,2.061.36188.36188,0,0,1-.03174.42285l-.64649.64648a1,1,0,0,0-.12256,1.26563,15.0203,15.0203,0,0,0,4.08252,4.083,1.00233,1.00233,0,0,0,1.26563-.12208l.64746-.64746a.36248.36248,0,0,1,.42236-.03125,13.05319,13.05319,0,0,0,2.061.85645.3607.3607,0,0,1,.27588.31982v.90918a1,1,0,0,0,.80859.98145,14.82892,14.82892,0,0,0,5.77344,0,1,1,0,0,0,.80859-.98145v-.90918a.3607.3607,0,0,1,.27588-.31982,13.05319,13.05319,0,0,0,2.061-.85645.36123.36123,0,0,1,.42285.03223l.647.64648a1.00245,1.00245,0,0,0,1.26563.12208,15.0203,15.0203,0,0,0,4.08252-4.083,1,1,0,0,0-.12256-1.26563l-.647-.647a.36092.36092,0,0,1-.03076-.42236,13.11933,13.11933,0,0,0,.856-2.061.3607.3607,0,0,1,.31982-.27588h.90918a1,1,0,0,0,.98145-.80859,14.82892,14.82892,0,0,0,0-5.77344,1,1,0,0,0-.98145-.80859h-.90918a.3607.3607,0,0,1-.31982-.27588,13.05319,13.05319,0,0,0-.85645-2.061.36118.36118,0,0,1,.03223-.42285l.64648-.647a1,1,0,0,0,.12159-1.26563,15.01168,15.01168,0,0,0-4.08252-4.08252,1.00117,1.00117,0,0,0-1.26563.12256l-.647.647a.36248.36248,0,0,1-.42236.03125,13.05319,13.05319,0,0,0-2.061-.85645.3607.3607,0,0,1-.27588-.31982v-.90918a1,1,0,0,0-.80859-.98145,14.87921,14.87921,0,0,0-5.77344,0,1,1,0,0,0-.80859.98145v.90918a.3607.3607,0,0,1-.27588.31982,13.05319,13.05319,0,0,0-2.061.85645.36271.36271,0,0,1-.42285-.03174l-.64648-.64649a1.00117,1.00117,0,0,0-1.26563-.12256,15.01168,15.01168,0,0,0-4.08252,4.08252,1,1,0,0,0,.12159,1.26563l.64746.64746a.36179.36179,0,0,1,.03125.42236A13.05319,13.05319,0,0,0,19.49414,28.02881Zm1.90625.60547a11.0584,11.0584,0,0,1,.72461-1.74463,2.34862,2.34862,0,0,0-.3916-2.75879L21.687,24.085A12.97838,12.97838,0,0,1,24.085,21.6875l.04541.04492a2.34635,2.34635,0,0,0,2.75928.39258,11.0584,11.0584,0,0,1,1.74463-.72461,2.34906,2.34906,0,0,0,1.67041-2.22607v-.06055a12.71482,12.71482,0,0,1,3.39062,0v.06055a2.34906,2.34906,0,0,0,1.67041,2.22607,11.0584,11.0584,0,0,1,1.74463.72461,2.34745,2.34745,0,0,0,2.75879-.39209l.0459-.04541A12.97838,12.97838,0,0,1,42.313,24.085l-.04541.04541a2.34816,2.34816,0,0,0-.39258,2.75928,11.0584,11.0584,0,0,1,.72461,1.74463,2.34906,2.34906,0,0,0,2.22607,1.67041h.06055a12.688,12.688,0,0,1,0,3.39062h-.06055a2.34906,2.34906,0,0,0-2.22607,1.67041,11.108,11.108,0,0,1-.72461,1.74463,2.348,2.348,0,0,0,.39209,2.75879l.0459.0459a13.01117,13.01117,0,0,1-2.398,2.398l-.04541-.04541a2.34679,2.34679,0,0,0-2.75928-.39258,11.0584,11.0584,0,0,1-1.74463.72461,2.34906,2.34906,0,0,0-1.67041,2.22607v.06055a12.71482,12.71482,0,0,1-3.39062,0v-.06055a2.34906,2.34906,0,0,0-1.67041-2.22607,11.0584,11.0584,0,0,1-1.74463-.72461,2.34886,2.34886,0,0,0-2.75879.3916l-.0459.04639A13.01117,13.01117,0,0,1,21.687,39.915l.04541-.04541a2.349,2.349,0,0,0,.39307-2.75928,11.06387,11.06387,0,0,1-.7251-1.74463,2.34906,2.34906,0,0,0-2.22607-1.67041h-.06055a12.688,12.688,0,0,1,0-3.39062h.06055A2.34906,2.34906,0,0,0,21.40039,28.63428Z"/><path d="M21.89258,51.77393c.62939.29248,1.27832.56054,1.92871.79638l.68164-1.88086c-.59619-.21582-1.19043-.46093-1.76758-.729Z"/><path d="M18.2793,49.69434c.56982.397,1.16211.77343,1.76074,1.11816l.998-1.7334c-.54883-.31592-1.09229-.66113-1.61426-1.02539Z"/><path d="M15.08057,47.022c.48974.48633,1.00781.9585,1.5415,1.4043l1.28223-1.53418c-.48926-.40918-.96485-.84277-1.41358-1.28906Z"/><path d="M12.39014,43.84033c.40039.5669.83007,1.12158,1.27685,1.64942l1.52637-1.292c-.40918-.48388-.80322-.99218-1.17041-1.51171Z"/><path d="M10.28906,40.24219c.2959.626.62305,1.24658.97168,1.84424l1.72754-1.00879c-.31982-.54737-.61963-1.1167-.8916-1.69092Z"/><path d="M8.84473,36.33252c.18261.66943.397,1.33789.63672,1.98682l1.876-.69336c-.21972-.59424-.416-1.20655-.583-1.81983Z"/><path d="M8.103,32.23145c.06347.68994.15771,1.38525.28125,2.0664l1.96777-.35547c-.11279-.62451-.19922-1.26172-.25781-1.89453Z"/><path d="M62.48584,6.126l-9-5A.99992.99992,0,0,0,52,2V6H32A24.0275,24.0275,0,0,0,8,30l.00049.15381,2-.02051L10,30A22.02489,22.02489,0,0,1,32,8H52v4a1,1,0,0,0,1.48584.874l9-5a1,1,0,0,0,0-1.748ZM54,10.30029V3.69971L59.94092,7Z"/><path d="M55.897,31.76855c-.06347-.68994-.15771-1.38525-.28125-2.0664l-1.96777.35547c.11279.62451.19922,1.26172.25781,1.89453Z"/><path d="M52.64258,26.374c.21972.59424.416,1.20655.583,1.81983l1.92968-.52637c-.18261-.66943-.397-1.33789-.63672-1.98682Z"/><path d="M51.01172,22.92236c.31982.54737.61963,1.1167.8916,1.69092l1.80762-.85547c-.2959-.626-.623-1.24658-.97168-1.84424Z"/><path d="M48.80664,19.80225c.40918.48388.80322.99218,1.17041,1.51171l1.63281-1.15429c-.40039-.5669-.83007-1.12158-1.27685-1.64942Z"/><path d="M46.0957,17.10791c.48926.40918.96485.84277,1.41358,1.28906L48.91943,16.978c-.48974-.48633-1.00781-.9585-1.5415-1.4043Z"/><path d="M45.7207,14.30566c-.56982-.397-1.16211-.77343-1.76074-1.11816l-.998,1.7334c.54883.31592,1.09229.66113,1.61426,1.02539Z"/><path d="M42.10742,12.22607c-.62939-.29248-1.27832-.56054-1.92871-.79638l-.68164,1.88086c.59619.21582,1.19043.46093,1.76758.729Z"/><path d="M1.51416,57.874l9,5A.99992.99992,0,0,0,12,62V58H32A24.0275,24.0275,0,0,0,56,34l-.00049-.15381-2,.02051L54,34A22.02489,22.02489,0,0,1,32,56H12V52a.99992.99992,0,0,0-1.48584-.874l-9,5a1,1,0,0,0,0,1.748ZM10,53.69971v6.60058L4.05908,57Z"/></svg>
