<svg version="1.1" id="Layer_1" xmlns="http://www.w3.org/2000/svg" x="0" y="0" viewBox="0 0 159 54" xml:space="preserve"><g id="Group_1" transform="translate(-104.979 -74.178)"><path d="M168.6 103c-.1-1.3-.5-2.5-1-3.5-.6-1-1.3-1.9-2.2-2.5-.9-.7-2-1.2-3.2-1.5-1.2-.4-2.5-.5-3.9-.5-1.9 0-3.6.4-5 1.2-1.5.8-2.7 1.8-3.7 3.1s-1.7 2.7-2.2 4.4c-.5 1.6-.8 3.3-.8 5 0 2 .2 3.9.7 5.7.5 1.7 1.2 3.2 2.2 4.5 1 1.3 2.2 2.3 3.7 3 1.5.7 3.2 1.1 5.1 1.1 1.4 0 2.7-.2 3.9-.7 1.2-.5 2.3-1.1 3.2-1.9.9-.8 1.7-1.8 2.3-3s1-2.4 1.2-3.8h2.2c-.2 1.8-.7 3.4-1.5 4.8-.7 1.4-1.7 2.6-2.8 3.6-1.1 1-2.4 1.7-3.9 2.2-1.5.5-3 .8-4.6.8-2.5 0-4.6-.4-6.3-1.3-1.8-.9-3.2-2.1-4.3-3.6-1.1-1.5-1.9-3.2-2.5-5.2-.5-1.9-.8-4-.8-6.1s.3-4.1.9-6c.6-1.9 1.5-3.5 2.7-5 1.2-1.4 2.6-2.5 4.4-3.4 1.7-.8 3.7-1.2 6-1.2 1.7 0 3.2.2 4.6.6 1.4.4 2.7 1 3.8 1.9 1.1.8 2 1.9 2.7 3.2.7 1.3 1.1 2.8 1.3 4.5h-2.2zm10.1-2.7h.2c.3-1 .8-1.9 1.5-2.8.7-.9 1.6-1.6 2.7-2.2 1-.6 2.2-1.1 3.5-1.4 1.3-.3 2.6-.5 4-.4v2.2c-1.2-.2-2.5 0-4 .4s-3 1.3-4.3 2.6c-.6.6-1 1.2-1.4 1.7s-.8 1.2-1 1.8c-.3.7-.5 1.4-.6 2.2-.2.8-.3 1.8-.3 3V124h-2.2V93.6h2.2v6.7zm14.2 8.7v.4c0 1.8.2 3.5.7 5.1.5 1.6 1.2 3 2.1 4.2.9 1.2 2.1 2.2 3.5 2.9 1.4.7 3 1.1 4.9 1.1 3 0 5.4-.8 7.2-2.4 1.8-1.6 3-3.8 3.7-6.6h2.2c-.7 3.5-2.1 6.3-4.3 8.1-2.2 1.9-5.2 2.8-8.8 2.8-2.2 0-4.2-.4-5.9-1.2-1.7-.8-3.1-1.9-4.2-3.3s-2-3-2.5-5c-.6-1.9-.8-4-.8-6.2 0-2.1.3-4.2.9-6.1.6-1.9 1.4-3.7 2.6-5.1 1.1-1.5 2.6-2.7 4.3-3.5 1.7-.9 3.7-1.3 6-1.3 2.1 0 4 .4 5.6 1.2 1.6.8 3 1.9 4.1 3.2 1.1 1.4 1.9 2.9 2.5 4.7.6 1.8.9 3.7.9 5.8v1.3h-24.7zm22.3-1.9c-.1-1.7-.4-3.2-.8-4.7-.5-1.5-1.2-2.8-2.1-3.9s-2.1-2-3.4-2.7c-1.3-.7-2.8-1-4.5-1-1.8 0-3.4.3-4.8 1s-2.5 1.6-3.5 2.7c-.9 1.1-1.7 2.4-2.2 3.9-.5 1.5-.8 3-.9 4.6h22.2zm18.7-11.6h-6.6v21.2c0 1.2.1 2.2.4 2.9.3.7.7 1.2 1.3 1.6.6.4 1.3.6 2.1.7.8.1 1.7.1 2.8.1v1.9c-1.1.1-2.3.1-3.3 0-1.1-.1-2-.4-2.9-.9-.8-.5-1.5-1.2-2-2.2-.5-1-.7-2.3-.6-4.1V95.5h-5.6v-1.9h5.6v-9.4h2.2v9.4h6.6v1.9zm1.9 13.2c0-2.2.3-4.2.9-6.1.6-1.9 1.5-3.6 2.7-5 1.2-1.5 2.6-2.6 4.4-3.5 1.7-.8 3.7-1.3 6-1.3s4.2.4 6 1.3c1.7.8 3.2 2 4.4 3.5 1.2 1.5 2.1 3.1 2.7 5 .6 1.9.9 3.9.9 6.1 0 2.2-.3 4.2-.9 6.1-.6 1.9-1.5 3.6-2.7 5-1.2 1.4-2.6 2.6-4.4 3.4-1.7.8-3.7 1.3-6 1.3s-4.2-.4-6-1.3c-1.7-.8-3.2-2-4.4-3.4-1.2-1.4-2.1-3.1-2.7-5-.6-1.8-.9-3.9-.9-6.1zm2.2 0c0 1.8.3 3.5.8 5.2.5 1.7 1.3 3.2 2.2 4.5 1 1.3 2.2 2.3 3.7 3.1 1.5.8 3.1 1.2 5 1.2s3.6-.4 5-1.2c1.5-.8 2.7-1.8 3.7-3.1s1.7-2.8 2.2-4.5c.5-1.7.8-3.4.8-5.2 0-1.8-.3-3.5-.8-5.2-.5-1.7-1.3-3.2-2.2-4.5-1-1.3-2.2-2.3-3.7-3.1-1.5-.8-3.1-1.2-5-1.2s-3.6.4-5 1.2-2.7 1.8-3.7 3.1-1.7 2.8-2.2 4.5c-.5 1.7-.8 3.4-.8 5.2z" fill="#67727c"/><path id="Path_1" d="M138 123.6l-4.5-16.5-7.8-28.2c-.2-.8-1.1-1.3-2-1.1-.5.1-.9.5-1.1 1l-14.3 43.1c-.3.8.2 1.7 1 2 .5.2 1 .1 1.4-.2l15.3-10.5" fill="none" stroke="#03d8ff" stroke-width="6" stroke-linecap="round" stroke-miterlimit="10"/></g></svg>