<svg id="Capa_1" enable-background="new 0 0 512 512" height="512" viewBox="0 0 512 512" width="512" xmlns="http://www.w3.org/2000/svg"><g><path d="m357.071 135.5v68.857h43.036v172.143h68.857v-172.143h43.036v-68.857z" fill="#295fcc"/><path d="m0 135.5h68.857v241h-68.857z" fill="#37f"/><path d="m349.771 73.966c-38.623-28.109-84.361-42.966-132.271-42.966l-10 15 10 15c41.524 0 81.158 12.871 114.617 37.222z" fill="#29b1cc"/><path d="m320.786 256c0-57.043-46.243-103.286-103.286-103.286l-10 15 10 53.857c19.014 0 34.429 15.414 34.429 34.429s-15.414 34.429-34.429 34.429l-10 53.857 10 15c57.043 0 103.286-46.243 103.286-103.286z" fill="#295fcc"/><path d="m183.071 256c0-19.014 15.414-34.429 34.429-34.429v-68.857c-57.043 0-103.286 46.242-103.286 103.286s46.243 103.286 103.286 103.286v-68.857c-19.014 0-34.429-15.415-34.429-34.429z" fill="#37f"/><path d="m314.5 122.511c-28.324-20.615-61.866-31.511-97-31.511l-10 15 10 15c28.748 0 56.186 8.91 79.347 25.767z" fill="#29b1cc"/><path d="m120.5 122.511 17.653 24.256c23.161-16.857 50.599-25.767 79.347-25.767v-30c-35.134 0-68.676 10.896-97 31.511z" fill="#2ee6e6"/><path d="m85.229 73.966 17.653 24.256c33.46-24.351 73.094-37.222 114.618-37.222v-30c-47.91 0-93.648 14.857-132.271 42.966z" fill="#2ee6e6"/><path d="m296.847 365.233c-23.161 16.857-50.599 25.767-79.347 25.767l-10 15 10 15c35.134 0 68.676-10.896 97-31.511z" fill="#29b1cc"/><path d="m217.5 451-10 15 10 15c47.91 0 93.648-14.857 132.271-42.966l-17.653-24.256c-33.46 24.351-73.094 37.222-114.618 37.222z" fill="#29b1cc"/><g fill="#2ee6e6"><path d="m138.153 365.233-17.653 24.256c28.324 20.615 61.867 31.511 97 31.511v-30c-28.748 0-56.186-8.91-79.347-25.767z"/><path d="m102.883 413.778-17.653 24.256c38.622 28.109 84.36 42.966 132.27 42.966v-30c-41.524 0-81.158-12.871-114.617-37.222z"/></g></g></svg>