<svg id="FLATICON_FLAT" height="512" viewBox="0 0 64 64" width="512" xmlns="http://www.w3.org/2000/svg" xmlns:xlink="http://www.w3.org/1999/xlink" data-name="FLATICON FLAT"><linearGradient id="linear-gradient" gradientUnits="userSpaceOnUse" x1="4" x2="60" y1="32" y2="32"><stop offset="0" stop-color="#ff81ff"/><stop offset="1" stop-color="#a93aff"/></linearGradient><path d="m4 45.485v2.49a3.3908 3.3908 0 0 0 3.38 3.39h49.24a3.3908 3.3908 0 0 0 3.38-3.39v-2.49c-.9008.00479-56 0-56 0zm28 .82a1.25017 1.25017 0 0 1 0 2.5 1.25017 1.25017 0 0 1 0-2.5zm24.62-32.63h-33.1c-.0012.87314 0 6.04 0 6.04h.54a2.5189 2.5189 0 0 1 1.76991 4.27005l-6.08991 6.08995a2.50816 2.50816 0 0 1 -3.54 0l-6.1-6.09a2.51169 2.51169 0 0 1 -.54-2.73 2.68235 2.68235 0 0 1 2.87-1.5399c.01786-1.40531 0-6.04005 0-6.04005h-5.05a3.39075 3.39075 0 0 0 -3.38 3.38995v26.42h56v-26.42a3.39075 3.39075 0 0 0 -3.38-3.39zm-46.48 19.42h13.92a1.00016 1.00016 0 0 1 -.00006 2h-13.91994a1.00011 1.00011 0 0 1 0-2zm17.43 7.19h-17.89a1.00011 1.00011 0 0 1 0-2h17.89a1.00016 1.00016 0 0 1 0 2zm27.6-8.98a.99926.99926 0 0 1 -.84.99l-1.88.3a8.93818 8.93818 0 0 1 -.37.9l1.11 1.54a1.00314 1.00314 0 0 1 -.1 1.3l-2.44 2.43a1.00153 1.00153 0 0 1 -1.29.11l-1.54-1.12a7.73669 7.73669 0 0 1 -.9.37l-.31 1.88a.99028.99028 0 0 1 -.98.85h-3.45a1.00819 1.00819 0 0 1 -.99-.85l-.3-1.88a7.08268 7.08268 0 0 1 -.9-.37l-1.54 1.12a1.01616 1.01616 0 0 1 -1.3-.11l-2.44-2.43a1.01514 1.01514 0 0 1 -.1-1.3l1.12-1.54a9.0063 9.0063 0 0 1 -.38-.9l-1.88-.3a1.00848 1.00848 0 0 1 -.84-.99v-3.45a.99036.99036 0 0 1 .84-.98l1.88-.31c.11-.3.24-.61.38-.9l-1.12-1.54a1.00051 1.00051 0 0 1 .1-1.29l2.44-2.44a1.00305 1.00305 0 0 1 1.3-.1l1.54 1.11a8.933 8.933 0 0 1 .9-.37l.3-1.88a.99933.99933 0 0 1 .99-.84h3.45a.98153.98153 0 0 1 .98.84l.31 1.88c.3.11.61.23.9.37l1.54-1.11a.98874.98874 0 0 1 1.29.1l2.44 2.44a.98875.98875 0 0 1 .1 1.29l-1.11 1.54c.14.29.26.6.37.9l1.88.31a.98153.98153 0 0 1 .84.98zm-43.3-10.09h2.06c.00781-1.63393.00147-8.375 0-9.04v-5.2a1.003 1.003 0 0 1 1-1h6.09a1.003 1.003 0 0 1 1 1c-.00051 4.42649.00071 9.82779 0 14.24h2.04a1.01159 1.01159 0 0 1 .71007 1.71l-6.09 6.09a1.01665 1.01665 0 0 1 -1.42 0l-6.1-6.09a1.00237 1.00237 0 0 1 -.21-1.09.9872.9872 0 0 1 .91993-.62zm38.85 6.51c-.09438-.94583-1.22655-1.81661-.62012-2.73l.97016-1.35-1.23-1.23-1.35.97c-.91653.59639-1.78479-.51977-2.73-.61986-.93177-.21754-.77249-1.60428-.99-2.45015h-1.74004c-.21316.84929-.03936 2.22574-.99 2.45-.94619.10222-1.8092 1.22051-2.73.62011l-1.35-.9701-1.23 1.23.98 1.35c.58978.91938-.52448 1.78574-.61985 2.73007-.21772.93313-1.60937.77221-2.46017.99v1.74l1.65.26a.99878.99878 0 0 1 .81.73c.09438.92712 1.21365 1.81472.62011 2.72l-.98009 1.35993 1.23 1.23 1.35-.98c.92255-.5913 1.7855.51345 2.73.61987a.999.999 0 0 1 .73.81013l.26 1.65h1.74l.27-1.65a.98751.98751 0 0 1 .72-.81c.94486-.10085 1.81035-1.21031 2.73-.62012l1.35.98012 1.23-1.23-.97-1.36c-.59962-.90723.51949-1.78179.61986-2.72006.22957-.95492 1.58665-.775 2.45015-.99v-1.74l-1.65-.27a.988.988 0 0 1 -.80001-.71994zm-6.82 7.37c-7.28064-.2425-7.27785-10.78511.00013-11.02 7.28087.22925 7.28026 10.78532-.00013 11.02zm.00011-2a3.51024 3.51024 0 0 1 -.00011-7.02 3.51024 3.51024 0 0 1 .00013 7.02zm-2.41011 24.93h-18.98a1 1 0 1 1 0-2h3.85v-3.16c2.62268.00041 8.65768-.00057 11.28 0v3.16h3.85a1.00017 1.00017 0 0 1 0 2z" fill="url(#linear-gradient)"/></svg>