<svg enable-background="new 0 0 512 512" height="512" viewBox="0 0 512 512" width="512" xmlns="http://www.w3.org/2000/svg"><g id="_x32_57_x2C__Blog_x2C__Management_x2C__Optimization_x2C__Seo"><g><path d="m476 115.5v246c0 17.67-14.33 32-32 32-14.037 0-361.912 0-376 0-17.67 0-32-14.33-32-32v-246c0-17.67 14.33-32 32-32h376c17.67 0 32 14.33 32 32z" fill="#fff"/><path d="m446 113.5v220h-380v-220z" fill="#98c7fd"/><path d="m293.67 120.85c19.28 0 34.979 15.7 34.979 34.98s-15.699 34.99-34.979 34.99-34.99-15.71-34.99-34.99 15.71-34.98 34.99-34.98z" fill="#fff"/><path d="m293.67 95.85c33.06 0 59.979 26.92 59.979 59.98s-26.92 59.99-59.979 59.99c-33.061 0-59.99-26.93-59.99-59.99s26.929-59.98 59.99-59.98zm34.979 59.98c0-19.28-15.699-34.98-34.979-34.98s-34.99 15.7-34.99 34.98 15.71 34.99 34.99 34.99 34.979-15.71 34.979-34.99z" fill="#98c7fd"/><path d="m406.34 145.35-15.96 10.48 15.96 10.45c-1.19 13.03-4.61 25.45-9.87 36.8l-19.08 1.11 8.59 17.02c-7.399 10.45-16.489 19.53-26.89 26.94l-17.061-8.6-1.109 19.08c-11.351 5.26-23.73 8.68-36.771 9.87l-10.479-16-10.49 16c-13.03-1.19-25.41-4.61-36.76-9.87l-1.11-19.08-17.06 8.6c-10.41-7.41-19.53-16.49-26.9-26.94l8.561-17.02-19.08-1.11c-5.221-11.35-8.641-23.77-9.83-36.76l15.95-10.49-15.951-10.48c1.02-11.17 3.68-21.86 7.71-31.85.66-1.67 1.37-3.33 2.12-4.96l19.08-1.07-8.561-17.06c1.68-2.37 3.46-4.68 5.32-6.91h.01c6.271-7.56 13.53-14.31 21.57-20.03l17.06 8.6 1.11-19.08c11.35-5.22 23.729-8.64 36.76-9.83l10.49 15.96 10.479-15.96c13 1.19 25.42 4.61 36.771 9.83l1.109 19.08 17.021-8.6c8.06 5.72 15.34 12.47 21.61 20.03h.01c1.859 2.23 3.63 4.54 5.31 6.91l-8.59 17.06 19.12 1.07c.75 1.63 1.46 3.29 2.12 4.96 4.031 9.99 6.69 20.68 7.711 31.85zm-52.691 10.48c0-33.06-26.92-59.98-59.979-59.98-33.061 0-59.99 26.92-59.99 59.98s26.93 59.99 59.99 59.99c33.059 0 59.979-26.93 59.979-59.99z" fill="#fff"/><path d="m421 28.5c8.279 0 15 6.72 15 15s-6.721 15-15 15c-8.28 0-15-6.72-15-15s6.72-15 15-15z" fill="#fff"/><circle cx="101" cy="453.5" fill="#fff" r="30"/><path d="m221 418.5h70v40h-70z" fill="#fff"/><path d="m333.5 458.5c6.899 0 12.5 5.6 12.5 12.5 0 6.912-5.6 12.5-12.5 12.5h-155c-6.9 0-12.5-5.6-12.5-12.5 0-6.912 5.6-12.5 12.5-12.5z" fill="#98c7fd"/><path d="m331 393.5v5.5c0 10.77-8.73 19.5-19.5 19.5-12.763 0-97.17 0-111 0-10.771 0-19.5-8.73-19.5-19.5v-5.5z" fill="#98c7fd"/><g fill="#1e80cc"><circle cx="458.5" cy="426" r="7.5"/><circle cx="393.5" cy="446" r="7.5"/><path d="m263.069 356.43c1.811 1.811 2.931 4.311 2.931 7.07s-1.12 5.26-2.931 7.07c-1.81 1.81-4.31 2.93-7.069 2.93-5.521 0-10-4.48-10-10 0-2.76 1.12-5.26 2.93-7.07 1.811-1.81 4.311-2.93 7.07-2.93s5.26 1.12 7.069 2.93z"/><circle cx="198.5" cy="36" r="7.5"/><circle cx="153.5" cy="416" r="7.5"/><circle cx="103.5" cy="51" r="7.5"/><circle cx="43.5" cy="431" r="7.5"/><path d="m221 423.5h-20.5c-13.51 0-24.5-10.99-24.5-24.5v-5.5c0-2.762 2.238-5 5-5 2.761 0 5 2.238 5 5v5.5c0 7.995 6.505 14.5 14.5 14.5h20.5c2.761 0 5 2.238 5 5s-2.239 5-5 5z"/><path d="m311.5 423.5h-20.5c-2.762 0-5-2.238-5-5s2.238-5 5-5h20.5c7.995 0 14.5-6.505 14.5-14.5v-5.5c0-2.762 2.238-5 5-5s5 2.238 5 5v5.5c0 13.51-10.99 24.5-24.5 24.5z"/><path d="m291 463.5c-2.762 0-5-2.238-5-5v-35h-60v35c0 2.762-2.239 5-5 5-2.762 0-5-2.238-5-5v-40c0-2.762 2.238-5 5-5h70c2.762 0 5 2.238 5 5v40c0 2.762-2.238 5-5 5z"/><path d="m333.5 488.5h-155c-9.649 0-17.5-7.851-17.5-17.5 0-4.677 1.82-9.071 5.125-12.376 3.304-3.304 7.699-5.124 12.375-5.124h155c9.649 0 17.5 7.851 17.5 17.5 0 4.676-1.82 9.07-5.125 12.375s-7.699 5.125-12.375 5.125zm-155-25c-2.005 0-3.889.78-5.305 2.195-1.416 1.416-2.195 3.3-2.195 5.305 0 4.136 3.364 7.5 7.5 7.5h155c2.005 0 3.889-.78 5.305-2.195 1.415-1.416 2.195-3.3 2.195-5.305 0-4.136-3.364-7.5-7.5-7.5z"/><path d="m101 488.5c-19.299 0-35-15.701-35-35s15.701-35 35-35 35 15.701 35 35-15.701 35-35 35zm0-60c-13.785 0-25 11.215-25 25s11.215 25 25 25 25-11.215 25-25-11.215-25-25-25z"/><path d="m446 338.5h-380c-2.762 0-5-2.238-5-5v-220c0-2.761 2.238-5 5-5h122.71c2.761 0 5 2.239 5 5s-2.239 5-5 5h-117.71v210h370v-210h-42.37c-2.762 0-5-2.239-5-5s2.238-5 5-5h47.37c2.762 0 5 2.239 5 5v220c0 2.762-2.238 5-5 5z"/><path d="m444 398.5h-376c-20.402 0-37-16.598-37-37v-246c0-20.402 16.598-37 37-37h138.67c2.761 0 5 2.239 5 5s-2.239 5-5 5h-138.67c-14.888 0-27 12.112-27 27v246c0 14.888 12.112 27 27 27h376c14.888 0 27-12.112 27-27v-246c0-14.888-12.112-27-27-27h-63.33c-2.762 0-5-2.239-5-5s2.238-5 5-5h63.33c20.402 0 37 16.598 37 37v246c0 20.402-16.598 37-37 37z"/><path d="m293.67 220.82c-35.836 0-64.99-29.154-64.99-64.99 0-35.83 29.154-64.98 64.99-64.98 35.83 0 64.98 29.15 64.98 64.98 0 35.836-29.15 64.99-64.98 64.99zm0-119.97c-30.321 0-54.99 24.664-54.99 54.98 0 30.321 24.669 54.99 54.99 54.99 30.316 0 54.98-24.668 54.98-54.99 0-30.316-24.664-54.98-54.98-54.98z"/><path d="m293.67 195.82c-22.051 0-39.99-17.939-39.99-39.99 0-22.045 17.939-39.98 39.99-39.98 22.045 0 39.98 17.935 39.98 39.98 0 22.05-17.935 39.99-39.98 39.99zm0-69.97c-16.537 0-29.99 13.449-29.99 29.98 0 16.537 13.453 29.99 29.99 29.99 16.531 0 29.98-13.453 29.98-29.99 0-16.531-13.449-29.98-29.98-29.98z"/><path d="m283.181 273.5c-.151 0-.304-.007-.456-.021-13.351-1.22-26.273-4.689-38.407-10.313-1.672-.774-2.782-2.406-2.89-4.246l-.667-11.478-10.261 5.172c-1.655.834-3.639.684-5.149-.391-10.987-7.821-20.438-17.286-28.087-28.132-1.063-1.508-1.21-3.479-.381-5.128l5.142-10.224-11.485-.668c-1.845-.107-3.479-1.224-4.252-2.902-5.593-12.16-9.047-25.078-10.267-38.394-.168-1.838.689-3.619 2.231-4.634l9.596-6.31-9.594-6.303c-1.543-1.014-2.401-2.795-2.233-4.633 1.042-11.411 3.751-22.603 8.053-33.266.677-1.712 1.426-3.466 2.215-5.18.773-1.682 2.413-2.798 4.262-2.902l11.475-.644-5.144-10.252c-.829-1.651-.679-3.625.39-5.133 1.739-2.454 3.609-4.884 5.56-7.222.059-.07.118-.138.181-.205 6.523-7.829 14.039-14.791 22.341-20.697 1.512-1.074 3.493-1.225 5.148-.391l10.261 5.172.667-11.478c.107-1.845 1.224-3.48 2.902-4.252 12.17-5.597 25.088-9.052 38.395-10.267 1.836-.166 3.619.691 4.634 2.233l6.31 9.6 6.303-9.599c1.014-1.543 2.79-2.407 4.636-2.234 13.322 1.219 26.242 4.673 38.402 10.267 1.68.772 2.795 2.407 2.902 4.252l.668 11.47 10.216-5.162c1.653-.835 3.636-.688 5.148.385 8.34 5.918 15.872 12.883 22.391 20.706.061.064.118.131.176.199 1.898 2.277 3.767 4.707 5.55 7.221 1.07 1.51 1.219 3.488.387 5.141l-5.159 10.245 11.502.644c1.849.104 3.489 1.22 4.263 2.902.789 1.713 1.538 3.467 2.228 5.212 4.289 10.631 6.998 21.823 8.04 33.234.168 1.839-.691 3.621-2.235 4.634l-9.586 6.294 9.581 6.272c1.547 1.013 2.408 2.796 2.24 4.638-1.222 13.384-4.691 26.32-10.313 38.448-.774 1.672-2.406 2.782-4.246 2.889l-11.474.667 5.158 10.218c.834 1.653.687 3.631-.384 5.143-7.704 10.88-17.148 20.342-28.069 28.122-1.511 1.077-3.494 1.231-5.152.393l-10.26-5.172-.668 11.478c-.106 1.84-1.217 3.472-2.889 4.246-12.136 5.624-25.061 9.094-38.418 10.313-1.838.166-3.624-.693-4.637-2.24l-6.3-9.617-6.307 9.619c-.933 1.42-2.51 2.261-4.184 2.261zm10.489-26c1.687 0 3.259.85 4.183 2.26l8.809 13.449c10.175-1.214 20.055-3.865 29.443-7.904l.935-16.045c.098-1.681 1.035-3.2 2.494-4.042s3.244-.892 4.748-.133l14.324 7.221c8.188-6.174 15.413-13.412 21.534-21.571l-7.214-14.292c-.759-1.504-.71-3.289.131-4.749.842-1.46 2.36-2.398 4.043-2.496l16.045-.933c4.038-9.388 6.689-19.276 7.904-29.473l-13.408-8.779c-1.409-.923-2.26-2.495-2.261-4.18-.001-1.686.847-3.258 2.256-4.183l13.413-8.808c-1.124-9.412-3.493-18.64-7.056-27.472-.267-.674-.541-1.345-.821-2.009l-16.062-.899c-1.684-.094-3.205-1.03-4.049-2.49-.845-1.459-.896-3.246-.138-4.751l7.218-14.332c-1.031-1.373-2.083-2.707-3.145-3.987-.063-.068-.126-.138-.186-.21-5.368-6.472-11.493-12.308-18.238-17.379l-14.288 7.22c-1.503.759-3.288.711-4.75-.13-1.46-.841-2.398-2.36-2.496-4.042l-.934-16.036c-9.411-4.019-19.292-6.661-29.448-7.873l-8.808 13.413c-.925 1.407-2.495 2.255-4.179 2.255s-3.255-.847-4.18-2.254l-8.817-13.415c-10.146 1.209-20.022 3.851-29.439 7.873l-.933 16.036c-.099 1.681-1.036 3.2-2.495 4.042-1.46.84-3.244.89-4.747.133l-14.326-7.222c-6.717 5.063-12.831 10.899-18.205 17.379-.062.074-.125.146-.19.217-1.082 1.304-2.136 2.637-3.15 3.986l7.191 14.333c.756 1.505.702 3.29-.142 4.748-.845 1.458-2.365 2.393-4.048 2.487l-16.021.898c-.278.658-.548 1.318-.809 1.978-3.574 8.862-5.944 18.092-7.068 27.505l13.404 8.808c1.407.924 2.254 2.494 2.255 4.178 0 1.683-.847 3.253-2.253 4.179l-13.406 8.816c1.213 10.153 3.854 20.03 7.873 29.441l16.036.933c1.681.098 3.199 1.035 4.04 2.493.842 1.458.893 3.242.137 4.746l-7.192 14.299c6.084 8.134 13.313 15.371 21.548 21.571l14.327-7.222c1.503-.759 3.287-.708 4.747.133 1.459.841 2.396 2.36 2.495 4.042l.933 16.045c9.389 4.038 19.265 6.69 29.436 7.904l8.818-13.451c.924-1.41 2.496-2.259 4.182-2.259zm-86.99-164h.01z"/><path d="m136 238.5h-45c-2.762 0-5-2.239-5-5s2.238-5 5-5h45c2.761 0 5 2.239 5 5s-2.239 5-5 5z"/><path d="m186 263.5h-95c-2.762 0-5-2.238-5-5s2.238-5 5-5h95c2.761 0 5 2.238 5 5s-2.239 5-5 5z"/><path d="m186 288.5h-95c-2.762 0-5-2.238-5-5s2.238-5 5-5h95c2.761 0 5 2.238 5 5s-2.239 5-5 5z"/><path d="m186 313.5h-95c-2.762 0-5-2.238-5-5s2.238-5 5-5h95c2.761 0 5 2.238 5 5s-2.239 5-5 5z"/><path d="m421 63.5c-11.028 0-20-8.972-20-20s8.972-20 20-20 20 8.972 20 20-8.972 20-20 20zm0-30c-5.514 0-10 4.486-10 10s4.486 10 10 10 10-4.486 10-10-4.486-10-10-10z"/></g></g></g></svg>