<svg id="Layer_1" enable-background="new 0 0 68 68" height="512" viewBox="0 0 68 68" width="512" xmlns="http://www.w3.org/2000/svg"><g id="_x39_0"><g><g><g><path d="m63.5 61.9c-.5 2-2.3 3.6-4.5 3.6h-50c-2.2 0-4-1.5-4.5-3.6-.1-.2-.1-.5 0-.7 0-.4.2-.7.4-1l2.3-3.6c.6-1 1.7-1.6 2.9-1.6h47.8c1.2 0 2.3.6 2.9 1.6l2.3 3.6c.2.3.3.7.4 1s.1.5 0 .7z" fill="#e9e7fc"/></g><g><path d="m59.9 20.2v31.9c0 1.6-1.3 2.9-2.9 2.9h-46c-1.6 0-2.9-1.3-2.9-2.9v-31.9c0-1.6 1.3-2.9 2.9-2.9h46c1.6 0 2.9 1.3 2.9 2.9z" fill="#423d9b"/></g><g><path d="m11.3 49.1v-25.9c0-.8.7-1.5 1.5-1.5h42.5c.8 0 1.5.7 1.5 1.5v25.9c0 .8-.7 1.5-1.5 1.5h-42.5c-.8 0-1.5-.7-1.5-1.5z" fill="#fff"/></g><g><path d="m63.5 61.9c-.5 2-2.3 3.6-4.5 3.6h-50c-2.2 0-4-1.5-4.5-3.6-.1-.2-.1-.5 0-.7h59.1c0 .3 0 .5-.1.7z" fill="#cccff2"/></g><g><path d="m37.2 19.6c0 .2-.1.4-.2.5s-.3.2-.5.2h-4.9c-.4 0-.7-.3-.7-.7 0-.2.1-.4.2-.5s.3-.2.5-.2h4.9c.3 0 .7.3.7.7z" fill="#211a67"/></g><g><path d="m40.1 59.3h-12.2c-.7 0-1.2-.8-1-1.2l.5-.8c.1-.2.4-.4.7-.4h11.6c.3 0 .5.1.7.4l.5.8c.4.5-.1 1.2-.8 1.2z" fill="#cccff2"/></g><g><path d="m58.3 32.8c.3 1.7.3 3.4.4 5.1 0 1.7-.1 3.4-.4 5.1-.3-1.7-.3-3.4-.4-5.1 0-1.7.1-3.4.4-5.1z" fill="#fff"/></g></g><g><path d="m7.9 63.4c2.2-.4 4.4-.4 6.6-.5 2.2 0 4.4.1 6.6.5-2.2.4-4.4.4-6.6.5-2.3-.1-4.5-.2-6.6-.5z" fill="#fff"/></g></g><g><path d="m54.5 50.6h-41.2c.1-1.2 1-2.2 2.3-2.2.4 0 .8.1 1.2.3 0-2.5 2-4.5 4.5-4.5s4.5 2 4.5 4.4c.6-.8 1.6-1.4 2.7-1.4.8 0 1.6.3 2.2.8v-9.5h7.1v9.2c.5-.3 1.1-.5 1.7-.5 1.1 0 2.1.5 2.7 1.4 0-2.5 2-4.4 4.5-4.4s4.5 2 4.5 4.5c1.3-.8 3.2.2 3.3 1.9z" fill="#57b3fe"/></g><g><g><path d="m45.3 36.4c-.4-2.4-.9-4.7-1.6-7.1 0 0 2.2 3.8 1.6 7.1z" fill="#fff"/></g><g><g><g><g><path d="m45.3 39.5c-.4.1-.9-.1-1.2-.4l-5.9-5.3 4.6-7.8s4.4 3.6 3.8 12c-.1.8-.6 1.4-1.3 1.5z" fill="#df3260"/></g><g><path d="m22.7 39.5c.4.1.9-.1 1.2-.4l5.9-5.3-4.6-7.8s-4.4 3.6-3.8 12c.1.8.6 1.4 1.3 1.5z" fill="#df3260"/></g></g><g><path d="m43.7 17.6c0 6.9-1.3 11.5-4.9 17.1-.4.6-1.1 1-1.9 1h-5.7c-.8 0-1.5-.4-1.9-1-3.6-5.6-4.9-10.2-4.9-17.1 0-7.6 6.1-15 9.7-15.1 3.5.1 9.6 7.4 9.6 15.1z" fill="#e9e7fc"/></g><g><path d="m40.4 7.5c-2-3-4.5-4.9-6.4-5-1.9 0-4.4 2-6.4 5z" fill="#e93565"/></g><g><circle cx="34" cy="16.8" fill="#1d2943" r="5.1"/></g><g><path d="m34.6 46.3c-.4.3-.9.3-1.3 0-5.9-5.7-3.2-9.5-2.4-10.4.1-.1.3-.2.4-.2h5.3c.2 0 .3.1.4.2.8.9 3.5 4.7-2.4 10.4z" fill="#ffd475"/></g><g><path d="m34.4 42.6c-.2.2-.6.2-.8 0-3.8-3.7-2.1-6.2-1.6-6.7.1-.1.2-.1.3-.1h3.4c.1 0 .2 0 .3.1.5.5 2.2 3-1.6 6.7z" fill="#f9a83d"/></g><g><path d="m33.9 39.5c-1.7 0-1.6-5.5-1.6-9.2s.7-4.3 1.6-4.3 1.6.6 1.6 4.3.1 9.2-1.6 9.2z" fill="#e93565"/></g><g><circle cx="34" cy="16.8" fill="#57b3fe" r="3.6"/></g></g><g><path d="m39.3 10.7c1.4.9 2.2 2.5 2.5 4.2s0 3.4-1 4.8c.2-1.6.3-3.1 0-4.6-.1-1.6-.7-3-1.5-4.4z" fill="#fff"/></g></g></g></g></svg>