<svg id="Layer_1" height="512" viewBox="0 0 100 100" width="512" xmlns="http://www.w3.org/2000/svg"><path d="m16.667 20h40v60h-40z" fill="#e0f2f7"/><g fill="#ffc00e"><path d="m76.666 56.667c0-1.216.331-2.353.9-3.334h-27.568v6.669h27.566c-.567-.981-.898-2.117-.898-3.335z"/><path d="m63.334 43.333c0-1.216.33-2.352.898-3.334h-14.234v6.667h14.233c-.567-.981-.897-2.117-.897-3.333z"/><path d="m56.667 70c0-1.214.331-2.352.899-3.333h-7.568v6.667h7.567c-.568-.98-.898-2.117-.898-3.334z"/><path d="m76.666 29.999c0-1.215.331-2.352.899-3.333h-27.567v6.667h27.566c-.567-.981-.898-2.117-.898-3.334z"/></g><path d="m23.333 53.333h20v6.669h-20z" fill="#455a64"/><path d="m23.333 66.667h20v6.667h-20z" fill="#455a64"/><path d="m23.333 39.999h20v6.667h-20z" fill="#455a64"/><path d="m23.333 26.666h20v6.667h-20z" fill="#455a64"/><path d="m23.333 53.333h4v6.669h-4z" fill="#263238"/><path d="m23.333 66.667h4v6.667h-4z" fill="#263238"/><path d="m23.333 39.999h4v6.667h-4z" fill="#263238"/><path d="m23.333 26.666h4v6.667h-4z" fill="#263238"/><path d="m56.667 20c0-3.685-2.986-6.667-6.669-6.667h-33.331c-3.682 0-6.667 2.985-6.667 6.667v60c0 3.686 2.985 6.667 6.667 6.667h33.332c3.683 0 6.669-2.981 6.669-6.667h-40v-60z" fill="#bdbcbc"/><path d="m20.667 76v-56h-4v60h40v-4z" fill="#b6e2eb"/><path d="m76.666 56.667c0-1.216.331-2.353.9-3.334h-3.506c-.376 1.042-.594 2.162-.594 3.334s.216 2.291.592 3.335h3.506c-.567-.981-.898-2.117-.898-3.335z" fill="#f68e1e"/><path d="m54.06 66.667c-.377 1.044-.593 2.163-.593 3.333 0 1.172.216 2.291.593 3.334h3.506c-.568-.98-.898-2.117-.898-3.334 0-1.214.331-2.352.899-3.333z" fill="#f68e1e"/><path d="m63.334 43.333c0-1.216.33-2.352.898-3.334h-3.508c-.375 1.043-.591 2.162-.591 3.334 0 1.171.216 2.29.591 3.333h3.507c-.567-.981-.897-2.117-.897-3.333z" fill="#f68e1e"/><path d="m76.666 29.999c0-1.215.331-2.352.899-3.333h-3.508c-.375 1.043-.591 2.162-.591 3.333 0 1.172.217 2.291.594 3.334h3.504c-.567-.981-.898-2.117-.898-3.334z" fill="#f68e1e"/><path d="m90 56.667c0 3.687-2.988 6.667-6.666 6.667-3.686 0-6.668-2.98-6.668-6.667 0-3.68 2.982-6.668 6.668-6.668 3.678 0 6.666 2.988 6.666 6.668z" fill="#7cb342"/><path d="m76.666 43.333c0 3.685-2.987 6.666-6.666 6.666-3.685 0-6.666-2.981-6.666-6.666 0-3.679 2.981-6.667 6.666-6.667 3.679 0 6.666 2.988 6.666 6.667z" fill="#7cb342"/><path d="m70 70c0 3.686-2.988 6.667-6.666 6.667-3.685 0-6.667-2.981-6.667-6.667 0-3.678 2.982-6.666 6.667-6.666 3.678 0 6.666 2.988 6.666 6.666z" fill="#7cb342"/><path d="m90 29.999c0 3.686-2.988 6.667-6.666 6.667-3.686 0-6.668-2.981-6.668-6.667 0-3.678 2.982-6.666 6.668-6.666 3.678 0 6.666 2.988 6.666 6.666z" fill="#7cb342"/><path d="m84.046 25.29c2.605 2.605 2.605 6.822-.001 9.429-.785.785-1.721 1.33-2.713 1.642 2.295.719 4.897.173 6.713-1.643 2.607-2.606 2.605-6.822 0-9.428-1.815-1.815-4.419-2.361-6.713-1.643.993.313 1.928.857 2.714 1.643z" fill="#568b3f"/><path d="m70.713 38.623c2.604 2.604 2.605 6.822 0 9.429-.786.785-1.723 1.33-2.715 1.642 2.294.719 4.897.173 6.715-1.643 2.605-2.606 2.604-6.823 0-9.428-1.817-1.815-4.421-2.361-6.715-1.643.992.312 1.929.857 2.715 1.643z" fill="#568b3f"/><path d="m64.045 65.291c2.606 2.604 2.606 6.821 0 9.428-.785.786-1.722 1.331-2.714 1.643 2.296.719 4.898.173 6.714-1.643 2.606-2.606 2.605-6.823 0-9.428-1.815-1.816-4.42-2.361-6.714-1.643.994.311 1.929.857 2.714 1.643z" fill="#568b3f"/><path d="m84.045 51.958c2.606 2.604 2.606 6.821 0 9.428-.785.786-1.722 1.331-2.714 1.643 2.296.719 4.898.173 6.714-1.643 2.606-2.606 2.605-6.823 0-9.428-1.815-1.815-4.42-2.361-6.714-1.643.994.312 1.929.857 2.714 1.643z" fill="#568b3f"/></svg>