<?xml version="1.0" encoding="iso-8859-1"?>
<!-- Generator: Adobe Illustrator 19.0.0, SVG Export Plug-In . SVG Version: 6.00 Build 0)  -->
<svg version="1.1" id="Capa_1" xmlns="http://www.w3.org/2000/svg" xmlns:xlink="http://www.w3.org/1999/xlink" x="0px" y="0px"
	 viewBox="0 0 496 496" style="enable-background:new 0 0 496 496;" xml:space="preserve">
<rect x="152" y="216" style="fill:#FFCB57;" width="192" height="176"/>
<g>
	<rect x="192" y="144" style="fill:#E56565;" width="16" height="48"/>
	<rect x="192" y="112" style="fill:#E56565;" width="16" height="16"/>
	<rect x="224" y="144" style="fill:#E56565;" width="16" height="48"/>
	<rect x="224" y="112" style="fill:#E56565;" width="16" height="16"/>
	<rect x="288" y="144" style="fill:#E56565;" width="16" height="48"/>
	<rect x="288" y="112" style="fill:#E56565;" width="16" height="16"/>
	<rect x="256" y="144" style="fill:#E56565;" width="16" height="48"/>
	<rect x="256" y="112" style="fill:#E56565;" width="16" height="16"/>
	<rect x="80" y="344" style="fill:#E56565;" width="48" height="16"/>
	<rect x="48" y="344" style="fill:#E56565;" width="16" height="16"/>
	<rect x="80" y="312" style="fill:#E56565;" width="48" height="16"/>
	<rect x="48" y="312" style="fill:#E56565;" width="16" height="16"/>
	<rect x="80" y="248" style="fill:#E56565;" width="48" height="16"/>
	<rect x="48" y="248" style="fill:#E56565;" width="16" height="16"/>
	<rect x="80" y="280" style="fill:#E56565;" width="48" height="16"/>
	<rect x="48" y="280" style="fill:#E56565;" width="16" height="16"/>
	<rect x="288" y="416" style="fill:#E56565;" width="16" height="48"/>
	<rect x="288" y="480" style="fill:#E56565;" width="16" height="16"/>
	<rect x="256" y="416" style="fill:#E56565;" width="16" height="48"/>
	<rect x="256" y="480" style="fill:#E56565;" width="16" height="16"/>
	<rect x="192" y="416" style="fill:#E56565;" width="16" height="48"/>
	<rect x="192" y="480" style="fill:#E56565;" width="16" height="16"/>
	<rect x="224" y="416" style="fill:#E56565;" width="16" height="48"/>
	<rect x="224" y="480" style="fill:#E56565;" width="16" height="16"/>
	<rect x="368" y="248" style="fill:#E56565;" width="48" height="16"/>
	<rect x="432" y="248" style="fill:#E56565;" width="16" height="16"/>
	<rect x="368" y="280" style="fill:#E56565;" width="48" height="16"/>
	<rect x="432" y="280" style="fill:#E56565;" width="16" height="16"/>
	<rect x="368" y="344" style="fill:#E56565;" width="48" height="16"/>
	<rect x="432" y="344" style="fill:#E56565;" width="16" height="16"/>
	<rect x="368" y="312" style="fill:#E56565;" width="48" height="16"/>
	<rect x="432" y="312" style="fill:#E56565;" width="16" height="16"/>
</g>
<g>
	<path style="fill:#3F3A34;" d="M144,400h208V208H144V400z M160,224h176v160H160V224z"/>
	<path style="fill:#3F3A34;" d="M176,368h144V240H176V368z M192,256h112v96H192V256z"/>
	<rect x="272" y="272" style="fill:#3F3A34;" width="16" height="64"/>
	<path style="fill:#3F3A34;" d="M208,336h16v-16h16v16h16v-64h-48V336z M240,288v16h-16v-16H240z"/>
	<path style="fill:#3F3A34;" d="M436,112c-4.2,0-8.328,0.44-12.344,1.264C420.248,76.712,389.424,48,352,48
		c-8.16,0-16.152,1.44-23.704,4.08C314.28,20.576,283.2,0,248,0s-66.272,20.568-80.296,52.072C160.144,49.432,152.152,48,144,48
		c-37.424,0-68.248,28.712-71.656,65.264C68.328,112.44,64.2,112,60,112c-33.088,0-60,26.912-60,60c0,33.648,28.112,60,64,60h64v-16
		H64c-26.912,0-48-19.328-48-44c0-24.264,19.736-44,44-44c12.096,0,23.376,4.808,31.752,13.536l11.544-11.08
		c-4.52-4.704-9.664-8.536-15.248-11.496C88.616,88.568,113.472,64,144,64c13.656,0,26.8,4.968,37.024,13.984l10.584-12
		c-2.968-2.624-6.16-4.936-9.48-7.008C193.52,32.992,219.056,16,248,16c28.96,0,54.504,17.016,65.88,43.016
		c-5.848,3.656-11.24,8.088-15.888,13.368l12,10.584C320.632,70.912,335.944,64,352,64c30.528,0,55.384,24.568,55.944,54.96
		c-5.576,2.96-10.728,6.792-15.248,11.496l11.544,11.08C412.624,132.808,423.904,128,436,128c24.264,0,44,19.736,44,44
		c0,24.672-21.088,44-48,44h-64v16h64c35.888,0,64-26.352,64-60C496,138.912,469.088,112,436,112z"/>
</g>
<g>
</g>
<g>
</g>
<g>
</g>
<g>
</g>
<g>
</g>
<g>
</g>
<g>
</g>
<g>
</g>
<g>
</g>
<g>
</g>
<g>
</g>
<g>
</g>
<g>
</g>
<g>
</g>
<g>
</g>
</svg>
