<?xml version="1.0" encoding="iso-8859-1"?>
<!-- Generator: Adobe Illustrator 19.0.0, SVG Export Plug-In . SVG Version: 6.00 Build 0)  -->
<svg version="1.1" id="Capa_1" xmlns="http://www.w3.org/2000/svg" xmlns:xlink="http://www.w3.org/1999/xlink" x="0px" y="0px"
	 viewBox="0 0 496 496" style="enable-background:new 0 0 496 496;" xml:space="preserve">
<g>
	<rect x="296" y="264" style="fill:#FFCB57;" width="112" height="128"/>
	<rect x="104" y="8" style="fill:#FFCB57;" width="288" height="200"/>
</g>
<g>
	<path style="fill:#3F3A34;" d="M352,416v16h128v24c0,13.232-10.768,24-24,24H40c-13.232,0-24-10.768-24-24v-24h128v-16H0v40
		c0,22.056,17.944,40,40,40h416c22.056,0,40-17.944,40-40v-40H352z"/>
	<path style="fill:#3F3A34;" d="M184,464h128c13.232,0,24-10.768,24-24v-24H160v24C160,453.232,170.768,464,184,464z M176,432h144v8
		c0,4.416-3.584,8-8,8H184c-4.416,0-8-3.584-8-8V432z"/>
	<rect x="48" y="448" style="fill:#3F3A34;" width="16" height="16"/>
	<rect x="80" y="448" style="fill:#3F3A34;" width="16" height="16"/>
	<rect x="112" y="448" style="fill:#3F3A34;" width="16" height="16"/>
	<path style="fill:#3F3A34;" d="M464,112v288h16V112c0-22.056-17.944-40-40-40h-24v16h24C453.232,88,464,98.768,464,112z"/>
	<path style="fill:#3F3A34;" d="M32,112c0-13.232,10.768-24,24-24h24V72H56c-22.056,0-40,17.944-40,40v288h16V112z"/>
	<path style="fill:#3F3A34;" d="M432,400h16V120c0-8.824-7.176-16-16-16h-16v16h16V400z"/>
	<path style="fill:#3F3A34;" d="M48,120v280h16V120h16v-16H64C55.176,104,48,111.176,48,120z"/>
	<path style="fill:#3F3A34;" d="M400,0H96v216h304V0z M384,200H112V16h272V200z"/>
	<path style="fill:#3F3A34;" d="M416,256H288v144h128V256z M400,384h-96V272h96V384z"/>
	
		<rect x="94.702" y="319.984" transform="matrix(-0.3162 0.9487 -0.9487 -0.3162 469.0997 317.8419)" style="fill:#3F3A34;" width="50.6" height="15.992"/>
	
		<rect x="167.992" y="286.04" transform="matrix(-0.7071 0.7071 -0.7071 -0.7071 526.6975 421.7939)" style="fill:#3F3A34;" width="16" height="67.879"/>
	
		<rect x="188.212" y="296.026" transform="matrix(-0.4472 0.8944 -0.8944 -0.4472 596.0861 239.6497)" style="fill:#3F3A34;" width="71.55" height="16"/>
	<rect x="320" y="288" style="fill:#3F3A34;" width="64" height="16"/>
	<rect x="320" y="320" style="fill:#3F3A34;" width="64" height="16"/>
	<rect x="320" y="352" style="fill:#3F3A34;" width="64" height="16"/>
	<polygon style="fill:#3F3A34;" points="144,104 160,104 160,184 176,184 176,88 128,88 128,184 144,184 	"/>
	<polygon style="fill:#3F3A34;" points="208,56 224,56 224,184 240,184 240,40 192,40 192,184 208,184 	"/>
	<polygon style="fill:#3F3A34;" points="272,136 288,136 288,184 304,184 304,120 256,120 256,184 272,184 	"/>
	<polygon style="fill:#3F3A34;" points="336,88 352,88 352,184 368,184 368,72 320,72 320,184 336,184 	"/>
</g>
<g>
	<path style="fill:#E56565;" d="M104,392c-13.232,0-24-10.768-24-24s10.768-24,24-24s24,10.768,24,24S117.232,392,104,392z M104,360
		c-4.416,0-8,3.584-8,8s3.584,8,8,8s8-3.584,8-8S108.416,360,104,360z"/>
	<path style="fill:#E56565;" d="M208,376c-13.232,0-24-10.768-24-24s10.768-24,24-24s24,10.768,24,24S221.232,376,208,376z M208,344
		c-4.416,0-8,3.584-8,8s3.584,8,8,8s8-3.584,8-8S212.416,344,208,344z"/>
	<path style="fill:#E56565;" d="M136,312c-13.232,0-24-10.768-24-24s10.768-24,24-24s24,10.768,24,24S149.232,312,136,312z M136,280
		c-4.416,0-8,3.584-8,8s3.584,8,8,8s8-3.584,8-8S140.416,280,136,280z"/>
	<path style="fill:#E56565;" d="M248,280c-13.232,0-24-10.768-24-24s10.768-24,24-24s24,10.768,24,24S261.232,280,248,280z M248,248
		c-4.416,0-8,3.592-8,8c0,4.416,3.584,8,8,8c4.416,0,8-3.584,8-8C256,251.592,252.416,248,248,248z"/>
</g>
<g>
</g>
<g>
</g>
<g>
</g>
<g>
</g>
<g>
</g>
<g>
</g>
<g>
</g>
<g>
</g>
<g>
</g>
<g>
</g>
<g>
</g>
<g>
</g>
<g>
</g>
<g>
</g>
<g>
</g>
</svg>
