<svg id="Capa_1" enable-background="new 0 0 512 512" height="512" viewBox="0 0 512 512" width="512" xmlns="http://www.w3.org/2000/svg"><g><g><path d="m425.726 256c0-.031 0-.063 0-.094-.011-5.803 2.938-11.205 7.963-14.106 4.457-2.573 5.985-8.273 3.411-12.73l-7.312-12.664c-2.573-4.457-8.273-5.985-12.73-3.411l-.021.012c-5.034 2.906-11.197 2.751-16.223-.17-.054-.032-.109-.063-.163-.095-5.01-2.887-8.187-8.139-8.187-13.922v-.025c0-5.147-4.172-9.319-9.319-9.319h-14.623c-5.147 0-9.319 4.172-9.319 9.319v.025c0 5.783-3.177 11.034-8.187 13.922-.055.031-.109.063-.163.095-5.025 2.921-11.189 3.076-16.223.17l-.021-.012c-4.457-2.573-10.157-1.046-12.73 3.411l-7.312 12.664c-2.573 4.457-1.046 10.157 3.411 12.73 5.025 2.901 7.974 8.303 7.963 14.106v.094.093c.011 5.803-2.938 11.205-7.963 14.106-4.457 2.573-5.985 8.273-3.411 12.73l7.312 12.664c2.573 4.457 8.273 5.985 12.73 3.411l.02-.012c5.034-2.906 11.197-2.751 16.223.17.055.032.109.063.164.095 5.01 2.887 8.187 8.139 8.187 13.922v.024c0 5.147 4.172 9.319 9.319 9.319h14.623c5.147 0 9.319-4.172 9.319-9.319v-.024c0-5.783 3.177-11.034 8.187-13.922.055-.031.109-.063.164-.095 5.025-2.921 11.189-3.076 16.223-.17l.02.012c4.457 2.573 10.157 1.046 12.73-3.411l7.312-12.664c2.573-4.457 1.046-10.157-3.411-12.73-5.025-2.901-7.974-8.303-7.963-14.106 0-.031 0-.062 0-.093zm-49.893 16.631c-9.185 0-16.631-7.446-16.631-16.631s7.446-16.631 16.631-16.631 16.631 7.446 16.631 16.631-7.446 16.631-16.631 16.631z" fill="#6c7fd8"/><path d="m433.689 241.801c4.457-2.573 5.985-8.273 3.411-12.73l-3.297-5.71c-10.861 12.771-25.035 25.298-41.753 36.288-1.664 7.428-8.287 12.983-16.217 12.983-1.699 0-3.338-.258-4.882-.731-18.352 9.329-36.539 15.199-52.705 17.405l3.631 6.289c2.573 4.457 8.273 5.984 12.73 3.411l.02-.012c5.034-2.906 11.197-2.751 16.223.17.055.032.109.063.164.095 5.01 2.887 8.187 8.139 8.187 13.922v.024c0 5.147 4.172 9.319 9.319 9.319h14.623c5.147 0 9.319-4.172 9.319-9.319v-.024c0-5.783 3.177-11.034 8.187-13.922.055-.032.109-.063.164-.095 5.025-2.921 11.189-3.076 16.223-.17l.02.012c4.457 2.573 10.157 1.046 12.73-3.411l7.312-12.664c2.573-4.457 1.046-10.157-3.411-12.73-5.025-2.901-7.974-8.303-7.963-14.106 0-.031 0-.062 0-.093s0-.063 0-.094c-.009-5.804 2.94-11.206 7.965-14.107z" fill="#4f66d0"/></g><path d="m466.05 165.786-11.791 11.785c-3.096 3.095-3.233 8.036-.375 11.352 17.124 19.872 25.961 45.271 24.743 71.932-2.432 53.227-45.837 96.103-99.087 97.983-58.425 2.064-106.611-44.866-106.611-102.838 0-38.016 20.723-71.28 51.464-89.098l3.313 5.738c2.531 4.383 8.954 4.085 11.068-.513l16.823-36.595c1.796-3.907-.808-8.417-5.089-8.815l-40.104-3.728c-5.04-.469-8.509 4.945-5.978 9.328l3.341 5.786c-40.679 23.577-68.1 67.593-68.1 117.897 0 76.239 62.98 138.045 139.645 136.123 72.805-1.825 131.695-61.414 132.675-134.235.459-34.112-11.533-66.419-33.838-91.752-3.161-3.589-8.716-3.731-12.099-.35z" fill="#bd80e1"/><path d="m274.303 165.373c-21.528 24.09-34.636 55.854-34.636 90.627 0 34.743 13.084 66.485 34.577 90.569 6.707-10.224 12.278-21.168 16.595-32.627-11.294-16.514-17.91-36.469-17.91-57.942 0-21.517 6.643-41.508 17.979-58.042-4.338-11.526-9.928-22.442-16.605-32.585z" fill="#af66da"/><g><path d="m186.06 256c0-.031 0-.063 0-.094-.011-5.803 2.938-11.205 7.963-14.106 4.457-2.573 5.985-8.273 3.411-12.73l-7.312-12.664c-2.573-4.457-8.273-5.985-12.73-3.411l-.021.012c-5.034 2.906-11.197 2.751-16.223-.17-.054-.032-.109-.063-.163-.095-5.01-2.887-8.187-8.139-8.187-13.922v-.025c0-5.147-4.172-9.319-9.319-9.319h-14.623c-5.147 0-9.319 4.172-9.319 9.319v.025c0 5.783-3.177 11.034-8.187 13.922-.055.031-.109.063-.163.095-5.025 2.921-11.189 3.076-16.223.17l-.021-.012c-4.457-2.573-10.157-1.046-12.73 3.411l-7.312 12.664c-2.573 4.457-1.046 10.157 3.411 12.73 5.025 2.901 7.974 8.303 7.963 14.106v.094.093c.011 5.803-2.938 11.205-7.963 14.106-4.457 2.573-5.985 8.273-3.411 12.73l7.312 12.664c2.573 4.457 8.273 5.985 12.73 3.411l.02-.012c5.034-2.906 11.197-2.751 16.223.17.055.032.109.063.164.095 5.01 2.887 8.187 8.139 8.187 13.922v.024c0 5.147 4.172 9.319 9.319 9.319h14.623c5.147 0 9.319-4.172 9.319-9.319v-.024c0-5.783 3.177-11.034 8.187-13.922.055-.031.109-.063.164-.095 5.025-2.921 11.189-3.076 16.223-.17l.02.012c4.457 2.573 10.157 1.046 12.73-3.411l7.312-12.664c2.573-4.457 1.046-10.157-3.411-12.73-5.025-2.901-7.974-8.303-7.963-14.106 0-.031 0-.062 0-.093zm-49.893 16.631c-9.185 0-16.631-7.446-16.631-16.631s7.446-16.631 16.631-16.631 16.631 7.446 16.631 16.631-7.446 16.631-16.631 16.631z" fill="#6c7fd8"/><path d="m194.023 241.801c4.457-2.573 5.985-8.273 3.411-12.73l-3.297-5.71c-10.861 12.771-25.035 25.298-41.753 36.288-1.664 7.428-8.287 12.983-16.217 12.983-1.699 0-3.338-.258-4.882-.731-18.352 9.329-36.539 15.199-52.705 17.405l3.631 6.289c2.573 4.457 8.273 5.984 12.73 3.411l.02-.012c5.034-2.906 11.197-2.751 16.223.17.055.032.109.063.164.095 5.01 2.887 8.187 8.139 8.187 13.922v.024c0 5.147 4.172 9.319 9.319 9.319h14.623c5.147 0 9.319-4.172 9.319-9.319v-.024c0-5.783 3.177-11.034 8.187-13.922.055-.032.109-.063.164-.095 5.025-2.921 11.189-3.076 16.223-.17l.02.012c4.457 2.573 10.157 1.046 12.73-3.411l7.312-12.664c2.573-4.457 1.046-10.157-3.411-12.73-5.025-2.901-7.974-8.303-7.963-14.106 0-.031 0-.062 0-.093s0-.063 0-.094c-.01-5.804 2.94-11.206 7.965-14.107z" fill="#4f66d0"/></g><path d="m45.95 346.214 11.791-11.785c3.096-3.095 3.233-8.036.375-11.352-17.124-19.872-25.961-45.271-24.743-71.932 2.432-53.227 45.837-96.103 99.087-97.983 58.424-2.063 106.611 44.867 106.611 102.839 0 38.016-20.723 71.28-51.464 89.098l-3.313-5.738c-2.531-4.383-8.954-4.085-11.068.513l-16.823 36.595c-1.796 3.907.808 8.417 5.089 8.815l40.104 3.728c5.04.469 8.509-4.945 5.978-9.328l-3.34-5.786c40.678-23.576 68.099-67.593 68.099-117.897 0-76.239-62.98-138.045-139.645-136.123-72.805 1.824-131.695 61.412-132.675 134.234-.459 34.112 11.533 66.419 33.838 91.752 3.161 3.589 8.716 3.731 12.099.35z" fill="#ffe177"/><path d="m272.333 256c0-31.858-11.003-61.19-29.4-84.411 1.765 19.629-.494 40.21-6.674 60.476 1.837 7.683 2.813 15.697 2.813 23.935 0 38.016-20.723 71.28-51.464 89.098l-3.313-5.738c-2.531-4.383-8.954-4.085-11.068.513l-16.823 36.595c-1.796 3.907.807 8.417 5.089 8.815l40.104 3.728c5.04.469 8.509-4.945 5.978-9.328l-3.34-5.786c40.677-23.577 68.098-67.593 68.098-117.897z" fill="#ffd15b"/></g></svg>