<svg height="512pt" viewBox="0 0 512 512" width="512pt" xmlns="http://www.w3.org/2000/svg"><path d="m392.265625 199.890625c-9.464844 0-18.648437 1.175781-27.429687 3.382813 2.207031-8.78125 3.382812-17.964844 3.382812-27.429688 0-61.976562-50.242188-112.21875-112.21875-112.21875-59.375 0-107.972656 46.113281-111.949219 104.476562-2.738281-.175781-5.5-.273437-8.285156-.273437-70.832031 0-128.25 57.417969-128.25 128.25s57.417969 128.25 128.25 128.25h256.5c61.976563 0 112.21875-50.242187 112.21875-112.21875s-50.242187-112.21875-112.21875-112.21875zm0 0" fill="#2ba7ed"/><path d="m433.171875 392.265625h-256.5c-70.832031 0-128.25-57.417969-128.25-128.25 0-31.589844 11.425781-60.507813 30.367187-82.859375-42.238281 20.984375-71.273437 64.558594-71.273437 114.921875 0 70.832031 57.417969 128.25 128.25 128.25h256.5c35.535156 0 67.203125-16.519531 87.765625-42.289063-14.261719 6.5625-30.128906 10.226563-46.859375 10.226563zm0 0" fill="#2880b2"/><path d="m207.90625 167.828125h96.1875v192.375h-96.1875zm0 0" fill="#f9b623"/><path d="m207.90625 167.828125h24.046875v192.375h-24.046875zm0 0" fill="#f7963e"/><path d="m328.140625 320.125c0-8.855469 16.03125-24.046875 16.03125-24.046875s16.03125 15.191406 16.03125 24.046875-7.175781 16.03125-16.03125 16.03125c-8.851563 0-16.03125-7.175781-16.03125-16.03125zm0 0" fill="#7ec91e"/><path d="m151.796875 320.125c0-8.855469 16.03125-24.046875 16.03125-24.046875s16.03125 15.191406 16.03125 24.046875-7.175781 16.03125-16.03125 16.03125-16.03125-7.175781-16.03125-16.03125zm0 0" fill="#7ec91e"/><path d="m135.765625 352.6875c-4.152344 0-7.515625 3.363281-7.515625 7.515625s3.363281 7.515625 7.515625 7.515625h240.46875c4.152344 0 7.515625-3.363281 7.515625-7.515625s-3.363281-7.515625-7.515625-7.515625h-24.546875v-10.035156c9.308594-3.144532 16.03125-11.953125 16.03125-22.308594 0-11.214844-14.066406-25.417969-18.378906-29.5-2.898438-2.75-7.4375-2.75-10.335938 0-4.3125 4.085938-18.378906 18.285156-18.378906 29.5 0 10.355469 6.722656 19.164062 16.03125 22.308594v10.035156h-25.046875v-100.300781c0-4.152344-3.367187-7.515625-7.515625-7.515625s-7.515625 3.363281-7.515625 7.515625v100.300781h-81.15625v-177.34375h81.15625v41.753906c0 4.152344 3.367187 7.515625 7.515625 7.515625s7.515625-3.363281 7.515625-7.515625v-49.269531c0-4.152344-3.367187-7.515625-7.515625-7.515625h-96.1875c-4.148438 0-7.515625 3.363281-7.515625 7.515625v184.859375h-25.046875v-10.035156c9.308594-3.144532 16.03125-11.953125 16.03125-22.308594 0-11.214844-14.066406-25.417969-18.378906-29.5-2.898438-2.75-7.4375-2.75-10.335938 0-4.3125 4.085938-18.378906 18.285156-18.378906 29.5 0 10.355469 6.722656 19.164062 16.03125 22.308594v10.035156zm208.410156-45.542969c4.78125 5.441407 8.484375 11.015625 8.511719 13.199219 0 4.695312-3.820312 8.515625-8.515625 8.515625s-8.515625-3.820313-8.515625-8.515625c.03125-2.171875 3.738281-7.75 8.519531-13.199219zm-176.34375 0c4.78125 5.441407 8.480469 11.015625 8.511719 13.199219 0 4.695312-3.820312 8.515625-8.515625 8.515625s-8.515625-3.820313-8.515625-8.515625c.027344-2.171875 3.734375-7.75 8.519531-13.199219zm0 0"/><path d="m287.5625 199.890625c0-4.152344-3.367188-7.515625-7.515625-7.515625s-7.515625 3.363281-7.515625 7.515625v8.015625c0 4.152344 3.367188 7.515625 7.515625 7.515625s7.515625-3.363281 7.515625-7.515625zm0 0"/><path d="m263.515625 199.890625c0-4.152344-3.367187-7.515625-7.515625-7.515625s-7.515625 3.363281-7.515625 7.515625v8.015625c0 4.152344 3.367187 7.515625 7.515625 7.515625s7.515625-3.363281 7.515625-7.515625zm0 0"/><path d="m239.46875 199.890625c0-4.152344-3.367188-7.515625-7.515625-7.515625s-7.515625 3.363281-7.515625 7.515625v8.015625c0 4.152344 3.367188 7.515625 7.515625 7.515625s7.515625-3.363281 7.515625-7.515625zm0 0"/><path d="m287.5625 239.96875c0-4.152344-3.367188-7.515625-7.515625-7.515625s-7.515625 3.363281-7.515625 7.515625v8.015625c0 4.152344 3.367188 7.515625 7.515625 7.515625s7.515625-3.363281 7.515625-7.515625zm0 0"/><path d="m263.515625 239.96875c0-4.152344-3.367187-7.515625-7.515625-7.515625s-7.515625 3.363281-7.515625 7.515625v8.015625c0 4.152344 3.367187 7.515625 7.515625 7.515625s7.515625-3.363281 7.515625-7.515625zm0 0"/><path d="m239.46875 239.96875c0-4.152344-3.367188-7.515625-7.515625-7.515625s-7.515625 3.363281-7.515625 7.515625v8.015625c0 4.152344 3.367188 7.515625 7.515625 7.515625s7.515625-3.363281 7.515625-7.515625zm0 0"/><path d="m287.5625 280.046875c0-4.152344-3.367188-7.515625-7.515625-7.515625s-7.515625 3.363281-7.515625 7.515625v8.015625c0 4.152344 3.367188 7.515625 7.515625 7.515625s7.515625-3.363281 7.515625-7.515625zm0 0"/><path d="m263.515625 280.046875c0-4.152344-3.367187-7.515625-7.515625-7.515625s-7.515625 3.363281-7.515625 7.515625v8.015625c0 4.152344 3.367187 7.515625 7.515625 7.515625s7.515625-3.363281 7.515625-7.515625zm0 0"/><path d="m239.46875 280.046875c0-4.152344-3.367188-7.515625-7.515625-7.515625s-7.515625 3.363281-7.515625 7.515625v8.015625c0 4.152344 3.367188 7.515625 7.515625 7.515625s7.515625-3.363281 7.515625-7.515625zm0 0"/><path d="m280.046875 312.609375c-4.148437 0-7.515625 3.363281-7.515625 7.515625v8.015625c0 4.152344 3.367188 7.515625 7.515625 7.515625s7.515625-3.363281 7.515625-7.515625v-8.015625c0-4.152344-3.367188-7.515625-7.515625-7.515625zm0 0"/><path d="m256 312.609375c-4.148438 0-7.515625 3.363281-7.515625 7.515625v8.015625c0 4.152344 3.367187 7.515625 7.515625 7.515625s7.515625-3.363281 7.515625-7.515625v-8.015625c0-4.152344-3.367187-7.515625-7.515625-7.515625zm0 0"/><path d="m231.953125 312.609375c-4.148437 0-7.515625 3.363281-7.515625 7.515625v8.015625c0 4.152344 3.367188 7.515625 7.515625 7.515625s7.515625-3.363281 7.515625-7.515625v-8.015625c0-4.152344-3.367188-7.515625-7.515625-7.515625zm0 0"/><path d="m488.453125 464.90625c-10.355469 0-19.164063 6.726562-22.308594 16.03125h-74.378906v-49.09375h.5c66.023437 0 119.734375-53.710938 119.734375-119.734375 0-45.960937-26.035156-85.949219-64.125-106.011719v-40.007812c9.308594-3.144532 16.03125-11.953125 16.03125-22.308594 0-12.984375-10.5625-23.546875-23.546875-23.546875s-23.546875 10.5625-23.546875 23.546875c0 10.355469 6.726562 19.164062 16.03125 22.308594v33.371094c-12.675781-4.582032-26.339844-7.085938-40.578125-7.085938-5.988281 0-11.960937.449219-17.863281 1.332031.886718-5.898437 1.332031-11.875 1.332031-17.863281 0-27.292969-9.1875-52.480469-24.621094-72.640625h129.324219c4.152344 0 7.515625-3.363281 7.515625-7.515625v-49.832031c9.308594-3.144531 16.03125-11.953125 16.03125-22.308594 0-12.984375-10.5625-23.546875-23.546875-23.546875s-23.546875 10.5625-23.546875 23.546875c0 10.355469 6.726563 19.164063 16.03125 22.308594v42.316406h-135.46875c-19.667969-18.285156-45.46875-30.046875-73.9375-31.820313v-32.804687c0-4.152344-3.367187-7.515625-7.515625-7.515625h-57.847656c-3.144532-9.308594-11.953125-16.03125-22.308594-16.03125-12.984375 0-23.546875 10.5625-23.546875 23.546875s10.5625 23.546875 23.546875 23.546875c10.355469 0 19.164062-6.726562 22.308594-16.03125h50.332031v25.289062c-27.769531 1.722657-53.941406 12.980469-74.375 32.144532-20.371094 19.105468-33.285156 44.390625-36.839844 71.824218-.503906-.003906-1.007812-.007812-1.503906-.007812-11.222656 0-22.128906 1.378906-32.566406 3.957031v-100.644531c0-4.152344-3.363281-7.515625-7.511719-7.515625h-41.816406c-3.144532-9.308594-11.953125-16.03125-22.308594-16.03125-12.984375 0-23.546875 10.5625-23.546875 23.546875s10.5625 23.546875 23.546875 23.546875c10.355469 0 19.164062-6.726563 22.308594-16.03125h34.300781v97.789063c-51.453125 19.324218-88.171875 69.027343-88.171875 127.148437 0 52.519531 29.976562 98.164063 73.71875 120.734375h-50.171875c-4.152344 0-7.515625 3.363281-7.515625 7.515625v25.785156c-9.308594 3.144531-16.03125 11.953125-16.03125 22.308594 0 12.984375 10.5625 23.546875 23.546875 23.546875s23.546875-10.5625 23.546875-23.546875c0-10.355469-6.726562-19.164063-16.03125-22.308594v-18.269531h161.3125v49.09375h-34.300781c-3.144531-9.304688-11.953125-16.03125-22.308594-16.03125-12.984375 0-23.546875 10.5625-23.546875 23.546875s10.5625 23.546875 23.546875 23.546875c10.355469 0 19.164063-6.722656 22.308594-16.03125h41.816406c4.148437 0 7.515625-3.363281 7.515625-7.515625v-56.609375h109.84375c4.152344 0 7.515625-3.363281 7.515625-7.515625s-3.363281-7.515625-7.515625-7.515625h-181.484375c-66.574219 0-120.734375-54.160156-120.734375-120.734375s54.160156-120.734375 120.734375-120.734375c2.496094 0 5.121094.085938 7.808594.257812 4.128906.269532 7.691406-2.859374 7.976562-6.988281 3.722657-54.660156 49.601563-97.472656 104.449219-97.472656 57.734375 0 104.703125 46.96875 104.703125 104.703125 0 8.648438-1.0625 17.261719-3.15625 25.597656-1.359375 5.414063 3.710937 10.472656 9.121094 9.121094 8.335937-2.09375 16.949219-3.15625 25.597656-3.15625 57.734375 0 104.703125 46.96875 104.703125 104.703125s-46.96875 104.703125-104.703125 104.703125h-39.46875c-4.148437 0-7.511719 3.363281-7.511719 7.515625s3.363282 7.515625 7.511719 7.515625h23.9375v56.609375c0 4.152344 3.367187 7.515625 7.515625 7.515625h81.894531c3.144531 9.308594 11.953125 16.03125 22.308594 16.03125 12.984375 0 23.546875-10.5625 23.546875-23.546875s-10.5625-23.546875-23.546875-23.546875zm-48.09375-329.640625c4.695313 0 8.515625 3.820313 8.515625 8.515625s-3.820312 8.515625-8.515625 8.515625-8.515625-3.820313-8.515625-8.515625 3.820312-8.515625 8.515625-8.515625zm40.078125-120.234375c4.695312 0 8.515625 3.820312 8.515625 8.515625s-3.820313 8.515625-8.515625 8.515625-8.515625-3.820312-8.515625-8.515625 3.820313-8.515625 8.515625-8.515625zm-304.59375 17.03125c-4.695312 0-8.515625-3.820312-8.515625-8.515625s3.820313-8.515625 8.515625-8.515625 8.515625 3.820312 8.515625 8.515625-3.820313 8.515625-8.515625 8.515625zm-144.28125 40.078125c-4.695312 0-8.515625-3.820313-8.515625-8.515625s3.820313-8.515625 8.515625-8.515625 8.515625 3.820313 8.515625 8.515625-3.820313 8.515625-8.515625 8.515625zm-8.015625 408.796875c-4.695313 0-8.515625-3.820312-8.515625-8.515625s3.820312-8.515625 8.515625-8.515625 8.515625 3.820312 8.515625 8.515625-3.820312 8.515625-8.515625 8.515625zm112.21875 16.03125c-4.695313 0-8.515625-3.820312-8.515625-8.515625s3.820312-8.515625 8.515625-8.515625 8.515625 3.820312 8.515625 8.515625-3.820312 8.515625-8.515625 8.515625zm352.6875 0c-4.695313 0-8.515625-3.820312-8.515625-8.515625s3.820312-8.515625 8.515625-8.515625 8.515625 3.820312 8.515625 8.515625-3.820312 8.515625-8.515625 8.515625zm0 0"/></svg>