<?xml version="1.0" encoding="iso-8859-1"?>
<!-- Generator: Adobe Illustrator 19.0.0, SVG Export Plug-In . SVG Version: 6.00 Build 0)  -->
<svg version="1.1" id="Layer_1" xmlns="http://www.w3.org/2000/svg" xmlns:xlink="http://www.w3.org/1999/xlink" x="0px" y="0px"
	 viewBox="0 0 464 464" style="enable-background:new 0 0 464 464;" xml:space="preserve">
<path style="fill:#66CEDB;" d="M56,96V0h320v64h64v368c0,17.672-14.328,32-32,32H56V208"/>
<polygon style="fill:#00BFC8;" points="376,0 440,64 376,64 "/>
<rect x="24" y="96" style="fill:#E74C3C;" width="272" height="112"/>
<g>
	<rect x="48" y="120" style="fill:#FFFFFF;" width="16" height="64"/>
	<rect x="80" y="120" style="fill:#FFFFFF;" width="16" height="64"/>
	<rect x="56" y="144" style="fill:#FFFFFF;" width="32" height="16"/>
	<rect x="104" y="120" style="fill:#FFFFFF;" width="48" height="16"/>
	<rect x="120" y="128" style="fill:#FFFFFF;" width="16" height="56"/>
	<polygon style="fill:#FFFFFF;" points="224,184 208,184 208,136 176,136 176,184 160,184 160,120 224,120 	"/>
	<rect x="184" y="128" style="fill:#FFFFFF;" width="16" height="32"/>
	<polygon style="fill:#FFFFFF;" points="272,184 232,184 232,120 248,120 248,168 272,168 	"/>
</g>
<g>
	
		<rect x="169.226" y="319.982" transform="matrix(-0.4061 0.9138 -0.9138 -0.4061 648.4554 234.5357)" style="fill:#00BFC8;" width="157.58" height="16"/>
	<polygon style="fill:#00BFC8;" points="162.344,381.656 108.688,328 162.344,274.344 173.656,285.656 131.312,328 173.656,370.344 
			"/>
	<polygon style="fill:#00BFC8;" points="333.656,381.656 322.344,370.344 364.688,328 322.344,285.656 333.656,274.344 387.312,328 
			"/>
</g>
<g>
</g>
<g>
</g>
<g>
</g>
<g>
</g>
<g>
</g>
<g>
</g>
<g>
</g>
<g>
</g>
<g>
</g>
<g>
</g>
<g>
</g>
<g>
</g>
<g>
</g>
<g>
</g>
<g>
</g>
</svg>
