<?xml version="1.0" encoding="iso-8859-1"?>
<!-- Generator: Adobe Illustrator 19.0.0, SVG Export Plug-In . SVG Version: 6.00 Build 0)  -->
<svg version="1.1" id="Capa_1" xmlns="http://www.w3.org/2000/svg" xmlns:xlink="http://www.w3.org/1999/xlink" x="0px" y="0px"
	 viewBox="0 0 512 512" style="enable-background:new 0 0 512 512;" xml:space="preserve">
<g>
	<path style="fill:#006684;" d="M17.067,460.8c0,23.561,19.106,42.667,42.667,42.667H281.6c23.561,0,42.667-19.106,42.667-42.667
		v-25.6h-307.2V460.8z"/>
	<path style="fill:#006684;" d="M281.6,8.533H59.733c-23.561,0-42.667,19.106-42.667,42.667v25.6h307.2V51.2
		C324.267,27.639,305.161,8.533,281.6,8.533z"/>
</g>
<rect x="17.067" y="76.8" style="fill:#E6E6E6;" width="307.2" height="358.4"/>
<rect x="59.733" y="230.4" style="fill:#FAD87C;" width="76.8" height="51.2"/>
<g>
	<polygon style="fill:#FFA753;" points="110.933,281.6 59.733,281.6 59.733,230.4 76.8,230.4 	"/>
	<path style="fill:#FFA753;" d="M494.933,358.4v-51.2h-36.617c-3.456-18.313-10.65-35.712-21.12-51.123l25.847-25.856
		l-36.198-36.198L400.99,219.87c-15.411-10.47-32.811-17.664-51.123-21.12v-36.617h-51.2v36.617
		c-18.313,3.456-35.712,10.65-51.123,21.12l-25.856-25.847l-36.198,36.198l25.847,25.856c-10.47,15.411-17.664,32.811-21.12,51.123
		H153.6v51.2h36.617c3.456,18.313,10.65,35.712,21.12,51.123l-25.847,25.856l36.198,36.198l25.856-25.847
		c15.411,10.47,32.811,17.664,51.123,21.12v36.617h51.2V466.85c18.313-3.456,35.712-10.65,51.123-21.12l25.856,25.847l36.198-36.198
		l-25.847-25.856c10.47-15.411,17.664-32.811,21.12-51.123H494.933z"/>
</g>
<circle style="fill:#FFFFFF;" cx="324.267" cy="332.8" r="93.867"/>
<circle style="fill:#FFA753;" cx="324.267" cy="332.8" r="42.667"/>
<g>
	<path style="fill:#004559;" d="M8.533,460.8c0.026,28.262,22.938,51.174,51.2,51.2h290.133c4.71,0,8.533-3.823,8.533-8.533v-29.722
		c14.626-3.49,28.604-9.267,41.429-17.109l20.983,20.983c3.388,3.2,8.678,3.2,12.066,0l36.207-36.207
		c3.337-3.328,3.337-8.73,0.009-12.066l-0.009-0.009l-20.992-20.983c7.851-12.826,13.628-26.803,17.118-41.421h29.722
		c4.71,0,8.533-3.823,8.533-8.533v-51.2c0-4.71-3.823-8.533-8.533-8.533h-29.722c-3.49-14.618-9.267-28.595-17.118-41.421
		l20.992-20.983c3.337-3.328,3.337-8.73,0.009-12.066l-0.009-0.009l-36.207-36.207c-3.388-3.2-8.678-3.2-12.066,0l-20.983,20.983
		c-12.826-7.834-26.812-13.594-41.429-17.067v-29.764c0-4.71-3.823-8.533-8.533-8.533H332.8V51.2
		C332.774,22.938,309.862,0.026,281.6,0H59.733C31.471,0.026,8.559,22.938,8.533,51.2V460.8z M25.6,460.8v-17.067h156.16
		l33.877,33.886c3.388,3.2,8.678,3.2,12.066,0l20.983-20.983c12.826,7.851,26.82,13.619,41.446,17.109v21.188h-230.4
		C40.883,494.933,25.6,479.65,25.6,460.8z M348.271,207.13c17.169,3.217,33.485,9.958,47.915,19.797
		c3.388,2.313,7.936,1.886,10.837-1.015l19.823-19.831l24.141,24.141l-19.831,19.806c-2.893,2.901-3.319,7.441-1.015,10.829
		c9.83,14.438,16.572,30.754,19.797,47.923c0.768,4.028,4.284,6.938,8.38,6.938H486.4v34.133h-28.083
		c-4.096,0-7.612,2.91-8.38,6.938c-3.226,17.169-9.967,33.485-19.797,47.923c-2.304,3.388-1.877,7.927,1.015,10.829l19.831,19.823
		l-24.141,24.158l-19.806-19.832c-2.901-2.901-7.45-3.328-10.837-1.015c-14.43,9.839-30.746,16.58-47.915,19.797
		c-4.028,0.768-6.938,4.284-6.938,8.38v28.083H307.2V466.85c0-4.096-2.91-7.612-6.938-8.38
		c-17.169-3.217-33.485-9.958-47.915-19.797c-3.388-2.313-7.936-1.886-10.837,1.015l-19.823,19.831l-24.141-24.141l19.831-19.806
		c2.893-2.901,3.319-7.441,1.015-10.829c-9.83-14.438-16.572-30.754-19.797-47.923c-0.759-4.028-4.275-6.955-8.38-6.955h-28.083
		v-34.133h28.083c4.096,0,7.612-2.91,8.38-6.938c3.226-17.169,9.967-33.485,19.797-47.923c2.304-3.388,1.877-7.927-1.015-10.829
		l-19.831-19.823l24.141-24.141l19.806,19.831c2.901,2.901,7.45,3.328,10.837,1.015c14.43-9.839,30.746-16.58,47.915-19.797
		c4.028-0.759,6.955-4.275,6.955-8.38v-28.083h34.133v28.083C341.333,202.846,344.243,206.362,348.271,207.13z M298.667,153.6
		c-4.71,0-8.533,3.823-8.533,8.533v29.722c-14.618,3.473-28.604,9.233-41.429,17.067l-20.983-20.983c-3.388-3.2-8.678-3.2-12.066,0
		l-36.207,36.207c-3.337,3.328-3.337,8.73-0.009,12.066l0.009,0.009l20.992,20.983c-7.851,12.834-13.628,26.829-17.118,41.463H153.6
		c-4.71,0-8.533,3.823-8.533,8.533v51.2c0,4.71,3.823,8.533,8.533,8.533h29.722c3.49,14.618,9.267,28.595,17.118,41.421
		l-18.313,18.313H25.6V85.333h290.133V153.6H298.667z M59.733,17.067H281.6c18.85,0,34.133,15.283,34.133,34.133v17.067H25.6V51.2
		C25.6,32.35,40.883,17.067,59.733,17.067z"/>
	<rect x="128" y="34.133" style="fill:#004559;" width="17.067" height="17.067"/>
	<rect x="162.133" y="34.133" style="fill:#004559;" width="51.2" height="17.067"/>
	<path style="fill:#004559;" d="M273.067,332.8c0,28.279,22.921,51.2,51.2,51.2c28.279,0,51.2-22.921,51.2-51.2
		s-22.921-51.2-51.2-51.2C296.004,281.626,273.092,304.538,273.067,332.8z M358.4,332.8c0,18.85-15.283,34.133-34.133,34.133
		s-34.133-15.283-34.133-34.133s15.283-34.133,34.133-34.133S358.4,313.95,358.4,332.8z"/>
	<path style="fill:#004559;" d="M221.867,332.8c0,56.55,45.85,102.4,102.4,102.4s102.4-45.85,102.4-102.4s-45.85-102.4-102.4-102.4
		C267.742,230.46,221.926,276.275,221.867,332.8z M409.6,332.8c0,47.13-38.204,85.333-85.333,85.333s-85.333-38.204-85.333-85.333
		s38.204-85.333,85.333-85.333C371.371,247.518,409.549,285.696,409.6,332.8z"/>
	<rect x="51.2" y="110.933" style="fill:#004559;" width="110.933" height="17.067"/>
	<rect x="179.2" y="110.933" style="fill:#004559;" width="17.067" height="17.067"/>
	<rect x="51.2" y="145.067" style="fill:#004559;" width="145.067" height="17.067"/>
	<rect x="213.333" y="145.067" style="fill:#004559;" width="17.067" height="17.067"/>
	<rect x="51.2" y="179.2" style="fill:#004559;" width="93.867" height="17.067"/>
	<rect x="51.2" y="315.733" style="fill:#004559;" width="42.667" height="17.067"/>
	<rect x="51.2" y="349.867" style="fill:#004559;" width="68.267" height="17.067"/>
	<rect x="51.2" y="384" style="fill:#004559;" width="51.2" height="17.067"/>
	<rect x="119.467" y="384" style="fill:#004559;" width="17.067" height="17.067"/>
	<rect x="162.133" y="179.2" style="fill:#004559;" width="17.067" height="17.067"/>
	<path style="fill:#004559;" d="M136.533,221.867h-76.8c-4.71,0-8.533,3.823-8.533,8.533v51.2c0,4.71,3.823,8.533,8.533,8.533h76.8
		c4.71,0,8.533-3.823,8.533-8.533v-51.2C145.067,225.69,141.244,221.867,136.533,221.867z M128,273.067H68.267v-34.133H128V273.067z
		"/>
	<rect x="162.133" y="460.8" style="fill:#004559;" width="17.067" height="17.067"/>
</g>
<g>
</g>
<g>
</g>
<g>
</g>
<g>
</g>
<g>
</g>
<g>
</g>
<g>
</g>
<g>
</g>
<g>
</g>
<g>
</g>
<g>
</g>
<g>
</g>
<g>
</g>
<g>
</g>
<g>
</g>
</svg>
