<svg id="Layer_1" height="512" viewBox="0 0 256 256" width="512" xmlns="http://www.w3.org/2000/svg" data-name="Layer 1"><rect fill="#efefef" height="245.2" rx="10" width="241.08" x="7.46" y="5.4"/><path d="m238.54 243.1h-221.08a2.5 2.5 0 0 1 0-5h221.08a2.5 2.5 0 0 1 0 5z" fill="#fff"/><path d="m238.54 125.71a2.5 2.5 0 0 1 -2.5-2.5v-74.13a2.5 2.5 0 0 1 5 0v74.13a2.5 2.5 0 0 1 -2.5 2.5z" fill="#fff"/><path d="m238.54 5.4h-173l10.99 26.6a10 10 0 0 0 9.25 6.19h162.76v-22.79a10 10 0 0 0 -10-10z" fill="#72c2e9"/><circle cx="226.94" cy="21.82" fill="#fc5d3d" r="5.73" transform="matrix(.97 -.23 .23 .97 1.06 52.72)"/><circle cx="198.46" cy="21.82" fill="#f0c020" r="5.73" transform="matrix(.973 -.23 .23 .973 .3 46.18)"/><circle cx="169.98" cy="21.82" fill="#13bf6d" r="5.73" transform="matrix(.707 -.707 .707 .707 34.36 126.58)"/><rect fill="#fc5d3d" height="93.91" rx="10" width="71.09" x="92.45" y="57.23"/><path d="m236 143.15v73.94a9 9 0 0 1 -9 9h-46.27a9 9 0 0 1 -9-9v-30a7 7 0 1 0 0-14v-29.94a9 9 0 0 1 9-9h46.27a9 9 0 0 1 9 9z" fill="#f0c020"/><path d="m77.23 180.12a7 7 0 0 0 7 7v30a9 9 0 0 1 -9 9h-46.23a9 9 0 0 1 -9-9v-73.97a9 9 0 0 1 9-9h46.27a9 9 0 0 1 9 9v29.94a7 7 0 0 0 -7.04 7.03z" fill="#72c1e8"/><path d="m35.29 160.8h33.69v21.43h-33.69z" fill="#efefef"/><path d="m187.02 160.8h33.69v21.43h-33.69z" fill="#efefef"/><path d="m105.66 123.21h16.86v11.55h-16.86z" fill="#72c1e8"/><path d="m133.48 123.21h16.86v11.55h-16.86z" fill="#f0c020"/><path d="m84.26 173.09a7 7 0 1 0 7 7 7 7 0 0 0 -7-7z" fill="#fc5d3d"/><path d="m105.66 81.26h44.68v21.43h-44.68z" fill="#efefef"/><path d="m71 219.18h-42.83a2.5 2.5 0 0 1 -2.5-2.5v-73.12a2.5 2.5 0 0 1 5 0v70.62h40.33a2.5 2.5 0 1 1 0 5z" fill="#c5e5fe"/><path d="m227.55 219.18h-47.37a2.5 2.5 0 0 1 -2.5-2.5v-23.61a2.5 2.5 0 0 1 5 0v21.11h44.87a2.5 2.5 0 0 1 0 5z" fill="#f9e5af"/><path d="m180.18 169a2.5 2.5 0 0 1 -2.5-2.5v-23a2.5 2.5 0 0 1 5 0v23a2.49 2.49 0 0 1 -2.5 2.5z" fill="#f9e5af"/><path d="m171.74 173.09a7 7 0 1 0 7 7 7 7 0 0 0 -7-7z" fill="#fc5d3d"/><g fill="#f0c020"><path d="m61.44 88.37c-3.56-1.17-7.24-2.2-9.31-11.1-1.9 8.19-5 9.66-9.31 11.1 7.11 2.35 8.18 6.24 9.31 11.11 1.95-8.39 5.17-9.74 9.31-11.11z"/><path d="m213.18 88.37c-3.57-1.17-7.25-2.2-9.31-11.1-1.9 8.19-5 9.66-9.31 11.1 7.11 2.35 8.18 6.24 9.31 11.11 1.95-8.39 5.13-9.74 9.31-11.11z"/><path d="m137.31 208.88c-3.57-1.18-7.24-2.2-9.31-11.1-1.9 8.19-5 9.66-9.31 11.1 7.11 2.35 8.18 6.24 9.31 11.1 2-8.39 5.17-9.73 9.31-11.1z"/></g><path d="m50.5 22.69h-20.72a2.5 2.5 0 0 0 0 5h20.72a2.5 2.5 0 0 0 0-5z"/><path d="m235.17 21.82a8.23 8.23 0 1 0 -8.23 8.18 8.24 8.24 0 0 0 8.23-8.18zm-11.46 0a3.23 3.23 0 1 1 3.23 3.18 3.23 3.23 0 0 1 -3.23-3.18z"/><path d="m206.68 21.82a8.23 8.23 0 1 0 -8.22 8.18 8.23 8.23 0 0 0 8.22-8.18zm-11.45 0a3.23 3.23 0 1 1 3.23 3.18 3.23 3.23 0 0 1 -3.23-3.18z"/><path d="m178.2 21.82a8.23 8.23 0 1 0 -8.2 8.18 8.23 8.23 0 0 0 8.2-8.18zm-11.45 0a3.23 3.23 0 1 1 3.25 3.18 3.23 3.23 0 0 1 -3.25-3.18z"/><circle cx="118.54" cy="38.24" r="2.5"/><path d="m251 15.41a12.51 12.51 0 0 0 -12.5-12.5h-221.04a12.51 12.51 0 0 0 -12.46 12.5v142.89a2.5 2.5 0 0 0 5 0v-142.89a7.54 7.54 0 0 1 7.5-7.51h46.37l10.35 25.1a12.46 12.46 0 0 0 11.56 7.75h22.76a2.5 2.5 0 0 0 0-5h-22.76a7.49 7.49 0 0 1 -6.94-4.65l-9.55-23.2h169.25a7.54 7.54 0 0 1 7.5 7.51v20.33h-117.5a2.5 2.5 0 1 0 0 5h117.46v199.85a7.52 7.52 0 0 1 -7.5 7.5h-221.04a7.52 7.52 0 0 1 -7.5-7.5v-62.29a2.5 2.5 0 0 0 -5 0v62.29a12.51 12.51 0 0 0 12.5 12.5h221.08a12.51 12.51 0 0 0 12.5-12.5z"/><circle cx="7.46" cy="168.3" r="2.5"/><path d="m217.51 193.43h-27.28a2.5 2.5 0 1 0 0 5h27.28a2.5 2.5 0 1 0 0-5z"/><path d="m217.51 203h-27.28a2.5 2.5 0 0 0 0 5h27.28a2.5 2.5 0 0 0 0-5z"/><path d="m45.64 171.11a2.51 2.51 0 0 0 -2.5 2.5v.32a2.5 2.5 0 0 0 5 0v-.32a2.51 2.51 0 0 0 -2.5-2.5z"/><path d="m52.13 171.13a2.49 2.49 0 0 0 -2.5 2.48v.32a2.5 2.5 0 0 0 5 0v-.32a2.49 2.49 0 0 0 -2.5-2.48z"/><path d="m58.62 171.11a2.51 2.51 0 0 0 -2.5 2.52v.3a2.5 2.5 0 0 0 5 0v-.3a2.51 2.51 0 0 0 -2.5-2.52z"/><path d="m35.29 184.72h33.71a2.5 2.5 0 0 0 2.5-2.5v-21.42a2.51 2.51 0 0 0 -2.5-2.5h-33.71a2.49 2.49 0 0 0 -2.5 2.5v21.42a2.49 2.49 0 0 0 2.5 2.5zm2.5-21.42h28.69v16.42h-28.69z"/><path d="m197.38 171.13a2.49 2.49 0 0 0 -2.5 2.48v.32a2.5 2.5 0 0 0 5 0v-.32a2.49 2.49 0 0 0 -2.5-2.48z"/><path d="m203.87 171.11a2.51 2.51 0 0 0 -2.5 2.5v.32a2.5 2.5 0 0 0 5 0v-.32a2.51 2.51 0 0 0 -2.5-2.5z"/><path d="m210.36 171.11a2.51 2.51 0 0 0 -2.5 2.5v.32a2.5 2.5 0 0 0 5 0v-.32a2.51 2.51 0 0 0 -2.5-2.5z"/><path d="m223.21 182.22v-21.42a2.49 2.49 0 0 0 -2.49-2.5h-33.72a2.51 2.51 0 0 0 -2.5 2.5v21.42a2.51 2.51 0 0 0 2.5 2.5h33.7a2.49 2.49 0 0 0 2.51-2.5zm-33.69-2.5v-16.42h28.69v16.42z"/><path d="m150.34 110.46h-44.68a2.5 2.5 0 0 0 0 5h44.68a2.5 2.5 0 0 0 0-5z"/><path d="m121.51 96.9a2.5 2.5 0 0 0 2.5-2.5v-.31a2.5 2.5 0 0 0 -5 0v.31a2.5 2.5 0 0 0 2.5 2.5z"/><path d="m128 96.9a2.5 2.5 0 0 0 2.5-2.5v-.31a2.5 2.5 0 0 0 -5 0v.31a2.5 2.5 0 0 0 2.5 2.5z"/><path d="m134.49 96.9a2.5 2.5 0 0 0 2.5-2.5v-.31a2.5 2.5 0 0 0 -5 0v.31a2.5 2.5 0 0 0 2.5 2.5z"/><path d="m65.77 150.07a2.5 2.5 0 0 0 0-5h-27.28a2.5 2.5 0 0 0 0 5z"/><path d="m38.49 193.42a2.5 2.5 0 0 0 0 5h27.28a2.5 2.5 0 1 0 0-5z"/><path d="m38.49 208h27.28a2.5 2.5 0 0 0 0-5h-27.28a2.5 2.5 0 0 0 0 5z"/><path d="m217.51 145.07h-27.28a2.5 2.5 0 1 0 0 5h27.28a2.5 2.5 0 0 0 0-5z"/><circle cx="30.39" cy="226.09" r="2.5"/><path d="m17.5 143.16v73.93a11.52 11.52 0 0 0 2.1 6.63 2.58 2.58 0 0 0 3.49.6 2.52 2.52 0 0 0 .6-3.5 6.35 6.35 0 0 1 -1.19-3.73v-73.93a6.52 6.52 0 0 1 6.49-6.5h46.28a6.52 6.52 0 0 1 6.49 6.5v27.76a9.53 9.53 0 0 0 0 18.4v27.77a6.53 6.53 0 0 1 -6.49 6.5h-34.88a2.5 2.5 0 0 0 0 5h34.88a11.52 11.52 0 0 0 11.49-11.5v-27.79a9.54 9.54 0 0 0 6.68-6.68h11.87a11.5 11.5 0 0 0 11.49-11.49v-17.48h22.61v17.48a11.51 11.51 0 0 0 11.5 11.49h11.65a9.57 9.57 0 0 0 6.68 6.68v27.79a11.5 11.5 0 0 0 11.49 11.48h46.27a11.5 11.5 0 0 0 11.49-11.48v-73.93a11.5 11.5 0 0 0 -11.49-11.49h-6.86a2.5 2.5 0 0 0 0 5h6.86a6.51 6.51 0 0 1 6.49 6.49v73.93a6.5 6.5 0 0 1 -6.49 6.48h-46.27a6.49 6.49 0 0 1 -6.49-6.48v-27.77a9.53 9.53 0 0 0 0-18.4v-27.76a6.51 6.51 0 0 1 6.49-6.49h19.42a2.5 2.5 0 0 0 0-5h-19.42a11.5 11.5 0 0 0 -11.49 11.49v27.77a9.57 9.57 0 0 0 -6.68 6.69h-11.65a6.5 6.5 0 0 1 -6.5-6.49v-17.48h9.14a12.52 12.52 0 0 0 12.45-12.5v-27.15a2.5 2.5 0 1 0 -5 0v27.16a7.54 7.54 0 0 1 -7.5 7.5h-9.14v-11.4h5.93a2.49 2.49 0 0 0 2.5-2.5v-11.54a2.49 2.49 0 0 0 -2.5-2.5h-16.81a2.5 2.5 0 0 0 -2.5 2.5v11.54a2.5 2.5 0 0 0 2.5 2.5h5.93v11.39h-22.61v-11.39h5.72a2.5 2.5 0 0 0 2.5-2.5v-11.54a2.53 2.53 0 0 0 -.73-1.77 2.46 2.46 0 0 0 -1.77-.73h-16.86a2.5 2.5 0 0 0 -2.5 2.5v11.54a2.5 2.5 0 0 0 2.5 2.5h6.14v11.39h-9.34a7.54 7.54 0 0 1 -7.51-7.5v-73.91a7.53 7.53 0 0 1 7.51-7.5h51.09a7.53 7.53 0 0 1 7.5 7.5v26.76a2.5 2.5 0 1 0 5 0v-26.76a12.5 12.5 0 0 0 -12.49-12.5h-51.1a12.52 12.52 0 0 0 -12.46 12.5v73.91a12.53 12.53 0 0 0 12.51 12.5h9.34v17.48a6.5 6.5 0 0 1 -6.49 6.49h-11.91a9.58 9.58 0 0 0 -6.69-6.69v-27.77a11.51 11.51 0 0 0 -11.49-11.5h-46.27a11.52 11.52 0 0 0 -11.5 11.5zm149.71 36.94a4.53 4.53 0 1 1 4.53 4.55 4.55 4.55 0 0 1 -4.53-4.55zm-31.21-47.84v-6.54h11.86v6.54zm-27.82 0v-6.54h11.82v6.54zm-23.9 43.33a4.53 4.53 0 1 1 -4.53 4.53 4.55 4.55 0 0 1 4.51-4.53z"/><circle cx="210.15" cy="134.17" r="2.5"/><path d="m105.66 73.78h8.64a2.5 2.5 0 0 0 0-5h-8.64a2.5 2.5 0 0 0 0 5z"/><path d="m132.32 73.78a2.5 2.5 0 0 0 0-5h-8.64a2.5 2.5 0 0 0 0 5z"/><path d="m150.34 68.78h-8.64a2.5 2.5 0 0 0 0 5h8.64a2.5 2.5 0 0 0 0-5z"/><path d="m49.8 76.73c-1.71 7.39-4.11 8.18-7.73 9.37a2.39 2.39 0 0 0 0 4.54c6 2 6.7 4.93 7.73 9.38a2.39 2.39 0 0 0 4.66 0c1.71-7.39 4.24-8.22 7.73-9.38a2.39 2.39 0 0 0 0-4.54c-3.36-1.1-6-1.82-7.73-9.37a2.39 2.39 0 0 0 -4.66 0zm5.92 11.67a11.64 11.64 0 0 0 -3.54 4 12.45 12.45 0 0 0 -3.75-4 11.85 11.85 0 0 0 3.71-4.17 12.27 12.27 0 0 0 3.58 4.17z"/><path d="m213.93 86.1c-3.36-1.1-6-1.82-7.73-9.37a2.39 2.39 0 0 0 -4.66 0c-1.72 7.39-4.11 8.18-7.73 9.37a2.39 2.39 0 0 0 0 4.54c6 2 6.7 4.93 7.73 9.38a2.39 2.39 0 0 0 4.66 0c1.71-7.39 4.23-8.22 7.73-9.38a2.39 2.39 0 0 0 0-4.54zm-10 6.29a12.45 12.45 0 0 0 -3.75-4 12 12 0 0 0 3.71-4.17 12.27 12.27 0 0 0 3.58 4.14 11.64 11.64 0 0 0 -3.55 4.03z"/><path d="m138.06 206.61c-3.36-1.1-6-1.82-7.73-9.37a2.39 2.39 0 0 0 -4.66 0c-1.72 7.38-4.11 8.17-7.73 9.37a2.39 2.39 0 0 0 0 4.54c6 2 6.7 4.93 7.73 9.38a2.39 2.39 0 0 0 4.66 0c1.71-7.39 4.24-8.22 7.73-9.38a2.39 2.39 0 0 0 0-4.54zm-10 6.29a12.45 12.45 0 0 0 -3.75-4 11.94 11.94 0 0 0 3.71-4.17 12.13 12.13 0 0 0 3.58 4.13 11.68 11.68 0 0 0 -3.55 4.04z"/><path d="m163.55 101.49a2.5 2.5 0 1 0 2.45 2.51 2.5 2.5 0 0 0 -2.45-2.51z"/><path d="m152.84 81.26a2.49 2.49 0 0 0 -2.5-2.5h-44.68a2.5 2.5 0 0 0 -2.5 2.5v21.44a2.51 2.51 0 0 0 2.5 2.5h44.68a2.5 2.5 0 0 0 2.5-2.5zm-5 18.94h-39.68v-16.44h39.68z"/></svg>