<svg height="512" viewBox="0 0 64 64" width="512" xmlns="http://www.w3.org/2000/svg"><g id="Flat_2_copy"><g><g><path d="m32 63.5c-17.369 0-31.5-14.131-31.5-31.5s14.131-31.5 31.5-31.5 31.5 14.131 31.5 31.5-14.131 31.5-31.5 31.5z" fill="#fff"/></g><g><path d="m32 1c17.093 0 31 13.907 31 31s-13.907 31-31 31-31-13.907-31-31 13.907-31 31-31m0-1c-17.673 0-32 14.327-32 32s14.327 32 32 32 32-14.327 32-32-14.327-32-32-32z" fill="#fc6f58"/></g></g><g><path d="m50.749 23.367v19.781c0 2.419-1.979 4.398-4.398 4.398h-28.702c-2.419 0-4.398-1.979-4.398-4.398v-19.781z" fill="#161c27"/></g><g><path d="m50.749 23.367v-2.524c0-2.419-1.979-4.398-4.398-4.398h-28.702c-2.419 0-4.398 1.979-4.398 4.398v2.524z" fill="#494949"/></g><g><path d="m44.7 19.568h2.228v.5h-2.228z" fill="#fff"/></g><g><path d="m46.273 21.32-.377-.328 1-1.149-1-1.147.377-.328 1.287 1.475z" fill="#fff"/></g><g><path d="m41.029 21.408h-12.519c-.861 0-1.565-.704-1.565-1.565 0-.861.704-1.565 1.565-1.565h12.519c.861 0 1.565.704 1.565 1.565-.001.861-.705 1.565-1.565 1.565z" fill="#fff"/></g><g><path d="m28.827 20.592-.345-1.409h.274l.134.64c.035.172.068.352.092.491h.004c.023-.148.062-.315.103-.493l.152-.638h.27l.141.648c.035.167.064.324.085.477h.005c.024-.155.059-.315.096-.487l.146-.638h.262l-.379 1.409h-.277l-.146-.663c-.036-.16-.061-.294-.077-.447h-.005c-.024.15-.052.287-.094.447l-.163.663z" fill="#161c27"/></g><g><path d="m30.662 20.592-.345-1.409h.274l.134.64c.035.172.068.352.092.491h.004c.023-.148.062-.315.103-.493l.152-.638h.27l.141.648c.035.167.064.324.085.477h.005c.024-.155.059-.315.096-.487l.146-.638h.262l-.379 1.409h-.275l-.146-.663c-.036-.16-.061-.294-.077-.447h-.005c-.024.15-.052.287-.094.447l-.163.663z" fill="#161c27"/></g><g><path d="m32.497 20.592-.345-1.409h.274l.134.64c.035.172.068.352.092.491h.004c.023-.148.062-.315.103-.493l.152-.638h.27l.141.648c.035.167.064.324.085.477h.005c.024-.155.059-.315.096-.487l.146-.638h.262l-.379 1.409h-.277l-.146-.663c-.036-.16-.061-.294-.077-.447h-.005c-.024.15-.052.287-.094.447l-.163.663z" fill="#161c27"/></g><g><path d="m33.91 20.45c0-.096.067-.165.159-.165.094 0 .159.067.159.165 0 .095-.063.166-.159.166-.094 0-.159-.072-.159-.166z" fill="#161c27"/></g><g fill="#fc6f58"><path d="m19.063 36.002-.384 1.383h-1.264l1.647-5.389h1.599l1.671 5.389h-1.311l-.416-1.383zm1.367-.912-.336-1.144c-.096-.319-.191-.72-.271-1.039h-.017c-.08.319-.159.728-.248 1.039l-.319 1.144z"/><path d="m23.095 36.13c.328.167.832.335 1.352.335.56 0 .855-.231.855-.583 0-.336-.256-.528-.903-.76-.896-.312-1.479-.808-1.479-1.591 0-.92.768-1.623 2.039-1.623.607 0 1.056.128 1.375.271l-.271.983c-.216-.104-.6-.256-1.128-.256-.527 0-.783.24-.783.52 0 .344.304.496 1 .76.951.352 1.398.848 1.398 1.607 0 .903-.695 1.671-2.175 1.671-.615 0-1.223-.16-1.526-.328z"/><path d="m27.375 32.068c.376-.063.904-.111 1.647-.111.752 0 1.287.144 1.647.432.344.271.575.72.575 1.247s-.176.976-.495 1.279c-.416.392-1.032.567-1.752.567-.159 0-.304-.008-.415-.023v1.927h-1.208v-5.318zm1.208 2.447c.104.023.231.031.407.031.647 0 1.048-.327 1.048-.879 0-.496-.344-.792-.952-.792-.247 0-.415.024-.503.048z"/><path d="m30.743 36.738c0-.432.296-.744.72-.744s.712.304.712.744c0 .424-.288.735-.72.735-.417 0-.712-.312-.712-.735z"/><path d="m32.951 37.385v-5.389h1.424l1.119 1.975c.319.567.64 1.239.88 1.847h.023c-.08-.711-.104-1.438-.104-2.246v-1.575h1.119v5.389h-1.279l-1.151-2.079c-.319-.575-.672-1.271-.936-1.902l-.024.008c.032.712.049 1.471.049 2.351v1.623h-1.12z"/><path d="m41.678 35.107h-1.983v1.279h2.215v.999h-3.438v-5.389h3.326v.999h-2.103v1.119h1.983z"/><path d="m43.823 33.02h-1.447v-1.023h4.142v1.023h-1.472v4.365h-1.223z"/></g><g><circle cx="17.57" cy="19.843" fill="#fc6f58" r=".983"/></g><g><circle cx="20.372" cy="19.843" fill="#ffd67f" r=".983"/></g><g><circle cx="23.173" cy="19.843" fill="#999" r=".983"/></g></g></svg>