<svg id="Layer_1" enable-background="new 0 0 512 512" height="512" viewBox="0 0 512 512" width="512" xmlns="http://www.w3.org/2000/svg"><g clip-rule="evenodd" fill-rule="evenodd"><g><g><path d="m229.425 96.748h53.15v26.668c17.598 3.51 33.961 10.434 48.374 20.051l18.867-18.867 37.583 37.584-18.866 18.867c9.619 14.412 16.541 30.777 20.051 48.375h26.668v53.15h-26.668c-3.509 17.598-10.432 33.961-20.051 48.375l18.866 18.865-37.583 37.584-18.865-18.865c-14.413 9.621-30.779 16.541-48.376 20.051v26.666h-53.15v-26.666c-17.599-3.508-33.962-10.432-48.376-20.051l-18.866 18.865-37.583-37.584 18.865-18.863c-9.619-14.414-16.541-30.779-20.051-48.377h-26.666v-53.15h26.666c3.509-17.598 10.433-33.963 20.051-48.377l-18.865-18.865 37.583-37.584 18.866 18.867c14.412-9.621 30.779-16.541 48.376-20.051z" fill="#fad808"/><path d="m255.998 338.813c45.611 0 82.812-37.201 82.812-82.811 0-45.611-37.2-82.813-82.812-82.813-45.609 0-82.811 37.201-82.811 82.813.001 45.609 37.202 82.811 82.811 82.811z" fill="#eff4f7"/></g><g><path d="m404.865 503.5c54.326 0 98.635-44.309 98.635-98.633 0-54.326-44.309-98.635-98.635-98.635-54.325 0-98.633 44.309-98.633 98.635 0 54.324 44.308 98.633 98.633 98.633z" fill="#62a4fb"/><path d="m442.213 359.887c5.584-5.584 14.637-5.584 20.219 0 5.584 5.584 5.584 14.637 0 20.221l-69.741 69.74c-6.323 6.324-16.771 5.33-21.845-1.939l-29.342-36.924c-4.905-6.17-3.88-15.146 2.29-20.053 6.169-4.904 15.147-3.879 20.052 2.291l19.939 25.092z" fill="#eff4f7"/></g></g><path d="m458.623 370.002c0-1.689-.66-3.27-1.842-4.459-1.189-1.189-2.781-1.842-4.461-1.842-1.677 0-3.261.652-4.451 1.842l-58.43 58.43c-1.607 1.607-3.819 2.469-6.109 2.33-2.281-.131-4.39-1.223-5.809-3.012l-19.941-25.09c-1.189-1.5-2.99-2.371-4.911-2.371-.997 0-2.478.242-3.897 1.363-2.699 2.158-3.159 6.109-1.001 8.816l29.341 36.922c.098.127.2.26.299.398 1.202 1.723 3.09 2.703 5.189 2.703 1.67 0 3.25-.652 4.439-1.842l69.742-69.736c1.182-1.194 1.842-2.772 1.842-4.452zm9.466-15.772c4.214 4.211 6.532 9.811 6.532 15.771 0 5.949-2.318 11.551-6.532 15.76l-69.737 69.739c-4.21 4.213-9.802 6.531-15.739 6.531-7.213.012-13.982-3.467-18.159-9.322l-29.213-36.75c-7.641-9.609-6.039-23.648 3.582-31.289 3.918-3.117 8.837-4.842 13.847-4.842 6.832 0 13.191 3.074 17.442 8.424l14.359 18.07 52.092-52.092c4.209-4.209 9.81-6.527 15.758-6.527 5.962 0 11.562 2.318 15.768 6.527zm-137.28-98.228c0-41.25-33.558-74.813-74.809-74.813-41.25 0-74.809 33.563-74.809 74.813 0 41.252 33.559 74.809 74.809 74.809 41.251 0 74.809-33.557 74.809-74.809zm16.002 0c0 50.068-40.738 90.811-90.811 90.811-50.068 0-90.81-40.742-90.81-90.811 0-50.072 40.741-90.809 90.81-90.809 50.072 0 90.811 40.737 90.811 90.809zm148.689 148.871c0 49.971-40.66 90.631-90.629 90.631-49.982 0-90.643-40.66-90.643-90.631 0-49.982 40.66-90.641 90.643-90.641 49.969 0 90.629 40.659 90.629 90.641zm-192.809-30.521c-7.012 2.77-14.291 4.92-21.68 6.389-3.742.75-6.43 4.033-6.43 7.854v18.658h-37.16v-18.658c0-3.82-2.691-7.104-6.434-7.854-16.309-3.25-31.617-9.598-45.497-18.857-3.171-2.121-7.401-1.703-10.102.996l-13.207 13.213-26.271-26.271 13.211-13.207c2.699-2.699 3.118-6.93.996-10.102-9.26-13.869-15.607-29.18-18.86-45.502-.747-3.738-4.028-6.43-7.837-6.43h-18.67v-37.16h18.672c3.809 0 7.09-2.688 7.837-6.43 3.253-16.309 9.601-31.621 18.86-45.5 2.122-3.168 1.703-7.398-.996-10.098l-13.211-13.211 26.271-26.271 13.207 13.211c2.7 2.699 6.931 3.123 10.102 1.002 13.868-9.262 29.181-15.6 45.497-18.861 3.742-.738 6.434-4.029 6.434-7.842v-18.668h37.16v18.668c0 3.813 2.688 7.104 6.43 7.842 16.309 3.248 31.617 9.6 45.497 18.861 3.173 2.121 7.401 1.697 10.103-1.002l13.211-13.211 26.271 26.271-13.211 13.211c-2.7 2.699-3.118 6.93-1.001 10.098 9.26 13.871 15.599 29.184 18.861 45.5.738 3.742 4.028 6.43 7.84 6.43h18.668v37.16h-18.668c-3.812 0-7.102 2.691-7.84 6.43-1.469 7.389-3.623 14.66-6.393 21.68-34.298 10.26-61.398 37.36-71.66 71.661zm191.96-26.961c10.659 16.594 16.851 36.332 16.851 57.482 0 58.799-47.84 106.627-106.631 106.627-21.158 0-40.891-6.188-57.49-16.859-29.152 11.181-59.858 16.859-91.381 16.859-64.679 0-126.029-24.059-173.369-67.85l2.339 29.18c.353 4.402-2.93 8.264-7.328 8.621-.222.012-.438.02-.652.02-4.128 0-7.628-3.172-7.968-7.361l-4.049-50.51c-.193-2.34.66-4.637 2.317-6.299 1.649-1.658 3.96-2.49 6.29-2.311l50.511 4.051c4.411.354 7.688 4.209 7.341 8.611-.35 4.41-4.21 7.689-8.621 7.34l-28.457-2.293c44.257 40.541 101.408 62.805 161.646 62.805 26.238 0 51.882-4.203 76.413-12.475-21.011-19.488-34.182-47.307-34.182-78.156 0-4.139.251-8.213.71-12.23-2.77.869-5.559 1.648-8.361 2.348v20.26c0 4.422-3.59 8-7.996 8h-53.162c-4.411 0-8.002-3.578-8.002-8v-20.26c-13.847-3.418-26.996-8.879-39.248-16.27l-14.331 14.34c-1.502 1.502-3.528 2.34-5.658 2.34-2.121 0-4.152-.838-5.653-2.34l-37.588-37.59c-3.118-3.119-3.118-8.178 0-11.309l14.34-14.332c-7.389-12.238-12.842-25.396-16.271-39.248h-20.262c-4.419 0-8.001-3.59-8.001-8v-53.162c0-4.41 3.582-8.002 8.001-8.002h20.261c3.422-13.846 8.883-26.996 16.271-39.248l-14.34-14.326c-1.501-1.502-2.342-3.533-2.342-5.662 0-2.123.841-4.148 2.342-5.65l37.588-37.588c1.501-1.5 3.532-2.342 5.653-2.342 2.13 0 4.156.842 5.658 2.342l14.331 14.336c12.239-7.389 25.401-12.838 39.248-16.268v-20.26c0-4.42 3.591-8.002 8.002-8.002h53.162c4.406 0 7.996 3.582 7.996 8.002v20.26c13.852 3.43 27.001 8.879 39.252 16.268l14.328-14.336c3.131-3.121 8.189-3.121 11.311 0l37.592 37.588c3.119 3.117 3.119 8.189 0 11.313l-14.344 14.338c7.394 12.24 12.842 25.391 16.272 39.236h20.261c4.418 0 8 3.592 8 8.002v53.162c0 4.41-3.582 8-8 8h-20.261c-.701 2.799-1.481 5.588-2.351 8.361 4.012-.459 8.09-.709 12.23-.709 30.85 0 58.668 13.178 78.16 34.186 8.268-24.535 12.469-50.18 12.469-76.418 0-49.09-14.758-96.279-42.678-136.471-2.523-3.627-1.621-8.607 2.01-11.131 3.627-2.52 8.608-1.629 11.127 2.002 29.791 42.879 45.543 93.23 45.543 145.6.002 31.518-5.681 62.241-16.849 91.388zm-478.151-91.389c0-60.238 22.258-117.389 62.799-161.65l-2.289 28.461c-.349 4.412 2.93 8.26 7.34 8.621.222.016.432.016.652.016 4.128 0 7.628-3.166 7.961-7.355l4.057-50.512c.182-2.33-.656-4.641-2.318-6.289-1.661-1.662-3.959-2.504-6.302-2.322l-50.507 4.048c-4.402.361-7.693 4.215-7.332 8.625.349 4.398 4.201 7.688 8.607 7.328l29.185-2.34c-43.79 47.34-67.854 108.691-67.854 173.369 0 52.371 15.752 102.721 45.543 145.602 1.551 2.236 4.041 3.438 6.58 3.438 1.568 0 3.16-.467 4.551-1.428 3.627-2.531 4.529-7.512 2.007-11.143-27.918-40.19-42.68-87.381-42.68-136.469zm91.901-198.832c2.519 3.631 7.5 4.529 11.128 2.012 40.192-27.922 87.383-42.68 136.471-42.68 60.239 0 117.389 22.258 161.651 62.799l-28.462-2.289c-4.406-.352-8.259 2.93-8.621 7.34-.348 4.398 2.934 8.26 7.341 8.613l50.512 4.049c.209.018.431.029.64.029 2.109 0 4.152-.842 5.662-2.344 1.649-1.656 2.499-3.959 2.311-6.297l-4.055-50.512c-.349-4.398-4.226-7.689-8.607-7.328-4.411.35-7.688 4.209-7.34 8.609l2.338 29.18c-47.341-43.79-108.687-67.851-173.37-67.851-52.369 0-102.709 15.752-145.601 45.543-3.627 2.52-4.516 7.508-1.998 11.127z"/></g></svg>