<svg id="Layer_1" enable-background="new 0 0 500 500" height="512" viewBox="0 0 500 500" width="512" xmlns="http://www.w3.org/2000/svg"><g clip-rule="evenodd" fill-rule="evenodd"><path d="m223.93 360.65h52.13c36.82 0 66.95 30.13 66.95 66.95 0 7.31-5.98 13.29-13.29 13.29h-159.45c-7.31 0-13.29-5.98-13.29-13.29.01-36.83 30.13-66.95 66.95-66.95z" fill="#8fcae6"/><ellipse cx="250" cy="295.4" fill="#8fcae6" rx="46.18" ry="46.18" transform="matrix(.23 -.973 .973 .23 -94.935 470.836)"/><g fill="#fcb13c"><path d="m250 59.1 8.96 27.78 29.19-.05-23.65 17.11 9.08 27.74-23.58-17.2-23.59 17.2 9.08-27.74-23.65-17.11 29.19.05z"/><path d="m454.84 182.88 8.97 27.78 29.19-.06-23.65 17.11 9.07 27.74-23.58-17.2-23.58 17.2 9.07-27.74-23.65-17.11 29.19.06zm-409.69 0 8.97 27.78 29.19-.06-23.65 17.11 9.07 27.74-23.58-17.2-23.58 17.2 9.07-27.74-23.64-17.11 29.19.06z"/><path d="m125.56 97.19 8.97 27.78 29.19-.06-23.65 17.11 9.07 27.74-23.58-17.2-23.58 17.2 9.07-27.74-23.65-17.11 29.19.06zm248.87 0 8.97 27.78 29.19-.06-23.65 17.11 9.07 27.74-23.58-17.2-23.58 17.2 9.07-27.74-23.65-17.11 29.19.06z"/></g><path d="m223.95 353.65h52.13c20.34 0 38.83 8.32 52.23 21.72s21.72 31.89 21.72 52.23c0 5.59-2.28 10.66-5.95 14.33s-8.75 5.95-14.33 5.95h-31.48-96.49-31.48c-5.59 0-10.66-2.28-14.33-5.95s-5.95-8.75-5.95-14.33c0-20.34 8.32-38.83 21.72-52.23 13.37-13.41 31.86-21.72 52.21-21.72zm-91.71-258.55 7.39 22.88 24.11-.05c3.85 0 6.97 3.12 6.97 6.97 0 2.32-1.14 4.38-2.88 5.65l.01.01-19.52 14.13 7.49 22.91c1.19 3.67-.81 7.61-4.48 8.8-2.39.78-4.9.19-6.69-1.32l-19.05-13.9-19.49 14.22c-3.11 2.27-7.47 1.58-9.73-1.53-1.37-1.88-1.66-4.21-.99-6.26l-.02-.01 7.49-22.91-19.52-14.13c-3.13-2.27-3.82-6.64-1.56-9.76 1.47-2.03 3.84-3.04 6.17-2.87l23.6.05 7.4-22.93c1.18-3.67 5.11-5.69 8.78-4.51 2.23.72 3.86 2.47 4.52 4.56zm-4.34 32-2.32-7.2-2.32 7.2c-.9 2.81-3.53 4.84-6.64 4.84l-7.57-.01 6.13 4.44c2.39 1.73 3.5 4.86 2.54 7.82l-2.36 7.21 6.01-4.38c2.39-1.81 5.77-1.94 8.32-.08l6.12 4.47-2.28-6.96c-1.06-2.87-.14-6.2 2.46-8.08l6.13-4.44-7.25.01c-3.08.14-5.98-1.77-6.97-4.84zm253.2-32 7.39 22.88 24.11-.05c3.85 0 6.97 3.12 6.97 6.97 0 2.32-1.14 4.38-2.88 5.65l.01.01-19.52 14.13 7.49 22.91c1.19 3.67-.81 7.61-4.48 8.8-2.39.78-4.9.19-6.69-1.32l-19.05-13.9-19.48 14.21c-3.11 2.27-7.47 1.58-9.73-1.53-1.37-1.88-1.66-4.21-.99-6.26l-.02-.01 7.49-22.91-19.52-14.13c-3.13-2.27-3.82-6.64-1.56-9.76 1.47-2.03 3.84-3.04 6.17-2.87l23.6.05 7.4-22.93c1.18-3.67 5.11-5.69 8.78-4.51 2.23.73 3.85 2.48 4.51 4.57zm-4.34 32-2.32-7.2-2.32 7.2c-.9 2.81-3.53 4.84-6.64 4.84l-7.57-.01 6.13 4.44c2.39 1.73 3.5 4.86 2.54 7.82l-2.36 7.21 6.01-4.38c2.39-1.81 5.77-1.94 8.32-.08l6.12 4.47-2.28-6.96c-1.06-2.87-.14-6.2 2.46-8.08l6.13-4.44-7.25.01c-3.07.14-5.98-1.77-6.97-4.84zm84.75 53.69c-.66-2.09-2.28-3.84-4.53-4.56-3.67-1.18-7.6.84-8.78 4.51l-7.4 22.93-23.6-.05c-2.33-.17-4.7.84-6.17 2.87-2.27 3.13-1.57 7.5 1.56 9.76l19.52 14.13-7.49 22.91.02.01c-.66 2.05-.37 4.38.99 6.26 2.27 3.11 6.62 3.8 9.73 1.53l19.48-14.21 19.05 13.9c1.79 1.52 4.3 2.1 6.69 1.32 3.67-1.19 5.68-5.14 4.48-8.8l-7.49-22.91 19.52-14.13-.01-.01c1.75-1.27 2.88-3.32 2.88-5.65 0-3.85-3.12-6.97-6.97-6.97l-24.11.05zm-4.34 32c.99 3.07 3.89 4.98 6.97 4.84l7.25-.01-6.13 4.44c-2.6 1.88-3.52 5.21-2.46 8.08l2.28 6.96-6.12-4.47c-2.55-1.85-5.93-1.73-8.32.08l-6.01 4.38 2.36-7.21c.96-2.96-.16-6.09-2.54-7.82l-6.13-4.44 7.57.01c3.11 0 5.74-2.03 6.64-4.84l2.32-7.2zm-405.34-32c-.66-2.09-2.28-3.84-4.53-4.56-3.67-1.18-7.6.84-8.78 4.51l-7.4 22.93-23.6-.05c-2.33-.17-4.7.84-6.17 2.87-2.27 3.13-1.57 7.5 1.56 9.76l19.52 14.13-7.49 22.91.02.01c-.66 2.05-.37 4.38.99 6.26 2.27 3.11 6.62 3.8 9.73 1.53l19.48-14.21 19.05 13.9c1.79 1.52 4.3 2.1 6.69 1.32 3.67-1.19 5.68-5.14 4.48-8.8l-7.49-22.91 19.52-14.13-.01-.01c1.75-1.27 2.88-3.32 2.88-5.65 0-3.85-3.12-6.97-6.97-6.97l-24.11.05zm-4.34 32c.99 3.07 3.89 4.98 6.97 4.84l7.25-.01-6.13 4.44c-2.6 1.88-3.52 5.21-2.46 8.08l2.28 6.96-6.12-4.47c-2.55-1.85-5.93-1.73-8.32.08l-6.01 4.38 2.36-7.21c.96-2.96-.16-6.09-2.54-7.82l-6.13-4.44 7.57.01c3.11 0 5.74-2.03 6.64-4.84l2.32-7.2zm209.18-155.77 7.39 22.88 24.11-.05c3.85 0 6.97 3.12 6.97 6.97 0 2.32-1.14 4.38-2.88 5.65l.01.01-19.52 14.13 7.49 22.91c1.19 3.67-.81 7.61-4.48 8.8-2.39.78-4.9.19-6.69-1.32l-19.05-13.9-19.48 14.21c-3.11 2.27-7.47 1.58-9.73-1.53-1.37-1.88-1.66-4.21-.99-6.26l-.02-.01 7.49-22.91-19.52-14.13c-3.13-2.27-3.82-6.64-1.56-9.76 1.47-2.03 3.84-3.04 6.17-2.87l23.6.05 7.4-22.93c1.18-3.67 5.11-5.69 8.78-4.51 2.23.73 3.85 2.48 4.51 4.57zm-4.34 31.99-2.32-7.2-2.32 7.2c-.9 2.81-3.53 4.84-6.64 4.84l-7.57-.01 6.13 4.44c2.39 1.73 3.5 4.86 2.54 7.82l-2.36 7.21 6.01-4.38c2.39-1.81 5.77-1.94 8.32-.08l6.12 4.47-2.28-6.96c-1.06-2.87-.14-6.2 2.46-8.08l6.13-4.44-7.25.01c-3.07.15-5.98-1.77-6.97-4.84zm-9.32 77.57c0-3.87 3.13-7 7-7s7 3.13 7 7v39.1c0 3.87-3.13 7-7 7s-7-3.13-7-7zm157.58 82.54c3.34-1.93 7.61-.79 9.54 2.54 1.93 3.34.79 7.61-2.54 9.54l-34.19 19.74c-3.34 1.93-7.61.79-9.54-2.54-1.93-3.34-.79-7.61 2.54-9.54zm-67.79-62.36c1.93-3.34 6.21-4.48 9.54-2.54 3.34 1.93 4.48 6.21 2.54 9.54l-19.61 33.97c-1.93 3.34-6.21 4.48-9.54 2.54-3.34-1.93-4.48-6.21-2.54-9.54zm-240.37 74.45c-3.34-1.93-4.48-6.21-2.54-9.54 1.93-3.34 6.21-4.48 9.54-2.54l34.19 19.74c3.34 1.93 4.48 6.21 2.54 9.54-1.93 3.34-6.21 4.48-9.54 2.54zm62.7-67.48c-1.92-3.34-.77-7.6 2.57-9.52s7.6-.77 9.52 2.57l19.61 33.97c1.92 3.34.77 7.6-2.57 9.52s-7.6.77-9.52-2.57zm39.63 219.11c0-3.87 3.13-7 7-7s7 3.13 7 7v21.04h82.49v-21.04c0-3.87 3.13-7 7-7s7 3.13 7 7v21.04h24.48c1.72 0 3.29-.71 4.43-1.85s1.85-2.71 1.85-4.43c0-16.48-6.75-31.46-17.61-42.33-10.87-10.87-25.85-17.61-42.33-17.61h-52.13c-16.48 0-31.46 6.75-42.33 17.61-10.86 10.86-17.61 25.84-17.61 42.32 0 1.72.71 3.29 1.85 4.43s2.71 1.85 4.43 1.85h24.48zm55.25-170.63c14.69 0 27.98 5.95 37.61 15.58 9.62 9.62 15.58 22.92 15.58 37.61s-5.95 27.98-15.58 37.61c-9.62 9.62-22.92 15.58-37.61 15.58-14.68 0-27.98-5.95-37.61-15.58-9.62-9.62-15.58-22.92-15.58-37.61s5.95-27.98 15.58-37.61c9.63-9.62 22.92-15.58 37.61-15.58zm27.71 25.48c-7.09-7.09-16.89-11.48-27.71-11.48s-20.62 4.39-27.71 11.48-11.48 16.89-11.48 27.71 4.39 20.62 11.48 27.71 16.89 11.48 27.71 11.48 20.62-4.39 27.71-11.48 11.48-16.89 11.48-27.71c-.01-10.83-4.39-20.62-11.48-27.71z" fill="#010101"/></g></svg>