<?xml version="1.0" encoding="UTF-8" standalone="no"?>
<!-- Created with Inkscape (http://www.inkscape.org/) -->

<svg
   version="1.1"
   id="svg1215"
   width="682.66669"
   height="682.66669"
   viewBox="0 0 682.66669 682.66669"
   xmlns="http://www.w3.org/2000/svg"
   xmlns:svg="http://www.w3.org/2000/svg">
  <defs
     id="defs1219">
    <clipPath
       clipPathUnits="userSpaceOnUse"
       id="clipPath1229">
      <path
         d="M 0,512 H 512 V 0 H 0 Z"
         id="path1227" />
    </clipPath>
  </defs>
  <g
     id="g1221"
     transform="matrix(1.3333333,0,0,-1.3333333,0,682.66667)">
    <g
       id="g1223">
      <g
         id="g1225"
         clip-path="url(#clipPath1229)">
        <g
           id="g1231"
           transform="translate(454.7412,222.0049)">
          <path
             d="m 0,0 c 0,-116.348 -94.329,-210.666 -210.677,-210.666 -28.54,0 -55.749,5.675 -80.564,15.962 -67.831,28.096 -117.792,90.604 -128.12,165.751 -1.311,9.462 -1.982,19.13 -1.982,28.953 0,116.358 94.319,210.676 210.666,210.676 C -94.329,210.676 0,116.358 0,0"
             style="fill:#937de2;fill-opacity:1;fill-rule:nonzero;stroke:none"
             id="path1233" />
        </g>
        <g
           id="g1235"
           transform="translate(244.0645,432.6812)">
          <path
             d="m 0,0 c -11.137,0 -22.07,-0.871 -32.741,-2.537 100.798,-15.73 177.933,-102.92 177.933,-208.139 0,-105.205 -77.128,-192.391 -177.919,-208.127 10.666,-1.664 21.594,-2.539 32.727,-2.539 116.348,0 210.677,94.318 210.677,210.666 C 210.677,-94.318 116.348,0 0,0"
             style="fill:#937de2;fill-opacity:1;fill-rule:nonzero;stroke:none"
             id="path1237" />
        </g>
        <g
           id="g1239"
           transform="translate(481.04,237.5801)">
          <path
             d="m 0,0 -120.3,-79.66 c -8.57,-5.68 -18.95,-7.93 -29.099,-6.31 -10.171,1.62 -20.58,-0.6 -29.171,-6.29 l -16.1,-10.67 -90.16,132.9 22.12,95.56 c 1.72,7.44 2.57,14.98 2.57,22.49 0,19.43 -5.68,38.61 -16.58,55.07 -2.679,4.05 -3.961,8.63 -3.961,13.15 0,7.73 3.75,15.31 10.681,19.9 9.34,6.19 21.72,5.04 29.76,-2.76 l 14.33,-13.88 c 16.389,-15.9 29.03,-35.26 36.97,-56.67 l 7.77,-20.92 80.021,52.87 c 12.779,8.46 30.069,4.76 38.229,-8.33 7.87,-12.61 3.83,-29.27 -8.57,-37.48 -0.15,-0.1 -0.159,-0.26 -0.111,-0.38 0.071,-0.13 0.221,-0.22 0.391,-0.15 3.16,1.22 6.47,1.81 9.75,1.81 5.24,0 10.43,-1.51 14.87,-4.38 3.06,-1.98 5.77,-4.61 7.909,-7.84 4.131,-6.24 5.361,-13.56 4.011,-20.36 -2.12,-10.72 -9.91,-16.24 -11.44,-17.28 -0.26,-0.18 -0.33,-0.54 -0.15,-0.81 0,-0.01 0.01,-0.02 0.02,-0.02 0.17,-0.24 0.52,-0.31 0.77,-0.15 2.18,0.53 4.4,0.78 6.619,0.78 5.42,0 10.811,-1.54 15.391,-4.46 3.1,-1.98 5.84,-4.6 7.96,-7.81 8.319,-12.56 4.88,-29.49 -7.69,-37.81 -0.31,-0.21 -0.62,-0.42 -0.93,-0.62 -0.18,-0.14 -0.231,-0.37 -0.14,-0.53 0.02,-0.04 0.06,-0.08 0.1,-0.1 0.139,-0.11 0.36,-0.12 0.54,0.02 7.81,2.66 16.31,1.45 23.15,-2.98 C 2.68,43.88 5.47,41.16 7.68,37.82 16,25.25 12.56,8.32 0,0"
             style="fill:#fdd7bd;fill-opacity:1;fill-rule:nonzero;stroke:none"
             id="path1241" />
        </g>
        <g
           id="g1243"
           transform="translate(287.5195,109.4302)">
          <path
             d="m 0,0 -50.75,-33.61 -73.27,-48.52 c -67.83,28.1 -117.79,90.6 -128.12,165.75 l 85.031,56.31 51.759,34.28 c 5.96,3.95 14,2.31 17.951,-3.66 L 3.66,17.96 C 7.61,11.99 5.971,3.96 0,0"
             style="fill:#87dbff;fill-opacity:1;fill-rule:nonzero;stroke:none"
             id="path1245" />
        </g>
        <g
           id="g1247"
           transform="translate(287.5195,109.4302)">
          <path
             d="m 0,0 -50.75,-33.61 -116.359,173.54 51.759,34.28 c 5.96,3.95 14,2.31 17.951,-3.66 L 3.66,17.96 C 7.61,11.99 5.971,3.96 0,0"
             style="fill:#6fc7ff;fill-opacity:1;fill-rule:nonzero;stroke:none"
             id="path1249" />
        </g>
        <g
           id="g1251"
           transform="translate(434.4502,383.4502)">
          <path
             d="m 0,0 -40.03,-21.42 c -5.68,-3.03 -12.72,-1.45 -16.54,3.72 l 31.559,20.42 c 0.071,-0.13 0.221,-0.22 0.391,-0.15 3.16,1.22 6.47,1.81 9.75,1.81 C -9.63,4.38 -4.44,2.87 0,0"
             style="fill:#fdd7bd;fill-opacity:1;fill-rule:nonzero;stroke:none"
             id="path1253" />
        </g>
        <g
           id="g1255"
           transform="translate(457.5801,333.3101)">
          <path
             d="m 0,0 -39.16,-20.94 c -5.68,-3.04 -12.72,-1.46 -16.54,3.71 l 31.559,20.42 1.361,0.64 c 0.17,-0.24 0.52,-0.31 0.77,-0.15 2.18,0.53 4.4,0.78 6.619,0.78 C -9.971,4.46 -4.58,2.92 0,0"
             style="fill:#fdd7bd;fill-opacity:1;fill-rule:nonzero;stroke:none"
             id="path1257" />
        </g>
        <g
           id="g1259"
           transform="translate(480.5703,283.48)">
          <path
             d="m 0,0 -34.49,-18.45 c -5.67,-3.03 -12.71,-1.45 -16.54,3.72 l 27.34,17.69 c 0.139,-0.11 0.36,-0.12 0.54,0.02 C -15.34,5.64 -6.84,4.43 0,0"
             style="fill:#fdd7bd;fill-opacity:1;fill-rule:nonzero;stroke:none"
             id="path1261" />
        </g>
        <g
           id="g1263"
           transform="translate(279.6299,429.6899)">
          <path
             d="M 0,0 C 22.57,-3.84 43.91,-11.26 63.42,-21.67"
             style="fill:none;stroke:#000000;stroke-width:15;stroke-linecap:round;stroke-linejoin:round;stroke-miterlimit:10;stroke-dasharray:none;stroke-opacity:1"
             id="path1265" />
        </g>
        <g
           id="g1267"
           transform="translate(451.1963,183.3369)">
          <path
             d="M 0,0 C 2.218,11.951 3.426,24.256 3.534,36.823"
             style="fill:none;stroke:#000000;stroke-width:15;stroke-linecap:round;stroke-linejoin:round;stroke-miterlimit:10;stroke-dasharray:none;stroke-opacity:1"
             id="path1269" />
        </g>
        <g
           id="g1271"
           transform="translate(212.2998,430.2998)">
          <path
             d="m 0,0 c -101.27,-15.31 -178.899,-102.74 -178.899,-208.3 0,-9.82 0.67,-19.49 1.979,-28.95 10.33,-75.15 60.29,-137.65 128.12,-165.75 24.821,-10.29 52.02,-15.96 80.56,-15.96 91.231,0 168.918,57.988 198.213,139.109"
             style="fill:none;stroke:#000000;stroke-width:15;stroke-linecap:round;stroke-linejoin:round;stroke-miterlimit:10;stroke-dasharray:none;stroke-opacity:1"
             id="path1273" />
        </g>
        <g
           id="g1275"
           transform="translate(446.5898,280.2202)">
          <path
             d="M 0,0 V 0.01"
             style="fill:none;stroke:#000000;stroke-width:15;stroke-linecap:round;stroke-linejoin:round;stroke-miterlimit:10;stroke-dasharray:none;stroke-opacity:1"
             id="path1277" />
        </g>
        <g
           id="g1279"
           transform="translate(197.6768,268.5791)">
          <path
             d="m 0,0 v 0 l 22.12,95.561 c 6.177,26.682 1.109,54.731 -14.013,77.565 -7.271,10.981 -4.264,25.777 6.716,33.049 9.339,6.184 21.723,5.036 29.765,-2.76 l 14.326,-13.888 c 16.397,-15.896 29.03,-35.257 36.977,-56.666 l 7.8,-21.017"
             style="fill:none;stroke:#000000;stroke-width:15;stroke-linecap:round;stroke-linejoin:round;stroke-miterlimit:10;stroke-dasharray:none;stroke-opacity:1"
             id="path1281" />
        </g>
        <g
           id="g1283"
           transform="translate(301.3682,380.4233)">
          <path
             d="m 0,0 79.987,52.97 c 12.566,8.321 29.496,4.881 37.818,-7.684 8.32,-12.565 4.88,-29.496 -7.685,-37.817 L 87.679,-7.393"
             style="fill:none;stroke:#000000;stroke-width:15;stroke-linecap:round;stroke-linejoin:round;stroke-miterlimit:10;stroke-dasharray:none;stroke-opacity:1"
             id="path1285" />
        </g>
        <g
           id="g1287"
           transform="translate(389.0469,373.0303)">
          <path
             d="m 0,0 15.492,10.26 c 12.565,8.321 29.496,4.88 37.817,-7.685 8.321,-12.565 4.88,-29.496 -7.685,-37.817 L 23.183,-50.103"
             style="fill:none;stroke:#000000;stroke-width:15;stroke-linecap:round;stroke-linejoin:round;stroke-miterlimit:10;stroke-dasharray:none;stroke-opacity:1"
             id="path1289" />
        </g>
        <g
           id="g1291"
           transform="translate(415.7041,325.228)">
          <path
             d="m 0,0 12.018,7.958 c 12.565,8.321 29.496,4.881 37.817,-7.684 8.32,-12.565 4.88,-29.496 -7.685,-37.817 L 19.709,-52.404"
             style="fill:none;stroke:#000000;stroke-width:15;stroke-linecap:round;stroke-linejoin:round;stroke-miterlimit:10;stroke-dasharray:none;stroke-opacity:1"
             id="path1293" />
        </g>
        <g
           id="g1295"
           transform="translate(438.8877,275.1245)">
          <path
             d="m 0,0 12.018,7.958 c 12.564,8.321 29.496,4.881 37.816,-7.684 8.321,-12.565 4.881,-29.496 -7.685,-37.817 l -120.297,-79.665 c -8.578,-5.681 -18.977,-7.929 -29.135,-6.299 -10.158,1.63 -20.558,-0.619 -29.135,-6.299 l -16.103,-10.665"
             style="fill:none;stroke:#000000;stroke-width:15;stroke-linecap:round;stroke-linejoin:round;stroke-miterlimit:10;stroke-dasharray:none;stroke-opacity:1"
             id="path1297" />
        </g>
        <g
           id="g1299"
           transform="translate(287.5244,109.4336)">
          <path
             d="m 0,0 -124.024,-82.133 c -67.831,28.096 -117.792,90.604 -128.121,165.751 l 136.789,90.584 c 5.963,3.951 14.002,2.311 17.953,-3.653 L 3.653,17.954 C 7.605,11.99 5.965,3.952 0,0 Z"
             style="fill:none;stroke:#000000;stroke-width:15;stroke-linecap:round;stroke-linejoin:round;stroke-miterlimit:10;stroke-dasharray:none;stroke-opacity:1"
             id="path1301" />
        </g>
        <g
           id="g1303"
           transform="translate(149.9473,205.2998)">
          <path
             d="M 0,0 86.819,-129.48"
             style="fill:none;stroke:#000000;stroke-width:15;stroke-linecap:round;stroke-linejoin:round;stroke-miterlimit:10;stroke-dasharray:none;stroke-opacity:1"
             id="path1305" />
        </g>
        <g
           id="g1307"
           transform="translate(120.4053,249.3574)">
          <path
             d="M 0,0 12.705,-18.948"
             style="fill:none;stroke:#000000;stroke-width:15;stroke-linecap:round;stroke-linejoin:round;stroke-miterlimit:10;stroke-dasharray:none;stroke-opacity:1"
             id="path1309" />
        </g>
      </g>
    </g>
  </g>
</svg>
