<?xml version="1.0" encoding="UTF-8"?>
<svg xmlns="http://www.w3.org/2000/svg" xmlns:xlink="http://www.w3.org/1999/xlink" version="1.1" id="Capa_1" x="0px" y="0px" viewBox="0 0 511.995 511.995" style="enable-background:new 0 0 511.995 511.995;" xml:space="preserve" width="512" height="512">
<g>
	<g>
		<path style="fill:#FFD500;" d="M452.477,51.611H382.84l-6.062,3.671v28.667l6.062,7.663h64.388c2.347,0,4.25,1.903,4.25,4.25&#10;&#9;&#9;&#9;v72.144c0,32.758-18.031,62.243-47.057,76.947c-11.531,5.841-23.831,10.212-36.801,13.106l-19.76,1.974l-19.979,32.25l0.257,9.813&#10;&#9;&#9;&#9;c-0.086,0.06-0.17,0.123-0.257,0.183h0.262c34.259,0,66.004-7.282,94.353-21.643c42.273-21.416,68.98-64.969,68.98-112.63V90.611&#10;&#9;&#9;&#9;C491.477,69.072,474.016,51.611,452.477,51.611z"/>
		<g>
			<path style="fill:#FFD500;" d="M82.777,53.448l-14,8.5l-9.833,16.167l-1.167,9l2.967,7.418c0.56-1.692,2.137-2.922,4.017-2.922&#10;&#9;&#9;&#9;&#9;h64.388l7.961-9.329V60.946l-7.961-9.335H92.919L82.777,53.448z"/>
			<path style="fill:#FFD500;" d="M179.611,287.532l-26-26.917l-9.242-2.557c-12.97-2.894-25.27-7.265-36.801-13.106&#10;&#9;&#9;&#9;&#9;c-26.228-13.287-43.475-38.644-46.557-67.579l-5.651,6.234v50.424l8.25,23.25l3.705,8.998&#10;&#9;&#9;&#9;&#9;c6.787,5.489,14.203,10.315,22.177,14.355c28.349,14.361,60.094,21.643,94.353,21.643h0.262L179.611,287.532z"/>
		</g>
		<g>
			<path style="fill:#FBC700;" d="M61.012,220.209v-42.836c-0.329-3.086-0.5-6.212-0.5-9.369V95.861c0-0.711,0.191-1.371,0.5-1.96&#10;&#9;&#9;&#9;&#9;v-3.29c0-21.539,17.461-39,39-39h-40.5c-21.539,0-39,17.461-39,39v77.394c0,40.129,18.946,77.42,50.278,100.986&#10;&#9;&#9;&#9;&#9;C64.45,253.797,61.012,237.263,61.012,220.209z"/>
		</g>
		<path style="fill:#FFD500;" d="M298.273,348.803c0-11.951,2.261-23.374,6.375-33.866l-6.537-4.406h-44.333v104.75h62.083&#10;&#9;&#9;&#9;l5.699-5.004C307.072,393.906,298.273,372.384,298.273,348.803z"/>
		<path style="fill:#EAB900;" d="M255.994,310.532h-42.019l-6.635,4.406c4.114,10.492,6.375,21.915,6.375,33.866&#10;&#9;&#9;&#9;c0,23.581-8.799,45.103-23.287,61.474l8.681,5.004h56.884V310.532z"/>
		<path style="fill:#FFEB7E;" d="M371.111,42.604H175.444v172.345l24.333,55.667l26.667,28.625l42.667,22.54h13.615l0,0&#10;&#9;&#9;&#9;c57.217-12.275,100.114-63.131,100.114-124.014V51.611L371.111,42.604z"/>
		<path style="fill:#FFE02F;" d="M182.612,197.766V51.611l15.461-9.007h-53.463l-15.461,9.007v146.155&#10;&#9;&#9;&#9;c0,70.055,56.791,126.845,126.845,126.845c9.171,0,18.112-0.982,26.731-2.831C225.51,309.505,182.612,258.649,182.612,197.766z"/>
		<path style="fill:#BF7FE3;" d="M331.586,410.278h-88.954l-13.188,2.837l-15.167,13l-5.333,15v24.833h156.833l8.217-5.567v-7.695&#10;&#9;&#9;&#9;C373.994,429.265,355.008,410.278,331.586,410.278z"/>
		<path style="fill:#B166DB;" d="M210.948,452.686c0-23.421,18.987-42.408,42.408-42.408h-72.954&#10;&#9;&#9;&#9;c-23.421,0-42.408,18.987-42.408,42.408v7.695l4.45,5.567h72.954l-4.45-5.567V452.686z"/>
		<path style="fill:#FFD500;" d="M382.938,7.498H177.218c-4.139,2.073-8.607,4.283-8.607,4.283l-3.167,9.333v21.5l6.583,7.167&#10;&#9;&#9;&#9;l6.056,1.829h204.855c8.315,0,15.056-6.741,15.056-15.056v-14C397.995,14.239,391.254,7.498,382.938,7.498z"/>
		<path style="fill:#FBC700;" d="M167.457,36.555v-14c0-8.315,6.741-15.056,15.056-15.056h-53.463&#10;&#9;&#9;&#9;c-8.315,0-15.056,6.741-15.056,15.056v14c0,8.315,6.741,15.056,15.056,15.056h53.463C174.198,51.611,167.457,44.87,167.457,36.555&#10;&#9;&#9;&#9;z"/>
		<path style="fill:#FF8706;" d="M291.403,196.136L291.403,196.136l-4.125-3.187l-8.135-2l-27.198-14.004l-13.5-27.663l-3.542-3.191&#10;&#9;&#9;&#9;l0,0c-1.831,1.612-4.103,2.702-6.586,3.063l-14.852,2.158c-10.459,1.52-14.636,14.373-7.067,21.75l10.747,10.476&#10;&#9;&#9;&#9;c3.005,2.93,4.377,7.151,3.667,11.287l-2.537,14.793c-1.787,10.417,9.147,18.361,18.502,13.442l13.284-6.984&#10;&#9;&#9;&#9;c3.715-1.953,8.153-1.953,11.868,0l13.285,6.984c9.355,4.918,20.289-3.025,18.502-13.442L291.403,196.136z"/>
		<path style="fill:#FFAA5B;" d="M298.525,151.312l-14.852-2.158c-4.153-0.604-7.744-3.212-9.602-6.976l-6.642-13.458&#10;&#9;&#9;&#9;c-4.677-9.478-18.192-9.478-22.87,0l-6.642,13.458c-0.747,1.513-1.784,2.828-3.016,3.913&#10;&#9;&#9;&#9;c1.377,27.951,24.474,50.191,52.767,50.191c1.257,0,2.499-0.06,3.734-0.146l-0.225-1.311c-0.71-4.136,0.662-8.357,3.667-11.287&#10;&#9;&#9;&#9;l10.747-10.476C313.161,165.685,308.984,152.831,298.525,151.312z"/>
		<path style="fill:#CC98E9;" d="M382.938,460.381H198.595l-7.4,3.067l-5.5,5.917v25l3.917,7l7.668,3.129h185.659&#10;&#9;&#9;&#9;c8.315,0,15.056-6.741,15.056-15.056v-14C397.995,467.122,391.254,460.381,382.938,460.381z"/>
		<path style="fill:#BF7FE3;" d="M186.948,489.437v-14c0-8.315,6.741-15.056,15.057-15.056h-72.954&#10;&#9;&#9;&#9;c-8.315,0-15.056,6.741-15.056,15.056v14c0,8.315,6.741,15.056,15.056,15.056h72.954&#10;&#9;&#9;&#9;C193.689,504.494,186.948,497.753,186.948,489.437z"/>
	</g>
	<g>
		<path style="fill:none;stroke:#000000;stroke-width:15;stroke-linecap:round;stroke-linejoin:round;stroke-miterlimit:10;" d="&#10;&#9;&#9;&#9;M382.941,460.382H129.054c-8.315,0-15.056,6.741-15.056,15.056v14c0,8.315,6.741,15.056,15.056,15.056h253.887&#10;&#9;&#9;&#9;c8.315,0,15.056-6.741,15.056-15.056v-14C397.998,467.123,391.257,460.382,382.941,460.382z"/>
		<g>
			<path style="fill:none;stroke:#000000;stroke-width:15;stroke-linecap:round;stroke-linejoin:round;stroke-miterlimit:10;" d="&#10;&#9;&#9;&#9;&#9;M129.152,51.613v146.155c0,70.055,56.791,126.845,126.845,126.845s126.845-56.79,126.845-126.845V51.613H129.152z"/>
		</g>
		<g>
			<path style="fill:none;stroke:#000000;stroke-width:15;stroke-linecap:round;stroke-linejoin:round;stroke-miterlimit:10;" d="&#10;&#9;&#9;&#9;&#9;M373.997,460.382v-7.695c0-23.421-18.987-42.408-42.408-42.408H180.406c-23.421,0-42.408,18.987-42.408,42.408v7.695H373.997z"/>
		</g>
		<path style="fill:none;stroke:#000000;stroke-width:15;stroke-linecap:round;stroke-linejoin:round;stroke-miterlimit:10;" d="&#10;&#9;&#9;&#9;M321.563,410.279c-14.488-16.372-23.287-37.894-23.287-61.474c0-11.951,2.261-23.374,6.375-33.866&#10;&#9;&#9;&#9;c-14.983,6.229-31.415,9.674-48.653,9.674s-33.67-3.445-48.654-9.674c4.114,10.492,6.375,21.915,6.375,33.866&#10;&#9;&#9;&#9;c0,23.581-8.799,45.103-23.287,61.474H321.563z"/>
		<path style="fill:none;stroke:#000000;stroke-width:15;stroke-linecap:round;stroke-linejoin:round;stroke-miterlimit:10;" d="&#10;&#9;&#9;&#9;M255.997,410.279v-85.667c-17.238,0-33.67-3.445-48.653-9.674c4.114,10.492,6.375,21.915,6.375,33.866&#10;&#9;&#9;&#9;c0,23.581-8.799,45.103-23.287,61.474H255.997z"/>
		<path style="fill:none;stroke:#000000;stroke-width:15;stroke-linecap:round;stroke-linejoin:round;stroke-miterlimit:10;" d="&#10;&#9;&#9;&#9;M298.528,151.313l-14.852-2.158c-4.153-0.604-7.744-3.212-9.601-6.976l-6.642-13.458c-4.677-9.478-18.193-9.478-22.87,0&#10;&#9;&#9;&#9;l-6.642,13.458c-1.857,3.763-5.448,6.372-9.601,6.976l-14.852,2.158c-10.459,1.52-14.636,14.373-7.067,21.75l10.747,10.476&#10;&#9;&#9;&#9;c3.005,2.93,4.377,7.151,3.668,11.287l-2.537,14.793c-1.787,10.417,9.147,18.361,18.502,13.442l13.285-6.984&#10;&#9;&#9;&#9;c3.715-1.953,8.153-1.953,11.868,0l13.284,6.984c9.355,4.918,20.289-3.025,18.502-13.442l-2.537-14.793&#10;&#9;&#9;&#9;c-0.71-4.136,0.662-8.357,3.668-11.287l10.747-10.476C313.164,165.686,308.987,152.833,298.528,151.313z"/>
		<path style="fill:none;stroke:#000000;stroke-width:15;stroke-linecap:round;stroke-linejoin:round;stroke-miterlimit:10;" d="&#10;&#9;&#9;&#9;M144.372,258.059c-12.97-2.894-25.27-7.265-36.801-13.106c-29.025-14.704-47.057-44.189-47.057-76.947V95.862&#10;&#9;&#9;&#9;c0-2.347,1.903-4.25,4.25-4.25h64.388v-40H59.515c-21.539,0-39,17.461-39,39v77.394c0,47.584,26.637,91.179,68.98,112.63&#10;&#9;&#9;&#9;c28.349,14.361,60.094,21.643,94.353,21.643h0.262C167.622,290.916,153.952,275.758,144.372,258.059z"/>
		<path style="fill:none;stroke:#000000;stroke-width:15;stroke-linecap:round;stroke-linejoin:round;stroke-miterlimit:10;" d="&#10;&#9;&#9;&#9;M238.498,7.5H129.054c-8.315,0-15.056,6.741-15.056,15.056v14c0,8.315,6.741,15.056,15.056,15.056h253.887&#10;&#9;&#9;&#9;c8.315,0,15.056-6.741,15.056-15.056v-14c0-8.315-6.741-15.056-15.056-15.056H273.498"/>
		<path style="fill:none;stroke:#000000;stroke-width:15;stroke-linecap:round;stroke-linejoin:round;stroke-miterlimit:10;" d="&#10;&#9;&#9;&#9;M491.48,121.001V90.613c0-21.539-17.461-39-39-39h-69.638v40h64.388c2.347,0,4.25,1.903,4.25,4.25v72.144&#10;&#9;&#9;&#9;c0,32.758-18.031,62.243-47.057,76.947c-11.531,5.841-23.831,10.212-36.801,13.106c-9.58,17.699-23.25,32.857-39.738,44.22h0.262&#10;&#9;&#9;&#9;c34.259,0,66.004-7.282,94.353-21.643c42.273-21.416,68.98-64.969,68.98-112.63v-12.005"/>
	</g>
</g>















</svg>
