<?xml version="1.0" encoding="UTF-8" standalone="no"?>
<!-- Created with Inkscape (http://www.inkscape.org/) -->

<svg
   version="1.1"
   id="svg2535"
   width="682.66669"
   height="682.66669"
   viewBox="0 0 682.66669 682.66669"
   xmlns="http://www.w3.org/2000/svg"
   xmlns:svg="http://www.w3.org/2000/svg">
  <defs
     id="defs2539">
    <clipPath
       clipPathUnits="userSpaceOnUse"
       id="clipPath2549">
      <path
         d="M 0,512 H 512 V 0 H 0 Z"
         id="path2547" />
    </clipPath>
  </defs>
  <g
     id="g2541"
     transform="matrix(1.3333333,0,0,-1.3333333,0,682.66667)">
    <g
       id="g2543">
      <g
         id="g2545"
         clip-path="url(#clipPath2549)">
        <g
           id="g2551"
           transform="translate(425.7004,206.4398)">
          <path
             d="m 0,0 c -13.54,-95.37 -102.426,-161.381 -198.532,-147.438 -229.012,41.685 -183.115,370.22 49.036,345.367 C -53.392,183.986 13.54,95.37 0,0"
             style="fill:#48deff;fill-opacity:1;fill-rule:nonzero;stroke:none"
             id="path2553" />
        </g>
        <g
           id="g2555"
           transform="translate(425.7004,206.4398)">
          <path
             d="m 0,0 c -13.54,-95.37 -102.426,-161.381 -198.532,-147.438 -229.012,41.685 -183.115,370.22 49.036,345.367 C -53.392,183.986 13.54,95.37 0,0"
             style="fill:#95ebd9;fill-opacity:1;fill-rule:nonzero;stroke:none"
             id="path2557" />
        </g>
        <g
           id="g2559"
           transform="translate(276.2026,404.369)">
          <path
             d="M 0,0 C -15.484,2.246 -30.781,2.417 -45.605,0.724 161.529,-27.281 162.022,-318.268 -43.429,-346.091 185.381,-364.297 225.514,-40.046 0,0"
             style="fill:#6be4cf;fill-opacity:1;fill-rule:nonzero;stroke:none"
             id="path2561" />
        </g>
        <g
           id="g2563"
           transform="translate(246.1405,354.6288)">
          <path
             d="m 0,0 c 3.775,-10.164 14.822,-15.33 24.301,-20.722 9.478,-5.392 19.334,-14.268 17.724,-24.953 -0.775,-5.144 -4.125,-9.456 -6.815,-13.911 -4.801,-8.302 -10.623,-22.152 -6.934,-31.542 3.256,-7.431 12.927,-10.093 20.937,-8.634 15.099,2.802 30.441,18.118 46.133,9.898 5.778,-3.247 9.274,-9.704 15.234,-12.607 6.468,-3.149 14.103,-1.383 21.167,-0.095 15.875,2.895 32.271,2.955 48.215,0.287 C 170.429,-23.941 106.673,41.591 24.094,50.492 12.463,38.148 -6.149,17.95 0,0"
             style="fill:#ffe589;fill-opacity:1;fill-rule:nonzero;stroke:none"
             id="path2565" />
        </g>
        <g
           id="g2567"
           transform="translate(276.2026,404.369)">
          <path
             d="m 0,0 c -1.993,0.289 -3.982,0.531 -5.968,0.752 -2.26,-2.25 -4.44,-4.579 -6.537,-6.979 66.019,-20.566 113.556,-77.83 122.285,-144.853 13.314,1.611 26.873,1.278 40.12,-0.939 C 140.373,-75.596 80.402,-11.665 0,0"
             style="fill:#ffd86d;fill-opacity:1;fill-rule:nonzero;stroke:none"
             id="path2569" />
        </g>
        <g
           id="g2571"
           transform="translate(276.2026,404.369)">
          <path
             d="m 0,0 c -1.993,0.289 -3.982,0.531 -5.968,0.752 -2.26,-2.25 -4.44,-4.579 -6.537,-6.979 66.019,-20.566 113.556,-77.83 122.285,-144.853 13.314,1.611 26.873,1.278 40.12,-0.939 C 140.373,-75.596 80.402,-11.665 0,0 Z"
             style="fill:none;stroke:#ffd86d;stroke-width:1;stroke-linecap:butt;stroke-linejoin:miter;stroke-miterlimit:10;stroke-dasharray:none;stroke-opacity:1"
             id="path2573" />
        </g>
        <g
           id="g2575"
           transform="translate(203.8552,103.2345)">
          <path
             d="m 0,0 c 4.837,4.104 9.544,8.67 12.041,14.487 4.61,10.74 0.496,23.716 -7.395,32.441 -7.892,8.725 -18.916,13.955 -29.906,18.221 -7.381,2.865 -15.623,6.033 -19.036,13.138 -5.506,11.462 4.494,27.359 -4.027,36.838 -7.962,8.857 -25.494,3.534 -32.164,13.385 -5.342,7.889 1.026,18.168 1.419,27.642 0.329,19.541 -21.655,30.535 -39.511,29.307 -28.286,-79.695 9.515,-170.673 81.125,-209.196 C -24.022,-17.395 -11.275,-9.666 0,0"
             style="fill:#ffe589;fill-opacity:1;fill-rule:nonzero;stroke:none"
             id="path2577" />
        </g>
        <g
           id="g2579"
           transform="translate(407.9109,150.8868)">
          <path
             d="m 0,0 c -4.729,2.03 -9.756,3.357 -14.881,3.837 -10.697,1.002 -22.645,-1.143 -31.272,5.254 -2.873,2.13 -6.187,4.685 -9.603,7.37 -11.96,9.399 -29.633,2.873 -32.359,-11.976 -6.445,-39.151 -10.759,-55.19 0.989,-84.528 C -49.914,-64.393 -18.842,-36.196 0,0"
             style="fill:#ffe589;fill-opacity:1;fill-rule:nonzero;stroke:none"
             id="path2581" />
        </g>
        <g
           id="g2583"
           transform="translate(393.0303,154.7235)">
          <path
             d="m 0,0 c -7.425,0.696 -15.452,-0.125 -22.553,1.447 -0.889,-1.932 -1.772,-3.769 -2.566,-5.284 -12.696,-24.387 -30.943,-45.143 -52.878,-60.877 1.336,-6.197 3.219,-13.039 5.752,-19.166 37.211,15.651 68.283,43.847 87.126,80.043 C 10.152,-1.807 5.124,-0.48 0,0"
             style="fill:#ffd86d;fill-opacity:1;fill-rule:nonzero;stroke:none"
             id="path2585" />
        </g>
        <g
           id="g2587"
           transform="translate(42.4742,7.5)">
          <path
             d="m 0,0 v 273.221 c -21.204,15.515 -34.974,40.511 -34.974,68.718 v 64.137 c 0.862,23.322 33.871,23.864 34.974,0.456 v 0.146 c 0.874,23.346 33.879,23.843 34.974,0.456 0.555,23.715 34.056,23.623 34.974,0 v 0 c 1.102,23.401 34.107,22.877 34.974,-0.456 0.001,0 0,-52.012 0,-52.012 l 0.001,34.513 h 10.713 c 11.4,0 20.641,-9.225 20.641,-20.605 v -13.212 c 0,-32.614 -12.002,-74.731 -48.416,-82.141 L 87.861,0 Z"
             style="fill:#ffdab3;fill-opacity:1;fill-rule:nonzero;stroke:none"
             id="path2589" />
        </g>
        <g
           id="g2591"
           transform="translate(42.4742,415.0436)">
          <path
             d="m 0,0 v -16.243 c 0.855,-23.126 34.119,-23.128 34.974,10e-4 0,-10e-4 0,16.242 0,16.242 C 34.119,23.126 0.855,23.128 0,0"
             style="fill:#ffc998;fill-opacity:1;fill-rule:nonzero;stroke:none"
             id="path2593" />
        </g>
        <g
           id="g2595"
           transform="translate(112.3761,415.0436)">
          <path
             d="m 0,0 v -16.243 c 0.855,-23.126 34.119,-23.128 34.974,10e-4 0,-10e-4 0,16.242 0,16.242 C 34.119,23.126 0.855,23.128 0,0"
             style="fill:#ffc998;fill-opacity:1;fill-rule:nonzero;stroke:none"
             id="path2597" />
        </g>
        <g
           id="g2599"
           transform="translate(77.4019,415.0436)">
          <path
             d="m 0,0 v -16.243 c 0.855,-23.126 34.119,-23.128 34.974,10e-4 0,-10e-4 0,16.242 0,16.242 C 34.119,23.126 0.855,23.128 0,0"
             style="fill:#ffc998;fill-opacity:1;fill-rule:nonzero;stroke:none"
             id="path2601" />
        </g>
        <g
           id="g2603"
           transform="translate(7.5,415.0436)">
          <path
             d="m 0,0 v -16.243 c 0.855,-23.126 34.119,-23.128 34.974,10e-4 0,-10e-4 0,16.242 0,16.242 C 34.119,23.126 0.855,23.128 0,0"
             style="fill:#ffc998;fill-opacity:1;fill-rule:nonzero;stroke:none"
             id="path2605" />
        </g>
        <g
           id="g2607"
           transform="translate(148.9416,361.7658)">
          <path
             d="m 0,0 h -55.551 c -23.157,0.85 -23.178,34.055 0,34.913 0,0 64.72,0 64.72,0 11.399,0 20.641,-9.225 20.641,-20.605 L 29.81,0"
             style="fill:#ffdab3;fill-opacity:1;fill-rule:nonzero;stroke:none"
             id="path2609" />
        </g>
        <g
           id="g2611"
           transform="translate(129.8632,7.5)">
          <path
             d="m 0,0 v 87.508 c -21.204,15.515 -34.974,40.511 -34.974,68.718 v 64.137 c 0.862,23.322 33.871,23.865 34.974,0.456 v 0.147 c 0.874,23.346 33.879,23.843 34.974,0.456 0.555,23.714 34.056,23.622 34.974,0 1.102,23.4 34.107,22.876 34.974,-0.457 0,0.001 0,-52.012 0,-52.012 v 34.513 h 10.714 c 11.4,0 20.641,-9.225 20.641,-20.605 v -13.212 c 0,-32.613 -12.002,-74.731 -48.416,-82.141 L 87.861,0 Z"
             style="fill:#ffc998;fill-opacity:1;fill-rule:nonzero;stroke:none"
             id="path2613" />
        </g>
        <g
           id="g2615"
           transform="translate(129.8632,229.331)">
          <path
             d="m 0,0 v -16.243 c 0.855,-23.126 34.119,-23.128 34.974,10e-4 0,-10e-4 0,16.242 0,16.242 C 34.119,23.126 0.855,23.128 0,0"
             style="fill:#f9b87f;fill-opacity:1;fill-rule:nonzero;stroke:none"
             id="path2617" />
        </g>
        <g
           id="g2619"
           transform="translate(164.8374,229.331)">
          <path
             d="m 0,0 v -16.243 c 0.855,-23.126 34.119,-23.128 34.974,10e-4 0,-10e-4 0,16.242 0,16.242 C 34.119,23.126 0.855,23.128 0,0"
             style="fill:#f9b87f;fill-opacity:1;fill-rule:nonzero;stroke:none"
             id="path2621" />
        </g>
        <g
           id="g2623"
           transform="translate(94.889,229.331)">
          <path
             d="m 0,0 v -16.243 c 0.855,-23.126 34.119,-23.128 34.974,10e-4 0,-10e-4 0,16.242 0,16.242 C 34.119,23.126 0.855,23.128 0,0"
             style="fill:#f9b87f;fill-opacity:1;fill-rule:nonzero;stroke:none"
             id="path2625" />
        </g>
        <g
           id="g2627"
           transform="translate(199.8115,229.331)">
          <path
             d="m 0,0 v -16.243 c 0.855,-23.126 34.119,-23.128 34.974,10e-4 0,-10e-4 0,16.242 0,16.242 C 34.119,23.126 0.855,23.128 0,0"
             style="fill:#f9b87f;fill-opacity:1;fill-rule:nonzero;stroke:none"
             id="path2629" />
        </g>
        <g
           id="g2631"
           transform="translate(94.889,229.331)">
          <path
             d="m 0,0 v -16.243 c 0.855,-23.126 34.119,-23.128 34.974,10e-4 0,-10e-4 0,16.242 0,16.242 C 34.119,23.126 0.855,23.128 0,0"
             style="fill:#f9b87f;fill-opacity:1;fill-rule:nonzero;stroke:none"
             id="path2633" />
        </g>
        <g
           id="g2635"
           transform="translate(236.3306,176.0532)">
          <path
             d="m 0,0 h -55.551 c -23.158,0.85 -23.178,34.055 0,34.913 0,0 64.72,0 64.72,0 11.399,0 20.641,-9.225 20.641,-20.605 L 29.81,0"
             style="fill:#ffc998;fill-opacity:1;fill-rule:nonzero;stroke:none"
             id="path2637" />
        </g>
        <g
           id="g2639"
           transform="translate(504.5,402.618)">
          <path
             d="m 0,0 c 0,-56.268 -45.614,-101.882 -101.882,-101.882 -134.999,4.995 -134.962,198.79 0.001,203.764 C -45.614,101.882 0,56.268 0,0"
             style="fill:#fbf9f9;fill-opacity:1;fill-rule:nonzero;stroke:none"
             id="path2641" />
        </g>
        <g
           id="g2643"
           transform="translate(402.6182,504.5)">
          <path
             d="m 0,0 c -6.845,0 -13.533,-0.675 -20,-1.963 108.525,-23.178 108.45,-176.702 0,-199.838 62.017,-13.003 122.616,36.391 121.881,99.92 C 101.882,-45.614 56.268,0 0,0"
             style="fill:#f6eeeb;fill-opacity:1;fill-rule:nonzero;stroke:none"
             id="path2645" />
        </g>
        <g
           id="g2647"
           transform="translate(42.4746,92.5)">
          <path
             d="M 0,0 C -4.143,0 -7.5,-3.358 -7.5,-7.5 V -85 c 0.307,-9.916 14.696,-9.909 15,0 V -7.5 C 7.5,-3.358 4.143,0 0,0"
             style="fill:#000000;fill-opacity:1;fill-rule:nonzero;stroke:none"
             id="path2649" />
        </g>
        <g
           id="g2651"
           transform="translate(179.6829,442.1578)">
          <path
             d="M 0,0 C -9.915,-0.306 -9.912,-14.697 0,-15.001 9.915,-14.695 9.912,-0.305 0,0"
             style="fill:#000000;fill-opacity:1;fill-rule:nonzero;stroke:none"
             id="path2653" />
        </g>
        <g
           id="g2655"
           transform="translate(210.3799,450.4827)">
          <path
             d="M 0,0 C -9.915,-0.306 -9.912,-14.697 0,-15.001 9.915,-14.695 9.912,-0.305 0,0"
             style="fill:#000000;fill-opacity:1;fill-rule:nonzero;stroke:none"
             id="path2657" />
        </g>
        <g
           id="g2659"
           transform="translate(241.9507,453.9092)">
          <path
             d="M 0,0 C -9.915,-0.306 -9.912,-14.697 0,-15.001 9.914,-14.695 9.912,-0.305 0,0"
             style="fill:#000000;fill-opacity:1;fill-rule:nonzero;stroke:none"
             id="path2661" />
        </g>
        <g
           id="g2663"
           transform="translate(273.7009,452.8084)">
          <path
             d="M 0,0 C -9.915,-0.306 -9.912,-14.697 0,-15.001 9.915,-14.695 9.912,-0.305 0,0"
             style="fill:#000000;fill-opacity:1;fill-rule:nonzero;stroke:none"
             id="path2665" />
        </g>
        <g
           id="g2667"
           transform="translate(460.6213,275.1407)">
          <path
             d="M 0,0 C 9.915,0.306 9.912,14.697 0,15.001 -9.915,14.695 -9.912,0.305 0,0"
             style="fill:#000000;fill-opacity:1;fill-rule:nonzero;stroke:none"
             id="path2669" />
        </g>
        <g
           id="g2671"
           transform="translate(458.6292,251.3484)">
          <path
             d="M 0,0 C 0.306,-9.915 14.697,-9.912 15.001,0 14.695,9.915 0.305,9.912 0,0"
             style="fill:#000000;fill-opacity:1;fill-rule:nonzero;stroke:none"
             id="path2673" />
        </g>
        <g
           id="g2675"
           transform="translate(466.9297,227.0908)">
          <path
             d="M 0,0 C -9.915,-0.306 -9.912,-14.697 0,-15.001 9.915,-14.695 9.912,-0.305 0,0"
             style="fill:#000000;fill-opacity:1;fill-rule:nonzero;stroke:none"
             id="path2677" />
        </g>
        <g
           id="g2679"
           transform="translate(462.958,195.5724)">
          <path
             d="M 0,0 C -9.915,-0.306 -9.912,-14.697 0,-15.001 9.915,-14.695 9.912,-0.305 0,0"
             style="fill:#000000;fill-opacity:1;fill-rule:nonzero;stroke:none"
             id="path2681" />
        </g>
        <g
           id="g2683"
           transform="translate(454.332,164.9937)">
          <path
             d="M 0,0 C -9.915,-0.306 -9.912,-14.697 0,-15.001 9.915,-14.695 9.912,-0.305 0,0"
             style="fill:#000000;fill-opacity:1;fill-rule:nonzero;stroke:none"
             id="path2685" />
        </g>
        <g
           id="g2687"
           transform="translate(441.3025,136.0137)">
          <path
             d="M 0,0 C -9.915,-0.306 -9.912,-14.697 0,-15.001 9.915,-14.695 9.912,-0.305 0,0"
             style="fill:#000000;fill-opacity:1;fill-rule:nonzero;stroke:none"
             id="path2689" />
        </g>
        <g
           id="g2691"
           transform="translate(424.1245,109.2905)">
          <path
             d="M 0,0 C -9.914,-0.306 -9.912,-14.697 0,-15.001 9.915,-14.695 9.913,-0.305 0,0"
             style="fill:#000000;fill-opacity:1;fill-rule:nonzero;stroke:none"
             id="path2693" />
        </g>
        <g
           id="g2695"
           transform="translate(403.1582,85.4225)">
          <path
             d="M 0,0 C -9.915,-0.306 -9.913,-14.697 0,-15.001 9.914,-14.695 9.912,-0.305 0,0"
             style="fill:#000000;fill-opacity:1;fill-rule:nonzero;stroke:none"
             id="path2697" />
        </g>
        <g
           id="g2699"
           transform="translate(378.8765,64.9399)">
          <path
             d="M 0,0 C -9.915,-0.306 -9.913,-14.697 0,-15.001 9.914,-14.695 9.912,-0.305 0,0"
             style="fill:#000000;fill-opacity:1;fill-rule:nonzero;stroke:none"
             id="path2701" />
        </g>
        <g
           id="g2703"
           transform="translate(351.824,48.2948)">
          <path
             d="M 0,0 C -9.915,-0.306 -9.912,-14.697 0,-15.001 9.915,-14.695 9.912,-0.305 0,0"
             style="fill:#000000;fill-opacity:1;fill-rule:nonzero;stroke:none"
             id="path2705" />
        </g>
        <g
           id="g2707"
           transform="translate(322.5925,35.8431)">
          <path
             d="M 0,0 C -9.915,-0.306 -9.912,-14.697 0,-15.001 9.915,-14.695 9.912,-0.305 0,0"
             style="fill:#000000;fill-opacity:1;fill-rule:nonzero;stroke:none"
             id="path2709" />
        </g>
        <g
           id="g2711"
           transform="translate(291.8494,27.8318)">
          <path
             d="M 0,0 C -9.915,-0.306 -9.912,-14.697 0,-15.001 9.915,-14.695 9.912,-0.305 0,0"
             style="fill:#000000;fill-opacity:1;fill-rule:nonzero;stroke:none"
             id="path2713" />
        </g>
        <g
           id="g2715"
           transform="translate(260.2646,24.4233)">
          <path
             d="M 0,0 C -9.915,-0.306 -9.912,-14.697 0,-15.001 9.915,-14.695 9.912,-0.305 0,0"
             style="fill:#000000;fill-opacity:1;fill-rule:nonzero;stroke:none"
             id="path2717" />
        </g>
        <g
           id="g2719"
           transform="translate(417.1587,261.0972)">
          <path
             d="m 0,0 c -14.002,1.373 -28.402,0.821 -42.208,-1.95 -9.076,-1.693 -14.175,-2.072 -20.883,4.765 -13.937,14.204 -29.382,11.742 -46.272,3.613 -5.583,-2.688 -22.244,-10.754 -26.51,-1.013 -3.411,7.779 3.993,20.777 8.017,27.101 13.406,21.058 1.066,37.803 -18.342,48.6 -7.913,4.403 -15.387,8.561 -17.79,15.027 -4.633,11.343 10.815,30.472 19.849,39.998 6.922,-0.917 13.865,-2.271 20.618,-4.023 C -118.587,74.429 -67.211,29.589 -9.435,32.257 -5.189,21.81 -2.037,11.003 0,0 m 1.116,-53.603 c -2.361,-16.625 -7.132,-32.526 -14.082,-47.313 -6.554,1.916 -13.053,2.298 -19.881,2.395 -7.059,0.099 -13.726,0.192 -18.087,3.426 -11.171,8.284 -21.617,17.048 -36.507,11.413 -9.084,-3.436 -15.551,-11.17 -17.299,-20.689 -1.994,-10.864 -8.342,-47.307 -6.261,-60.121 0.779,-4.799 2.366,-13.094 5.099,-21.525 -26.145,-9.725 -54.519,-12.79 -83.012,-8.656 -1.004,0.146 -2.013,0.301 -3.02,0.466 v 22.324 c 15.897,5.039 28.646,16.732 37.108,34.133 7.116,14.635 11.111,33.182 11.3,52.373 0.005,0.11 0.008,0.221 0.008,0.333 v 14.308 c 0,17 -15.07,28.909 -31.355,28.105 v 9.999 c 0,13.652 -11.689,25.619 -25.461,25.361 -6.525,-0.121 -12.462,-2.787 -16.859,-7.029 -0.109,0.111 -0.221,0.222 -0.332,0.332 -4.827,4.737 -11.14,7.283 -17.783,7.154 -6.592,-0.123 -12.584,-2.843 -16.994,-7.161 -6.548,6.773 -18.144,9.182 -27.021,5.285 v 22.52 c 35.672,11.308 48.076,52.932 48.407,86.505 -0.093,7.839 0.958,16.355 -1.543,23.848 22.04,9.409 45.71,13.944 69.667,13.404 -2.544,-3.162 -4.942,-6.417 -7.179,-9.751 -9.308,-13.868 -12.025,-26.288 -8.077,-36.916 4.33,-11.659 15.077,-17.637 24.558,-22.912 11.589,-6.441 21.461,-14.114 12.981,-27.436 -6.905,-10.849 -14.817,-28.139 -9.102,-41.178 8.433,-19.252 32.261,-13.461 46.755,-6.481 10.537,5.071 19.94,8.691 29.058,-0.603 10.108,-10.303 20.505,-11.582 34.336,-9.007 13.706,2.558 27.715,3.101 41.565,1.371 1.141,-12.687 0.823,-25.527 -0.987,-38.277 m -93.163,-126.491 c -2.177,7.027 -3.485,13.919 -4.148,18.006 -1.075,6.623 1.478,29.243 6.209,55.008 0.802,4.37 3.664,7.784 7.851,9.368 8.825,3.336 15.91,-4.718 22.267,-9.432 8.247,-6.116 18.11,-6.254 26.811,-6.376 4.321,0.14 8.596,-0.201 12.825,-1.023 -16.782,-28.355 -41.855,-51.249 -71.815,-65.551 m -97.826,137.463 h -19.974 v 9.853 c 0,0.101 -0.003,0.201 -0.007,0.301 -0.142,5.469 4.28,10.114 9.799,10.209 5.611,0.101 10.182,-5.101 10.182,-10.364 z m -54.949,-1.467 v 12.379 c 0,5.362 4.394,9.806 9.793,9.907 5.811,0.138 10.182,-5.644 10.182,-10.966 v -9.853 c -5.408,-0.149 -14.991,0.691 -19.975,-1.467 m -24.986,-13.867 c -5.507,0 -9.987,4.466 -9.987,9.956 v 16.243 c 0.758,4.993 4.417,9.595 10.181,9.498 5.4,-0.101 9.792,-4.545 9.792,-9.907 v -15.834 c 0,-5.49 -4.479,-9.956 -9.986,-9.956 m -34.975,0 c -5.507,0 -9.987,4.466 -9.987,9.956 v 14.775 c 0,5.266 4.571,10.46 10.182,10.364 5.399,-0.101 9.793,-4.546 9.793,-9.908 v -15.231 c 0,-5.49 -4.481,-9.956 -9.988,-9.956 m -27.427,199.58 v 12.379 c 0,5.362 4.393,9.806 9.793,9.907 5.816,0.094 10.181,-5.617 10.181,-10.966 v -9.853 c -5.408,-0.149 -14.99,0.691 -19.974,-1.467 m -24.988,-13.867 c -5.507,0 -9.986,4.466 -9.986,9.956 v 15.377 c 0,5.27 4.57,10.454 10.182,10.364 5.399,-0.101 9.792,-4.546 9.792,-9.908 v -15.833 c 0,-5.49 -4.481,-9.956 -9.988,-9.956 m -34.973,0 c -5.507,0 -9.988,4.466 -9.988,9.956 v 14.775 c 0,5.255 4.57,10.474 10.181,10.364 5.4,-0.101 9.794,-4.546 9.794,-9.908 v -15.231 c 0,-5.49 -4.481,-9.956 -9.987,-9.956 m 104.727,35.697 c 5.611,0.095 10.182,-5.098 10.182,-10.364 v -9.999 h -19.974 v 9.853 c 0,5.326 4.207,10.405 9.792,10.51 m 353.877,51.614 c -2.786,3.065 -7.529,3.291 -10.595,0.506 -3.065,-2.785 -3.292,-7.528 -0.506,-10.594 54.925,-59.496 11.185,-158.407 -69.874,-157.832 -52.041,0 -94.38,42.34 -94.38,94.382 -1.094,67.898 73.605,115.277 134.503,85.449 3.75,-1.763 8.215,-0.154 9.979,3.594 1.763,3.748 0.153,8.216 -3.595,9.979 -68.379,33.581 -152.864,-17.3 -155.718,-92.916 -39.281,9.336 -80.945,5.533 -117.482,-10.909 -5.873,4.809 -13.544,6.715 -21.027,6.364 v 9.999 c 0,13.656 -11.689,25.613 -25.461,25.361 -6.525,-0.122 -12.462,-2.788 -16.859,-7.03 -4.766,4.83 -11.306,7.616 -18.115,7.486 -6.591,-0.122 -12.584,-2.843 -16.994,-7.161 -9.21,9.466 -25.775,9.474 -34.993,0.019 -15.478,15.367 -42.526,4.249 -42.475,-17.81 0,0 0,-65.604 0,-65.604 0,-28.102 13.006,-54.891 34.975,-72.424 v -152.73 c 0,-4.142 3.357,-7.5 7.5,-7.5 4.142,0 7.5,3.358 7.5,7.5 V 19.624 c 0,2.392 -1.141,4.64 -3.071,6.052 -19.977,14.617 -31.904,38.044 -31.904,62.666 v 26.486 c 8.929,-4.152 20.81,-1.825 27.475,5.066 6.363,-6.544 17.461,-9.051 26.219,-5.574 1.839,-11.962 12.214,-21.152 24.697,-21.152 h 13.104 c -13.698,-11.603 -22.406,-28.91 -22.406,-48.21 0,-4.142 3.358,-7.5 7.5,-7.5 4.143,0 7.5,3.358 7.5,7.5 0,26.948 23.073,48.886 49.853,48.21 4.142,0 7.5,3.358 7.5,7.5 0,4.143 -3.358,7.5 -7.5,7.5 h -55.551 c -5.507,0 -9.987,4.467 -9.987,9.957 0,5.361 4.494,9.957 9.987,9.957 h 64.72 c 7.126,0 13.14,-6.051 13.14,-13.105 v -13.212 c 0,-30.521 -11.107,-68.422 -42.41,-74.792 -3.494,-0.711 -6.005,-3.784 -6.005,-7.349 V -9.103 c -15.91,7.759 -35.867,-4.839 -35.447,-22.664 0,0.001 0,-65.604 0,-65.604 0,-28.101 13.006,-54.891 34.975,-72.423 v -83.803 c 0.298,-9.895 14.69,-9.928 15,0 v 87.508 c 0,2.391 -1.141,4.64 -3.072,6.052 -19.976,14.618 -31.903,38.044 -31.903,62.666 v 26.486 c 8.929,-4.151 20.81,-1.825 27.475,5.067 6.362,-6.545 17.461,-9.052 26.218,-5.575 1.84,-11.961 12.214,-21.151 24.698,-21.151 h 13.104 c -13.698,-11.604 -22.406,-28.911 -22.406,-48.21 0,-4.142 3.357,-7.5 7.5,-7.5 4.142,0 7.5,3.358 7.5,7.5 0,26.949 23.073,48.885 49.853,48.21 4.143,0 7.5,3.358 7.5,7.5 0,4.142 -3.357,7.5 -7.5,7.5 h -55.551 c -5.507,0 -9.988,4.466 -9.988,9.957 0,5.36 4.495,9.956 9.988,9.956 h 64.719 c 7.246,0 13.142,-5.879 13.142,-13.105 v -13.212 c 0,-30.52 -11.107,-68.421 -42.412,-74.792 -3.493,-0.711 -6.004,-3.784 -6.004,-7.349 v -87.508 c 0.298,-9.897 14.692,-9.927 15,0 v 44.208 c 0.289,-0.043 0.578,-0.087 0.867,-0.129 9.004,-1.306 17.991,-1.952 26.918,-1.951 87.729,-1.494 169.398,68.21 180.116,155.758 2.253,15.868 2.386,31.866 0.452,47.596 -0.017,0.201 -0.042,0.401 -0.075,0.598 -1.791,14.18 -5.263,28.138 -10.375,41.584 82.174,14.52 118.253,118.926 60.464,180.992"
             style="fill:#000000;fill-opacity:1;fill-rule:nonzero;stroke:none"
             id="path2721" />
        </g>
        <g
           id="g2723"
           transform="translate(399.1426,452.6382)">
          <path
             d="M 0,0 C 6.284,-0.166 6.282,-9.491 0,-9.656 -6.285,-9.49 -6.284,-0.165 0,0 m 23.002,-65.564 4.32,-8.303 c -0.782,-14.565 -12.803,-26.174 -27.467,-26.174 -32.104,0.722 -37.736,45.29 -7.355,54.361 v -12.384 c 0,-4.143 3.357,-7.5 7.5,-7.5 z m -65.653,-6.794 c 0.341,-44.246 58.875,-58.695 79.818,-20.433 l 0.967,-1.858 c 1.817,-3.495 6.64,-4.999 10.115,-3.192 3.674,1.911 5.104,6.44 3.191,10.114 l -17.232,33.124 c -1.291,2.482 -3.855,4.039 -6.653,4.039 H 7.5 v 5.889 h 20.055 c 4.142,0 7.5,3.358 7.5,7.5 0,4.142 -3.358,7.5 -7.5,7.5 H 7.5 v 6.502 C 27.236,-14.774 21.745,14.635 0,15 -21.75,14.634 -27.235,-14.779 -7.5,-23.174 v -7.141 c -19.945,-3.508 -35.151,-21.026 -35.151,-42.043"
             style="fill:#000000;fill-opacity:1;fill-rule:nonzero;stroke:none"
             id="path2725" />
        </g>
      </g>
    </g>
  </g>
</svg>
