<svg id="Layer_1" enable-background="new 0 0 256 256" height="512" viewBox="0 0 256 256" width="512" xmlns="http://www.w3.org/2000/svg"><g><path d="m199.958 95.696h-25.46c-3.434 0-6.217-2.784-6.217-6.217v-13.019c0-3.434 2.784-6.217 6.217-6.217h25.46c3.434 0 6.217 2.784 6.217 6.217v13.018c.001 3.434-2.783 6.218-6.217 6.218z" fill="#63bce7"/><g><path d="m199.958 70.243h-14.667c3.434 0 6.217 2.784 6.217 6.217v13.018c0 3.434-2.783 6.217-6.217 6.217h14.667c3.434 0 6.217-2.784 6.217-6.217v-13.018c.001-3.433-2.783-6.217-6.217-6.217z" fill="#63e2e7"/></g><g><path d="m175.974 219.481h-160.21l.45 3.592c.885 7.063 6.89 12.362 14.008 12.362h131.293c7.118 0 13.123-5.299 14.008-12.362z" fill="#cecece"/><g><path d="m30.881 223.073-.45-3.592h-14.667l.45 3.592c.885 7.063 6.89 12.362 14.008 12.362h14.667c-7.118 0-13.123-5.299-14.008-12.362z" fill="#afafaf"/></g><path d="m156.269 219.481h-120.801v-36.461c0-27.454 22.256-49.71 49.71-49.71h21.381c27.454 0 49.71 22.256 49.71 49.71z" fill="#cecece"/><g><path d="m106.559 133.31h-14.667c27.454 0 49.71 22.256 49.71 49.71v36.461h14.667v-36.461c0-27.454-22.256-49.71-49.71-49.71z" fill="#e2e2e2"/></g><path d="m95.869 144.475c-6.837 0-12.379-5.542-12.379-12.379v-16.254c0-6.837 5.542-12.379 12.379-12.379 6.837 0 12.379 5.542 12.379 12.379v16.254c0 6.837-5.543 12.379-12.379 12.379z" fill="#f8af23"/><path d="m83.49 115.842v16.254c0 5.444 3.519 10.057 8.403 11.714v-39.683c-4.884 1.659-8.403 6.271-8.403 11.715z" fill="#f87023"/><g><circle cx="54.408" cy="69.959" fill="#f87023" r="8.337"/><circle cx="137.329" cy="69.959" fill="#f8af23" r="8.337"/></g><path d="m95.869 120.374c-22.898 0-41.461-18.563-41.461-41.461v-15.287c0-22.898 18.563-41.461 41.461-41.461 22.898 0 41.461 18.563 41.461 41.461v15.287c-.001 22.898-18.563 41.461-41.461 41.461z" fill="#f8af23"/><g><path d="m69.075 78.913v-15.287c0-20.394 14.729-37.337 34.127-40.801-2.382-.425-4.829-.66-7.333-.66-22.898 0-41.461 18.563-41.461 41.461v15.287c0 22.898 18.563 41.461 41.461 41.461 2.504 0 4.952-.234 7.333-.66-19.398-3.464-34.127-20.407-34.127-40.801z" fill="#f87023"/></g><g fill="#3f3679"><circle cx="79.569" cy="85.016" r="4.015"/><circle cx="112.541" cy="85.016" r="4.015"/></g><g><path d="m141.602 187.572h14.667v31.909h-14.667z" fill="#f8d323"/></g><path d="m54.408 69.959h5.235l6.316-18.472s24.004 17.113 71.37 10.135v-10.57c0-22.898-18.563-41.461-41.461-41.461-22.898 0-41.461 18.563-41.461 41.461v18.907z" fill="#707070"/><g><path d="m103.202 10.251c-2.382-.425-4.829-.66-7.333-.66-22.898 0-41.461 18.563-41.461 41.461v18.907h5.235l6.316-18.472s1.051.744 3.116 1.851v-2.285c0-20.395 14.729-37.338 34.127-40.802z" fill="#5b5b5b"/></g><path d="m83.49 127.381 12.379 17.094-15.489 7.643-3.579-21.579z" fill="#707070"/><path d="m108.248 127.381-12.379 17.094 15.488 7.643 3.579-21.579z" fill="#707070"/><path d="m157.84 141.447h-123.943c-6.149 0-11.134 4.985-11.134 11.134v66.9h146.21v-66.9c.001-6.149-4.984-11.134-11.133-11.134z" fill="#cecece"/><g><path d="m48.564 141.447h-14.667c-6.149 0-11.134 4.985-11.134 11.134v66.9h14.667v-66.9c0-6.149 4.985-11.134 11.134-11.134z" fill="#afafaf"/></g><circle cx="95.869" cy="180.464" fill="#63bce7" r="8.829"/></g><circle cx="187.228" cy="140.082" fill="#f8af23" r="53.008"/><path d="m187.228 87.074c-2.49 0-4.935.185-7.333.517 25.803 3.573 45.675 25.705 45.675 52.491s-19.872 48.918-45.675 52.491c2.398.332 4.844.517 7.333.517 29.276 0 53.008-23.732 53.008-53.008s-23.732-53.008-53.008-53.008z" fill="#f8d323"/><g fill="#3f3679"><path d="m95.869 96.328c.828 0 1.5-.672 1.5-1.5v-6.722c0-.828-.672-1.5-1.5-1.5s-1.5.672-1.5 1.5v6.722c0 .828.672 1.5 1.5 1.5z"/><path d="m103.145 106.356c.546-.623.484-1.57-.139-2.117-.625-.545-1.57-.483-2.117.139-1.273 1.451-3.103 2.284-5.02 2.284s-3.747-.833-5.021-2.284c-.546-.622-1.493-.684-2.117-.139-.623.547-.685 1.494-.139 2.117 1.843 2.101 4.495 3.306 7.276 3.306s5.434-1.205 7.277-3.306z"/><path d="m84.668 73.444h-10.57c-.828 0-1.5.672-1.5 1.5s.672 1.5 1.5 1.5h10.57c.828 0 1.5-.672 1.5-1.5s-.672-1.5-1.5-1.5z"/><path d="m107.069 76.444h10.57c.828 0 1.5-.672 1.5-1.5s-.672-1.5-1.5-1.5h-10.57c-.828 0-1.5.672-1.5 1.5s.672 1.5 1.5 1.5z"/><path d="m95.869 170.135c-5.696 0-10.33 4.634-10.33 10.329 0 5.696 4.634 10.33 10.33 10.33 5.695 0 10.329-4.634 10.329-10.33 0-5.695-4.634-10.329-10.329-10.329zm0 17.659c-4.042 0-7.33-3.288-7.33-7.33 0-4.041 3.288-7.329 7.33-7.329 4.041 0 7.329 3.288 7.329 7.329 0 4.042-3.288 7.33-7.329 7.33z"/><path d="m216.966 168.569c.285.255.642.38.996.38.413 0 .825-.17 1.121-.503.551-.618.496-1.566-.123-2.117l-30.231-26.92v-32.645c0-.828-.672-1.5-1.5-1.5s-1.5.672-1.5 1.5v33.317c0 .428.183.836.503 1.12z"/><path d="m27.323 244.908h-18.003c-.828 0-1.5.672-1.5 1.5s.672 1.5 1.5 1.5h18.003c.828 0 1.5-.672 1.5-1.5s-.672-1.5-1.5-1.5z"/><path d="m246.68 244.908h-18.003c-.828 0-1.5.672-1.5 1.5s.672 1.5 1.5 1.5h18.003c.828 0 1.5-.672 1.5-1.5s-.672-1.5-1.5-1.5z"/><path d="m218.479 244.908h-180.958c-.828 0-1.5.672-1.5 1.5s.672 1.5 1.5 1.5h180.959c.828 0 1.5-.672 1.5-1.5s-.672-1.5-1.501-1.5z"/><path d="m246.68 236.936c.828 0 1.5-.672 1.5-1.5s-.672-1.5-1.5-1.5h-75.98c3.382-2.466 5.759-6.262 6.312-10.676l.45-3.592c.054-.427-.079-.856-.363-1.179-.285-.323-.694-.508-1.125-.508h-5.5v-26.038c5.282 1.711 10.91 2.646 16.755 2.646 30.056 0 54.508-24.452 54.508-54.508 0-22.826-14.11-42.408-34.061-50.514v-13.106c0-4.256-3.462-7.718-7.718-7.718h-25.46c-4.255 0-7.717 3.462-7.717 7.718v13.107c-19.64 7.979-33.603 27.084-34.034 49.454-5.163-3.082-10.752-5.2-16.651-6.31l.32-1.928c.11-.661-.232-1.315-.839-1.602l-5.829-2.752v-6.87c16.668-5.708 28.738-21.387 29.062-39.889 4.722-.718 8.356-4.793 8.356-9.713 0-4.914-3.624-8.985-8.337-9.711v-9.196c0-23.688-19.271-42.96-42.96-42.96s-42.961 19.271-42.961 42.96v9.196c-4.713.726-8.337 4.797-8.337 9.711 0 4.919 3.634 8.995 8.356 9.713.323 18.501 12.394 34.18 29.062 39.888v6.87l-5.829 2.752c-.606.286-.949.94-.839 1.602l.32 1.928c-6.487 1.221-12.596 3.645-18.166 7.235h-23.578c-6.966 0-12.634 5.668-12.634 12.634v65.4h-5.5c-.431 0-.84.185-1.125.508-.284.322-.417.752-.363 1.179l.45 3.592c.553 4.414 2.93 8.21 6.312 10.676h-11.717c-.828 0-1.5.672-1.5 1.5s.672 1.5 1.5 1.5h20.902 131.292 85.166zm-76.899-160.475c0-2.602 2.116-4.718 4.717-4.718h25.46c2.602 0 4.718 2.116 4.718 4.718v11.994c-5.482-1.858-11.346-2.881-17.447-2.881s-11.965 1.023-17.447 2.881v-11.994zm17.448 12.113c28.401 0 51.508 23.106 51.508 51.508s-23.106 51.508-51.508 51.508-51.508-23.106-51.508-51.508 23.106-51.508 51.508-51.508zm-58.998 51.373h-13.335l.709-4.274c4.41.835 8.639 2.261 12.626 4.274zm-16.375 0h-10.856l7.733-10.679 4.538 2.143zm32.31-69.988c0 3.254-2.287 5.979-5.337 6.666v-12.999c0-.112-.005-.223-.006-.335 3.053.684 5.343 3.411 5.343 6.668zm-88.258-18.907c0-22.034 17.927-39.96 39.961-39.96s39.96 17.926 39.96 39.96v9.269c-45.286 6.309-68.767-9.89-68.999-10.056-.387-.276-.879-.354-1.33-.206-.451.145-.807.494-.96.942l-5.969 17.458h-2.663zm-8.337 18.907c0-3.254 2.287-5.98 5.337-6.667v13.333c-3.049-.687-5.337-3.412-5.337-6.666zm8.337 8.954v-7.454h3.735c.642 0 1.212-.408 1.419-1.015l5.699-16.668c6.175 3.671 29.137 15.025 69.062 9.563.001.096.005.19.005.286v15.287c0 22.034-17.926 39.961-39.96 39.961s-39.96-17.926-39.96-39.96zm39.961 42.961c3.758 0 7.403-.488 10.879-1.399v6.419l-9.452 13.053h-2.855l-9.452-13.053v-6.42c3.477.912 7.122 1.4 10.88 1.4zm-12.865 7.395 7.734 10.679h-10.856l-1.416-8.536zm-6.872 6.402.709 4.276h-13.333c3.984-2.011 8.211-3.439 12.624-4.276zm-51.868 16.91c0-5.313 4.321-9.634 9.634-9.634h98.899c1.137 21.85 15.207 40.322 34.677 47.922v27.112h-143.21zm5.959 81.355c-6.348 0-11.73-4.75-12.521-11.049l-.238-1.905h5.3 146.21 5.3l-.238 1.905c-.79 6.299-6.173 11.049-12.521 11.049z"/></g></g></svg>