<?xml version="1.0" encoding="UTF-8" standalone="no"?>
<!-- Created with Inkscape (http://www.inkscape.org/) -->

<svg
   version="1.1"
   id="svg5919"
   xml:space="preserve"
   width="682.66669"
   height="682.66669"
   viewBox="0 0 682.66669 682.66669"
   xmlns="http://www.w3.org/2000/svg"
   xmlns:svg="http://www.w3.org/2000/svg"><defs
     id="defs5923"><clipPath
       clipPathUnits="userSpaceOnUse"
       id="clipPath5933"><path
         d="M 0,512 H 512 V 0 H 0 Z"
         id="path5931" /></clipPath></defs><g
     id="g5925"
     transform="matrix(1.3333333,0,0,-1.3333333,0,682.66667)"><g
       id="g5927"><g
         id="g5929"
         clip-path="url(#clipPath5933)"><g
           id="g5935"
           transform="translate(414.5,349.4337)"><path
             d="m 0,0 c 16.57,0 30,-13.43 30,-30 v -120 h -60 v 120 c 0,16.57 13.43,30 30,30"
             style="fill:#ff876c;fill-opacity:1;fill-rule:nonzero;stroke:none"
             id="path5937" /></g><g
           id="g5939"
           transform="translate(444.5,414.4337)"><path
             d="M 0,0 C -16.57,0 -30,-13.43 -30,-30 V -150 H 30 V -30 C 30,-13.43 16.57,0 0,0"
             style="fill:#ff9e90;fill-opacity:1;fill-rule:nonzero;stroke:none"
             id="path5941" /></g><g
           id="g5943"
           transform="translate(474.4999,444.4337)"><path
             d="M 0,0 C -4.51,0 -8.79,-1 -12.63,-2.79 L -25.78,-253.72 -80,-382 21.885,-238.615 C 26.664,-231.89 30,-219.25 30,-211 V -30 C 30,-13.43 16.57,0 0,0"
             style="fill:#ff9e90;fill-opacity:1;fill-rule:nonzero;stroke:none"
             id="path5945" /></g><g
           id="g5947"
           transform="translate(474.4999,414.4337)"><path
             d="m 0,0 v -196 c 0,-8.25 -2.6,-20.72 -5.78,-27.72 L -80,-352 v -55 h -123.411 v 30 L -171,-263.43 -30,-150 V 0 c 0,12.06 7.11,22.45 17.37,27.21 C -5.17,22.45 0,12.05 0,0"
             style="fill:#ffb4b3;fill-opacity:1;fill-rule:nonzero;stroke:none"
             id="path5949" /></g><g
           id="g5951"
           transform="translate(393.2932,285.6469)"><path
             d="m 0,0 c 11.71,11.72 30.71,11.72 42.42,0 5.86,-5.85 8.79,-13.53 8.79,-21.21 0,-7.68 -2.93,-15.36 -8.79,-21.21 L -62.205,-147.055 v -41.158 c 0,-33 -27,-60 -60,-60 v 101.088 c 0,16.57 6.68,31.6 17.53,42.46 z"
             style="fill:#ffcad6;fill-opacity:1;fill-rule:nonzero;stroke:none"
             id="path5953" /></g><g
           id="g5955"
           transform="translate(97.5,349.4337)"><path
             d="M 0,0 C -16.57,0 -30,-13.43 -30,-30 V -150 H 30 V -30 C 30,-13.43 16.57,0 0,0"
             style="fill:#ff876c;fill-opacity:1;fill-rule:nonzero;stroke:none"
             id="path5957" /></g><g
           id="g5959"
           transform="translate(127.5,276.8601)"><path
             d="m 0,0 v 42.574 c 0,16.568 -13.431,30 -30,30"
             style="fill:none;stroke:#000000;stroke-width:15;stroke-linecap:round;stroke-linejoin:round;stroke-miterlimit:10;stroke-dasharray:none;stroke-opacity:1"
             id="path5961" /></g><g
           id="g5963"
           transform="translate(384.5,276.8601)"><path
             d="m 0,0 v 42.574 c 0,16.568 13.431,30 30,30"
             style="fill:none;stroke:#000000;stroke-width:15;stroke-linecap:round;stroke-linejoin:round;stroke-miterlimit:10;stroke-dasharray:none;stroke-opacity:1"
             id="path5965" /></g><g
           id="g5967"
           transform="translate(67.5,414.4337)"><path
             d="M 0,0 C -16.57,0 -30,-13.43 -30,-30 V -150 H 30 V -30 C 30,-13.43 16.57,0 0,0"
             style="fill:#ff9e90;fill-opacity:1;fill-rule:nonzero;stroke:none"
             id="path5969" /></g><g
           id="g5971"
           transform="translate(97.5,294.3669)"><path
             d="m 0,0 v 90.067 c 0,16.568 -13.431,30 -30,30"
             style="fill:none;stroke:#000000;stroke-width:15;stroke-linecap:round;stroke-linejoin:round;stroke-miterlimit:10;stroke-dasharray:none;stroke-opacity:1"
             id="path5973" /></g><g
           id="g5975"
           transform="translate(240.9116,37.4337)"><path
             d="M 0,0 V -30 H -30 L -90,90.268 Z"
             style="fill:#ff9e90;fill-opacity:1;fill-rule:nonzero;stroke:none"
             id="path5977" /></g><g
           id="g5979"
           transform="translate(223.3816,180.9821)"><path
             d="m 0,0 -104.668,104.665 c -6.37,6.38 -14.9,9.28 -23.24,8.72 L -12.47,-135.458 c 8.84,-5.14 19.09,-8.09 30,-8.09 V -42.46 C 17.53,-25.89 10.85,-10.86 0,0"
             style="fill:#ffb4b3;fill-opacity:1;fill-rule:nonzero;stroke:none"
             id="path5981" /></g><g
           id="g5983"
           transform="translate(203.5,145.9337)"><path
             d="m 0,0 -136,118.5 v 150 c 0,16.57 -13.43,30 -30,30 -16.57,0 -30,-13.43 -30,-30 v -181 c 0,-8.25 3.336,-20.89 8.115,-27.615 L -86,-83.5 v -55 H 7.412 v 38.09 z"
             style="fill:#ffb4b3;fill-opacity:1;fill-rule:nonzero;stroke:none"
             id="path5985" /></g><g
           id="g5987"
           transform="translate(210.9116,138.5221)"><path
             d="m 0,0 v -92.998 c -17.9,10.41 -30,29.82 -30,51.91 V 0.07 l -104.625,104.635 c -5.86,5.85 -8.79,13.53 -8.79,21.21 0,7.68 2.93,15.36 8.79,21.21 5.33,5.34 12.19,8.25 19.18,8.72 5.77,-0.47 11.44,-3.38 15.85,-8.72 L -14.48,42.46 C -5.51,31.6 0,16.57 0,0"
             style="fill:#ffcad6;fill-opacity:1;fill-rule:nonzero;stroke:none"
             id="path5989" /></g><g
           id="g5991"
           transform="translate(67.5,263.9337)"><path
             d="m 0,0 v 150.5 c 0,16.569 -13.431,30 -30,30 -16.569,0 -30,-13.431 -30,-30 v -181 c 0,-8.25 3.336,-20.89 8.115,-27.615 L 50,-201.5 v -55 h 123.412 v 131.088 c 0,16.567 -6.678,31.602 -17.534,42.46 L 51.213,21.713 c -11.716,11.716 -30.71,11.716 -42.426,0 -11.716,-11.716 -11.716,-30.71 0,-42.426 l 104.625,-104.625"
             style="fill:none;stroke:#000000;stroke-width:15;stroke-linecap:round;stroke-linejoin:round;stroke-miterlimit:10;stroke-dasharray:none;stroke-opacity:1"
             id="path5993" /></g><g
           id="g5995"
           transform="translate(414.5,294.4348)"><path
             d="m 0,0 v 89.999 c 0,16.568 13.431,30 30,30"
             style="fill:none;stroke:#000000;stroke-width:15;stroke-linecap:round;stroke-linejoin:round;stroke-miterlimit:10;stroke-dasharray:none;stroke-opacity:1"
             id="path5997" /></g><g
           id="g5999"
           transform="translate(444.5,263.9337)"><path
             d="m 0,0 v 150.5 c 0,16.569 13.431,30 30,30 16.569,0 30,-13.431 30,-30 v -181 c 0,-8.25 -3.336,-20.89 -8.115,-27.615 L -50,-201.5 v -55 h -123.412 v 131.088 c 0,16.567 6.678,31.602 17.533,42.46 L -51.213,21.713 c 11.716,11.716 30.71,11.716 42.426,0 11.716,-11.716 11.716,-30.71 0,-42.426 l -104.625,-104.625"
             style="fill:none;stroke:#000000;stroke-width:15;stroke-linecap:round;stroke-linejoin:round;stroke-miterlimit:10;stroke-dasharray:none;stroke-opacity:1"
             id="path6001" /></g><g
           id="g6003"
           transform="translate(315.25,423.0157)"><path
             d="M 0,0 13.987,81.551 -18.986,64.216 -70,-30 33.142,-61.548 59.25,-57.755 Z"
             style="fill:#ff9441;fill-opacity:1;fill-rule:nonzero;stroke:none"
             id="path6005" /></g><g
           id="g6007"
           transform="translate(296.2638,487.2313)"><path
             d="m 0,0 -40.264,-21.168 -73.237,38.503 13.987,-81.551 -59.25,-57.754 81.882,-11.898 36.618,-74.197 36.619,74.197 55.773,8.104 -63.142,61.548 z"
             style="fill:#ffb739;fill-opacity:1;fill-rule:nonzero;stroke:none"
             id="path6009" /></g><g
           id="g6011"
           transform="translate(196.75,423.0157)"><path
             d="M 0,0 -59.25,-57.755 22.631,-69.653 59.25,-143.85 95.869,-69.653 177.75,-57.755 118.5,0 132.487,81.551 59.25,43.048 -13.987,81.551 -5.145,30"
             style="fill:none;stroke:#000000;stroke-width:15;stroke-linecap:round;stroke-linejoin:round;stroke-miterlimit:10;stroke-dasharray:none;stroke-opacity:1"
             id="path6013" /></g></g></g></g></svg>
