<?xml version="1.0" encoding="UTF-8"?>
<svg xmlns="http://www.w3.org/2000/svg" xmlns:xlink="http://www.w3.org/1999/xlink" version="1.1" id="Capa_1" x="0px" y="0px" viewBox="0 0 512 512" style="enable-background:new 0 0 512 512;" xml:space="preserve" width="512" height="512">
<g>
	<g>
		<path style="fill:#9BE1EC;" d="M450.94,84.26v372.78c0,26.21-21.25,47.46-47.46,47.46H240.47&#10;&#9;&#9;&#9;c-89.705-102.055-84.05-343.707-0.81-467.7h163.82C429.69,36.8,450.94,58.05,450.94,84.26z"/>
		<path style="fill:#63D2E2;" d="M240.47,504.5H108.52c-26.21,0-47.46-21.25-47.46-47.46V84.26c0-26.21,21.25-47.46,47.46-47.46&#10;&#9;&#9;&#9;h131.14C181.63,168.8,185.05,374.81,240.47,504.5z"/>
		<path style="fill:#FFF4E5;" d="M402.79,105.68v329.94c0,11.46-9.29,20.76-20.76,20.76H223.25&#10;&#9;&#9;&#9;c-48.052-79.097-63.666-259.42-1.15-371.46h159.93C393.5,84.92,402.79,94.22,402.79,105.68z"/>
		<path style="fill:#FFE0B7;" d="M223.25,456.38h-93.28c-11.47,0-20.76-9.3-20.76-20.76V105.68c0-11.46,9.29-20.76,20.76-20.76&#10;&#9;&#9;&#9;h92.13C188.22,197.96,190.04,344.57,223.25,456.38z"/>
		<path style="fill:#F9EE80;" d="M376.9,31.58V90.5c0,13.3-10.78,24.08-24.07,24.08H214.25&#10;&#9;&#9;&#9;c-31.767-21.302-33.274-82.733,3.53-107.08h135.05C366.12,7.5,376.9,18.28,376.9,31.58z"/>
		<path style="fill:#F9D171;" d="M214.25,114.58h-55.08c-13.29,0-24.07-10.78-24.07-24.08V31.58c0-13.3,10.78-24.08,24.07-24.08&#10;&#9;&#9;&#9;h58.61C189.49,38.32,189.61,82.81,214.25,114.58z"/>
		<path style="fill:#495560;" d="M279.529,58.706c0.046-14.555-10.495-15.956-23.502-15.997&#10;&#9;&#9;&#9;c-13.007-0.041-23.556,1.294-23.602,15.849c-0.045,14.555,10.462,26.387,23.469,26.428&#10;&#9;&#9;&#9;C268.902,85.027,279.483,73.261,279.529,58.706z"/>
		<path style="fill:#FFDDCF;" d="M324.16,189.77c6.71,23.32-2.42,67.37-14.17,92.85c-4.78,10.37-17.07,14.9-27.44,10.12&#10;&#9;&#9;&#9;c-5.65-2.61-16.18-1.75-27.39-4.79c-25.711-12.926-31.91-66.15-4.09-80.83c3.31,4.95,5.43,10.54,6.28,16.34&#10;&#9;&#9;&#9;c6.34-0.13,12.77,1.59,18.46,5.35c0.35,0.23,0.68,0.47,1.02,0.72c2.4-8.84,6.58-18.86,13.45-30.87c-8.56-6.06-14-19.62-8.46-31.53&#10;&#9;&#9;&#9;c5.32-11.53,18.99-16.57,30.53-11.25C325.23,161.66,330.84,176.17,324.16,189.77z"/>
		<path style="fill:#FFCBBE;" d="M255.16,287.95c-0.07-0.02-0.14-0.04-0.21-0.06c-5.12-0.48-10.19-2.19-14.78-5.23&#10;&#9;&#9;&#9;c-5.69-3.76-9.79-9.01-12.14-14.89c-10.57,2.76-22.22,1.19-32.05-5.31c-18.34-12.14-23.37-36.85-11.23-55.19&#10;&#9;&#9;&#9;c12.14-18.34,36.85-23.37,55.19-11.23c4.55,3.01,8.29,6.8,11.13,11.08C229.74,231.59,232.16,264.78,255.16,287.95z"/>
	</g>
	<g>
		<path style="fill:none;stroke:#000000;stroke-width:15;stroke-linecap:round;stroke-linejoin:round;stroke-miterlimit:10;" d="&#10;&#9;&#9;&#9;M61.063,429.632v27.407c0,26.212,21.249,47.46,47.46,47.46h294.953c26.211,0,47.46-21.249,47.46-47.46V142.052"/>
		<path style="fill:none;stroke:#000000;stroke-width:15;stroke-linecap:round;stroke-linejoin:round;stroke-miterlimit:10;" d="&#10;&#9;&#9;&#9;M135.096,36.801h-26.573c-26.211,0-47.46,21.249-47.46,47.46v310.371"/>
		<path style="fill:none;stroke:#000000;stroke-width:15;stroke-linecap:round;stroke-linejoin:round;stroke-miterlimit:10;" d="&#10;&#9;&#9;&#9;M352.825,114.579h-193.65c-13.298,0-24.079-10.78-24.079-24.079V31.579c0-13.298,10.78-24.079,24.079-24.079h193.65&#10;&#9;&#9;&#9;c13.298,0,24.079,10.78,24.079,24.079V90.5C376.904,103.799,366.123,114.579,352.825,114.579z"/>
		<path style="fill:none;stroke:#000000;stroke-width:15;stroke-linecap:round;stroke-linejoin:round;stroke-miterlimit:10;" d="&#10;&#9;&#9;&#9;M135.096,84.92h-5.125c-11.468,0-20.764,9.296-20.764,20.764v329.934c0,11.468,9.296,20.764,20.764,20.764h252.058&#10;&#9;&#9;&#9;c11.468,0,20.764-9.296,20.764-20.764V105.684c0-11.468-9.296-20.764-20.764-20.764h-5.125"/>
		<path style="fill:none;stroke:#000000;stroke-width:15;stroke-linecap:round;stroke-linejoin:round;stroke-miterlimit:10;" d="&#10;&#9;&#9;&#9;M279.529,58.706c0.046-14.555-10.495-15.956-23.502-15.997c-13.007-0.041-23.556,1.294-23.602,15.849&#10;&#9;&#9;&#9;c-0.046,14.555,10.462,26.387,23.469,26.428C268.902,85.027,279.483,73.261,279.529,58.706z"/>
		<path style="fill:none;stroke:#000000;stroke-width:15;stroke-linecap:round;stroke-linejoin:round;stroke-miterlimit:10;" d="&#10;&#9;&#9;&#9;M207.76,51.04c0.024-7.679-6.181-13.924-13.861-13.948c-7.679-0.024-13.924,6.182-13.948,13.861"/>
		<path style="fill:none;stroke:#000000;stroke-width:15;stroke-linecap:round;stroke-linejoin:round;stroke-miterlimit:10;" d="&#10;&#9;&#9;&#9;M304.24,51.343c0.024-7.679,6.269-13.885,13.948-13.861c7.679,0.024,13.885,6.269,13.861,13.948"/>
		
			<line style="fill:none;stroke:#000000;stroke-width:15;stroke-linecap:round;stroke-linejoin:round;stroke-miterlimit:10;" x1="249.162" y1="402.445" x2="328.732" y2="402.445"/>
		
			<polyline style="fill:none;stroke:#000000;stroke-width:15;stroke-linecap:round;stroke-linejoin:round;stroke-miterlimit:10;" points="&#10;&#9;&#9;&#9;183.268,398.684 192.569,417.004 220.402,387.885 &#9;&#9;"/>
		
			<line style="fill:none;stroke:#000000;stroke-width:15;stroke-linecap:round;stroke-linejoin:round;stroke-miterlimit:10;" x1="249.162" y1="350.169" x2="328.732" y2="350.169"/>
		
			<polyline style="fill:none;stroke:#000000;stroke-width:15;stroke-linecap:round;stroke-linejoin:round;stroke-miterlimit:10;" points="&#10;&#9;&#9;&#9;183.268,346.408 192.569,364.729 220.402,335.61 &#9;&#9;"/>
		<path style="fill:none;stroke:#000000;stroke-width:15;stroke-linecap:round;stroke-linejoin:round;stroke-miterlimit:10;" d="&#10;&#9;&#9;&#9;M274.075,250.132c-0.125-13.612,3.435-29.143,16.204-51.468c-8.564-6.067-14.002-19.626-8.459-31.53&#10;&#9;&#9;&#9;c5.322-11.538,18.989-16.576,30.527-11.254c12.885,5.781,18.495,20.286,11.809,33.896c6.717,23.318-2.415,67.366-14.166,92.842&#10;&#9;&#9;&#9;c-4.785,10.373-17.072,14.903-27.445,10.118c-10.373-4.785-37.212,2.136-54.517-24.965"/>
		<path style="fill:none;stroke:#000000;stroke-width:15;stroke-linecap:round;stroke-linejoin:round;stroke-miterlimit:10;" d="&#10;&#9;&#9;&#9;M276.83,229.525c-5.786-4.205-12.785-6.221-19.477-6.067c-1.592-10.806-7.591-20.916-17.417-27.418&#10;&#9;&#9;&#9;c-18.34-12.137-43.047-7.109-55.184,11.232c-12.137,18.34-7.108,43.047,11.232,55.184c9.825,6.502,21.476,8.072,32.044,5.314"/>
		<path style="fill:none;stroke:#000000;stroke-width:15;stroke-linecap:round;stroke-linejoin:round;stroke-miterlimit:10;" d="&#10;&#9;&#9;&#9;M450.937,107.052V84.261c0-26.211-21.249-47.46-47.46-47.46h-26.573"/>
	</g>
</g>















</svg>
