<?xml version="1.0" encoding="iso-8859-1"?>
<!-- Generator: Adobe Illustrator 19.0.0, SVG Export Plug-In . SVG Version: 6.00 Build 0)  -->
<svg version="1.1" id="Capa_1" xmlns="http://www.w3.org/2000/svg" xmlns:xlink="http://www.w3.org/1999/xlink" x="0px" y="0px"
	 viewBox="0 0 480 480" style="enable-background:new 0 0 480 480;" xml:space="preserve">
<path style="fill:#FFB40E;" d="M328,242.352c-2.28-0.68-4.632-1.168-7.016-1.56c-0.504-0.08-1-0.16-1.512-0.232
	c-2.448-0.336-4.936-0.56-7.472-0.56c-4.296,0-8.456,0.528-12.48,1.44c-5.664,1.288-10.984,3.448-15.848,6.312
	c-0.048,0.024-0.088,0.056-0.136,0.08C267.072,257.584,256,275.48,256,296c0,2.72,0.264,5.384,0.64,8
	c0.072,0.512,0.144,1.016,0.232,1.52c0.44,2.568,1.016,5.08,1.792,7.52c0.008,0.04,0.024,0.072,0.04,0.104
	c0.8,2.488,1.808,4.88,2.936,7.208c0.136,0.28,0.264,0.56,0.4,0.832c1.2,2.376,2.536,4.656,4.048,6.824
	c10.12,14.496,26.896,24,45.92,24c9.28,0,18.008-2.296,25.712-6.288c2.496-1.296,4.872-2.784,7.128-4.424
	c0.144-0.104,0.288-0.216,0.44-0.328c4.448-3.296,8.376-7.232,11.68-11.68c0.112-0.144,0.216-0.288,0.328-0.44
	c1.64-2.256,3.128-4.632,4.424-7.128c2.824-5.448,4.744-11.408,5.648-17.712c0.376-2.616,0.64-5.28,0.64-8
	C368,270.632,351.128,249.232,328,242.352z"/>
<path style="fill:#DD3232;" d="M356.96,329.28c-3.296,4.448-7.232,8.384-11.68,11.68c-0.144,0.112-0.288,0.216-0.44,0.328
	c-2.256,1.64-4.632,3.128-7.128,4.424l0,0L380,388c6.624,6.624,17.376,6.624,24,0s6.624-17.376,0-24l-42.288-42.288l0,0
	c-1.296,2.496-2.784,4.872-4.424,7.128C357.176,328.992,357.072,329.136,356.96,329.28z"/>
<path style="fill:#06AED5;" d="M399.92,129.512c0.016-0.504,0.08-1,0.08-1.512c0-26.512-21.488-48-48-48
	c-4.336,0-8.52,0.624-12.512,1.704C326.512,39.048,286.896,8,240,8c-57.44,0-104,46.56-104,104c0,9.64,1.416,18.928,3.872,27.792
	C126.944,132.336,111.992,128,96,128c-48.6,0-88,39.4-88,88s39.4,88,88,88h33.128c-0.256-0.992-0.448-2.016-0.632-3.032
	c0.184,1.024,0.376,2.04,0.632,3.032c3.568,13.776,15.976,24,30.872,24h106.08c-1.512-2.168-2.856-4.448-4.048-6.824
	c-0.136-0.272-0.264-0.552-0.4-0.832c-1.128-2.328-2.136-4.712-2.936-7.208c-0.008-0.04-0.024-0.072-0.04-0.104
	c-0.776-2.432-1.352-4.952-1.792-7.52c-0.088-0.504-0.168-1.008-0.24-1.52c-0.008-0.048-0.008-0.096-0.008-0.144
	C256.248,301.28,256,298.672,256,296H152V168h176v74.352l0,0c23.128,6.888,40,28.288,40,53.648c0,2.72-0.264,5.384-0.64,8H384
	c48.6,0,88-39.4,88-88C472,172.848,440.912,137.016,399.92,129.512z"/>
<path style="fill:#FFF1D0;" d="M283.536,247.832c0.048-0.024,0.088-0.056,0.136-0.08c4.864-2.864,10.184-5.016,15.848-6.312
	c4.024-0.912,8.184-1.44,12.48-1.44c2.536,0,5.024,0.224,7.472,0.552c0.504,0.064,1.008,0.152,1.512,0.232
	c2.384,0.392,4.736,0.888,7.016,1.56l0,0V168H152v128h104C256,275.48,267.072,257.584,283.536,247.832z"/>
<g>
	<path style="fill:#242A40;" d="M407.784,123.048c-2.72-30.896-31.056-54.808-62.976-50.56C328.456,28.832,287.2,0,240,0
		c-61.76,0-112,50.24-112,112c0,4.592,0.304,9.224,0.896,13.864C118.376,122,107.224,120,96,120c-52.936,0-96,43.064-96,96
		s43.064,96,96,96h27.392c6.192,14.104,20.248,24,36.608,24h102.12c11.744,14.608,29.72,24,49.88,24v72c0,4.424,3.576,8,8,8h52.688
		l-26.344,26.344l11.312,11.312l40-40c3.128-3.128,3.128-8.184,0-11.312l-40-40l-11.312,11.312L372.688,424H328v-66.104
		c2.728-0.704,5.4-1.552,7.984-2.6l38.36,38.36c4.864,4.864,11.264,7.304,17.656,7.304s12.792-2.44,17.656-7.304
		c9.736-9.736,9.736-25.576,0-35.312l-38.36-38.36c1.048-2.576,1.896-5.248,2.6-7.984H384c52.936,0,96-43.064,96-96
		C480,171.864,450,133.776,407.784,123.048z M252.672,320H160c-10.432,0-19.328-6.688-22.632-16H152h96.496
		c0.048,0.384,0.16,0.752,0.216,1.128c0,0.008,0,0.016,0,0.016c0,0.008,0,0.008,0.008,0.016c0.016,0.088,0.04,0.168,0.048,0.256
		c0.28,1.864,0.624,3.712,1.064,5.52c0.184,0.76,0.376,1.512,0.584,2.272c0.536,1.92,1.16,3.792,1.872,5.64
		C252.432,319.224,252.52,319.624,252.672,320z M320,232.504c-0.176-0.024-0.352-0.016-0.528-0.032
		C317.016,232.184,314.528,232,312,232c-2.128,0-4.224,0.112-6.296,0.32c-0.696,0.072-1.376,0.2-2.064,0.288
		c-0.344,0.048-0.688,0.096-1.04,0.144l-32.536-37.96c-1.544-1.816-3.968-2.56-6.2-2.8c-2.384,0.04-4.624,1.144-6.12,3
		l-27.952,34.952l-26.216-13.112c-3.472-1.736-7.656-0.744-9.976,2.36l-24,32l12.8,9.592l19.992-26.656l26.032,13.016
		c3.376,1.688,7.472,0.792,9.832-2.16l25.96-32.464l21.536,25.128c-0.184,0.08-0.36,0.192-0.544,0.28
		c-0.896,0.416-1.792,0.848-2.672,1.304c-0.704,0.368-1.4,0.752-2.088,1.144c-0.288,0.168-0.584,0.328-0.872,0.496
		c-0.744,0.44-1.472,0.904-2.2,1.368c-0.752,0.488-1.488,0.984-2.216,1.504c-0.128,0.088-0.256,0.168-0.384,0.256
		c-0.128,0.096-0.264,0.176-0.392,0.264c-0.632,0.456-1.232,0.952-1.84,1.432c-0.704,0.552-1.4,1.112-2.072,1.688
		c-0.832,0.712-1.632,1.456-2.424,2.208c-0.64,0.608-1.28,1.208-1.896,1.848c-0.48,0.496-0.952,1-1.416,1.504
		c-0.032,0.04-0.072,0.072-0.112,0.112l0.008,0.008c-0.248,0.272-0.48,0.56-0.728,0.84c-0.568,0.648-1.152,1.288-1.696,1.96
		c-0.728,0.896-1.4,1.84-2.08,2.776c-0.48,0.664-0.984,1.312-1.432,1.992c-0.704,1.056-1.336,2.152-1.976,3.248
		c-0.36,0.624-0.76,1.216-1.096,1.856c-0.864,1.6-1.648,3.24-2.376,4.92c-0.088,0.208-0.192,0.408-0.28,0.616
		c-0.752,1.784-1.424,3.616-2.008,5.48c-0.216,0.68-0.368,1.376-0.56,2.064c-0.352,1.264-0.712,2.528-0.984,3.816
		c-0.176,0.832-0.288,1.68-0.432,2.52c-0.16,0.944-0.368,1.872-0.488,2.832H160V176h160V232.504z M272.568,323.304
		c-1.28-1.84-2.392-3.76-3.392-5.728c-0.184-0.36-0.352-0.728-0.528-1.096c-0.936-1.968-1.768-3.976-2.424-6.04
		c-0.008-0.032-0.024-0.056-0.032-0.088c-0.648-2.056-1.104-4.16-1.464-6.288c-0.064-0.384-0.12-0.776-0.176-1.168
		c0-0.008,0-0.016,0-0.024c-0.04-0.288-0.056-0.52-0.096-0.792c-0.248-2.016-0.456-4.032-0.456-6.08
		c0-12.424,4.784-23.72,12.552-32.256c3.232-3.552,6.928-6.552,10.96-8.96c0.16-0.096,0.32-0.2,0.488-0.296
		c2.008-1.168,4.088-2.192,6.248-3.056c0.072-0.024,0.144-0.048,0.208-0.08c2.208-0.864,4.48-1.584,6.824-2.112
		c3.456-0.784,7.032-1.24,10.72-1.24c2.104,0,4.208,0.184,6.296,0.464c0.44,0.056,0.88,0.128,1.312,0.2c2,0.328,4,0.744,5.96,1.32
		C345.448,255.856,360,274.248,360,296c0,1.24-0.096,2.448-0.184,3.664c-0.088,1.008-0.2,2.048-0.368,3.2c0,0.008,0,0.016,0,0.024
		c-0.784,5.416-2.448,10.544-4.888,15.216c-1.064,2.048-2.288,3.992-3.616,5.84c-0.208,0.288-0.424,0.568-0.64,0.856
		c-2.704,3.6-5.896,6.792-9.496,9.496c-0.288,0.216-0.568,0.432-0.856,0.64c-1.856,1.328-3.792,2.552-5.84,3.616
		C327.488,342.016,319.976,344,312,344C295.672,344,281.248,335.792,272.568,323.304z M363.136,334.448l35.208,35.208
		c3.504,3.504,3.504,9.184,0,12.688s-9.184,3.504-12.688,0l-35.208-35.208c0.264-0.2,0.488-0.448,0.752-0.648
		c2-1.56,3.936-3.192,5.736-4.976c0.192-0.192,0.392-0.384,0.584-0.584c1.776-1.8,3.416-3.736,4.976-5.736
		C362.688,334.936,362.936,334.712,363.136,334.448z M384,296h-8c0-26.8-16.576-49.768-40-59.288V168c0-4.424-3.576-8-8-8H152
		c-4.424,0-8,3.576-8,8v120h-16c-4.424,0-8,3.576-8,8H96c-44.112,0-80-35.888-80-80s35.888-80,80-80
		c13.92,0,27.712,3.704,39.864,10.72c2.816,1.632,6.32,1.392,8.896-0.6c2.568-1.992,3.68-5.336,2.816-8.464
		C145.2,129.088,144,120.456,144,112c0-52.936,43.064-96,96-96c42.552,0,79.456,27.336,91.832,68.032
		c1.264,4.136,5.608,6.52,9.736,5.4c26.296-7.136,50.448,13.064,50.416,38.864c-0.008,0.112-0.048,0.864-0.056,0.976
		c-0.12,3.952,2.672,7.4,6.56,8.112C436.448,144.328,464,177.392,464,216C464,260.112,428.112,296,384,296z"/>
	<path style="fill:#242A40;" d="M248,452.688V352h-16v100.688l-34.344-34.344l-11.312,11.312l48,48
		c1.56,1.56,3.608,2.344,5.656,2.344s4.096-0.784,5.656-2.344l48-48l-11.312-11.312L248,452.688z"/>
	<path style="fill:#242A40;" d="M320,312c2.048,0,4.096-0.784,5.656-2.344l24-24l-11.312-11.312L320,292.688l-10.344-10.344
		c-2.704-2.704-6.936-3.128-10.096-1l-24,16l8.872,13.312l18.544-12.36l11.36,11.36C315.904,311.216,317.952,312,320,312z"/>
	<path style="fill:#242A40;" d="M152,424h-44.688l26.344-26.344l-11.312-11.312l-40,40c-3.128,3.128-3.128,8.184,0,11.312l40,40
		l11.312-11.312L107.312,440H160c4.424,0,8-3.576,8-8v-80h-16V424z"/>
</g>
<g>
</g>
<g>
</g>
<g>
</g>
<g>
</g>
<g>
</g>
<g>
</g>
<g>
</g>
<g>
</g>
<g>
</g>
<g>
</g>
<g>
</g>
<g>
</g>
<g>
</g>
<g>
</g>
<g>
</g>
</svg>
