<?xml version="1.0" encoding="iso-8859-1"?>
<!-- Generator: Adobe Illustrator 19.0.0, SVG Export Plug-In . SVG Version: 6.00 Build 0)  -->
<svg version="1.1" id="Capa_1" xmlns="http://www.w3.org/2000/svg" xmlns:xlink="http://www.w3.org/1999/xlink" x="0px" y="0px"
	 viewBox="0 0 512 512" style="enable-background:new 0 0 512 512;" xml:space="preserve">
<path style="fill:#D1E7F8;" d="M410.987,128.597c0.001-0.183,0.007-0.364,0.007-0.547c0-66.578-53.972-120.551-120.55-120.551
	c-51.869,0-96.082,32.76-113.089,78.716c-7.095-4.097-15.322-6.454-24.105-6.454c-26.669,0-48.288,21.619-48.288,48.288
	c0,0.076,0.005,0.15,0.006,0.225C50.554,131.769,7.5,177,7.5,232.295l0,0c0,57.573,46.672,104.245,104.245,104.245h288.511
	c57.573,0,104.245-46.672,104.245-104.245l0,0C504.5,178.346,463.518,133.969,410.987,128.597z"/>
<path style="fill:#787680;" d="M7.5,396.821h497v88.166c-7.62,7.62-11.893,11.893-19.513,19.513H27.013
	c-7.62-7.62-11.893-11.893-19.513-19.513V396.821z"/>
<g>
	<circle style="fill:#57565C;" cx="156.66" cy="450.66" r="22.366"/>
	<circle style="fill:#57565C;" cx="225.4" cy="450.66" r="22.366"/>
	<circle style="fill:#57565C;" cx="87.93" cy="450.66" r="22.366"/>
</g>
<circle style="fill:#FFE477;" cx="136.66" cy="450.66" r="22.366"/>
<circle style="fill:#91DC5A;" cx="205.4" cy="450.66" r="22.366"/>
<circle style="fill:#FF7956;" cx="67.929" cy="450.66" r="22.366"/>
<rect x="234.5" y="336.54" style="fill:#57A4FF;" width="43.01" height="60.28"/>
<g>
	<path style="fill:#B3D8F4;" d="M183.25,79.762c8.782,0,17.009,2.356,24.105,6.454c15.341-41.455,52.821-72.172,98.087-77.792
		c-4.914-0.61-9.919-0.925-14.998-0.925c-49.451,0-91.943,29.777-110.535,72.377C181.013,79.802,182.127,79.762,183.25,79.762z"/>
	<path style="fill:#B3D8F4;" d="M37.5,232.295L37.5,232.295c0-55.295,43.055-100.527,97.468-104.02c0-0.075-0.006-0.15-0.006-0.225
		c0-21.427,13.956-39.594,33.275-45.908c-4.717-1.543-9.753-2.38-14.986-2.38c-26.669,0-48.288,21.619-48.288,48.288
		c0,0.075,0.005,0.15,0.006,0.225C50.555,131.769,7.5,177,7.5,232.295l0,0c0,57.573,46.672,104.245,104.245,104.245h30
		C84.172,336.54,37.5,289.868,37.5,232.295z"/>
</g>
<path style="fill:#57565C;" d="M37.5,484.987v-88.166h-30v88.166L27.013,504.5h30C49.393,496.88,45.12,492.607,37.5,484.987z"/>
<path style="fill:#FFB655;" d="M134.296,450.66c0-8.758,5.034-16.34,12.366-20.011c-3.009-1.507-6.406-2.355-10-2.355
	c-12.352,0-22.366,10.014-22.366,22.366s10.014,22.366,22.366,22.366c3.594,0,6.991-0.848,10-2.355
	C139.33,467,134.296,459.418,134.296,450.66z"/>
<path style="fill:#64C37D;" d="M203.029,450.66c0-8.758,5.034-16.34,12.366-20.011c-3.009-1.507-6.406-2.355-10-2.355
	c-12.352,0-22.366,10.014-22.366,22.366s10.014,22.366,22.366,22.366c3.594,0,6.991-0.848,10-2.355
	C208.063,467,203.029,459.418,203.029,450.66z"/>
<path style="fill:#FF3F62;" d="M65.563,450.66c0-8.758,5.034-16.34,12.366-20.011c-3.009-1.507-6.406-2.355-10-2.355
	c-12.352,0-22.366,10.014-22.366,22.366s10.014,22.366,22.366,22.366c3.594,0,6.991-0.848,10-2.355
	C70.597,467,65.563,459.418,65.563,450.66z"/>
<rect x="234.5" y="336.54" style="fill:#006DF0;" width="20" height="60.28"/>
<rect x="235.83" y="304.04" width="15" height="15"/>
<rect x="260.83" y="304.04" width="15" height="15"/>
<rect x="210.83" y="304.04" width="15" height="15"/>
<rect x="285.83" y="304.04" width="15" height="15"/>
<rect x="417.67" y="472" width="55.19" height="15"/>
<path d="M111.745,344.04h288.511C461.872,344.04,512,293.912,512,232.295c0-27.841-10.301-54.515-29.006-75.108
	c-17.07-18.794-39.822-31.129-64.641-35.176C415.188,54.199,359.025,0,290.444,0c-26.683,0-52.255,8.128-73.955,23.505
	c-18.973,13.445-33.747,31.492-43.087,52.527c-6.401-2.48-13.241-3.77-20.152-3.77c-28.516,0-52.104,21.508-55.396,49.152
	C42.471,128.297,0,175.769,0,232.295C0,293.912,50.128,344.04,111.745,344.04z M105.25,135.775h43.083v-15h-35.209
	c3.443-19.029,20.119-33.513,40.125-33.513c7.144,0,14.182,1.884,20.354,5.448l7.699,4.446l3.085-8.338
	C200.728,44.666,243.349,15,290.444,15c62.336,0,113.05,50.714,113.05,113.05l-0.025,7.317l6.755,0.691
	c49.47,5.06,86.776,46.433,86.776,96.237c0,53.345-43.399,96.745-96.745,96.745h-288.51C58.399,329.04,15,285.641,15,232.295
	C15,181.486,54.626,139.129,105.25,135.775z"/>
<g>
	<path style="fill:#FFFFFF;" d="M487,232.295h-15c0,4.539-0.428,9.08-1.272,13.498l14.733,2.815
		C486.482,243.265,487,237.776,487,232.295z"/>
	<path style="fill:#FFFFFF;" d="M482.726,259.214l-14.257-4.664c-1.402,4.285-3.225,8.464-5.419,12.42l13.118,7.274
		C478.822,269.458,481.028,264.401,482.726,259.214z"/>
	<path style="fill:#FFFFFF;" d="M470.271,283.457l-12.101-8.864c-13.507,18.439-35.158,29.447-57.915,29.447v15
		C427.775,319.04,453.95,305.738,470.271,283.457z"/>
</g>
<path d="M0,488.094L23.906,512h464.188L512,488.094v-98.773H0V488.094z M15,404.321h482v77.56L481.88,497H30.12L15,481.88V404.321z"
	/>
<g>
	<rect x="353.5" y="414.32" style="fill:#FFFFFF;" width="76" height="15"/>
	<rect x="439.5" y="414.32" style="fill:#FFFFFF;" width="15" height="15"/>
	<rect x="464.5" y="414.32" style="fill:#FFFFFF;" width="15" height="15"/>
</g>
<path d="M136.662,480.526c16.468,0,29.866-13.398,29.866-29.866s-13.398-29.866-29.866-29.866s-29.866,13.397-29.866,29.866
	S120.194,480.526,136.662,480.526z M136.662,435.794c8.197,0,14.866,6.669,14.866,14.866s-6.669,14.866-14.866,14.866
	c-8.197,0-14.866-6.669-14.866-14.866C121.796,442.463,128.465,435.794,136.662,435.794z"/>
<path d="M205.395,480.526c16.468,0,29.866-13.398,29.866-29.866s-13.398-29.866-29.866-29.866s-29.866,13.397-29.866,29.866
	S188.926,480.526,205.395,480.526z M205.395,435.794c8.197,0,14.866,6.669,14.866,14.866s-6.669,14.866-14.866,14.866
	c-8.197,0-14.866-6.669-14.866-14.866S197.198,435.794,205.395,435.794z"/>
<path d="M67.929,480.526c16.468,0,29.866-13.398,29.866-29.866s-13.397-29.866-29.866-29.866s-29.866,13.397-29.866,29.866
	S51.46,480.526,67.929,480.526z M67.929,435.794c8.197,0,14.866,6.669,14.866,14.866s-6.669,14.866-14.866,14.866
	s-14.866-6.669-14.866-14.866S59.731,435.794,67.929,435.794z"/>
<rect x="259.13" y="443.16" width="15" height="15"/>
<rect x="309.13" y="443.16" width="15" height="15"/>
<rect x="284.13" y="443.16" width="15" height="15"/>
<rect x="227" y="351.54" width="15" height="30.28"/>
<rect x="270" y="351.54" width="15" height="30.28"/>
<g>
	<path style="fill:#FFFFFF;" d="M378.494,127.959l15-0.017c-0.04-36.584-19.796-70.738-51.559-89.132l-7.518,12.98
		C361.571,67.515,378.46,96.701,378.494,127.959z"/>
	<path style="fill:#FFFFFF;" d="M306.543,26.256c-5.292-0.833-10.708-1.256-16.1-1.256v15c4.612,0,9.243,0.361,13.766,1.074
		L306.543,26.256z"/>
	<path style="fill:#FFFFFF;" d="M332.336,33.904c-4.918-2.197-10.047-4.017-15.244-5.409l-3.882,14.489
		c4.435,1.188,8.812,2.741,13.008,4.615L332.336,33.904z"/>
</g>
<path d="M111.745,319.04v-15C72.185,304.04,40,271.855,40,232.295H25C25,280.126,63.914,319.04,111.745,319.04z"/>
<rect x="15" y="318.21" width="15" height="15"/>
<rect x="15" y="368.21" width="15" height="15"/>
<rect x="15" y="343.21" width="15" height="15"/>
<rect x="481.99" y="318.21" width="15" height="15"/>
<rect x="481.99" y="343.21" width="15" height="15"/>
<rect x="481.99" y="368.21" width="15" height="15"/>
<rect x="248.5" y="354" width="15" height="25.667"/>
<g>
</g>
<g>
</g>
<g>
</g>
<g>
</g>
<g>
</g>
<g>
</g>
<g>
</g>
<g>
</g>
<g>
</g>
<g>
</g>
<g>
</g>
<g>
</g>
<g>
</g>
<g>
</g>
<g>
</g>
</svg>
