<svg id="Capa_1" enable-background="new 0 0 512 512" height="512" viewBox="0 0 512 512" width="512" xmlns="http://www.w3.org/2000/svg"><g><g fill="#ff6c6c"><path d="m145.934 273.5h-13.567v-10h12.015c4.143 0 7.5-3.358 7.5-7.5s-3.357-7.5-7.5-7.5h-12.015v-10h13.567c4.143 0 7.5-3.358 7.5-7.5s-3.357-7.5-7.5-7.5h-21.067c-4.143 0-7.5 3.358-7.5 7.5v50c0 4.142 3.357 7.5 7.5 7.5h21.067c4.143 0 7.5-3.358 7.5-7.5s-3.358-7.5-7.5-7.5z"/><path d="m65.615 288.5c-1.979 0-3.879-.782-5.283-2.177-1.412-1.401-2.21-3.306-2.217-5.295 0 0-.065-18.131-.065-25.083 0-5.7-.036-24.931-.036-24.931-.004-1.992.785-3.903 2.191-5.312 1.407-1.41 3.317-2.202 5.309-2.202h14.161c16.563 0 27.691 13.061 27.691 32.5 0 18.492-11.417 32.114-27.146 32.389-4.043.07-14.147.109-14.576.111-.01 0-.019 0-.029 0zm7.412-50c.01 6.054.022 14.09.022 17.445 0 3.999.021 11.705.04 17.515 2.601-.018 5.264-.041 6.868-.069 8.571-.15 12.408-8.843 12.408-17.391 0-4.105-.915-17.5-12.691-17.5z"/><path d="m208.851 223.974c-3.929-1.305-8.176.822-9.481 4.753l-10.409 31.333-10.941-31.52c-1.357-3.913-5.634-5.984-9.544-4.626-3.913 1.358-5.984 5.632-4.626 9.545l17.114 49.303c1.223 3.438 4.484 5.737 8.13 5.737h.059c3.668-.025 6.928-2.375 8.127-5.9l16.325-49.143c1.305-3.931-.824-8.176-4.754-9.482z"/><g><path d="m384.57 223.5h-13.923c-1.993 0-3.904.793-5.312 2.205-1.407 1.412-2.195 3.326-2.188 5.319v49.976c0 4.142 3.357 7.5 7.5 7.5s7.5-3.358 7.5-7.5v-14.258c2.431-.012 4.901-.021 6.423-.021 12.067 0 21.886-9.694 21.886-21.61 0-11.917-9.818-21.611-21.886-21.611zm0 28.22c-1.511 0-3.951.009-6.366.021-.012-2.514-.021-5.072-.021-6.631 0-1.333-.006-3.971-.013-6.61h6.4c3.732 0 6.886 3.027 6.886 6.61s-3.153 6.61-6.886 6.61z"/><path d="m320.647 223.5c-17.921 0-32.5 14.58-32.5 32.5s14.579 32.5 32.5 32.5 32.5-14.58 32.5-32.5-14.579-32.5-32.5-32.5zm0 50c-9.649 0-17.5-7.851-17.5-17.5s7.851-17.5 17.5-17.5 17.5 7.851 17.5 17.5-7.85 17.5-17.5 17.5z"/><path d="m448.269 249.413c-5.907-2.179-11.421-4.546-13.339-5.384-.712-.656-.721-1.503-.652-1.985.093-.641.576-2.211 3.081-2.966 6.062-1.825 10.61 1.201 11.489 1.852 2.212 2.769 6.148 3.658 9.391 1.926 3.652-1.952 5.032-6.496 3.08-10.149-2.653-4.963-14.703-12.084-28.286-7.991-7.363 2.218-12.575 8.041-13.603 15.196-.968 6.745 1.957 13.234 7.635 16.936.331.216.679.405 1.04.566.29.129 7.197 3.204 14.973 6.072 3.037 1.12 6.138 3.123 5.734 5.383-.334 1.868-2.938 4.63-7.471 4.63-4.607 0-9.029-1.844-11.827-4.932-2.782-3.07-7.525-3.301-10.594-.521-3.069 2.781-3.303 7.524-.521 10.594 5.679 6.265 14.04 9.858 22.942 9.858 11.127 0 20.479-7.147 22.237-16.994 1.331-7.457-1.991-17.178-15.309-22.091z"/></g></g><path d="m415.774 126.311 15.667-10.97c6.786-4.752 8.435-14.105 3.684-20.891-4.751-6.786-14.105-8.435-20.891-3.684l-46.338 32.447c-6.786 4.752-8.435 14.105-3.684 20.891l32.446 46.339c4.752 6.786 14.105 8.435 20.891 3.684 6.786-4.752 8.435-14.104 3.683-20.891l-12.355-17.645c42.382 13.697 73.123 53.527 73.123 100.409 0 58.173-47.327 105.5-105.5 105.5s-105.5-47.327-105.5-105.5c0-74.715-60.785-135.5-135.5-135.5s-135.5 60.785-135.5 135.5c0 61.062 40.603 112.812 96.226 129.689l-15.667 10.97c-6.786 4.752-8.435 14.105-3.684 20.891 4.751 6.786 14.105 8.435 20.891 3.684l46.338-32.447c6.786-4.752 8.435-14.105 3.684-20.891l-32.446-46.339c-4.752-6.786-14.105-8.435-20.891-3.684-6.786 4.752-8.435 14.104-3.683 20.891l12.355 17.645c-42.382-13.697-73.123-53.527-73.123-100.409 0-58.173 47.327-105.5 105.5-105.5s105.5 47.327 105.5 105.5c0 74.715 60.785 135.5 135.5 135.5s135.5-60.785 135.5-135.5c0-61.062-40.603-112.812-96.226-129.689z" fill="#6e6e84"/><g><path d="m96.226 385.689-15.667 10.97c-6.786 4.752-8.435 14.105-3.684 20.891 4.751 6.786 14.105 8.435 20.891 3.684l46.338-32.447c6.786-4.752 8.435-14.105 3.684-20.891l-32.446-46.339c-4.752-6.786-14.105-8.435-20.891-3.684-6.786 4.752-8.435 14.104-3.683 20.891l12.355 17.645c-42.382-13.697-73.123-53.527-73.123-100.409h-30c0 61.062 40.603 112.812 96.226 129.689z" fill="#525263"/><path d="m376.5 361.5c-58.173 0-105.5-47.327-105.5-105.5h-30c0 74.715 60.785 135.5 135.5 135.5s135.5-60.785 135.5-135.5h-30c0 58.173-47.327 105.5-105.5 105.5z" fill="#525263"/><g fill="#ff1f3e"><path d="m117.366 281c0 4.142 3.357 7.5 7.5 7.5h21.067c4.143 0 7.5-3.358 7.5-7.5s-3.357-7.5-7.5-7.5h-13.567v-10h12.015c4.143 0 7.5-3.358 7.5-7.5h-34.515z"/><path d="m79.958 273.391c-1.604.028-4.268.051-6.868.069-.019-5.785-.04-13.446-.04-17.46h-15c0 6.99.065 25.027.065 25.027.007 1.989.805 3.894 2.217 5.295 1.404 1.395 3.304 2.177 5.283 2.177h.028c.429-.001 10.533-.041 14.576-.111 15.729-.275 27.146-13.897 27.146-32.389h-15c.001 8.549-3.836 17.242-12.407 17.392z"/><path d="m188.96 260.061-1.41-4.061h-15.877l9.29 26.763c1.223 3.438 4.484 5.737 8.13 5.737h.059c3.668-.025 6.928-2.375 8.127-5.9l8.836-26.6h-15.806z"/><path d="m370.647 288.5c4.143 0 7.5-3.358 7.5-7.5v-14.258c2.431-.012 4.901-.021 6.423-.021 8.047 0 15.089-4.314 18.892-10.72h-40.315v25c0 4.141 3.358 7.499 7.5 7.499z"/><path d="m320.647 288.5c17.921 0 32.5-14.58 32.5-32.5h-15c0 9.649-7.851 17.5-17.5 17.5s-17.5-7.851-17.5-17.5h-15c0 17.92 14.58 32.5 32.5 32.5z"/><path d="m428.104 257.414c.29.129 7.197 3.204 14.973 6.072 3.037 1.12 6.138 3.123 5.734 5.383-.334 1.868-2.938 4.63-7.471 4.63-4.607 0-9.029-1.844-11.827-4.932-2.782-3.07-7.525-3.301-10.594-.521-3.069 2.781-3.303 7.524-.521 10.594 5.679 6.265 14.04 9.858 22.942 9.858 11.127 0 20.479-7.147 22.237-16.994.867-4.861-.244-10.681-4.807-15.506h-32.888c.38.295.771.581 1.181.848.333.217.68.407 1.041.568z"/></g></g></g></svg>