<?xml version="1.0" encoding="iso-8859-1"?>
<!-- Generator: Adobe Illustrator 19.0.0, SVG Export Plug-In . SVG Version: 6.00 Build 0)  -->
<svg version="1.1" id="Layer_1" xmlns="http://www.w3.org/2000/svg" xmlns:xlink="http://www.w3.org/1999/xlink" x="0px" y="0px"
	 viewBox="0 0 496 496" style="enable-background:new 0 0 496 496;" xml:space="preserve">
<path style="fill:#333333;" d="M496,464v-96h-62.224c-8.12-31.52-24.136-60.496-46.72-84.248c5.808-7.488,11.12-15.44,15.728-23.944
	l-14.064-7.624c-3.4,6.264-7.192,12.232-11.32,17.904c-5.728-5.232-16.84-13.776-35.056-21.464l-6.216,14.752
	c17.224,7.256,26.976,15.208,31.16,19.144c-24.848,27.824-58.704,46.224-95.864,51.712c15.704-15.184,37.976-40.6,53.792-74.88
	l-14.528-6.704c-16.176,35.056-40.12,60.608-54.696,74.064V248.2c7.848,0.2,15.648,0.592,23.168,1.384l1.672-15.904
	c-8.072-0.848-16.432-1.272-24.832-1.472V184h24v-16h-24v-48.2c8.416-0.208,16.76-0.632,24.832-1.48l-1.672-15.904
	c-7.52,0.784-15.32,1.184-23.168,1.384V25.288c14.576,13.464,38.52,39.008,54.696,74.064l14.528-6.704
	c-15.816-34.28-38.088-59.696-53.792-74.88c37.16,5.488,71.016,23.888,95.864,51.712c-4.184,3.944-13.936,11.888-31.16,19.144
	l6.216,14.752c18.216-7.688,29.328-16.232,35.056-21.464c4.12,5.672,7.92,11.632,11.32,17.904l14.064-7.624
	C371.944,35.32,312.632,0,248,0S124.056,35.32,93.208,92.184l14.064,7.624c3.4-6.264,7.192-12.232,11.32-17.904
	c5.728,5.232,16.84,13.776,35.056,21.464l6.216-14.752c-17.224-7.256-26.976-15.208-31.16-19.144
	c24.848-27.824,58.704-46.224,95.864-51.712c-15.704,15.184-37.976,40.6-53.792,74.88l14.528,6.704
	c16.176-35.048,40.12-60.6,54.696-74.056V103.8c-7.848-0.2-15.648-0.592-23.168-1.384l-1.672,15.904
	c8.072,0.848,16.416,1.272,24.832,1.48V168h-24v16h24v48.208c-8.408,0.208-16.768,0.624-24.832,1.472l1.672,15.904
	c7.52-0.784,15.32-1.184,23.168-1.384v78.512c-14.576-13.464-38.52-39.008-54.696-74.064l-14.528,6.704
	c15.816,34.28,38.088,59.696,53.792,74.88c-37.16-5.488-71.016-23.888-95.864-51.712c4.184-3.944,13.936-11.888,31.16-19.144
	l-6.216-14.752c-18.216,7.688-29.328,16.232-35.056,21.464c-4.12-5.672-7.92-11.632-11.32-17.904l-14.064,7.624
	c4.608,8.496,9.928,16.456,15.728,23.944C86.36,307.504,70.344,336.48,62.224,368H0v96h32v16H16v16h16h80h16v-16h-16v-16h32v-96
	H78.744c7.584-26.8,21.496-51.432,40.632-71.944C152.232,331.256,198.536,352,248,352s95.768-20.744,128.624-55.944
	c19.144,20.512,33.056,45.144,40.64,71.944H352v96h32v16h-16v16h16h80h16v-16h-16v-16H496z M96,480H48v-16h48V480z M128,448h-16H32
	H16v-64h112V448z M368,448v-64h112v64h-16h-80H368z M448,480h-48v-16h48V480z"/>
<g>
	<rect x="272" y="88" style="fill:#FFA64D;" width="216" height="176"/>
	<rect x="8" y="88" style="fill:#FFA64D;" width="216" height="176"/>
</g>
<g>
	<path style="fill:#333333;" d="M176,464h32v16h-16v16h16h80h16v-16h-16v-16h32v-96H176V464z M272,480h-48v-16h48V480z M192,384h112
		v64h-16h-80h-16V384z"/>
	<rect x="304" y="120" style="fill:#333333;" width="152" height="16"/>
	<rect x="304" y="152" style="fill:#333333;" width="152" height="16"/>
	<rect x="304" y="184" style="fill:#333333;" width="152" height="16"/>
	<rect x="440" y="216" style="fill:#333333;" width="16" height="16"/>
	<rect x="304" y="216" style="fill:#333333;" width="120" height="16"/>
	<rect x="40" y="120" style="fill:#333333;" width="152" height="16"/>
	<rect x="40" y="152" style="fill:#333333;" width="152" height="16"/>
	<rect x="40" y="184" style="fill:#333333;" width="152" height="16"/>
	<rect x="176" y="216" style="fill:#333333;" width="16" height="16"/>
	<rect x="40" y="216" style="fill:#333333;" width="120" height="16"/>
</g>
<g>
</g>
<g>
</g>
<g>
</g>
<g>
</g>
<g>
</g>
<g>
</g>
<g>
</g>
<g>
</g>
<g>
</g>
<g>
</g>
<g>
</g>
<g>
</g>
<g>
</g>
<g>
</g>
<g>
</g>
</svg>
