<?xml version="1.0" encoding="iso-8859-1"?>
<!-- Generator: Adobe Illustrator 19.0.0, SVG Export Plug-In . SVG Version: 6.00 Build 0)  -->
<svg version="1.1" id="Capa_1" xmlns="http://www.w3.org/2000/svg" xmlns:xlink="http://www.w3.org/1999/xlink" x="0px" y="0px"
	 viewBox="0 0 508.8 508.8" style="enable-background:new 0 0 508.8 508.8;" xml:space="preserve">
<g>
	<rect x="134.4" y="30.4" style="fill:#193651;" width="16" height="16"/>
	<rect x="102.4" y="30.4" style="fill:#193651;" width="16" height="16"/>
	<rect x="390.4" y="30.4" style="fill:#193651;" width="16" height="16"/>
	<rect x="358.4" y="30.4" style="fill:#193651;" width="16" height="16"/>
	<path style="fill:#193651;" d="M48,295.2l-16,3.2c0.8,5.6,2.4,11.2,4,16l15.2-4C49.6,305.6,48.8,300,48,295.2z"/>
	<path style="fill:#193651;" d="M56,324.8l-15.2,5.6c1.6,4.8,4,10.4,6.4,15.2l14.4-6.4C59.2,334.4,57.6,329.6,56,324.8z"/>
	<path style="fill:#193651;" d="M68,353.6l-14.4,7.2c2.4,4.8,5.6,9.6,8,14.4l14.4-8.8C72.8,362.4,70.4,357.6,68,353.6z"/>
	<path style="fill:#193651;" d="M50.4,204l-15.2-4c-1.6,5.6-2.4,10.4-3.2,16l16,3.2C48,213.6,49.6,208.8,50.4,204z"/>
	<path style="fill:#193651;" d="M138.4,80.8l-8.8-13.6c-4.8,3.2-8.8,6.4-13.6,9.6l9.6,12.8C129.6,86.4,133.6,84,138.4,80.8z"/>
	<path style="fill:#193651;" d="M117.6,436c4,3.2,8.8,6.4,13.6,9.6L140,432c-4-2.4-8.8-5.6-12.8-8.8L117.6,436z"/>
	<path style="fill:#193651;" d="M92.8,414.4c4,4,8,8,12,11.2l10.4-12c-4-3.2-7.2-7.2-11.2-10.4L92.8,414.4z"/>
	<path style="fill:#193651;" d="M84,379.2l-12.8,9.6c3.2,4.8,6.4,8.8,10.4,12.8l12-10.4C90.4,388,87.2,384,84,379.2z"/>
	<path style="fill:#193651;" d="M164.8,65.6l-6.4-14.4c-4.8,2.4-9.6,4.8-14.4,8l8,13.6C156,70.4,160,68,164.8,65.6z"/>
	<path style="fill:#193651;" d="M446.4,170.4l14.4-6.4c-2.4-4.8-4.8-10.4-7.2-15.2l-14.4,7.2C442.4,161.6,444.8,166.4,446.4,170.4z"
		/>
	<path style="fill:#193651;" d="M423.2,131.2c3.2,4,5.6,8,8.8,12.8l13.6-8.8c-3.2-4.8-6.4-9.6-9.6-13.6L423.2,131.2z"/>
	<path style="fill:#193651;" d="M413.6,118.4l12-10.4c-4-4-7.2-8-11.2-12l-11.2,11.2C407.2,111.2,410.4,115.2,413.6,118.4z"/>
	<path style="fill:#193651;" d="M452,184.8c1.6,4.8,3.2,9.6,4.8,14.4l15.2-4c-1.6-5.6-3.2-10.4-4.8-16L452,184.8z"/>
	<path style="fill:#193651;" d="M40,184l15.2,4.8c1.6-4.8,3.2-9.6,5.6-14.4L46.4,168C44,173.6,41.6,178.4,40,184z"/>
	<path style="fill:#193651;" d="M402.4,84.8c-4-4-8.8-7.2-12.8-10.4L380,87.2c4,3.2,8,6.4,12,9.6L402.4,84.8z"/>
	<path style="fill:#193651;" d="M67.2,160.8c2.4-4.8,4.8-8.8,7.2-13.6l-13.6-8c-3.2,4.8-5.6,9.6-8,14.4L67.2,160.8z"/>
	<path style="fill:#193651;" d="M92,122.4L80,112c-3.2,4-7.2,8.8-10.4,12.8l12.8,9.6C85.6,130.4,88.8,125.6,92,122.4z"/>
	<path style="fill:#193651;" d="M113.6,100l-10.4-12c-4,4-8,7.2-12,11.2l11.2,11.2C106.4,107.2,109.6,103.2,113.6,100z"/>
	<path style="fill:#193651;" d="M359.2,438.4l8,13.6c4.8-2.4,9.6-5.6,14.4-8.8l-8.8-13.6C368,432.8,364,436,359.2,438.4z"/>
	<path style="fill:#193651;" d="M384.8,420.8l9.6,12.8c4-3.2,8.8-7.2,12.8-10.4l-11.2-12C392.8,414.4,388.8,417.6,384.8,420.8z"/>
	<path style="fill:#193651;" d="M145.6,454.4c4.8,2.4,9.6,4.8,14.4,7.2l6.4-14.4c-4.8-2.4-9.6-4.8-13.6-7.2L145.6,454.4z"/>
	<path style="fill:#193651;" d="M376,64.8c-4.8-3.2-9.6-5.6-14.4-8l-7.2,14.4c4.8,2.4,8.8,4.8,13.6,8L376,64.8z"/>
	<path style="fill:#193651;" d="M332,451.2l5.6,15.2c4.8-2.4,10.4-4,15.2-6.4l-7.2-14.4C340.8,448,336.8,449.6,332,451.2z"/>
	<path style="fill:#193651;" d="M340,64l6.4-14.4c-2.4-0.8-4.8-2.4-8-3.2h4v-16h-16v16h4l-4,12C330.4,60,335.2,61.6,340,64z"/>
	<path style="fill:#193651;" d="M427.2,376l12.8,8.8c3.2-4.8,6.4-8.8,8.8-13.6l-13.6-8C432.8,367.2,429.6,372,427.2,376z"/>
	<path style="fill:#193651;" d="M454.4,320.8l15.2,4.8c1.6-5.6,3.2-10.4,4.8-16l-15.2-4C457.6,311.2,456,316,454.4,320.8z"/>
	<path style="fill:#193651;" d="M442.4,349.6l14.4,7.2c2.4-4.8,4.8-9.6,7.2-15.2l-15.2-6.4C447.2,340,444.8,344.8,442.4,349.6z"/>
	<path style="fill:#193651;" d="M407.2,400l12,11.2c4-4,7.2-8,11.2-12.8L417.6,388C414.4,392,411.2,396,407.2,400z"/>
	<path style="fill:#193651;" d="M208.8,50.4c4.8-0.8,10.4-2.4,15.2-2.4l-2.4-16c-2.4,0-4.8,0.8-7.2,1.6v-3.2h-16v16h9.6L208.8,50.4z
		"/>
	<path style="fill:#193651;" d="M302.4,460.8l4,15.2c5.6-1.6,10.4-2.4,16-4l-4.8-15.2C312,458.4,307.2,460,302.4,460.8z"/>
	<path style="fill:#193651;" d="M179.2,60c4.8-1.6,9.6-3.2,14.4-4.8L188.8,40c-2.4,0.8-4.8,1.6-6.4,2.4v-12h-16v16h7.2L179.2,60z"/>
	<path style="fill:#193651;" d="M175.2,468c4.8,1.6,10.4,4,16,5.6l4.8-15.2c-4.8-1.6-9.6-3.2-14.4-4.8L175.2,468z"/>
	<path style="fill:#193651;" d="M311.2,53.6l4-15.2c-1.6-0.8-3.2-0.8-5.6-1.6v-6.4h-16v16h2.4l-0.8,4
		C301.6,51.2,306.4,52,311.2,53.6z"/>
</g>
<path style="fill:#D3D7DA;" d="M254.4,94.4L254.4,94.4c-89.6,0-161.6,72-161.6,161.6l0,0c0,89.6,72.8,161.6,161.6,161.6l0,0
	C344,417.6,416,344.8,416,256l0,0C416,166.4,344,94.4,254.4,94.4z"/>
<polygon style="fill:#FFFFFF;" points="150.4,306.4 254.4,372.8 358.4,306.4 358.4,205.6 150.4,205.6 "/>
<polygon style="fill:#F16051;" points="182.4,288.8 182.4,237.6 326.4,237.6 326.4,288.8 254.4,335.2 "/>
<polygon style="fill:#FFFFFF;" points="254.4,139.2 150.4,205.6 254.4,272 358.4,205.6 "/>
<polygon style="fill:#2EA2DB;" points="209.6,205.6 254.4,176.8 299.2,205.6 254.4,234.4 "/>
<g>
	<path style="fill:#FFFFFF;" d="M254.4,8L254.4,8C237.6,8,224,21.6,224,38.4l0,0c0,16.8,13.6,30.4,30.4,30.4l0,0
		c16.8,0,30.4-13.6,30.4-30.4l0,0C284.8,21.6,271.2,8,254.4,8z"/>
	<path style="fill:#FFFFFF;" d="M254.4,440L254.4,440c-16.8,0-30.4,13.6-30.4,30.4l0,0c0,16.8,13.6,30.4,30.4,30.4l0,0
		c16.8,0,30.4-13.6,30.4-30.4l0,0C284.8,453.6,271.2,440,254.4,440z"/>
	<path style="fill:#FFFFFF;" d="M500.8,254.4L500.8,254.4c0-16.8-13.6-30.4-30.4-30.4l0,0c-16.8,0-30.4,13.6-30.4,30.4l0,0
		c0,16.8,13.6,30.4,30.4,30.4l0,0C487.2,284.8,500.8,271.2,500.8,254.4z"/>
	<path style="fill:#FFFFFF;" d="M68.8,254.4L68.8,254.4c0-16.8-13.6-30.4-30.4-30.4l0,0C21.6,224,8,237.6,8,254.4l0,0
		c0,16.8,13.6,30.4,30.4,30.4l0,0C55.2,284.8,68.8,271.2,68.8,254.4z"/>
	<path style="fill:#FFFFFF;" d="M500.8,38.4L500.8,38.4c0-16.8-13.6-30.4-30.4-30.4l0,0C453.6,8,440,21.6,440,38.4l0,0
		c0,16.8,13.6,30.4,30.4,30.4l0,0C487.2,68.8,500.8,55.2,500.8,38.4z"/>
	<path style="fill:#FFFFFF;" d="M68.8,38.4L68.8,38.4C68.8,21.6,55.2,8,38.4,8l0,0C21.6,8,8,21.6,8,38.4l0,0
		c0,16.8,13.6,30.4,30.4,30.4l0,0C55.2,68.8,68.8,55.2,68.8,38.4z"/>
</g>
<g>
	<path style="fill:#193651;" d="M363.2,198.4l-104-66.4c-2.4-1.6-5.6-1.6-8.8,0l-104,66.4c-2.4,1.6-4,4-4,6.4l0,0l0,0v100.8
		c0,2.4,1.6,5.6,4,6.4l104,66.4c1.6,0.8,3.2,1.6,4,1.6c1.6,0,3.2-0.8,4-1.6l104-66.4c2.4-1.6,4-4,4-6.4v-99.2l0,0v-0.8
		C366.4,202.4,365.6,200,363.2,198.4z M254.4,148.8l89.6,56.8l-89.6,56.8l-89.6-56.8L254.4,148.8z M158.4,220l88,56v82.4l-88-56V220
		z M262.4,358.4v-81.6l88-56v81.6L262.4,358.4z"/>
	<path style="fill:#193651;" d="M254.4,76.8c20.8,0,38.4-16.8,38.4-38.4S275.2,0,254.4,0S216,16.8,216,38.4S233.6,76.8,254.4,76.8z
		 M254.4,16c12,0,22.4,10.4,22.4,22.4s-10.4,22.4-22.4,22.4S232,50.4,232,38.4S242.4,16,254.4,16z"/>
	<path style="fill:#193651;" d="M254.4,432c-20.8,0-38.4,16.8-38.4,38.4c0,20.8,16.8,38.4,38.4,38.4c20.8,0,38.4-16.8,38.4-38.4
		C292.8,449.6,275.2,432,254.4,432z M254.4,492.8c-12,0-22.4-10.4-22.4-22.4s10.4-22.4,22.4-22.4s22.4,10.4,22.4,22.4
		S266.4,492.8,254.4,492.8z"/>
	<path style="fill:#193651;" d="M470.4,216c-20.8,0-38.4,16.8-38.4,38.4c0,20.8,16.8,38.4,38.4,38.4c20.8,0,38.4-16.8,38.4-38.4
		C508.8,233.6,492,216,470.4,216z M470.4,276.8c-12,0-22.4-10.4-22.4-22.4s10.4-22.4,22.4-22.4s22.4,10.4,22.4,22.4
		S482.4,276.8,470.4,276.8z"/>
	<path style="fill:#193651;" d="M38.4,216C17.6,216,0,232.8,0,254.4c0,20.8,16.8,38.4,38.4,38.4c20.8,0,38.4-16.8,38.4-38.4
		C76.8,233.6,59.2,216,38.4,216z M38.4,276.8L38.4,276.8c-12,0-22.4-10.4-22.4-22.4S26.4,232,38.4,232s22.4,10.4,22.4,22.4
		S50.4,276.8,38.4,276.8z"/>
	<path style="fill:#193651;" d="M470.4,76.8c20.8,0,38.4-16.8,38.4-38.4S492,0,470.4,0C449.6,0,432,16.8,432,38.4
		S449.6,76.8,470.4,76.8z M470.4,16c12,0,22.4,10.4,22.4,22.4s-10.4,22.4-22.4,22.4S448,50.4,448,38.4S458.4,16,470.4,16z"/>
	<path style="fill:#193651;" d="M38.4,0C16.8,0,0,16.8,0,38.4s16.8,38.4,38.4,38.4c20.8,0,38.4-16.8,38.4-38.4S59.2,0,38.4,0z
		 M38.4,60.8L38.4,60.8c-12,0-22.4-10.4-22.4-22.4S26.4,16,38.4,16s22.4,10.4,22.4,22.4S50.4,60.8,38.4,60.8z"/>
</g>
<g>
</g>
<g>
</g>
<g>
</g>
<g>
</g>
<g>
</g>
<g>
</g>
<g>
</g>
<g>
</g>
<g>
</g>
<g>
</g>
<g>
</g>
<g>
</g>
<g>
</g>
<g>
</g>
<g>
</g>
</svg>
