<svg id="Layer_1" enable-background="new 0 0 512 512" height="512" viewBox="0 0 512 512" width="512" xmlns="http://www.w3.org/2000/svg"><g clip-rule="evenodd" fill-rule="evenodd"><g><g><path d="m161.513 278.551c2.38 9.999 6.345 19.551 11.734 28.303l-8.168 18.391 21.676 21.677 18.386-8.166c8.754 5.391 18.308 9.355 28.311 11.736l7.222 18.763h30.654l7.225-18.768c9.999-2.38 19.55-6.344 28.302-11.734l18.392 8.169 21.677-21.676-8.166-18.386c5.391-8.754 9.356-18.308 11.736-28.31l18.763-7.222v-30.655l-18.768-7.224c-2.38-9.999-6.345-19.55-11.734-28.302l8.169-18.392-21.676-21.676-18.386 8.166c-8.754-5.391-18.308-9.355-28.31-11.735l-7.222-18.764h-30.655l-7.223 18.767c-10.001 2.38-19.553 6.344-28.306 11.734l-18.389-8.167-21.677 21.676 8.168 18.391c-5.389 8.753-9.354 18.304-11.734 28.303l-18.768 7.224v30.654z" fill="#ffe177"/><path d="m318.473 343.914 6.772 3.008 21.677-21.676-8.166-18.386c5.391-8.754 9.356-18.308 11.736-28.31l18.763-7.222v-30.655l-18.768-7.224c-2.38-9.999-6.345-19.55-11.734-28.302l8.169-18.392-21.676-21.676-6.772 3.008 18.668 18.669-8.169 18.392c5.39 8.752 9.354 18.303 11.734 28.302l18.768 7.224v30.655l-18.763 7.222c-2.38 10.002-6.344 19.556-11.736 28.31l8.166 18.386zm-56.927 25.341h9.781l7.225-18.768c9.999-2.38 19.55-6.344 28.302-11.734l-5.545-2.463c-8.752 5.389-22.539 11.816-32.538 14.197zm45.314-196.011c-8.754-5.391-18.308-9.355-28.31-11.735l-7.222-18.764h-9.78l7.222 18.764c10.002 2.38 23.792 8.807 32.546 14.198zm-101.716.001-18.389-8.167-3.008 3.008 17.162 7.622c1.392-.857 2.805-1.678 4.235-2.463zm-21.397 170.669 3.008 3.008 18.386-8.166c-1.431-.785-2.843-1.606-4.235-2.463z" fill="#ffd064"/><path d="m197.865 256c0-32.111 26.025-58.135 58.135-58.135s58.135 26.025 58.135 58.135-26.025 58.135-58.135 58.135-58.135-26.025-58.135-58.135z" fill="#eceff1"/><path d="m197.865 256c0-32.111 26.025-58.135 58.135-58.135 1.369 0 2.726.051 4.072.144-30.209 2.091-54.064 27.25-54.064 57.991 0 30.74 23.854 55.9 54.064 57.99-1.346.093-2.703.144-4.072.144-32.11 0-58.135-26.024-58.135-58.134z" fill="#d1d1d6"/></g><g><path d="m28.843 108.931c1.628 6.842 4.342 13.378 8.029 19.367l-5.589 12.585 14.833 14.833 12.581-5.588c5.991 3.689 12.528 6.402 19.373 8.031l4.942 12.84h20.976l4.944-12.843c6.842-1.629 13.378-4.341 19.367-8.029l12.585 5.59 14.833-14.833-5.588-12.581c3.689-5.99 6.402-12.528 8.031-19.372l12.84-4.942v-20.978l-12.843-4.943c-1.629-6.843-4.342-13.378-8.03-19.367l5.59-12.585-14.833-14.833-12.582 5.588c-5.99-3.689-12.528-6.402-19.372-8.03l-4.942-12.84h-20.976l-4.943 12.842c-6.843 1.628-13.38 4.341-19.369 8.03l-12.584-5.589-14.833 14.831 5.589 12.585c-3.687 5.99-6.401 12.525-8.029 19.368l-12.843 4.943v20.976z" fill="#a79ba7"/><path d="m136.25 153.659 4.634 2.058 14.833-14.833-5.588-12.581c3.689-5.99 6.402-12.528 8.031-19.372l12.84-4.942v-20.978l-12.843-4.943c-1.629-6.843-4.342-13.378-8.03-19.367l5.59-12.585-14.833-14.833-4.634 2.058 12.774 12.775-5.59 12.585c3.688 5.99 6.401 12.525 8.03 19.367l12.843 4.943v20.977l-12.84 4.942c-1.628 6.844-4.342 13.382-8.031 19.372l5.588 12.581zm-38.955 17.34h6.693l4.944-12.843c6.842-1.629 13.378-4.341 19.367-8.029l-3.794-1.685c-5.989 3.688-15.423 8.086-22.266 9.715zm31.008-134.129c-5.99-3.689-12.528-6.402-19.372-8.03l-4.942-12.84h-6.693l4.942 12.84c6.845 1.628 16.281 6.026 22.271 9.716zm-69.603.001-12.584-5.589-2.058 2.058 11.744 5.216c.952-.586 1.919-1.148 2.898-1.685zm-14.643 116.788 2.058 2.058 12.581-5.588c-.979-.537-1.946-1.099-2.898-1.685z" fill="#837683"/><path d="m53.718 93.5c0-21.973 17.809-39.782 39.782-39.782s39.782 17.809 39.782 39.782c0 21.972-17.809 39.781-39.782 39.781s-39.782-17.809-39.782-39.781z" fill="#eceff1"/><path d="m53.718 93.5c0-21.973 17.809-39.782 39.782-39.782.937 0 1.866.035 2.786.099-20.671 1.43-36.995 18.647-36.995 39.683 0 21.035 16.324 38.252 36.995 39.682-.921.064-1.849.099-2.786.099-21.973 0-39.782-17.809-39.782-39.781z" fill="#d1d1d6"/></g><g><path d="m353.843 108.931c1.628 6.842 4.342 13.378 8.029 19.367l-5.589 12.585 14.833 14.833 12.581-5.588c5.99 3.689 12.528 6.402 19.372 8.031l4.942 12.84h20.976l4.944-12.843c6.842-1.629 13.378-4.341 19.367-8.029l12.585 5.59 14.833-14.833-5.588-12.581c3.689-5.99 6.402-12.528 8.031-19.372l12.84-4.942v-20.978l-12.843-4.943c-1.629-6.843-4.342-13.378-8.03-19.367l5.59-12.585-14.833-14.833-12.582 5.588c-5.99-3.689-12.528-6.402-19.372-8.03l-4.942-12.84h-20.977l-4.943 12.842c-6.843 1.628-13.38 4.341-19.369 8.03l-12.584-5.589-14.833 14.833 5.589 12.585c-3.687 5.99-6.401 12.525-8.029 19.368l-12.841 4.941v20.976z" fill="#a79ba7"/><path d="m461.25 153.659 4.634 2.058 14.833-14.833-5.588-12.581c3.689-5.99 6.402-12.528 8.031-19.372l12.84-4.942v-20.978l-12.843-4.943c-1.629-6.843-4.342-13.378-8.03-19.367l5.59-12.585-14.833-14.833-4.634 2.058 12.774 12.775-5.59 12.585c3.688 5.99 6.401 12.525 8.03 19.367l12.843 4.943v20.977l-12.84 4.942c-1.629 6.844-4.342 13.382-8.031 19.372l5.588 12.581zm-38.955 17.34h6.693l4.944-12.843c6.842-1.629 13.378-4.341 19.367-8.029l-3.794-1.685c-5.989 3.688-15.423 8.086-22.266 9.715zm31.008-134.129c-5.99-3.689-12.528-6.402-19.372-8.03l-4.942-12.84h-6.693l4.942 12.84c6.845 1.628 16.281 6.026 22.271 9.716zm-69.603.001-12.584-5.589-2.058 2.058 11.744 5.216c.952-.586 1.918-1.148 2.898-1.685zm-14.643 116.788 2.058 2.058 12.581-5.588c-.979-.537-1.946-1.099-2.898-1.685z" fill="#837683"/><path d="m378.718 93.5c0-21.973 17.809-39.782 39.782-39.782s39.781 17.809 39.781 39.782c0 21.972-17.809 39.781-39.781 39.781s-39.782-17.809-39.782-39.781z" fill="#eceff1"/><path d="m378.718 93.5c0-21.973 17.809-39.782 39.782-39.782.937 0 1.866.035 2.786.099-20.672 1.43-36.996 18.647-36.996 39.683 0 21.035 16.324 38.252 36.996 39.682-.921.064-1.849.099-2.786.099-21.973 0-39.782-17.809-39.782-39.781z" fill="#d1d1d6"/></g><g><path d="m28.843 433.931c1.628 6.842 4.342 13.378 8.029 19.367l-5.589 12.585 14.833 14.833 12.581-5.588c5.991 3.689 12.528 6.402 19.373 8.031l4.942 12.84h20.976l4.944-12.843c6.842-1.629 13.378-4.341 19.367-8.029l12.585 5.59 14.833-14.833-5.588-12.581c3.689-5.99 6.402-12.528 8.031-19.373l12.84-4.942v-20.977l-12.843-4.943c-1.629-6.843-4.342-13.378-8.03-19.367l5.59-12.585-14.833-14.833-12.582 5.588c-5.99-3.689-12.528-6.402-19.372-8.03l-4.942-12.841h-20.976l-4.943 12.842c-6.843 1.628-13.38 4.341-19.369 8.03l-12.584-5.589-14.833 14.833 5.589 12.585c-3.687 5.99-6.401 12.525-8.029 19.367l-12.843 4.943v20.976z" fill="#a79ba7"/><path d="m136.25 478.659 4.634 2.058 14.833-14.833-5.588-12.581c3.689-5.99 6.402-12.528 8.031-19.373l12.84-4.942v-20.977l-12.843-4.943c-1.629-6.843-4.342-13.378-8.03-19.367l5.59-12.585-14.833-14.833-4.634 2.058 12.774 12.775-5.59 12.585c3.688 5.99 6.401 12.525 8.03 19.367l12.843 4.943v20.977l-12.84 4.942c-1.628 6.845-4.342 13.382-8.031 19.373l5.588 12.581zm-38.955 17.34h6.693l4.944-12.843c6.842-1.629 13.378-4.341 19.367-8.029l-3.794-1.685c-5.989 3.688-15.423 8.086-22.266 9.715zm31.008-134.129c-5.99-3.689-12.528-6.402-19.372-8.03l-4.943-12.84h-6.693l4.942 12.84c6.845 1.629 16.281 6.026 22.271 9.716zm-69.603.001-12.584-5.589-2.058 2.058 11.744 5.216c.952-.586 1.919-1.148 2.898-1.685zm-14.643 116.788 2.058 2.058 12.581-5.588c-.979-.537-1.946-1.099-2.898-1.685z" fill="#837683"/><ellipse cx="93.5" cy="418.5" fill="#eceff1" rx="39.782" ry="39.781" transform="matrix(.634 -.773 .773 .634 -289.421 225.482)"/><path d="m53.718 418.5c0-21.973 17.809-39.782 39.782-39.782.937 0 1.866.035 2.786.099-20.672 1.43-36.995 18.647-36.995 39.683 0 21.035 16.324 38.252 36.995 39.682-.921.064-1.849.099-2.786.099-21.973 0-39.782-17.809-39.782-39.781z" fill="#d1d1d6"/></g><g><path d="m353.843 433.931c1.628 6.842 4.342 13.378 8.029 19.367l-5.589 12.585 14.833 14.833 12.581-5.588c5.99 3.689 12.528 6.402 19.372 8.031l4.942 12.84h20.976l4.944-12.843c6.842-1.629 13.378-4.341 19.367-8.029l12.585 5.59 14.833-14.833-5.588-12.581c3.689-5.99 6.402-12.528 8.031-19.373l12.84-4.942v-20.977l-12.843-4.943c-1.629-6.843-4.342-13.378-8.03-19.367l5.59-12.585-14.833-14.833-12.582 5.588c-5.99-3.689-12.528-6.402-19.372-8.03l-4.941-12.841h-20.977l-4.943 12.842c-6.843 1.628-13.38 4.341-19.369 8.03l-12.584-5.589-14.833 14.833 5.589 12.585c-3.687 5.99-6.401 12.525-8.029 19.367l-12.842 4.943v20.976z" fill="#a79ba7"/><path d="m461.25 478.659 4.634 2.058 14.833-14.833-5.588-12.581c3.689-5.99 6.402-12.528 8.031-19.373l12.84-4.942v-20.977l-12.843-4.943c-1.629-6.843-4.342-13.378-8.03-19.367l5.59-12.585-14.833-14.833-4.634 2.058 12.774 12.775-5.59 12.585c3.688 5.99 6.401 12.525 8.03 19.367l12.843 4.943v20.977l-12.84 4.942c-1.629 6.845-4.342 13.382-8.031 19.373l5.588 12.581zm-38.955 17.34h6.693l4.944-12.843c6.842-1.629 13.378-4.341 19.367-8.029l-3.794-1.685c-5.989 3.688-15.423 8.086-22.266 9.715zm31.008-134.129c-5.99-3.689-12.528-6.402-19.372-8.03l-4.943-12.84h-6.693l4.942 12.84c6.845 1.629 16.281 6.026 22.271 9.716zm-69.603.001-12.584-5.589-2.058 2.058 11.744 5.216c.952-.586 1.918-1.148 2.898-1.685zm-14.643 116.788 2.058 2.058 12.581-5.588c-.979-.537-1.946-1.099-2.898-1.685z" fill="#837683"/><ellipse cx="418.5" cy="418.5" fill="#eceff1" rx="39.782" ry="39.781" transform="matrix(.433 -.901 .901 .433 -139.985 614.405)"/><path d="m378.718 418.5c0-21.973 17.809-39.782 39.782-39.782.937 0 1.866.035 2.786.099-20.672 1.43-36.996 18.647-36.996 39.683 0 21.035 16.324 38.252 36.996 39.682-.921.064-1.849.099-2.786.099-21.973 0-39.782-17.809-39.782-39.781z" fill="#d1d1d6"/></g><g><circle cx="256" cy="36" fill="#8ac9fe" r="24"/><path d="m252.33 59.721c1.197.183 2.422.279 3.67.279 13.255 0 24-10.745 24-24s-10.745-24-24-24c-1.248 0-2.473.095-3.67.279 11.513 1.766 20.33 11.714 20.33 23.721s-8.817 21.954-20.33 23.721z" fill="#60b7ff"/></g><g><circle cx="36" cy="256" fill="#8ac9fe" r="24"/><path d="m32.33 279.721c1.197.183 2.422.279 3.67.279 13.255 0 24-10.745 24-24s-10.745-24-24-24c-1.248 0-2.473.095-3.67.279 11.513 1.766 20.33 11.714 20.33 23.721.001 12.007-8.817 21.954-20.33 23.721z" fill="#60b7ff"/></g><g><circle cx="476" cy="256" fill="#8ac9fe" r="24"/><path d="m472.33 279.72c1.197.184 2.422.279 3.67.279 13.255 0 24-10.745 24-24s-10.745-24-24-24c-1.248 0-2.473.095-3.67.279 11.513 1.766 20.33 11.714 20.33 23.721s-8.817 21.955-20.33 23.721z" fill="#60b7ff"/></g><g><circle cx="256" cy="476" fill="#8ac9fe" r="24"/><path d="m252.33 499.721c1.197.184 2.422.279 3.67.279 13.255 0 24-10.745 24-24s-10.745-24-24-24c-1.248 0-2.473.095-3.67.279 11.513 1.766 20.33 11.714 20.33 23.721s-8.817 21.954-20.33 23.721z" fill="#60b7ff"/></g></g><path d="m93.5 450.282c-17.519 0-31.781-14.26-31.781-31.78 0-17.521 14.262-31.781 31.781-31.781 17.533 0 31.781 14.26 31.781 31.781 0 17.519-14.248 31.78-31.781 31.78zm0-79.561c-26.34 0-47.78 21.429-47.78 47.78 0 26.349 21.44 47.78 47.78 47.78 26.349 0 47.779-21.431 47.779-47.78 0-26.351-21.43-47.78-47.779-47.78zm325 15.999c17.528 0 31.781 14.26 31.781 31.781 0 17.52-14.253 31.78-31.781 31.78-17.519 0-31.781-14.26-31.781-31.78s14.262-31.781 31.781-31.781zm0 79.561c26.349 0 47.779-21.431 47.779-47.78 0-26.351-21.43-47.78-47.779-47.78-26.34 0-47.78 21.429-47.78 47.78.001 26.349 21.44 47.78 47.78 47.78zm-325-341c-17.519 0-31.781-14.261-31.781-31.779 0-17.521 14.262-31.781 31.781-31.781 17.533 0 31.781 14.26 31.781 31.781 0 17.518-14.248 31.779-31.781 31.779zm0-79.559c-26.34 0-47.78 21.429-47.78 47.781 0 26.349 21.44 47.779 47.78 47.779 26.349 0 47.779-21.43 47.779-47.779 0-26.352-21.43-47.781-47.779-47.781zm325 79.559c-17.519 0-31.781-14.261-31.781-31.779 0-17.521 14.262-31.781 31.781-31.781 17.528 0 31.781 14.26 31.781 31.781 0 17.518-14.252 31.779-31.781 31.779zm0-79.559c-26.34 0-47.78 21.429-47.78 47.781 0 26.349 21.44 47.779 47.78 47.779 26.349 0 47.779-21.43 47.779-47.779.001-26.352-21.43-47.781-47.779-47.781zm69.502 52.77v-9.991l-7.715-2.97c-2.457-.939-4.297-3.041-4.909-5.61-1.431-6.01-3.808-11.741-7.06-17.02-1.379-2.25-1.567-5.04-.499-7.45l3.361-7.56-7.06-7.07-7.569 3.359c-2.41 1.07-5.192.889-7.441-.5-5.281-3.249-11.009-5.63-17.029-7.06-2.561-.609-4.66-2.449-5.611-4.908l-2.97-7.71h-9.988l-2.97 7.719c-.951 2.459-3.05 4.29-5.62 4.899-6.011 1.442-11.744 3.812-17.02 7.06-2.25 1.39-5.032 1.57-7.442.5l-7.569-3.359-7.06 7.07 3.361 7.56c1.068 2.41.88 5.2-.499 7.439-3.253 5.29-5.634 11.021-7.061 17.031-.612 2.569-2.452 4.67-4.914 5.61l-7.719 2.97v9.991l7.719 2.979c2.462.939 4.302 3.041 4.914 5.612 1.426 6.008 3.808 11.739 7.061 17.018 1.379 2.251 1.567 5.03.499 7.45l-3.361 7.56 7.06 7.07 7.559-3.359c2.419-1.07 5.201-.89 7.437.5 5.291 3.249 11.024 5.63 17.044 7.06 2.561.609 4.66 2.439 5.611 4.909l2.97 7.709h9.988l2.97-7.718c.951-2.461 3.05-4.291 5.611-4.911 6.02-1.43 11.748-3.8 17.029-7.049 2.25-1.39 5.032-1.582 7.441-.5l7.569 3.359 7.06-7.07-3.361-7.56c-1.068-2.408-.88-5.2.499-7.439 3.252-5.281 5.63-11.009 7.06-17.029.612-2.571 2.452-4.672 4.909-5.621zm-126.742 147.678v19.66l-13.641 5.251c-2.462.949-4.302 3.049-4.909 5.619-2.179 9.18-5.808 17.91-10.76 25.96-1.393 2.25-1.572 5.04-.503 7.45l5.935 13.361-13.904 13.909-13.377-5.941c-2.41-1.07-5.192-.879-7.442.5-8.049 4.961-16.789 8.581-25.958 10.76-2.561.61-4.66 2.451-5.611 4.91l-5.253 13.641h-19.67l-5.248-13.632c-.951-2.469-3.05-4.299-5.611-4.909-9.178-2.19-17.919-5.81-25.968-10.771-2.25-1.379-5.032-1.57-7.442-.5l-13.368 5.941-13.904-13.909 5.931-13.37c1.073-2.411.89-5.2-.499-7.441-4.947-8.059-8.581-16.789-10.76-25.96-.607-2.57-2.448-4.67-4.909-5.619l-13.641-5.251v-19.66l13.641-5.26c2.462-.939 4.302-3.039 4.909-5.61 2.179-9.169 5.813-17.899 10.76-25.96 1.388-2.25 1.572-5.03.499-7.439l-5.931-13.37 13.904-13.911 13.368 5.941c2.41 1.07 5.201.881 7.442-.5 8.058-4.959 16.79-8.579 25.968-10.759 2.561-.611 4.66-2.451 5.611-4.911l5.248-13.639h19.67l5.253 13.63c.941 2.469 3.05 4.301 5.611 4.911 9.178 2.19 17.919 5.81 25.968 10.768 2.241 1.381 5.031 1.57 7.441.5l13.368-5.941 13.904 13.911-5.94 13.37c-1.073 2.409-.885 5.2.499 7.439 4.961 8.06 8.581 16.79 10.769 25.96.607 2.57 2.438 4.67 4.909 5.61zm114.739-2.169c6.618 0 12.003 5.38 12.003 12.001 0 6.62-5.385 11.999-12.003 11.999-6.608 0-12.003-5.379-12.003-11.999.001-6.621 5.395-12.001 12.003-12.001zm-103.108 121.82-7.06 7.069 3.361 7.561c1.068 2.41.88 5.2-.499 7.441-3.253 5.29-5.634 11.019-7.061 17.029-.612 2.57-2.452 4.67-4.914 5.61l-7.719 2.97v9.991l7.719 2.981c2.462.939 4.302 3.039 4.914 5.61 1.426 6.011 3.808 11.74 7.061 17.02 1.379 2.251 1.567 5.029.499 7.45l-3.361 7.559 7.06 7.071 7.559-3.361c2.419-1.07 5.201-.89 7.437.5 5.291 3.25 11.024 5.63 17.044 7.06 2.561.61 4.66 2.44 5.611 4.911l2.97 7.709h9.988l2.97-7.721c.951-2.46 3.05-4.29 5.611-4.909 6.02-1.43 11.748-3.8 17.029-7.051 2.25-1.39 5.032-1.579 7.441-.5l7.569 3.361 7.06-7.071-3.361-7.559c-1.068-2.41-.88-5.19.499-7.441 3.252-5.279 5.63-11.01 7.06-17.029.612-2.571 2.452-4.67 4.909-5.621l7.715-2.97v-9.991l-7.715-2.97c-2.457-.939-4.297-3.039-4.909-5.61-1.431-6.01-3.808-11.739-7.06-17.02-1.379-2.25-1.567-5.04-.499-7.45l3.361-7.561-7.06-7.069-7.569 3.359c-2.41 1.07-5.192.892-7.441-.498-5.281-3.251-11.009-5.63-17.029-7.061-2.561-.61-4.66-2.44-5.611-4.911l-2.97-7.709h-9.988l-2.97 7.721c-.951 2.46-3.05 4.289-5.611 4.9-6.02 1.44-11.753 3.81-17.029 7.061-2.25 1.39-5.032 1.568-7.442.498zm-104.893 110.179c0 6.621-5.38 12.001-11.998 12.001-6.613 0-11.998-5.38-11.998-12.001 0-6.619 5.385-11.999 11.998-11.999 6.618 0 11.998 5.38 11.998 11.999zm-104.997-62.5-7.71-2.97c-2.462-.939-4.302-3.039-4.914-5.61-1.426-6.01-3.808-11.739-7.055-17.02-1.384-2.25-1.572-5.04-.504-7.45l3.361-7.561-7.06-7.069-7.569 3.359c-2.41 1.07-5.192.892-7.442-.498-5.276-3.251-11.009-5.63-17.029-7.061-2.561-.61-4.66-2.44-5.611-4.911l-2.97-7.709h-9.988l-2.97 7.721c-.951 2.46-3.05 4.289-5.62 4.909-6.011 1.43-11.739 3.801-17.02 7.052-2.25 1.39-5.032 1.568-7.442.498l-7.569-3.359-7.06 7.069 3.361 7.561c1.068 2.41.88 5.2-.499 7.45-3.252 5.281-5.634 11.009-7.06 17.02-.612 2.57-2.452 4.67-4.909 5.61l-7.724 2.97v9.991l7.724 2.981c2.457.939 4.298 3.039 4.909 5.61 1.426 6.011 3.808 11.74 7.06 17.02 1.379 2.251 1.568 5.029.499 7.45l-3.361 7.559 7.06 7.071 7.559-3.361c2.41-1.07 5.201-.89 7.442.5 5.29 3.25 11.019 5.63 17.039 7.06 2.561.61 4.66 2.44 5.611 4.911l2.97 7.709h9.988l2.97-7.721c.951-2.46 3.05-4.29 5.611-4.909 6.02-1.43 11.753-3.8 17.029-7.051 2.25-1.39 5.031-1.579 7.442-.5l7.569 3.361 7.06-7.071-3.361-7.559c-1.068-2.41-.88-5.199.504-7.441 3.248-5.279 5.629-11.01 7.055-17.029.612-2.571 2.452-4.67 4.914-5.621l7.71-2.96zm-127.001-145.5c-6.608 0-12.003-5.379-12.003-11.999 0-6.621 5.394-12.001 12.003-12.001 6.618 0 12.002 5.38 12.002 12.001.001 6.62-5.384 11.999-12.002 11.999zm103.119-121.82 7.06-7.07-3.361-7.56c-1.068-2.408-.88-5.2.504-7.439 3.248-5.281 5.629-11.009 7.055-17.029.612-2.571 2.452-4.672 4.914-5.621l7.71-2.969v-9.991l-7.71-2.97c-2.462-.939-4.302-3.041-4.914-5.61-1.426-6.01-3.808-11.741-7.055-17.02-1.384-2.25-1.572-5.04-.504-7.45l3.361-7.56-7.06-7.07-7.569 3.359c-2.41 1.07-5.192.889-7.442-.5-5.276-3.249-11.009-5.63-17.029-7.06-2.561-.609-4.66-2.449-5.611-4.908l-2.97-7.71h-9.988l-2.97 7.719c-.951 2.459-3.05 4.29-5.62 4.899-6.011 1.43-11.739 3.812-17.02 7.06-2.25 1.39-5.032 1.57-7.442.5l-7.569-3.359-7.06 7.07 3.361 7.56c1.068 2.41.88 5.2-.499 7.439-3.252 5.29-5.634 11.021-7.06 17.031-.612 2.569-2.452 4.67-4.909 5.61l-7.724 2.97v9.991l7.724 2.979c2.457.939 4.298 3.041 4.909 5.612 1.426 6.008 3.808 11.739 7.06 17.018 1.379 2.251 1.568 5.03.499 7.45l-3.361 7.56 7.06 7.07 7.559-3.359c2.419-1.07 5.201-.89 7.442.5 5.29 3.249 11.019 5.63 17.039 7.06 2.561.609 4.66 2.439 5.611 4.909l2.97 7.709h9.988l2.97-7.718c.951-2.461 3.05-4.291 5.611-4.911 6.02-1.43 11.753-3.8 17.029-7.049 2.25-1.39 5.031-1.582 7.442-.5zm104.883-110.179c0-6.618 5.385-11.998 11.998-11.998 6.618 0 11.998 5.38 11.998 11.998 0 6.621-5.38 12.001-11.998 12.001-6.613-.001-11.998-5.38-11.998-12.001zm254.877 75.45c3.093-1.181 5.121-4.15 5.121-7.46v-20.98c0-3.309-2.029-6.279-5.121-7.459l-9.051-3.49c-1.44-4.791-3.36-9.421-5.738-13.83l3.94-8.869c1.351-3.021.687-6.56-1.652-8.901l-14.827-14.83c-2.344-2.339-5.884-3.003-8.91-1.661l-8.863 3.94c-4.42-2.377-9.037-4.297-13.838-5.738l-3.478-9.042c-1.191-3.088-4.161-5.13-7.47-5.13h-20.974c-3.309 0-6.279 2.043-7.47 5.13l-3.478 9.051c-4.792 1.431-9.418 3.351-13.829 5.728l-8.872-3.94c-3.031-1.342-6.566-.678-8.91 1.661l-14.831 14.83c-2.339 2.341-2.998 5.88-1.647 8.901l3.94 8.869c-2.382 4.409-4.297 9.039-5.738 13.83l-9.051 3.49c-3.092 1.18-5.13 4.15-5.13 7.459v20.98c0 3.309 2.038 6.279 5.13 7.46l9.051 3.49c1.441 4.791 3.356 9.421 5.729 13.83l-3.93 8.871c-1.351 3.019-.692 6.559 1.647 8.899l1.76 1.76-16.3 16.301-5.177-5.182c-2.339-2.339-5.893-2.99-8.91-1.649l-14.629 6.5c-7.22-4.06-14.874-7.23-22.833-9.469l-5.74-14.931c-1.191-3.089-4.161-5.119-7.47-5.119h-7.333v-71.92c11.565-3.451 20.004-14.171 20.004-26.831 0-15.439-12.563-28.002-28.001-28.002-15.429 0-28.001 12.563-28.001 28.002 0 12.661 8.449 23.38 20 26.831v71.92h-7.319c-3.309 0-6.279 2.03-7.47 5.119l-5.752 14.931c-7.95 2.239-15.598 5.41-22.819 9.469l-14.629-6.5c-3.031-1.35-6.571-.69-8.91 1.649l-5.182 5.182-16.296-16.301 1.756-1.76c2.344-2.341 3.003-5.88 1.652-8.899l-3.939-8.871c2.382-4.41 4.297-9.039 5.742-13.83l9.047-3.49c3.093-1.181 5.121-4.15 5.121-7.46v-20.98c0-3.309-2.028-6.279-5.121-7.459l-9.047-3.49c-1.445-4.791-3.361-9.421-5.742-13.83l3.939-8.869c1.351-3.021.692-6.56-1.652-8.901l-14.827-14.83c-2.339-2.339-5.893-3.003-8.91-1.661l-8.863 3.94c-4.415-2.377-9.037-4.297-13.838-5.738l-3.478-9.042c-1.191-3.088-4.161-5.13-7.47-5.13h-20.975c-3.309 0-6.279 2.043-7.465 5.13l-3.483 9.051c-4.787 1.431-9.418 3.351-13.829 5.728l-8.868-3.94c-3.031-1.342-6.576-.678-8.91 1.661l-14.832 14.83c-2.339 2.341-3.003 5.88-1.652 8.901l3.94 8.869c-2.377 4.409-4.298 9.039-5.738 13.83l-9.051 3.49c-3.088 1.18-5.13 4.15-5.13 7.459v20.98c0 3.309 2.043 6.279 5.13 7.46l9.051 3.49c1.44 4.791 3.361 9.421 5.728 13.83l-3.93 8.871c-1.351 3.019-.687 6.559 1.652 8.899l14.832 14.83c2.335 2.341 5.879 3.001 8.91 1.661l8.858-3.94c4.41 2.379 9.037 4.3 13.838 5.74l3.483 9.04c1.186 3.089 4.156 5.13 7.465 5.13h20.974c3.309 0 6.279-2.041 7.47-5.13l3.478-9.051c4.791-1.44 9.423-3.35 13.829-5.729l8.872 3.94c3.017 1.34 6.571.68 8.91-1.661l1.751-1.759 16.309 16.309-5.182 5.181c-2.34 2.339-2.999 5.88-1.657 8.899l6.495 14.641c-4.048 7.22-7.216 14.869-9.456 22.82l-14.93 5.751c-3.093 1.19-5.131 4.15-5.131 7.459v7.331h-71.918c-3.45-11.55-14.172-20.001-26.829-20.001-15.429 0-28.001 12.56-28.001 28-.001 15.44 12.571 28 28 28 12.657 0 23.379-8.449 26.829-19.999h71.921v7.329c0 3.312 2.038 6.271 5.131 7.461l14.93 5.749c2.241 7.951 5.408 15.601 9.456 22.821l-6.495 14.639c-1.342 3.021-.683 6.561 1.657 8.901l5.182 5.18-16.309 16.299-1.751-1.75c-2.339-2.339-5.893-2.999-8.91-1.658l-8.863 3.938c-4.415-2.379-9.047-4.299-13.838-5.738l-3.478-9.04c-1.191-3.091-4.161-5.13-7.47-5.13h-20.975c-3.309 0-6.279 2.039-7.465 5.13l-3.483 9.05c-4.801 1.43-9.418 3.35-13.829 5.729l-8.868-3.938c-3.031-1.34-6.576-.681-8.91 1.658l-14.832 14.83c-2.339 2.341-3.003 5.88-1.652 8.901l3.93 8.87c-2.368 4.411-4.288 9.04-5.728 13.83l-9.051 3.49c-3.088 1.18-5.13 4.15-5.13 7.461v20.979c0 3.311 2.043 6.28 5.13 7.461l9.051 3.49c1.44 4.79 3.361 9.419 5.728 13.83l-3.93 8.87c-1.351 3.019-.687 6.56 1.652 8.901l14.832 14.828c2.335 2.35 5.879 3.001 8.91 1.66l8.858-3.94c4.41 2.381 9.037 4.301 13.838 5.74l3.483 9.04c1.186 3.089 4.156 5.13 7.465 5.13h20.974c3.309 0 6.279-2.041 7.47-5.13l3.478-9.05c4.791-1.441 9.423-3.35 13.829-5.731l8.872 3.94c3.027 1.34 6.571.69 8.91-1.66l14.827-14.828c2.344-2.34 3.003-5.882 1.652-8.901l-3.939-8.87c2.382-4.411 4.297-9.041 5.742-13.83l9.047-3.49c3.093-1.181 5.121-4.15 5.121-7.461v-20.979c0-3.311-2.028-6.28-5.121-7.461l-9.047-3.49c-1.445-4.79-3.361-9.419-5.742-13.83l3.939-8.87c1.351-3.021.692-6.56-1.652-8.901l-1.756-1.759 16.295-16.299 5.182 5.18c2.339 2.34 5.879 2.989 8.91 1.65l14.629-6.5c7.22 4.06 14.869 7.229 22.819 9.471l5.752 14.93c1.191 3.079 4.161 5.121 7.47 5.121h7.319v71.92c-11.551 3.449-20 14.17-20 26.829 0 15.441 12.572 28 28.001 28 15.439 0 28.001-12.56 28.001-28 0-12.659-8.44-23.38-20.004-26.829v-71.92h7.333c3.309 0 6.279-2.041 7.47-5.121l5.738-14.941c7.959-2.239 15.613-5.409 22.833-9.46l14.629 6.5c3.031 1.34 6.571.691 8.91-1.65l5.177-5.18 16.3 16.299-1.76 1.759c-2.339 2.341-2.998 5.88-1.647 8.901l3.94 8.87c-2.382 4.411-4.297 9.04-5.738 13.83l-9.051 3.49c-3.092 1.18-5.13 4.15-5.13 7.461v20.979c0 3.311 2.038 6.28 5.13 7.461l9.051 3.49c1.441 4.79 3.356 9.419 5.729 13.83l-3.93 8.87c-1.351 3.019-.692 6.56 1.647 8.901l14.831 14.828c2.344 2.341 5.879 3.001 8.91 1.66l8.863-3.94c4.406 2.381 9.037 4.301 13.838 5.74l3.478 9.04c1.191 3.089 4.161 5.13 7.47 5.13h20.974c3.309 0 6.279-2.041 7.47-5.13l3.478-9.05c4.792-1.441 9.418-3.35 13.829-5.731l8.872 3.94c3.017 1.34 6.566.68 8.91-1.66l14.827-14.828c2.339-2.34 3.003-5.882 1.652-8.901l-3.94-8.87c2.377-4.411 4.297-9.041 5.738-13.83l9.051-3.49c3.093-1.181 5.121-4.15 5.121-7.461v-20.979c0-3.311-2.029-6.28-5.121-7.461l-9.051-3.49c-1.44-4.79-3.36-9.419-5.738-13.83l3.94-8.87c1.351-3.021.687-6.56-1.652-8.901l-14.827-14.83c-2.344-2.339-5.884-2.999-8.91-1.658l-8.863 3.938c-4.42-2.379-9.046-4.299-13.838-5.738l-3.478-9.04c-1.191-3.091-4.161-5.13-7.47-5.13h-20.974c-3.309 0-6.279 2.039-7.47 5.13l-3.478 9.05c-4.801 1.43-9.418 3.35-13.829 5.729l-8.872-3.938c-3.031-1.34-6.566-.681-8.91 1.658l-1.76 1.761-16.3-16.31 5.182-5.18c2.339-2.34 2.999-5.88 1.648-8.901l-6.491-14.63c4.053-7.22 7.22-14.871 9.461-22.83l14.93-5.749c3.092-1.19 5.131-4.15 5.131-7.461v-7.329h71.921c3.45 11.55 14.158 19.999 26.82 19.999 15.439 0 28.001-12.56 28.001-27.999 0-15.44-12.563-28-28.001-28-12.661 0-23.37 8.45-26.82 20.001h-71.921v-7.331c0-3.309-2.038-6.269-5.131-7.459l-14.93-5.751c-2.241-7.96-5.408-15.599-9.461-22.82l6.505-14.641c1.337-3.019.678-6.561-1.662-8.899l-5.182-5.181 16.3-16.309 1.76 1.759c2.344 2.341 5.879 3.001 8.91 1.661l8.863-3.94c4.406 2.379 9.037 4.3 13.838 5.74l3.478 9.04c1.191 3.089 4.161 5.13 7.47 5.13h20.974c3.309 0 6.279-2.041 7.47-5.13l3.478-9.051c4.792-1.44 9.418-3.35 13.829-5.729l8.872 3.94c3.017 1.34 6.566.68 8.91-1.661l14.827-14.83c2.339-2.341 3.003-5.88 1.652-8.899l-3.94-8.871c2.377-4.41 4.297-9.039 5.738-13.83zm-242.879 194.68c27.648 0 50.142-22.49 50.142-50.13s-22.494-50.13-50.142-50.13c-27.639 0-50.128 22.49-50.128 50.13 0 27.641 22.489 50.13 50.128 50.13zm0-116.259c-36.46 0-66.132 29.659-66.132 66.13 0 36.469 29.672 66.13 66.132 66.13 36.469 0 66.141-29.66 66.141-66.13 0-36.472-29.672-66.13-66.141-66.13z"/></g></svg>