<?xml version="1.0" encoding="iso-8859-1"?>
<!-- Generator: Adobe Illustrator 19.0.0, SVG Export Plug-In . SVG Version: 6.00 Build 0)  -->
<svg version="1.1" id="Capa_1" xmlns="http://www.w3.org/2000/svg" xmlns:xlink="http://www.w3.org/1999/xlink" x="0px" y="0px"
	 viewBox="0 0 496 496" style="enable-background:new 0 0 496 496;" xml:space="preserve">
<g>
	<path style="fill:#E56565;" d="M205.768,400H162.24l-4.12-12.352c-3.2-1.088-6.32-2.376-9.328-3.84l-11.624,5.816l-26.704-26.704
		l11.312-11.312l18.544,18.544l8.768-4.376l3.704,2.072c4.28,2.4,8.928,4.312,13.8,5.696l4.08,1.152l3.096,9.304h20.472l3.104-9.312
		l4.08-1.152c4.864-1.384,9.512-3.296,13.8-5.696l3.704-2.072l8.768,4.376l14.472-14.472l-4.376-8.768l2.072-3.704
		c2.4-4.28,4.312-8.928,5.696-13.8l1.152-4.08l9.288-3.088V301.76l-9.312-3.104l-1.152-4.08c-1.384-4.864-3.296-9.512-5.696-13.8
		l13.952-7.832c2.328,4.16,4.288,8.568,5.848,13.16l12.36,4.128v43.528l-12.352,4.12c-1.088,3.2-2.376,6.32-3.84,9.328l5.816,11.624
		l-30.784,30.784l-11.624-5.816c-3.008,1.472-6.128,2.76-9.328,3.84L205.768,400z"/>
	<path style="fill:#E56565;" d="M114.2,351.04c-2.328-4.16-4.288-8.568-5.848-13.16L96,333.768V290.24l12.352-4.12
		c1.088-3.2,2.376-6.32,3.84-9.328l-5.816-11.624l30.784-30.784l11.624,5.816c3-1.472,6.12-2.752,9.328-3.84l4.12-12.36h43.528
		l4.12,12.352c3.208,1.088,6.328,2.376,9.328,3.84l11.624-5.816l26.704,26.704l-11.312,11.312l-18.544-18.544l-8.776,4.384
		l-3.696-2.08c-4.272-2.4-8.912-4.312-13.792-5.688l-4.08-1.152L194.232,240H173.76l-3.112,9.32l-4.08,1.152
		c-4.872,1.376-9.512,3.288-13.792,5.688l-3.696,2.08l-8.776-4.384l-14.472,14.472l4.376,8.768l-2.072,3.704
		c-2.4,4.28-4.312,8.928-5.696,13.8l-1.152,4.08L112,301.768v20.472l9.312,3.104l1.152,4.08c1.384,4.864,3.296,9.512,5.696,13.8
		L114.2,351.04z"/>
</g>
<g>
	<rect x="280" y="8" style="fill:#FFCB57;" width="208" height="48"/>
	<rect x="280" y="88" style="fill:#FFCB57;" width="208" height="48"/>
	<rect x="280" y="168" style="fill:#FFCB57;" width="208" height="48"/>
</g>
<g>
	<path style="fill:#3F3A34;" d="M256,432h96v24c0,13.232-10.768,24-24,24H40c-13.232,0-24-10.768-24-24v-24h96v-16H0v40
		c0,22.056,17.944,40,40,40h288c22.056,0,40-17.944,40-40v-40H256V432z"/>
	<path style="fill:#3F3A34;" d="M128,440c0,13.232,10.768,24,24,24h64c13.232,0,24-10.768,24-24v-24H128V440z M144,432h80v8
		c0,4.416-3.584,8-8,8h-64c-4.416,0-8-3.584-8-8V432z"/>
	<rect x="48" y="448" style="fill:#3F3A34;" width="16" height="16"/>
	<rect x="80" y="448" style="fill:#3F3A34;" width="16" height="16"/>
	<rect x="336" y="240" style="fill:#3F3A34;" width="16" height="160"/>
	<path style="fill:#3F3A34;" d="M32,200c0-13.232,10.768-24,24-24h200v-16H56c-22.056,0-40,17.944-40,40v200h16V200z"/>
	<rect x="304" y="240" style="fill:#3F3A34;" width="16" height="160"/>
	<path style="fill:#3F3A34;" d="M256,192H64c-8.824,0-16,7.176-16,16v192h16V208h192V192z"/>
	<path style="fill:#3F3A34;" d="M232,312c0-26.472-21.528-48-48-48s-48,21.528-48,48s21.528,48,48,48S232,338.472,232,312z M152,312
		c0-17.648,14.352-32,32-32s32,14.352,32,32s-14.352,32-32,32S152,329.648,152,312z"/>
	<path style="fill:#3F3A34;" d="M496,64V0H272v64h24v16h-24v64h24v16h-24v64h224v-64h-24v-16h24V80h-24V64H496z M288,16h192v32H288
		V16z M480,208H288v-32h192V208z M456,160H312v-16h144V160z M480,128H288V96h192V128z M456,80H312V64h144V80z"/>
	<path style="fill:#3F3A34;" d="M480,336c0,13.232-10.768,24-24,24h-48v16h48c22.056,0,40-17.944,40-40v-80h-16V336z"/>
	<path style="fill:#3F3A34;" d="M464,288v-32h-16v32c0,4.416-3.584,8-8,8h-32v16h32C453.232,312,464,301.232,464,288z"/>
	<path style="fill:#3F3A34;" d="M144,56c0-13.232,10.768-24,24-24h48V16h-48c-22.056,0-40,17.944-40,40v80h16V56z"/>
	<path style="fill:#3F3A34;" d="M160,104v32h16v-32c0-4.408,3.584-8,8-8h32V80h-32C170.768,80,160,90.768,160,104z"/>
</g>
<g>
	<path style="fill:#E56565;" d="M392,392c-13.232,0-24-10.768-24-24s10.768-24,24-24s24,10.768,24,24S405.232,392,392,392z M392,360
		c-4.416,0-8,3.584-8,8s3.584,8,8,8s8-3.584,8-8S396.416,360,392,360z"/>
	<path style="fill:#E56565;" d="M392,328c-13.232,0-24-10.768-24-24s10.768-24,24-24s24,10.768,24,24S405.232,328,392,328z M392,296
		c-4.416,0-8,3.584-8,8s3.584,8,8,8s8-3.584,8-8S396.416,296,392,296z"/>
	<path style="fill:#E56565;" d="M232,48c-13.232,0-24-10.768-24-24s10.768-24,24-24s24,10.768,24,24S245.232,48,232,48z M232,16
		c-4.416,0-8,3.592-8,8s3.584,8,8,8s8-3.592,8-8S236.416,16,232,16z"/>
	<path style="fill:#E56565;" d="M232,112c-13.232,0-24-10.768-24-24s10.768-24,24-24s24,10.768,24,24S245.232,112,232,112z M232,80
		c-4.416,0-8,3.592-8,8s3.584,8,8,8s8-3.592,8-8S236.416,80,232,80z"/>
</g>
<g>
</g>
<g>
</g>
<g>
</g>
<g>
</g>
<g>
</g>
<g>
</g>
<g>
</g>
<g>
</g>
<g>
</g>
<g>
</g>
<g>
</g>
<g>
</g>
<g>
</g>
<g>
</g>
<g>
</g>
</svg>
