<svg id="Layer_1" enable-background="new 0 0 512 512" height="512" viewBox="0 0 512 512" width="512" xmlns="http://www.w3.org/2000/svg"><path d="m441.192 432.981h-14.099v-201.785c0-9.784-4.218-18.6-10.929-24.73 20.98-7.588 36.016-27.704 36.016-51.269 0-29.855-24.157-54.178-53.959-54.471-8.668-19.535-28.159-32.375-49.81-32.375-7.1 0-14.146 1.396-20.686 4.069-9.709-16.547-27.556-26.946-47.007-26.946-10.858 0-20.976 3.205-29.482 8.699-9.089-6.367-20.007-9.833-31.209-9.833-7.132 0-14.179 1.392-20.688 4.06-9.701-16.541-27.546-26.936-47.005-26.936-30.053 0-54.502 24.45-54.502 54.502 0 1.068.034 2.152.101 3.246-22.38 7.062-38.114 28.109-38.114 51.975 0 30.052 24.45 54.502 54.502 54.502h73.199l2.909 4.484-3.114 7.526h-68.629c-18.455 0-33.468 15.027-33.468 33.497v201.785h-14.382c-7.044 0-12.775 5.731-12.775 12.775v4.762c0 22.065 17.951 40.017 40.017 40.017h315.873c22.065 0 40.017-17.951 40.017-40.017v-4.762c-.001-7.044-5.732-12.775-12.776-12.775zm-38.108 0v-201.785c0-5.142-4.344-9.487-9.487-9.487h-48.738v-12.009h48.738c11.853 0 21.497 9.643 21.497 21.497v201.785h-12.01zm-202.314 12h110.488v5.651c0 3.131-2.548 5.679-5.679 5.679h-99.158c-3.116 0-5.651-2.548-5.651-5.679zm-79.542-12v-199.271h45.913v3.751c0 2.834 1.982 5.281 4.754 5.869l14.147 3.002 4.386 10.581-7.864 12.121c-1.54 2.375-1.212 5.502.788 7.505l19.645 19.673c2.002 2.005 5.134 2.336 7.511.794l12.124-7.865 10.609 4.39 3 14.118c.589 2.771 3.036 4.753 5.869 4.753h27.809c2.833 0 5.28-1.982 5.869-4.753l3-14.12 10.582-4.386 12.122 7.864c2.376 1.542 5.506 1.211 7.508-.791l19.673-19.673c2.004-2.005 2.333-5.139.787-7.515l-7.883-12.114 4.404-10.581 14.126-3.002c2.771-.589 4.752-3.036 4.752-5.869v-3.751h46.225v199.271h-269.856zm74.692-224.691 6.804-16.441c.755-1.824.564-3.903-.51-5.56l-6.938-10.695 12.776-12.776 10.695 6.938c1.657 1.075 3.735 1.265 5.56.51l16.441-6.803c1.828-.756 3.165-2.364 3.575-4.299l2.648-12.48h18.088l2.648 12.48c.41 1.933 1.746 3.541 3.572 4.297l16.413 6.803c1.826.757 3.905.566 5.563-.509l10.698-6.94 12.795 12.777-6.956 10.689c-1.08 1.66-1.271 3.746-.511 5.575l6.832 16.441c.757 1.823 2.362 3.156 4.293 3.567l12.455 2.647v18.091l-12.455 2.647c-1.929.41-3.534 1.742-4.292 3.563l-6.832 16.413c-.761 1.83-.57 3.917.51 5.578l6.958 10.692-12.8 12.8-10.695-6.938c-1.658-1.075-3.738-1.266-5.563-.509l-16.413 6.803c-1.825.757-3.161 2.363-3.572 4.295l-2.646 12.454h-18.091l-2.646-12.454c-.411-1.934-1.749-3.541-3.575-4.297l-16.441-6.803c-1.824-.755-3.903-.564-5.56.511l-10.692 6.936-12.781-12.8 6.94-10.698c1.075-1.657 1.266-3.738.509-5.563l-6.804-16.413c-.757-1.826-2.364-3.162-4.297-3.572l-12.48-2.648v-18.088l12.48-2.648c1.933-.409 3.541-1.746 4.297-3.573zm123.65-125.522c.681 1.535 1.975 2.714 3.565 3.25s3.333.382 4.806-.426c6.243-3.429 13.321-5.24 20.47-5.24 18.047 0 34.169 11.438 40.117 28.464.895 2.561 3.396 4.201 6.1 4.005.897-.065 1.895-.097 3.051-.097 23.436 0 42.502 19.053 42.502 42.473 0 23.436-19.066 42.502-42.502 42.502h-4.082-68.895l-3.127-7.526 7.884-12.116c1.547-2.378 1.217-5.514-.79-7.518l-19.673-19.644c-2.002-2-5.13-2.328-7.505-.788l-12.121 7.864-10.582-4.386-3.001-14.147c-.588-2.772-3.035-4.755-5.869-4.755h-27.808c-2.834 0-5.281 1.983-5.869 4.755l-3.001 14.144-10.608 4.39-12.123-7.865c-2.376-1.541-5.506-1.211-7.508.791l-2.763 2.763c.706-19.4 14.707-36.115 33.819-40.07 3.16-.654 5.237-3.69 4.701-6.873-.358-2.126-.54-4.394-.54-6.742 0-23.436 19.066-42.501 42.502-42.501 16.777 0 32.027 9.928 38.85 25.293zm-247.751 48.42c0-20.049 14.237-37.547 33.853-41.606 3.135-.648 5.209-3.645 4.711-6.808-.366-2.324-.551-4.614-.551-6.806 0-23.436 19.066-42.502 42.502-42.502 16.79 0 32.04 9.927 38.851 25.289.682 1.539 1.979 2.72 3.574 3.256 1.598.536 3.343.377 4.815-.438 6.185-3.422 13.258-5.231 20.453-5.231 7.596 0 15.018 2.046 21.48 5.839-9.457 9.807-15.291 23.129-15.291 37.796 0 1.094.031 2.178.094 3.248-22.376 7.066-38.107 28.111-38.107 51.973 0 3.241.29 6.472.854 9.644l-5.702 5.702c-.883.883-1.419 1.988-1.635 3.147h-67.399c-23.436-.001-42.502-19.068-42.502-42.503zm25.399 100.008c0-11.854 9.63-21.497 21.468-21.497h48.455v12.01h-48.455c-5.215 0-9.458 4.256-9.458 9.487v201.785h-12.01zm344.749 219.322c0 15.448-12.568 28.017-28.017 28.017h-315.872c-15.448 0-28.017-12.568-28.017-28.017v-4.762c0-.427.348-.775.775-.775h117.934v5.651c0 9.748 7.918 17.679 17.651 17.679h99.158c9.749 0 17.679-7.931 17.679-17.679v-5.651h117.934c.413 0 .775.362.775.775zm-185.967-185.428c22.909 0 41.547-18.638 41.547-41.547 0-22.894-18.638-41.519-41.547-41.519s-41.547 18.625-41.547 41.519c0 22.909 18.638 41.547 41.547 41.547zm0-71.066c16.292 0 29.547 13.242 29.547 29.519 0 16.292-13.255 29.547-29.547 29.547s-29.547-13.255-29.547-29.547c0-16.277 13.255-29.519 29.547-29.519zm-221.713-62.836c0 3.314-2.687 6-6 6h-8.287v8.287c0 3.314-2.687 6-6 6s-6-2.686-6-6v-14.287c0-3.314 2.687-6 6-6h14.287c3.314 0 6 2.686 6 6zm-26.287 52.215v-12.927c0-3.314 2.687-6 6-6s6 2.686 6 6v12.927c0 3.314-2.687 6-6 6s-6-2.686-6-6zm0 37.928v-12.926c0-3.314 2.687-6 6-6s6 2.686 6 6v12.926c0 3.314-2.687 6-6 6s-6-2.686-6-6zm26.287 115.147c0 3.314-2.687 6-6 6h-14.287c-3.313 0-6-2.686-6-6v-14.315c0-3.314 2.687-6 6-6s6 2.686 6 6v8.315h8.287c3.314 0 6 2.686 6 6zm31.928 6h-12.926c-3.313 0-6-2.686-6-6s2.687-6 6-6h12.926c3.313 0 6 2.686 6 6s-2.686 6-6 6zm-58.215-83.218v-12.926c0-3.314 2.687-6 6-6s6 2.686 6 6v12.926c0 3.314-2.687 6-6 6s-6-2.686-6-6zm0 36.341v-11.339c0-3.314 2.687-6 6-6s6 2.686 6 6v11.339c0 3.314-2.687 6-6 6s-6-2.686-6-6zm496-164.413v14.287c0 3.314-2.687 6-6 6s-6-2.686-6-6v-8.287h-8.287c-3.313 0-6-2.686-6-6s2.687-6 6-6h14.287c3.313 0 6 2.686 6 6zm0 39.288v12.927c0 3.314-2.687 6-6 6s-6-2.686-6-6v-12.927c0-3.314 2.687-6 6-6s6 2.687 6 6zm0 37.929v12.926c0 3.314-2.687 6-6 6s-6-2.686-6-6v-12.926c0-3.314 2.687-6 6-6s6 2.686 6 6zm0 113.757v14.315c0 3.314-2.687 6-6 6h-14.287c-3.313 0-6-2.686-6-6s2.687-6 6-6h8.287v-8.315c0-3.314 2.687-6 6-6s6 2.687 6 6zm-39.261 14.316c0 3.314-2.687 6-6 6h-12.955c-3.313 0-6-2.686-6-6s2.687-6 6-6h12.955c3.314 0 6 2.686 6 6zm39.261-90.144v12.926c0 3.314-2.687 6-6 6s-6-2.686-6-6v-12.926c0-3.314 2.687-6 6-6s6 2.686 6 6zm0 37.928v11.339c0 3.314-2.687 6-6 6s-6-2.686-6-6v-11.339c0-3.314 2.687-6 6-6s6 2.686 6 6z" fill="#2d5ede"/><path d="m415.094 432.981v-201.785c0-11.854-9.644-21.497-21.497-21.497h-48.738v12.01h48.738c5.143 0 9.487 4.344 9.487 9.487v201.785z" fill="#66c6ff"/><path d="m206.421 456.311h99.158c3.131 0 5.679-2.548 5.679-5.679v-5.651h-110.488v5.651c0 3.131 2.535 5.679 5.651 5.679z" fill="#b7e5fc"/><g fill="#66c6ff"><path d="m195.918 238.82 6.804 16.413c.757 1.825.566 3.906-.509 5.563l-6.94 10.698 12.781 12.8 10.692-6.936c1.656-1.075 3.735-1.265 5.56-.511l16.441 6.803c1.827.756 3.164 2.363 3.575 4.297l2.646 12.454h18.091l2.646-12.454c.411-1.932 1.747-3.539 3.572-4.295l16.413-6.803c1.825-.757 3.905-.566 5.563.509l10.695 6.938 12.8-12.8-6.958-10.692c-1.081-1.661-1.271-3.749-.51-5.578l6.832-16.413c.758-1.821 2.363-3.153 4.292-3.563l12.455-2.647v-18.091l-12.455-2.647c-1.931-.41-3.536-1.744-4.293-3.567l-6.832-16.441c-.76-1.829-.569-3.915.511-5.575l6.956-10.689-12.795-12.777-10.698 6.94c-1.658 1.075-3.737 1.266-5.563.509l-16.413-6.803c-1.826-.757-3.162-2.364-3.572-4.297l-2.648-12.48h-18.087l-2.648 12.48c-.41 1.935-1.748 3.542-3.575 4.299l-16.441 6.803c-1.824.754-3.902.564-5.56-.51l-10.695-6.938-12.776 12.776 6.938 10.695c1.074 1.656 1.265 3.735.51 5.56l-6.804 16.441c-.756 1.827-2.364 3.165-4.298 3.575l-12.48 2.648v18.086l12.48 2.648c1.934.411 3.541 1.747 4.297 3.572zm60.082-56.796c22.909 0 41.547 18.625 41.547 41.519 0 22.909-18.638 41.547-41.547 41.547s-41.547-18.638-41.547-41.547c0-22.894 18.638-41.519 41.547-41.519z"/><path d="m109.228 231.196c0-5.231 4.243-9.487 9.458-9.487h48.455v-12.009h-48.455c-11.838 0-21.468 9.643-21.468 21.497v201.785h12.01z"/><path d="m323.258 450.632c0 9.748-7.931 17.679-17.679 17.679h-99.158c-9.733 0-17.651-7.931-17.651-17.679v-5.651h-117.934c-.427 0-.775.348-.775.775v4.762c0 15.448 12.568 28.017 28.017 28.017h315.873c15.448 0 28.017-12.568 28.017-28.017v-4.762c0-.413-.362-.775-.775-.775h-117.935z"/></g><path d="m238.757 106.719c.537 3.182-1.541 6.219-4.701 6.873-19.113 3.955-33.113 20.669-33.819 40.07l2.763-2.763c2.002-2.002 5.132-2.332 7.508-.791l12.123 7.865 10.608-4.39 3.001-14.144c.588-2.772 3.035-4.755 5.869-4.755h27.809c2.834 0 5.281 1.983 5.869 4.755l3.001 14.147 10.582 4.386 12.121-7.864c2.375-1.54 5.503-1.212 7.505.788l19.673 19.644c2.007 2.004 2.336 5.14.79 7.518l-7.884 12.116 3.127 7.526h68.895 4.082c23.436 0 42.502-19.066 42.502-42.502 0-23.42-19.066-42.473-42.502-42.473-1.156 0-2.153.032-3.051.097-2.705.196-5.206-1.445-6.1-4.005-5.948-17.026-22.069-28.464-40.117-28.464-7.149 0-14.227 1.812-20.47 5.24-1.473.808-3.215.962-4.806.426s-2.884-1.715-3.565-3.25c-6.824-15.364-22.074-25.292-38.852-25.292-23.436 0-42.502 19.066-42.502 42.501.001 2.346.182 4.615.541 6.741z" fill="#b7e5fc"/><path d="m114.321 173.69h67.399c.216-1.159.753-2.264 1.635-3.147l5.702-5.702c-.564-3.172-.854-6.402-.854-9.644 0-23.862 15.731-44.907 38.107-51.973-.062-1.07-.094-2.154-.094-3.248 0-14.667 5.834-27.989 15.291-37.796-6.463-3.793-13.885-5.839-21.48-5.839-7.195 0-14.268 1.809-20.453 5.231-1.472.814-3.218.974-4.815.438-1.595-.536-2.892-1.717-3.574-3.256-6.811-15.362-22.061-25.289-38.851-25.289-23.436 0-42.502 19.066-42.502 42.502 0 2.192.186 4.482.551 6.806.498 3.163-1.576 6.159-4.711 6.808-19.616 4.06-33.853 21.557-33.853 41.606 0 23.436 19.066 42.503 42.502 42.503z" fill="#66c6ff"/></svg>