<svg id="Layer_1" height="512" viewBox="0 0 64 64" width="512" xmlns="http://www.w3.org/2000/svg"><g id="Layer_6"><circle cx="32.005" cy="31.995" fill="#a2dfe9" r="32"/><path d="m21.005 56.995h22v1h-22z" fill="#ccc"/><path d="m39.005 56.995h-14l1-7h12z" fill="#adadad"/><path d="m56.005 44.995v4c0 .55-.45 1-1 1h-46c-.55 0-1-.45-1-1v-4z" fill="#ccc"/><path d="m10.005 14.995h44v28h-44z" fill="#fff"/><g><path d="m55.005 12.995h-46c-.55 0-1 .45-1 1v31h48v-31c0-.55-.45-1-1-1zm-1 30h-44v-28h44z" fill="#3b3b3b"/></g><path d="m10.005 14.995h44v28h-44z" fill="#fff"/><g><path d="m34.005 32.995h13v1h-13z" fill="#ccc"/></g><g><path d="m34.005 29.995h13v1h-13z" fill="#ccc"/></g><g><path d="m34.005 26.995h13v1h-13z" fill="#ccc"/></g><g><path d="m34.005 23.995h13v1h-13z" fill="#ccc"/></g><g><path d="m34.005 20.995h13v1h-13z" fill="#ccc"/></g><g><path d="m34.005 17.995h13v1h-13z" fill="#ccc"/></g><g><path d="m34.005 35.995h13v1h-13z" fill="#ccc"/></g><g><path d="m34.005 38.995h13v1h-13z" fill="#ccc"/></g><g><path d="m17.005 32.995h14v1h-14z" fill="#ccc"/></g><g><path d="m17.005 29.995h14v1h-14z" fill="#ccc"/></g><g><path d="m17.005 26.995h14v1h-14z" fill="#ccc"/></g><g><path d="m17.005 23.995h14v1h-14z" fill="#ccc"/></g><g><path d="m17.005 20.995h14v1h-14z" fill="#ccc"/></g><g><path d="m17.005 17.995h14v1h-14z" fill="#ccc"/></g><g><path d="m17.005 35.995h14v1h-14z" fill="#ccc"/></g><g><path d="m17.005 38.995h14v1h-14z" fill="#ccc"/></g></g></svg>