<svg id="Layer_1" enable-background="new 0 0 512 512" height="512" viewBox="0 0 512 512" width="512" xmlns="http://www.w3.org/2000/svg"><g clip-rule="evenodd" fill-rule="evenodd"><g><g><ellipse cx="400.052" cy="75.971" fill="#8ac9fe" rx="20" ry="20" transform="matrix(.987 -.16 .16 .987 -7.004 65.062)"/><path d="m400.053 55.971c11.045 0 20 8.954 20 20s-8.954 20-20 20c-1.183 0-2.342-.104-3.469-.301 9.392-1.642 16.532-9.837 16.532-19.699s-7.139-18.057-16.532-19.699c1.127-.198 2.286-.301 3.469-.301z" fill="#60b7ff"/><ellipse cx="459.722" cy="264.432" fill="#8ac9fe" rx="20" ry="20" transform="matrix(.707 -.707 .707 .707 -52.332 402.523)"/><path d="m459.722 244.432c11.046 0 20 8.954 20 20s-8.954 20-20 20c-1.183 0-2.342-.103-3.468-.301 9.392-1.642 16.532-9.837 16.532-19.699 0-9.863-7.139-18.057-16.532-19.699 1.126-.198 2.285-.301 3.468-.301z" fill="#60b7ff"/><ellipse cx="436.85" cy="340.297" fill="#8ac9fe" rx="20" ry="20" transform="matrix(.987 -.16 .16 .987 -48.869 74.37)"/><path d="m436.85 320.297c11.046 0 20 8.954 20 20s-8.954 20-20 20c-1.183 0-2.342-.103-3.468-.301 9.392-1.642 16.532-9.837 16.532-19.699s-7.139-18.057-16.532-19.699c1.126-.197 2.285-.301 3.468-.301z" fill="#60b7ff"/><ellipse cx="75.151" cy="340.298" fill="#8ac9fe" rx="20" ry="20" transform="matrix(.973 -.23 .23 .973 -76.174 26.369)"/><path d="m75.152 320.298c11.045 0 20 8.954 20 20s-8.954 20-20 20c-1.183 0-2.342-.104-3.469-.301 9.392-1.642 16.532-9.837 16.532-19.699s-7.139-18.057-16.532-19.699c1.127-.198 2.285-.301 3.469-.301z" fill="#60b7ff"/><circle cx="52.278" cy="220.024" fill="#8ac9fe" r="20"/><path d="m52.279 200.024c11.045 0 20 8.954 20 20s-8.954 20-20 20c-1.183 0-2.342-.104-3.468-.301 9.392-1.642 16.532-9.837 16.532-19.699 0-9.863-7.139-18.057-16.532-19.699 1.126-.198 2.284-.301 3.468-.301z" fill="#60b7ff"/><circle cx="56.642" cy="84.026" fill="#8ac9fe" r="20"/><path d="m56.642 64.026c11.046 0 20 8.954 20 20s-8.954 20-20 20c-1.183 0-2.342-.103-3.468-.301 9.392-1.642 16.532-9.837 16.532-19.699s-7.139-18.057-16.532-19.699c1.126-.197 2.285-.301 3.468-.301z" fill="#60b7ff"/><ellipse cx="143.712" cy="35.697" fill="#8ac9fe" rx="20" ry="20" transform="matrix(.973 -.23 .23 .973 -4.357 33.973)"/><path d="m143.712 15.697c11.046 0 20 8.954 20 20s-8.954 20-20 20c-1.183 0-2.342-.104-3.468-.301 9.392-1.642 16.532-9.837 16.532-19.699 0-9.863-7.139-18.057-16.532-19.699 1.126-.198 2.285-.301 3.468-.301z" fill="#60b7ff"/></g><g><path d="m285.408 96.803c13.04 3.103 25.495 8.273 36.909 15.301l23.984-10.652 28.268 28.268-10.649 23.977c7.031 11.416 12.201 23.876 15.304 36.92l24.47 9.418v39.976l-24.475 9.421c-3.104 13.041-8.274 25.495-15.302 36.91l10.652 23.984-28.268 28.268-23.977-10.649c-11.416 7.031-23.876 12.201-36.919 15.304l-9.418 24.47h-39.976l-9.421-24.476c-13.041-3.103-25.495-8.273-36.909-15.301l-23.984 10.652-28.268-28.268 10.649-23.977c-7.031-11.416-12.201-23.876-15.304-36.919l-24.47-9.418v-39.976l24.473-9.42c3.104-13.041 8.274-25.498 15.303-36.913l-10.651-23.982 28.268-28.268 23.984 10.652c11.414-7.028 23.869-12.198 36.909-15.301l9.421-24.476h39.975z" fill="#ffe177"/><path d="m189.682 327.941-23.984 10.652-3.693-3.693 22.487-9.987c1.707 1.051 3.437 2.061 5.19 3.028zm95.726-231.138c13.04 3.103 25.495 8.273 36.909 15.301l-6.817 3.028c-11.414-7.028-29.06-15.226-42.1-18.329l-9.421-24.476h12.008zm36.918 231.141c-11.416 7.031-23.876 12.201-36.919 15.304l-9.418 24.47h-12.009l9.418-24.47c13.043-3.103 30.693-11.301 42.109-18.332zm-160.322-222.799 3.693-3.693 23.984 10.652c-1.752.967-3.483 1.977-5.19 3.028zm175.983 0 8.315-3.693 28.268 28.268-10.649 23.977c7.031 11.416 12.201 23.876 15.304 36.92l24.47 9.418v39.976l-24.475 9.421c-3.104 13.041-8.274 25.495-15.302 36.91l10.652 23.984-28.268 28.268-8.315-3.693 24.574-24.575-10.652-23.984c7.028-11.414 12.198-23.869 15.302-36.91l24.475-9.421v-39.976l-24.47-9.418c-3.104-13.044-8.274-25.504-15.304-36.92l10.649-23.977z" fill="#ffd064"/></g><g><path d="m318.279 177.53v101.227c0 10.539-8.624 19.163-19.163 19.163h-86.232c-10.539 0-19.163-8.623-19.163-19.163v-94.842l58.176-37.076z" fill="#eceff1"/><path d="m318.279 177.53v101.227c0 10.539-8.624 19.163-19.163 19.163h-9.167c10.539 0 19.163-8.624 19.163-19.163v-101.227l-61.069-28.234 3.854-2.456z" fill="#d1d1d6"/><path d="m283.062 233.121v64.799h-53.745v-64.799c0-3.029 2.471-5.5 5.5-5.5h42.746c3.029.001 5.499 2.471 5.499 5.5z" fill="#f1ba84"/><path d="m238.484 297.921h-9.167v-64.799c0-3.029 2.471-5.5 5.5-5.5h9.167c-3.029 0-5.5 2.471-5.5 5.5z" fill="#e3a76f"/><path d="m185.601 210.931c-5.993 4.343-14.372 3.005-18.715-2.988s-3.005-14.372 2.988-18.715l78.263-56.861c4.895-3.547 11.38-3.304 15.959.169l78.03 56.692c5.993 4.343 7.331 12.722 2.988 18.715s-12.722 7.331-18.715 2.988l-70.399-51.148z" fill="#fe646f"/><path d="m240.73 137.749 7.407-5.382c4.895-3.547 11.38-3.304 15.959.169l78.03 56.692c5.993 4.343 7.331 12.722 2.988 18.715-1.831 2.527-4.38 4.226-7.164 5.021 4.026-5.963 2.623-14.089-3.248-18.343l-78.03-56.692c-4.574-3.469-11.05-3.715-15.942-.18z" fill="#fd4755"/></g><g><path d="m72.195 411.197 58.709-34.014c11.018-6.384 22.222-10.91 34.333-6.981 13.503 4.379 35.551 13.781 58.037 17.837 8.346 2.706 13.55 11.063 11.279 19.537-2.271 8.475-9.432 12.845-19.537 11.282l7.86 1.258c9.007 1.441 17.28.207 25.163-4.383l56.446-32.877c43.877-25.554 50.322 13.759 35.733 22.741l-102.436 63.076c-9.421 5.8-19.73 7.153-30.417 4.289l-74.299-19.909-27.516 15.886c-5.29 3.054-12.097 1.231-15.151-4.06l-22.25-38.539c-3.051-5.286-1.235-12.084 4.046-15.143z" fill="#f6dccd"/><path d="m233.215 411.091c-3.137 6.132-9.602 9.096-18.198 7.766-12.171-3.218-24.327-6.518-36.488-9.776-3.257-.873-5.19-4.221-4.317-7.478.872-3.257 4.221-5.19 7.478-4.317z" fill="#f1cbbc"/><path d="m72.195 411.197 58.71-34.014c11.018-6.384 22.222-10.91 34.333-6.981 7.224 2.342 16.895 6.123 27.769 9.754l-113.729 65.661-11.129-19.277c-3.052-5.285-1.235-12.083 4.046-15.143z" fill="#f1cbbc"/><path d="m78.049 392.672 46.561 82.27c2.252 3.978.839 9.075-3.139 11.326l-15.837 8.963c-3.978 2.251-9.075.839-11.326-3.139l-46.561-82.271c-2.251-3.978-.838-9.074 3.139-11.326l15.838-8.963c3.977-2.251 9.074-.838 11.325 3.14z" fill="#d1d1d6"/><path d="m102.537 449.196 8.241 14.562 8.15 14.4c2.247 3.97.844 9.054-3.115 11.312l5.657-3.202c3.978-2.252 5.391-7.348 3.139-11.326l-8.177-14.448-16.419-29.011-16.438-29.044-5.528-9.767c-1.95-3.446-6.036-4.966-9.679-3.848l9.57 16.91 16.419 29.011 8.177 14.448z" fill="#b1b1b5"/></g></g><path d="m471.128 264.13c0 6.281-5.131 11.39-11.391 11.39-6.307 0-11.438-5.109-11.438-11.39 0-6.29 5.131-11.399 11.438-11.399 6.26 0 11.391 5.109 11.391 11.399zm-75.451-29.92-19.345 7.45c-2.448.951-4.284 3.05-4.895 5.62-2.918 12.209-7.719 23.84-14.356 34.559-1.365 2.251-1.553 5.031-.471 7.441l8.425 18.969-20.522 20.5-18.922-8.421c-2.448-1.07-5.225-.879-7.437.5-10.732 6.601-22.405 11.42-34.596 14.331-2.589.61-4.66 2.451-5.601 4.91l-7.484 19.339h-28.994l-7.437-19.339c-.941-2.471-3.012-4.301-5.601-4.91-12.191-2.911-23.817-7.73-34.549-14.34-2.259-1.381-5.036-1.561-7.484-.491l-18.922 8.421-20.522-20.5 8.425-18.96c1.083-2.41.894-5.19-.518-7.439-6.589-10.721-11.391-22.351-14.309-34.581-.612-2.56-2.448-4.659-4.942-5.61l-19.298-7.45v-28.99l19.345-7.441c2.447-.949 4.283-3.05 4.895-5.618 2.918-12.21 7.719-23.851 14.309-34.57 1.412-2.241 1.6-5.031.518-7.441l-8.425-18.96 20.522-20.501 18.922 8.421c2.447 1.07 5.225.889 7.484-.5 10.732-6.6 22.358-11.42 34.549-14.33 2.542-.61 4.66-2.449 5.601-4.909l7.437-19.349h28.994l7.484 19.349c.941 2.461 3.012 4.299 5.601 4.909 12.191 2.91 23.817 7.73 34.549 14.33 2.259 1.39 5.036 1.57 7.437.5l18.969-8.421 20.522 20.501-8.425 18.96c-1.082 2.411-.894 5.19.518 7.441 6.59 10.719 11.391 22.348 14.309 34.57.612 2.568 2.447 4.67 4.895 5.618l19.345 7.441zm41.185 94.39c6.26 0 11.391 5.109 11.391 11.39 0 6.29-5.13 11.4-11.391 11.4-6.307 0-11.391-5.109-11.391-11.4 0-6.281 5.084-11.39 11.391-11.39zm-361.724 22.789c-6.26 0-11.391-5.109-11.391-11.4 0-6.281 5.13-11.39 11.391-11.39 6.307 0 11.39 5.109 11.39 11.39.001 6.291-5.083 11.4-11.39 11.4zm-22.875-120.279c-6.26 0-11.39-5.11-11.39-11.39 0-6.279 5.13-11.391 11.39-11.391 6.307 0 11.391 5.112 11.391 11.391-.001 6.281-5.084 11.39-11.391 11.39zm4.377-135.999c-6.26 0-11.391-5.109-11.391-11.39s5.13-11.39 11.391-11.39c6.26 0 11.39 5.109 11.39 11.39.001 6.281-5.13 11.39-11.39 11.39zm87.077-48.321c-6.307 0-11.391-5.119-11.391-11.399 0-6.281 5.084-11.389 11.391-11.389 6.26 0 11.391 5.107 11.391 11.389 0 6.28-5.131 11.399-11.391 11.399zm256.337 17.48c-6.26 0-11.391 5.111-11.391 11.401 0 6.279 5.13 11.39 11.391 11.39 6.26 0 11.391-5.112 11.391-11.39 0-6.29-5.131-11.401-11.391-11.401zm32.289 199.86c0 15.101 12.285 27.39 27.394 27.39 15.062 0 27.394-12.29 27.394-27.39 0-12.33-8.19-22.77-19.392-26.2v-18.21c0-2.12-.847-4.159-2.353-5.66-1.506-1.5-3.53-2.34-5.648-2.34h-48.058v-11.99c0-3.309-2.024-6.281-5.13-7.47l-20.616-7.93c-2.965-11.01-7.343-21.56-13.038-31.47l8.99-20.199c1.318-3.021.659-6.56-1.647-8.9l-8.473-8.48 15.439-15.441c3.813 2.05 8.19 3.222 12.85 3.222 15.109 0 27.394-12.291 27.394-27.39 0-15.11-12.285-27.401-27.394-27.401s-27.394 12.291-27.394 27.401c0 4.639 1.177 9.018 3.201 12.859l-15.439 15.441-8.472-8.482c-2.354-2.339-5.884-2.999-8.896-1.649l-20.192 8.971c-9.931-5.682-20.475-10.05-31.489-13.041l-7.908-20.62c-1.224-3.089-4.189-5.13-7.484-5.13h-12.003v-28.63c0-4.422-3.577-7.999-7.955-7.999h-86.089c-3.436-11.212-13.885-19.392-26.217-19.392-15.109 0-27.394 12.29-27.394 27.392 0 15.11 12.285 27.398 27.394 27.398 12.332 0 22.781-8.178 26.217-19.399h78.087v20.629h-12.003c-3.295 0-6.307 2.041-7.484 5.13l-7.908 20.62c-11.014 2.991-21.557 7.36-31.489 13.041l-20.193-8.971c-3.012-1.35-6.543-.69-8.896 1.649l-8.473 8.482-25.933-25.901c-1.459-1.509-3.53-2.35-5.648-2.35h-37.137c-3.436-11.21-13.885-19.39-26.217-19.39-15.109 0-27.394 12.289-27.394 27.39 0 15.11 12.285 27.39 27.394 27.39 12.332 0 22.781-8.171 26.217-19.39h33.842l23.534 23.56-8.472 8.48c-2.306 2.34-3.012 5.88-1.647 8.9l8.99 20.21c-5.695 9.908-10.073 20.458-13.085 31.459l-20.569 7.941c-3.106 1.178-5.131 4.15-5.131 7.459v11.99h-21.84c-3.436-11.21-13.885-19.39-26.217-19.39-15.109 0-27.394 12.28-27.394 27.39 0 15.101 12.285 27.39 27.394 27.39 12.332 0 22.781-8.18 26.217-19.39h21.84v11.989c0 3.312 2.024 6.272 5.131 7.461l20.569 7.939c3.012 11.01 7.39 21.56 13.085 31.47l-8.99 20.201c-1.365 3.019-.659 6.56 1.647 8.899l8.472 8.48-7.813 7.831h-31.065c-3.436-11.209-13.886-19.389-26.218-19.389-15.109 0-27.394 12.289-27.394 27.39 0 15.11 12.285 27.399 27.394 27.399 12.332 0 22.781-8.178 26.217-19.399h34.36c2.118 0 4.189-.84 5.648-2.34l10.214-10.179 8.473 8.48c2.353 2.341 5.884 3.001 8.896 1.649l20.193-8.968c9.932 5.679 20.475 10.05 31.489 13.039l7.908 20.62c1.177 3.089 4.189 5.119 7.484 5.119h39.962c3.295 0 6.26-2.03 7.484-5.119l7.908-20.611c11.014-2.989 21.558-7.369 31.489-13.048l20.192 8.968c3.013 1.341 6.59.692 8.896-1.649l8.472-8.48 10.167 10.179c1.553 1.5 3.577 2.34 5.695 2.34h34.361c3.436 11.221 13.885 19.399 26.217 19.399 15.109 0 27.394-12.289 27.394-27.399 0-15.101-12.285-27.39-27.394-27.39-12.332 0-22.781 8.18-26.217 19.39h-31.066l-7.813-7.831 8.473-8.48c2.306-2.339 2.965-5.88 1.647-8.91l-8.99-20.199c5.695-9.91 10.073-20.46 13.038-31.461l20.616-7.939c3.106-1.189 5.13-4.15 5.13-7.461v-11.989h40.055v10.21c-11.25 3.431-19.393 13.871-19.393 26.2zm-93.714-61.189c1.742-2.41 1.224-5.79-1.177-7.54l-78.04-56.699c-.047-.032-.094-.061-.141-.09-1.883-1.43-4.519-1.451-6.449-.07l-78.228 56.86c-1.177.849-1.977 2.1-2.212 3.519-.188 1.43.141 2.861.988 4.021 1.742 2.411 5.131 2.96 7.531 1.219l70.368-51.149c1.412-1.02 3.059-1.532 4.754-1.532 1.647 0 3.295.511 4.66 1.532l70.415 51.149c1.177.84 2.589 1.18 4.001.951 1.459-.232 2.683-1.002 3.53-2.171zm-39.538 86.68c6.166 0 11.203-5.01 11.203-11.172v-69.649l-54.271-39.429-54.317 39.429v69.649c0 6.161 5.037 11.172 11.156 11.172h8.473v-60.631c0-6.249 5.083-11.341 11.296-11.341h47.069c6.26 0 11.344 5.092 11.344 11.341v60.631zm-24.052 0v-55.972h-37.749v55.972zm71.78-107.17-77.946-56.65c-7.578-5.681-17.792-5.771-25.464-.212l-78.228 56.862c-9.555 6.919-11.72 20.329-4.801 29.879 5.884 8.11 16.427 10.859 25.323 7.279v58.84c0 14.981 12.191 27.171 27.159 27.171h86.23c15.015 0 27.206-12.19 27.206-27.171v-58.82c2.495 1.02 5.178 1.55 7.908 1.55 1.13 0 2.306-.09 3.436-.27 5.648-.899 10.591-3.95 13.932-8.579 3.389-4.629 4.707-10.279 3.813-15.929-.896-5.641-3.955-10.6-8.568-13.95zm-273.046 227.019c.471 3.091-1.694 5.961-4.754 6.409-3.106.45-5.978-1.69-6.448-4.779-.424-3.091 1.695-5.961 4.801-6.411 3.106-.448 5.978 1.692 6.401 4.781zm262.267-10.96-102.469 63.08c-7.39 4.551-15.533 5.691-24.146 3.37l-74.322-19.909c-2.024-.54-4.236-.261-6.072.8l-8.661 5.02-24.994-44.16 39.538-22.88c12.049-6.979 20.098-8.811 27.818-6.299 3.389 1.099 7.342 2.519 11.908 4.168 13.132 4.76 29.512 10.671 46.598 13.821 4.236 1.599 6.636 5.699 5.554 9.71-.423 1.599-1.742 6.42-9.696 5.551-8.143-1.681-15.956-3.902-24.193-6.261-4.001-1.131-8.096-2.309-12.332-3.44-4.283-1.14-8.661 1.39-9.79 5.66-1.13 4.26 1.412 8.651 5.648 9.791 4.095 1.099 8.143 2.259 12.049 3.379 8.708 2.471 16.898 4.81 25.794 6.63.047.011.236.052.283.061l7.013 1.14c11.249 1.791 21.181.04 30.5-5.371l56.436-32.88c14.45-8.41 25.699-9.789 29.371-3.618 2.59 4.317 1.178 10.778-1.835 12.637zm-218.352 80.3c.047-.131 0-.21-.047-.239l-46.551-82.271c-.047-.099-.188-.149-.283-.149-.047 0-.094.009-.141.029l-15.862 8.96c0 .02-.094.061-.094.192-.047.139 0 .21 0 .238l46.551 82.281c.094.13.283.189.424.11l15.862-8.961c0-.01.094-.06.141-.19zm182.769-103.151-56.436 32.88c-.612.351-1.177.66-1.789.962 0-.041 0-.09.047-.13 3.295-12.31-3.954-25.14-16.568-29.221-.329-.109-.659-.199-1.035-.259-15.956-2.879-31.866-8.62-44.621-13.24-4.471-1.62-8.755-3.161-12.379-4.339-15.58-5.051-29.371 1.039-40.809 7.669l-39.397 22.799-2.447-4.361c-4.425-7.829-14.403-10.6-22.264-6.169l-15.815 8.969c-3.765 2.14-6.496 5.641-7.672 9.84-1.177 4.211-.612 8.61 1.506 12.391l46.551 82.28c2.165 3.78 5.648 6.509 9.884 7.669 1.412.41 2.918.601 4.377.601 2.777 0 5.507-.711 8.002-2.111l15.815-8.971c3.813-2.14 6.496-5.63 7.672-9.839 1.177-4.201.659-8.601-1.506-12.391l-3.342-5.9 5.931-3.42 71.121 19.05c4.236 1.14 8.472 1.71 12.661 1.71 8.425 0 16.568-2.329 24.005-6.909l102.469-63.091c10.638-6.561 14.074-22.99 7.202-34.48-3.294-5.528-16.803-22.008-51.163-1.989z"/></g></svg>