<svg id="Layer_1" enable-background="new 0 0 468 468" height="512" viewBox="0 0 468 468" width="512" xmlns="http://www.w3.org/2000/svg"><g><g><g fill="#e6e6de"><path id="XMLID_48_" d="m67.965 242.913h55.7v67.24h-55.7z"/><path id="XMLID_47_" d="m67.965 377.393h56.66v67.607h-56.66z"/><path id="XMLID_46_" d="m332.553 377.393h48.33v67.607h-48.33z"/><path id="XMLID_45_" d="m228.349 310.153h70.109v67.24h-70.109z"/></g><g fill="#fff"><path id="XMLID_44_" d="m332.072 242.913h48.811v67.24h-48.811z"/><path id="XMLID_43_" d="m124.626 377.393v67.607h68.669v-67.607c-23.29 0-45.619 0-68.669 0z"/><path id="XMLID_42_" d="m262.684 377.393h69.869v67.607h-69.869z"/><path id="XMLID_41_" d="m157.76 310.153v67.24h70.589v-67.24c-24.01 0-47.54 0-70.589 0z"/><path id="XMLID_40_" d="m298.458 310.153h82.425v67.24h-82.425z"/><path id="XMLID_36_" d="m123.665 242.913h69.389v67.24h-69.389z"/></g><g><path id="XMLID_114_" d="m262.958 242.913-.096 67.24h69.211v-67.24z" fill="#ff5477"/><path d="m322.072 265.352c-5.523 0-10 4.477-10 10v14.801h-15.344c-5.523 0-10 4.477-10 10 0 5.523 4.477 10 10 10h35.344v-34.801c.001-5.523-4.477-10-10-10z" fill="#e5305c"/></g><g><path id="XMLID_124_" d="m67.965 310.153h89.794v67.24h-89.794z" fill="#ff5477"/><g><path d="m147.76 343.773c-5.523 0-10 4.477-10 10v3.62h-31.464c-5.523 0-10 4.477-10 10 0 5.523 4.477 10 10 10h51.464v-23.62c0-5.523-4.477-10-10-10z" fill="#e5305c"/><path d="m87.966 330.153h39.61c5.523 0 10-4.477 10-10 0-5.523-4.477-10-10-10h-59.61v35.898c0 5.523 4.477 10 10 10 5.523 0 10-4.477 10-10z" fill="#fff"/></g></g><g><path id="XMLID_131_" d="m193.295 377.393h69.389v67.607h-69.389z" fill="#ff5477"/><path d="m213.295 425v-8.949c0-5.523-4.477-10-10-10-5.523 0-10 4.477-10 10v28.949h33.435c5.523 0 10-4.477 10-10 0-5.523-4.477-10-10-10z" fill="#e5305c"/><path d="m222.322 387.393c0 5.523 4.477 10 10 10h10.361v12.217c0 5.523 4.477 10 10 10 5.523 0 10-4.477 10-10v-32.217h-30.361c-5.523 0-10 4.477-10 10z" fill="#fff"/></g></g><g><path id="XMLID_115_" d="m341.289 73.839c-47.077 7.362-84.272-13.543-114.321-45.138l-6.198 7.108c-29.815 34.072-74.588 44.828-118.279 36.272 6.807 100.61 16.894 199.106 125.149 239.542 107.596-41.233 118.131-138.87 124.925-239.542z" fill="#fcd259"/><path d="m227.719 231.398c-4.402 0-7.979-3.559-7.999-7.965l-.191-44.419c-.019-4.418 3.547-8.016 7.966-8.035h.035c4.402 0 7.979 3.559 7.999 7.965l.191 44.419c.019 4.418-3.547 8.016-7.966 8.035-.012 0-.024 0-.035 0z" fill="#fff"/><ellipse id="XMLID_90_" cx="227.528" cy="159.485" fill="#fff" rx="23.36" ry="23.495"/><g><path d="m330.805 169.162-.014-.003c-5.272-1.143-10.49 2.114-11.805 7.346-10.27 40.842-27.498 70.199-53.538 91.191-4.077 3.287-4.86 9.198-1.846 13.481 3.327 4.727 9.96 5.65 14.46 2.022 32.854-26.488 50.333-61.942 60.327-101.849 1.37-5.471-2.072-10.993-7.584-12.188z" fill="#fff"/><path d="m124.21 94.74c15.776.644 31.219-1.009 45.79-4.932 5.578-1.502 8.699-7.435 6.773-12.881l-.063-.179c-1.715-4.848-6.866-7.626-11.829-6.283-19.837 5.366-41.238 5.758-62.389 1.616 5.161 76.28 12.211 151.343 62.497 200.81 4.097 4.03 10.751 3.756 14.49-.607l.111-.13c3.418-3.988 3.088-9.906-.656-13.589-38.897-38.262-49.12-94.731-54.724-163.825z" fill="#f3c229"/></g></g><g fill="#333"><path d="m465.9 260.926c.036.031.063.054.091.078-.028-.024-.058-.049-.091-.078z"/><path d="m464.47 259.699c-.259-.222-.338-.289 0 0z"/><path d="m465.991 261.005c.069.059.122.104.153.131-.028-.024-.078-.067-.153-.131z"/><path d="m466.144 261.136c.041.034.039.033 0 0z"/><path d="m465.209 260.334c.254.218-5.876-5.501-11.282.862l-1.927 2.247v-47.683c0-15.554-12.688-27.76-28.23-27.76h-78.725c5.629-22 9.097-44 11.553-67h67.172c15.543 0 28.23-13.101 28.23-28.655v-47.683l1.928 2.247c2.877 3.352 7.927 3.741 11.281.863 3.354-2.877 3.739-7.927.863-11.281l-16.042-18.7c-4.156-3.781-8.254-3.72-12.296.182l-15.956 19.753c-2.776 3.437-2.24 8.474 1.196 11.25 3.915 2.718 7.665 2.319 11.251-1.196l1.775-2.197v46.762c0 6.732-5.51 12.655-12.23 12.655h-65.64c.919-11 1.692-21.42 2.416-32.158-.322-5.833-3.394-8.692-9.215-8.578l-11.275 1.736h-.003c-39.025 6-74.126-7.912-107.288-42.78-4.012-3.412-7.954-3.335-11.827.232-29.85 35.09-71.317 49.707-116.909 40.78-5.93-.332-9.103 2.688-9.519 8.613.736 10.881 1.505 21.155 2.4 32.155h-88.91c-4.418 0-8 3.582-8 8s3.582 8 8 8h90.417c2.442 23 5.844 45 11.408 67h-101.825c-4.418 0-8 3.582-8 8s3.582 8 8 8h106.564c4.066 10.524 8.11 20.799 12.982 31h-59.58c-4.418 0-7.966 3.495-7.966 7.913v202.087c0 4.418 3.548 8 7.966 8h312.917c4.418 0 8.117-3.582 8.117-8v-202.087c0-4.418-3.699-7.913-8.117-7.913h-53.578c4.919-10.177 8.956-20.461 12.977-31h83.488c6.721 0 12.23 5.028 12.23 11.76v46.762l-1.774-2.197c-2.777-3.437-7.813-3.974-11.251-1.196-3.437 2.776-3.973 7.813-1.196 11.25l15.956 19.701c3.091 3.826 9.105 3.9 12.296.182l16.042-18.673c2.875-3.354 2.49-8.378-.864-11.255.254.218 3.354 2.877 0 0zm-389.209-9.334h40v51h-40zm0 67h74v51h-74zm297 0v51h-67v-51zm-49-16h-53.126l.005-3.574c19.009-12.734 34.651-28.426 47.103-47.426h6.018zm-34 16v51h-54v-51zm-70 51h-54v-51h54zm-35-67h-53v-51h4.856c12.678 19 29.144 35.181 48.144 48.125zm-109 83h41v52h-41zm57 0h52v52h-52zm68 0h54v52h-54zm70 0h54v52h-54zm102 52h-32v-52h32zm0-135h-33v-51h33zm-30.983-197h-37.838c-4.418 0-8 3.582-8 8s3.582 8 8 8h36.229c-2.648 23-6.337 46-12.125 67h-24.104c-4.418 0-8 3.582-8 8s3.582 8 8 8h19.036c-22.982 78.667-95.41 98.022-95.677 98.06-.587.083-116.36-22.06-116.36-220.394 43.055 5.555 87.274-7.955 116.161-41.222 32.003 31.073 71.775 47.087 116.546 41.303-.567 7.801-1.18 15.253-1.868 23.253z"/></g></g></svg>