<svg width="512" height="512" viewBox="0 0 512 512" fill="none" xmlns="http://www.w3.org/2000/svg">
<g clip-path="url(#clip0_2024_12483)">
<mask id="path-1-inside-1_2024_12483" fill="white">
<path d="M511.935 129.287C511.755 112.603 510.572 95.7974 509.601 79.1234C509.034 69.3994 508.444 57.4894 500.794 50.3354C491.345 41.4984 474.961 37.7634 462.652 36.5794C447.252 35.0994 431.502 34.0834 416.021 33.8994C388.201 33.5684 360.403 34.9744 332.607 34.8314C304.952 34.6894 277.297 33.2724 249.624 33.2734C188.425 33.2754 127.638 34.9194 66.5431 37.9084C43.6971 39.0264 18.0521 42.2294 9.70609 66.6004C5.42009 79.1134 4.88709 94.8884 3.68709 108.084C2.45709 121.606 1.11509 135.044 0.623086 148.633C-1.40791 204.653 2.22909 260.645 1.66509 316.729C1.53809 329.352 2.17809 342.95 4.11809 355.451C5.99209 367.523 12.1841 373.995 23.2281 378.652C47.9571 389.079 79.7551 387.362 106.099 387.55C129.653 387.719 153.2 388.023 176.747 388.35C175.461 401.311 175.106 414.725 175.739 427.62C176.007 433.087 176.397 438.004 178.784 442.146C176.072 441.877 173.361 441.636 170.651 441.467C159.982 440.801 146.334 441.303 138.751 450.257C132.248 457.937 134.879 469.61 143.717 473.706C156.347 479.559 173.072 478.713 186.632 478.649C223.64 478.475 260.759 477.247 297.749 477.565C315.533 477.718 335.287 480.071 352.812 476.949C363.353 475.071 373.013 468.968 369.659 456.851C365.636 442.316 348.253 440.711 335.683 441.321C333.403 441.432 331.147 441.568 328.9 441.72C332.633 436.011 333.182 429.291 333.218 421.813C333.267 411.646 334.115 400.276 332.673 389.85C349.421 389.817 366.173 389.859 382.853 390.457C407.703 391.347 439.507 396.497 462.834 385.812C487.46 374.532 493.515 347.788 498.883 323.708C505.475 294.141 507.99 262.771 509.427 232.554C511.054 198.337 512.305 163.531 511.935 129.287ZM348.865 451.273C352.231 452.289 359.838 454.446 359.662 459.231C359.615 460.516 358.799 461.635 357.949 462.6C352.306 469.008 347.692 467.877 339.824 467.883C306.898 467.909 274.03 468.318 241.107 468.342C224.849 468.354 208.632 468.409 192.386 468.887C180.586 469.235 160.418 471.902 149.917 465.668C137.574 458.341 152.906 452.1 160.014 451.24C176.421 449.255 193.007 452.044 209.228 454.342C224.964 456.571 240.796 456.639 256.664 456.365C269.091 456.15 281.595 456.622 293.99 455.882C311.935 454.809 330.753 446.599 348.865 451.273ZM184.695 388.459C220.818 388.971 256.94 389.531 293.078 389.835C302.516 389.915 311.974 389.898 321.439 389.873C321.636 396.791 322.153 403.753 322.276 410.663C322.506 423.575 325.106 436.719 310.409 442.115C293.754 448.23 272.376 445.519 254.754 445.758C236.321 446.008 216.89 446.482 198.963 441.636C190.458 439.337 187.754 438.055 186.416 429.299C185.844 425.557 185.919 421.734 185.814 417.962C185.54 408.137 185.545 398.261 184.695 388.459ZM486.416 329.455C483.356 342.549 480.236 356.987 470.722 367.127C451.719 387.381 417.646 379.801 392.951 379.838C371.279 379.87 349.517 379.069 327.822 379.296C326.918 379.07 325.956 379.079 325.051 379.324C321.167 379.381 317.284 379.464 313.406 379.605C259.005 381.578 204.179 377.601 149.734 377.633C121.755 377.649 93.7781 376.866 65.8251 375.695C52.8521 375.152 37.1791 374.349 25.3551 368.278C10.8801 360.845 13.1271 342.696 12.2431 328.651C12.1001 326.38 12.0051 324.098 11.9021 321.818C27.5021 323.345 43.6781 320.457 59.2361 319.604C78.9741 318.522 98.6811 318.45 118.444 318.5C140.762 318.556 163.08 318.452 185.397 318.519C206.414 318.581 227.274 321.107 248.277 321.555C289.848 322.441 331.418 322.057 372.971 323.516C393.765 324.245 414.545 324.137 435.353 323.69C452.83 323.315 470.362 324.364 487.779 323.162C487.329 325.258 486.907 327.354 486.416 329.455ZM499.312 203.815C499.21 230.873 496.797 257.625 493.943 284.505C493.134 292.131 493.876 310.466 486.632 314.053C480.367 317.155 470.298 314.099 463.577 314.123C454.169 314.159 444.759 314.004 435.353 314.239C414.55 314.759 393.763 314.867 372.971 314.174C332.126 312.812 291.248 312.996 250.381 312.448C230.164 312.177 210.058 309.587 189.842 309.516C167.544 309.437 145.243 309.664 122.945 309.719C103.077 309.769 83.2291 309.72 63.3901 310.881C46.2361 311.885 28.8271 314.673 11.6191 314.22C10.9751 291.953 11.7621 269.366 11.5711 247.222C11.3651 223.341 9.58109 199.521 9.58709 175.631C9.59409 151.646 11.1641 127.889 13.6951 104.047C15.0071 91.6814 15.4551 73.0874 23.0041 62.6864C31.7791 50.5964 52.8101 49.3774 66.5421 48.5994C127.576 45.1394 188.464 42.9054 249.623 42.4454C301.069 42.0584 352.261 45.4994 403.738 43.8474C428.218 45.0144 455.325 42.6874 478.547 50.8504C484.165 52.8254 492.346 56.0164 495.591 61.5824C498.503 66.5764 498.439 73.5744 498.734 79.1224C499.471 92.9894 500.122 106.822 500.944 120.671C502.581 148.283 499.415 176.184 499.312 203.815Z"/>
</mask>
<path d="M511.935 129.287C511.755 112.603 510.572 95.7974 509.601 79.1234C509.034 69.3994 508.444 57.4894 500.794 50.3354C491.345 41.4984 474.961 37.7634 462.652 36.5794C447.252 35.0994 431.502 34.0834 416.021 33.8994C388.201 33.5684 360.403 34.9744 332.607 34.8314C304.952 34.6894 277.297 33.2724 249.624 33.2734C188.425 33.2754 127.638 34.9194 66.5431 37.9084C43.6971 39.0264 18.0521 42.2294 9.70609 66.6004C5.42009 79.1134 4.88709 94.8884 3.68709 108.084C2.45709 121.606 1.11509 135.044 0.623086 148.633C-1.40791 204.653 2.22909 260.645 1.66509 316.729C1.53809 329.352 2.17809 342.95 4.11809 355.451C5.99209 367.523 12.1841 373.995 23.2281 378.652C47.9571 389.079 79.7551 387.362 106.099 387.55C129.653 387.719 153.2 388.023 176.747 388.35C175.461 401.311 175.106 414.725 175.739 427.62C176.007 433.087 176.397 438.004 178.784 442.146C176.072 441.877 173.361 441.636 170.651 441.467C159.982 440.801 146.334 441.303 138.751 450.257C132.248 457.937 134.879 469.61 143.717 473.706C156.347 479.559 173.072 478.713 186.632 478.649C223.64 478.475 260.759 477.247 297.749 477.565C315.533 477.718 335.287 480.071 352.812 476.949C363.353 475.071 373.013 468.968 369.659 456.851C365.636 442.316 348.253 440.711 335.683 441.321C333.403 441.432 331.147 441.568 328.9 441.72C332.633 436.011 333.182 429.291 333.218 421.813C333.267 411.646 334.115 400.276 332.673 389.85C349.421 389.817 366.173 389.859 382.853 390.457C407.703 391.347 439.507 396.497 462.834 385.812C487.46 374.532 493.515 347.788 498.883 323.708C505.475 294.141 507.99 262.771 509.427 232.554C511.054 198.337 512.305 163.531 511.935 129.287ZM348.865 451.273C352.231 452.289 359.838 454.446 359.662 459.231C359.615 460.516 358.799 461.635 357.949 462.6C352.306 469.008 347.692 467.877 339.824 467.883C306.898 467.909 274.03 468.318 241.107 468.342C224.849 468.354 208.632 468.409 192.386 468.887C180.586 469.235 160.418 471.902 149.917 465.668C137.574 458.341 152.906 452.1 160.014 451.24C176.421 449.255 193.007 452.044 209.228 454.342C224.964 456.571 240.796 456.639 256.664 456.365C269.091 456.15 281.595 456.622 293.99 455.882C311.935 454.809 330.753 446.599 348.865 451.273ZM184.695 388.459C220.818 388.971 256.94 389.531 293.078 389.835C302.516 389.915 311.974 389.898 321.439 389.873C321.636 396.791 322.153 403.753 322.276 410.663C322.506 423.575 325.106 436.719 310.409 442.115C293.754 448.23 272.376 445.519 254.754 445.758C236.321 446.008 216.89 446.482 198.963 441.636C190.458 439.337 187.754 438.055 186.416 429.299C185.844 425.557 185.919 421.734 185.814 417.962C185.54 408.137 185.545 398.261 184.695 388.459ZM486.416 329.455C483.356 342.549 480.236 356.987 470.722 367.127C451.719 387.381 417.646 379.801 392.951 379.838C371.279 379.87 349.517 379.069 327.822 379.296C326.918 379.07 325.956 379.079 325.051 379.324C321.167 379.381 317.284 379.464 313.406 379.605C259.005 381.578 204.179 377.601 149.734 377.633C121.755 377.649 93.7781 376.866 65.8251 375.695C52.8521 375.152 37.1791 374.349 25.3551 368.278C10.8801 360.845 13.1271 342.696 12.2431 328.651C12.1001 326.38 12.0051 324.098 11.9021 321.818C27.5021 323.345 43.6781 320.457 59.2361 319.604C78.9741 318.522 98.6811 318.45 118.444 318.5C140.762 318.556 163.08 318.452 185.397 318.519C206.414 318.581 227.274 321.107 248.277 321.555C289.848 322.441 331.418 322.057 372.971 323.516C393.765 324.245 414.545 324.137 435.353 323.69C452.83 323.315 470.362 324.364 487.779 323.162C487.329 325.258 486.907 327.354 486.416 329.455ZM499.312 203.815C499.21 230.873 496.797 257.625 493.943 284.505C493.134 292.131 493.876 310.466 486.632 314.053C480.367 317.155 470.298 314.099 463.577 314.123C454.169 314.159 444.759 314.004 435.353 314.239C414.55 314.759 393.763 314.867 372.971 314.174C332.126 312.812 291.248 312.996 250.381 312.448C230.164 312.177 210.058 309.587 189.842 309.516C167.544 309.437 145.243 309.664 122.945 309.719C103.077 309.769 83.2291 309.72 63.3901 310.881C46.2361 311.885 28.8271 314.673 11.6191 314.22C10.9751 291.953 11.7621 269.366 11.5711 247.222C11.3651 223.341 9.58109 199.521 9.58709 175.631C9.59409 151.646 11.1641 127.889 13.6951 104.047C15.0071 91.6814 15.4551 73.0874 23.0041 62.6864C31.7791 50.5964 52.8101 49.3774 66.5421 48.5994C127.576 45.1394 188.464 42.9054 249.623 42.4454C301.069 42.0584 352.261 45.4994 403.738 43.8474C428.218 45.0144 455.325 42.6874 478.547 50.8504C484.165 52.8254 492.346 56.0164 495.591 61.5824C498.503 66.5764 498.439 73.5744 498.734 79.1224C499.471 92.9894 500.122 106.822 500.944 120.671C502.581 148.283 499.415 176.184 499.312 203.815Z" fill="#00B4BE"/>
<path d="M511.935 129.287L484.937 129.579L484.937 129.579L511.935 129.287ZM509.601 79.1234L536.555 77.5538L536.555 77.5518L509.601 79.1234ZM500.794 50.3354L482.352 70.0553L482.352 70.0559L500.794 50.3354ZM462.652 36.5794L465.237 9.70349L465.235 9.70327L462.652 36.5794ZM416.021 33.8994L415.7 60.8975L415.7 60.8975L416.021 33.8994ZM332.607 34.8314L332.746 7.8318L332.746 7.8318L332.607 34.8314ZM249.624 33.2734L249.625 60.2734H249.625L249.624 33.2734ZM66.5431 37.9084L65.2237 10.9407L65.2234 10.9407L66.5431 37.9084ZM9.70609 66.6004L35.2492 75.3496L35.2498 75.348L9.70609 66.6004ZM3.68709 108.084L30.5761 110.53L30.5761 110.53L3.68709 108.084ZM0.623086 148.633L27.6054 149.612L27.6054 149.61L0.623086 148.633ZM1.66509 316.729L28.6637 317.001L28.6637 317.001L1.66509 316.729ZM4.11809 355.451L-22.5625 359.592L-22.5624 359.593L4.11809 355.451ZM23.2281 378.652L12.7374 403.531L12.7379 403.531L23.2281 378.652ZM106.099 387.55L106.293 360.551H106.292L106.099 387.55ZM176.747 388.35L203.615 391.016L206.518 361.761L177.122 361.353L176.747 388.35ZM175.739 427.62L202.707 426.298L202.707 426.297L175.739 427.62ZM178.784 442.146L176.119 469.015L228.42 474.202L202.177 428.665L178.784 442.146ZM170.651 441.467L168.969 468.415L168.971 468.415L170.651 441.467ZM138.751 450.257L118.147 432.808L118.146 432.81L138.751 450.257ZM143.717 473.706L132.364 498.203L132.365 498.204L143.717 473.706ZM186.632 478.649L186.505 451.65H186.505L186.632 478.649ZM297.749 477.565L297.981 450.566H297.981L297.749 477.565ZM352.812 476.949L357.547 503.531L357.548 503.531L352.812 476.949ZM369.659 456.851L343.637 464.054L343.638 464.054L369.659 456.851ZM335.683 441.321L334.374 414.353L334.37 414.353L335.683 441.321ZM328.9 441.72L306.302 426.944L276.633 472.318L330.722 468.659L328.9 441.72ZM333.218 421.813L306.218 421.683V421.683L333.218 421.813ZM332.673 389.85L332.62 362.85L301.69 362.911L305.928 393.55L332.673 389.85ZM382.853 390.457L381.886 417.44L381.887 417.44L382.853 390.457ZM462.834 385.812L451.59 361.265L462.834 385.812ZM498.883 323.708L472.53 317.833L472.53 317.834L498.883 323.708ZM509.427 232.554L536.397 233.837V233.837L509.427 232.554ZM348.865 451.273L356.667 425.425L356.142 425.267L355.612 425.13L348.865 451.273ZM359.662 459.231L332.68 458.239L332.68 458.245L359.662 459.231ZM357.949 462.6L337.688 444.754L337.686 444.756L357.949 462.6ZM339.824 467.883L339.803 440.883H339.803L339.824 467.883ZM241.107 468.342L241.087 441.342H241.087L241.107 468.342ZM192.386 468.887L191.592 441.899L191.59 441.899L192.386 468.887ZM149.917 465.668L163.7 442.451L163.699 442.451L149.917 465.668ZM160.014 451.24L156.771 424.436H156.771L160.014 451.24ZM209.228 454.342L205.441 481.076L205.441 481.076L209.228 454.342ZM256.664 456.365L257.13 483.361H257.131L256.664 456.365ZM293.99 455.882L295.599 482.834L295.602 482.834L293.99 455.882ZM184.695 388.459L185.078 361.462L155.216 361.039L157.796 390.792L184.695 388.459ZM293.078 389.835L293.307 362.836L293.305 362.836L293.078 389.835ZM321.439 389.873L348.428 389.105L347.679 362.804L321.368 362.874L321.439 389.873ZM322.276 410.663L295.28 411.144V411.144L322.276 410.663ZM310.409 442.115L301.103 416.77L301.103 416.77L310.409 442.115ZM254.754 445.758L254.388 418.761L254.754 445.758ZM198.963 441.636L206.009 415.572L206.009 415.572L198.963 441.636ZM186.416 429.299L213.106 425.221L213.106 425.22L186.416 429.299ZM185.814 417.962L212.804 417.211L212.804 417.21L185.814 417.962ZM486.416 329.455L460.124 323.311V323.311L486.416 329.455ZM470.722 367.127L451.032 348.653L451.032 348.653L470.722 367.127ZM392.951 379.838L392.991 406.838H392.992L392.951 379.838ZM327.822 379.296L321.274 405.49L324.637 406.331L328.105 406.295L327.822 379.296ZM325.051 379.324L325.447 406.322L328.836 406.272L332.107 405.386L325.051 379.324ZM313.406 379.605L314.385 406.588L314.387 406.588L313.406 379.605ZM149.734 377.633L149.75 404.633H149.75L149.734 377.633ZM65.8251 375.695L66.9552 348.719L66.9542 348.719L65.8251 375.695ZM25.3551 368.278L13.0215 392.297L13.0226 392.297L25.3551 368.278ZM12.2431 328.651L39.1898 326.955L39.1897 326.955L12.2431 328.651ZM11.9021 321.818L14.5324 294.947L-16.4765 291.912L-15.0704 323.037L11.9021 321.818ZM59.2361 319.604L57.7582 292.645L57.758 292.645L59.2361 319.604ZM118.444 318.5L118.376 345.5H118.376L118.444 318.5ZM185.397 318.519L185.316 345.519H185.317L185.397 318.519ZM248.277 321.555L247.701 348.549H247.702L248.277 321.555ZM372.971 323.516L372.024 350.5L372.025 350.5L372.971 323.516ZM435.353 323.69L434.774 296.697H434.773L435.353 323.69ZM487.779 323.162L514.178 328.83L521.708 293.757L485.92 296.226L487.779 323.162ZM499.312 203.815L526.312 203.917V203.916L499.312 203.815ZM493.943 284.505L467.094 281.655L467.094 281.657L493.943 284.505ZM486.632 314.053L498.613 338.25L498.613 338.25L486.632 314.053ZM463.577 314.123L463.481 287.124L463.474 287.124L463.577 314.123ZM435.353 314.239L434.679 287.248L434.678 287.248L435.353 314.239ZM372.971 314.174L372.071 341.159H372.072L372.971 314.174ZM250.381 312.448L250.743 285.451H250.743L250.381 312.448ZM189.842 309.516L189.746 336.516L189.747 336.516L189.842 309.516ZM122.945 309.719L122.878 282.719L122.877 282.72L122.945 309.719ZM63.3901 310.881L61.8127 283.928L61.8125 283.928L63.3901 310.881ZM11.6191 314.22L-15.3696 315.001L-14.631 340.539L10.9086 341.211L11.6191 314.22ZM11.5711 247.222L38.5701 246.99V246.99L11.5711 247.222ZM9.58709 175.631L-17.4129 175.624V175.625L9.58709 175.631ZM13.6951 104.047L40.5442 106.898L40.5444 106.896L13.6951 104.047ZM23.0041 62.6864L1.15298 46.8268L1.15287 46.8269L23.0041 62.6864ZM66.5421 48.5994L68.0693 75.5562L68.0703 75.5562L66.5421 48.5994ZM249.623 42.4454L249.826 69.4447H249.826L249.623 42.4454ZM403.738 43.8474L405.024 16.8781L403.948 16.8268L402.872 16.8613L403.738 43.8474ZM478.547 50.8504L487.502 25.3786L487.501 25.3784L478.547 50.8504ZM495.591 61.5824L472.266 75.1812L472.267 75.1829L495.591 61.5824ZM498.734 79.1224L525.696 77.6895L525.696 77.6888L498.734 79.1224ZM500.944 120.671L527.897 119.074L527.897 119.072L500.944 120.671ZM538.934 128.996C538.745 111.484 537.499 93.7614 536.555 77.5538L482.647 80.6931C483.645 97.8335 484.766 113.723 484.937 129.579L538.934 128.996ZM536.555 77.5518C536.303 73.2178 535.946 65.4177 534.162 57.6913C532.32 49.7163 528.43 39.2127 519.236 30.615L482.352 70.0559C480.808 68.6122 481.038 67.6406 481.546 69.8401C481.783 70.8689 482.003 72.2564 482.191 74.1644C482.383 76.123 482.497 78.1181 482.647 80.6951L536.555 77.5518ZM519.237 30.6156C510.484 22.4298 499.873 17.7105 491.043 14.878C481.944 11.9593 472.79 10.43 465.237 9.70349L460.067 63.4554C464.823 63.9129 470.015 64.843 474.548 66.2972C479.35 67.8374 481.655 69.4041 482.352 70.0553L519.237 30.6156ZM465.235 9.70327C449.286 8.17055 432.758 7.09646 416.342 6.90134L415.7 60.8975C430.246 61.0704 445.218 62.0283 460.069 63.4556L465.235 9.70327ZM416.342 6.90135C401.93 6.72987 387.61 7.00926 373.738 7.3009C359.73 7.59538 346.218 7.9011 332.746 7.8318L332.468 61.8311C346.793 61.9048 361.077 61.579 374.873 61.289C388.803 60.9961 402.292 60.738 415.7 60.8975L416.342 6.90135ZM332.746 7.8318C319.272 7.76261 305.763 7.38272 291.848 7.00857C278.044 6.6374 263.871 6.27292 249.623 6.27344L249.625 60.2734C263.05 60.273 276.541 60.6165 290.397 60.9891C304.142 61.3587 318.287 61.7583 332.468 61.8311L332.746 7.8318ZM249.623 6.27344C187.94 6.27545 126.711 7.93253 65.2237 10.9407L67.8624 64.8762C128.566 61.9064 188.911 60.2754 249.625 60.2734L249.623 6.27344ZM65.2234 10.9407C53.7135 11.504 37.698 12.6485 22.9491 18.3518C6.91819 24.5508 -8.53919 36.5409 -15.8376 57.8528L35.2498 75.348C36.2974 72.289 37.8355 70.4921 42.425 68.7173C48.2967 66.4468 56.5267 65.4309 67.8628 64.8762L65.2234 10.9407ZM-15.8371 57.8513C-21.499 74.3814 -22.2496 95.1665 -23.202 105.639L30.5761 110.53C32.0238 94.6103 32.3392 83.8455 35.2492 75.3496L-15.8371 57.8513ZM-23.2019 105.639C-24.3984 118.792 -25.8338 133.143 -26.3592 147.657L27.6054 149.61C28.0639 136.946 29.3125 124.421 30.5761 110.53L-23.2019 105.639ZM-26.3592 147.655C-27.4049 176.499 -26.9859 205.169 -26.4002 233.221C-25.8099 261.49 -25.0569 288.949 -25.3335 316.458L28.6637 317.001C28.9511 288.425 28.1676 259.847 27.5881 232.094C27.0041 204.124 26.6201 176.788 27.6054 149.612L-26.3592 147.655ZM-25.3335 316.458C-25.4704 330.055 -24.7949 345.207 -22.5625 359.592L30.7987 351.311C29.1511 340.694 28.5465 328.65 28.6637 317.001L-25.3335 316.458ZM-22.5624 359.593C-21.0139 369.568 -17.3181 379.133 -10.3107 387.351C-3.51294 395.323 4.86285 400.211 12.7374 403.531L33.7188 353.774C30.5493 352.437 30.3071 351.76 30.7794 352.314C30.8777 352.429 30.9722 352.559 31.0517 352.688C31.0895 352.749 31.1181 352.801 31.1383 352.84C31.1583 352.878 31.1672 352.899 31.1667 352.898C31.1666 352.898 31.1201 352.789 31.0511 352.54C30.9814 352.287 30.8882 351.887 30.7985 351.31L-22.5624 359.593ZM12.7379 403.531C29.153 410.453 46.7545 412.91 62.3704 413.888C77.6933 414.848 93.963 414.465 105.906 414.55L106.292 360.551C91.8911 360.448 79.0898 360.829 65.7455 359.994C52.6942 359.177 42.0322 357.279 33.7183 353.774L12.7379 403.531ZM105.905 414.55C129.364 414.718 152.835 415.021 176.372 415.348L177.122 361.353C153.565 361.026 129.942 360.721 106.293 360.551L105.905 414.55ZM149.879 385.685C148.465 399.937 148.072 414.685 148.772 428.944L202.707 426.297C202.141 414.766 202.457 402.686 203.615 391.016L149.879 385.685ZM148.771 428.942C149.002 433.647 149.287 445.037 155.391 455.628L202.177 428.665C203.006 430.103 203.123 431.067 203.055 430.683C203.02 430.484 202.959 430.063 202.893 429.296C202.825 428.513 202.77 427.584 202.707 426.298L148.771 428.942ZM181.449 415.278C178.571 414.993 175.5 414.717 172.332 414.52L168.971 468.415C171.222 468.556 173.573 468.762 176.119 469.015L181.449 415.278ZM172.333 414.52C166.168 414.135 157.307 413.931 148.147 415.8C138.886 417.689 127.172 422.151 118.147 432.808L159.355 467.707C157.913 469.409 156.815 469.144 158.941 468.71C161.167 468.256 164.465 468.134 168.969 468.415L172.333 414.52ZM118.146 432.81C100.278 453.911 107.129 486.508 132.364 498.203L155.07 449.209C162.629 452.712 164.218 461.964 159.357 467.705L118.146 432.81ZM132.365 498.204C142.992 503.129 154.09 504.723 162.975 505.333C171.732 505.935 180.913 505.677 186.76 505.649L186.505 451.65C178.791 451.686 172.829 451.883 166.676 451.46C160.652 451.046 157.072 450.137 155.07 449.209L132.365 498.204ZM186.759 505.649C225.112 505.469 260.445 504.246 297.517 504.564L297.981 450.566C261.073 450.249 222.168 451.482 186.505 451.65L186.759 505.649ZM297.517 504.564C306.994 504.646 312.953 505.204 324.751 505.478C334.673 505.709 346.119 505.567 357.547 503.531L348.077 450.368C341.98 451.454 334.786 451.697 326.004 451.493C319.098 451.332 306.289 450.638 297.981 450.566L297.517 504.564ZM357.548 503.531C365.578 502.1 376.68 498.588 385.427 489.942C395.89 479.601 399.894 464.871 395.681 449.649L343.638 464.054C343.409 463.228 343.023 461.01 343.791 458.053C344.564 455.076 346.112 452.875 347.465 451.538C348.096 450.914 348.636 450.522 348.973 450.303C349.31 450.085 349.506 450 349.507 449.999C349.511 449.998 349.388 450.051 349.123 450.129C348.86 450.205 348.509 450.291 348.076 450.368L357.548 503.531ZM395.681 449.649C390.549 431.11 376.433 421.802 364.421 417.795C353.258 414.07 341.805 413.993 334.374 414.353L336.992 468.29C339.312 468.177 341.509 468.187 343.46 468.351C345.462 468.52 346.712 468.813 347.331 469.019C347.942 469.223 347.283 469.122 346.21 468.142C344.927 466.969 344.013 465.41 343.637 464.054L395.681 449.649ZM334.37 414.353C331.886 414.474 329.456 414.621 327.078 414.782L330.722 468.659C332.838 468.516 334.921 468.391 336.996 468.289L334.37 414.353ZM351.498 456.497C359.929 443.603 360.181 429.677 360.218 421.943L306.218 421.683C306.202 425.011 306.056 426.644 305.885 427.576C305.759 428.265 305.755 427.781 306.302 426.944L351.498 456.497ZM360.218 421.944C360.254 414.499 361.212 399.117 359.418 386.151L305.928 393.55C307.018 401.436 306.281 408.794 306.218 421.683L360.218 421.944ZM332.726 416.85C349.444 416.817 365.756 416.862 381.886 417.44L383.82 363.475C366.59 362.857 349.398 362.817 332.62 362.85L332.726 416.85ZM381.887 417.44C387.591 417.644 393.613 418.089 400.816 418.554C407.743 419 415.452 419.44 423.293 419.475C438.564 419.544 457.055 418.157 474.078 410.36L451.59 361.265C445.286 364.153 436.212 365.533 423.537 365.476C417.404 365.448 411.045 365.101 404.29 364.666C397.813 364.248 390.54 363.715 383.819 363.475L381.887 417.44ZM474.078 410.36C493.724 401.361 505.332 386.205 512.479 371.123C519.26 356.813 522.675 341.073 525.236 329.583L472.53 317.834C469.723 330.424 467.426 340.096 463.681 347.998C460.303 355.128 456.57 358.984 451.59 361.265L474.078 410.36ZM525.236 329.584C532.345 297.697 534.94 264.46 536.397 233.837L482.458 231.272C481.04 261.083 478.605 290.586 472.53 317.833L525.236 329.584ZM536.397 233.837C538.031 199.463 539.312 164.035 538.934 128.996L484.937 129.579C485.298 163.028 484.077 197.212 482.458 231.272L536.397 233.837ZM341.063 477.122C343.45 477.842 343.257 477.869 342.587 477.501C342.157 477.264 340.004 476.071 337.764 473.377C335.171 470.259 332.432 464.993 332.68 458.239L386.644 460.224C387.342 441.232 372.328 432.228 368.596 430.177C363.326 427.281 357.646 425.721 356.667 425.425L341.063 477.122ZM332.68 458.245C332.859 453.367 334.474 449.751 335.584 447.781C336.635 445.916 337.656 444.79 337.688 444.754L378.21 480.447C379.176 479.351 386.218 471.869 386.644 460.218L332.68 458.245ZM337.686 444.756C337.746 444.688 338.538 443.808 340.132 442.868C340.92 442.404 341.77 442.005 342.65 441.687C343.521 441.373 344.285 441.189 344.871 441.082C345.895 440.895 346.354 440.96 345.266 440.957C344.737 440.955 344.165 440.943 343.171 440.923C342.267 440.905 341.091 440.882 339.803 440.883L339.845 494.883C340.524 494.883 341.213 494.895 342.09 494.912C342.876 494.928 344 494.953 345.098 494.956C347.265 494.963 350.705 494.909 354.571 494.204C364.039 492.475 371.842 487.678 378.212 480.444L337.686 444.756ZM339.803 440.883C323.248 440.897 306.721 441.006 290.286 441.114C273.825 441.223 257.457 441.331 241.087 441.342L241.127 495.342C257.681 495.33 274.207 495.222 290.643 495.113C307.104 495.004 323.474 494.896 339.845 494.883L339.803 440.883ZM241.087 441.342C224.824 441.354 208.263 441.409 191.592 441.899L193.18 495.876C209.001 495.41 224.874 495.354 241.127 495.342L241.087 441.342ZM191.59 441.899C188.197 441.999 183.981 442.274 180.786 442.448C177.218 442.641 173.945 442.774 170.902 442.747C167.814 442.72 165.542 442.528 163.975 442.254C162.278 441.957 162.523 441.753 163.7 442.451L136.134 488.885C148.076 495.975 162.196 496.673 170.427 496.745C178.37 496.815 190.325 495.96 193.182 495.876L191.59 441.899ZM163.699 442.451C163.76 442.487 165.256 443.355 167.023 445.417C168.911 447.621 171.454 451.641 172.111 457.36C173.516 469.573 165.615 476.239 164.701 476.981C163.063 478.313 162.187 478.473 162.974 478.185C163.557 477.972 163.821 477.977 163.257 478.045L156.771 424.436C152.653 424.934 148.335 426.041 144.43 427.469C140.729 428.823 135.458 431.162 130.642 435.077C126.55 438.403 116.686 448.057 118.465 463.528C120.144 478.132 131.013 485.845 136.135 488.886L163.699 442.451ZM163.257 478.045C175.337 476.583 187.852 478.584 205.441 481.076L213.015 427.609C198.162 425.505 177.505 421.927 156.771 424.436L163.257 478.045ZM205.441 481.076C223.426 483.623 241.063 483.639 257.13 483.361L256.198 429.369C240.529 429.64 226.503 429.52 213.015 427.609L205.441 481.076ZM257.131 483.361C267.319 483.185 282.691 483.605 295.599 482.834L292.381 428.93C280.499 429.64 270.863 429.116 256.197 429.369L257.131 483.361ZM295.602 482.834C306.558 482.179 319.605 479.134 325.992 478.023C334.291 476.58 338.826 476.567 342.118 477.417L355.612 425.13C340.792 421.306 326.862 423.061 316.738 424.822C304.701 426.916 299.367 428.513 292.379 428.931L295.602 482.834ZM184.312 415.457C220.384 415.968 256.613 416.53 292.851 416.834L293.305 362.836C257.267 362.533 221.252 361.975 185.078 361.462L184.312 415.457ZM292.849 416.834C302.454 416.916 312.048 416.898 321.51 416.873L321.368 362.874C311.9 362.899 302.578 362.915 293.307 362.836L292.849 416.834ZM294.45 390.642C294.558 394.441 294.754 398.239 294.917 401.587C295.087 405.058 295.227 408.151 295.28 411.144L349.272 410.183C349.202 406.266 349.022 402.423 348.853 398.956C348.678 395.366 348.517 392.224 348.428 389.105L294.45 390.642ZM295.28 411.144C295.315 413.114 295.395 415.042 295.457 416.583C295.523 418.235 295.571 419.495 295.589 420.667C295.625 423.134 295.481 423.829 295.505 423.715C295.584 423.333 296.055 421.503 297.717 419.5C298.504 418.551 299.331 417.846 300.043 417.365C300.73 416.901 301.154 416.751 301.103 416.77L319.715 467.461C327.086 464.755 333.925 460.428 339.275 453.981C344.576 447.592 347.138 440.657 348.375 434.701C349.558 429.013 349.639 423.663 349.583 419.866C349.554 417.905 349.476 415.978 349.413 414.419C349.346 412.748 349.294 411.441 349.272 410.183L295.28 411.144ZM301.103 416.77C297.138 418.226 291.314 419.037 282.618 419.142C278.404 419.193 274.07 419.085 269.254 418.958C264.639 418.836 259.434 418.692 254.388 418.761L255.12 472.756C258.885 472.705 262.961 472.811 267.831 472.939C272.5 473.062 277.855 473.204 283.271 473.138C293.833 473.011 307.025 472.12 319.715 467.461L301.103 416.77ZM254.388 418.761C234.903 419.025 219.569 419.238 206.009 415.572L191.917 467.701C214.211 473.727 237.739 472.992 255.12 472.756L254.388 418.761ZM206.009 415.572C203.874 414.995 203.429 414.821 203.514 414.855C203.771 414.956 205.741 415.745 207.986 417.75C210.462 419.962 211.932 422.434 212.691 424.267C213.29 425.715 213.284 426.382 213.106 425.221L159.726 433.378C160.655 439.457 162.895 449.882 172.018 458.028C179.533 464.739 188.999 466.912 191.918 467.701L206.009 415.572ZM213.106 425.22C212.869 423.67 212.957 422.73 212.804 417.211L158.825 418.714C158.881 420.739 158.819 427.444 159.726 433.379L213.106 425.22ZM212.804 417.21C212.558 408.411 212.535 396.98 211.594 386.127L157.796 390.792C158.555 399.543 158.522 407.864 158.825 418.715L212.804 417.21ZM460.124 323.311C456.585 338.456 454.613 344.837 451.032 348.653L490.412 385.602C505.859 369.138 510.127 346.643 512.708 335.6L460.124 323.311ZM451.032 348.653C448.708 351.13 444.143 353.569 432.734 354.093C427.223 354.345 421.237 354.111 414.354 353.727C407.975 353.371 400.089 352.828 392.911 352.838L392.992 406.838C398.161 406.831 403.794 407.221 411.343 407.643C418.388 408.036 426.738 408.425 435.208 408.036C451.76 407.277 473.733 403.379 490.412 385.602L451.032 348.653ZM392.911 352.838C373.768 352.867 348.248 352.081 327.54 352.298L328.105 406.295C350.786 406.058 368.79 406.874 392.991 406.838L392.911 352.838ZM334.371 353.103C328.987 351.757 323.342 351.815 317.996 353.263L332.107 405.386C328.57 406.344 324.849 406.384 321.274 405.49L334.371 353.103ZM324.655 352.327C320.658 352.386 316.565 352.473 312.425 352.623L314.387 406.588C318.003 406.456 321.677 406.377 325.447 406.322L324.655 352.327ZM312.428 352.623C257.888 354.601 207.587 350.599 149.718 350.633L149.75 404.633C200.771 404.603 260.122 408.556 314.385 406.588L312.428 352.623ZM149.719 350.633C122.242 350.649 94.6698 349.88 66.9552 348.719L64.695 402.672C92.8863 403.853 121.268 404.65 149.75 404.633L149.719 350.633ZM66.9542 348.719C52.6801 348.122 43.2943 347.138 37.6876 344.259L13.0226 392.297C31.0639 401.561 53.024 402.183 64.696 402.672L66.9542 348.719ZM37.6887 344.26C38.5939 344.725 39.6255 345.657 40.2725 346.701C40.7378 347.451 40.5284 347.502 40.2373 345.954C39.9376 344.36 39.7371 342.153 39.6109 338.728C39.547 336.995 39.5136 335.401 39.4562 333.333C39.403 331.415 39.3314 329.205 39.1898 326.955L-14.7036 330.347C-14.5047 333.507 -14.538 335.685 -14.3524 340.718C-14.199 344.879 -13.8908 350.307 -12.8324 355.934C-10.6273 367.661 -4.43447 383.333 13.0215 392.297L37.6887 344.26ZM39.1897 326.955C39.0659 324.988 38.984 323.022 38.8746 320.6L-15.0704 323.037C-14.9738 325.174 -14.8657 327.773 -14.7035 330.348L39.1897 326.955ZM9.27177 348.69C19.4697 349.688 29.2972 349.196 37.7469 348.517C47.2579 347.753 53.1707 346.978 60.7142 346.564L57.758 292.645C49.7435 293.084 39.7893 294.179 33.4228 294.691C25.9949 295.287 19.9344 295.476 14.5324 294.947L9.27177 348.69ZM60.714 346.564C79.6127 345.528 98.6455 345.45 118.376 345.5L118.512 291.501C98.7167 291.45 78.3355 291.517 57.7582 292.645L60.714 346.564ZM118.376 345.5C141.827 345.559 162.133 345.45 185.316 345.519L185.478 291.52C164.027 291.455 139.697 291.554 118.512 291.501L118.376 345.5ZM185.317 345.519C194.872 345.548 204.565 346.137 215.053 346.833C225.292 347.513 236.454 348.309 247.701 348.549L248.853 294.562C239.097 294.353 229.328 293.662 218.632 292.952C208.185 292.258 196.939 291.553 185.477 291.52L185.317 345.519ZM247.702 348.549C290.737 349.466 330.354 349.037 372.024 350.5L373.919 296.533C332.482 295.078 288.959 295.416 248.852 294.562L247.702 348.549ZM372.025 350.5C393.52 351.253 414.855 351.137 435.933 350.684L434.773 296.697C414.235 297.138 394.01 297.237 373.917 296.533L372.025 350.5ZM435.932 350.684C449.842 350.386 472.001 351.316 489.638 350.098L485.92 296.226C468.723 297.413 455.818 296.245 434.774 296.697L435.932 350.684ZM461.381 317.495C460.833 320.045 460.543 321.521 460.124 323.311L512.708 335.6C513.271 333.188 513.825 330.472 514.178 328.83L461.381 317.495ZM472.312 203.714C472.216 229.33 469.929 254.952 467.094 281.655L520.792 287.356C523.665 260.299 526.204 232.417 526.312 203.917L472.312 203.714ZM467.094 281.657C466.921 283.284 466.815 284.937 466.738 286.266C466.672 287.412 466.577 289.305 466.519 290.345C466.369 293.066 466.205 295.274 465.951 297.124C465.669 299.178 465.443 299.464 465.74 298.741C465.925 298.29 466.498 296.997 467.753 295.397C469.063 293.728 471.284 291.525 474.651 289.857L498.613 338.25C508.901 333.155 513.617 324.307 515.693 319.251C517.914 313.842 518.911 308.395 519.45 304.464C520.017 300.328 520.273 296.299 520.437 293.325C520.636 289.731 520.686 288.36 520.792 287.354L467.094 281.657ZM474.652 289.857C477.166 288.612 479.034 288.467 479.238 288.451C479.465 288.433 479.102 288.478 477.7 288.352C476.121 288.209 474.918 288.034 472.3 287.725C470.242 287.482 466.938 287.111 463.481 287.124L463.673 341.123C463.577 341.124 464.052 341.126 465.967 341.352C467.323 341.512 470.29 341.903 472.851 342.134C477.2 342.526 488.112 343.449 498.613 338.25L474.652 289.857ZM463.474 287.124C454.837 287.157 444.425 287.004 434.679 287.248L436.027 341.231C445.093 341.005 453.501 341.162 463.68 341.123L463.474 287.124ZM434.678 287.248C414.218 287.759 393.983 287.86 373.871 287.189L372.072 341.159C393.543 341.875 414.882 341.76 436.028 341.231L434.678 287.248ZM373.871 287.189C332.696 285.816 290.937 285.99 250.743 285.451L250.019 339.446C291.559 340.003 331.556 339.808 372.071 341.159L373.871 287.189ZM250.743 285.451C241.521 285.327 232.227 284.674 221.956 283.97C211.955 283.286 201.044 282.556 189.937 282.517L189.747 336.516C198.857 336.548 208.106 337.149 218.267 337.844C228.156 338.522 239.024 339.299 250.019 339.446L250.743 285.451ZM189.938 282.517C167.565 282.437 144.866 282.665 122.878 282.719L123.012 336.719C145.621 336.664 167.523 336.438 189.746 336.516L189.938 282.517ZM122.877 282.72C103.273 282.769 82.5721 282.713 61.8127 283.928L64.9675 337.835C83.886 336.728 102.881 336.77 123.013 336.719L122.877 282.72ZM61.8125 283.928C52.7102 284.46 43.0209 285.505 35.1429 286.203C26.7596 286.945 19.3464 287.414 12.3296 287.23L10.9086 341.211C21.0998 341.479 30.9951 340.781 39.9068 339.992C49.3238 339.158 56.9159 338.307 64.9677 337.835L61.8125 283.928ZM38.6078 313.44C37.9598 291.033 38.7791 271.219 38.5701 246.99L-15.4279 247.455C-15.2549 267.514 -16.0096 292.874 -15.3696 315.001L38.6078 313.44ZM38.5701 246.99C38.4627 234.545 37.9444 222.161 37.4786 210.365C37.0064 198.408 36.5842 186.979 36.5871 175.638L-17.4129 175.625C-17.4161 188.174 -16.9492 200.6 -16.4794 212.496C-16.0032 224.553 -15.5266 236.019 -15.4279 247.455L38.5701 246.99ZM36.5871 175.639C36.5937 152.822 38.0874 130.041 40.5442 106.898L-13.1541 101.197C-15.7592 125.738 -17.4056 150.471 -17.4129 175.624L36.5871 175.639ZM40.5444 106.896C41.4022 98.8111 41.5877 93.557 42.6601 86.967C43.7195 80.4575 44.9325 78.4396 44.8553 78.546L1.15287 46.8269C-6.47333 57.3343 -9.2588 69.8139 -10.6387 78.2932C-12.0055 86.6919 -12.7 96.9177 -13.1542 101.199L40.5444 106.896ZM44.8552 78.5461C43.5443 80.3522 43.249 79.0698 49.1419 77.6729C54.5277 76.3962 60.8641 75.9644 68.0693 75.5562L65.0148 21.6427C58.4881 22.0124 47.4429 22.5792 36.6865 25.129C26.4372 27.5586 11.2388 32.9307 1.15298 46.8268L44.8552 78.5461ZM68.0703 75.5562C128.749 72.1163 189.188 69.9008 249.826 69.4447L249.42 15.4462C187.74 15.9101 126.403 18.1626 65.0139 21.6427L68.0703 75.5562ZM249.826 69.4447C275.015 69.2552 300.122 70.0021 326.032 70.6133C351.732 71.2195 378.051 71.6857 404.604 70.8335L402.872 16.8613C377.948 17.6612 352.933 17.2328 327.306 16.6283C301.889 16.0288 275.677 15.2487 249.42 15.4462L249.826 69.4447ZM402.452 70.8168C409.142 71.1357 415.919 71.2118 422.176 71.2843C428.603 71.3587 434.547 71.4296 440.377 71.6971C452.134 72.2365 461.652 73.5312 469.593 76.3225L487.501 25.3784C472.22 20.0067 456.574 18.3834 442.852 17.7538C435.942 17.4368 429.068 17.3604 422.802 17.2879C416.366 17.2133 410.574 17.1427 405.024 16.8781L402.452 70.8168ZM469.592 76.3223C470.807 76.7494 471.857 77.1367 472.819 77.5339C473.789 77.9345 474.469 78.2638 474.912 78.5081C475.382 78.7675 475.29 78.7701 474.878 78.4205C474.472 78.0758 473.356 77.0514 472.266 75.1812L518.916 47.9837C513.69 39.0192 505.856 33.9084 501.006 31.2315C495.772 28.3426 490.536 26.4452 487.502 25.3786L469.592 76.3223ZM472.267 75.1829C471.603 74.0452 471.349 73.2119 471.286 72.9881C471.224 72.77 471.276 72.8864 471.354 73.5063C471.432 74.125 471.501 74.955 471.567 76.1855C471.599 76.7962 471.627 77.4218 471.66 78.1661C471.691 78.8659 471.727 79.7142 471.772 80.5561L525.696 77.6888C525.616 76.1822 525.48 71.1315 524.934 66.7831C524.359 62.1997 523.032 55.0422 518.915 47.982L472.267 75.1829ZM471.772 80.5554C472.497 94.1916 473.164 108.324 473.992 122.271L527.897 119.072C527.081 105.321 526.445 91.7872 525.696 77.6895L471.772 80.5554ZM473.991 122.269C474.724 134.625 474.398 147.356 473.806 161.071C473.231 174.381 472.366 189.193 472.312 203.715L526.312 203.916C526.361 190.807 527.131 177.852 527.755 163.402C528.362 149.356 528.801 134.33 527.897 119.074L473.991 122.269Z" fill="#00B4BE" mask="url(#path-1-inside-1_2024_12483)"/>
<path d="M274.148 338.048C270.704 332.747 264.159 329.734 257.89 329.279C252.738 328.905 249.248 331.165 245.617 333.642C243.681 334.512 241.906 335.661 240.336 337.041C240.303 337.074 240.261 337.1 240.233 337.135C235.171 341.645 232.345 348.524 233.884 356.017C236.412 368.323 254.275 377.423 265.282 370.624C276.127 363.925 281.54 349.425 274.148 338.048ZM265.857 361.382C262.178 364.968 258.28 367.151 252.979 365.923C248.376 364.857 242.972 361.349 240.457 357.211C235.674 349.341 240.88 342.553 247.587 338.129C251.871 336.676 255.844 334.722 261.071 336.588C271.488 340.306 273.623 353.813 265.857 361.382Z" fill="#00B4BE"/>
<path d="M69.5584 117.359H138.717C140.688 117.359 142.275 115.759 142.275 113.801C142.275 111.842 140.675 110.242 138.717 110.242H69.5584C67.5872 110.242 66 111.842 66 113.801C66 115.759 67.5872 117.359 69.5584 117.359Z" fill="#00B4BE"/>
<path d="M69.5584 165.896H107.702C109.674 165.896 111.261 164.296 111.261 162.338C111.261 160.379 109.661 158.779 107.702 158.779H69.5584C67.5872 158.779 66 160.379 66 162.338C66 164.296 67.5872 165.896 69.5584 165.896Z" fill="#00B4BE"/>
<path d="M286.966 196.041C285.264 192.79 282.461 190.332 279.069 189.116C279.056 189.116 279.043 189.104 279.017 189.104L274.883 187.683C278.057 183.702 280.08 178.748 280.4 173.36H287.913C289.693 173.36 291.433 174.076 292.816 175.369L302.377 184.329C303.069 184.969 303.939 185.289 304.809 185.289C305.757 185.289 306.704 184.905 307.408 184.163C308.752 182.729 308.675 180.476 307.241 179.12L297.68 170.16C294.966 167.625 291.497 166.217 287.901 166.217H280.438V144.956C280.438 144.956 280.438 144.956 280.438 144.944H287.901C289.68 144.944 291.421 145.66 292.803 146.953L302.365 155.913C303.056 156.553 303.926 156.873 304.797 156.873C305.744 156.873 306.691 156.489 307.395 155.747C308.739 154.313 308.662 152.06 307.229 150.704L297.667 141.744C294.953 139.209 291.485 137.801 287.888 137.801H279.401C276.304 127.228 266.525 119.484 254.966 119.484H243.664C232.105 119.484 222.326 127.228 219.229 137.801H210.742C207.145 137.801 203.677 139.196 200.963 141.744L191.401 150.704C189.968 152.048 189.891 154.3 191.235 155.747C191.939 156.502 192.886 156.873 193.833 156.873C194.704 156.873 195.587 156.553 196.265 155.913L205.827 146.953C207.209 145.66 208.95 144.944 210.729 144.944H218.192C218.192 144.944 218.192 144.944 218.192 144.956V166.217H210.729C207.133 166.217 203.664 167.612 200.95 170.16L191.389 179.12C189.955 180.464 189.878 182.716 191.222 184.163C191.926 184.918 192.873 185.289 193.821 185.289C194.691 185.289 195.574 184.969 196.253 184.329L205.814 175.369C207.197 174.076 208.937 173.36 210.717 173.36H218.23C218.55 178.812 220.611 183.804 223.849 187.811L220.086 189.116H220.073C216.694 190.307 213.865 192.764 212.125 196.028C212.125 196.028 212.125 196.041 212.112 196.041L206.006 207.638C205.085 209.379 205.763 211.529 207.504 212.451C208.029 212.732 208.605 212.86 209.168 212.86C210.448 212.86 211.689 212.169 212.329 210.953L218.435 199.369C219.344 197.667 220.739 196.438 222.454 195.836L229.942 193.251C233.91 195.798 238.621 197.27 243.664 197.27H254.966C260.073 197.27 264.848 195.76 268.829 193.148L276.649 195.836C278.339 196.451 279.747 197.692 280.617 199.356L286.723 210.953C287.363 212.169 288.605 212.86 289.885 212.86C290.448 212.86 291.011 212.732 291.549 212.451C293.289 211.529 293.955 209.379 293.046 207.638L286.966 196.041ZM243.702 190.14C233.603 190.14 225.373 181.923 225.373 171.811V144.956C225.373 134.857 233.59 126.627 243.702 126.627H255.005C265.104 126.627 273.334 134.844 273.334 144.956V171.811C273.334 181.91 265.117 190.14 255.005 190.14H243.702Z" fill="#00B4BE"/>
<path d="M357.764 212.707H426.922C428.893 212.707 430.48 211.107 430.48 209.148C430.48 207.177 428.88 205.59 426.922 205.59H357.764C355.792 205.59 354.205 207.19 354.205 209.148C354.192 211.107 355.792 212.707 357.764 212.707Z" fill="#00B4BE"/>
<path d="M426.922 110.23H357.763C355.792 110.23 354.205 111.83 354.205 113.789C354.205 115.747 355.805 117.347 357.763 117.347H426.922C428.893 117.347 430.48 115.747 430.48 113.789C430.48 111.83 428.893 110.23 426.922 110.23Z" fill="#00B4BE"/>
<path d="M426.922 157.039H388.778C386.807 157.039 385.22 158.639 385.22 160.597C385.22 162.556 386.82 164.156 388.778 164.156H426.922C428.893 164.156 430.481 162.556 430.481 160.597C430.481 158.639 428.893 157.039 426.922 157.039Z" fill="#00B4BE"/>
<path d="M359.849 241.942C356.637 238.729 352.361 236.963 347.817 236.963C343.273 236.963 338.998 238.729 335.785 241.942L332.56 245.168L307.011 219.619C313.437 212.605 318.505 204.605 322.064 195.811C325.942 186.249 327.901 176.15 327.901 165.795C327.901 155.44 325.929 145.341 322.064 135.779C318.045 125.885 312.157 117.001 304.541 109.385C296.925 101.769 288.054 95.8814 278.147 91.8622C268.585 87.9838 258.486 86.0254 248.131 86.0254C237.776 86.0254 227.677 87.9966 218.115 91.8622C208.221 95.8814 199.337 101.769 191.721 109.385C184.105 117.001 178.217 125.872 174.198 135.779C170.32 145.341 168.361 155.44 168.361 165.795C168.361 176.15 170.333 186.249 174.198 195.811C178.217 205.705 184.105 214.589 191.721 222.205C199.337 229.821 208.208 235.709 218.115 239.728C227.677 243.606 237.776 245.565 248.131 245.565C258.486 245.565 268.585 243.593 278.147 239.728C286.953 236.157 294.941 231.101 301.955 224.675L327.504 250.224L324.278 253.449C317.648 260.08 317.648 270.87 324.278 277.501L405.443 358.665C408.758 361.981 413.11 363.645 417.475 363.645C421.84 363.645 426.192 361.981 429.507 358.665L441.001 347.171C447.632 340.541 447.632 329.75 441.001 323.12L359.849 241.942ZM196.803 217.161C168.477 188.835 168.477 142.755 196.803 114.441C225.129 86.115 271.209 86.115 299.523 114.441C327.849 142.768 327.849 188.848 299.523 217.161C271.197 245.488 225.117 245.488 196.803 217.161ZM435.971 342.128L424.477 353.622C422.608 355.491 420.125 356.515 417.488 356.515C414.851 356.515 412.368 355.491 410.499 353.622L329.334 272.457C327.465 270.589 326.441 268.105 326.441 265.469C326.441 262.832 327.465 260.349 329.334 258.48L340.829 246.985C342.697 245.117 345.181 244.093 347.817 244.093C350.454 244.093 352.937 245.117 354.806 246.985L435.971 328.15C437.84 330.019 438.864 332.502 438.864 335.139C438.877 337.776 437.84 340.259 435.971 342.128Z" fill="#00B4BE"/>
<path d="M134.69 245.514H130.733C129.669 241.001 127.901 236.742 125.459 232.806L128.262 230.002C129.278 228.986 129.845 227.629 129.845 226.183C129.845 224.737 129.278 223.38 128.262 222.364L121.727 215.829C120.712 214.813 119.354 214.247 117.908 214.247C116.462 214.247 115.105 214.813 114.089 215.829L111.285 218.632C107.339 216.19 103.08 214.422 98.5773 213.358V209.402C98.5773 206.422 96.1548 204 93.1756 204H83.9351C80.9559 204 78.5334 206.422 78.5334 209.402V213.358C74.0304 214.422 69.7618 216.19 65.8155 218.632L63.0121 215.829C60.912 213.729 57.4834 213.729 55.3638 215.829L48.829 222.364C47.8131 223.38 47.2466 224.737 47.2466 226.183C47.2466 227.629 47.8131 228.986 48.829 230.002L51.6324 232.806C49.1904 236.752 47.4224 241.011 46.3577 245.514H42.4017C39.4225 245.514 37 247.936 37 250.916V260.156C37 263.135 39.4225 265.558 42.4017 265.558H46.3577C47.4224 270.071 49.1904 274.329 51.6324 278.266L48.8192 281.079C46.7191 283.189 46.7191 286.618 48.8192 288.718L55.354 295.252C57.4639 297.353 60.8925 297.353 62.9926 295.252L65.796 292.449C69.7422 294.891 74.0011 296.659 78.5139 297.724V301.689C78.5139 304.669 80.9363 307.091 83.9156 307.091H93.1561C96.1353 307.091 98.5578 304.669 98.5578 301.689V297.724C103.071 296.659 107.329 294.891 111.266 292.449L114.069 295.252C115.085 296.268 116.443 296.835 117.889 296.835C119.334 296.835 120.692 296.268 121.708 295.252L128.243 288.718C130.343 286.618 130.343 283.189 128.243 281.069L125.439 278.266C127.881 274.32 129.649 270.061 130.714 265.558H134.67C137.649 265.558 140.072 263.135 140.072 260.156V250.916C140.091 247.936 137.669 245.514 134.69 245.514ZM134.65 260.117H128.516C127.197 260.117 126.074 261.055 125.84 262.354C124.873 267.677 122.821 272.63 119.735 277.084C118.983 278.168 119.119 279.624 120.047 280.561L124.394 284.908L117.908 291.394L113.561 287.047C112.633 286.119 111.168 285.983 110.084 286.735C105.63 289.821 100.677 291.873 95.3539 292.84C94.0645 293.074 93.117 294.197 93.117 295.516V301.65H83.9449V295.516C83.9449 294.197 83.0072 293.074 81.708 292.84C76.3942 291.873 71.4321 289.821 66.9779 286.735C65.8937 285.983 64.4382 286.119 63.5103 287.047L59.1635 291.394L52.6776 284.908L57.0243 280.561C57.9523 279.633 58.0891 278.168 57.3369 277.084C54.2502 272.63 52.199 267.677 51.2319 262.354C50.9975 261.064 49.8742 260.117 48.5555 260.117H42.4212V250.955H48.5555C49.8742 250.955 50.9975 250.017 51.2319 248.718C52.199 243.394 54.2502 238.442 57.3369 233.997C58.0891 232.913 57.9523 231.458 57.0243 230.52L52.6776 226.173L59.1635 219.687L63.5103 224.034C64.4382 224.962 65.9034 225.099 66.9779 224.347C71.4321 221.26 76.3942 219.199 81.708 218.242C82.9974 218.007 83.9449 216.884 83.9449 215.565V209.431H93.117V215.565C93.117 216.884 94.0547 218.007 95.3539 218.242C100.677 219.209 105.63 221.26 110.084 224.347C111.168 225.099 112.624 224.962 113.561 224.034L117.908 219.687L124.394 226.173L120.047 230.52C119.119 231.448 118.983 232.913 119.735 233.997C122.821 238.452 124.873 243.404 125.84 248.718C126.074 250.007 127.197 250.955 128.516 250.955H134.65V260.117Z" fill="#00B4BE"/>
<path d="M88.5359 232.268C75.7105 232.268 65.2686 242.7 65.2686 255.535C65.2686 268.37 75.7008 278.802 88.5359 278.802C101.371 278.802 111.803 268.37 111.803 255.535C111.803 242.7 101.371 232.268 88.5359 232.268ZM88.5359 273.361C78.7093 273.361 70.7093 265.361 70.7093 255.535C70.7093 245.708 78.7093 237.708 88.5359 237.708C98.3625 237.708 106.362 245.708 106.362 255.535C106.362 265.361 98.3722 273.361 88.5359 273.361Z" fill="#00B4BE"/>
</g>
<defs>
<clipPath id="clip0_2024_12483">
<rect width="512" height="512" fill="white"/>
</clipPath>
</defs>
</svg>
