<svg width="512" height="512" viewBox="0 0 512 512" fill="none" xmlns="http://www.w3.org/2000/svg">
<g clip-path="url(#clip0_2073_12539)">
<mask id="path-1-inside-1_2073_12539" fill="white">
<path d="M511.935 129.287C511.755 112.603 510.572 95.7974 509.601 79.1234C509.034 69.3994 508.444 57.4894 500.794 50.3354C491.345 41.4984 474.961 37.7634 462.652 36.5794C447.252 35.0994 431.502 34.0834 416.021 33.8994C388.201 33.5684 360.403 34.9744 332.607 34.8314C304.952 34.6894 277.297 33.2724 249.624 33.2734C188.425 33.2754 127.638 34.9194 66.5426 37.9084C43.6966 39.0264 18.0516 42.2294 9.7056 66.6004C5.4196 79.1134 4.8866 94.8884 3.6866 108.084C2.4566 121.606 1.1146 135.044 0.622598 148.633C-1.4084 204.653 2.2286 260.645 1.6646 316.729C1.5376 329.352 2.1776 342.95 4.1176 355.451C5.9916 367.523 12.1836 373.995 23.2276 378.652C47.9566 389.079 79.7546 387.362 106.099 387.55C129.653 387.719 153.2 388.023 176.747 388.35C175.461 401.311 175.106 414.725 175.739 427.62C176.007 433.087 176.397 438.004 178.784 442.146C176.072 441.877 173.361 441.636 170.651 441.467C159.982 440.801 146.334 441.303 138.751 450.257C132.248 457.937 134.879 469.61 143.717 473.706C156.347 479.559 173.072 478.713 186.632 478.649C223.64 478.475 260.759 477.247 297.749 477.565C315.533 477.718 335.287 480.071 352.812 476.949C363.353 475.071 373.013 468.968 369.659 456.851C365.636 442.316 348.253 440.711 335.683 441.321C333.403 441.432 331.147 441.568 328.9 441.72C332.633 436.011 333.182 429.291 333.218 421.813C333.267 411.646 334.115 400.276 332.673 389.85C349.421 389.817 366.173 389.859 382.853 390.457C407.703 391.347 439.507 396.497 462.834 385.812C487.46 374.532 493.515 347.788 498.883 323.708C505.475 294.141 507.99 262.771 509.427 232.554C511.054 198.337 512.305 163.531 511.935 129.287ZM348.865 451.273C352.231 452.289 359.838 454.446 359.662 459.231C359.615 460.516 358.799 461.635 357.949 462.6C352.306 469.008 347.692 467.877 339.824 467.883C306.898 467.909 274.03 468.318 241.107 468.342C224.849 468.354 208.632 468.409 192.386 468.887C180.586 469.235 160.418 471.902 149.917 465.668C137.574 458.341 152.906 452.1 160.014 451.24C176.421 449.255 193.007 452.044 209.228 454.342C224.964 456.571 240.796 456.639 256.664 456.365C269.091 456.15 281.595 456.622 293.99 455.882C311.935 454.809 330.753 446.599 348.865 451.273ZM184.695 388.459C220.818 388.971 256.94 389.531 293.078 389.835C302.516 389.915 311.974 389.898 321.439 389.873C321.636 396.791 322.153 403.753 322.276 410.663C322.506 423.575 325.106 436.719 310.409 442.115C293.754 448.23 272.376 445.519 254.754 445.758C236.321 446.008 216.89 446.482 198.963 441.636C190.458 439.337 187.754 438.055 186.416 429.299C185.844 425.557 185.919 421.734 185.814 417.962C185.54 408.137 185.545 398.261 184.695 388.459ZM486.416 329.455C483.356 342.549 480.236 356.987 470.722 367.127C451.719 387.381 417.646 379.801 392.951 379.838C371.279 379.87 349.517 379.069 327.822 379.296C326.918 379.07 325.956 379.079 325.051 379.324C321.167 379.381 317.284 379.464 313.406 379.605C259.005 381.578 204.179 377.601 149.734 377.633C121.755 377.649 93.7776 376.866 65.8246 375.695C52.8516 375.152 37.1786 374.349 25.3546 368.278C10.8796 360.845 13.1266 342.696 12.2426 328.651C12.0996 326.38 12.0046 324.098 11.9016 321.818C27.5016 323.345 43.6776 320.457 59.2356 319.604C78.9736 318.522 98.6806 318.45 118.444 318.5C140.762 318.556 163.08 318.452 185.397 318.519C206.414 318.581 227.274 321.107 248.277 321.555C289.848 322.441 331.418 322.057 372.971 323.516C393.765 324.245 414.545 324.137 435.353 323.69C452.83 323.315 470.362 324.364 487.779 323.162C487.329 325.258 486.907 327.354 486.416 329.455ZM499.312 203.815C499.21 230.873 496.797 257.625 493.943 284.505C493.134 292.131 493.876 310.466 486.632 314.053C480.367 317.155 470.298 314.099 463.577 314.123C454.169 314.159 444.759 314.004 435.353 314.239C414.55 314.759 393.763 314.867 372.971 314.174C332.126 312.812 291.248 312.996 250.381 312.448C230.164 312.177 210.058 309.587 189.842 309.516C167.544 309.437 145.243 309.664 122.945 309.719C103.077 309.769 83.2286 309.72 63.3896 310.881C46.2356 311.885 28.8266 314.673 11.6186 314.22C10.9746 291.953 11.7616 269.366 11.5706 247.222C11.3646 223.341 9.5806 199.521 9.5866 175.631C9.5936 151.646 11.1636 127.889 13.6946 104.047C15.0066 91.6814 15.4546 73.0874 23.0036 62.6864C31.7786 50.5964 52.8096 49.3774 66.5416 48.5994C127.576 45.1394 188.464 42.9054 249.623 42.4454C301.069 42.0584 352.261 45.4994 403.738 43.8474C428.218 45.0144 455.325 42.6874 478.547 50.8504C484.165 52.8254 492.346 56.0164 495.591 61.5824C498.503 66.5764 498.439 73.5744 498.734 79.1224C499.471 92.9894 500.122 106.822 500.944 120.671C502.581 148.283 499.415 176.184 499.312 203.815Z"/>
</mask>
<path d="M511.935 129.287C511.755 112.603 510.572 95.7974 509.601 79.1234C509.034 69.3994 508.444 57.4894 500.794 50.3354C491.345 41.4984 474.961 37.7634 462.652 36.5794C447.252 35.0994 431.502 34.0834 416.021 33.8994C388.201 33.5684 360.403 34.9744 332.607 34.8314C304.952 34.6894 277.297 33.2724 249.624 33.2734C188.425 33.2754 127.638 34.9194 66.5426 37.9084C43.6966 39.0264 18.0516 42.2294 9.7056 66.6004C5.4196 79.1134 4.8866 94.8884 3.6866 108.084C2.4566 121.606 1.1146 135.044 0.622598 148.633C-1.4084 204.653 2.2286 260.645 1.6646 316.729C1.5376 329.352 2.1776 342.95 4.1176 355.451C5.9916 367.523 12.1836 373.995 23.2276 378.652C47.9566 389.079 79.7546 387.362 106.099 387.55C129.653 387.719 153.2 388.023 176.747 388.35C175.461 401.311 175.106 414.725 175.739 427.62C176.007 433.087 176.397 438.004 178.784 442.146C176.072 441.877 173.361 441.636 170.651 441.467C159.982 440.801 146.334 441.303 138.751 450.257C132.248 457.937 134.879 469.61 143.717 473.706C156.347 479.559 173.072 478.713 186.632 478.649C223.64 478.475 260.759 477.247 297.749 477.565C315.533 477.718 335.287 480.071 352.812 476.949C363.353 475.071 373.013 468.968 369.659 456.851C365.636 442.316 348.253 440.711 335.683 441.321C333.403 441.432 331.147 441.568 328.9 441.72C332.633 436.011 333.182 429.291 333.218 421.813C333.267 411.646 334.115 400.276 332.673 389.85C349.421 389.817 366.173 389.859 382.853 390.457C407.703 391.347 439.507 396.497 462.834 385.812C487.46 374.532 493.515 347.788 498.883 323.708C505.475 294.141 507.99 262.771 509.427 232.554C511.054 198.337 512.305 163.531 511.935 129.287ZM348.865 451.273C352.231 452.289 359.838 454.446 359.662 459.231C359.615 460.516 358.799 461.635 357.949 462.6C352.306 469.008 347.692 467.877 339.824 467.883C306.898 467.909 274.03 468.318 241.107 468.342C224.849 468.354 208.632 468.409 192.386 468.887C180.586 469.235 160.418 471.902 149.917 465.668C137.574 458.341 152.906 452.1 160.014 451.24C176.421 449.255 193.007 452.044 209.228 454.342C224.964 456.571 240.796 456.639 256.664 456.365C269.091 456.15 281.595 456.622 293.99 455.882C311.935 454.809 330.753 446.599 348.865 451.273ZM184.695 388.459C220.818 388.971 256.94 389.531 293.078 389.835C302.516 389.915 311.974 389.898 321.439 389.873C321.636 396.791 322.153 403.753 322.276 410.663C322.506 423.575 325.106 436.719 310.409 442.115C293.754 448.23 272.376 445.519 254.754 445.758C236.321 446.008 216.89 446.482 198.963 441.636C190.458 439.337 187.754 438.055 186.416 429.299C185.844 425.557 185.919 421.734 185.814 417.962C185.54 408.137 185.545 398.261 184.695 388.459ZM486.416 329.455C483.356 342.549 480.236 356.987 470.722 367.127C451.719 387.381 417.646 379.801 392.951 379.838C371.279 379.87 349.517 379.069 327.822 379.296C326.918 379.07 325.956 379.079 325.051 379.324C321.167 379.381 317.284 379.464 313.406 379.605C259.005 381.578 204.179 377.601 149.734 377.633C121.755 377.649 93.7776 376.866 65.8246 375.695C52.8516 375.152 37.1786 374.349 25.3546 368.278C10.8796 360.845 13.1266 342.696 12.2426 328.651C12.0996 326.38 12.0046 324.098 11.9016 321.818C27.5016 323.345 43.6776 320.457 59.2356 319.604C78.9736 318.522 98.6806 318.45 118.444 318.5C140.762 318.556 163.08 318.452 185.397 318.519C206.414 318.581 227.274 321.107 248.277 321.555C289.848 322.441 331.418 322.057 372.971 323.516C393.765 324.245 414.545 324.137 435.353 323.69C452.83 323.315 470.362 324.364 487.779 323.162C487.329 325.258 486.907 327.354 486.416 329.455ZM499.312 203.815C499.21 230.873 496.797 257.625 493.943 284.505C493.134 292.131 493.876 310.466 486.632 314.053C480.367 317.155 470.298 314.099 463.577 314.123C454.169 314.159 444.759 314.004 435.353 314.239C414.55 314.759 393.763 314.867 372.971 314.174C332.126 312.812 291.248 312.996 250.381 312.448C230.164 312.177 210.058 309.587 189.842 309.516C167.544 309.437 145.243 309.664 122.945 309.719C103.077 309.769 83.2286 309.72 63.3896 310.881C46.2356 311.885 28.8266 314.673 11.6186 314.22C10.9746 291.953 11.7616 269.366 11.5706 247.222C11.3646 223.341 9.5806 199.521 9.5866 175.631C9.5936 151.646 11.1636 127.889 13.6946 104.047C15.0066 91.6814 15.4546 73.0874 23.0036 62.6864C31.7786 50.5964 52.8096 49.3774 66.5416 48.5994C127.576 45.1394 188.464 42.9054 249.623 42.4454C301.069 42.0584 352.261 45.4994 403.738 43.8474C428.218 45.0144 455.325 42.6874 478.547 50.8504C484.165 52.8254 492.346 56.0164 495.591 61.5824C498.503 66.5764 498.439 73.5744 498.734 79.1224C499.471 92.9894 500.122 106.822 500.944 120.671C502.581 148.283 499.415 176.184 499.312 203.815Z" fill="#00B4BE"/>
<path d="M511.935 129.287L484.936 129.579L484.936 129.579L511.935 129.287ZM509.601 79.1234L536.555 77.5538L536.555 77.5518L509.601 79.1234ZM500.794 50.3354L482.351 70.0553L482.352 70.0559L500.794 50.3354ZM462.652 36.5794L465.237 9.70349L465.235 9.70327L462.652 36.5794ZM416.021 33.8994L415.699 60.8975L415.7 60.8975L416.021 33.8994ZM332.607 34.8314L332.746 7.8318L332.745 7.8318L332.607 34.8314ZM249.624 33.2734L249.624 60.2734L249.625 60.2734L249.624 33.2734ZM66.5426 37.9084L65.2232 10.9407L65.2229 10.9407L66.5426 37.9084ZM9.7056 66.6004L35.2488 75.3496L35.2493 75.348L9.7056 66.6004ZM3.6866 108.084L30.5756 110.53L30.5756 110.53L3.6866 108.084ZM0.622598 148.633L27.6049 149.612L27.6049 149.61L0.622598 148.633ZM1.6646 316.729L28.6632 317.001L28.6632 317.001L1.6646 316.729ZM4.1176 355.451L-22.563 359.592L-22.5628 359.593L4.1176 355.451ZM23.2276 378.652L12.7369 403.531L12.7374 403.531L23.2276 378.652ZM106.099 387.55L106.292 360.551L106.291 360.551L106.099 387.55ZM176.747 388.35L203.615 391.016L206.517 361.761L177.122 361.353L176.747 388.35ZM175.739 427.62L202.706 426.298L202.706 426.297L175.739 427.62ZM178.784 442.146L176.119 469.015L228.42 474.202L202.177 428.665L178.784 442.146ZM170.651 441.467L168.968 468.415L168.97 468.415L170.651 441.467ZM138.751 450.257L118.147 432.808L118.145 432.81L138.751 450.257ZM143.717 473.706L132.363 498.203L132.364 498.204L143.717 473.706ZM186.632 478.649L186.505 451.65L186.504 451.65L186.632 478.649ZM297.749 477.565L297.981 450.566L297.981 450.566L297.749 477.565ZM352.812 476.949L357.547 503.531L357.547 503.531L352.812 476.949ZM369.659 456.851L343.637 464.054L343.637 464.054L369.659 456.851ZM335.683 441.321L334.374 414.353L334.37 414.353L335.683 441.321ZM328.9 441.72L306.302 426.944L276.633 472.318L330.722 468.659L328.9 441.72ZM333.218 421.813L306.218 421.683L306.218 421.683L333.218 421.813ZM332.673 389.85L332.619 362.85L301.69 362.911L305.927 393.55L332.673 389.85ZM382.853 390.457L381.885 417.44L381.886 417.44L382.853 390.457ZM462.834 385.812L451.59 361.265L451.59 361.265L462.834 385.812ZM498.883 323.708L472.53 317.833L472.529 317.834L498.883 323.708ZM509.427 232.554L536.396 233.837L536.396 233.837L509.427 232.554ZM348.865 451.273L356.667 425.425L356.142 425.267L355.611 425.13L348.865 451.273ZM359.662 459.231L332.68 458.239L332.68 458.245L359.662 459.231ZM357.949 462.6L337.688 444.754L337.686 444.756L357.949 462.6ZM339.824 467.883L339.803 440.883L339.802 440.883L339.824 467.883ZM241.107 468.342L241.087 441.342L241.087 441.342L241.107 468.342ZM192.386 468.887L191.592 441.899L191.59 441.899L192.386 468.887ZM149.917 465.668L163.7 442.451L163.699 442.451L149.917 465.668ZM160.014 451.24L156.771 424.436L156.771 424.436L160.014 451.24ZM209.228 454.342L205.44 481.076L205.441 481.076L209.228 454.342ZM256.664 456.365L257.13 483.361L257.131 483.361L256.664 456.365ZM293.99 455.882L295.599 482.834L295.601 482.834L293.99 455.882ZM184.695 388.459L185.077 361.462L155.215 361.039L157.796 390.792L184.695 388.459ZM293.078 389.835L293.306 362.836L293.305 362.836L293.078 389.835ZM321.439 389.873L348.428 389.105L347.679 362.804L321.367 362.874L321.439 389.873ZM322.276 410.663L295.28 411.144L295.28 411.144L322.276 410.663ZM310.409 442.115L301.103 416.77L301.103 416.77L310.409 442.115ZM254.754 445.758L254.387 418.761L254.387 418.761L254.754 445.758ZM198.963 441.636L206.008 415.572L206.008 415.572L198.963 441.636ZM186.416 429.299L213.106 425.221L213.106 425.22L186.416 429.299ZM185.814 417.962L212.803 417.211L212.803 417.21L185.814 417.962ZM486.416 329.455L460.124 323.311L460.124 323.311L486.416 329.455ZM470.722 367.127L451.032 348.653L451.031 348.653L470.722 367.127ZM392.951 379.838L392.99 406.838L392.991 406.838L392.951 379.838ZM327.822 379.296L321.273 405.49L324.637 406.331L328.104 406.295L327.822 379.296ZM325.051 379.324L325.447 406.322L328.835 406.272L332.106 405.386L325.051 379.324ZM313.406 379.605L314.384 406.588L314.387 406.588L313.406 379.605ZM149.734 377.633L149.749 404.633L149.749 404.633L149.734 377.633ZM65.8246 375.695L66.9547 348.719L66.9537 348.719L65.8246 375.695ZM25.3546 368.278L13.021 392.297L13.0221 392.297L25.3546 368.278ZM12.2426 328.651L39.1893 326.955L39.1892 326.955L12.2426 328.651ZM11.9016 321.818L14.5319 294.947L-16.477 291.912L-15.0709 323.037L11.9016 321.818ZM59.2356 319.604L57.7577 292.645L57.7575 292.645L59.2356 319.604ZM118.444 318.5L118.375 345.5L118.376 345.5L118.444 318.5ZM185.397 318.519L185.316 345.519L185.317 345.519L185.397 318.519ZM248.277 321.555L247.701 348.549L247.701 348.549L248.277 321.555ZM372.971 323.516L372.023 350.5L372.025 350.5L372.971 323.516ZM435.353 323.69L434.773 296.697L434.773 296.697L435.353 323.69ZM487.779 323.162L514.177 328.83L521.707 293.757L485.92 296.226L487.779 323.162ZM499.312 203.815L526.311 203.917L526.311 203.916L499.312 203.815ZM493.943 284.505L467.094 281.655L467.093 281.657L493.943 284.505ZM486.632 314.053L498.612 338.25L498.613 338.25L486.632 314.053ZM463.577 314.123L463.48 287.124L463.473 287.124L463.577 314.123ZM435.353 314.239L434.678 287.248L434.678 287.248L435.353 314.239ZM372.971 314.174L372.071 341.159L372.071 341.159L372.971 314.174ZM250.381 312.448L250.743 285.451L250.742 285.451L250.381 312.448ZM189.842 309.516L189.746 336.516L189.747 336.516L189.842 309.516ZM122.945 309.719L122.878 282.72L122.877 282.72L122.945 309.719ZM63.3896 310.881L61.8122 283.928L61.812 283.928L63.3896 310.881ZM11.6186 314.22L-15.3701 315.001L-14.6315 340.539L10.9081 341.211L11.6186 314.22ZM11.5706 247.222L38.5696 246.99L38.5696 246.99L11.5706 247.222ZM9.5866 175.631L-17.4134 175.624L-17.4134 175.625L9.5866 175.631ZM13.6946 104.047L40.5437 106.898L40.5439 106.896L13.6946 104.047ZM23.0036 62.6864L1.15249 46.8268L1.15238 46.8269L23.0036 62.6864ZM66.5416 48.5994L68.0689 75.5562L68.0698 75.5562L66.5416 48.5994ZM249.623 42.4454L249.826 69.4447L249.826 69.4447L249.623 42.4454ZM403.738 43.8474L405.023 16.8781L403.948 16.8268L402.872 16.8613L403.738 43.8474ZM478.547 50.8504L487.501 25.3786L487.501 25.3784L478.547 50.8504ZM495.591 61.5824L472.265 75.1812L472.266 75.1829L495.591 61.5824ZM498.734 79.1224L525.696 77.6895L525.696 77.6888L498.734 79.1224ZM500.944 120.671L527.896 119.074L527.896 119.072L500.944 120.671ZM538.933 128.996C538.744 111.484 537.499 93.7614 536.555 77.5538L482.646 80.6931C483.644 97.8335 484.765 113.723 484.936 129.579L538.933 128.996ZM536.555 77.5518C536.302 73.2178 535.945 65.4177 534.161 57.6913C532.32 49.7163 528.429 39.2127 519.235 30.615L482.352 70.0559C480.808 68.6122 481.038 67.6406 481.545 69.8401C481.783 70.8689 482.003 72.2564 482.19 74.1644C482.382 76.123 482.496 78.1181 482.646 80.6951L536.555 77.5518ZM519.236 30.6156C510.483 22.4298 499.872 17.7105 491.042 14.878C481.944 11.9593 472.789 10.43 465.237 9.70349L460.066 63.4554C464.823 63.9129 470.015 64.843 474.548 66.2972C479.349 67.8374 481.655 69.4041 482.351 70.0553L519.236 30.6156ZM465.235 9.70327C449.286 8.17055 432.758 7.09646 416.341 6.90134L415.7 60.8975C430.245 61.0704 445.217 62.0283 460.069 63.4556L465.235 9.70327ZM416.342 6.90135C401.929 6.72987 387.61 7.00926 373.737 7.3009C359.73 7.59538 346.217 7.9011 332.746 7.8318L332.468 61.8311C346.792 61.9048 361.076 61.579 374.872 61.289C388.803 60.9961 402.292 60.738 415.699 60.8975L416.342 6.90135ZM332.745 7.8318C319.271 7.76261 305.762 7.38272 291.848 7.00857C278.044 6.6374 263.871 6.27292 249.623 6.27344L249.625 60.2734C263.049 60.273 276.54 60.6165 290.396 60.9891C304.141 61.3587 318.287 61.7583 332.468 61.8311L332.745 7.8318ZM249.623 6.27344C187.939 6.27545 126.71 7.93253 65.2232 10.9407L67.862 64.8762C128.565 61.9064 188.91 60.2754 249.624 60.2734L249.623 6.27344ZM65.2229 10.9407C53.713 11.504 37.6975 12.6485 22.9487 18.3518C6.91771 24.5508 -8.53968 36.5409 -15.8381 57.8528L35.2493 75.348C36.2969 72.289 37.835 70.4921 42.4245 68.7173C48.2962 66.4468 56.5262 65.4309 67.8623 64.8762L65.2229 10.9407ZM-15.8376 57.8513C-21.4995 74.3814 -22.2501 95.1665 -23.2025 105.639L30.5756 110.53C32.0233 94.6103 32.3387 83.8455 35.2488 75.3496L-15.8376 57.8513ZM-23.2024 105.639C-24.3988 118.792 -25.8343 133.143 -26.3597 147.657L27.6049 149.61C28.0635 136.946 29.312 124.421 30.5756 110.53L-23.2024 105.639ZM-26.3597 147.655C-27.4054 176.499 -26.9864 205.169 -26.4006 233.221C-25.8104 261.49 -25.0574 288.949 -25.334 316.458L28.6632 317.001C28.9506 288.425 28.1671 259.847 27.5876 232.094C27.0036 204.124 26.6196 176.788 27.6049 149.612L-26.3597 147.655ZM-25.334 316.458C-25.4708 330.055 -24.7954 345.207 -22.563 359.592L30.7982 351.311C29.1506 340.694 28.546 328.65 28.6632 317.001L-25.334 316.458ZM-22.5628 359.593C-21.0143 369.568 -17.3186 379.133 -10.3112 387.351C-3.51343 395.323 4.86237 400.211 12.7369 403.531L33.7183 353.774C30.5488 352.437 30.3066 351.76 30.7789 352.314C30.8772 352.429 30.9717 352.559 31.0512 352.688C31.089 352.749 31.1176 352.801 31.1378 352.84C31.1578 352.878 31.1667 352.899 31.1662 352.898C31.1661 352.898 31.1196 352.789 31.0506 352.54C30.9809 352.287 30.8877 351.887 30.798 351.31L-22.5628 359.593ZM12.7374 403.531C29.1525 410.453 46.754 412.91 62.3699 413.888C77.6928 414.848 93.9626 414.464 105.906 414.55L106.291 360.551C91.8906 360.448 79.0893 360.83 65.745 359.994C52.6937 359.177 42.0317 357.279 33.7178 353.774L12.7374 403.531ZM105.905 414.55C129.363 414.718 152.835 415.021 176.372 415.348L177.122 361.353C153.565 361.026 129.942 360.721 106.292 360.551L105.905 414.55ZM149.879 385.685C148.464 399.937 148.071 414.685 148.771 428.944L202.706 426.297C202.14 414.766 202.457 402.686 203.615 391.016L149.879 385.685ZM148.771 428.942C149.002 433.647 149.287 445.037 155.39 455.628L202.177 428.665C203.006 430.103 203.123 431.067 203.055 430.683C203.02 430.484 202.958 430.063 202.892 429.296C202.825 428.513 202.769 427.584 202.706 426.298L148.771 428.942ZM181.449 415.278C178.571 414.993 175.499 414.717 172.331 414.52L168.97 468.415C171.222 468.556 173.573 468.762 176.119 469.015L181.449 415.278ZM172.333 414.52C166.167 414.135 157.307 413.931 148.146 415.8C138.885 417.689 127.172 422.151 118.147 432.808L159.355 467.707C157.913 469.409 156.815 469.144 158.94 468.71C161.167 468.256 164.465 468.134 168.968 468.415L172.333 414.52ZM118.145 432.81C100.278 453.911 107.129 486.508 132.363 498.203L155.07 449.209C162.628 452.712 164.218 461.964 159.356 467.705L118.145 432.81ZM132.364 498.204C142.992 503.129 154.089 504.723 162.975 505.333C171.732 505.935 180.913 505.677 186.759 505.649L186.504 451.65C178.79 451.686 172.829 451.883 166.676 451.46C160.651 451.046 157.071 450.137 155.069 449.209L132.364 498.204ZM186.759 505.649C225.111 505.469 260.445 504.246 297.516 504.564L297.981 450.566C261.073 450.249 222.168 451.482 186.505 451.65L186.759 505.649ZM297.516 504.564C306.993 504.646 312.953 505.204 324.751 505.478C334.673 505.709 346.118 505.567 357.547 503.531L348.076 450.368C341.98 451.454 334.786 451.697 326.004 451.493C319.097 451.332 306.288 450.638 297.981 450.566L297.516 504.564ZM357.547 503.531C365.578 502.1 376.68 498.588 385.426 489.942C395.889 479.601 399.894 464.871 395.68 449.649L343.637 464.054C343.408 463.228 343.023 461.01 343.79 458.053C344.564 455.076 346.112 452.875 347.465 451.538C348.096 450.914 348.635 450.522 348.973 450.303C349.31 450.085 349.506 450 349.507 449.999C349.511 449.998 349.388 450.051 349.122 450.129C348.86 450.205 348.509 450.291 348.076 450.368L357.547 503.531ZM395.68 449.649C390.549 431.11 376.432 421.802 364.421 417.795C353.258 414.07 341.804 413.993 334.374 414.353L336.991 468.29C339.311 468.177 341.509 468.187 343.46 468.351C345.462 468.52 346.711 468.813 347.331 469.019C347.941 469.223 347.283 469.122 346.21 468.142C344.926 466.969 344.012 465.41 343.637 464.054L395.68 449.649ZM334.37 414.353C331.885 414.474 329.455 414.621 327.077 414.782L330.722 468.659C332.838 468.516 334.92 468.391 336.996 468.29L334.37 414.353ZM351.497 456.497C359.928 443.603 360.18 429.677 360.217 421.943L306.218 421.683C306.202 425.011 306.055 426.644 305.885 427.576C305.759 428.265 305.755 427.781 306.302 426.944L351.497 456.497ZM360.217 421.944C360.253 414.499 361.211 399.117 359.418 386.151L305.927 393.55C307.018 401.436 306.28 408.794 306.218 421.683L360.217 421.944ZM332.726 416.85C349.444 416.817 365.756 416.862 381.885 417.44L383.82 363.475C366.589 362.857 349.397 362.817 332.619 362.85L332.726 416.85ZM381.886 417.44C387.591 417.644 393.612 418.089 400.816 418.554C407.743 419 415.451 419.44 423.292 419.475C438.563 419.544 457.054 418.157 474.078 410.36L451.59 361.265C445.286 364.153 436.211 365.533 423.536 365.476C417.404 365.448 411.044 365.101 404.29 364.666C397.812 364.248 390.54 363.715 383.819 363.475L381.886 417.44ZM474.078 410.36C493.724 401.361 505.332 386.205 512.479 371.123C519.26 356.813 522.674 341.073 525.236 329.583L472.529 317.834C469.723 330.424 467.426 340.096 463.681 347.998C460.302 355.128 456.569 358.984 451.59 361.265L474.078 410.36ZM525.236 329.584C532.345 297.697 534.94 264.46 536.396 233.837L482.457 231.272C481.039 261.082 478.604 290.586 472.53 317.833L525.236 329.584ZM536.396 233.837C538.031 199.463 539.312 164.035 538.933 128.996L484.936 129.579C485.298 163.028 484.077 197.212 482.457 231.272L536.396 233.837ZM341.063 477.122C343.45 477.842 343.256 477.869 342.587 477.501C342.156 477.264 340.004 476.071 337.763 473.377C335.17 470.259 332.431 464.993 332.68 458.239L386.643 460.224C387.342 441.232 372.328 432.228 368.596 430.177C363.325 427.281 357.646 425.721 356.667 425.425L341.063 477.122ZM332.68 458.245C332.858 453.367 334.474 449.751 335.584 447.781C336.635 445.916 337.656 444.79 337.688 444.754L378.21 480.447C379.175 479.351 386.217 471.869 386.644 460.218L332.68 458.245ZM337.686 444.756C337.745 444.688 338.538 443.808 340.132 442.868C340.919 442.404 341.769 442.005 342.649 441.687C343.52 441.373 344.285 441.189 344.871 441.082C345.894 440.895 346.353 440.96 345.265 440.957C344.736 440.955 344.165 440.943 343.171 440.923C342.267 440.905 341.091 440.882 339.803 440.883L339.844 494.883C340.523 494.883 341.213 494.895 342.089 494.912C342.875 494.928 343.999 494.953 345.097 494.956C347.264 494.963 350.704 494.909 354.57 494.204C364.039 492.475 371.841 487.678 378.212 480.444L337.686 444.756ZM339.802 440.883C323.248 440.897 306.721 441.006 290.286 441.114C273.825 441.223 257.456 441.331 241.087 441.342L241.126 495.342C257.68 495.33 274.207 495.222 290.642 495.113C307.104 495.005 323.474 494.896 339.845 494.883L339.802 440.883ZM241.087 441.342C224.824 441.354 208.263 441.409 191.592 441.899L193.18 495.876C209 495.41 224.874 495.354 241.127 495.342L241.087 441.342ZM191.59 441.899C188.196 441.999 183.981 442.274 180.785 442.448C177.218 442.641 173.945 442.774 170.902 442.747C167.813 442.72 165.542 442.528 163.975 442.254C162.278 441.957 162.523 441.753 163.7 442.451L136.134 488.885C148.076 495.975 162.196 496.673 170.426 496.745C178.37 496.815 190.325 495.96 193.182 495.876L191.59 441.899ZM163.699 442.451C163.759 442.487 165.256 443.355 167.022 445.417C168.91 447.621 171.453 451.641 172.111 457.36C173.515 469.573 165.614 476.239 164.701 476.981C163.063 478.313 162.187 478.473 162.973 478.185C163.556 477.972 163.82 477.977 163.257 478.045L156.771 424.436C152.653 424.934 148.335 426.041 144.43 427.469C140.728 428.823 135.458 431.162 130.641 435.077C126.549 438.403 116.685 448.057 118.464 463.528C120.143 478.132 131.012 485.845 136.134 488.886L163.699 442.451ZM163.257 478.045C175.337 476.583 187.851 478.584 205.44 481.076L213.015 427.609C198.162 425.505 177.504 421.927 156.771 424.436L163.257 478.045ZM205.441 481.076C223.425 483.623 241.063 483.639 257.13 483.361L256.197 429.369C240.528 429.64 226.502 429.52 213.014 427.609L205.441 481.076ZM257.131 483.361C267.318 483.185 282.691 483.605 295.599 482.834L292.381 428.93C280.499 429.64 270.863 429.116 256.197 429.369L257.131 483.361ZM295.601 482.834C306.558 482.179 319.605 479.134 325.992 478.023C334.29 476.58 338.825 476.567 342.118 477.417L355.611 425.13C340.792 421.306 326.862 423.061 316.737 424.822C304.701 426.916 299.367 428.513 292.378 428.931L295.601 482.834ZM184.312 415.457C220.383 415.968 256.613 416.53 292.85 416.834L293.305 362.836C257.267 362.533 221.252 361.975 185.077 361.462L184.312 415.457ZM292.849 416.834C302.454 416.916 312.048 416.898 321.51 416.873L321.367 362.874C311.899 362.899 302.577 362.915 293.306 362.836L292.849 416.834ZM294.45 390.642C294.558 394.441 294.754 398.239 294.917 401.587C295.086 405.058 295.227 408.151 295.28 411.144L349.271 410.183C349.202 406.266 349.022 402.423 348.853 398.956C348.678 395.366 348.516 392.224 348.428 389.105L294.45 390.642ZM295.28 411.144C295.315 413.114 295.394 415.042 295.456 416.583C295.523 418.235 295.571 419.495 295.588 420.667C295.625 423.134 295.481 423.829 295.504 423.715C295.584 423.333 296.054 421.503 297.717 419.5C298.504 418.551 299.33 417.846 300.043 417.365C300.73 416.901 301.154 416.751 301.103 416.77L319.714 467.461C327.085 464.755 333.925 460.428 339.274 453.981C344.576 447.592 347.137 440.657 348.375 434.701C349.557 429.012 349.639 423.663 349.582 419.866C349.553 417.905 349.475 415.977 349.413 414.419C349.346 412.748 349.294 411.441 349.271 410.183L295.28 411.144ZM301.103 416.77C297.138 418.226 291.313 419.037 282.617 419.142C278.404 419.193 274.069 419.085 269.253 418.958C264.638 418.836 259.434 418.692 254.387 418.761L255.12 472.756C258.885 472.705 262.96 472.811 267.83 472.939C272.5 473.062 277.855 473.204 283.27 473.138C293.832 473.011 307.025 472.12 319.714 467.461L301.103 416.77ZM254.387 418.761C234.903 419.025 219.569 419.238 206.008 415.572L191.917 467.701C214.211 473.727 237.738 472.992 255.12 472.756L254.387 418.761ZM206.008 415.572C203.874 414.995 203.428 414.821 203.514 414.855C203.77 414.956 205.74 415.745 207.985 417.75C210.462 419.962 211.931 422.434 212.69 424.267C213.29 425.715 213.283 426.382 213.106 425.221L159.725 433.378C160.654 439.457 162.895 449.882 172.018 458.028C179.532 464.739 188.998 466.912 191.917 467.701L206.008 415.572ZM213.106 425.22C212.869 423.67 212.957 422.73 212.803 417.211L158.824 418.714C158.88 420.739 158.818 427.444 159.726 433.379L213.106 425.22ZM212.803 417.21C212.558 408.411 212.535 396.98 211.594 386.127L157.796 390.792C158.554 399.543 158.521 407.864 158.824 418.715L212.803 417.21ZM460.124 323.311C456.585 338.456 454.612 344.837 451.032 348.653L490.412 385.602C505.859 369.138 510.126 346.643 512.707 335.6L460.124 323.311ZM451.031 348.653C448.708 351.13 444.142 353.569 432.733 354.093C427.223 354.345 421.237 354.111 414.354 353.727C407.975 353.371 400.088 352.828 392.91 352.838L392.991 406.838C398.16 406.831 403.794 407.221 411.343 407.643C418.387 408.036 426.738 408.425 435.208 408.036C451.76 407.277 473.733 403.379 490.412 385.602L451.031 348.653ZM392.911 352.838C373.768 352.867 348.247 352.081 327.539 352.298L328.104 406.295C350.786 406.058 368.789 406.874 392.99 406.838L392.911 352.838ZM334.37 353.103C328.987 351.757 323.341 351.815 317.995 353.263L332.106 405.386C328.57 406.344 324.849 406.384 321.273 405.49L334.37 353.103ZM324.654 352.327C320.657 352.386 316.565 352.473 312.425 352.623L314.387 406.588C318.002 406.456 321.676 406.377 325.447 406.322L324.654 352.327ZM312.427 352.623C257.887 354.601 207.587 350.599 149.718 350.633L149.749 404.633C200.77 404.603 260.122 408.556 314.384 406.588L312.427 352.623ZM149.718 350.633C122.242 350.649 94.6694 349.88 66.9547 348.719L64.6945 402.672C92.8858 403.853 121.267 404.65 149.749 404.633L149.718 350.633ZM66.9537 348.719C52.6796 348.122 43.2938 347.138 37.6871 344.259L13.0221 392.297C31.0634 401.561 53.0236 402.183 64.6955 402.672L66.9537 348.719ZM37.6882 344.26C38.5934 344.725 39.625 345.657 40.272 346.7C40.7374 347.451 40.5279 347.502 40.2369 345.954C39.9371 344.36 39.7367 342.153 39.6104 338.728C39.5465 336.995 39.5131 335.401 39.4557 333.333C39.4025 331.415 39.3309 329.205 39.1893 326.955L-14.7041 330.347C-14.5052 333.507 -14.5385 335.685 -14.3529 340.718C-14.1995 344.879 -13.8912 350.307 -12.8329 355.934C-10.6278 367.661 -4.43496 383.333 13.021 392.297L37.6882 344.26ZM39.1892 326.955C39.0654 324.988 38.9835 323.022 38.8741 320.6L-15.0709 323.037C-14.9743 325.174 -14.8662 327.773 -14.704 330.348L39.1892 326.955ZM9.27129 348.69C19.4692 349.688 29.2967 349.196 37.7464 348.517C47.2574 347.753 53.1702 346.978 60.7137 346.564L57.7575 292.645C49.743 293.084 39.7888 294.179 33.4223 294.691C25.9945 295.287 19.9339 295.476 14.5319 294.947L9.27129 348.69ZM60.7135 346.564C79.6122 345.528 98.645 345.45 118.375 345.5L118.512 291.501C98.7162 291.45 78.335 291.517 57.7577 292.645L60.7135 346.564ZM118.376 345.5C141.827 345.559 162.133 345.45 185.316 345.519L185.478 291.52C164.027 291.455 139.697 291.554 118.511 291.501L118.376 345.5ZM185.317 345.519C194.872 345.548 204.564 346.137 215.052 346.833C225.291 347.513 236.454 348.309 247.701 348.549L248.852 294.562C239.097 294.353 229.327 293.662 218.631 292.952C208.184 292.258 196.938 291.553 185.476 291.52L185.317 345.519ZM247.701 348.549C290.737 349.466 330.353 349.037 372.023 350.5L373.918 296.533C332.482 295.078 288.959 295.416 248.852 294.562L247.701 348.549ZM372.025 350.5C393.52 351.253 414.854 351.137 435.932 350.684L434.773 296.697C414.235 297.138 394.009 297.237 373.917 296.533L372.025 350.5ZM435.932 350.684C449.842 350.386 472.001 351.316 489.638 350.098L485.92 296.226C468.723 297.413 455.818 296.245 434.773 296.697L435.932 350.684ZM461.38 317.495C460.833 320.045 460.542 321.521 460.124 323.311L512.707 335.6C513.271 333.188 513.824 330.472 514.177 328.83L461.38 317.495ZM472.312 203.714C472.215 229.33 469.929 254.952 467.094 281.655L520.792 287.356C523.664 260.299 526.204 232.417 526.311 203.917L472.312 203.714ZM467.093 281.657C466.921 283.284 466.814 284.937 466.738 286.266C466.672 287.412 466.576 289.305 466.519 290.345C466.368 293.066 466.205 295.274 465.951 297.124C465.669 299.178 465.443 299.464 465.739 298.741C465.925 298.29 466.497 296.997 467.752 295.397C469.063 293.728 471.284 291.525 474.65 289.857L498.613 338.25C508.901 333.155 513.617 324.307 515.693 319.251C517.913 313.842 518.91 308.395 519.45 304.464C520.017 300.328 520.272 296.299 520.436 293.325C520.635 289.731 520.685 288.36 520.792 287.354L467.093 281.657ZM474.651 289.857C477.165 288.612 479.033 288.467 479.238 288.451C479.464 288.433 479.101 288.478 477.699 288.352C476.12 288.209 474.918 288.034 472.3 287.725C470.241 287.482 466.937 287.111 463.48 287.124L463.673 341.123C463.577 341.124 464.051 341.126 465.967 341.352C467.323 341.512 470.289 341.903 472.851 342.134C477.2 342.526 488.112 343.449 498.612 338.25L474.651 289.857ZM463.473 287.124C454.836 287.157 444.425 287.004 434.678 287.248L436.027 341.231C445.093 341.005 453.501 341.162 463.68 341.123L463.473 287.124ZM434.678 287.248C414.218 287.759 393.983 287.86 373.87 287.189L372.071 341.159C393.543 341.875 414.882 341.76 436.027 341.231L434.678 287.248ZM373.87 287.189C332.696 285.816 290.936 285.99 250.743 285.451L250.019 339.446C291.559 340.003 331.556 339.808 372.071 341.159L373.87 287.189ZM250.742 285.451C241.521 285.327 232.227 284.674 221.955 283.97C211.955 283.286 201.043 282.556 189.936 282.517L189.747 336.516C198.856 336.548 208.106 337.149 218.266 337.844C228.156 338.522 239.023 339.299 250.019 339.446L250.742 285.451ZM189.937 282.517C167.564 282.437 144.865 282.665 122.878 282.72L123.011 336.719C145.62 336.664 167.523 336.438 189.746 336.516L189.937 282.517ZM122.877 282.72C103.273 282.769 82.5716 282.713 61.8122 283.928L64.967 337.835C83.8856 336.728 102.88 336.77 123.013 336.719L122.877 282.72ZM61.812 283.928C52.7097 284.46 43.0204 285.505 35.1424 286.203C26.7591 286.945 19.3459 287.414 12.3291 287.23L10.9081 341.211C21.0993 341.479 30.9946 340.781 39.9063 339.992C49.3233 339.158 56.9155 338.307 64.9672 337.835L61.812 283.928ZM38.6073 313.44C37.9593 291.033 38.7786 271.219 38.5696 246.99L-15.4284 247.455C-15.2554 267.514 -16.0101 292.874 -15.3701 315.001L38.6073 313.44ZM38.5696 246.99C38.4622 234.545 37.9439 222.161 37.4781 210.365C37.0059 198.408 36.5837 186.979 36.5866 175.638L-17.4134 175.625C-17.4166 188.174 -16.9497 200.6 -16.4799 212.496C-16.0037 224.553 -15.527 236.019 -15.4284 247.455L38.5696 246.99ZM36.5866 175.639C36.5933 152.822 38.0869 130.041 40.5437 106.898L-13.1545 101.197C-15.7597 125.738 -17.4061 150.471 -17.4134 175.624L36.5866 175.639ZM40.5439 106.896C41.4017 98.8111 41.5872 93.557 42.6596 86.967C43.719 80.4575 44.932 78.4396 44.8548 78.546L1.15238 46.8269C-6.47382 57.3343 -9.25929 69.8139 -10.6392 78.2932C-12.006 86.6919 -12.7005 96.9177 -13.1547 101.199L40.5439 106.896ZM44.8547 78.5461C43.5438 80.3522 43.2485 79.0698 49.1415 77.6729C54.5272 76.3962 60.8636 75.9644 68.0689 75.5562L65.0143 21.6427C58.4876 22.0124 47.4424 22.5792 36.686 25.129C26.4367 27.5586 11.2384 32.9307 1.15249 46.8268L44.8547 78.5461ZM68.0698 75.5562C128.749 72.1163 189.187 69.9008 249.826 69.4447L249.42 15.4462C187.74 15.9101 126.402 18.1626 65.0134 21.6427L68.0698 75.5562ZM249.826 69.4447C275.014 69.2552 300.122 70.0021 326.032 70.6133C351.731 71.2195 378.051 71.6857 404.604 70.8335L402.872 16.8613C377.947 17.6612 352.932 17.2328 327.305 16.6283C301.888 16.0288 275.677 15.2487 249.42 15.4462L249.826 69.4447ZM402.452 70.8168C409.142 71.1357 415.918 71.2118 422.176 71.2843C428.603 71.3587 434.547 71.4296 440.376 71.6971C452.133 72.2365 461.652 73.5312 469.593 76.3225L487.501 25.3784C472.219 20.0067 456.573 18.3834 442.851 17.7538C435.941 17.4368 429.067 17.3604 422.801 17.2879C416.365 17.2133 410.573 17.1427 405.023 16.8781L402.452 70.8168ZM469.592 76.3223C470.807 76.7494 471.857 77.1367 472.819 77.5339C473.789 77.9345 474.469 78.2638 474.911 78.5081C475.381 78.7675 475.289 78.7701 474.877 78.4205C474.471 78.0758 473.356 77.0514 472.265 75.1812L518.916 47.9837C513.69 39.0192 505.856 33.9084 501.006 31.2315C495.772 28.3426 490.535 26.4452 487.501 25.3786L469.592 76.3223ZM472.266 75.1829C471.603 74.0452 471.348 73.2119 471.285 72.9881C471.224 72.77 471.276 72.8864 471.354 73.5063C471.431 74.125 471.5 74.955 471.566 76.1855C471.599 76.7962 471.627 77.4218 471.659 78.1661C471.69 78.8659 471.727 79.7142 471.772 80.5561L525.696 77.6888C525.615 76.1822 525.479 71.1315 524.933 66.7831C524.358 62.1997 523.032 55.0422 518.915 47.982L472.266 75.1829ZM471.772 80.5554C472.496 94.1916 473.163 108.324 473.991 122.271L527.896 119.072C527.08 105.321 526.445 91.7872 525.696 77.6895L471.772 80.5554ZM473.991 122.269C474.723 134.625 474.398 147.356 473.805 161.071C473.23 174.381 472.366 189.193 472.312 203.715L526.311 203.916C526.36 190.807 527.131 177.852 527.755 163.402C528.362 149.356 528.801 134.33 527.896 119.074L473.991 122.269Z" fill="#00B4BE" mask="url(#path-1-inside-1_2073_12539)"/>
<path d="M274.148 338.048C270.704 332.747 264.159 329.734 257.89 329.279C252.738 328.905 249.248 331.165 245.617 333.642C243.681 334.512 241.906 335.661 240.336 337.041C240.303 337.074 240.261 337.1 240.233 337.135C235.171 341.645 232.345 348.524 233.884 356.017C236.412 368.323 254.275 377.423 265.282 370.624C276.127 363.925 281.54 349.425 274.148 338.048ZM265.857 361.382C262.178 364.968 258.28 367.151 252.979 365.923C248.376 364.857 242.972 361.349 240.457 357.211C235.674 349.341 240.88 342.553 247.587 338.129C251.871 336.676 255.844 334.722 261.071 336.588C271.488 340.306 273.623 353.813 265.857 361.382Z" fill="#00B4BE"/>
<path d="M247.128 219.316C217.051 213.693 188.363 202.245 162.679 185.614C162.181 185.293 161.606 185.111 161.014 185.089C160.422 185.067 159.834 185.205 159.314 185.488C158.794 185.772 158.359 186.19 158.056 186.7C157.754 187.209 157.594 187.791 157.594 188.383V246.777C157.594 247.338 157.737 247.89 158.009 248.38C158.281 248.87 158.674 249.283 159.151 249.58C160.849 250.633 201.26 275.406 246.671 275.406C247.545 275.406 248.384 275.059 249.002 274.44C249.62 273.822 249.968 272.983 249.968 272.109V222.58C249.968 221.785 249.68 221.017 249.158 220.417C248.636 219.817 247.915 219.426 247.128 219.316ZM243.374 268.765C205.992 267.718 171.779 249.262 164.188 244.894V194.348C188.536 209.301 215.349 219.808 243.374 225.38V268.765Z" fill="#00B4BE"/>
<path d="M353.685 198.675C353.165 198.393 352.578 198.255 351.986 198.278C351.395 198.3 350.82 198.481 350.322 198.802C324.638 215.433 295.95 226.881 265.872 232.503C265.085 232.613 264.364 233.004 263.842 233.604C263.32 234.204 263.033 234.972 263.032 235.767V272.109C263.032 272.984 263.38 273.822 263.998 274.441C264.616 275.059 265.455 275.406 266.329 275.406C311.74 275.406 352.151 250.633 353.849 249.578C354.326 249.282 354.718 248.869 354.991 248.379C355.263 247.889 355.406 247.337 355.406 246.776V201.571C355.406 200.978 355.246 200.396 354.943 199.887C354.641 199.377 354.206 198.958 353.685 198.675ZM348.812 244.896C341.227 249.265 307.057 267.719 269.626 268.765V238.566C297.651 232.995 324.463 222.488 348.812 207.535V244.896Z" fill="#00B4BE"/>
<path d="M228.899 253.597C229.774 253.597 230.612 253.249 231.231 252.631C231.849 252.013 232.196 251.174 232.196 250.3C232.196 249.425 231.849 248.587 231.231 247.968C230.612 247.35 229.774 247.003 228.899 247.003C199.551 247.003 176.721 229.359 176.494 229.181C175.807 228.64 174.933 228.394 174.065 228.498C173.196 228.601 172.405 229.046 171.864 229.733C171.323 230.42 171.078 231.294 171.181 232.162C171.285 233.03 171.729 233.822 172.416 234.363C188.833 246.401 208.547 253.115 228.899 253.597Z" fill="#00B4BE"/>
<path d="M284.134 254.743C296.772 254.962 309.134 251.039 319.333 243.571C320.006 243.013 320.429 242.21 320.51 241.339C320.591 240.469 320.323 239.602 319.764 238.929C319.206 238.256 318.403 237.832 317.532 237.751C316.662 237.671 315.794 237.939 315.122 238.497C306.078 244.923 295.225 248.303 284.133 248.149H284.1C283.225 248.149 282.387 248.497 281.768 249.115C281.15 249.733 280.803 250.572 280.803 251.446C280.823 252.32 281.182 253.152 281.803 253.767C282.425 254.382 283.26 254.732 284.134 254.743Z" fill="#00B4BE"/>
<path d="M212.208 235.464C217.68 236.723 223.288 237.29 228.9 237.152C229.775 237.152 230.613 236.805 231.232 236.187C231.85 235.568 232.197 234.73 232.197 233.855C232.197 232.981 231.85 232.142 231.232 231.524C230.613 230.906 229.775 230.559 228.9 230.559C223.775 230.696 218.653 230.183 213.657 229.031C212.804 228.839 211.91 228.993 211.171 229.461C210.432 229.928 209.908 230.67 209.716 231.523C209.524 232.376 209.679 233.27 210.146 234.009C210.613 234.748 211.355 235.272 212.208 235.464Z" fill="#00B4BE"/>
<path d="M200.636 232.394C200.971 232.507 201.323 232.565 201.676 232.565C202.46 232.565 203.218 232.287 203.815 231.779C204.411 231.271 204.808 230.568 204.933 229.794C205.058 229.021 204.904 228.228 204.498 227.558C204.091 226.888 203.46 226.385 202.716 226.138C193.338 223.048 184.493 218.528 176.494 212.738C175.807 212.197 174.933 211.952 174.065 212.055C173.196 212.159 172.405 212.603 171.864 213.29C171.323 213.978 171.078 214.851 171.181 215.72C171.285 216.588 171.729 217.379 172.416 217.92C181 224.204 190.525 229.089 200.636 232.394Z" fill="#00B4BE"/>
<path d="M333.243 242.414C335.007 242.414 336.732 241.891 338.199 240.91C339.667 239.93 340.81 238.537 341.485 236.906C342.161 235.276 342.337 233.482 341.993 231.752C341.649 230.021 340.799 228.431 339.552 227.184C338.304 225.936 336.714 225.086 334.984 224.742C333.253 224.397 331.459 224.574 329.829 225.249C328.199 225.925 326.805 227.068 325.825 228.535C324.845 230.003 324.321 231.727 324.321 233.492C324.324 235.857 325.265 238.125 326.937 239.798C328.61 241.47 330.877 242.411 333.243 242.414ZM333.243 231.164C333.703 231.164 334.153 231.301 334.536 231.557C334.919 231.812 335.217 232.176 335.394 232.601C335.57 233.027 335.616 233.495 335.526 233.946C335.436 234.398 335.215 234.813 334.889 235.138C334.563 235.464 334.149 235.686 333.697 235.776C333.245 235.865 332.777 235.819 332.352 235.643C331.927 235.467 331.563 235.168 331.307 234.785C331.051 234.403 330.915 233.952 330.915 233.492C330.916 232.875 331.162 232.283 331.598 231.847C332.034 231.411 332.626 231.165 333.243 231.164Z" fill="#00B4BE"/>
<path d="M353.849 103.421C352.151 102.367 311.74 77.5938 266.329 77.5938C265.455 77.5938 264.616 77.9411 263.998 78.5594C263.38 79.1777 263.032 80.0162 263.032 80.8906V130.419C263.033 131.214 263.32 131.982 263.842 132.582C264.364 133.182 265.085 133.573 265.872 133.683C295.949 139.306 324.637 150.754 350.321 167.385C350.818 167.707 351.394 167.888 351.986 167.91C352.578 167.933 353.165 167.795 353.686 167.511C354.206 167.228 354.641 166.81 354.943 166.3C355.246 165.791 355.406 165.209 355.406 164.616V106.222C355.406 105.662 355.263 105.11 354.99 104.62C354.718 104.13 354.325 103.718 353.849 103.421ZM348.812 158.652C324.463 143.699 297.651 133.192 269.626 127.62V84.2343C307.008 85.2821 341.221 103.738 348.812 108.106V158.652Z" fill="#00B4BE"/>
<path d="M288.451 193.991C312.112 191.217 331.038 185.122 331.038 175.271C331.038 165.832 313.862 160.778 299.452 158.201C298.592 158.047 297.705 158.241 296.987 158.741C296.27 159.24 295.78 160.005 295.626 160.865C295.472 161.726 295.666 162.613 296.165 163.33C296.665 164.048 297.429 164.538 298.29 164.692C319.639 168.51 324.445 173.741 324.445 175.271C324.445 179.988 300.462 189.171 256.5 189.171C212.537 189.171 188.555 179.988 188.555 175.271C188.555 173.741 193.36 168.51 214.709 164.692C215.57 164.538 216.334 164.048 216.834 163.33C217.333 162.613 217.528 161.726 217.373 160.865C217.219 160.005 216.73 159.24 216.012 158.741C215.294 158.241 214.408 158.047 213.547 158.201C199.138 160.778 181.961 165.832 181.961 175.271C181.961 185.123 200.887 191.217 224.548 193.991C227.679 199.731 232.298 204.523 237.921 207.861C243.543 211.199 249.961 212.96 256.5 212.96C263.038 212.96 269.456 211.199 275.079 207.861C280.701 204.523 285.32 199.731 288.451 193.991ZM256.5 206.366C251.96 206.366 247.48 205.325 243.404 203.326C239.328 201.326 235.764 198.42 232.984 194.831C240.666 195.457 248.648 195.764 256.5 195.764C264.351 195.764 272.334 195.457 280.015 194.831C277.235 198.42 273.671 201.326 269.595 203.326C265.519 205.325 261.04 206.366 256.5 206.366Z" fill="#00B4BE"/>
<path d="M289.018 183.822C289.152 183.838 289.288 183.846 289.423 183.846C290.227 183.845 291.003 183.55 291.605 183.016C292.207 182.483 292.593 181.748 292.691 180.95C293.317 175.827 292.848 170.629 291.315 165.701C289.782 160.772 287.22 156.225 283.799 152.361C280.378 148.496 276.176 145.402 271.469 143.283C266.763 141.164 261.661 140.068 256.5 140.068C251.338 140.068 246.236 141.164 241.53 143.283C236.824 145.402 232.621 148.496 229.2 152.361C225.779 156.225 223.217 160.772 221.684 165.701C220.151 170.629 219.682 175.827 220.308 180.95C220.414 181.818 220.861 182.608 221.55 183.147C222.239 183.685 223.114 183.928 223.982 183.822C224.85 183.715 225.64 183.268 226.178 182.58C226.717 181.891 226.96 181.016 226.853 180.148C226.34 175.951 226.725 171.693 227.98 167.656C229.235 163.619 231.334 159.894 234.136 156.728C236.939 153.563 240.381 151.028 244.237 149.292C248.092 147.556 252.272 146.658 256.5 146.658C260.728 146.658 264.907 147.556 268.762 149.292C272.618 151.028 276.06 153.563 278.863 156.728C281.665 159.894 283.764 163.619 285.019 167.656C286.275 171.693 286.659 175.951 286.146 180.148C286.093 180.578 286.125 181.014 286.241 181.431C286.357 181.848 286.554 182.239 286.821 182.58C287.087 182.921 287.419 183.206 287.796 183.419C288.173 183.632 288.588 183.769 289.018 183.822Z" fill="#00B4BE"/>
<path d="M159.315 154.325C159.835 154.608 160.422 154.746 161.014 154.723C161.606 154.701 162.182 154.519 162.679 154.198C188.363 137.567 217.051 126.119 247.128 120.497C247.915 120.386 248.636 119.995 249.158 119.396C249.68 118.796 249.967 118.028 249.968 117.233V80.8906C249.968 80.0162 249.62 79.1777 249.002 78.5594C248.384 77.9411 247.545 77.5938 246.671 77.5938C201.26 77.5938 160.849 102.367 159.151 103.421C158.674 103.718 158.281 104.131 158.009 104.621C157.737 105.111 157.594 105.663 157.594 106.224V151.429C157.594 152.022 157.754 152.604 158.056 153.113C158.359 153.623 158.794 154.042 159.315 154.325ZM164.188 108.104C171.773 103.735 205.942 85.2804 243.374 84.235V114.434C215.349 120.005 188.536 130.512 164.188 145.465V108.104Z" fill="#00B4BE"/>
<path d="M284.101 105.997C313.449 105.997 336.279 123.641 336.506 123.819C337.193 124.36 338.067 124.606 338.935 124.502C339.804 124.399 340.595 123.954 341.136 123.267C341.677 122.58 341.922 121.706 341.819 120.838C341.715 119.97 341.271 119.178 340.584 118.637C324.167 106.598 304.453 99.8852 284.101 99.4033C283.226 99.4033 282.388 99.7507 281.769 100.369C281.151 100.987 280.804 101.826 280.804 102.7C280.804 103.575 281.151 104.413 281.769 105.031C282.388 105.65 283.226 105.997 284.101 105.997Z" fill="#00B4BE"/>
<path d="M228.866 98.2568C216.228 98.0375 203.866 101.961 193.668 109.429C192.995 109.987 192.572 110.79 192.491 111.661C192.41 112.531 192.678 113.399 193.237 114.071C193.795 114.744 194.598 115.168 195.468 115.249C196.339 115.329 197.206 115.061 197.879 114.503C206.923 108.077 217.777 104.696 228.87 104.851H228.903C229.777 104.851 230.615 104.503 231.233 103.885C231.851 103.268 232.199 102.429 232.199 101.555C232.211 101.116 232.133 100.679 231.969 100.271C231.806 99.8629 231.56 99.4929 231.248 99.1837C230.935 98.8746 230.563 98.6328 230.153 98.4733C229.744 98.3139 229.306 98.2402 228.866 98.2568Z" fill="#00B4BE"/>
<path d="M284.1 122.441C289.225 122.303 294.347 122.817 299.343 123.969C300.196 124.161 301.091 124.007 301.83 123.54C302.569 123.073 303.092 122.331 303.285 121.478C303.477 120.625 303.323 119.73 302.856 118.991C302.388 118.252 301.647 117.728 300.794 117.536C295.322 116.277 289.714 115.71 284.102 115.847C283.227 115.847 282.389 116.195 281.77 116.813C281.152 117.431 280.805 118.27 280.805 119.144C280.805 120.019 281.152 120.857 281.77 121.475C282.389 122.094 283.226 122.441 284.1 122.441Z" fill="#00B4BE"/>
<path d="M312.363 120.606C311.54 120.352 310.649 120.431 309.883 120.826C309.117 121.22 308.536 121.899 308.264 122.717C307.992 123.534 308.051 124.426 308.429 125.201C308.806 125.976 309.472 126.572 310.283 126.862C319.662 129.952 328.507 134.472 336.505 140.262C337.193 140.802 338.066 141.048 338.935 140.944C339.803 140.841 340.595 140.397 341.135 139.709C341.676 139.022 341.922 138.148 341.818 137.28C341.714 136.412 341.27 135.62 340.583 135.08C332 128.795 322.475 123.91 312.363 120.606Z" fill="#00B4BE"/>
<path d="M179.758 110.587C177.993 110.587 176.268 111.11 174.801 112.09C173.334 113.071 172.19 114.464 171.515 116.094C170.84 117.724 170.663 119.518 171.007 121.249C171.352 122.98 172.201 124.569 173.449 125.817C174.697 127.065 176.286 127.915 178.017 128.259C179.748 128.603 181.541 128.426 183.172 127.751C184.802 127.076 186.195 125.932 187.176 124.465C188.156 122.998 188.679 121.273 188.679 119.509C188.677 117.143 187.736 114.876 186.063 113.203C184.391 111.53 182.123 110.59 179.758 110.587ZM179.758 121.836C179.297 121.836 178.847 121.7 178.464 121.444C178.082 121.188 177.783 120.825 177.607 120.399C177.431 119.974 177.385 119.506 177.474 119.054C177.564 118.603 177.786 118.188 178.112 117.862C178.437 117.537 178.852 117.315 179.304 117.225C179.755 117.135 180.223 117.181 180.649 117.358C181.074 117.534 181.438 117.832 181.693 118.215C181.949 118.598 182.086 119.048 182.086 119.509C182.085 120.126 181.839 120.717 181.403 121.153C180.966 121.59 180.375 121.835 179.758 121.836Z" fill="#00B4BE"/>
</g>
<defs>
<clipPath id="clip0_2073_12539">
<rect width="512" height="512" fill="white"/>
</clipPath>
</defs>
</svg>
