<svg width="512" height="512" viewBox="0 0 512 512" fill="none" xmlns="http://www.w3.org/2000/svg">
<g clip-path="url(#clip0_2038_12820)">
<path d="M511.935 129.287C511.755 112.603 510.572 95.7974 509.601 79.1234C509.034 69.3994 508.444 57.4894 500.794 50.3354C491.345 41.4984 474.961 37.7634 462.652 36.5794C447.252 35.0994 431.502 34.0834 416.021 33.8994C388.201 33.5684 360.403 34.9744 332.607 34.8314C304.952 34.6894 277.297 33.2724 249.624 33.2734C188.425 33.2754 127.638 34.9194 66.5431 37.9084C43.6971 39.0264 18.0521 42.2294 9.70609 66.6004C5.42009 79.1134 4.88709 94.8884 3.68709 108.084C2.45709 121.606 1.11509 135.044 0.623086 148.633C-1.40791 204.653 2.22909 260.645 1.66509 316.729C1.53809 329.352 2.17809 342.95 4.11809 355.451C5.99209 367.523 12.1841 373.995 23.2281 378.652C47.9571 389.079 79.7551 387.362 106.099 387.55C129.653 387.719 153.2 388.023 176.747 388.35C175.461 401.311 175.106 414.725 175.739 427.62C176.007 433.087 176.397 438.004 178.784 442.146C176.072 441.877 173.361 441.636 170.651 441.467C159.982 440.801 146.334 441.303 138.751 450.257C132.248 457.937 134.879 469.61 143.717 473.706C156.347 479.559 173.072 478.713 186.632 478.649C223.64 478.475 260.759 477.247 297.749 477.565C315.533 477.718 335.287 480.071 352.812 476.949C363.353 475.071 373.013 468.968 369.659 456.851C365.636 442.316 348.253 440.711 335.683 441.321C333.403 441.432 331.147 441.568 328.9 441.72C332.633 436.011 333.182 429.291 333.218 421.813C333.267 411.646 334.115 400.276 332.673 389.85C349.421 389.817 366.173 389.859 382.853 390.457C407.703 391.347 439.507 396.497 462.834 385.812C487.46 374.532 493.515 347.788 498.883 323.708C505.475 294.141 507.99 262.771 509.427 232.554C511.054 198.337 512.305 163.531 511.935 129.287ZM348.865 451.273C352.231 452.289 359.838 454.446 359.662 459.231C359.615 460.516 358.799 461.635 357.949 462.6C352.306 469.008 347.692 467.877 339.824 467.883C306.898 467.909 274.03 468.318 241.107 468.342C224.849 468.354 208.632 468.409 192.386 468.887C180.586 469.235 160.418 471.902 149.917 465.668C137.574 458.341 152.906 452.1 160.014 451.24C176.421 449.255 193.007 452.044 209.228 454.342C224.964 456.571 240.796 456.639 256.664 456.365C269.091 456.15 281.595 456.622 293.99 455.882C311.935 454.809 330.753 446.599 348.865 451.273ZM184.695 388.459C220.818 388.971 256.94 389.531 293.078 389.835C302.516 389.915 311.974 389.898 321.439 389.873C321.636 396.791 322.153 403.753 322.276 410.663C322.506 423.575 325.106 436.719 310.409 442.115C293.754 448.23 272.376 445.519 254.754 445.758C236.321 446.008 216.89 446.482 198.963 441.636C190.458 439.337 187.754 438.055 186.416 429.299C185.844 425.557 185.919 421.734 185.814 417.962C185.54 408.137 185.545 398.261 184.695 388.459ZM486.416 329.455C483.356 342.549 480.236 356.987 470.722 367.127C451.719 387.381 417.646 379.801 392.951 379.838C371.279 379.87 349.517 379.069 327.822 379.296C326.918 379.07 325.956 379.079 325.051 379.324C321.167 379.381 317.284 379.464 313.406 379.605C259.005 381.578 204.179 377.601 149.734 377.633C121.755 377.649 93.7781 376.866 65.8251 375.695C52.8521 375.152 37.1791 374.349 25.3551 368.278C10.8801 360.845 13.1271 342.696 12.2431 328.651C12.1001 326.38 12.0051 324.098 11.9021 321.818C27.5021 323.345 43.6781 320.457 59.2361 319.604C78.9741 318.522 98.6811 318.45 118.444 318.5C140.762 318.556 163.08 318.452 185.397 318.519C206.414 318.581 227.274 321.107 248.277 321.555C289.848 322.441 331.418 322.057 372.971 323.516C393.765 324.245 414.545 324.137 435.353 323.69C452.83 323.315 470.362 324.364 487.779 323.162C487.329 325.258 486.907 327.354 486.416 329.455ZM499.312 203.815C499.21 230.873 496.797 257.625 493.943 284.505C493.134 292.131 493.876 310.466 486.632 314.053C480.367 317.155 470.298 314.099 463.577 314.123C454.169 314.159 444.759 314.004 435.353 314.239C414.55 314.759 393.763 314.867 372.971 314.174C332.126 312.812 291.248 312.996 250.381 312.448C230.164 312.177 210.058 309.587 189.842 309.516C167.544 309.437 145.243 309.664 122.945 309.719C103.077 309.769 83.2291 309.72 63.3901 310.881C46.2361 311.885 28.8271 314.673 11.6191 314.22C10.9751 291.953 11.7621 269.366 11.5711 247.222C11.3651 223.341 9.58109 199.521 9.58709 175.631C9.59409 151.646 11.1641 127.889 13.6951 104.047C15.0071 91.6814 15.4551 73.0874 23.0041 62.6864C31.7791 50.5964 52.8101 49.3774 66.5421 48.5994C127.576 45.1394 188.464 42.9054 249.623 42.4454C301.069 42.0584 352.261 45.4994 403.738 43.8474C428.218 45.0144 455.325 42.6874 478.547 50.8504C484.165 52.8254 492.346 56.0164 495.591 61.5824C498.503 66.5764 498.439 73.5744 498.734 79.1224C499.471 92.9894 500.122 106.822 500.944 120.671C502.581 148.283 499.415 176.184 499.312 203.815Z" fill="#00B4BE"/>
<path d="M274.148 338.048C270.704 332.747 264.159 329.734 257.89 329.279C252.738 328.905 249.248 331.165 245.617 333.642C243.681 334.512 241.906 335.661 240.336 337.041C240.303 337.074 240.261 337.1 240.233 337.135C235.171 341.645 232.345 348.524 233.884 356.017C236.412 368.323 254.275 377.423 265.282 370.624C276.127 363.925 281.54 349.425 274.148 338.048ZM265.857 361.382C262.178 364.968 258.28 367.151 252.979 365.923C248.376 364.857 242.972 361.349 240.457 357.211C235.674 349.341 240.88 342.553 247.587 338.129C251.871 336.676 255.844 334.722 261.071 336.588C271.488 340.306 273.623 353.813 265.857 361.382Z" fill="#00B4BE"/>
<path d="M438.252 88.0411C438.242 87.8891 438.23 87.7381 438.218 87.5871C437.406 77.0191 440.098 65.8851 432.28 56.8241C425.761 49.2711 409.058 51.5501 400.337 51.2811C370.469 50.3601 340.439 53.2501 310.48 52.4071C246.363 50.6031 181.73 52.3351 117.652 54.6491C110.694 54.9001 103.736 55.3381 96.7849 55.6801C92.3829 55.8971 86.9329 55.1641 82.8109 56.9231C78.1259 58.9231 75.9939 63.2701 75.0679 68.0301C73.8289 74.4041 73.1529 82.6431 74.0019 89.4641C72.9499 94.2151 72.6589 99.5541 72.2599 104.784C68.8309 149.761 70.9009 195.212 70.5559 240.293C70.4719 251.242 70.4199 262.493 71.1219 273.415C71.5119 279.487 71.2139 285.878 76.5989 289.797C81.2379 293.173 88.1219 293.399 93.6319 293.783C104.626 294.549 115.745 294.292 126.767 294.301C170.175 294.337 213.607 295.983 257.015 296.184C268.763 296.238 280.512 297.264 292.264 297.462C303.556 297.652 314.954 296.529 326.202 297.342C349.166 299.002 372.44 302.243 395.487 301.272C406.267 300.818 428.621 305.994 434.564 293.012C437.7 286.16 437.559 275.313 437.779 267.911C438.099 257.173 438.253 246.475 438.278 235.727C438.281 234.441 438.285 233.154 438.291 231.868C438.433 199.78 439.413 167.701 439.346 135.612C439.314 119.802 439.439 103.817 438.252 88.0411ZM431.393 100.121C401.943 100.186 372.255 99.1231 342.837 97.8391C324.975 97.0591 307.105 95.8011 289.22 95.5521C279.951 95.4231 270.155 95.2021 260.997 96.8361C260.333 96.9541 259.653 97.0331 258.99 97.1351C258.89 88.9041 258.65 80.6931 258.026 72.6751C269.35 72.4251 280.709 72.4691 292.133 72.9521C314.978 73.9181 337.806 74.6961 360.64 75.9831C375.352 76.8121 390.085 77.4811 404.74 79.0661C411.347 79.7811 418.654 80.0531 425.06 81.1981C431.451 82.3411 430.85 87.1941 431.095 92.5441C431.211 95.0721 431.295 97.5961 431.393 100.121ZM252.969 58.8441C286.208 59.1601 319.424 58.7981 352.655 58.9751C367.938 59.0571 383.191 57.6671 398.448 57.8171C407.075 57.9021 423.829 56.1361 428.787 64.6071C434.728 74.7561 425.852 74.3551 418.558 73.7441C407.925 72.8531 397.245 72.6741 386.615 71.7431C373.63 70.6061 360.618 69.7981 347.605 69.0751C330.576 68.1301 313.535 67.4081 296.495 66.6881C249.131 64.6911 203.072 69.7161 155.925 72.4781C155.272 72.5161 154.618 72.5491 153.965 72.5871C153.882 70.3531 153.431 67.9741 153.224 65.8261C153.009 63.5961 152.809 61.2731 152.351 59.0471C185.889 58.2811 219.426 58.5261 252.969 58.8441ZM257.766 250.18C269.39 252.38 281.838 251.999 293.549 252.269C300.124 252.42 306.608 252.224 313.182 252.199C319.974 252.173 333.829 249.965 333.363 260.067C332.778 272.769 302.096 268.733 293.535 268.937C286.768 269.098 280.058 269.215 273.282 269.084C270.033 269.021 261.171 270.093 258.451 268.888C258.162 268.76 257.884 268.707 257.609 268.661C257.689 262.469 257.691 256.275 257.766 250.18ZM148.062 59.1251C148.094 59.1241 148.125 59.1241 148.157 59.1231C147.853 61.5271 148.017 63.9971 147.894 66.4131C147.779 68.6861 147.679 70.7661 147.846 72.9301C142.07 73.2481 136.291 73.5431 130.512 73.7331C130.199 71.8501 130.306 69.6991 130.121 67.9381C129.824 65.1091 128.643 62.6721 127.786 60.0371C134.545 59.6421 141.305 59.2971 148.062 59.1251ZM107.73 61.2431C113.375 60.9261 119.027 60.5661 124.681 60.2251C124.75 63.8321 125.065 67.5261 125.211 71.1121C125.249 72.0501 125.22 72.9821 125.265 73.8761C118.611 73.9911 111.81 73.5151 105.046 73.3341C104.856 71.3711 104.114 69.2421 103.79 67.6381C103.39 65.6571 103.575 63.2041 102.831 61.2831C104.555 61.3111 106.222 61.3281 107.73 61.2431ZM82.3699 70.0971C83.4909 67.3551 87.1729 63.1821 90.0919 62.2461C92.6819 61.4181 95.7879 61.2451 98.9099 61.2391C98.6589 63.6921 98.4159 65.7811 98.7639 68.3191C98.9879 69.9571 99.1659 71.6271 99.4389 73.2721C96.3379 73.3011 93.2559 73.4451 90.2119 73.8071C86.0899 74.2951 79.6339 76.7921 82.3699 70.0971ZM252.401 183.433C252.202 202.721 251.752 222.139 251.154 241.436C250.667 257.144 251.088 273.547 249.725 289.218C249.722 289.223 249.718 289.228 249.715 289.233C219.928 288.567 190.101 288.408 160.321 288.185C142.352 288.051 124.25 287.686 106.289 287.141C95.3669 286.81 81.6599 288.706 78.2099 275.505C75.9439 266.836 77.7049 255.466 77.5379 246.477C76.8139 207.51 76.5179 168.034 77.6239 129.066C77.8699 120.386 78.5579 111.708 79.3089 103.059C79.6969 98.5871 79.6479 91.5541 81.6389 87.4091C85.0129 80.3871 92.2299 80.5961 98.7679 80.6061C118.499 80.6361 138.018 80.3941 157.719 79.0471C189.296 76.8881 220.483 73.8251 251.905 72.8451C249.477 90.0331 251.851 108.209 252.135 125.394C252.452 144.714 252.6 164.11 252.401 183.433ZM431.639 207.091C431.23 225.074 431.239 243.093 430.58 261.055C430.147 272.864 433.239 292.042 417.194 294.216C409.63 295.241 401.466 293.956 393.801 294.232C373.172 294.976 352.181 292.412 331.638 290.746C312.858 289.223 293.807 290.557 274.938 289.916C268.884 289.71 262.823 289.576 256.764 289.423C257.155 284.636 257.362 279.761 257.488 274.86C261.393 276.343 267.677 275.268 271.129 275.364C281.261 275.647 291.281 275.072 301.411 274.975C310.943 274.883 335.979 279.198 338.718 266.986C342.72 249.144 332.499 246.696 317.536 246.51C307.163 246.381 296.795 246.649 286.418 246.587C283.367 246.569 261.639 245.546 257.824 246.484C257.828 246.251 257.83 246.015 257.835 245.783C258.251 225.647 259.103 205.467 259.382 185.344C259.45 180.413 259.477 175.478 259.477 170.541C279.638 168.711 299.859 170.399 319.995 168.438C325.7 167.882 337.398 168.139 341.375 163.74C345.883 158.753 343.124 145.687 343.241 139.562C343.361 133.273 345.603 123.068 339.291 119.289C335.961 117.296 330.224 119.153 326.612 119.269C321.608 119.429 316.519 119.515 311.518 119.41C299.369 119.154 287.224 118.674 275.073 118.473C271.175 118.409 264.345 117.508 259.07 118.331C259.063 112.625 259.06 106.855 259.019 101.084C262.747 99.8431 275.627 100.771 277.951 100.727C286.488 100.568 295.038 100.924 303.563 101.324C318.782 102.038 333.989 102.806 349.211 103.431C376.582 104.555 404.236 105.991 431.628 106.122C432.753 139.764 432.405 173.366 431.639 207.091ZM337.098 157.058C335.466 160.458 333.735 160.01 329.898 160.667C320.844 162.218 311.598 162.585 302.442 163.012C288.086 163.682 273.831 162.497 259.447 163.803C259.393 151.728 259.227 139.647 259.111 127.591C259.094 125.799 259.087 123.99 259.08 122.18C264.431 121.679 273.273 123.219 277.18 123.308C284.89 123.484 292.586 123.719 300.296 123.98C309.062 124.276 317.838 124.56 326.612 124.313C332.717 124.141 336.677 121.062 337.955 130.528C338.486 134.459 337.356 139.376 337.245 143.353C337.151 146.707 338.514 154.109 337.098 157.058Z" fill="#00B4BE"/>
<path d="M115.895 138.998C113.528 136.163 110.358 134.127 107.625 131.668C106.125 130.318 104.699 128.868 103.258 127.456C102.278 126.495 99.9049 125.143 100.511 123.532C101.462 121 106.04 118.818 107.945 116.764C109.863 114.696 111.542 111.826 113.515 109.965C115.615 107.984 112.929 104.618 110.469 106.017C106.256 108.414 102.862 112.287 99.5159 115.73C97.2019 118.11 91.8509 121.428 92.4109 125.426C92.9429 129.23 98.5609 132.935 101.092 135.337C104.331 138.409 108.399 143.23 112.847 144.234C116.03 144.952 117.88 141.376 115.895 138.998Z" fill="#00B4BE"/>
<path d="M143.192 96.8316C140.319 105.309 134.159 112.911 130.644 121.22C128.044 127.366 123.506 135.086 124.201 141.988C124.35 143.468 126.282 144.726 127.466 143.341C132.504 137.449 134.344 128.102 137.725 121.119C141.217 113.907 147.808 106.426 149.444 98.5556C150.294 94.4666 144.535 92.8686 143.192 96.8316Z" fill="#00B4BE"/>
<path d="M164.863 118.834C160.83 115.949 156.459 110.754 151.407 109.748C150.616 109.591 149.6 109.967 149.435 110.867C148.159 117.837 159.112 122.847 164.492 127.42C162.639 130.319 158.356 133.521 156.532 135.331C153.91 137.934 150.83 140.438 149.057 143.746C148.031 145.659 149.351 147.569 151.369 147.775C156.1 148.257 160.243 141.71 163.184 138.661C165.792 135.956 172.584 131.086 172.199 126.624C171.901 123.169 167.377 120.632 164.863 118.834Z" fill="#00B4BE"/>
<path d="M115.895 247.984C113.528 245.149 110.358 243.113 107.625 240.654C106.125 239.304 104.699 237.854 103.258 236.442C102.278 235.482 99.9049 234.129 100.511 232.518C101.462 229.986 106.04 227.804 107.945 225.75C109.863 223.681 111.542 220.812 113.515 218.951C115.615 216.97 112.929 213.604 110.469 215.003C106.256 217.4 102.862 221.273 99.5159 224.716C97.2019 227.096 91.8509 230.414 92.4109 234.411C92.9429 238.217 98.5609 241.922 101.092 244.323C104.331 247.395 108.399 252.217 112.847 253.22C116.03 253.938 117.88 250.362 115.895 247.984Z" fill="#00B4BE"/>
<path d="M143.192 205.82C140.319 214.297 134.159 221.899 130.644 230.208C128.044 236.354 123.506 244.074 124.201 250.976C124.35 252.455 126.282 253.712 127.466 252.328C132.504 246.436 134.344 237.089 137.725 230.106C141.217 222.894 147.808 215.413 149.444 207.543C150.294 203.455 144.535 201.857 143.192 205.82Z" fill="#00B4BE"/>
<path d="M164.863 227.822C160.83 224.937 156.459 219.742 151.407 218.736C150.616 218.579 149.6 218.955 149.435 219.855C148.16 226.824 159.112 231.834 164.492 236.407C162.639 239.306 158.356 242.508 156.532 244.318C153.91 246.922 150.83 249.425 149.057 252.733C148.031 254.646 149.351 256.556 151.369 256.762C156.1 257.244 160.243 250.697 163.184 247.648C165.792 244.943 172.584 240.073 172.199 235.611C171.901 232.157 167.377 229.621 164.863 227.822Z" fill="#00B4BE"/>
<path d="M120.284 185.284C116.84 185.27 113.794 186.716 110.314 186.151C106.512 185.534 102.374 183.688 102.993 179.202C103.503 175.516 106.569 172.478 109.851 171.041C111.43 170.349 117.659 168.879 119.141 170.333C120.951 172.109 123.625 169.872 122.545 167.707C120.048 162.7 112.05 163.029 107.643 164.683C102.071 166.773 97.4008 171.966 96.3058 177.858C93.8648 190.992 113.64 198.214 121.817 188.984C123.035 187.609 122.24 185.292 120.284 185.284Z" fill="#00B4BE"/>
<path d="M153.845 174.761C150.9 167.307 145.192 166.071 137.987 168.379C132.461 170.149 127.657 174.404 127.425 180.528C127.111 188.815 133.979 195.734 142.409 194.321C146.345 193.661 151.342 191.57 153.243 187.889C155.355 183.802 155.517 178.993 153.845 174.761ZM142.058 187.968C137.728 189.051 133.986 186.314 133.273 182.013C132.609 178.005 135.013 174.435 138.557 172.736C143.235 170.493 145.994 172.231 148.001 176.757C150.344 182.045 147.321 186.653 142.058 187.968Z" fill="#00B4BE"/>
<path d="M189.701 142.03C188.727 138.628 184.087 139.548 183.799 142.829C183.112 150.657 183.272 158.964 183.096 166.844C183.076 167.736 183.04 168.659 182.999 169.595C182.906 169.501 182.824 169.4 182.728 169.308C171.852 158.959 154.692 176.552 160.391 188.494C164.967 198.083 177.509 195.837 184.457 190.47C190.16 186.064 190.284 177.872 190.223 171.322C190.135 161.907 192.325 151.196 189.701 142.03ZM175.653 189.014C170.993 190.729 163.425 189.042 163.974 182.629C164.327 178.501 169.885 171.699 174.149 171.501C176.672 171.385 178.796 173.088 180.08 175.112C183.491 180.483 181.808 186.749 175.653 189.014Z" fill="#00B4BE"/>
<path d="M220.984 187.587C216.244 188.508 211.344 188.642 207.066 186.043C206.452 185.67 205.92 185.213 205.458 184.7C207.487 184.676 209.71 183.967 211.329 183.482C215.339 182.281 219.731 180.182 221.286 175.984C224.786 166.534 213.887 162.318 206.509 164.966C198.52 167.833 194.534 179.243 198.871 186.582C203.264 194.015 215.816 196.944 223.048 192.481C225.71 190.837 223.92 187.017 220.984 187.587ZM206.396 171.922C209.824 169.032 219.511 170.528 214.148 175.807C211.265 178.645 206.944 178.71 203.501 180.352C203.026 177.314 203.959 173.976 206.396 171.922Z" fill="#00B4BE"/>
<path d="M344.185 182.709C331.887 181.617 319.253 182.029 306.918 182.022C294.336 182.015 280.053 183.946 267.639 182.272C264.467 181.844 263.075 186.12 266.283 187.19C277.502 190.93 292.994 188.605 304.669 188.625C316.646 188.646 333.404 191.905 344.799 187.253C347.205 186.27 346.887 182.948 344.185 182.709Z" fill="#00B4BE"/>
<path d="M344.185 197.861C331.887 196.769 319.253 197.181 306.918 197.174C294.336 197.167 280.053 199.098 267.639 197.424C264.467 196.996 263.075 201.272 266.283 202.341C277.502 206.081 292.994 203.756 304.669 203.776C316.646 203.797 333.404 207.056 344.799 202.404C347.205 201.423 346.887 198.101 344.185 197.861Z" fill="#00B4BE"/>
<path d="M344.185 213.013C331.887 211.921 319.253 212.333 306.918 212.326C294.336 212.319 280.053 214.25 267.639 212.576C264.467 212.148 263.075 216.424 266.283 217.493C277.502 221.233 292.994 218.908 304.669 218.928C316.646 218.949 333.404 222.208 344.799 217.556C347.205 216.575 346.887 213.253 344.185 213.013Z" fill="#00B4BE"/>
<path d="M344.185 228.168C331.887 227.076 319.253 227.488 306.918 227.481C294.336 227.474 280.053 229.405 267.639 227.731C264.467 227.303 263.075 231.579 266.283 232.649C277.502 236.389 292.994 234.063 304.669 234.084C316.646 234.105 333.404 237.364 344.799 232.712C347.205 231.73 346.887 228.408 344.185 228.168Z" fill="#00B4BE"/>
<path d="M415.949 122.384C406.771 121.292 397.343 121.704 388.138 121.697C378.749 121.69 368.09 123.621 358.825 121.947C356.459 121.52 355.42 125.796 357.814 126.865C366.186 130.605 377.748 128.279 386.46 128.3C395.398 128.321 407.904 131.58 416.408 126.928C418.203 125.946 417.966 122.624 415.949 122.384Z" fill="#00B4BE"/>
<path d="M415.949 137.539C406.771 136.447 397.343 136.859 388.138 136.852C378.749 136.845 368.09 138.776 358.825 137.102C356.459 136.674 355.42 140.95 357.814 142.02C366.186 145.76 377.748 143.435 386.46 143.455C395.398 143.476 407.904 146.735 416.408 142.083C418.203 141.101 417.966 137.779 415.949 137.539Z" fill="#00B4BE"/>
<path d="M415.949 152.693C406.771 151.601 397.343 152.013 388.138 152.006C378.749 151.999 368.09 153.93 358.825 152.256C356.459 151.827 355.42 156.103 357.814 157.173C366.186 160.913 377.748 158.588 386.46 158.608C395.398 158.629 407.904 161.888 416.408 157.236C418.203 156.254 417.966 152.932 415.949 152.693Z" fill="#00B4BE"/>
<path d="M415.949 167.845C406.771 166.753 397.343 167.165 388.138 167.158C378.749 167.151 368.09 169.082 358.825 167.408C356.459 166.98 355.42 171.256 357.814 172.325C366.186 176.065 377.748 173.739 386.46 173.76C395.398 173.781 407.904 177.04 416.408 172.388C418.203 171.406 417.966 168.084 415.949 167.845Z" fill="#00B4BE"/>
<path d="M415.949 182.707C406.771 181.615 397.343 182.027 388.138 182.02C378.749 182.013 368.09 183.944 358.825 182.27C356.459 181.843 355.42 186.118 357.814 187.188C366.186 190.928 377.748 188.603 386.46 188.623C395.398 188.644 407.904 191.903 416.408 187.251C418.203 186.269 417.966 182.947 415.949 182.707Z" fill="#00B4BE"/>
<path d="M415.949 197.57C406.771 196.478 397.343 196.89 388.138 196.883C378.749 196.876 368.09 198.807 358.825 197.133C356.459 196.704 355.42 200.98 357.814 202.05C366.186 205.79 377.748 203.465 386.46 203.485C395.398 203.506 407.904 206.765 416.408 202.113C418.203 201.131 417.966 197.809 415.949 197.57Z" fill="#00B4BE"/>
<path d="M415.949 212.431C406.771 211.339 397.343 211.751 388.138 211.744C378.749 211.737 368.09 213.668 358.825 211.994C356.459 211.565 355.42 215.841 357.814 216.911C366.186 220.651 377.748 218.325 386.46 218.346C395.398 218.367 407.904 221.626 416.408 216.974C418.203 215.992 417.966 212.67 415.949 212.431Z" fill="#00B4BE"/>
<path d="M415.246 229.712C408.655 225.087 396.495 225.942 387.001 227.192C382.389 226.907 377.89 226.725 373.868 226.495C365.777 226.032 358.713 226.688 355.361 234.577C351.301 244.134 351.804 260.098 354.275 269.799C356.49 278.491 363.643 280.218 371.739 281.459C382.544 283.115 396.088 284.642 406.615 281.344C416.277 278.317 418.377 270.432 419.458 261.076C420.362 253.265 423.072 235.205 415.246 229.712ZM413.209 263.848C410.012 278.395 397.864 277.389 385.637 276.825C380.046 276.567 372.705 276.953 367.539 274.732C356.136 269.83 353.268 235.003 368.212 232.271C375.918 230.862 385.066 233.67 392.753 234.049C397.788 234.297 403.674 232.656 408.571 234.167C411.99 235.222 413.19 238.711 413.926 242.1C415.44 249.072 414.73 256.929 413.209 263.848Z" fill="#00B4BE"/>
</g>
<defs>
<clipPath id="clip0_2038_12820">
<rect width="512" height="512" fill="white"/>
</clipPath>
</defs>
</svg>
