<svg width="398" height="359" viewBox="0 0 398 359" fill="none" xmlns="http://www.w3.org/2000/svg">
<path d="M20.1006 0V320.37L59.3005 314.79L181.392 297.41L349.102 273.54L349.532 150.68C333.672 154.98 316.857 154.125 301.515 148.239C286.174 142.353 273.101 131.741 264.188 117.937C255.274 104.133 250.981 87.8522 251.929 71.4478C252.877 55.0433 259.017 39.3655 269.462 26.6802L20.1006 0Z" fill="#E7E1FF"/>
<path d="M326.815 141.63C362.422 141.63 391.288 112.764 391.288 77.1566C391.288 41.5491 362.422 12.6836 326.815 12.6836C291.207 12.6836 262.342 41.5491 262.342 77.1566C262.342 112.764 291.207 141.63 326.815 141.63Z" fill="#E7E1FF"/>
<path d="M331.813 139.964C367.42 139.964 396.286 111.098 396.286 75.4906C396.286 39.8831 367.42 11.0176 331.813 11.0176C296.205 11.0176 267.34 39.8831 267.34 75.4906C267.34 111.098 296.205 139.964 331.813 139.964Z" stroke="#594A96" stroke-width="2.95" stroke-miterlimit="10"/>
<path d="M137.946 61.0636C136.579 64.7298 138.94 68.6445 141.674 71.5029C144.409 74.2992 147.64 76.9712 148.51 80.7617C149.193 83.9308 148.013 87.2863 148.323 90.5175C148.634 93.873 150.436 96.8557 151.43 100.025C153.294 105.804 152.549 112.08 150.871 117.921C149.566 122.706 147.516 127.428 144.222 131.094C140.929 134.823 136.144 137.433 131.173 137.37C129.806 137.308 128.252 136.998 127.32 135.941C126.575 135.009 126.388 133.766 126.264 132.524C123.406 107.544 123.406 82.1909 126.202 57.2109" fill="#263238"/>
<path d="M135.335 141.722C146.148 141.224 156.152 151.602 155.282 162.352C166.219 165.024 173.986 177.079 171.811 188.139C171.127 191.806 169.512 195.285 169.263 199.014C169.015 203.053 170.444 206.968 171.252 210.945C172.681 218.153 171.873 225.734 169.077 232.507C167.399 236.67 164.168 240.896 159.756 241.02C156.711 241.082 153.915 239.156 152.237 236.608C150.559 234.122 149.814 231.078 149.255 228.157C147.328 218.401 146.707 208.459 144.035 198.89C141.363 189.382 136.205 179.999 127.568 175.152C122.845 172.418 117.129 171.176 113.338 167.261C109.361 163.097 108.429 156.511 110.542 151.229C112.592 145.885 117.315 141.784 122.721 139.857" fill="#263238"/>
<path d="M60.5213 69.949C60.397 65.3507 64.6224 61.8088 68.91 60.0689C73.2598 58.3912 78.0445 57.7698 81.835 55.1599C85.2526 52.9229 87.5518 49.3188 90.4102 46.3983C97.4319 39.2523 108.431 36.3318 118.124 38.9416C127.818 41.6136 135.772 49.7538 138.257 59.4475C139.873 66.0343 138.754 73.8017 133.597 78.2135C127.569 83.2468 118.621 82.1283 110.916 80.5748C103.211 78.9592 94.5113 77.4057 88.0489 81.9419C84.1962 84.676 81.9592 89.15 79.5358 93.2512C77.1745 97.3524 74.1918 101.578 69.7178 103.131C65.2438 104.623 59.1542 101.951 58.9678 97.2281" fill="#263238"/>
<path d="M78.7341 70.9358C74.7572 71.3707 71.7124 74.7262 71.8367 78.7653L76.435 183.159C76.6214 195.525 94.6417 202.422 107.877 202.111C121.175 201.801 121.61 195.276 121.797 183.532C122.045 163.958 122.045 156.563 122.045 156.688C122.045 156.688 138.885 153.891 142.302 131.894C144.042 120.958 143.421 103 142.489 88.3968C141.619 75.1612 132.857 59.005 119.746 60.4342L78.7341 70.9358Z" fill="#FFBE9D"/>
<path d="M138.693 102.189C138.755 103.68 137.512 104.923 135.958 105.047C134.405 105.109 133.1 103.991 133.1 102.5C133.038 101.008 134.218 99.7033 135.772 99.6411C137.325 99.579 138.63 100.698 138.693 102.189Z" fill="#263238"/>
<path d="M138.632 97.7327C138.259 98.1055 136.147 96.4899 133.102 96.552C130.057 96.4899 127.82 98.0434 127.509 97.6705C127.323 97.5462 127.696 96.8627 128.69 96.1792C129.622 95.4335 131.238 94.75 133.164 94.75C135.028 94.75 136.644 95.4957 137.514 96.1792C138.446 96.8627 138.819 97.5463 138.632 97.7327Z" fill="#263238"/>
<path d="M109.552 102.189C109.614 103.68 108.371 104.923 106.818 105.047C105.264 105.109 103.959 103.991 103.959 102.5C103.897 101.008 105.078 99.7033 106.631 99.6411C108.185 99.579 109.49 100.698 109.552 102.189Z" fill="#263238"/>
<path d="M108.81 98.342C108.437 98.7149 106.324 97.1614 103.28 97.1614C100.235 97.0993 98.0599 98.7149 97.6871 98.342C97.5628 98.1556 97.8735 97.4721 98.8677 96.7886C99.7998 96.0429 101.415 95.3594 103.342 95.3594C105.206 95.4215 106.822 96.105 107.754 96.7886C108.686 97.5342 108.996 98.1556 108.81 98.342Z" fill="#263238"/>
<path d="M119.864 120.841C119.864 120.655 121.729 120.344 124.773 119.909C125.581 119.847 126.265 119.661 126.451 119.163C126.575 118.604 126.265 117.734 125.892 116.864C125.146 115 124.38 113.032 123.593 110.961C120.424 102.572 118.062 95.6748 118.435 95.5505C118.746 95.4262 121.604 102.137 124.836 110.526C125.581 112.597 126.306 114.565 127.01 116.429C127.321 117.299 127.818 118.293 127.445 119.474C127.259 120.033 126.638 120.468 126.14 120.593C125.643 120.779 125.208 120.779 124.836 120.779C121.791 120.965 119.864 120.965 119.864 120.841Z" fill="#263238"/>
<path d="M122.046 156.681C122.046 156.681 107.257 157.676 92.5918 148.914C92.5918 148.914 99.7378 164.014 121.735 161.901L122.046 156.681Z" fill="#EB996E"/>
<path d="M118.62 128.113C117.502 126.684 115.575 125.876 113.711 126.125C112.344 126.249 111.039 126.87 110.231 127.989C109.424 129.045 109.299 130.537 110.045 131.593C110.853 132.711 112.531 133.022 114.022 132.587C115.451 132.152 116.694 131.22 117.874 130.226C118.185 129.977 118.496 129.729 118.744 129.356C118.931 128.983 118.993 128.548 118.744 128.237" fill="#EB996E"/>
<path d="M110.919 122.946C111.416 122.884 111.478 126.178 114.274 128.539C117.071 130.838 120.612 130.465 120.612 130.962C120.675 131.149 119.867 131.584 118.375 131.646C116.884 131.708 114.771 131.211 113.032 129.782C111.354 128.353 110.608 126.426 110.484 125.121C110.36 123.754 110.732 122.884 110.919 122.946Z" fill="#263238"/>
<path d="M110.17 92.9971C109.859 93.8671 106.814 93.4942 103.272 93.9292C99.7304 94.2399 96.8099 95.2963 96.3749 94.5506C96.1264 94.2399 96.6235 93.4321 97.8041 92.6243C98.9848 91.8786 100.787 91.0708 102.9 90.8223C105.074 90.6358 107.001 90.9465 108.306 91.4437C109.611 92.0029 110.294 92.6243 110.17 92.9971Z" fill="#263238"/>
<path d="M137.515 88.957C136.956 89.6405 134.843 88.8949 132.358 88.8949C129.81 88.7706 127.697 89.3298 127.2 88.6463C127.014 88.2735 127.324 87.59 128.256 86.9686C129.189 86.285 130.742 85.7258 132.42 85.7879C134.16 85.8501 135.651 86.4714 136.521 87.155C137.453 87.9006 137.702 88.5842 137.515 88.957Z" fill="#263238"/>
<path d="M63.378 143.214C69.4054 144.457 75.9922 142.593 80.5284 138.367C85.0024 134.204 87.3637 127.742 86.5559 121.652C85.8723 116.246 83.0139 110.778 84.8781 105.62C87.3637 98.909 96.8088 96.7963 99.2944 90.0852C100.786 86.1705 99.4808 81.5722 101.096 77.7196C102.65 74.1155 106.503 72.0649 110.169 70.6978C113.897 69.3929 117.812 68.4608 120.919 66.0374C124.026 63.614 125.952 59.0778 123.964 55.6602C107.559 57.6486 91.4027 61.5634 75.9301 67.3423C72.3881 68.7094 68.5976 70.325 66.4849 73.4941C64.2479 76.8496 64.3722 81.1993 64.5586 85.3005C65.4286 104.999 62.4459 123.516 63.378 143.214Z" fill="#263238"/>
<path d="M58.1594 137.059C58.1179 137.059 57.9936 137.017 57.7865 136.934C57.538 136.852 57.2066 136.686 56.7923 136.437C55.9224 135.94 54.8038 134.884 54.0582 133.206C53.2504 131.528 52.7533 129.167 53.3125 126.495C53.8096 123.885 55.3631 121.213 57.2894 118.541C59.2157 115.869 61.7013 113.135 63.3169 109.655C64.1869 107.916 64.7461 105.989 64.8082 104.001C64.8082 101.95 64.1869 99.9617 63.5033 97.849C62.8198 95.7984 62.1363 93.6235 62.1984 91.2622C62.3227 88.901 62.9441 86.5397 64.1869 84.4269C65.4296 82.3764 67.1695 80.5122 69.3444 79.2073C71.5193 77.9023 74.067 77.4052 76.6147 77.1567C79.1002 76.9081 81.5858 76.7217 83.8228 75.9139C86.122 75.1061 87.8618 73.3662 88.9182 71.3156C90.0367 69.265 90.6581 67.028 91.3416 64.8531C92.0252 62.6161 92.7708 60.5034 93.8272 58.5771C95.8778 54.6623 98.7362 51.3689 102.092 49.3183C105.447 47.2056 109.176 46.3357 112.469 46.5842C115.824 46.8328 118.745 48.1377 120.733 49.9397C122.66 51.7418 123.84 53.7924 124.4 55.5944C124.959 57.3964 124.959 58.8256 124.897 59.8198C124.835 60.8141 124.648 61.3112 124.648 61.3112C124.586 61.2491 124.71 60.7519 124.772 59.8198C124.835 58.8256 124.71 57.3964 124.151 55.6565C123.592 53.9166 122.411 51.9282 120.485 50.2504C118.559 48.5105 115.7 47.2056 112.469 47.0192C109.238 46.8328 105.571 47.7027 102.34 49.7533C99.109 51.8039 96.3128 54.973 94.3243 58.8256C93.3301 60.7519 92.5844 62.8025 91.963 65.0395C91.2795 67.2144 90.6581 69.4514 89.4775 71.6263C88.9182 72.6826 88.1726 73.6769 87.2405 74.5468C86.3705 75.4168 85.252 76.0382 84.0714 76.4731C81.7101 77.4052 79.1624 77.5295 76.6768 77.8402C74.1913 78.0887 71.7057 78.5237 69.6551 79.7665C67.6045 81.0093 65.9267 82.7492 64.7461 84.7998C63.5655 86.7882 62.9441 89.0252 62.8198 91.2622C62.7576 93.4993 63.379 95.612 64.0626 97.6626C64.7461 99.7753 65.4296 101.888 65.3675 104.001C65.3054 106.113 64.684 108.102 63.814 109.904C62.0741 113.446 59.5886 116.18 57.6623 118.79C55.7359 121.4 54.1825 124.072 53.6854 126.619C53.1261 129.105 53.5611 131.404 54.2446 133.082C54.9903 134.76 56.0466 135.816 56.8544 136.313C57.6622 136.872 58.1594 136.997 58.1594 137.059Z" fill="#455A64"/>
<path d="M121.976 41.1797C122.038 41.1797 122.348 41.2418 122.846 41.4904C123.405 41.6768 124.15 42.1118 124.958 42.7332C126.574 43.9759 128.438 46.3994 128.935 49.5685C129.432 52.7376 128.314 55.596 127.133 57.2737C126.512 58.1437 125.952 58.7029 125.518 59.0758C125.02 59.4486 124.772 59.635 124.772 59.5729C124.648 59.5107 125.704 58.7029 126.698 57.0252C127.755 55.3474 128.749 52.6133 128.314 49.6306C127.817 46.6479 126.139 44.3488 124.648 43.0439C123.156 41.7389 121.976 41.304 121.976 41.1797Z" fill="#455A64"/>
<path d="M170.691 192.052C170.629 191.99 171.064 191.244 171.313 189.69C171.561 188.199 171.437 185.838 170.256 183.352C169.076 180.867 166.59 178.505 163.297 176.89C161.681 176.082 159.817 175.461 157.891 174.963C155.964 174.466 153.914 174.093 151.863 173.41C149.812 172.789 147.824 171.856 146.333 170.365C144.779 168.936 144.034 166.947 143.661 165.083C143.35 163.281 143.226 161.479 142.853 159.926C142.418 158.372 141.672 157.067 140.802 156.011C139.062 153.836 136.95 152.842 135.52 152.345C134.029 151.91 133.159 151.91 133.159 151.848C133.159 151.848 133.366 151.848 133.781 151.848C134.216 151.848 134.837 151.91 135.583 152.096C137.074 152.531 139.311 153.525 141.175 155.7C142.107 156.757 142.915 158.186 143.35 159.801C143.785 161.417 143.909 163.219 144.282 165.021C144.593 166.761 145.276 168.625 146.768 169.93C148.135 171.297 150.061 172.167 152.049 172.789C154.038 173.472 156.089 173.845 158.077 174.404C160.003 174.901 161.867 175.523 163.545 176.393C166.963 178.07 169.511 180.556 170.629 183.166C171.872 185.776 171.934 188.199 171.561 189.753C171.437 190.56 171.188 191.12 171.002 191.492C170.836 191.865 170.733 192.052 170.691 192.052Z" fill="#455A64"/>
<path d="M75.122 153.089C63.9369 150.106 54.3675 139.232 50.4528 128.358C46.538 117.545 46.538 105.677 47.5322 94.181C48.2779 85.9165 49.7071 77.0928 55.2375 70.8167C63.5641 61.3716 72.5743 56.5869 85.1885 56.9597" fill="#263238"/>
<path d="M140.12 177.325L129.743 174.715C132.166 172.789 132.85 170.303 131.793 167.507C130.55 164.214 127.381 162.039 123.839 161.604L76.4894 156.26C74.8117 156.073 73.196 157.006 72.5747 158.621C70.4619 163.965 70.3791 168.356 72.3261 171.795H72.1397L63.0052 173.597L47.5947 309.992L148.819 305.269L140.12 177.325Z" fill="#F5F5F5"/>
<path d="M125.206 175.275C125.206 175.337 124.522 175.462 123.28 175.648C122.099 175.834 120.297 176.021 118.06 176.269C113.648 176.704 107.496 176.953 100.661 176.642C93.8878 176.269 87.7982 175.399 83.3863 174.53C81.2115 174.095 79.4716 173.722 78.2909 173.411C77.0481 173.1 76.4268 172.852 76.4268 172.852C76.4268 172.79 77.1103 172.914 78.2909 173.162C79.5337 173.411 81.3358 173.722 83.5106 174.095C87.8604 174.84 93.95 175.648 100.723 176.021C107.496 176.332 113.586 176.145 118.06 175.834C120.235 175.648 122.037 175.524 123.28 175.399C124.522 175.275 125.206 175.213 125.206 175.275Z" fill="#263238"/>
<path d="M79.41 196.965C79.2858 196.841 80.9014 194.231 82.952 191.062C85.0647 187.893 86.9289 185.408 87.0531 185.532C87.2396 185.594 85.624 188.266 83.5112 191.435C81.3985 194.542 79.5965 197.028 79.41 196.965Z" fill="#E0E0E0"/>
<path d="M112.093 199.262C111.907 199.386 109.918 197.087 107.557 194.166C105.258 191.246 103.456 188.822 103.58 188.698C103.705 188.574 105.755 190.873 108.054 193.794C110.416 196.652 112.218 199.138 112.093 199.262Z" fill="#E0E0E0"/>
<path d="M96.9322 216.597C96.7458 216.597 96.0622 213.552 95.3787 209.824C94.6952 206.034 94.3223 202.927 94.5088 202.927C94.6952 202.865 95.3787 205.909 96.0001 209.7C96.6836 213.49 97.0565 216.535 96.9322 216.597Z" fill="#E0E0E0"/>
<path d="M121.85 217.653C121.974 217.777 119.364 220.511 116.071 223.742C112.777 227.036 109.981 229.584 109.857 229.397C109.733 229.273 112.342 226.539 115.636 223.307C118.929 220.076 121.725 217.529 121.85 217.653Z" fill="#E0E0E0"/>
<path d="M88.4202 240.896C88.3581 241.021 85.2511 239.156 82.2063 235.925C79.1615 232.756 77.4837 229.525 77.608 229.463C77.7944 229.338 79.7207 232.321 82.7034 235.49C85.6861 238.659 88.5445 240.71 88.4202 240.896Z" fill="#E0E0E0"/>
<path d="M99.17 258.85C99.2321 259.036 96.3116 259.906 93.0182 261.708C89.7249 263.386 87.3636 265.25 87.2393 265.126C87.115 265.002 89.352 262.889 92.7075 261.087C96.0631 259.347 99.1079 258.664 99.17 258.85Z" fill="#E0E0E0"/>
<path d="M116.632 259.968C116.57 260.031 115.762 259.223 114.643 257.856C113.463 256.489 111.971 254.562 110.356 252.325C108.802 250.088 107.435 248.038 106.503 246.484C105.571 244.931 105.074 243.999 105.136 243.937C105.198 243.874 105.882 244.806 106.876 246.236C108.057 247.913 109.424 249.84 110.915 251.952C112.406 254.065 113.773 255.929 115.016 257.607C116.073 259.036 116.694 259.968 116.632 259.968Z" fill="#E0E0E0"/>
<path d="M118.369 275.321C118.369 275.507 115.076 276.377 110.85 277.061C106.687 277.744 103.269 277.993 103.207 277.806C103.207 277.62 106.625 277.123 110.788 276.439C114.951 275.756 118.307 275.134 118.369 275.321Z" fill="#E0E0E0"/>
<path d="M90.096 173.347C89.9718 173.284 90.5932 172.601 91.0903 171.296C91.6495 169.991 91.9602 168.003 91.6495 165.89C91.3388 163.715 90.5932 161.913 90.0339 160.546C89.4747 159.241 89.1018 158.433 89.2261 158.371C89.2882 158.371 89.7853 159.117 90.4689 160.36C91.0903 161.664 91.9602 163.529 92.2709 165.766C92.5816 168.003 92.2088 170.115 91.5253 171.482C90.9039 172.787 90.1582 173.409 90.096 173.347Z" fill="#E0E0E0"/>
<path d="M108.99 163.099C109.114 163.037 110.294 164.777 110.854 167.2C111.475 169.624 111.164 171.674 110.978 171.674C110.792 171.674 110.792 169.686 110.232 167.325C109.673 165.026 108.803 163.224 108.99 163.099Z" fill="#E0E0E0"/>
<path d="M194.302 260.275L241.403 177.568L247.12 163.214C247.12 163.214 261.785 131.647 262.779 128.416C263.96 124.687 266.072 124.377 267.377 124.936C269.49 125.744 270.173 128.851 269.241 132.082C268.931 133.2 263.214 150.537 263.214 150.537C263.214 150.537 264.457 149.357 268.061 146.933C271.727 144.448 278.314 144.572 284.465 146.747C290.617 148.922 292.109 150.102 291.363 152.464C291.114 153.458 290.306 154.079 289.437 154.452C288.007 155.073 286.33 155.073 284.9 154.514C275.02 151.159 270.608 155.633 270.608 155.633L269.925 157.497C269.925 157.497 277.319 155.135 281.545 158.491C282.228 159.05 282.726 159.672 283.098 160.293C285.708 161.163 287.821 163.4 288.504 166.134C289.126 168.93 288.194 172.037 286.081 174.026C285.087 174.958 283.533 175.641 282.353 174.958C281.731 174.647 281.296 173.964 280.924 173.342C280.737 173.032 280.489 172.721 280.24 172.41L277.444 177.381C277.444 177.381 270.546 188.193 268.061 193.227L235.624 279.662C231.15 291.655 217.666 297.62 205.797 292.898C192.81 287.74 187.404 272.392 194.302 260.275Z" fill="#FFBE9D"/>
<path d="M244.631 177.264C246.309 178.383 248.608 177.637 250.099 176.332C251.59 175.027 252.647 173.287 254.014 171.858C258.239 167.695 265.261 167.26 269.238 162.91C269.797 162.289 270.294 161.357 269.797 160.673C269.362 160.052 268.43 160.114 267.684 160.3C261.263 161.543 254.842 162.806 248.421 164.091" fill="#FFBE9D"/>
<path d="M248.421 164.097C248.421 164.035 249.105 163.786 250.472 163.475C251.777 163.165 253.703 162.73 256.127 162.17C258.612 161.673 261.408 161.052 264.515 160.368C265.302 160.203 266.11 160.037 266.939 159.871C267.747 159.809 268.679 159.312 269.859 159.996C270.481 160.368 270.667 161.176 270.481 161.735C270.356 162.295 270.108 162.73 269.735 163.165C269.114 163.848 268.368 164.532 267.56 165.091C264.391 167.266 260.849 168.198 258.053 169.689C256.624 170.373 255.381 171.181 254.387 172.175C253.392 173.107 252.647 174.225 251.777 175.158C250.223 177.146 248.111 178.078 246.681 178.016C245.19 178.016 244.631 177.27 244.631 177.27C244.693 177.208 245.377 177.705 246.681 177.581C247.986 177.519 249.726 176.587 251.218 174.66C251.963 173.728 252.709 172.61 253.765 171.491C254.76 170.435 256.127 169.503 257.556 168.757C260.476 167.204 263.956 166.21 266.939 164.159C267.684 163.662 268.306 163.04 268.927 162.419C269.424 161.798 269.611 161.114 269.238 160.866C268.865 160.617 267.995 160.741 267.125 160.928C266.297 161.093 265.489 161.259 264.702 161.425C261.595 161.984 258.736 162.481 256.251 162.978C253.827 163.351 251.901 163.724 250.534 163.91C249.167 164.097 248.421 164.159 248.421 164.097Z" fill="#EB996E"/>
<path d="M269.614 157.499C269.739 157.624 270.049 156.008 271.851 154.517C272.721 153.833 274.026 153.336 275.58 153.336C277.071 153.274 278.749 153.647 280.489 154.144C282.228 154.641 283.906 155.138 285.522 155.262C287.137 155.387 288.629 155.2 289.747 154.641C290.928 154.082 291.487 153.025 291.549 152.404C291.674 151.72 291.549 151.348 291.549 151.348C291.487 151.348 291.487 151.72 291.301 152.342C291.114 152.901 290.617 153.709 289.561 154.206C288.505 154.641 287.075 154.765 285.584 154.641C284.093 154.455 282.415 153.957 280.675 153.46C278.935 152.963 277.195 152.59 275.517 152.653C273.902 152.715 272.473 153.336 271.541 154.144C270.546 154.952 270.111 155.884 269.863 156.505C269.614 157.127 269.614 157.499 269.614 157.499Z" fill="#EB996E"/>
<path d="M269.553 130.834C269.491 130.772 269.056 132.139 268.435 134.252C267.689 136.613 266.819 139.471 265.825 142.578C264.831 145.747 263.899 148.544 263.153 150.905C262.47 153.018 262.035 154.323 262.097 154.385C262.221 154.447 262.78 153.142 263.65 151.091C264.458 148.979 265.514 146.058 266.509 142.827C267.565 139.534 268.373 136.551 268.932 134.376C269.429 132.201 269.678 130.834 269.553 130.834Z" fill="#EB996E"/>
<path d="M272.286 162.715C272.286 162.777 272.721 162.715 273.467 162.653C274.15 162.59 275.269 162.528 276.139 163.336C276.574 163.771 276.76 164.392 276.574 165.076C276.449 165.76 276.077 166.505 275.704 167.251C275.331 168.059 274.958 169.053 275.269 170.109C275.579 171.166 276.387 171.973 277.444 172.346C278.5 172.719 279.681 172.533 280.551 172.036C281.421 171.538 282.166 170.917 282.601 170.047C283.409 168.432 283.72 166.878 283.968 165.573C284.155 164.268 284.155 163.15 283.968 162.404C283.844 161.72 283.595 161.348 283.533 161.348C283.471 161.41 283.658 161.783 283.72 162.466C283.782 163.212 283.72 164.206 283.471 165.511C283.16 166.754 282.788 168.245 282.042 169.736C281.296 171.041 279.432 172.284 277.692 171.663C276.822 171.414 276.139 170.731 275.952 169.923C275.704 169.177 275.952 168.307 276.325 167.562C276.636 166.816 277.071 166.008 277.195 165.2C277.319 164.392 277.071 163.46 276.512 162.963C275.331 162.031 274.088 162.218 273.405 162.342C272.659 162.528 272.286 162.653 272.286 162.715Z" fill="#EB996E"/>
<path d="M280.429 171.422C280.429 171.422 280.18 171.732 280.242 172.478C280.242 173.099 280.615 174.156 281.672 174.901C282.728 175.585 284.406 175.709 285.835 174.901C287.326 174.156 288.445 172.664 289.004 170.924C289.563 169.122 289.501 167.32 289.004 165.767C288.507 164.276 287.575 163.095 286.705 162.287C285.835 161.479 284.903 161.106 284.281 160.858C283.66 160.609 283.287 160.609 283.287 160.609C283.225 160.796 284.716 161.106 286.332 162.66C287.14 163.468 287.948 164.586 288.383 165.953C288.818 167.383 288.818 169.06 288.32 170.676C287.823 172.292 286.767 173.659 285.524 174.342C284.281 175.026 282.852 174.964 281.92 174.466C280.988 173.907 280.615 173.037 280.491 172.416C280.367 171.794 280.491 171.484 280.429 171.422Z" fill="#EB996E"/>
<path d="M264.773 179.249C264.773 179.187 264.214 178.814 263.095 178.69C261.977 178.566 260.361 178.752 258.746 179.746L259.305 180.119C259.429 179.374 259.553 178.504 259.615 177.634C260.05 172.849 258.559 169.183 258.373 169.245C258.186 169.307 259.367 172.973 258.932 177.572C258.87 178.442 258.746 179.249 258.621 179.995L258.435 180.803L259.118 180.306C260.548 179.374 262.039 179.125 263.033 179.125C264.089 179.125 264.711 179.311 264.773 179.249Z" fill="#EB996E"/>
<path d="M274.53 149.735C274.344 149.797 274.654 151.226 275.959 152.407C277.264 153.525 278.755 153.587 278.755 153.401C278.818 153.215 277.575 152.842 276.456 151.848C275.276 150.853 274.779 149.673 274.53 149.735Z" fill="#EB996E"/>
<path d="M127.444 328.95L176.721 329.447L168.456 293.655L171.252 300.428C176.472 313.167 188.838 321.493 202.633 321.493C218.23 321.493 228.98 309.873 235.566 295.768C250.977 262.772 265.828 209.643 265.828 209.643L235.815 183.234C214.066 224.37 193.623 260.1 193.623 260.1C193.623 260.1 187.719 242.142 183.183 226.11C178.585 210.14 178.647 201.751 171.625 193.735C160.875 181.494 145.527 178.449 131.297 174.721L130.738 241.147L127.444 328.95Z" fill="#E8505B"/>
<path d="M71.147 279.494L160.876 296.955L165.226 331.442H27.6496C11.6799 331.628 -0.99648 318.082 0.246302 302.175C2.23475 277.07 4.40962 246.125 6.02523 233.014C7.26801 222.823 11.3692 212.259 16.1539 203.187C23.1135 190.138 46.2914 173.36 66.5487 172.49L70.4014 257.994" fill="#E8505B"/>
<g opacity="0.4">
<path d="M127.444 328.95L176.721 329.447L168.456 293.655L171.252 300.428C176.472 313.167 188.838 321.493 202.633 321.493C218.23 321.493 228.98 309.873 235.566 295.768C250.977 262.772 265.828 209.643 265.828 209.643L235.815 183.234C214.066 224.37 193.623 260.1 193.623 260.1C193.623 260.1 187.719 242.142 183.183 226.11C178.585 210.14 178.647 201.751 171.625 193.735C160.875 181.494 145.527 178.449 131.297 174.721L130.738 241.147L127.444 328.95Z" fill="black"/>
<path d="M71.147 279.494L152.052 294.345C155.408 294.966 158.08 297.576 158.825 300.932L165.226 331.442H27.6496C11.6799 331.628 -0.99648 318.082 0.246302 302.175C2.23475 277.07 4.40962 246.125 6.02523 233.014C7.26801 222.823 11.3692 212.259 16.1539 203.187C23.1135 190.138 46.2914 173.36 66.5487 172.49L70.4014 257.994" fill="black"/>
</g>
<path d="M54.0549 276.997C54.0135 276.997 53.9928 276.728 53.9928 276.189C53.9928 275.568 53.9928 274.781 53.9928 273.828C53.9928 271.715 54.0549 268.733 54.0549 265.191C54.0549 257.858 53.9307 247.792 53.3714 236.669C53.0607 231.076 52.6879 225.795 52.315 221.01C51.9422 216.163 51.5694 211.875 50.513 208.396C49.5188 204.854 47.9653 202.306 46.5982 200.877C45.169 199.385 44.1748 198.888 44.1748 198.826C44.1748 198.826 45.2933 199.261 46.7225 200.69C48.2139 202.12 49.8916 204.729 50.948 208.271C52.0665 211.751 52.5015 216.163 52.9364 220.948C53.3714 225.795 53.7442 231.076 53.9928 236.607C54.552 247.792 54.6142 257.858 54.4899 265.191C54.4278 268.795 54.3656 271.777 54.2413 273.828C54.1999 274.781 54.1585 275.568 54.1171 276.189C54.0756 276.728 54.0549 276.997 54.0549 276.997Z" fill="#263238"/>
<path d="M159.133 299.371C159.009 299.496 158.201 298.128 155.84 296.761C154.659 296.078 153.105 295.456 151.241 294.897C149.377 294.4 147.202 293.965 144.841 293.468C135.209 291.542 121.974 288.808 107.309 286.073C92.6441 283.339 79.3463 281.102 69.6526 279.549C64.8679 278.803 60.9531 278.182 58.219 277.747C56.8934 277.498 55.8577 277.312 55.112 277.188C54.4078 277.063 54.0557 277.001 54.0557 277.001C54.0557 276.96 54.4078 276.98 55.112 277.063C55.8991 277.188 56.9555 277.333 58.2811 277.498C60.9531 277.871 64.8679 278.368 69.7147 279.114C79.4084 280.543 92.7683 282.718 107.433 285.452C122.098 288.186 135.334 290.982 144.903 293.033C147.326 293.53 149.501 294.027 151.366 294.587C153.23 295.146 154.783 295.829 155.964 296.513C157.144 297.259 157.952 298.004 158.449 298.501C158.698 298.75 158.822 298.998 158.946 299.185C159.071 299.309 159.133 299.371 159.133 299.371Z" fill="#263238"/>
<path d="M54.3057 276.996C54.3057 277.12 52.6279 277.493 50.0802 278.549C48.8374 279.047 47.3461 279.792 45.7305 280.662C44.177 281.594 42.4993 282.713 40.8836 284.08C39.3302 285.447 37.9009 286.876 36.7203 288.243C35.5397 289.672 34.6076 290.977 33.8619 292.158C32.3706 294.519 31.7492 296.073 31.6249 296.073C31.5628 296.01 31.687 295.638 31.9977 294.892C32.3084 294.146 32.8056 293.152 33.4891 291.909C34.1726 290.729 35.1047 289.3 36.2853 287.87C37.466 286.441 38.833 284.95 40.5108 283.583C42.1264 282.216 43.8663 281.097 45.4819 280.165C47.0975 279.233 48.5889 278.549 49.8938 278.114C51.2609 277.617 52.3172 277.307 53.125 277.182C53.8707 276.996 54.3057 276.934 54.3057 276.996Z" fill="#263238"/>
<path d="M170.194 298.433C170.152 298.433 170.09 298.164 170.007 297.626C169.883 297.004 169.738 296.176 169.572 295.14C169.261 292.965 168.764 289.858 168.267 286.006C167.211 278.363 165.968 267.675 164.85 255.868C163.793 244.062 163.172 233.374 162.799 225.606C162.675 221.692 162.55 218.585 162.488 216.41C162.488 215.374 162.488 214.525 162.488 213.862C162.488 213.324 162.488 213.034 162.488 212.992C162.53 212.992 162.571 213.282 162.613 213.862C162.654 214.525 162.695 215.374 162.737 216.41C162.861 218.647 163.048 221.754 163.296 225.544C163.731 233.312 164.477 244 165.533 255.806C166.589 267.612 167.77 278.238 168.702 285.944C169.199 289.796 169.572 292.841 169.821 295.078C169.945 296.114 170.049 296.942 170.131 297.564C170.173 298.143 170.194 298.433 170.194 298.433Z" fill="#263238"/>
<path d="M199.898 285.075C199.898 285.137 199.649 284.826 199.214 284.267C198.779 283.708 198.22 282.9 197.536 281.782C196.232 279.669 194.802 276.438 193.932 272.709C193.062 268.981 192.938 265.439 193.125 262.953C193.249 261.711 193.373 260.716 193.56 260.033C193.684 259.349 193.746 258.977 193.808 258.977C193.932 258.977 193.684 260.53 193.622 263.016C193.497 265.439 193.684 268.919 194.554 272.585C195.424 276.251 196.791 279.42 197.971 281.595C199.09 283.77 200.022 285.013 199.898 285.075Z" fill="#263238"/>
<path d="M53.6852 230.828C53.6852 230.828 53.5195 230.848 53.1881 230.89C52.8774 230.952 52.4424 231.014 51.8831 231.014C50.7025 231.138 48.9626 231.014 46.8499 230.641C44.7993 230.268 42.3758 229.523 39.8281 228.404C37.2183 227.348 34.4842 225.981 31.6258 224.552C28.7674 223.184 25.9711 221.942 23.3613 221.134C20.7514 220.264 18.328 219.767 16.2153 219.705C12.052 219.518 9.56641 220.637 9.56641 220.45C9.56641 220.45 9.71139 220.388 10.0014 220.264C10.2499 220.14 10.6849 219.953 11.2442 219.829C12.4248 219.518 14.1026 219.208 16.2153 219.27C18.3901 219.27 20.8757 219.705 23.5477 220.512C26.2197 221.382 29.0159 222.563 31.9365 223.992C34.7949 225.421 37.529 226.789 40.0146 227.907C42.5623 228.963 44.9235 229.771 46.9741 230.206C51.0753 231.076 53.6852 230.641 53.6852 230.828Z" fill="#FAFAFA"/>
<path d="M69.0315 227.785C69.0937 227.972 65.8003 228.655 61.6991 229.339C57.6601 230.022 54.3046 230.457 54.3046 230.271C54.2424 230.085 57.5358 229.401 61.637 228.718C65.676 228.034 69.0315 227.599 69.0315 227.785Z" fill="#FAFAFA"/>
<path d="M53.1228 254.445C53.1228 254.507 52.5014 254.756 51.3208 255.253C50.1401 255.688 48.4002 256.31 46.2254 256.993C41.9378 258.422 35.9103 260.038 29.075 261.281C25.6573 261.84 22.4261 262.275 19.4434 262.586C16.4607 262.896 13.7266 263.083 11.4275 262.834C9.19047 262.586 7.38842 261.964 6.26992 261.343C5.68995 261.011 5.27569 260.742 5.02714 260.535C4.77858 260.328 4.6543 260.204 4.6543 260.162C4.71644 260.162 5.2757 260.597 6.3942 261.094C7.51271 261.653 9.25259 262.213 11.4896 262.337C13.7266 262.523 16.3986 262.337 19.3813 262.026C22.3018 261.653 25.5952 261.218 28.9507 260.597C35.7239 259.416 41.8135 257.863 46.1011 256.558C48.276 255.937 50.0159 255.377 51.1965 255.005C52.4393 254.632 53.1228 254.445 53.1228 254.445Z" fill="#FAFAFA"/>
<path d="M68.6596 261.026C68.6596 261.151 65.6769 261.399 61.8864 261.461C58.1581 261.524 55.1133 261.399 55.1133 261.213C55.1133 261.026 58.1581 260.84 61.8864 260.778C65.6769 260.716 68.6596 260.84 68.6596 261.026Z" fill="#FAFAFA"/>
<path d="M4.7168 317.64C4.7168 317.599 4.75823 317.371 4.84108 316.957C5.00679 316.46 5.17248 315.838 5.33819 315.093C5.46247 314.678 5.58675 314.223 5.71103 313.726C5.89744 313.291 6.08386 312.731 6.33242 312.172C6.76739 311.054 7.14022 309.811 7.82375 308.444C8.15516 307.781 8.50729 307.077 8.88013 306.331C9.19082 305.585 9.68793 304.84 10.1229 304.094C10.9307 302.54 12.0492 300.987 13.1677 299.371C15.529 296.14 18.4495 292.847 21.8672 289.802C25.347 286.819 29.0132 284.396 32.493 282.532C34.295 281.6 35.9728 280.73 37.6505 280.108C38.4583 279.798 39.2662 279.487 40.0118 279.238C40.7989 278.99 41.5446 278.741 42.2488 278.493C43.678 277.996 45.0451 277.747 46.2257 277.498C46.785 277.374 47.3442 277.25 47.8413 277.126C48.3385 277.084 48.7941 277.022 49.2084 276.939C49.9955 276.856 50.6376 276.794 51.1347 276.753C51.549 276.67 51.7768 276.649 51.8183 276.691C51.8183 276.691 51.5904 276.753 51.1347 276.877C50.6376 276.96 50.0162 277.063 49.2705 277.188C48.8149 277.271 48.3592 277.353 47.9035 277.436C47.4064 277.561 46.8471 277.685 46.2879 277.871C45.1072 278.182 43.8023 278.431 42.4352 278.928C41.6896 279.176 40.9439 279.425 40.1982 279.673C39.4526 279.922 38.6448 280.295 37.837 280.605C36.2213 281.227 34.5436 282.159 32.8037 283.029C29.386 284.955 25.782 287.316 22.3022 290.299C18.8845 293.282 16.0261 296.575 13.6648 299.682C12.5463 301.298 11.4278 302.851 10.5579 304.343C10.1229 305.088 9.68792 305.834 9.31509 306.517C8.94225 307.263 8.59014 307.967 8.25873 308.63C7.5752 309.935 7.14023 311.24 6.64311 312.296C6.4567 312.856 6.20814 313.353 6.02172 313.85C5.85602 314.347 5.71102 314.782 5.58674 315.155C5.33818 315.9 5.13105 316.522 4.96535 317.019C4.84107 317.433 4.75822 317.64 4.7168 317.64Z" fill="#FAFAFA"/>
<path d="M67.0445 279.418C67.1688 279.542 64.3104 281.282 61.9491 285.88C60.7684 288.117 59.7742 290.976 59.0907 294.269C58.4693 297.625 58.1586 301.291 57.91 305.206C57.6615 309.12 57.3508 312.849 56.6673 316.204C55.9216 319.56 54.8031 322.48 53.5603 324.717C52.2554 326.954 50.8262 328.57 49.7698 329.502C49.1898 329.999 48.7549 330.351 48.4649 330.558C48.1335 330.766 47.9678 330.869 47.9678 330.869C47.8435 330.745 50.7019 329.005 53.1253 324.531C54.3681 322.294 55.4245 319.373 56.0459 316.08C56.7294 312.787 57.0401 309.058 57.2886 305.206C57.5372 301.291 57.7858 297.5 58.5314 294.145C59.215 290.852 60.2713 287.931 61.5762 285.632C62.819 283.395 64.1861 281.779 65.3046 280.785C65.8431 280.329 66.2574 279.977 66.5474 279.729C66.8788 279.522 67.0445 279.418 67.0445 279.418Z" fill="#FAFAFA"/>
<path d="M88.2956 331.619C88.1092 331.619 88.2956 320.931 88.7306 307.695C89.1656 294.522 89.6627 283.834 89.8491 283.834C90.0355 283.834 89.787 294.522 89.352 307.758C88.917 320.931 88.4199 331.619 88.2956 331.619Z" fill="#FAFAFA"/>
<path d="M121.972 329.816C121.972 329.816 121.786 329.257 121.475 328.263C121.289 327.766 121.102 327.144 120.916 326.399C120.792 325.653 120.543 324.783 120.419 323.851C120.046 321.987 119.86 319.75 119.735 317.264C119.735 314.716 119.86 311.982 120.295 309.062C120.73 306.203 121.413 303.531 122.221 301.17C123.029 298.747 123.961 296.696 124.831 295.018C125.266 294.148 125.701 293.403 126.074 292.781C126.446 292.098 126.819 291.601 127.13 291.166C127.751 290.296 128.062 289.799 128.124 289.861C128.248 289.923 126.881 291.849 125.266 295.205C124.396 296.882 123.588 298.995 122.78 301.356C122.034 303.718 121.351 306.328 120.916 309.186C120.481 311.982 120.357 314.716 120.357 317.202C120.419 319.687 120.605 321.924 120.854 323.789C121.413 327.517 122.097 329.754 121.972 329.816Z" fill="#FAFAFA"/>
<path d="M64.7441 192.428C64.6819 192.552 62.7556 191.682 59.5244 190.626C56.2932 189.569 51.757 188.451 46.5994 188.016C41.4419 187.581 36.7815 187.892 33.426 188.327C30.0704 188.761 28.0198 189.321 28.0198 189.196C27.9577 189.134 28.4548 189.01 29.3869 188.761C30.319 188.451 31.6861 188.14 33.3638 187.892C36.7193 187.27 41.4419 186.897 46.6616 187.394C51.8813 187.829 56.4796 189.01 59.6487 190.191C61.2643 190.812 62.5692 191.309 63.4391 191.744C64.247 192.179 64.7441 192.366 64.7441 192.428Z" fill="#FAFAFA"/>
<path d="M162.924 244.685C162.862 244.809 161.122 244.747 158.263 244.623C155.467 244.498 151.49 244.374 147.203 244.25C142.853 244.125 138.938 244.063 136.08 244.063C133.221 244.001 131.481 244.001 131.481 243.877C131.481 243.877 131.916 243.815 132.662 243.753C133.47 243.691 134.651 243.628 136.08 243.628C138.938 243.504 142.853 243.504 147.203 243.566C151.552 243.69 155.467 243.939 158.326 244.188C159.755 244.25 160.873 244.374 161.681 244.498C162.489 244.56 162.924 244.623 162.924 244.685Z" fill="#FAFAFA"/>
<path d="M187.41 240.027C187.472 240.152 185.856 240.711 183.433 241.892C181.009 243.072 177.84 244.998 174.733 247.733C171.689 250.467 169.389 253.449 167.898 255.749C166.469 257.986 165.723 259.539 165.661 259.477C165.599 259.477 165.723 259.042 166.034 258.358C166.345 257.675 166.842 256.681 167.525 255.5C168.892 253.139 171.191 250.032 174.298 247.298C177.467 244.501 180.761 242.575 183.246 241.457C184.489 240.897 185.546 240.524 186.291 240.338C187.037 240.089 187.41 240.027 187.41 240.027Z" fill="#FAFAFA"/>
<path d="M175.351 200.196C175.351 200.382 172.803 199.823 169.012 201.066C167.148 201.687 164.973 202.681 162.612 203.924C160.313 205.105 157.703 206.534 154.783 207.466C148.879 209.392 143.1 209.206 139.186 208.46C137.197 208.087 135.644 207.59 134.587 207.218C133.531 206.845 132.972 206.596 132.972 206.534C133.034 206.41 135.333 207.404 139.248 208.025C143.162 208.647 148.817 208.709 154.534 206.845C157.454 205.913 160.002 204.546 162.363 203.365C164.725 202.184 166.962 201.19 168.888 200.631C170.814 200.072 172.492 199.947 173.611 199.947C174.17 199.947 174.605 200.072 174.916 200.072C175.206 200.154 175.351 200.196 175.351 200.196Z" fill="#FAFAFA"/>
<path d="M169.139 283.523C169.139 283.523 168.642 283.772 167.71 284.207C167.212 284.393 166.653 284.642 165.907 284.828C165.224 285.077 164.478 285.387 163.546 285.574C161.806 286.071 159.631 286.568 157.208 286.879C154.847 287.189 152.175 287.376 149.316 287.314C146.52 287.189 143.848 286.879 141.487 286.444C139.063 285.947 136.951 285.325 135.211 284.704C134.341 284.455 133.595 284.145 132.912 283.834C132.228 283.585 131.669 283.337 131.172 283.088C130.302 282.653 129.805 282.343 129.805 282.343C129.867 282.218 131.917 283.213 135.397 284.269C137.075 284.828 139.188 285.387 141.549 285.822C143.972 286.257 146.582 286.568 149.379 286.692C152.113 286.754 154.785 286.568 157.146 286.319C159.569 286.009 161.682 285.574 163.422 285.139C166.964 284.269 169.077 283.399 169.139 283.523Z" fill="#FAFAFA"/>
<path d="M197.66 320.309C197.66 320.309 197.515 320.164 197.225 319.874C196.915 319.625 196.417 319.19 195.92 318.631C194.864 317.512 193.435 315.772 192.006 313.349C189.085 308.626 186.599 301.045 186.475 292.532C186.289 284.019 187.967 276.438 189.271 271.094C189.955 268.422 190.514 266.248 190.949 264.756C191.156 264.093 191.343 263.513 191.508 263.016C191.633 262.643 191.695 262.457 191.695 262.457C191.736 262.457 191.716 262.664 191.633 263.078C191.508 263.534 191.363 264.114 191.198 264.818C190.825 266.434 190.328 268.547 189.706 271.219C188.526 276.563 186.972 284.081 187.097 292.532C187.283 300.921 189.644 308.378 192.378 313.1C193.745 315.524 195.113 317.326 196.107 318.444C197.101 319.625 197.722 320.246 197.66 320.309Z" fill="#FAFAFA"/>
<path d="M242.899 278.053C242.836 278.239 240.786 276.002 236.312 274.386C234.137 273.579 231.465 272.895 228.358 272.336C225.313 271.714 221.958 271.155 218.478 270.037C211.518 267.8 206.112 263.885 202.757 260.591C201.017 258.914 199.836 257.422 199.028 256.366C198.593 255.869 198.345 255.434 198.158 255.123C197.951 254.833 197.848 254.688 197.848 254.688C197.91 254.626 198.345 255.185 199.215 256.242C200.085 257.236 201.327 258.665 203.067 260.219C206.485 263.388 211.829 267.24 218.664 269.415C222.082 270.534 225.437 271.093 228.482 271.714C231.527 272.336 234.323 273.081 236.498 273.951C238.735 274.821 240.351 275.878 241.407 276.686C241.966 277.058 242.277 277.431 242.526 277.68C242.816 277.928 242.94 278.053 242.899 278.053Z" fill="#FAFAFA"/>
<path d="M257.128 236.611C257.066 236.611 256.631 236.238 255.823 235.43C255.388 235.057 254.891 234.623 254.27 234.063C253.648 233.566 252.965 232.945 252.157 232.323C250.603 231.081 248.677 229.651 246.44 228.222C244.141 226.855 241.531 225.488 238.735 224.245C235.938 223.065 233.142 222.133 230.532 221.449C227.985 220.828 225.623 220.331 223.635 220.082C222.641 219.958 221.709 219.896 220.901 219.833C220.093 219.709 219.409 219.647 218.85 219.647C217.732 219.585 217.11 219.523 217.11 219.461C217.11 219.461 217.732 219.398 218.85 219.398C219.409 219.398 220.155 219.398 220.963 219.461C221.709 219.523 222.641 219.523 223.697 219.647C225.686 219.833 228.109 220.268 230.719 220.89C233.329 221.573 236.125 222.443 238.983 223.686C241.842 224.867 244.452 226.296 246.751 227.725C248.988 229.216 250.914 230.646 252.467 231.951C253.275 232.634 253.897 233.255 254.518 233.815C255.139 234.374 255.574 234.871 255.947 235.306C256.755 236.114 257.19 236.549 257.128 236.611Z" fill="#FAFAFA"/>
<path d="M148.386 179.563C148.448 179.626 147.516 180.123 146.025 180.682C144.533 181.303 142.421 181.987 139.997 182.546C137.574 183.105 135.399 183.416 133.783 183.54C132.168 183.665 131.174 183.665 131.174 183.602C131.111 183.354 135.088 183.043 139.873 181.925C144.596 180.806 148.324 179.377 148.386 179.563Z" fill="#FAFAFA"/>
<path d="M192.441 354.61C193.186 357.033 191.136 359.332 188.65 358.96C187.345 358.773 186.227 357.841 185.854 356.536L184.797 352.621L184.922 352.683C185.605 355.045 183.306 357.22 180.883 356.971C179.267 356.909 177.838 354.61 177.403 353.305C174.669 353.678 172.121 352.062 171.065 350.322L163.794 338.889L150.248 329.008L158.45 299.865L187.532 318.631C188.65 319.563 188.836 319.936 190.638 321.614L209.404 338.889C207.292 340.131 205.49 340.069 202.507 338.889C199.587 337.708 186.599 328.946 186.599 328.946L192.441 354.61Z" fill="#FFBE9D"/>
<path d="M167.584 330.559C167.646 330.559 167.957 330.745 168.454 331.118C168.744 331.325 169.075 331.532 169.448 331.739C169.759 331.988 170.256 332.361 170.629 332.796C171.002 333.231 171.374 333.852 171.623 334.473C171.83 335.136 172.058 335.82 172.307 336.524C172.804 337.974 173.342 339.527 173.922 341.184C175.041 344.54 175.973 347.523 176.656 349.76C177.34 351.934 177.713 353.302 177.588 353.302C177.526 353.364 177.029 352.059 176.221 349.884C175.414 347.709 174.419 344.726 173.301 341.433C172.762 339.776 172.244 338.202 171.747 336.71C171.54 336.006 171.333 335.323 171.126 334.66C170.877 334.038 170.629 333.541 170.256 333.106C169.945 332.671 169.572 332.361 169.2 332.05C168.868 331.76 168.578 331.511 168.33 331.304C167.833 330.869 167.584 330.621 167.584 330.559Z" fill="#EB996E"/>
<path d="M185.11 353.244C185.048 353.244 184.923 352.871 184.675 352.064C184.426 351.152 184.115 350.034 183.743 348.708C182.935 345.912 181.878 342.059 180.511 337.772C179.144 333.608 177.777 329.756 176.037 327.457C175.23 326.276 174.36 325.468 173.676 325.095C172.993 324.66 172.558 324.536 172.558 324.474C172.599 324.432 172.723 324.453 172.93 324.536C173.138 324.577 173.428 324.681 173.8 324.847C174.546 325.22 175.54 325.965 176.41 327.146C178.274 329.507 179.766 333.36 181.133 337.585C182.5 341.873 183.494 345.788 184.178 348.646C184.488 350.013 184.737 351.194 184.923 352.001C185.048 352.809 185.11 353.244 185.11 353.244Z" fill="#EB996E"/>
<path d="M192.563 355.043C192.563 355.043 192.377 354.546 192.066 353.738C191.776 352.744 191.403 351.522 190.948 350.072C189.953 347.027 188.711 342.801 187.344 338.079C186.039 333.418 184.858 329.255 183.926 326.024C183.491 324.533 182.683 323.476 181.937 322.979C181.254 322.482 180.757 322.42 180.757 322.358C180.757 322.358 180.881 322.296 181.13 322.358C181.378 322.42 181.689 322.544 182.124 322.793C182.932 323.228 183.864 324.346 184.361 325.9C185.417 328.944 186.598 333.17 187.965 337.892C189.332 342.615 190.513 346.903 191.383 349.947C191.755 351.397 192.066 352.64 192.315 353.676C192.501 354.546 192.625 355.043 192.563 355.043Z" fill="#EB996E"/>
<path d="M368.371 106.175H295.637C292.741 106.175 290.394 103.827 290.394 100.931V46.4875C290.394 43.5917 292.741 41.2441 295.637 41.2441H368.371C371.267 41.2441 373.614 43.5917 373.614 46.4875V100.931C373.614 103.827 371.267 106.175 368.371 106.175Z" fill="#9BC4F9"/>
<path d="M342.45 120.268H321.559L326.262 102.146H337.746L342.45 120.268Z" fill="#BCD6F9"/>
<path d="M350.575 124.609H313.433C312.431 124.609 311.618 123.796 311.618 122.794C311.618 119.002 314.692 115.928 318.484 115.928H345.524C349.316 115.928 352.39 119.002 352.39 122.794C352.39 123.796 351.577 124.609 350.575 124.609Z" fill="#EAF2FF"/>
<path d="M345.524 115.928H334.289C337.497 115.928 340.097 118.528 340.097 121.736V124.609H350.576C351.578 124.609 352.39 123.796 352.39 122.794C352.39 119.002 349.316 115.928 345.524 115.928Z" fill="#DBE8F9"/>
<path d="M368.372 41.2441H356.12C359.016 41.2441 361.363 43.5917 361.363 46.4875V100.931C361.363 103.827 359.016 106.175 356.12 106.175H368.372C371.267 106.175 373.615 103.827 373.615 100.931V46.4875C373.615 43.5917 371.268 41.2441 368.372 41.2441Z" fill="#7FB2F9"/>
<path d="M290.394 96.2598V100.931C290.394 103.827 292.741 106.174 295.637 106.174H368.371C371.267 106.174 373.615 103.827 373.615 100.931V96.2598H290.394Z" fill="#EAF2FF"/>
<path d="M361.363 96.2598V100.931C361.363 103.827 359.016 106.174 356.12 106.174H368.372C371.267 106.174 373.615 103.827 373.615 100.931V96.2598H361.363Z" fill="#DBE8F9"/>
<path d="M327.971 35.5849C325.272 32.886 321.455 31.879 317.985 32.6461C317.055 32.8518 316.726 34.0115 317.399 34.6852L322.611 39.8963C324.143 41.4287 324.143 43.913 322.611 45.4454C321.078 46.9779 318.594 46.9779 317.061 45.4454L311.85 40.2344C311.177 39.5606 310.017 39.8902 309.811 40.8205C309.044 44.29 310.051 48.1069 312.75 50.8059C314.697 52.7532 317.205 53.7982 319.754 53.9409C319.837 53.9455 319.941 53.955 320.063 53.9685C322.708 54.2613 325.171 55.4614 327.053 57.3436L350.138 80.428C352.197 82.4869 355.534 82.4869 357.593 80.428C359.652 78.3692 359.652 75.0314 357.593 72.9726L334.509 49.8882C332.626 48.006 331.426 45.5432 331.133 42.8975C331.12 42.7756 331.11 42.6715 331.106 42.589C330.963 40.0401 329.918 37.5322 327.971 35.5849Z" fill="#C9E0FD"/>
<path d="M353.505 67.0463C352.838 66.4394 351.967 66.1982 351.125 66.2961C351.003 66.3102 350.881 66.2724 350.795 66.1843L350.772 66.1609C350.638 66.0223 350.628 65.805 350.749 65.6551C350.895 65.4755 351.074 65.2426 351.151 65.0942C351.717 63.9941 351.568 62.6101 350.654 61.6937C349.651 60.688 348.254 60.4375 347.107 60.9717C347.063 60.9919 346.966 61.0218 346.926 60.9743C346.885 60.9249 346.93 60.8387 346.957 60.8016C347.795 59.6282 347.758 57.9879 346.746 56.9069C345.804 55.8989 344.35 55.6738 343.186 56.2442C343.172 56.2506 343.078 56.2976 343.046 56.2586C342.995 56.1965 343.081 56.1117 343.081 56.1117L343.388 55.8044C344.55 54.6425 344.658 52.7494 343.552 51.5342C342.372 50.2378 340.358 50.2072 339.133 51.4327L331.713 58.8403C331.656 58.8973 331.597 58.9498 331.536 58.998L331.499 59.0355C330.699 59.835 329.52 59.8118 328.721 59.0121L326.829 57.1261C325.099 58.9565 324.081 61.3879 324.378 63.892L324.693 66.5409C324.885 68.1529 324.327 69.7638 323.179 70.9116L315.048 79.0428L328.17 92.1647L337.836 82.4983C338.311 82.0236 338.871 81.6435 339.488 81.3781L343.811 79.5184C346.003 78.4409 348.002 77.0102 349.729 75.2831L353.612 71.4616C354.837 70.2359 354.802 68.2266 353.505 67.0463Z" fill="#FFDDCE"/>
<path d="M353.506 67.0438C352.839 66.4369 351.968 66.1957 351.126 66.2937C351.004 66.3078 350.882 66.2699 350.796 66.1818L350.774 66.1584C350.639 66.0198 350.629 65.8025 350.751 65.6526C350.896 65.473 351.075 65.2401 351.152 65.0917C351.719 63.9916 351.57 62.6076 350.656 61.6912C349.653 60.6855 348.256 60.435 347.108 60.9692L341.127 66.6778C339.4 68.4046 337.401 69.8356 335.209 70.9131L330.886 72.7728C330.27 73.0381 329.709 73.4181 329.234 73.8929L325.981 77.1465C325.981 77.1465 328.251 79.417 326.213 81.3478C325.313 82.2477 323.954 82.4088 322.89 81.831L320.377 84.3687L328.171 92.1624L337.837 82.496C338.312 82.0214 338.872 81.6412 339.489 81.3758L343.812 79.5161C346.004 78.4386 348.003 77.0079 349.73 75.2808L353.613 71.4593C354.839 70.2334 354.803 68.2241 353.506 67.0438Z" fill="#FFCBBE"/>
<path d="M325.664 96.2617L334.414 87.5122L319.88 72.9785L296.597 96.2617H325.664Z" fill="#FFE07D"/>
<path d="M326.211 81.3458C325.312 82.2457 323.953 82.4068 322.888 81.829L308.599 96.2604H325.663L334.412 87.5108L326.992 80.0898C326.885 80.5071 326.646 80.9343 326.211 81.3458Z" fill="#FFD064"/>
<path d="M316.881 72.0173C315.785 73.1134 315.785 74.8905 316.881 75.9865L330.845 89.9513C331.941 91.0474 333.718 91.0474 334.815 89.9513C335.911 88.8553 335.911 87.0783 334.815 85.9821L320.85 72.0173C319.754 70.9213 317.977 70.9213 316.881 72.0173Z" fill="#FFD064"/>
<path d="M325.98 77.1445C325.98 77.1445 328.25 79.4151 326.212 81.3459C325.312 82.2458 323.953 82.4068 322.889 81.829L322.808 81.9109L330.846 89.9487C331.942 91.0448 333.719 91.0448 334.815 89.9487C335.911 88.8527 335.911 87.0757 334.815 85.9795L325.98 77.1445Z" fill="#FFC250"/>
<path d="M373.601 51.9688C374.38 51.9688 375.011 51.3377 375.011 50.5592V46.4965C375.011 42.8289 372.027 39.8454 368.36 39.8454H332.061C331.497 37.8763 330.44 36.0689 328.968 34.5966C326.032 31.6607 321.709 30.3895 317.685 31.2792C316.755 31.4848 316.011 32.1817 315.743 33.0981C315.475 34.0196 315.729 35.0128 316.406 35.6908L320.561 39.8454H313.454L312.852 39.2442C311.609 38.0008 309.523 38.3127 308.694 39.8454H295.651C291.984 39.8454 289 42.8289 289 46.4965V100.921C289 104.589 291.984 107.572 295.651 107.572H323.398L321.599 114.503H318.49C313.928 114.503 310.217 118.214 310.217 122.776C310.217 124.554 311.663 126 313.441 126H350.57C352.347 126 353.794 124.554 353.794 122.776C353.794 118.214 350.082 114.503 345.52 114.503H342.411L340.612 107.572H368.359C372.027 107.572 375.011 104.589 375.011 100.921V57.1851C375.011 56.4065 374.379 55.7755 373.601 55.7755C372.822 55.7755 372.191 56.4065 372.191 57.1851V94.842H329.068L331.85 92.0599C333.221 92.3844 334.728 92.0215 335.81 90.939C337.189 89.5598 337.411 87.4548 336.475 85.842L338.83 83.4869C339.18 83.1373 339.588 82.8608 340.042 82.6653C344.821 80.6085 344.375 80.8022 344.428 80.7762C345.323 80.3363 346.186 79.8424 347.013 79.2974L349.133 81.4177C351.743 84.0279 355.968 84.0283 358.579 81.4175C361.189 78.8074 361.19 74.5819 358.579 71.9713L355.906 69.2983C355.906 68.0568 355.401 66.871 354.446 66.0013C353.94 65.5413 353.337 65.212 352.688 65.0294C353.166 63.5072 352.786 61.8406 351.645 60.6971C350.876 59.9256 349.923 59.4584 348.936 59.3248C349.032 58.107 348.637 56.8721 347.77 55.9449C347.164 55.2969 346.408 54.8617 345.599 54.6572C345.95 53.2505 345.62 51.7198 344.589 50.5878C342.844 48.6707 339.903 48.6687 338.134 50.4378L337.589 50.9815L335.503 48.895C333.843 47.2348 332.788 45.052 332.533 42.7482C332.53 42.7189 332.527 42.6909 332.524 42.6646H368.359C370.472 42.6646 372.192 44.3836 372.192 46.4965V50.5592C372.192 51.3377 372.823 51.9688 373.601 51.9688ZM322.35 42.6646C322.354 43.3121 322.109 43.9606 321.616 44.4536C320.632 45.4377 319.042 45.4338 318.062 44.4536L316.273 42.6646H322.35ZM345.52 117.322C348.528 117.322 350.974 119.769 350.974 122.776C350.974 122.999 350.793 123.181 350.57 123.181H313.441C313.218 123.181 313.036 122.999 313.036 122.776C313.036 119.769 315.483 117.322 318.49 117.322H345.52ZM324.512 114.503L326.311 107.572H337.7L339.499 114.503H324.512ZM372.192 97.6612V100.921C372.192 103.034 370.472 104.753 368.359 104.753C367.21 104.753 295.979 104.753 295.651 104.753C293.538 104.753 291.819 103.034 291.819 100.921V97.6612H372.192ZM325.081 94.842H300.011L306.958 87.8949C307.509 87.3442 307.509 86.4519 306.958 85.9014C306.408 85.3511 305.515 85.3511 304.965 85.9014L296.024 94.8421H291.819V46.4965C291.819 44.3836 293.538 42.6646 295.651 42.6646H308.17C308.05 46.0244 309.339 49.3862 311.759 51.8057C313.877 53.9239 316.69 55.1826 319.679 55.3502C321.202 55.4355 323.2 56.0979 324.853 57.3086C323.381 59.3454 322.706 61.7388 322.981 64.057L323.296 66.7049C323.438 67.8948 323.033 69.0634 322.185 69.9108L321.44 70.6565C319.8 69.3901 317.416 69.4913 315.89 71.0179C314.567 72.3407 314.334 74.2797 315.06 75.8067L309.633 81.2341C309.082 81.7848 309.082 82.6771 309.633 83.2277C310.183 83.7782 311.076 83.778 311.626 83.2277L316.882 77.9717L329.417 90.5065L325.081 94.842ZM333.817 88.9455C333.27 89.4919 332.387 89.4897 331.843 88.9453L317.883 74.9855C317.337 74.4402 317.337 73.5568 317.883 73.0113C317.883 73.0113 317.883 73.0113 317.883 73.0111C318.429 72.4654 319.311 72.4654 319.857 73.0113C321.266 74.4201 332.812 85.9667 333.817 86.9709C334.361 87.5155 334.361 88.4011 333.817 88.9455ZM354.829 72.2075L356.586 73.9646C358.091 75.4696 358.091 77.9188 356.586 79.4238C355.081 80.9285 352.632 80.9287 351.127 79.424L349.292 77.5896C350.377 76.669 354.71 72.3457 354.829 72.2075ZM340.127 52.4319C340.778 51.7812 341.862 51.7788 342.505 52.4855C343.084 53.122 343.031 54.1642 342.387 54.8086L342.086 55.1097C340.863 56.318 342.198 58.2926 343.802 57.5109C344.447 57.1945 345.215 57.3393 345.712 57.8707C346.237 58.4327 346.276 59.3205 345.803 59.9826C344.858 61.3092 346.21 62.9431 347.696 62.2486C348.325 61.9566 349.092 62.1286 349.649 62.6878C350.099 63.1381 350.197 63.838 349.897 64.4336C349.883 64.4566 349.818 64.5555 349.648 64.7645C348.627 66.0232 349.685 67.8796 351.281 67.6937C351.759 67.638 352.209 67.7774 352.548 68.0861C353.267 68.7396 353.245 69.8221 352.615 70.4526C348.832 74.1168 347.143 76.2919 343.216 78.2305L338.928 80.0752C338.144 80.4125 337.441 80.8894 336.837 81.493L334.582 83.7487L323.458 72.6248L324.179 71.9039C325.641 70.4415 326.34 68.4251 326.096 66.3715L325.781 63.7235C325.601 62.2128 326.021 60.6331 326.948 59.2339L327.725 60.0082C329.033 61.3174 331.094 61.422 332.483 60.0445C332.704 59.8592 332.3 60.2394 340.127 52.4319ZM333.51 50.8884L335.594 52.9732C326.228 62.2891 333.195 55.3597 330.502 58.0388C330.247 58.2937 329.959 58.2566 329.717 58.0137L327.825 56.1282C327.809 56.1115 327.791 56.095 327.774 56.0792C325.499 53.9326 322.457 52.6811 319.836 52.5353C317.54 52.4067 315.38 51.4396 313.752 49.812C311.584 47.6441 310.594 44.4978 311.117 41.5166C311.118 41.5108 311.12 41.5049 311.121 41.4991C312.887 43.2659 314.164 44.5425 316.068 46.4471C318.152 48.531 321.525 48.5312 323.609 46.4471C324.616 45.44 325.171 44.1009 325.171 42.6768C325.171 41.2525 324.616 39.9135 323.609 38.9063L318.661 33.9585C321.647 33.4273 324.802 34.4179 326.974 36.5901C329.346 38.9618 329.547 41.395 329.731 43.0585C330.056 45.996 331.398 48.7766 333.51 50.8884Z" fill="black"/>
</svg>
