<svg width="418" height="340" viewBox="0 0 418 340" fill="none" xmlns="http://www.w3.org/2000/svg">
<path d="M83.2776 67.5555V118.662C77.3667 120.98 70.9283 122.253 64.1935 122.253C57.4587 122.253 51.0225 120.98 45.1094 118.662V67.5555L57.5332 60.3809V111.464L64.1935 115.311L70.8538 111.464V60.3809L83.2776 67.5555Z" fill="#F36306"/>
<path d="M108.862 52.7849V97.1692C105.807 102.175 101.933 106.626 97.4287 110.336C96.9613 110.72 96.4873 111.098 96.007 111.465V60.2071L64.1938 41.8403L32.3805 60.2071V111.467C27.2658 107.544 22.8983 102.694 19.5254 97.1713V52.7849L64.1938 27L108.862 52.7849Z" fill="#F36306"/>
<path d="M376.186 0V320.37L336.986 314.79L214.896 297.41L47.1858 273.54L46.7559 150.68C62.615 154.979 79.4303 154.124 94.7714 148.238C110.112 142.352 123.184 131.74 132.098 117.936C141.011 104.132 145.305 87.8517 144.357 71.4475C143.409 55.0434 137.27 39.3656 126.826 26.6802L376.186 0Z" fill="#D8F6F8"/>
<path d="M66.473 141.63C102.08 141.63 130.946 112.764 130.946 77.1566C130.946 41.5491 102.08 12.6836 66.473 12.6836C30.8655 12.6836 2 41.5491 2 77.1566C2 112.764 30.8655 141.63 66.473 141.63Z" fill="#D8F6F8"/>
<path d="M66.473 139.964C102.08 139.964 130.946 111.098 130.946 75.4906C130.946 39.8831 102.08 11.0176 66.473 11.0176C30.8655 11.0176 2 39.8831 2 75.4906C2 111.098 30.8655 139.964 66.473 139.964Z" stroke="#00B4BE" stroke-width="2.95" stroke-miterlimit="10"/>
<path d="M145.434 194.984L126.236 173.112C121.011 167.948 119.249 165.458 120.282 164.546C121.68 163.331 121.072 163.696 131.886 171.837C131.886 171.837 116.576 160.111 121.862 160.05C122.773 160.05 125.385 161.569 128.18 163.392C124.413 160.172 123.32 157.985 124.049 156.952C125.264 155.129 134.681 161.63 138.994 164.789C135.47 162.116 128.727 157.074 127.573 155.433C125.932 153.246 129.213 153.428 131.886 154.34C134.863 155.372 151.449 163.817 156.37 166.004C159.772 167.523 160.926 164.485 160.926 164.485C162.749 156.891 168.216 151.91 170.343 151.302C172.469 150.634 174.049 153.307 172.53 155.251C171.315 156.831 170.1 160.05 169.31 162.481C168.642 164.485 168.277 166.612 168.338 168.677C168.399 171.168 168.52 173.234 168.642 174.996L186.26 199.115L156.856 216.187L145.434 194.984Z" fill="#B78876"/>
<path d="M138.507 175.173C138.325 175.416 134.922 173.108 130.913 169.888C126.903 166.729 123.805 163.934 124.048 163.691C124.23 163.448 127.693 165.817 131.642 168.916C135.651 172.075 138.75 174.87 138.507 175.173Z" fill="#AA6550"/>
<path d="M142.27 171.348C142.088 171.591 138.321 169.283 133.825 166.184C129.39 163.086 125.866 160.291 126.11 160.048C126.292 159.745 130.058 162.053 134.554 165.152C138.989 168.311 142.452 171.045 142.27 171.348Z" fill="#AA6550"/>
<path d="M145.006 167.219C144.824 167.522 141.179 165.396 136.926 162.541C132.673 159.625 129.332 157.073 129.514 156.769C129.757 156.465 133.341 158.592 137.594 161.508C141.908 164.363 145.188 166.976 145.006 167.219Z" fill="#AA6550"/>
<path d="M170.279 178.34L240.388 267.161L224.349 304.524C224.349 304.524 205.09 300.272 199.258 292.191C193.426 284.111 145.431 194.986 145.431 194.986L170.279 178.34Z" fill="#B78876"/>
<path d="M348.227 53.9707C353.269 58.3449 353.209 65.9999 352.662 72.6827C352.054 79.3048 351.629 86.899 356.246 91.6985C360.013 95.7082 366.939 97.47 367.789 102.877C368.215 105.429 366.878 108.163 364.63 109.378C362.382 110.593 359.345 110.289 357.461 108.527C358.92 112.841 357.887 118.187 354.181 120.799C350.475 123.412 344.217 121.771 343.063 117.397C343.792 120.313 341.666 123.594 338.749 124.141C335.772 124.627 332.674 122.318 332.31 119.402" fill="#263238"/>
<path d="M275.988 98.8065C274.713 102.087 270.521 103.91 267.24 102.573C263.959 101.176 262.319 96.9231 263.777 93.7032C264.931 91.1516 267.665 89.329 267.908 86.5951C268.212 83.2537 264.81 80.8235 261.772 79.3655C258.734 77.9074 255.211 76.024 254.907 72.6826C254.543 69.4627 257.459 66.911 259.889 64.7847C262.319 62.5976 264.688 59.2561 263.169 56.34C262.44 54.8819 260.861 54.0313 259.828 52.7555C257.519 49.8394 258.734 45.2221 261.651 42.9742C264.506 40.7264 268.516 40.3619 272.161 41.0301C275.806 41.6984 279.208 43.1565 282.732 44.2501C294.336 47.713 307.398 46.0119 317.726 39.6328" fill="#263238"/>
<path d="M297.494 177.187C310.556 179.799 323.314 171.476 326.17 158.475L343.424 79.4347C347.919 60.1759 335.708 40.9779 316.328 37.0289L314.566 36.7252C296.34 34.052 279.147 45.8381 275.015 63.7604C271.188 80.4675 267.117 98.9365 265.902 107.989C263.412 126.822 281.759 132.472 281.759 132.472L278.478 148.329C275.684 161.512 284.25 174.514 297.494 177.187Z" fill="#B78876"/>
<path d="M278.357 76.1453C278.114 77.5427 279.086 78.94 280.544 79.2438C282.002 79.5475 283.399 78.6362 283.703 77.2389C283.946 75.8416 282.974 74.4443 281.516 74.1405C280.058 73.8367 278.66 74.748 278.357 76.1453Z" fill="#263238"/>
<path d="M277.69 73.5126C277.993 73.9378 280.241 72.7228 283.097 73.148C286.013 73.5126 287.896 75.3352 288.261 75.0314C288.443 74.8491 288.2 74.1808 287.349 73.391C286.56 72.6013 285.101 71.69 283.279 71.4469C281.517 71.2039 279.877 71.6292 278.905 72.176C277.933 72.7228 277.568 73.3303 277.69 73.5126Z" fill="#263238"/>
<path d="M306.544 80.8348C306.301 82.2321 307.273 83.6295 308.731 83.9332C310.189 84.237 311.587 83.3257 311.83 81.9284C312.133 80.4703 311.161 79.1337 309.642 78.83C308.184 78.5262 306.787 79.4375 306.544 80.8348Z" fill="#263238"/>
<path d="M305.931 78.1981C306.235 78.6234 308.482 77.4083 311.338 77.8336C314.254 78.1981 316.137 80.0207 316.502 79.7169C316.684 79.5954 316.441 78.8664 315.591 78.0766C314.801 77.2868 313.343 76.4363 311.52 76.1325C309.758 75.8895 308.118 76.3148 307.146 76.8615C306.174 77.4083 305.809 78.0158 305.931 78.1981Z" fill="#263238"/>
<path d="M292.333 98.0772C292.394 97.8949 290.632 97.3481 287.777 96.5583C287.048 96.3761 286.379 96.0723 286.379 95.5863C286.258 95.0395 286.683 94.2497 287.169 93.4599C288.101 91.7993 289.093 90.0375 290.146 88.1744C294.338 80.641 297.497 74.3834 297.193 74.2619C296.89 74.0796 293.244 80.0335 289.053 87.5669C288.04 89.43 287.068 91.2121 286.136 92.9131C285.711 93.7029 285.104 94.6142 285.347 95.7686C285.468 96.3153 285.954 96.8014 286.379 96.9836C286.865 97.2266 287.23 97.2874 287.594 97.3481C290.511 97.9557 292.333 98.1987 292.333 98.0772Z" fill="#263238"/>
<path d="M306.854 66.7941C307.036 67.6447 309.953 67.7054 313.294 68.6167C316.635 69.4065 319.187 70.8039 319.734 70.1963C319.977 69.8926 319.612 69.042 318.64 68.1307C317.668 67.2194 316.028 66.2474 314.023 65.7613C312.018 65.2146 310.135 65.2753 308.798 65.5791C307.522 65.8828 306.793 66.4296 306.854 66.7941Z" fill="#263238"/>
<path d="M279.995 65.3207C280.359 66.0497 282.486 65.6852 284.855 65.989C287.285 66.232 289.229 67.0825 289.776 66.475C290.019 66.1712 289.776 65.4422 288.986 64.7131C288.257 63.9841 286.86 63.2551 285.22 63.0728C283.579 62.8905 282.06 63.2551 281.088 63.8018C280.177 64.3486 279.813 64.9562 279.995 65.3207Z" fill="#263238"/>
<path d="M326.047 55.8593C326.087 55.8998 326.128 55.92 326.168 55.92C328.781 58.7147 330.239 62.4206 330.239 66.3088C330.239 66.4303 330.239 66.5518 330.239 66.6733C330.178 72.1411 329.267 77.5482 329.267 83.016C329.267 88.4838 330.3 94.1946 333.702 98.4473C335.099 100.209 337.833 101.667 339.413 100.088C340.081 99.4801 340.263 98.5688 340.445 97.7183C343.362 84.9601 348.586 74.0245 350.53 60.4765C351.077 56.8313 349.801 53.1254 347.128 50.513C344.637 48.0829 341.478 45.4705 338.137 46.5033C334.735 47.5361 329.814 52.8216 327.019 54.948" fill="#263238"/>
<path d="M335.826 86.961C336.191 86.8395 349.313 85.0169 347.005 97.7751C344.696 110.533 332.363 105.612 332.424 105.248C332.424 104.883 335.826 86.961 335.826 86.961Z" fill="#B78876"/>
<path d="M337.163 101.118C337.224 101.118 337.345 101.301 337.71 101.544C338.074 101.787 338.682 102.03 339.35 101.908C340.808 101.665 342.327 99.7209 342.813 97.4123C343.056 96.258 342.995 95.1037 342.752 94.1317C342.509 93.0988 342.023 92.3698 341.355 92.1268C340.747 91.823 340.2 92.1268 339.957 92.4913C339.714 92.7951 339.775 93.0988 339.714 93.0988C339.654 93.0988 339.471 92.8558 339.654 92.3091C339.775 92.066 339.957 91.823 340.322 91.6408C340.626 91.3978 341.112 91.3978 341.598 91.5193C342.57 91.7623 343.299 92.7951 343.542 93.8886C343.906 94.9822 343.967 96.3188 343.663 97.5946C343.117 100.146 341.415 102.333 339.471 102.516C338.499 102.576 337.831 102.212 337.467 101.847C337.163 101.422 337.102 101.118 337.163 101.118Z" fill="#AA6550"/>
<path d="M338.263 48.5742C342.151 43.8962 334.618 35.2693 328.542 32.3531C322.528 29.437 313.719 31.2596 307.157 32.4746C302.965 33.2037 298.712 34.4795 294.581 33.6897C291.787 33.1429 289.235 31.7456 286.744 30.409C284.253 29.0724 281.641 27.7966 278.785 27.5536C275.93 27.3713 272.832 28.4042 271.434 30.895C269.976 33.3252 270.948 37.0919 273.682 37.8817C270.401 35.4515 264.934 37.2134 263.779 41.1623C262.564 45.1113 266.209 49.6071 270.28 49.3033C268.7 47.6629 265.541 49.5463 265.42 51.8549C265.359 54.1635 267.182 56.1076 269.126 57.3227C274.107 60.4819 280.486 60.6641 286.258 59.5706C292.09 58.5378 297.619 56.4114 303.451 55.1963C309.223 53.9813 318.943 51.7334 324.168 54.5281C327.996 56.5329 330.122 61.8185 332.552 61.0894C334.921 60.3604 336.623 58.234 337.473 55.9254C338.263 53.556 338.263 51.0651 338.263 48.5742Z" fill="#263238"/>
<path d="M363.231 107.799C363.231 107.799 363.534 107.799 363.899 107.556C364.324 107.252 364.871 106.766 365.296 105.976C365.722 105.125 365.965 103.971 365.722 102.635C365.539 101.359 364.689 99.9615 363.413 98.9287C362.198 97.7743 360.558 96.9846 358.856 96.1948C357.095 95.4657 355.151 94.7974 353.449 93.6431C351.748 92.4888 350.351 90.6662 349.561 88.5398C348.711 86.4742 348.346 84.0441 348.407 81.6747C348.528 76.7537 349.865 72.258 350.23 67.9445C350.655 63.6918 349.987 59.6213 348.164 56.8267C346.402 54.032 343.85 52.6954 342.089 52.2702C341.238 52.0879 340.509 52.0879 340.023 52.0879C339.537 52.1284 339.294 52.1689 339.294 52.2094C339.294 52.2702 340.327 52.0271 342.028 52.5132C343.729 52.9992 346.098 54.3965 347.799 57.0697C349.5 59.8036 350.047 63.6918 349.622 67.8837C349.257 72.0757 347.921 76.6322 347.739 81.614C347.739 84.1049 348.042 86.5958 348.954 88.7829C349.804 90.97 351.262 92.9141 353.146 94.1292C354.968 95.3442 356.912 96.0125 358.613 96.7415C360.375 97.4098 361.955 98.1996 363.109 99.2324C364.324 100.265 365.114 101.48 365.357 102.695C365.6 103.91 365.418 105.065 365.053 105.855C364.324 107.495 363.17 107.738 363.231 107.799Z" fill="#455A64"/>
<path d="M273.255 37.6286C273.295 37.5881 273.113 37.4869 272.708 37.3249C272.546 37.2034 272.323 37.1021 272.039 37.0211C271.715 36.9401 271.371 36.8591 271.007 36.7781C269.427 36.4743 266.815 36.7173 264.567 38.7222L264.506 38.7829C262.987 40.5448 261.954 43.2787 262.258 46.3771C262.44 49.4148 264.142 52.6955 266.936 55.0041C269.731 57.3735 273.498 58.8923 277.568 59.3176C281.638 59.7428 285.891 59.3176 290.144 58.5278C297.131 57.1912 303.51 54.518 308.734 51.3589C311.408 49.7793 313.898 48.3212 316.45 47.3492C318.941 46.3771 321.432 45.8911 323.741 45.8911C328.358 45.7696 331.942 47.1669 334.19 48.3212C336.499 49.5363 337.531 50.5691 337.592 50.5083C337.592 50.5083 336.62 49.4148 334.312 48.1389C332.064 46.8631 328.419 45.405 323.741 45.405C321.371 45.405 318.819 45.8303 316.207 46.8631C313.655 47.8352 311.104 49.2933 308.491 50.8121C303.206 53.9713 296.948 56.5837 290.022 57.8595C285.83 58.71 281.578 59.0745 277.629 58.6493C273.68 58.2848 269.974 56.8267 267.301 54.5788C264.567 52.3309 262.926 49.2325 262.744 46.3163C262.44 43.4002 263.352 40.727 264.81 39.026C266.936 37.0211 269.427 36.7173 270.946 36.9603C272.526 37.2034 273.255 37.6894 273.255 37.6286Z" fill="#455A64"/>
<path d="M280.363 27C280.363 27 280.242 28.0328 280.849 29.8554C281.457 31.6173 282.976 34.1081 285.892 35.9307C287.289 36.842 288.99 37.6318 290.935 37.9963C292.939 38.4216 295.066 38.5431 297.253 38.3609C301.749 37.9963 306.427 36.4775 311.287 35.2017C316.208 33.9259 321.068 33.3183 325.321 34.4119C329.574 35.5055 332.793 38.0571 334.859 40.6087C336.925 43.1604 338.018 45.712 338.504 47.4739C338.99 49.2357 339.051 50.2685 339.112 50.2685C339.152 50.2685 339.152 50.0255 339.112 49.5395C339.051 49.0534 338.93 48.3244 338.747 47.4131C338.322 45.5905 337.289 42.9781 335.224 40.305C333.158 37.6926 329.817 35.0194 325.442 33.8651C321.068 32.65 316.086 33.3183 311.165 34.5942C306.184 35.87 301.566 37.3888 297.253 37.7533C295.066 37.9356 292.939 37.8748 291.056 37.5103C289.173 37.1458 287.532 36.4168 286.135 35.5055C283.28 33.8044 281.7 31.4957 281.092 29.7947C280.424 28.0328 280.485 27 280.363 27Z" fill="#455A64"/>
<path d="M286.62 107.622C286.803 108.837 287.046 110.112 287.592 111.267C288.139 112.421 289.111 113.393 290.326 113.697C291.602 114.061 293.06 113.515 293.972 112.603C294.944 111.631 295.49 110.355 295.733 109.019C295.916 107.804 295.673 106.285 294.518 105.92C294.032 105.738 293.485 105.86 292.999 105.92C290.772 106.326 288.524 106.731 286.256 107.136" fill="#AA6550"/>
<path d="M287.774 112.72C287.896 112.538 289.05 113.51 291.116 113.327C292.148 113.267 293.363 112.902 294.275 111.93C295.186 110.958 295.733 109.5 295.611 107.981C295.611 107.617 295.49 107.252 295.368 106.948C295.186 106.584 295.247 106.645 295.004 106.584C294.7 106.584 294.275 106.645 293.91 106.645C293.505 106.685 293.12 106.705 292.756 106.705C291.298 106.827 290.022 106.948 288.868 107.009C286.681 107.07 285.283 107.07 285.283 106.888C285.283 106.766 286.62 106.462 288.807 106.159C289.9 106.037 291.237 105.855 292.695 105.672C293.06 105.632 293.424 105.591 293.789 105.551C294.214 105.551 294.518 105.49 295.064 105.49C295.307 105.49 295.672 105.551 295.915 105.794C296.219 106.037 296.34 106.28 296.401 106.523C296.583 106.948 296.705 107.434 296.766 107.86C296.948 109.743 296.158 111.505 295.004 112.659C293.849 113.813 292.331 114.178 291.176 114.178C289.961 114.117 289.05 113.753 288.503 113.388C287.956 113.084 287.713 112.781 287.774 112.72Z" fill="#263238"/>
<path d="M281.76 132.469C281.76 132.469 293.971 137.086 305.94 133.745C305.94 133.745 296.948 141.278 280.545 138.362L281.76 132.469Z" fill="#AA6550"/>
<path d="M300.411 306.649C300.411 306.71 299.804 306.224 298.771 305.373C298.224 304.948 297.617 304.462 296.827 303.854C296.037 303.308 295.186 302.639 294.154 301.971C293.121 301.303 292.027 300.574 290.751 299.905C289.597 299.176 288.2 298.508 286.802 297.779C283.886 296.382 280.666 295.045 277.143 293.952C273.558 292.919 270.095 292.25 266.936 291.825C265.357 291.643 263.838 291.461 262.44 291.4C260.982 291.339 259.707 291.339 258.491 291.339C257.276 291.278 256.183 291.4 255.211 291.461C254.239 291.461 253.449 291.582 252.72 291.643C251.383 291.764 250.654 291.825 250.654 291.764C250.654 291.764 251.383 291.582 252.72 291.4C253.388 291.278 254.239 291.157 255.211 291.096C256.122 291.035 257.216 290.914 258.491 290.914C259.707 290.853 261.043 290.792 262.44 290.914C263.899 290.914 265.417 291.096 266.997 291.218C270.217 291.643 273.741 292.311 277.325 293.344C280.849 294.438 284.129 295.774 287.046 297.232C288.443 297.961 289.84 298.69 291.055 299.48C292.27 300.148 293.364 300.938 294.397 301.606C295.429 302.275 296.28 303.004 297.009 303.611C297.799 304.158 298.406 304.766 298.892 305.191C299.925 306.102 300.472 306.649 300.411 306.649Z" fill="#FAFAFA"/>
<path d="M229.026 244.249L238.99 201.115C242.817 184.833 247.313 169.28 254.907 167.396V172.439L251.687 295.768C251.687 295.768 231.335 318.915 205.454 306.035C197.374 302.026 182.611 273.775 182.611 273.775C182.611 273.775 148.285 212.475 149.743 209.681C151.141 206.947 172.161 179.851 174.288 178.514L229.026 244.249Z" fill="#E8505B"/>
<path d="M331.579 155.242C351.384 159.009 373.681 170.552 383.948 200.139C387.654 210.953 414.932 290.722 414.932 290.722L368.456 289.75L360.862 273.286L364.568 299.957L367.727 337.988L250.291 339.993L251.081 282.642L252.235 168.669C252.235 168.669 253.572 166.968 273.802 155.789C286.378 148.863 331.579 155.242 331.579 155.242Z" fill="#E8505B"/>
<g opacity="0.2">
<path d="M343.242 231.436C345.186 255.494 347.434 262.906 349.318 286.964C349.5 289.273 349.743 291.581 350.593 293.647C351.505 295.773 353.206 297.657 355.454 298.082C358.917 298.811 363.351 301.241 364.324 297.9L361.043 274.753C361.043 274.753 360.314 270.378 357.823 264.971C350.654 248.932 347.981 248.021 343.242 231.436Z" fill="black"/>
</g>
<path d="M273.803 168.127L274.167 165.636L277.934 141.639C278.177 140.181 279.453 139.148 280.911 139.269L327.144 143.158C330.06 143.401 332.247 145.892 332.004 148.808L330.972 162.781L316.573 181.614L295.795 184.834" fill="#E8505B"/>
<path d="M250.595 213.268C250.777 213.268 250.899 232.101 250.899 255.309C250.899 278.456 250.777 297.289 250.595 297.289C250.413 297.289 250.291 278.456 250.291 255.309C250.291 232.101 250.413 213.268 250.595 213.268Z" fill="#263238"/>
<path d="M369.428 293.58C369.428 293.58 369.368 293.479 369.246 293.276C369.165 293.074 369.044 292.81 368.882 292.486C368.558 291.717 368.092 290.644 367.484 289.267C366.269 286.472 364.507 282.401 362.381 277.48C358.189 267.456 352.357 253.665 345.917 238.477C342.697 230.822 339.659 223.592 336.865 216.97C335.407 213.689 334.435 210.348 333.888 207.189C333.341 204.03 333.098 201.053 333.098 198.319C333.037 192.851 333.827 188.477 334.921 185.621C335.042 185.257 335.164 184.913 335.285 184.589C335.447 184.305 335.589 184.022 335.71 183.738C335.953 183.212 336.196 182.786 336.439 182.462C336.642 182.179 336.824 181.936 336.986 181.733C337.108 181.571 337.169 181.49 337.169 181.49C337.229 181.551 336.136 182.827 335.164 185.682C334.131 188.538 333.402 192.912 333.523 198.319C333.645 203.665 334.374 210.227 337.412 216.727C340.206 223.349 343.244 230.579 346.464 238.234C352.843 253.483 358.614 267.274 362.806 277.298C364.872 282.28 366.512 286.35 367.727 289.206C368.254 290.583 368.679 291.656 369.003 292.426C369.125 292.75 369.226 293.033 369.307 293.276C369.388 293.479 369.428 293.58 369.428 293.58Z" fill="#263238"/>
<path d="M345.978 159.443C345.978 159.443 345.553 159.869 344.641 160.598C343.669 161.327 342.211 162.299 340.206 163.21C338.141 164.061 335.528 164.85 332.369 165.397C329.271 165.883 325.686 166.248 321.677 166.43C317.728 166.612 313.353 166.551 308.675 166.612C304.058 166.734 299.016 167.038 293.973 168.435C288.991 169.771 283.827 172.262 280.182 176.576C278.359 178.702 277.023 181.315 276.294 184.17C275.626 186.965 275.565 190.002 276.476 192.858C276.901 194.255 277.63 195.531 278.481 196.746C279.392 197.9 280.547 198.811 281.762 199.48C283.037 200.148 284.435 200.513 285.832 200.33C287.229 200.209 288.505 199.541 289.417 198.508C291.239 196.442 291.543 193.465 291.178 190.853C290.996 189.516 290.632 188.18 290.024 187.025C289.477 185.871 288.688 184.777 287.898 183.745C284.556 179.735 279.878 177.426 275.443 176.394C270.887 175.3 266.452 175.543 262.685 176.515C258.858 177.487 255.577 179.067 252.904 180.707C250.231 182.347 248.104 184.048 246.464 185.507C244.763 186.965 243.609 188.24 242.758 189.091C242.394 189.496 242.09 189.82 241.847 190.063C241.644 190.266 241.543 190.367 241.543 190.367C241.543 190.367 243.001 188.362 246.282 185.324C247.922 183.866 250.048 182.104 252.722 180.403C255.395 178.702 258.675 177.123 262.564 176.09C266.391 175.057 270.948 174.814 275.565 175.907C280.121 176.94 284.86 179.249 288.323 183.38C289.174 184.413 289.963 185.507 290.571 186.782C291.178 187.997 291.604 189.334 291.786 190.731C291.968 192.129 292.029 193.587 291.725 194.984C291.421 196.381 290.875 197.779 289.842 198.933C288.87 200.027 287.412 200.816 285.893 200.938C284.374 201.12 282.855 200.756 281.458 200.027C280.121 199.358 278.967 198.325 277.995 197.11C277.084 195.895 276.355 194.498 275.869 193.04C274.957 190.063 274.957 186.904 275.686 183.988C276.415 181.072 277.813 178.398 279.696 176.151C283.463 171.716 288.748 169.225 293.852 167.827C298.955 166.43 303.997 166.187 308.675 166.065C313.353 166.005 317.728 166.126 321.677 166.005C325.625 165.822 329.21 165.519 332.308 165.033C335.407 164.547 338.019 163.818 340.085 162.967C342.15 162.116 343.608 161.205 344.52 160.476C345.006 160.172 345.37 159.869 345.613 159.686C345.856 159.524 345.978 159.443 345.978 159.443Z" fill="#FAFAFA"/>
<path d="M386.135 209.992C386.135 210.033 385.973 210.073 385.649 210.114C385.285 210.114 384.799 210.175 384.13 210.175C382.855 210.235 380.971 210.235 378.602 210.053C376.293 209.871 373.559 209.567 370.522 209.142C367.484 208.717 364.143 208.231 360.619 208.048C357.156 207.866 353.754 208.17 350.777 208.777C347.861 209.446 345.248 210.478 343.304 211.633C339.295 214.002 337.897 216.675 337.776 216.554C337.735 216.554 337.816 216.412 338.019 216.128C338.201 215.825 338.444 215.399 338.869 214.913C339.72 213.881 341.056 212.544 343.061 211.268C345.005 209.992 347.679 208.96 350.655 208.231C353.693 207.562 357.095 207.259 360.68 207.441C364.203 207.623 367.545 208.109 370.583 208.534C373.62 209.02 376.354 209.385 378.663 209.628C380.971 209.871 382.855 209.932 384.13 209.932C385.406 209.932 386.135 209.932 386.135 209.992Z" fill="#FAFAFA"/>
<path d="M356.974 264.482C356.913 264.603 354.483 263.57 349.987 263.874C347.739 263.996 344.945 264.482 341.846 265.332C338.748 266.183 335.285 267.398 331.397 268.613C327.569 269.767 323.134 270.921 318.335 270.861C313.535 270.861 308.371 269.889 303.39 267.762C298.408 265.697 293.669 262.355 289.781 257.859C287.837 255.672 286.196 253.121 284.981 250.326C283.766 247.531 283.159 244.372 283.584 241.213C284.07 238.054 285.528 235.077 287.898 233.072C289.113 232.039 290.449 231.31 291.968 230.946C293.487 230.642 295.066 230.703 296.524 231.128C297.983 231.492 299.319 232.222 300.413 233.254C301.506 234.287 302.296 235.563 302.6 237.021C302.904 238.479 302.782 239.937 302.296 241.274C301.749 242.61 300.959 243.765 299.987 244.797C298.104 246.742 295.735 248.078 293.305 248.989C292.089 249.475 290.874 249.84 289.659 250.022C289.052 250.144 288.444 250.265 287.837 250.326C287.229 250.407 286.622 250.488 286.014 250.569C281.275 251.116 276.719 250.569 272.77 249.658C268.821 248.686 265.358 247.228 262.563 245.709C259.708 244.129 257.46 242.489 255.698 240.97C255.293 240.605 254.909 240.261 254.544 239.937C254.179 239.573 253.835 239.228 253.511 238.904C252.904 238.297 252.397 237.75 251.992 237.264C251.628 236.859 251.344 236.515 251.142 236.231C250.939 235.988 250.858 235.867 250.899 235.867C250.899 235.867 251 235.988 251.203 236.231C251.446 236.474 251.749 236.798 252.114 237.203C252.519 237.649 253.025 238.175 253.633 238.783C253.957 239.107 254.301 239.431 254.665 239.755C255.03 240.079 255.435 240.423 255.881 240.788C257.582 242.246 259.89 243.886 262.685 245.405C265.54 246.924 268.942 248.26 272.891 249.172C276.78 250.083 281.275 250.569 286.014 250.022C286.581 249.982 287.168 249.921 287.776 249.84C288.384 249.718 288.93 249.597 289.538 249.475C290.753 249.293 291.968 248.929 293.122 248.503C295.431 247.592 297.74 246.256 299.562 244.372C300.473 243.4 301.263 242.307 301.689 241.092C302.175 239.876 302.296 238.479 301.992 237.143C301.445 234.469 299.076 232.404 296.342 231.736C295.006 231.31 293.548 231.249 292.15 231.553C290.753 231.857 289.416 232.586 288.323 233.558C286.075 235.441 284.678 238.297 284.192 241.274C283.766 244.311 284.435 247.349 285.528 250.083C286.743 252.817 288.384 255.308 290.267 257.495C294.034 261.869 298.712 265.15 303.633 267.215C308.493 269.342 313.596 270.314 318.335 270.314C323.074 270.375 327.448 269.342 331.275 268.127C335.164 266.972 338.626 265.818 341.786 264.968C344.884 264.178 347.679 263.692 349.987 263.631C351.081 263.509 352.114 263.631 352.964 263.692C353.876 263.813 354.605 263.874 355.151 263.995C355.718 264.157 356.164 264.279 356.488 264.36C356.812 264.401 356.974 264.441 356.974 264.482Z" fill="#FAFAFA"/>
<path d="M250.169 251.481C250.048 251.542 249.501 250.206 248.347 248.262C247.192 246.257 245.309 243.705 242.697 241.275C240.145 238.906 237.411 237.204 235.345 236.172C233.28 235.139 231.943 234.653 232.004 234.531C232.004 234.531 232.368 234.592 232.976 234.774C233.584 234.957 234.495 235.26 235.588 235.746C237.715 236.718 240.509 238.359 243.122 240.789C245.795 243.28 247.618 245.953 248.711 248.018C249.258 249.051 249.683 249.902 249.865 250.509C250.108 251.178 250.23 251.481 250.169 251.481Z" fill="#FAFAFA"/>
<path d="M203.022 303.485C203.022 303.525 202.962 303.424 202.84 303.181C202.719 302.978 202.557 302.674 202.354 302.269C201.929 301.48 201.261 300.265 200.471 298.746C198.952 295.587 196.704 291.03 194.942 285.016C194.092 282.039 193.363 278.636 193.18 274.991C193.059 273.108 193.18 271.225 193.423 269.28C193.707 267.296 194.193 265.331 194.882 263.387C196.279 259.499 198.527 255.55 201.99 252.573C205.392 249.596 210.07 247.531 214.93 248.017C217.36 248.26 219.79 249.232 221.37 251.115C222.889 252.938 223.679 255.429 223.132 257.798C222.889 258.892 222.281 259.985 221.431 260.775C220.58 261.565 219.547 262.112 218.454 262.415C216.267 263.023 213.958 262.598 212.135 261.626C210.252 260.653 208.733 259.195 207.458 257.677C206.242 256.097 205.27 254.457 204.541 252.756C203.144 249.293 202.658 245.769 202.962 242.671C203.205 239.511 204.177 236.777 205.331 234.59C206.546 232.403 207.883 230.702 209.159 229.487C210.434 228.272 211.528 227.421 212.257 226.935C212.682 226.692 212.986 226.51 213.168 226.389C213.371 226.267 213.472 226.227 213.472 226.267C213.533 226.267 213.108 226.51 212.378 227.057C211.589 227.543 210.556 228.393 209.341 229.669C208.126 230.884 206.789 232.585 205.635 234.712C204.541 236.899 203.63 239.633 203.387 242.671C203.144 245.769 203.63 249.171 205.027 252.513C205.756 254.214 206.728 255.793 207.883 257.312C209.098 258.831 210.617 260.167 212.378 261.079C214.14 262.051 216.267 262.355 218.332 261.808C220.276 261.322 222.099 259.742 222.524 257.616C223.01 255.55 222.342 253.242 220.884 251.54C219.426 249.839 217.178 248.867 214.869 248.624C210.252 248.199 205.696 250.143 202.415 253.059C199.013 255.915 196.826 259.742 195.428 263.57C194.74 265.514 194.254 267.438 193.97 269.341C193.727 271.225 193.606 273.108 193.727 274.93C193.849 278.576 194.578 281.917 195.368 284.894C197.069 290.909 199.256 295.465 200.714 298.624C201.443 300.163 202.03 301.358 202.476 302.209C202.638 302.614 202.78 302.938 202.901 303.181C202.982 303.383 203.022 303.485 203.022 303.485Z" fill="#FAFAFA"/>
<path d="M188.016 196.258C188.056 196.258 188.097 196.42 188.137 196.744C188.198 197.108 188.259 197.594 188.32 198.202C188.441 199.478 188.502 201.361 188.32 203.67C187.955 208.226 186.315 214.666 182.305 220.498C178.295 226.391 172.888 230.219 168.696 232.163C166.631 233.135 164.869 233.743 163.654 234.107C163.046 234.289 162.499 234.411 162.196 234.472C161.872 234.553 161.71 234.573 161.71 234.532C161.649 234.472 162.378 234.289 163.532 233.864C164.747 233.439 166.509 232.771 168.514 231.738C172.584 229.733 177.809 225.905 181.819 220.134C185.768 214.423 187.408 208.165 187.894 203.609C188.077 201.361 188.137 199.539 188.077 198.263C188.016 196.987 187.955 196.258 188.016 196.258Z" fill="#FAFAFA"/>
<path d="M396.765 248.928C396.887 249.05 394.457 250.022 392.087 253.181C390.872 254.76 389.657 256.826 388.26 259.013C386.923 261.261 385.162 263.691 383.096 265.878C378.904 270.435 374.226 273.533 370.642 275.295C368.88 276.206 367.361 276.753 366.267 277.118C365.235 277.482 364.627 277.664 364.627 277.604C364.627 277.543 365.174 277.3 366.207 276.875C367.239 276.449 368.697 275.842 370.459 274.87C373.922 273.047 378.539 269.949 382.61 265.453C384.676 263.266 386.377 260.957 387.774 258.709C389.171 256.522 390.447 254.517 391.723 252.938C392.999 251.358 394.275 250.325 395.247 249.718C395.692 249.394 396.057 249.191 396.34 249.11C396.624 248.948 396.765 248.888 396.765 248.928Z" fill="#FAFAFA"/>
<path d="M331.094 156.648C331.094 156.688 330.911 156.729 330.547 156.769C330.101 156.85 329.575 156.952 328.967 157.073C327.509 157.316 325.504 157.62 322.953 157.984C317.91 158.653 310.924 159.443 303.147 159.989C299.259 160.293 295.553 160.536 292.212 160.415C288.809 160.293 285.772 159.746 283.342 158.896C280.911 158.045 279.089 157.012 277.935 156.162C277.327 155.737 276.902 155.372 276.659 155.129C276.375 154.846 276.233 154.704 276.233 154.704C276.294 154.643 276.902 155.19 278.056 155.98C279.21 156.709 281.033 157.741 283.463 158.471C285.893 159.2 288.87 159.746 292.212 159.807C295.553 159.929 299.259 159.686 303.147 159.382C310.863 158.835 317.849 158.106 322.892 157.498C325.383 157.255 327.388 157.012 328.907 156.83C330.304 156.648 331.094 156.587 331.094 156.648Z" fill="#263238"/>
<path d="M414.326 299.302C418.214 319.29 402.965 337.88 382.612 338.123L290.571 337.09L293.001 307.261L371.92 295.535" fill="#B78876"/>
<path d="M298.711 308.659C298.286 308.781 292.94 306.412 288.201 304.224C283.158 301.855 277.569 300.762 272.04 301.065L250.109 302.159C250.109 302.159 251.445 305.804 253.754 307.08C256.062 308.356 269.732 308.659 269.732 308.659L269.003 309.389C266.147 312.305 262.259 314.067 258.128 314.127L256.002 314.188C254.463 314.067 252.944 313.763 251.445 313.277L246.038 311.09C244.398 310.361 242.636 310.482 241.968 312.122C241.299 313.641 241.785 315.707 246.22 317.955C248.711 319.231 258.006 322.39 258.006 322.39C258.006 322.39 258.128 324.941 258.553 326.339C258.918 327.675 262.563 329.012 262.563 329.012C262.563 329.012 264.872 333.751 265.783 334.783C266.208 335.269 269.55 336.302 273.013 337.274C278.723 338.854 284.677 338.854 290.327 337.153L298.711 334.662V309.206" fill="#B78876"/>
<path d="M268.7 325.305C268.639 325.426 266.088 325.305 262.989 324.454C259.891 323.665 257.521 322.51 257.582 322.389C257.643 322.207 260.073 323.118 263.111 323.908C266.148 324.758 268.7 325.123 268.7 325.305Z" fill="#AA6550"/>
<path d="M267.91 330.403C267.91 330.586 266.513 330.646 264.811 330.16C263.171 329.735 261.956 328.945 262.017 328.824C262.138 328.702 263.353 329.249 264.933 329.674C266.573 330.1 267.91 330.282 267.91 330.403Z" fill="#AA6550"/>
<path d="M271.917 306.649C271.977 306.709 271.309 307.438 270.216 308.471C269.122 309.504 267.482 310.901 265.416 312.116C263.411 313.271 261.346 313.939 259.827 314.243C258.308 314.547 257.397 314.607 257.336 314.547C257.336 314.304 261.163 313.939 265.173 311.63C267.117 310.476 268.758 309.14 269.973 308.168C271.127 307.195 271.856 306.588 271.917 306.649Z" fill="#AA6550"/>
<path d="M300.9 304.641L298.713 338.298L385.408 338.359C391.24 338.359 397.072 336.78 402.115 333.742C413.78 326.694 419.855 313.086 417.182 299.659C416.331 294.191 414.205 287.812 411.592 280.947L368.032 288.177L369.43 293.584L300.9 304.641Z" fill="#E8505B"/>
<path d="M389.475 290.786C389.475 290.786 389.191 290.847 388.624 290.968C387.976 291.09 387.126 291.231 386.073 291.393C383.825 291.819 380.666 292.305 376.777 292.973C368.819 294.249 357.944 295.95 345.976 297.894C333.946 299.717 323.072 301.357 315.113 302.572C311.225 303.18 308.005 303.605 305.757 303.969C304.704 304.091 303.853 304.192 303.205 304.273C302.598 304.354 302.294 304.395 302.294 304.395C302.294 304.354 302.598 304.273 303.205 304.152C303.813 304.03 304.643 303.888 305.696 303.726C308.005 303.301 311.164 302.815 315.052 302.147C322.95 300.871 333.825 299.17 345.854 297.226C357.883 295.403 368.758 293.763 376.717 292.548C380.605 291.94 383.764 291.515 386.073 291.15C387.126 291.029 387.976 290.928 388.624 290.847C389.191 290.766 389.475 290.745 389.475 290.786Z" fill="#263238"/>
<path d="M345.124 338.358C345.003 338.358 345.671 335.928 345.732 331.979C345.732 331.007 345.732 329.913 345.61 328.759C345.55 327.544 345.307 326.329 345.063 325.053C344.517 322.501 343.605 319.767 342.269 317.094C340.872 314.36 339.231 312.052 337.53 310.047C337.085 309.561 336.659 309.075 336.254 308.589C335.829 308.163 335.404 307.738 334.978 307.313C334.128 306.462 333.277 305.794 332.548 305.186C329.45 302.696 327.263 301.541 327.324 301.42C327.324 301.359 327.87 301.663 328.842 302.21C329.328 302.453 329.936 302.817 330.604 303.242C331.272 303.728 332.062 304.154 332.791 304.822C333.581 305.429 334.492 306.098 335.343 306.948C335.768 307.374 336.194 307.738 336.619 308.224C337.064 308.67 337.51 309.135 337.955 309.621C339.717 311.626 341.418 314.056 342.816 316.79C344.213 319.524 345.124 322.319 345.671 324.931C345.853 326.268 346.096 327.483 346.157 328.698C346.279 329.852 346.218 331.007 346.157 331.979C346.218 333.011 346.036 333.862 345.914 334.652C345.853 335.502 345.732 336.171 345.61 336.717C345.307 337.811 345.185 338.358 345.124 338.358Z" fill="#FAFAFA"/>
<path d="M397.921 335.809C397.921 335.809 396.463 335.87 393.911 335.384C392.636 335.019 391.056 334.594 389.416 333.744C387.715 332.954 385.953 331.739 384.312 329.977C382.733 328.276 381.335 326.028 380.606 323.294C380.242 321.957 379.999 320.56 379.938 319.041C379.877 317.583 379.999 316.064 380.303 314.545C380.667 313.027 381.214 311.447 382.125 310.05C382.976 308.652 384.252 307.437 385.77 306.587C387.228 305.736 389.051 305.311 390.813 305.432C392.635 305.554 394.397 306.465 395.612 307.923C396.767 309.321 397.435 311.204 397.192 313.027C396.949 314.849 395.673 316.368 394.215 317.279C391.177 319.102 387.654 319.102 384.616 318.616C378.419 317.583 373.559 313.877 371.068 309.928C368.456 305.979 367.787 302.03 367.727 299.479C367.666 296.806 368.091 295.408 368.091 295.408C368.152 295.408 367.848 296.866 367.97 299.418C368.152 301.97 368.82 305.797 371.433 309.685C373.924 313.513 378.662 317.036 384.738 318.008C387.654 318.494 391.056 318.434 393.851 316.733C395.248 315.943 396.341 314.545 396.584 312.905C396.767 311.326 396.22 309.624 395.126 308.288C394.033 306.951 392.453 306.162 390.752 306.04C389.112 305.919 387.471 306.344 386.074 307.134C383.158 308.713 381.518 311.751 380.91 314.667C380.546 316.125 380.424 317.583 380.485 319.041C380.546 320.499 380.789 321.897 381.092 323.172C381.761 325.785 383.097 327.972 384.677 329.673C386.196 331.374 387.957 332.589 389.537 333.44C391.177 334.29 392.696 334.776 393.972 335.141C396.463 335.748 397.921 335.748 397.921 335.809Z" fill="#FAFAFA"/>
<path d="M87.3064 42.889L82.3826 43.394L82.9027 48.465L96.1567 47.1056L94.7973 33.8516L89.7261 34.3718L90.1669 38.6693C82.9489 33.6945 74.3714 31 65.5001 31L63.6875 32.8126L65.5001 36.0977C73.3445 36.0977 80.9285 38.4839 87.3064 42.889Z" fill="#12B0FF"/>
<path d="M22 74.5002C22 83.1989 24.5597 91.5953 29.4023 98.7813L33.6297 95.9326C29.3563 89.5914 27.0977 82.1802 27.0977 74.5002C27.0977 64.2425 31.0922 54.5989 38.3455 47.3455C45.5989 40.0922 55.2425 36.0977 65.5002 36.0977V31C53.8809 31 42.9571 35.5249 34.741 43.741C26.5249 51.9571 22 62.8809 22 74.5002Z" fill="#36CFF5"/>
<path d="M101.598 50.2188L97.3706 53.0675C101.644 59.4087 103.903 66.8199 103.903 74.4998C103.903 84.7576 99.908 94.4012 92.6547 101.655C85.4016 108.908 75.758 112.902 65.5001 112.902L63.6875 115.451L65.5001 118C77.1194 118 88.0432 113.475 96.2595 105.259C104.476 97.043 109 86.1192 109 74.4998C109 65.8012 106.441 57.4048 101.598 50.2188Z" fill="#12B0FF"/>
<path d="M43.694 106.111L48.6179 105.606L48.0977 100.535L34.8438 101.895L36.2031 115.149L41.2743 114.628L40.8335 110.331C48.0515 115.306 56.629 118 65.5002 118V112.902C57.6559 112.902 50.0721 110.516 43.694 106.111Z" fill="#36CFF5"/>
<path d="M49.9874 79.8487V83.7735H36.3628V80.6736L42.9126 74.5488C44.3126 73.2489 44.5126 72.4489 44.5126 71.7238C44.5126 70.5989 43.7626 69.9238 42.2627 69.9238C40.9878 69.9238 39.8377 70.4988 39.1378 71.6237L35.4629 69.5738C36.7878 67.3738 39.2627 65.9238 42.7126 65.9238C46.7376 65.9238 49.5124 67.9988 49.5124 71.2487C49.5124 72.9486 49.0375 74.4986 46.5374 76.7985L43.2375 79.8485H49.9874V79.8487Z" fill="#FC7100"/>
<path d="M76.8376 62.7246H81.0624L72.8128 86.2739H68.5879L76.8376 62.7246Z" fill="#FD4B00"/>
<path d="M95.5376 66.2734V69.3733L89.3629 83.7729H83.963L89.8629 70.1983H85.263V72.8982H81.0381V66.2734H95.5376Z" fill="#FD4B00"/>
<path d="M65.7128 76.5L63.6875 78.1251L65.7128 80.4249H68.3126V76.5H65.7128Z" fill="#FD4B00"/>
<path d="M61.0385 73.5253V76.5001H57.4886L64.6133 66.2754H59.4884L51.6387 77.2001V80.425H60.8884V83.7749H65.7134V73.5253H61.0385Z" fill="#FC7100"/>
</svg>
