<svg width="410" height="370" viewBox="0 0 410 370" fill="none" xmlns="http://www.w3.org/2000/svg">
<path d="M31.9382 0V320.37L71.1382 314.79L193.228 297.41L360.938 273.54L361.368 150.68C345.509 154.979 328.694 154.124 313.353 148.238C298.012 142.352 284.94 131.74 276.026 117.936C267.113 104.132 262.82 87.8517 263.767 71.4475C264.715 55.0434 270.854 39.3656 281.298 26.6802L31.9382 0Z" fill="#D8F6F8"/>
<path d="M28.8984 308.03C48.7784 320.62 50.4885 300.02 50.4885 300.02C50.4885 300.02 54.9685 281.33 59.7985 257.89C93.7285 266.57 148.849 271.3 148.849 271.3C148.849 271.3 205.269 252.95 210.489 249.65C241.079 230.36 203.805 218.49 212.375 192.48C219.555 170.67 209.088 117.29 199.208 93.9403C189.328 70.5903 181.114 65.7533 135.288 47.0643C79.4504 24.2933 43.8485 52.9162 51.0485 96.9962C51.9685 102.666 53.2485 107.552 53.4185 111.896C54.4065 136.563 32.0885 130.276 30.4585 153.196C28.9685 174.006 -2.3316 193.527 0.139404 241.177C0.816404 254.24 8.72845 260.71 3.78845 282.24C1.79845 290.92 15.4284 312.1 28.8984 308.03Z" fill="url(#paint0_linear_2863_19590)"/>
<path d="M50.374 133.595C56.455 142.82 92.468 127.201 92.468 127.201L142.374 71.3929L132.504 33.4139C132.504 33.4139 127.404 39.7138 116.698 36.9708C112.798 35.9708 108.038 32.7809 102.398 29.7809L102.388 29.7708C90.8479 23.6308 75.638 18.301 56.608 34.181C46.898 42.291 43.408 53.5409 43.038 65.1209C42.578 79.2909 46.7679 93.941 49.8779 103.911C55.5279 122.031 46.324 127.451 50.374 133.595Z" fill="url(#paint1_linear_2863_19590)"/>
<path opacity="0.5" d="M142.374 61.359C142.374 61.359 140.83 26.064 132.504 33.413C118.027 52.413 127.964 63.826 80.479 80.113C50.256 90.478 68.609 136.513 65.808 151.542C60.855 178.116 -1.84002 205.802 17.308 255.675C18.708 259.331 113.079 212.593 113.079 212.593L138.617 217.655L142.374 61.359Z" fill="#161616"/>
<path opacity="0.5" d="M183.197 236.006C183.197 236.006 195.852 218.995 187.433 199.535C181.197 185.123 186.343 162.594 184.962 145.435C181.903 107.421 170.021 105.744 170.021 105.744L144.609 161.186C144.609 161.186 128.509 174.602 129.149 192.481C129.789 210.36 167.668 255.535 183.197 236.006Z" fill="#161616"/>
<path d="M129.13 171.242L129.89 211.596C129.89 211.596 94.5956 187.596 84.0066 194.89C93.1836 173.714 96.8436 151.169 99.6676 138.934C106.727 147.172 123.483 171.48 129.13 171.242Z" fill="#FA997B"/>
<path d="M129.318 181.223C129.318 181.223 104.386 168.289 97.3513 149.723C110.521 160.096 129.13 173.278 129.13 173.278L129.318 181.223Z" fill="#EF5D23"/>
<path d="M70.9082 311.23C71.0182 312.41 71.0882 313.59 71.1382 314.79L179.782 303.476C174.322 284.706 173.8 263.011 161.5 236.835C155.421 223.896 145.492 198.453 134.08 195.564C127.107 193.8 125.349 201.609 114.068 200.364C102.492 199.082 89.7942 178.564 84.3242 181.517C58.5642 195.433 65.5282 252.56 70.9082 311.23Z" fill="url(#paint2_linear_2863_19590)"/>
<path d="M146.791 63.9883C146.791 63.9883 156.281 84.5175 163.253 87.6165C170.225 90.7155 181.653 102.528 179.521 123.057C177.389 143.586 165.588 173.068 142.437 175.268C119.197 177.476 101.037 158.295 87.8682 135.829C77.4102 116.075 92.1773 91.1022 105.152 86.6472C116.242 82.8422 144.467 74.8343 146.791 63.9883Z" fill="#FA997B"/>
<path d="M167.824 97.4171C167.824 97.4171 162.001 90.5021 156.081 97.4171" stroke="#1A1A1A" stroke-width="1.918" stroke-linecap="round" stroke-linejoin="round"/>
<path d="M18.3383 325.01C19.3619 333.443 21.8441 341.635 25.6742 349.218C25.6842 349.248 57.5642 366.444 64.1842 365.134C66.5542 364.674 69.0843 367.39 70.8583 360.74C71.4783 358.43 72.0682 355.89 72.6382 353.16C73.0582 351.12 73.4683 348.97 73.8483 346.73C74.7283 341.58 75.4782 335.97 76.0282 330.15C77.2382 317.26 77.4483 303.32 75.8283 290.92C75.7383 290.24 75.6382 289.56 75.5282 288.89C75.3282 287.59 75.0983 286.31 74.8383 285.06C74.0883 281.41 73.1482 277.95 72.2582 274.67C64.7282 247.01 107.358 199.6 92.2183 185.08C91.0545 183.932 89.7389 182.95 88.3082 182.16C83.8582 179.78 79.3582 180.63 73.4482 183.83C68.2482 186.64 61.9582 191.28 53.6682 197.12C27.7882 215.38 26.4283 223.37 20.0983 240.49C15.0513 254.16 16.1383 292.23 18.3383 325.01Z" fill="url(#paint3_linear_2863_19590)"/>
<path style="mix-blend-mode:overlay" opacity="0.5" d="M59.7882 244.46C67.9082 237.3 70.7283 251.95 64.7283 260.42C58.7283 268.89 73.9082 293.06 73.9082 293.06L75.5282 288.89C75.3282 287.59 75.0983 286.31 74.8383 285.06C74.0883 281.41 73.1482 277.95 72.2582 274.67C64.7282 247.01 107.358 199.6 92.2183 185.08C91.0545 183.932 89.7389 182.95 88.3082 182.16C83.8582 179.78 79.3582 180.63 73.4482 183.83C73.4482 183.83 93.0883 186.65 86.8483 199.01C80.6083 211.37 68.4282 218.59 58.5482 227.42C48.6682 236.25 51.6682 251.61 59.7882 244.46Z" fill="url(#paint4_linear_2863_19590)"/>
<path d="M229.481 208.585L251.77 226.415C251.77 226.415 253.705 225.578 256.361 224.165C262.297 221.002 271.83 214.987 271.251 209.144C270.407 200.697 272.178 196.215 269.605 190.588C267.675 186.341 270.048 184.576 273.591 181.237C276.67 178.33 287.266 171.994 287.073 166.669C287.046 165.816 286.738 164.996 286.196 164.337C283.096 160.389 272.87 167.646 265.345 175.755C257.82 183.864 248.083 187.563 245.883 188.022C243.683 188.481 237.239 192.039 233.383 196.167C231.864 197.825 230.727 199.797 230.053 201.942C229.379 204.088 229.183 206.355 229.481 208.585Z" fill="#FA997B"/>
<path opacity="0.06" d="M251.151 227.223C264.651 219.635 271.826 214.988 271.251 209.145C270.407 200.698 272.178 196.216 269.605 190.589C267.675 186.342 270.048 184.577 273.591 181.238C276.67 178.331 287.266 171.995 287.073 166.67C286.016 171.536 275.729 178.018 271.918 180.791C267.767 183.812 266.202 187.564 267.661 191.183C269.12 194.802 269.502 201.635 268.731 207.545C267.96 213.455 252.684 223.312 252.684 223.312C252.551 223.843 251.18 226.775 251.151 227.223Z" fill="black"/>
<path d="M338.653 141.63C303.046 141.63 274.18 112.764 274.18 77.1566C274.18 41.5491 303.046 12.6836 338.653 12.6836C374.26 12.6836 403.126 41.5491 403.126 77.1566C403.126 112.764 374.26 141.63 338.653 141.63Z" fill="#D8F6F8"/>
<path d="M343.651 139.964C308.044 139.964 279.178 111.098 279.178 75.4906C279.178 39.8831 308.044 11.0176 343.651 11.0176C379.258 11.0176 408.124 39.8831 408.124 75.4906C408.124 111.098 379.258 139.964 343.651 139.964Z" stroke="#00B4BE" stroke-width="2.95" stroke-miterlimit="10"/>
<path d="M155.042 113.848C155.042 113.848 154.019 106.241 158.875 103.582C163.731 100.923 170.063 102.433 168.356 107.156L155.042 113.848Z" fill="#1A1A1A"/>
<path d="M155.302 114.777C156.237 117.585 165.707 117.677 168.11 112.205C170.513 106.733 165.626 102.005 161.096 103.387C159.948 103.724 158.88 104.292 157.959 105.056C157.038 105.82 156.283 106.764 155.74 107.831C155.198 108.898 154.879 110.064 154.804 111.259C154.728 112.453 154.898 113.651 155.302 114.777Z" fill="white"/>
<path d="M160.126 110.514C160.076 110.288 160.039 110.059 160.015 109.828C159.791 108.916 159.887 107.955 160.287 107.105C160.448 106.704 160.667 106.328 160.937 105.99C162.308 104.304 164.337 104.462 166.046 105.467C166.536 105.775 166.951 106.191 167.259 106.682C167.566 107.173 167.759 107.727 167.822 108.303C167.976 108.742 168.06 109.202 168.07 109.667C168.13 110.625 167.816 111.568 167.194 112.299C166.572 113.03 165.691 113.49 164.736 113.583C163.729 113.695 162.715 113.449 161.872 112.887C161.029 112.326 160.411 111.486 160.126 110.514Z" fill="#1A1A1A"/>
<path d="M131.626 113.848C131.626 113.848 132.649 106.241 127.793 103.582C122.937 100.923 116.605 102.433 118.312 107.156L131.626 113.848Z" fill="#1A1A1A"/>
<path d="M131.366 114.777C130.431 117.585 120.961 117.677 118.558 112.205C116.155 106.733 121.042 102.005 125.572 103.387C126.72 103.724 127.788 104.292 128.709 105.056C129.63 105.82 130.385 106.765 130.928 107.831C131.47 108.898 131.789 110.065 131.864 111.259C131.94 112.454 131.77 113.651 131.366 114.777Z" fill="white"/>
<path d="M123.152 111.808C123.07 111.591 123 111.37 122.943 111.146C122.587 110.277 122.541 109.311 122.814 108.413C122.915 107.992 123.076 107.587 123.294 107.213C124.403 105.345 126.439 105.203 128.271 105.949C128.801 106.182 129.272 106.532 129.648 106.973C130.024 107.414 130.296 107.934 130.443 108.495C130.659 108.906 130.809 109.349 130.888 109.808C131.087 110.746 130.915 111.726 130.406 112.539C129.898 113.353 129.093 113.937 128.162 114.169C127.182 114.426 126.143 114.331 125.227 113.9C124.311 113.468 123.576 112.727 123.152 111.808Z" fill="#1A1A1A"/>
<path d="M165.551 107.525C165.551 107.744 165.638 107.953 165.793 108.108C165.947 108.262 166.157 108.349 166.375 108.349C166.594 108.349 166.803 108.262 166.958 108.108C167.112 107.953 167.199 107.744 167.199 107.525C167.19 107.277 167.097 107.039 166.934 106.851C166.772 106.663 166.55 106.537 166.305 106.492C165.851 106.492 165.551 107.07 165.551 107.525Z" fill="white"/>
<path d="M128.204 108.453C128.204 108.671 128.29 108.881 128.445 109.035C128.599 109.19 128.809 109.276 129.027 109.276C129.246 109.276 129.455 109.19 129.609 109.035C129.764 108.881 129.851 108.671 129.851 108.453C129.842 108.205 129.748 107.967 129.586 107.779C129.423 107.591 129.201 107.464 128.957 107.42C128.502 107.42 128.204 107.998 128.204 108.453Z" fill="white"/>
<path style="mix-blend-mode:overlay" d="M43.0385 65.1209C44.9585 57.7109 49.0485 46.9109 57.4885 39.0509C71.6085 25.9209 102.398 29.7809 102.398 29.7809L102.388 29.7708C90.8484 23.6308 75.6385 18.301 56.6085 34.181C46.8985 42.291 43.4085 53.5429 43.0385 65.1209Z" fill="url(#paint5_linear_2863_19590)"/>
<path d="M131.451 97.3175C131.451 97.3175 125.628 90.4025 119.708 97.3175" stroke="#1A1A1A" stroke-width="1.918" stroke-linecap="round" stroke-linejoin="round"/>
<path d="M148.142 116.664C148.142 116.664 147.548 121.171 148.455 122.774C149.362 124.377 152.13 125.674 151.012 129.004C149.697 132.918 145.987 131.242 145.987 131.242" stroke="#D26665" stroke-linecap="round" stroke-linejoin="round"/>
<path d="M133.451 148.101C133.451 148.101 147.021 150.211 156.121 147.941C156.121 147.941 153.271 144.501 151.721 143.051L151.711 143.041C151.521 142.871 151.361 142.731 151.221 142.621C150.665 142.272 149.995 142.152 149.353 142.289C148.711 142.425 148.147 142.806 147.781 143.351C147.331 144.101 144.611 144.511 143.621 142.761C142.631 141.011 139.881 142.131 139.171 143.641C138.381 144.698 137.393 145.591 136.261 146.271C134.838 147.281 133.451 148.101 133.451 148.101Z" fill="#D26665"/>
<path d="M133.451 148.101C134.581 148.691 136.561 151.191 138.821 153.021C138.867 153.051 138.91 153.085 138.951 153.121C139.079 153.228 139.212 153.329 139.351 153.421C140.259 154.161 141.322 154.688 142.461 154.961C146.081 155.641 151.441 154.221 152.521 152.331C153.562 150.745 154.769 149.273 156.121 147.941C155.356 148.121 154.581 148.257 153.801 148.351C147.498 149.421 138.551 148.661 133.451 148.101Z" fill="#D26665"/>
<path d="M155.344 148.115C155.344 148.115 153.706 148.299 151.686 148.499C149.475 148.718 146.806 148.956 145.33 148.993C142.506 149.064 136.683 148.113 134.587 148.115" stroke="#BC5B5B" stroke-width="0.733" stroke-miterlimit="10"/>
<path d="M23.2648 344.199C26.9358 355.879 39.4258 363.536 54.4048 366.758C54.8908 366.858 55.3778 366.958 55.8638 367.058C56.4358 367.182 57.0178 367.287 57.6088 367.392H57.6277C69.4507 369.48 81.1688 369.442 87.8718 367.907C110.24 362.796 164.091 323.628 185.763 310.26C207.435 296.892 226.905 278.51 231.091 262.044C233.236 253.596 234.972 248.444 237.174 244.595C237.346 244.3 237.517 244.014 237.689 243.737H237.698C238.224 242.879 238.807 242.057 239.443 241.277C241.256 239.117 243.295 237.158 245.526 235.433C247.919 233.616 250.127 231.565 252.115 229.311C254.537 226.318 255.261 223.343 252.325 220.301C250.992 219.215 249.601 218.203 248.158 217.269C247.481 216.888 246.804 216.507 246.146 216.125C241.236 213.284 233.799 213.35 233.799 213.35C231.456 213.029 229.072 213.185 226.791 213.808C226.171 213.98 225.551 214.18 224.922 214.418C221.083 216.005 217.582 218.309 214.606 221.207H214.577L214.567 221.217C213.667 221.407 212.832 221.55 212.041 221.655C205.605 222.466 201.734 220.555 193.992 218.47C185.277 216.106 168.468 212.559 148.064 237.111C127.679 261.634 118.764 270.873 109.364 272.711C105.378 273.502 91.2958 279.28 75.6298 288.043C74.2378 288.815 72.8298 289.616 71.4158 290.436C52.2508 301.636 31.8658 316.942 25.2778 332.827C25.1828 333.036 24.9438 333.713 24.6578 334.638L24.6288 334.724C23.8088 337.392 22.5978 342.083 23.2648 344.199Z" fill="url(#paint6_linear_2863_19590)"/>
<path style="mix-blend-mode:overlay" opacity="0.5" d="M23.2649 344.198C26.9359 355.878 39.4259 363.535 54.4049 366.757C54.8909 366.857 55.3779 366.957 55.8639 367.057C56.4359 367.181 57.0179 367.286 57.6089 367.391H57.6278C69.4508 369.479 81.1688 369.441 87.8718 367.906C110.24 362.795 164.091 323.627 185.763 310.259C207.435 296.891 226.905 278.509 231.091 262.043C233.236 253.595 234.972 248.443 237.174 244.594C232.922 240.094 226.724 242.394 226.724 242.394C226.724 242.394 206.063 262.169 196.385 280.256C182.932 305.408 132.637 325.345 109.324 321.979C95.3749 319.968 78.2799 319.739 68.5159 323.886C63.0819 326.194 61.0029 330.056 65.0929 335.815C66.1229 337.274 73.8838 346.445 71.1378 351.775C66.8858 360.013 54.0429 357.734 44.2029 353.775C32.5899 349.113 27.5459 344.212 24.7329 334.458C24.7139 334.506 24.6859 334.572 24.6569 334.639L24.6278 334.725C23.8088 337.391 22.5979 342.082 23.2649 344.198Z" fill="url(#paint7_linear_2863_19590)"/>
<path d="M237.668 243.729H237.677C238.209 242.876 238.792 242.055 239.422 241.273C241.233 239.111 243.274 237.152 245.507 235.43C251.882 230.271 257.216 225.398 252.307 220.298C252.078 220.054 250.588 218.819 250.393 218.689C249.732 218.204 234.921 208.052 234.257 207.666C229.357 204.877 222.098 209.286 214.586 221.2C213.681 221.4 215.079 224.211 215.536 225.668C217.256 229.995 222.321 248.253 237.668 243.729Z" fill="#242F5B"/>
<g style="mix-blend-mode:multiply">
<path d="M185.806 216.91C185.806 216.91 166.996 212.788 147.538 237.74C128.08 262.692 120.771 269.596 109.366 272.706C101.624 274.986 94.1521 278.099 87.0826 281.993C87.0826 281.993 103.345 276.152 109.403 275.647C115.461 275.142 134.303 264.037 150.962 239.135C158.366 228.367 180.19 216.008 185.806 216.91Z" fill="#1B2544"/>
</g>
<path d="M43.4191 75.2188C43.7271 87.2998 52.5271 102.319 43.0381 119.719C33.5491 137.119 22.6092 127.158 25.2872 153.662C26.3582 164.269 11.0451 188.053 3.99811 209.03" stroke="#707070" stroke-width="3" stroke-miterlimit="10"/>
<g style="mix-blend-mode:multiply">
<path d="M144.708 204.401C144.708 204.401 136.653 191.867 129.586 195.475C122.519 199.083 115.756 202.175 106.522 197.285C114.256 205.536 124.401 201.465 128.55 198.712C133.487 195.437 140.63 200.737 144.708 204.401Z" fill="#1B2544"/>
</g>
<g style="mix-blend-mode:multiply">
<path d="M71.9578 260.67C71.9578 260.67 74.3578 246.89 83.3058 228.86C87.0848 220.56 91.3008 210.693 91.3008 210.693C91.3008 210.693 88.5498 222.653 85.1088 229.893C81.6678 237.133 75.2188 249.834 71.9578 261.04" fill="#1B2544"/>
</g>
<path d="M45.2432 312.391C45.2432 312.391 30.2562 321.891 23.1902 344.068C21.5002 330.128 38.3622 314.543 45.2432 312.391Z" fill="#1B2544"/>
<path d="M216.197 216.942C216.197 216.942 210.107 209.449 215.08 194.184C216.569 189.612 222.702 176.698 218.609 157.177C215.55 142.589 209.953 125.241 207.955 118.53C201.668 97.413 200.374 95.7751 195.916 86.7871" stroke="#707070" stroke-width="3" stroke-miterlimit="10"/>
<path style="mix-blend-mode:overlay" d="M63.9572 127.154C63.9572 127.154 73.1972 145.434 64.8442 162.3C59.7882 172.509 31.9381 193.123 19.7061 213.5C22.8441 194.153 52.2562 164.251 56.9622 158.333C61.6682 152.415 64.4772 141.174 63.9572 127.154Z" fill="url(#paint8_linear_2863_19590)"/>
<path style="mix-blend-mode:overlay" d="M132.051 33.9414C130.791 35.9124 126.251 39.9934 128.313 49.0024C129.573 54.5184 134.031 62.2614 141.097 71.3884C123.374 67.4164 117.903 45.5934 132.051 33.9414Z" fill="url(#paint9_linear_2863_19590)"/>
<path d="M139.351 153.419C140.259 154.16 141.322 154.686 142.461 154.959C146.081 155.639 151.441 154.219 152.521 152.329C153.562 150.743 154.769 149.271 156.121 147.939C154.892 148.734 153.798 149.719 152.881 150.859C152.081 152.149 149.731 153.799 146.491 154.359C144.073 154.859 141.557 154.527 139.351 153.419Z" fill="#BC5B5B"/>
<path d="M134.733 147.301C136.495 146.44 138.065 145.232 139.348 143.749C139.572 143.333 139.908 142.987 140.318 142.752C140.728 142.516 141.195 142.399 141.668 142.415C142.289 142.399 143.761 143.67 144.481 144.1C144.985 144.284 145.521 144.364 146.057 144.337C146.593 144.309 147.118 144.174 147.601 143.94C148.197 143.347 148.903 142.876 149.678 142.551C150.032 142.495 150.393 142.51 150.742 142.594C151.09 142.678 151.418 142.83 151.708 143.041C151.518 142.871 151.358 142.731 151.218 142.621C150.662 142.272 149.992 142.152 149.35 142.289C148.708 142.425 148.144 142.806 147.778 143.351C147.328 144.101 144.608 144.511 143.618 142.761C142.628 141.011 139.878 142.131 139.168 143.641C138.828 144.351 134.723 147.301 134.733 147.301Z" fill="#BC5B5B"/>
<path d="M141.797 111.542C141.797 111.542 146.95 106.513 151.979 111.542" stroke="#F1F1F2" stroke-linecap="round" stroke-linejoin="round"/>
<path d="M102.09 111.781H83.1308" stroke="#F1F1F2" stroke-miterlimit="10"/>
<path d="M88.9297 113.108C88.9297 113.108 85.9907 115.007 84.7427 110.37C83.4947 105.733 76.8057 103.143 73.4487 106.605C69.7487 110.421 73.4277 126.952 82.4237 127.15C91.4197 127.348 87.8087 121.985 87.8087 121.985L88.9297 113.108Z" fill="#FA997B"/>
<path d="M81.8368 114.067C83.1888 116.246 83.2698 118.649 82.0108 119.432C80.7518 120.215 78.6308 119.085 77.2708 116.9C75.9268 114.72 75.8498 112.315 77.1048 111.536C78.3598 110.757 80.4848 111.883 81.8368 114.067Z" fill="#EF5D23"/>
<path d="M172.086 130.759C161.122 130.759 152.233 121.87 152.233 110.906C152.233 99.9412 161.122 91.0527 172.086 91.0527C183.051 91.0527 191.939 99.9412 191.939 110.906C191.939 121.87 183.051 130.759 172.086 130.759Z" fill="white" fill-opacity="0.2" stroke="#F1F1F2" stroke-miterlimit="10"/>
<path d="M102.094 110.903C102.088 113.512 102.597 116.096 103.593 118.508C104.588 120.92 106.05 123.111 107.894 124.956C109.738 126.802 111.929 128.264 114.34 129.261C116.751 130.257 119.335 130.768 121.944 130.763C122.594 130.763 123.244 130.733 123.884 130.673C123.899 130.674 123.913 130.671 123.924 130.663C125.426 130.517 126.906 130.199 128.334 129.713C129.272 129.388 130.185 128.993 131.064 128.533C135.016 126.489 138.166 123.178 140.01 119.13C141.854 115.081 142.285 110.531 141.233 106.209C140.181 101.887 137.708 98.0429 134.21 95.2945C130.712 92.5461 126.393 91.0523 121.944 91.0528C119.368 91.046 116.816 91.5489 114.434 92.5328C111.463 93.7429 108.83 95.6581 106.764 98.1129C105.93 99.1063 105.193 100.178 104.564 101.313C103.606 103.042 102.914 104.907 102.514 106.843C102.251 108.076 102.114 109.332 102.104 110.593C102.094 110.693 102.094 110.803 102.094 110.903Z" fill="white" fill-opacity="0.2" stroke="#F1F1F2" stroke-miterlimit="10"/>
<path opacity="0.3" d="M106.979 98.5703L128.059 129.25C128.997 128.925 129.909 128.531 130.789 128.071C132.75 127.06 134.528 125.728 136.049 124.13L114.649 92.9902C111.677 94.2003 109.045 96.1155 106.979 98.5703Z" fill="url(#paint10_linear_2863_19590)"/>
<path opacity="0.3" d="M103.008 107.043L117.848 129.819C119.147 130.098 120.469 130.249 121.796 130.272C122.446 130.272 123.766 130.183 123.776 130.173L105.058 101.514C104.099 103.243 103.408 105.107 103.008 107.043Z" fill="url(#paint11_linear_2863_19590)"/>
<path opacity="0.3" d="M157.886 98.0586L179.122 128.928C180.064 128.591 180.968 128.159 181.822 127.639C183.689 126.492 185.374 125.072 186.822 123.428L165.553 92.4785C162.583 93.6889 159.951 95.6041 157.886 98.0586Z" fill="url(#paint12_linear_2863_19590)"/>
<path opacity="0.3" d="M153.6 105.958L169.215 130.018C170.437 130.215 171.678 130.279 172.915 130.208C173.415 130.208 174.922 130.008 174.932 130.001L155.645 100.77C155.295 101.398 154.982 102.046 154.705 102.709C154.221 103.75 153.85 104.839 153.6 105.958Z" fill="url(#paint13_linear_2863_19590)"/>
<path d="M128.84 50.8583C132.577 61.0413 148.282 84.5832 160.492 87.3732C172.702 90.1632 175.992 103.148 177.779 110.232C179.566 117.316 189.39 121.901 189.39 121.901C187.265 113.286 186.69 108.05 192.103 96.9193C196.49 87.9063 201.427 73.7192 189.754 57.5683C178.081 41.4173 171.007 28.8062 150.074 27.1532C146.18 26.7683 142.252 27.3776 138.658 28.9242C129.477 33.0552 126.043 43.2723 128.84 50.8583Z" fill="url(#paint14_linear_2863_19590)"/>
<path style="mix-blend-mode:overlay" d="M138.658 28.9259C138.658 28.9259 154.984 30.2 165.78 36.733C170.528 39.606 174.724 44.143 178.52 49.452C182.316 54.761 187.679 66.7519 189.087 71.0639C190.495 75.3759 191.596 85.351 187.087 92.536C182.578 99.721 180.28 112.867 189.387 121.903C187.262 113.288 186.687 108.052 192.1 96.921C196.487 87.908 201.424 73.721 189.751 57.57C178.078 41.419 171.004 28.8079 150.071 27.1549C146.178 26.7705 142.252 27.3798 138.658 28.9259Z" fill="url(#paint15_linear_2863_19590)"/>
<g clip-path="url(#clip0_2863_19590)">
<path d="M317.735 56.3832C317.735 59.7544 320.468 62.4876 323.839 62.4876C327.21 62.4876 329.943 59.7544 329.943 56.3832C329.943 53.012 327.21 50.2793 323.839 50.2793C320.468 50.2793 317.735 53.012 317.735 56.3832Z" fill="#448AFF"/>
<path d="M368.093 75.0004C368.093 78.3716 370.826 81.1048 374.197 81.1048C377.568 81.1048 380.302 78.3716 380.302 75.0004C380.302 71.6292 377.568 68.8965 374.197 68.8965C370.826 68.8965 368.093 71.6292 368.093 75.0004Z" fill="#448AFF"/>
<path d="M357.717 87.971V81.0596C357.717 79.0101 356.354 77.2099 354.381 76.6535L345.814 74.2369V69.2012H339.099V74.2369L330.531 76.6535C328.558 77.2099 327.196 79.0095 327.196 81.0596V87.971H357.717Z" fill="#B2EBF2"/>
<path d="M339.099 69.2012H345.813V74.2369C345.104 75.339 343.865 76.068 342.456 76.068C341.047 76.068 339.808 75.339 339.099 74.2369V69.2012Z" fill="#FFC8B8"/>
<path d="M335.694 64.8969C335.626 64.5101 335.589 64.1132 335.589 63.7067V60.3498C335.589 56.5567 338.664 53.4824 342.456 53.4824C345.991 53.4824 348.901 56.1532 349.28 59.5863H339.709L335.694 64.8969Z" fill="#757575"/>
<path d="M339.71 59.5879H349.281C349.309 59.8384 349.324 60.0931 349.324 60.3514V63.7083C349.324 67.5008 346.249 70.5757 342.457 70.5757C339.071 70.5757 336.259 68.1239 335.695 64.8985L339.71 59.5879Z" fill="#FFDED4"/>
<path d="M325.06 100.18C325.06 103.551 327.793 106.284 331.164 106.284C334.535 106.284 337.268 103.551 337.268 100.18C337.268 96.8088 334.535 94.0762 331.164 94.0762C327.793 94.0762 325.06 96.8088 325.06 100.18Z" fill="#448AFF"/>
<path d="M323.839 57.9089C326.4 57.9089 328.592 56.3301 329.498 54.0938C329.784 54.8007 329.943 55.5732 329.943 56.3825C329.943 59.7537 327.21 62.4869 323.839 62.4869C320.468 62.4869 317.735 59.7537 317.735 56.3825C317.735 55.5732 317.894 54.8007 318.18 54.0938C319.086 56.3301 321.278 57.9089 323.839 57.9089Z" fill="#2979FF"/>
<path d="M374.197 76.5261C376.759 76.5261 378.95 74.9473 379.856 72.7109C380.142 73.4179 380.302 74.1903 380.302 74.9997C380.302 78.3709 377.568 81.1041 374.197 81.1041C370.827 81.1041 368.093 78.3709 368.093 74.9997C368.093 74.1903 368.252 73.4179 368.539 72.7109C369.444 74.9473 371.636 76.5261 374.197 76.5261Z" fill="#2979FF"/>
<path d="M331.164 101.706C333.725 101.706 335.917 100.128 336.822 97.8906C337.109 98.5976 337.268 99.37 337.268 100.18C337.268 103.551 334.535 106.284 331.164 106.284C327.793 106.284 325.06 103.551 325.06 100.18C325.06 99.37 325.219 98.5976 325.505 97.8906C326.411 100.128 328.602 101.706 331.164 101.706Z" fill="#2979FF"/>
<path d="M308.717 75.0094C307.076 71.7375 305.784 68.4485 304.887 65.2076C302.075 55.0529 303.437 46.5496 308.722 41.2652C314.006 35.9808 322.509 34.6186 332.664 37.4304C335.905 38.3272 339.194 39.6198 342.466 41.2604C346.536 39.2175 350.613 37.7226 354.54 36.8615C363.663 34.862 371.352 36.4259 376.191 41.2652C379.297 44.371 381.098 48.7348 381.399 53.8853C381.67 58.5187 380.731 63.8359 378.684 69.3131C380.365 70.642 381.446 72.6962 381.446 74.9998C381.446 77.3035 380.365 79.3577 378.684 80.6866C380.731 86.1638 381.67 91.4816 381.399 96.1144C381.098 101.265 379.297 105.629 376.191 108.735C372.723 112.203 367.857 113.992 361.979 113.992C360.799 113.992 359.578 113.92 358.319 113.774C353.279 113.193 347.894 111.476 342.458 108.743C339.189 110.382 335.902 111.673 332.664 112.569C329.208 113.526 325.944 114 322.932 114C317.095 114 312.208 112.221 308.722 108.735C303.882 103.896 302.318 96.2066 304.318 87.0832C305.179 83.1562 306.674 79.0798 308.717 75.0094ZM332.054 39.6364C322.728 37.0543 315.017 38.2076 310.34 42.8838C305.664 47.5601 304.511 55.2713 307.093 64.597C307.816 67.2095 308.809 69.8576 310.045 72.5034C312.258 68.5336 314.981 64.6 318.135 60.8479C317.169 59.6161 316.591 58.0659 316.591 56.3823C316.591 54.7548 317.117 53.217 318.115 51.9352L319.921 53.3402C319.239 54.2168 318.879 55.2689 318.879 56.3823C318.879 59.1174 321.104 61.3419 323.839 61.3419C326.573 61.3419 328.798 59.1174 328.798 56.3823C328.798 53.6473 326.573 51.4228 323.839 51.4228C322.946 51.4228 322.071 51.6621 321.309 52.1155L320.139 50.1482C321.255 49.4846 322.534 49.1335 323.839 49.1335C325.522 49.1335 327.073 49.7125 328.304 50.679C332.057 47.5244 335.99 44.8018 339.96 42.5875C337.314 41.3527 334.666 40.3595 332.054 39.6364ZM374.572 42.8838C368.384 36.6955 357.037 36.9264 344.962 42.5809C350.857 45.8682 356.638 50.2701 361.912 55.5439C365.823 59.4548 369.265 63.6556 372.157 68.0408C372.809 67.8516 373.494 67.751 374.197 67.751C375.063 67.751 375.893 67.9045 376.664 68.1836C380.63 57.375 379.887 48.198 374.572 42.8838ZM361.919 111.694C367.097 111.694 371.499 110.189 374.573 107.116C379.887 101.802 380.63 92.6253 376.664 81.816C375.893 82.0957 375.063 82.2487 374.197 82.2487C373.49 82.2487 372.807 82.1445 372.159 81.9547C369.268 86.3417 365.824 90.5437 361.912 94.4558C356.64 99.7278 350.86 104.128 344.968 107.416C351.02 110.248 356.843 111.695 361.919 111.694ZM342.463 106.17C348.645 102.923 354.75 98.3799 360.294 92.8372C364.018 89.1119 367.304 85.12 370.074 80.9567C368.188 79.6469 366.949 77.4659 366.949 75.0004C366.949 74.7856 366.958 74.5684 366.977 74.3548L369.258 74.5565C369.244 74.7029 369.238 74.8517 369.238 74.9998C369.238 77.7349 371.463 79.9594 374.197 79.9594C376.932 79.9594 379.157 77.7349 379.157 74.9998C379.157 72.2648 376.932 70.0403 374.197 70.0403C372.309 70.0403 370.608 71.0901 369.761 72.7796L367.715 71.7536C368.274 70.6378 369.09 69.7136 370.069 69.0346C367.3 64.8749 364.016 60.8848 360.294 57.1625C354.749 51.618 348.642 47.0739 342.458 43.8265C338.248 46.042 333.99 48.8985 329.864 52.3577C330.637 53.5098 331.088 54.894 331.088 56.3823C331.088 60.379 327.836 63.6306 323.839 63.6306C322.351 63.6306 320.966 63.1795 319.814 62.4071C316.355 66.5329 313.499 70.7919 311.284 75.0004C314.531 81.1847 319.075 87.2921 324.619 92.8372C325.229 93.4466 325.856 94.0524 326.489 94.6457C327.752 93.5769 329.383 92.9306 331.164 92.9306C332.791 92.9306 334.329 93.4579 335.611 94.4546L334.205 96.2613C333.329 95.58 332.277 95.2199 331.164 95.2193C328.429 95.2193 326.204 97.4444 326.204 100.179C326.204 102.914 328.429 105.138 331.164 105.138C333.898 105.138 336.123 102.914 336.123 100.179C336.123 99.2862 335.884 98.4114 335.431 97.6491L337.398 96.4786C338.062 97.5949 338.413 98.8744 338.413 100.179C338.413 101.327 338.143 102.413 337.666 103.379C339.27 104.402 340.872 105.333 342.463 106.17ZM310.34 107.116C315.017 111.793 322.728 112.945 332.054 110.364C334.664 109.641 337.31 108.649 339.954 107.415C338.748 106.741 337.542 106.018 336.339 105.248C335.022 106.592 333.19 107.428 331.164 107.428C327.167 107.428 323.915 104.176 323.915 100.179C323.915 98.7875 324.31 97.4872 324.993 96.3816C324.318 95.7502 323.65 95.1051 323.001 94.4558C317.727 89.1809 313.325 83.3996 310.037 77.5052C304.383 89.5802 304.152 100.927 310.34 107.116Z" fill="black"/>
<path d="M323.686 86.8268H326.051V81.0597C326.051 78.5092 327.766 76.2442 330.22 75.5516L331.076 75.3105L331.697 77.5136L330.842 77.7552C329.369 78.1706 328.341 79.5292 328.341 81.0597V86.8268H332.461V83.6984H334.75V86.8268H345.051V89.1155H323.686V86.8268Z" fill="black"/>
<path d="M338.671 75.5465L333.901 76.8926L333.279 74.689L337.955 73.3703V70.3305C335.838 68.8868 334.445 66.4571 334.445 63.7072V60.3496C334.445 55.9323 338.039 52.3379 342.457 52.3379C346.874 52.3379 350.468 55.9323 350.468 60.3496V63.7072C350.468 66.4571 349.075 68.8868 346.959 70.3305V73.3703L354.692 75.5513C357.147 76.244 358.862 78.5089 358.862 81.0595V86.8265H361.227V89.1153H347.34V86.8265H350.163V83.6981H352.452V86.8265H356.572V81.0595C356.572 79.5289 355.543 78.1703 354.071 77.7549L346.242 75.5471C345.278 76.6016 343.916 77.2128 342.457 77.2128C340.997 77.2128 339.635 76.601 338.671 75.5465ZM342.457 54.6272C339.302 54.6272 336.734 57.1944 336.734 60.3502V61.6249L339.14 58.4424H347.851C347.064 56.2221 344.944 54.6272 342.457 54.6272ZM348.179 63.7072V60.7317H340.279L336.924 65.1687C337.572 67.6187 339.807 69.4296 342.457 69.4296C345.612 69.4296 348.179 66.8623 348.179 63.7072ZM344.669 73.8672V71.4053C343.966 71.6082 343.224 71.7189 342.457 71.7189C341.689 71.7189 340.948 71.6082 340.244 71.4053V73.8672C340.782 74.5331 341.588 74.9235 342.457 74.9235C343.326 74.9235 344.132 74.5331 344.669 73.8672Z" fill="black"/>
<path d="M332.009 82.1836L334.212 81.5623L333.591 79.3587L331.387 79.9806L332.009 82.1836ZM336.415 80.9411L339.639 80.0318L339.017 77.8281L335.793 78.7374L336.415 80.9411Z" fill="white"/>
<path d="M324.983 55.2383H322.695V57.5276H324.983V55.2383Z" fill="white"/>
<path d="M332.309 99.0352H330.02V101.324H332.309V99.0352Z" fill="white"/>
<path d="M375.343 73.8555H373.053V76.1442H375.343V73.8555Z" fill="white"/>
</g>
<defs>
<linearGradient id="paint0_linear_2863_19590" x1="222.767" y1="175.579" x2="0.000518799" y2="175.579" gradientUnits="userSpaceOnUse">
<stop stop-color="#404041"/>
<stop offset="0.084" stop-color="#383838"/>
<stop offset="0.46" stop-color="#191919"/>
<stop offset="0.779" stop-color="#060606"/>
<stop offset="1"/>
</linearGradient>
<linearGradient id="paint1_linear_2863_19590" x1="142.374" y1="80.1124" x2="43.0031" y2="80.1124" gradientUnits="userSpaceOnUse">
<stop stop-color="#404041"/>
<stop offset="0.084" stop-color="#383838"/>
<stop offset="0.46" stop-color="#191919"/>
<stop offset="0.779" stop-color="#060606"/>
<stop offset="1"/>
</linearGradient>
<linearGradient id="paint2_linear_2863_19590" x1="179.782" y1="248.008" x2="65.8082" y2="248.008" gradientUnits="userSpaceOnUse">
<stop stop-color="#5164C4"/>
<stop offset="1" stop-color="#1D2459"/>
</linearGradient>
<linearGradient id="paint3_linear_2863_19590" x1="95.4971" y1="273.051" x2="16.4947" y2="273.051" gradientUnits="userSpaceOnUse">
<stop stop-color="#5164C4"/>
<stop offset="1" stop-color="#1D2459"/>
</linearGradient>
<linearGradient id="paint4_linear_2863_19590" x1="95.4971" y1="236.928" x2="52.3261" y2="236.928" gradientUnits="userSpaceOnUse">
<stop stop-color="#3D4595"/>
<stop offset="1" stop-color="#1D2459"/>
</linearGradient>
<linearGradient id="paint5_linear_2863_19590" x1="102.398" y1="44.4179" x2="43.0385" y2="44.4179" gradientUnits="userSpaceOnUse">
<stop stop-color="#606162"/>
<stop offset="0.063" stop-color="#757677"/>
<stop offset="0.182" stop-color="#98999A"/>
<stop offset="0.308" stop-color="#B4B5B6"/>
<stop offset="0.443" stop-color="#CACBCC"/>
<stop offset="0.59" stop-color="#D9DADB"/>
<stop offset="0.76" stop-color="#E3E4E5"/>
<stop offset="1" stop-color="#E6E7E8"/>
</linearGradient>
<linearGradient id="paint6_linear_2863_19590" x1="32.0876" y1="359.353" x2="170.489" y2="161.417" gradientUnits="userSpaceOnUse">
<stop stop-color="#1D2459"/>
<stop offset="1" stop-color="#5164C4"/>
</linearGradient>
<linearGradient id="paint7_linear_2863_19590" x1="237.174" y1="305.41" x2="23.0719" y2="305.41" gradientUnits="userSpaceOnUse">
<stop stop-color="#3D4595"/>
<stop offset="1" stop-color="#1D2459"/>
</linearGradient>
<linearGradient id="paint8_linear_2863_19590" x1="68.3398" y1="170.327" x2="19.7061" y2="170.327" gradientUnits="userSpaceOnUse">
<stop stop-color="#BBBDBF"/>
<stop offset="0.174" stop-color="#B4B6B8"/>
<stop offset="0.425" stop-color="#A1A3A5"/>
<stop offset="0.72" stop-color="#838486"/>
<stop offset="1" stop-color="#606162"/>
</linearGradient>
<linearGradient id="paint9_linear_2863_19590" x1="141.097" y1="52.6649" x2="124.013" y2="52.6649" gradientUnits="userSpaceOnUse">
<stop stop-color="#BBBDBF"/>
<stop offset="0.174" stop-color="#B4B6B8"/>
<stop offset="0.425" stop-color="#A1A3A5"/>
<stop offset="0.72" stop-color="#838486"/>
<stop offset="1" stop-color="#606162"/>
</linearGradient>
<linearGradient id="paint10_linear_2863_19590" x1="136.049" y1="111.12" x2="106.979" y2="111.12" gradientUnits="userSpaceOnUse">
<stop stop-color="white" stop-opacity="0"/>
<stop offset="1" stop-color="white"/>
</linearGradient>
<linearGradient id="paint11_linear_2863_19590" x1="123.776" y1="115.893" x2="103.008" y2="115.893" gradientUnits="userSpaceOnUse">
<stop stop-color="white" stop-opacity="0"/>
<stop offset="1" stop-color="white"/>
</linearGradient>
<linearGradient id="paint12_linear_2863_19590" x1="186.822" y1="110.703" x2="157.886" y2="110.703" gradientUnits="userSpaceOnUse">
<stop stop-color="white" stop-opacity="0"/>
<stop offset="1" stop-color="white"/>
</linearGradient>
<linearGradient id="paint13_linear_2863_19590" x1="174.932" y1="115.503" x2="153.6" y2="115.503" gradientUnits="userSpaceOnUse">
<stop stop-color="white" stop-opacity="0"/>
<stop offset="1" stop-color="white"/>
</linearGradient>
<linearGradient id="paint14_linear_2863_19590" x1="195.884" y1="76.7478" x2="127.686" y2="76.7478" gradientUnits="userSpaceOnUse">
<stop stop-color="#404041"/>
<stop offset="0.084" stop-color="#383838"/>
<stop offset="0.46" stop-color="#191919"/>
<stop offset="0.779" stop-color="#060606"/>
<stop offset="1"/>
</linearGradient>
<linearGradient id="paint15_linear_2863_19590" x1="195.878" y1="76.7496" x2="138.892" y2="76.7496" gradientUnits="userSpaceOnUse">
<stop stop-color="#BBBDBF"/>
<stop offset="0.174" stop-color="#B4B6B8"/>
<stop offset="0.425" stop-color="#A1A3A5"/>
<stop offset="0.72" stop-color="#838486"/>
<stop offset="1" stop-color="#606162"/>
</linearGradient>
<clipPath id="clip0_2863_19590">
<rect width="78" height="78" fill="white" transform="matrix(-1 0 0 1 381.599 36)"/>
</clipPath>
</defs>
</svg>
