<svg width="400" height="341" viewBox="0 0 400 341" fill="none" xmlns="http://www.w3.org/2000/svg">
<path d="M378.186 0V320.37L338.986 314.79L216.895 297.41L49.1846 273.54L48.7544 150.68C64.6137 154.98 81.4295 154.125 96.771 148.239C112.112 142.353 125.185 131.741 134.098 117.937C143.012 104.133 147.305 87.8522 146.357 71.4478C145.409 55.0433 139.269 39.3655 128.824 26.6802L378.186 0Z" fill="#E7E1FF"/>
<path d="M71.4713 141.63C35.8639 141.63 6.99834 112.764 6.99834 77.1566C6.99834 41.5491 35.8639 12.6836 71.4713 12.6836C107.079 12.6836 135.944 41.5491 135.944 77.1566C135.944 112.764 107.079 141.63 71.4713 141.63Z" fill="#E7E1FF"/>
<path fill-rule="evenodd" clip-rule="evenodd" d="M36.3795 103.46C41.3423 103.46 45.4082 99.4541 45.4082 94.3717C45.4082 89.3491 41.3423 85.2832 36.3795 85.2832C31.4167 85.2832 27.2311 89.3491 27.2311 94.3717C27.2311 99.4541 31.2971 103.46 36.3795 103.46ZM36.3795 88.2729C39.7279 88.2729 42.4783 90.9635 42.4783 94.4315C42.4783 97.9593 39.7279 100.65 36.3795 100.65C32.9713 100.65 30.161 97.9593 30.161 94.4315C30.161 90.9635 32.9713 88.2729 36.3795 88.2729Z" fill="#00B4BE"/>
<path fill-rule="evenodd" clip-rule="evenodd" d="M32.7918 115.42H39.9072C40.7443 115.42 41.402 114.762 41.402 113.925V110.457C42.4185 110.098 43.3154 109.68 44.2123 109.261L46.604 111.713C47.2019 112.251 48.0988 112.251 48.6968 111.713L53.7792 106.75C54.0183 106.451 54.1977 106.032 54.1977 105.734C54.1977 105.375 54.0183 104.956 53.7792 104.717L51.3277 102.325C51.8658 101.428 52.1648 100.412 52.5235 99.515H55.9915C56.8286 99.515 57.4863 98.8573 57.4863 98.0202V90.9049C57.4863 90.0678 56.8286 89.41 55.9915 89.41H52.4039C52.1648 88.5131 51.7462 87.4967 51.2679 86.5998L53.7792 84.0885C54.0183 83.8493 54.1977 83.4307 54.1977 83.1318C54.1977 82.773 54.0183 82.3545 53.7792 82.1153L48.6968 77.1525C48.0988 76.5545 47.2019 76.5545 46.604 77.1525L44.1525 79.4844C43.2556 78.9463 42.2989 78.5277 41.3422 78.2885V74.8803C41.3422 74.103 40.6845 73.4453 39.8474 73.4453H32.732C31.8949 73.4453 31.2372 74.103 31.2372 74.8803V78.4081C30.2207 78.7071 29.3238 79.1256 28.427 79.5442L25.9754 77.1525C25.4373 76.5545 24.5404 76.5545 23.9425 77.1525L18.9797 82.1153C18.7405 82.3545 18.5611 82.773 18.5611 83.1318C18.5611 83.4307 18.7405 83.8493 18.9797 84.0885L21.3714 86.4802C20.893 87.4369 20.4745 88.3936 20.1157 89.3502H16.7075C15.8704 89.3502 15.2127 90.008 15.2127 90.8451V97.9604C15.2127 98.7975 15.8704 99.4552 16.7075 99.4552H20.1157C20.4745 100.412 20.893 101.428 21.2518 102.266L18.8601 104.657C18.6209 104.896 18.4415 105.315 18.4415 105.674C18.4415 105.973 18.6209 106.391 18.8601 106.63L23.8229 111.593C24.4208 112.191 25.3177 112.191 25.9156 111.593L28.3074 109.201C29.1445 109.68 30.1609 110.039 31.1176 110.338V113.865C31.297 114.762 31.9547 115.42 32.7918 115.42ZM38.4124 112.55H34.2269V109.441C34.2269 108.783 33.8083 108.185 33.1506 108.065C31.4764 107.647 30.1609 107.049 28.9651 106.331C28.427 105.913 27.6496 105.973 27.1713 106.451L24.8992 108.604L21.9693 105.674L24.1817 103.461C24.66 102.983 24.7796 102.266 24.361 101.668C23.5239 100.412 22.926 99.0367 22.627 97.6017C22.4477 96.9439 21.8497 96.4656 21.192 96.4656H18.1426V92.2203H21.192C21.8497 92.2203 22.4477 91.742 22.627 91.0842C22.926 89.6492 23.5239 88.3338 24.361 87.0183C24.66 86.4204 24.6002 85.7029 24.1817 85.1647L21.9693 82.9524L24.8992 79.9627L27.1713 82.1153C27.6496 82.5936 28.427 82.7132 28.9053 82.3545C30.1609 81.6369 31.5362 81.039 33.031 80.6205C33.6887 80.4411 34.1073 79.903 34.1073 79.2452V76.136H38.3526V79.2452C38.3526 79.903 38.7711 80.4411 39.4289 80.6205C40.9237 80.9792 42.2391 81.5174 43.5546 82.3545C44.1525 82.7132 44.87 82.5936 45.2886 82.1153L47.5607 79.903L50.5503 82.8328L48.3978 85.0451C47.8597 85.5235 47.7999 86.1812 48.0988 86.7791C48.9359 88.1544 49.5339 89.5894 49.773 90.9049C49.9524 91.5626 50.5503 92.0409 51.2081 92.0409H54.3173V96.2862H51.2081C50.5503 96.2862 49.9524 96.7646 49.773 97.4223C49.4741 98.8573 48.8761 100.233 48.0988 101.488C47.7999 102.086 47.8597 102.804 48.3978 103.222L50.5503 105.375L47.5607 108.364L45.2886 106.152C44.8102 105.674 44.0927 105.554 43.5546 105.913C42.2391 106.75 40.9237 107.288 39.4289 107.647C38.7711 107.826 38.3526 108.364 38.3526 109.022V112.55H38.4124Z" fill="#00B4BE"/>
<path fill-rule="evenodd" clip-rule="evenodd" d="M77.6348 99.877C78.4719 99.877 79.1296 99.1595 79.1296 98.3822C79.1296 87.2009 76.3791 83.5535 73.9874 80.3247C72.1338 77.8732 70.7586 75.9598 70.7586 70.997C70.7586 62.0879 78.0533 54.7931 86.9625 54.7931C95.9314 54.7931 103.226 62.0879 103.226 70.997C103.226 75.9598 101.791 77.8732 99.9974 80.3247C97.6056 83.5535 94.8552 87.2009 94.8552 98.3822C94.8552 99.1595 95.5129 99.877 96.35 99.877C97.1871 99.877 97.8448 99.1595 97.8448 98.3822C97.8448 88.1576 100.177 85.0484 102.389 82.0587C104.183 79.5474 106.216 76.9763 106.216 70.997C106.216 60.4735 97.6654 51.8633 87.0821 51.8633C76.4389 51.8633 67.9483 60.4137 67.9483 70.997C67.9483 76.9763 69.8019 79.5474 71.7153 82.0587C73.9874 85.0484 76.2595 88.1576 76.2595 98.3822C76.14 99.1595 76.7977 99.877 77.6348 99.877Z" fill="#FE9D04"/>
<path fill-rule="evenodd" clip-rule="evenodd" d="M98.1438 75.1783C98.9809 75.1783 99.6387 74.5206 99.6387 73.6835C99.6387 65.3125 92.8821 58.4961 84.5111 58.4961C83.674 58.4961 83.0162 59.1538 83.0162 59.9909C83.0162 60.828 83.674 61.4857 84.5111 61.4857C91.2677 61.4857 96.7686 66.9269 96.7686 73.7433C96.7686 74.5206 97.4263 75.1783 98.1438 75.1783Z" fill="#FE9D04"/>
<path fill-rule="evenodd" clip-rule="evenodd" d="M72.7923 52.8179C73.0315 52.8179 73.3305 52.6983 73.5696 52.6385C74.2274 52.22 74.4665 51.3829 74.1078 50.6654L71.6563 46.3005C71.2377 45.6428 70.4006 45.4036 69.6831 45.7623C69.0254 46.1809 68.7264 47.018 69.0852 47.7355L71.5965 52.0406C71.8356 52.519 72.314 52.8179 72.7923 52.8179Z" fill="#FE9D04"/>
<path fill-rule="evenodd" clip-rule="evenodd" d="M62.3882 63.2222C62.8666 63.2222 63.3449 62.983 63.5841 62.5047C64.0026 61.8469 63.7635 60.8903 63.0459 60.4717L58.7409 58.0202C58.0831 57.6016 57.1264 57.8408 56.7079 58.6181C56.3491 59.2759 56.5883 60.1727 57.3058 60.5913L61.6109 63.0428C61.8501 63.1624 62.1491 63.2222 62.3882 63.2222Z" fill="#FE9D04"/>
<path fill-rule="evenodd" clip-rule="evenodd" d="M101.134 52.8182C101.612 52.8182 102.15 52.5192 102.389 52.0409L104.841 47.7358C105.259 47.078 105.02 46.1811 104.303 45.7626C103.645 45.344 102.688 45.5832 102.33 46.3007L99.8183 50.6656C99.3998 51.3233 99.6389 52.2202 100.416 52.6388C100.655 52.8182 100.895 52.8182 101.134 52.8182Z" fill="#FE9D04"/>
<path fill-rule="evenodd" clip-rule="evenodd" d="M111.479 63.2242C111.718 63.2242 112.017 63.1644 112.256 63.0449L116.561 60.5933C117.219 60.1748 117.458 59.3377 117.159 58.6202C116.74 57.9027 115.903 57.6635 115.126 58.0222L110.821 60.4738C110.163 60.8923 109.924 61.7294 110.283 62.5067C110.522 62.9253 111 63.2242 111.479 63.2242Z" fill="#FE9D04"/>
<path fill-rule="evenodd" clip-rule="evenodd" d="M74.7043 105.078C75.5414 105.078 76.1992 104.42 76.1992 103.583C76.1992 102.746 75.5414 102.088 74.7043 102.088C74.1064 102.088 73.6281 101.61 73.6281 100.952C73.6281 100.235 74.1064 99.8759 74.7043 99.8759H99.2195C99.8772 99.8759 100.296 100.354 100.296 100.952C100.296 101.61 99.8174 102.088 99.2195 102.088C98.3824 102.088 97.7246 102.746 97.7246 103.583C97.7246 104.42 98.3824 105.078 99.2195 105.078C101.492 105.078 103.226 103.224 103.226 101.012C103.226 98.7996 101.372 97.0059 99.2195 97.0059H74.7043C72.492 97.0059 70.758 98.8594 70.758 101.012C70.6384 103.224 72.492 105.078 74.7043 105.078Z" fill="#595959"/>
<path fill-rule="evenodd" clip-rule="evenodd" d="M74.7043 110.28H99.2195C101.492 110.28 103.226 108.486 103.226 106.214C103.226 104.002 101.372 102.268 99.2195 102.268H74.7043C72.492 102.268 70.758 104.061 70.758 106.214C70.6384 108.366 72.492 110.28 74.7043 110.28ZM99.2195 105.078C99.8772 105.078 100.296 105.556 100.296 106.154C100.296 106.812 99.8174 107.29 99.2195 107.29H74.7043C74.1064 107.29 73.6281 106.812 73.6281 106.154C73.6281 105.496 74.1064 105.078 74.7043 105.078H99.2195Z" fill="#595959"/>
<path fill-rule="evenodd" clip-rule="evenodd" d="M85.0501 115.423H88.8171C92.4645 115.423 95.4541 112.433 95.4541 108.786C95.4541 107.949 94.7366 107.291 93.9593 107.291C93.1222 107.291 92.4645 107.949 92.4645 108.786C92.4645 110.879 90.7903 112.553 88.6975 112.553H84.9903C82.8976 112.553 81.2832 110.879 81.2832 108.786C81.2832 107.949 80.6254 107.291 79.7883 107.291C78.9512 107.291 78.2935 107.949 78.2935 108.786C78.4729 112.433 81.4028 115.423 85.0501 115.423Z" fill="#595959"/>
<path fill-rule="evenodd" clip-rule="evenodd" d="M86.9632 99.8775C87.8003 99.8775 88.458 99.16 88.458 98.3827V83.6138C88.458 83.1355 88.2188 82.5973 87.7405 82.3582L81.9406 79.0696C81.2829 78.651 80.3262 78.8902 79.9076 79.5479C79.5489 80.2056 79.788 81.1025 80.4458 81.5211L85.4684 84.4509V98.4425C85.4684 99.16 86.1261 99.8775 86.9632 99.8775Z" fill="#FE9D04"/>
<path fill-rule="evenodd" clip-rule="evenodd" d="M86.9634 85.0488C87.2026 85.0488 87.5015 84.9293 87.7407 84.8695L93.421 81.5211C94.0788 81.1025 94.3777 80.2056 93.9592 79.5479C93.5406 78.8902 92.5839 78.651 91.9262 79.0696L86.2459 82.3582C85.5882 82.7767 85.349 83.6736 85.7078 84.3313C86.0067 84.7499 86.4851 85.0488 86.9634 85.0488Z" fill="#FE9D04"/>
<path fill-rule="evenodd" clip-rule="evenodd" d="M36.3779 65.8532C37.215 65.8532 37.8727 65.1954 37.8727 64.4181V42.2947C37.8727 39.8432 39.8459 37.8701 42.2376 37.8701H81.103C83.5545 37.8701 85.5875 39.8432 85.5875 42.2947V53.476C85.5875 54.2533 86.2452 54.9708 87.0823 54.9708C87.8596 54.9708 88.5771 54.2533 88.5771 53.476V42.2947C88.5771 38.2288 85.2287 35 81.1628 35H42.2974C38.2913 35 35.0027 38.2288 35.0027 42.2947V64.4779C34.8831 65.1954 35.5408 65.8532 36.3779 65.8532Z" fill="#00B4BE"/>
<path fill-rule="evenodd" clip-rule="evenodd" d="M36.377 65.8532C36.6759 65.8532 37.0945 65.7336 37.3337 65.4945L44.449 58.3193C45.0469 57.7812 45.0469 56.8245 44.449 56.2863C43.9109 55.6884 42.9542 55.6884 42.4161 56.2863L36.377 62.3254L30.3379 56.2863C29.7399 55.6884 28.843 55.6884 28.2451 56.2863C27.6472 56.8245 27.6472 57.7812 28.2451 58.3193L35.3605 65.4945C35.5997 65.7336 35.9584 65.8532 36.377 65.8532Z" fill="#00B4BE"/>
<path d="M66.4733 139.964C30.8658 139.964 2.00029 111.098 2.00029 75.4906C2.00029 39.8831 30.8658 11.0176 66.4733 11.0176C102.081 11.0176 130.946 39.8831 130.946 75.4906C130.946 111.098 102.081 139.964 66.4733 139.964Z" stroke="#594A96" stroke-width="2.95" stroke-miterlimit="10"/>
<path d="M220.425 297.254C220.432 297.276 269.164 306.089 274.072 305.118C275.829 304.777 280.672 294.102 281.083 289.788C282.084 280.117 282.034 270.366 280.934 260.705C280.868 260.205 280.793 259.696 280.712 259.199C280.564 258.236 280.393 257.287 280.2 256.36C279.644 253.654 278.947 251.089 278.288 248.66C272.705 228.154 307.734 193.18 296.51 182.416C295.647 181.565 294.672 180.837 293.61 180.251C290.31 178.486 283.55 178.943 279.169 181.315C275.314 183.398 268.279 187.854 263.79 193.884C241.365 224.008 240.19 230.251 236.306 237.884C229.134 251.986 221.131 287.767 220.425 297.254Z" fill="url(#paint0_linear_3199_25065)"/>
<path d="M367.446 135.788C359.155 159.747 333.004 162.643 327.77 155.165C323.819 149.521 318.006 149.959 313.37 144.858C310.733 141.953 308.251 138.869 305.188 136.416C300.617 132.754 295.004 130.692 289.91 127.804C276.498 120.204 262.728 115.293 261.352 90.8522C261.185 87.8922 263.281 85.2523 264.232 82.4423C265.124 80.1841 266.449 78.1221 268.132 76.3722C274.913 68.6293 283.265 62.4186 292.632 58.1532C296.978 56.112 301.585 54.6808 306.322 53.9003C323.477 51.3073 341.186 60.4462 351.228 74.6002C356.449 82.1278 359.952 90.7106 361.49 99.7414C362.306 104.313 362.705 108.949 362.683 113.593C362.67 117.903 361.441 122.517 361.9 126.742C362.163 129.054 362.667 134.837 367.446 135.788Z" fill="url(#paint1_linear_3199_25065)"/>
<path d="M299.226 153.391L295.06 187.464C295.06 187.464 329.906 186.584 335.719 187.45C334.201 171.843 333.075 156.765 332.21 148.559C326.948 153.368 302.891 153.995 299.226 153.391Z" fill="#FA997B"/>
<path d="M332.887 155.646C321.84 162.857 309.725 168.277 296.987 171.707L298.396 160.186C298.396 160.186 318.407 160.822 332.887 155.646Z" fill="#EF5D23"/>
<path d="M349.195 284.609C349.095 285.655 349.034 286.703 348.994 287.767L252.605 277.73C257.449 261.077 257.912 241.83 268.824 218.606C274.218 207.126 283.025 184.552 293.153 181.99C299.339 180.424 300.899 187.353 310.907 186.244C321.178 185.107 335.724 168.01 343.007 173.999C363.06 190.503 353.968 232.554 349.195 284.609Z" fill="url(#paint2_linear_3199_25065)"/>
<path d="M398.048 299.654C397.14 307.136 394.937 314.404 391.539 321.132C391.53 321.159 363.246 336.415 357.373 335.253C355.273 334.845 353.022 337.253 351.452 331.353C350.902 329.304 350.378 327.053 349.873 324.628C349.5 322.818 349.136 320.911 348.799 318.928C348.018 314.359 347.353 309.381 346.865 304.218C345.668 292.645 345.727 280.977 347.042 269.418C347.122 268.818 347.211 268.211 347.309 267.618C347.486 266.464 347.69 265.329 347.921 264.218C348.586 260.979 349.421 257.91 350.21 255C356.89 230.46 319.069 188.4 332.501 175.515C333.534 174.497 334.701 173.625 335.97 172.924C339.918 170.813 343.911 171.567 349.154 174.406C353.767 176.899 358.735 179.754 366.307 187.472C385.252 206.781 391.072 221.072 395.837 235.421C399.91 247.682 400 270.57 398.048 299.654Z" fill="url(#paint3_linear_3199_25065)"/>
<path opacity="0.1" d="M361.273 228.188C354.073 221.836 351.567 234.833 356.89 242.348C362.213 249.863 348.746 271.306 348.746 271.306L347.309 267.606C347.486 266.452 347.69 265.317 347.921 264.206C348.586 260.967 349.421 257.898 350.21 254.988C356.89 230.448 319.069 188.388 332.501 175.503C333.534 174.485 334.701 173.613 335.97 172.912C339.918 170.801 343.911 171.555 349.154 174.394C349.154 174.394 331.729 176.894 337.265 187.862C342.801 198.83 353.608 205.233 362.373 213.067C371.138 220.901 368.473 234.532 361.273 228.188Z" fill="#231F20"/>
<path d="M395.25 310.997C395.171 319.911 388.169 327.843 378.522 333.197C378.209 333.371 377.894 333.538 377.579 333.705C377.211 333.91 376.832 334.105 376.446 334.3H376.433C368.723 338.207 360.64 340.608 355.698 340.925C339.21 341.992 293.877 325.808 276.136 320.967C258.395 316.126 241.119 307.329 234.779 296.702C231.528 291.249 229.252 288.016 226.926 285.784C226.745 285.612 226.567 285.448 226.391 285.29H226.384C225.842 284.8 225.268 284.348 224.665 283.935C222.965 282.804 221.149 281.859 219.247 281.115C217.213 280.342 215.262 279.368 213.422 278.207C211.122 276.619 210.001 274.694 211.386 271.962C212.076 270.928 212.823 269.934 213.622 268.983C214.008 268.576 214.395 268.169 214.768 267.766C217.556 264.766 222.695 263.271 222.695 263.271C224.243 262.562 225.919 262.177 227.621 262.139C228.084 262.13 228.553 262.139 229.037 262.177C232.022 262.491 234.918 263.374 237.571 264.777L237.591 264.771L237.6 264.776C238.257 264.723 238.866 264.649 239.433 264.558C244.039 263.791 246.306 261.659 251.204 258.597C256.714 255.141 267.554 249.182 286.768 262.097C305.963 274.991 314.046 279.597 320.911 278.93C323.824 278.657 334.742 279.772 347.377 282.642C348.498 282.893 349.639 283.16 350.783 283.442C366.342 287.291 383.602 293.75 391.476 303.473C391.586 303.6 391.892 304.023 392.283 304.609L392.321 304.663C393.446 306.354 395.265 309.381 395.25 310.997Z" fill="url(#paint4_linear_3199_25065)"/>
<path opacity="0.1" d="M395.25 310.998C395.171 319.912 388.169 327.844 378.522 333.198C378.209 333.372 377.894 333.539 377.579 333.706C377.211 333.911 376.832 334.106 376.446 334.301H376.433C368.723 338.208 360.64 340.609 355.698 340.926C339.21 341.993 293.877 325.809 276.136 320.968C258.395 316.127 241.119 307.33 234.779 296.703C231.528 291.25 228.717 287.524 226.391 285.291C228.377 281.269 233.665 282.081 233.665 282.081C233.665 282.081 252.054 291.604 262.52 302.224C277.069 316.994 315.92 320.49 331.275 313.311C340.467 309.017 352.201 305.311 359.8 306.188C364.029 306.672 366.272 308.937 364.662 313.804C364.262 315.036 360.834 323.047 363.845 326.198C368.504 331.067 376.877 326.816 382.828 322.015C389.853 316.355 392.301 311.889 392.193 304.498L392.283 304.608L392.321 304.662C393.446 306.355 395.265 309.382 395.25 310.998Z" fill="#231F20"/>
<path d="M226.143 256.881C226.143 256.881 219.214 249.737 216.935 243.098C214.656 236.459 211.783 231.009 209.008 229.126C206.233 227.243 200.982 221.298 201.081 215.254C201.18 209.21 195.928 210.597 194.739 215.254C193.55 219.911 193.451 225.554 198.802 232.595C204.153 239.636 197.613 240.72 191.767 239.333C185.921 237.946 178.489 235.666 178.29 243.99C178.091 252.314 177.789 263.907 179.974 269.357C182.159 274.807 191.865 279.757 201.574 278.671C211.283 277.585 215.546 277.878 215.546 277.878L226.143 256.881Z" fill="#FA997B"/>
<path d="M226.551 285.241H226.545C225.994 284.757 225.415 284.307 224.811 283.893C223.233 282.808 220.956 282.5 218.8 281.617C213.267 279.354 207.707 279.212 210.065 274.617C210.173 274.398 212.306 270.558 212.415 270.426C212.775 269.949 222.829 256.343 223.215 255.934C226.047 252.96 230.196 257.925 237.94 264.665C238.613 264.613 238.228 266.87 238.214 267.983C237.917 271.371 238.213 285.178 226.551 285.241Z" fill="#40847D"/>
<path d="M256.832 255.701C256.832 255.701 269.407 248.69 288.279 262.765C306.767 276.553 313.278 279.651 321.897 279.428C327.779 279.395 333.647 280.001 339.397 281.234C339.397 281.234 326.821 280.57 322.487 281.489C318.153 282.408 302.668 278.611 285.815 264.724C278.389 258.76 260.563 253.893 256.832 255.701Z" fill="#40847D"/>
<path d="M363.418 101.05C363.603 86.8706 359.734 72.5896 351.796 61.6646C344.159 51.1546 332.432 44.9427 318.515 44.5567C304.598 44.1707 293.816 48.5566 285.197 56.9566C275.697 66.2136 271.036 79.9725 272.153 93.1885C272.643 98.9885 274.164 104.669 274.452 110.479C274.98 120.99 271.513 131.905 274.979 141.841C277.969 150.411 285.86 156.664 294.53 159.35C303.2 162.036 312.567 161.55 321.478 159.815C334.102 157.364 344.601 148.393 352.029 138.068C359.445 127.771 363.243 114.455 363.418 101.05Z" fill="#FA997B"/>
<path d="M302.601 139.731C305.532 140.034 308.495 139.738 311.308 138.859C314.122 137.981 316.727 136.54 318.966 134.623C318.964 136.643 318.322 138.609 317.132 140.241C315.943 141.873 314.267 143.087 312.345 143.707C305.485 146.029 302.601 139.731 302.601 139.731Z" fill="white"/>
<path d="M309.455 147.294C311.46 147.353 313.431 146.775 315.086 145.643" stroke="#D26665" stroke-linecap="round" stroke-linejoin="round"/>
<path d="M322.965 90.7386C317.031 88.5926 312.841 91.9386 312.344 95.2256C315.378 94.4367 318.547 94.3104 321.634 94.8555C325.168 95.4286 328.593 96.5442 331.786 98.1626C329.747 94.781 326.645 92.1702 322.965 90.7386Z" fill="#1A1A1A"/>
<path d="M287.507 90.7386C293.441 88.5926 297.631 91.9386 298.128 95.2256C295.094 94.4366 291.925 94.3103 288.838 94.8555C285.304 95.4286 281.88 96.5442 278.686 98.1626C280.725 94.781 283.827 92.1702 287.507 90.7386Z" fill="#1A1A1A"/>
<path d="M278.531 127.155C267.566 127.155 258.678 118.267 258.678 107.302C258.678 96.3377 267.566 87.4492 278.531 87.4492C289.495 87.4492 298.384 96.3377 298.384 107.302C298.384 118.267 289.495 127.155 278.531 127.155Z" fill="white" fill-opacity="0.2" stroke="#D0D2D3" stroke-miterlimit="10"/>
<path opacity="0.3" d="M292.73 94.4531L271.494 125.323C270.553 124.986 269.648 124.554 268.794 124.032C266.928 122.886 265.242 121.467 263.794 119.823L285.063 88.873C288.034 90.0834 290.665 91.9986 292.73 94.4531Z" fill="url(#paint5_linear_3199_25065)"/>
<path opacity="0.3" d="M297.018 102.353L281.403 126.412C280.178 126.61 278.935 126.674 277.697 126.603C277.197 126.603 275.69 126.403 275.68 126.396L294.968 97.1641C295.317 97.7927 295.631 98.4403 295.907 99.104C296.393 100.144 296.765 101.233 297.018 102.353Z" fill="url(#paint6_linear_3199_25065)"/>
<path d="M247.415 76.0193C254.415 84.0893 259.285 92.5793 270.045 94.2593C295.065 98.1593 325.585 76.1994 329.835 67.3694C333.175 98.7294 351.585 97.0093 357.325 107.519C359.635 111.749 364.295 114.529 365.705 119.089C371.155 108.649 375.975 97.7295 377.755 86.1695C379.535 74.6095 379.915 60.5193 370.125 49.9693C360.335 39.4193 346.495 41.9693 346.495 41.9693C346.495 41.9693 328.165 26.8694 310.785 25.6194C291.685 24.2394 282.655 26.2495 270.335 42.9495C264.075 51.4395 255.255 76.9293 247.435 76.0193H247.415Z" fill="url(#paint7_linear_3199_25065)"/>
<path d="M347.996 102.326H366.955" stroke="#D0D2D3" stroke-miterlimit="10"/>
<path d="M371.374 117.333C367.81 126.92 359.074 132.649 354.689 130.518C351.289 128.864 350.751 122.48 352.732 114.818C354.713 107.156 360.432 97.4181 366.211 98.8721C371.99 100.326 374.943 107.746 371.374 117.333Z" fill="#FA997B"/>
<path d="M358.173 113.013C356.62 115.513 356.527 118.278 357.973 119.178C359.419 120.078 361.857 118.778 363.42 116.269C364.965 113.763 365.054 111 363.611 110.104C362.168 109.208 359.726 110.502 358.173 113.013Z" fill="#EF5D23"/>
<path d="M295.299 110.429C295.299 110.429 296.207 103.68 291.899 101.321C287.591 98.9617 282.227 102.081 283.741 106.271L295.299 110.429Z" fill="#1A1A1A"/>
<path d="M295.073 111.253C294.243 113.744 285.842 113.825 283.709 108.971C281.576 104.117 285.909 99.9203 289.933 101.147C290.952 101.446 291.899 101.95 292.716 102.628C293.533 103.306 294.203 104.144 294.684 105.091C295.165 106.037 295.448 107.072 295.515 108.132C295.582 109.192 295.431 110.254 295.073 111.253Z" fill="white"/>
<path d="M290.79 107.47C290.835 107.27 290.868 107.067 290.89 106.862C291.089 106.053 291.004 105.2 290.649 104.446C290.505 104.09 290.311 103.757 290.072 103.457C288.856 101.957 287.051 102.101 285.54 102.993C285.104 103.267 284.736 103.635 284.464 104.071C284.191 104.506 284.02 104.998 283.964 105.509C283.828 105.898 283.753 106.307 283.744 106.719C283.691 107.569 283.969 108.405 284.521 109.054C285.072 109.702 285.854 110.111 286.701 110.194C287.594 110.293 288.493 110.074 289.241 109.576C289.988 109.078 290.537 108.332 290.79 107.47Z" fill="#1A1A1A"/>
<path d="M316.074 110.429C316.074 110.429 315.165 103.68 319.473 101.321C323.781 98.9617 329.207 102.081 327.692 106.271L316.074 110.429Z" fill="#1A1A1A"/>
<path d="M316.306 111.253C317.135 113.744 325.537 113.825 327.669 108.971C329.801 104.117 325.469 99.9203 321.446 101.147C320.427 101.446 319.48 101.95 318.663 102.628C317.846 103.306 317.176 104.144 316.694 105.091C316.213 106.037 315.93 107.072 315.863 108.132C315.797 109.191 315.947 110.254 316.306 111.253Z" fill="white"/>
<path d="M323.593 108.617C323.665 108.425 323.728 108.229 323.779 108.03C324.094 107.259 324.135 106.403 323.893 105.605C323.804 105.232 323.66 104.874 323.467 104.542C322.483 102.884 320.677 102.759 319.051 103.42C318.58 103.628 318.163 103.938 317.829 104.329C317.496 104.721 317.255 105.182 317.125 105.679C316.931 106.044 316.796 106.437 316.725 106.844C316.548 107.677 316.702 108.546 317.153 109.267C317.604 109.989 318.318 110.508 319.144 110.714C320.014 110.944 320.936 110.859 321.75 110.476C322.564 110.092 323.216 109.434 323.593 108.617Z" fill="#1A1A1A"/>
<path d="M285.973 104.819C285.973 105.013 285.896 105.199 285.759 105.336C285.622 105.473 285.436 105.55 285.242 105.55C285.048 105.55 284.863 105.473 284.726 105.336C284.589 105.199 284.512 105.013 284.512 104.819C284.519 104.599 284.602 104.388 284.746 104.221C284.89 104.054 285.087 103.942 285.304 103.902C285.707 103.902 285.973 104.415 285.973 104.819Z" fill="white"/>
<path d="M319.111 105.643C319.114 105.741 319.098 105.839 319.063 105.93C319.028 106.022 318.975 106.106 318.907 106.177C318.839 106.248 318.757 106.304 318.666 106.342C318.576 106.381 318.479 106.401 318.38 106.401C318.282 106.401 318.185 106.381 318.094 106.342C318.004 106.304 317.922 106.248 317.854 106.177C317.786 106.106 317.733 106.022 317.698 105.93C317.662 105.839 317.646 105.741 317.65 105.643C317.658 105.422 317.741 105.212 317.885 105.045C318.029 104.878 318.226 104.766 318.443 104.727C318.846 104.727 319.111 105.24 319.111 105.643Z" fill="white"/>
<path d="M303.089 113.988C303.089 113.988 303.682 118.495 302.775 120.098C301.868 121.701 299.101 122.998 300.218 126.328C301.533 130.243 305.243 128.566 305.243 128.566" stroke="#D26665" stroke-linecap="round" stroke-linejoin="round"/>
<path d="M308.82 107.944C308.82 107.944 303.667 102.915 298.638 107.944" stroke="#D0D2D3" stroke-linecap="round" stroke-linejoin="round"/>
<path d="M284.241 189.129C284.241 189.129 276.109 203.666 267.376 222.06C266.719 206.766 277.843 197.455 284.241 189.129Z" fill="#40847D"/>
<path d="M348.522 107.299C348.529 109.908 348.02 112.493 347.024 114.904C346.029 117.316 344.567 119.507 342.723 121.353C340.878 123.198 338.688 124.661 336.277 125.657C333.866 126.654 331.282 127.164 328.673 127.159C328.023 127.159 327.372 127.129 326.732 127.069C326.718 127.071 326.704 127.067 326.692 127.059C325.191 126.914 323.711 126.595 322.282 126.109C321.345 125.784 320.432 125.389 319.552 124.929C315.601 122.886 312.451 119.574 310.607 115.526C308.763 111.478 308.332 106.928 309.384 102.605C310.435 98.283 312.909 94.4392 316.406 91.6907C319.904 88.9423 324.224 87.4488 328.673 87.4493C331.249 87.4424 333.801 87.9454 336.182 88.9293C339.154 90.1392 341.787 92.0542 343.852 94.5091C344.687 95.5025 345.424 96.5743 346.052 97.7093C347.011 99.4385 347.702 101.303 348.102 103.239C348.366 104.472 348.503 105.728 348.512 106.989C348.522 107.089 348.522 107.199 348.522 107.299Z" fill="white" fill-opacity="0.2" stroke="#D0D2D3" stroke-miterlimit="10"/>
<path opacity="0.3" d="M343.638 94.9685L322.558 125.649C321.62 125.323 320.707 124.929 319.828 124.469C317.867 123.458 316.089 122.127 314.568 120.529L335.968 89.3887C338.939 90.5986 341.572 92.5136 343.638 94.9685Z" fill="url(#paint8_linear_3199_25065)"/>
<path opacity="0.3" d="M347.608 103.443L332.769 126.219C331.47 126.498 330.148 126.649 328.821 126.672C328.171 126.672 326.851 126.582 326.841 126.572L345.559 97.9141C346.517 99.6429 347.208 101.507 347.608 103.443Z" fill="url(#paint9_linear_3199_25065)"/>
<path d="M369.652 49.4768C369.652 49.4768 361.922 37.0769 351.859 39.7859C346.149 41.3239 346.307 42.2649 346.307 42.2649C346.307 42.2649 347.538 37.9818 338.572 35.5288C330.486 33.3168 337.341 28.7368 322.731 26.7378C317.131 24.4698 318.838 27.0859 312.831 25.8299" stroke="#707070" stroke-width="1.097" stroke-linecap="round" stroke-linejoin="round"/>
<path d="M247.415 76.019C254.415 84.089 259.285 92.579 270.045 94.259C295.065 98.159 325.585 76.1991 329.835 67.3691C329.835 67.3691 285.455 95.469 263.795 85.769C253.335 81.209 250.135 77.349 247.435 76.019H247.415Z" fill="url(#paint10_linear_3199_25065)"/>
<defs>
<linearGradient id="paint0_linear_3199_25065" x1="273.995" y1="242.186" x2="195.677" y2="242.186" gradientUnits="userSpaceOnUse">
<stop stop-color="#479387"/>
<stop offset="1" stop-color="#2FD4E5"/>
</linearGradient>
<linearGradient id="paint1_linear_3199_25065" x1="367.446" y1="106.136" x2="261.343" y2="106.136" gradientUnits="userSpaceOnUse">
<stop stop-color="#A9453E"/>
<stop offset="0.235" stop-color="#A64339"/>
<stop offset="0.512" stop-color="#9D3F2A"/>
<stop offset="0.809" stop-color="#8F3913"/>
<stop offset="1" stop-color="#843400"/>
</linearGradient>
<linearGradient id="paint2_linear_3199_25065" x1="6249.28" y1="230.249" x2="6146.44" y2="230.249" gradientUnits="userSpaceOnUse">
<stop stop-color="#479387"/>
<stop offset="1" stop-color="#2FD4E5"/>
</linearGradient>
<linearGradient id="paint3_linear_3199_25065" x1="6172.46" y1="253.56" x2="6102.76" y2="253.56" gradientUnits="userSpaceOnUse">
<stop stop-color="#479387"/>
<stop offset="1" stop-color="#2FD4E5"/>
</linearGradient>
<linearGradient id="paint4_linear_3199_25065" x1="5488.83" y1="-459.685" x2="5537.05" y2="-601.067" gradientUnits="userSpaceOnUse">
<stop stop-color="#479387"/>
<stop offset="1" stop-color="#2FD4E5"/>
</linearGradient>
<linearGradient id="paint5_linear_3199_25065" x1="6156.82" y1="107.098" x2="6127.88" y2="107.098" gradientUnits="userSpaceOnUse">
<stop stop-color="white" stop-opacity="0"/>
<stop offset="1" stop-color="white"/>
</linearGradient>
<linearGradient id="paint6_linear_3199_25065" x1="6145.53" y1="111.898" x2="6124.2" y2="111.898" gradientUnits="userSpaceOnUse">
<stop stop-color="white" stop-opacity="0"/>
<stop offset="1" stop-color="white"/>
</linearGradient>
<linearGradient id="paint7_linear_3199_25065" x1="378.746" y1="72.1765" x2="247.415" y2="72.1765" gradientUnits="userSpaceOnUse">
<stop stop-color="#A9453E"/>
<stop offset="0.235" stop-color="#A64339"/>
<stop offset="0.512" stop-color="#9D3F2A"/>
<stop offset="0.809" stop-color="#8F3913"/>
<stop offset="1" stop-color="#843400"/>
</linearGradient>
<linearGradient id="paint8_linear_3199_25065" x1="6106.64" y1="107.519" x2="6077.57" y2="107.519" gradientUnits="userSpaceOnUse">
<stop stop-color="white" stop-opacity="0"/>
<stop offset="1" stop-color="white"/>
</linearGradient>
<linearGradient id="paint9_linear_3199_25065" x1="6094.38" y1="112.293" x2="6073.61" y2="112.293" gradientUnits="userSpaceOnUse">
<stop stop-color="white" stop-opacity="0"/>
<stop offset="1" stop-color="white"/>
</linearGradient>
<linearGradient id="paint10_linear_3199_25065" x1="330.165" y1="80.3054" x2="251.794" y2="99.6334" gradientUnits="userSpaceOnUse">
<stop stop-color="#843400"/>
<stop offset="0.191" stop-color="#8F3913"/>
<stop offset="0.488" stop-color="#9D3F2A"/>
<stop offset="0.765" stop-color="#A64339"/>
<stop offset="1" stop-color="#A9453E"/>
</linearGradient>
</defs>
</svg>
