<svg height="512" viewBox="0 0 56 60" width="512" xmlns="http://www.w3.org/2000/svg"><g id="Page-1" fill="none" fill-rule="evenodd"><g id="025---AI"><path id="Path" d="m43 30c.0036302 2.7772348-.1932147 5.5511093-.589 8.3-2.1837751 1.7319001-4.4938688 3.2982579-6.911 4.686-2.4074169 1.3963553-4.9141631 2.6139655-7.5 3.643-2.5880749-1.0239542-5.0951927-2.2417448-7.5-3.643-2.4171312-1.3877421-4.7272249-2.9540999-6.911-4.686-.7853381-5.5081479-.7853381-11.0998521 0-16.608 2.1840406-1.7291467 4.4941273-3.2928257 6.911-4.678 2.4074169-1.3963553 4.9141631-2.6139655 7.5-3.643 2.5880749 1.0239542 5.0951927 2.2417448 7.5 3.643 2.4171312 1.3877421 4.7272249 2.9540999 6.911 4.686.3957853 2.7488907.5926302 5.5227652.589 8.3z" fill="#b0d3f0"/><path id="Shape" d="m51.556 30c3.219-4.81 4.368-9.468 3.225-13.175-.1626479-.5279842-.7225158-.8241478-1.2505-.6615-.5279842.1626479-.8241478.7225158-.6615 1.2505.915 2.966-.011 6.779-2.572 10.836-2.0490527-2.6108053-4.3887977-4.9797384-6.974-7.061-.5004406-3.300975-1.3806103-6.5330737-2.623-9.632 5.408-.214 9.391 1.2 11.293 4.058.306518.4595009.9274991.583518 1.387.277s.583518-.9274991.277-1.387c-2.4-3.6-7.3-5.326-13.831-4.9-2.903-5.936-7.093-9.605-11.826-9.605s-8.923 3.67-11.828 9.6c-7.021-.449-12.227 1.639-14.353 5.8-.04615205.0995587-.07587035.2059367-.088.315-.10134669.0949646-.18114195.2105654-.234.339-1.574 3.832-.522 8.766 2.948 13.946-3.695 5.513-4.645 10.682-2.645 14.61.17060657.3357563.51538501.5471843.892.547h.038c-.15852523.3419947-.10930136.7443126.127 1.038 2.28 2.792 6.289 4.274 11.448 4.274.605 0 1.232-.027 1.868-.069 2.904 5.931 7.094 9.6 11.827 9.6s8.923-3.669 11.828-9.6c.643.042 1.276.07 1.887.07 5.406 0 9.521-1.623 11.739-4.678.3034319-.4232299.2283591-1.0089728-.172-1.342.5014604.1884471 1.0608016-.0648226 1.25-.566 1.532-3.828.468-8.737-2.976-13.884zm-2.449 0c-1.5988124 2.1286643-3.407941 4.0908987-5.4 5.857.1963939-1.9461416.2941856-3.9009744.293-5.857-.0011147-1.9561445-.1012428-3.9109789-.3-5.857 1.9945177 1.7657322 3.8060043 3.7279806 5.407 5.857zm-10.516 18.28c-2.6621442-.3188087-5.284969-.9075036-7.828-1.757 1.7899567-.7988438 3.5379045-1.6886717 5.237-2.666 1.7050763-.9840554 3.3567319-2.0578985 4.948-3.217-.5243102 2.6200674-1.31405 5.179937-2.357 7.64zm-23.538-7.64c1.5908612 1.1591909 3.2421888 2.2330378 4.947 3.217 1.6966234.9762054 3.4415173 1.8660079 5.228 2.666-2.5403981.8491288-5.1605325 1.4378214-7.82 1.757-1.0422661-2.4601378-1.8313353-5.0200054-2.355-7.64zm2.356-28.92c2.6621442.3188087 5.284969.9075036 7.828 1.757-1.7899567.7988438-3.5379045 1.6886717-5.237 2.666-1.7050763.9840554-3.3567319 2.0578985-4.948 3.217.5243102-2.6200674 1.31405-5.179937 2.357-7.64zm3.591 30.404c-2.2550875-1.2977989-4.4109817-2.7607988-6.45-4.377-.7319985-5.1387298-.7319985-10.3552702 0-15.494 2.0390876-1.6161068 4.1949746-3.0791018 6.45-4.377 2.2500518-1.3012425 4.5915291-2.4375575 7.006-3.4 2.4124902.9625498 4.7519649 2.0988661 7 3.4 2.2550875 1.2977989 4.4109817 2.7607988 6.45 4.377.365744 2.566067.5475408 5.1550015.544 7.747.0018847 2.5921179-.1815831 5.181053-.549 7.747-2.0394083 1.616148-4.1956309 3.0791438-6.451 4.377-2.2481741 1.3002974-4.5876362 2.4359392-7 3.398-2.4123425-.962109-4.7518012-2.0977491-7-3.398zm-8.7-6.267c-1.9950375-1.7652014-3.80657488-3.7275048-5.407-5.857 1.59876546-2.1287034 3.4078982-4.0909424 5.4-5.857-.3933309 3.8947613-.3933309 7.8192387 0 11.714zm18.476-22.38c2.5403981-.8491288 5.1605325-1.4378214 7.82-1.757 1.042608 2.4601004 1.8320125 5.019969 2.356 7.64-1.5924845-1.1593407-3.2454844-2.2331898-4.952-3.217-1.6969493-.9762355-3.4421777-1.8660383-5.229-2.666zm-2.776-11.477c3.756 0 7.169 2.979 9.686 7.811-3.3125243.4702393-6.5605476 1.3170537-9.681 2.524-3.1232675-1.2078318-6.3743733-2.0546627-9.69-2.524 2.517-4.832 5.929-7.811 9.685-7.811zm-24.653 14.809c.0264815-.0785288.04228964-.1602603.047-.243.08302735-.0741225.15300255-.161676.207-.259 1.674-3.275 5.9-4.971 11.7-4.749-1.2419969 3.0989852-2.1218291 6.3310767-2.622 9.632-2.5873433 2.0839093-4.92878226 4.4558786-6.979 7.07-2.767-4.36-3.606-8.396-2.353-11.451zm1.059 28.118c-.20294427-.2427265-.51049707-.3726731-.826-.349.13648158-.2753489.13648158-.5986511 0-.874-1.556-3.066-.78-7.375 2.12-11.963 2.05109603 2.6137103 4.3931872 4.985325 6.981 7.069.4997435 3.2969054 1.3778729 6.5252138 2.617 9.621-5.021.193-8.865-1.022-10.892-3.504zm23.594 13.073c-3.756 0-7.169-2.979-9.686-7.811 3.3142221-.469867 6.5639434-1.3166868 9.686-2.524 3.1232675 1.2078318 6.3743733 2.0546627 9.69 2.524-2.522 4.832-5.934 7.811-9.69 7.811zm23.835-13.387c-1.957 2.7-5.884 4.021-11.128 3.816 1.2387895-3.0951363 2.1165856-6.322782 2.616-9.619 2.5869172-2.0837217 4.9277135-4.4557197 6.977-7.07 2.744 4.338 3.592 8.349 2.371 11.4-.1620062.4144971-.026898.8861473.33 1.152-.4163383-.1722797-.8964988-.0400914-1.166.321z" fill="#2980ba" fill-rule="nonzero"/><path id="Shape" d="m23.923 23.615c-.1553161-.3725487-.5193719-.6152001-.923-.6152001s-.7676839.2426514-.923.6152001l-5 12c-.1375473.3297561-.0887234.707844.1280802.9918415s.5686492.4307587.923.385.6573726-.2770853.7949198-.6068415l1.41-3.385h5.334l1.41 3.385c.2126296.5097588.7982412.7506296 1.308.538s.7506296-.7982412.538-1.308zm-2.756 7.385 1.833-4.4 1.833 4.4z" fill="#285680" fill-rule="nonzero"/><path id="Path" d="m37 35h-2v-10h2c.5522847 0 1-.4477153 1-1s-.4477153-1-1-1h-6c-.5522847 0-1 .4477153-1 1s.4477153 1 1 1h2v10h-2c-.5522847 0-1 .4477153-1 1s.4477153 1 1 1h6c.5522847 0 1-.4477153 1-1s-.4477153-1-1-1z" fill="#285680"/><g fill="#f0c419"><circle id="Oval" cx="3" cy="16" r="3"/><circle id="Oval" cx="53" cy="44" r="3"/><circle id="Oval" cx="3" cy="44" r="3"/><circle id="Oval" cx="53" cy="16" r="3"/></g></g></g></svg>