<svg id="Capa_1" enable-background="new 0 0 512 512" height="512" viewBox="0 0 512 512" width="512" xmlns="http://www.w3.org/2000/svg"><g><path d="m60 180c-8.284 0-15 6.716-15 15v122c0 8.284 6.716 15 15 15s15-6.716 15-15v-122c0-8.284-6.716-15-15-15z" fill="#4d628c"/><path d="m452 180h-67.443c-8.284 0-15 6.716-15 15s6.716 15 15 15h18.585v107c0 8.284 6.716 15 15 15s15-6.716 15-15v-107h18.858c8.284 0 15-6.716 15-15s-6.716-15-15-15z" fill="#283d66"/><path d="m231.17 210 20.073-12.802-20.073-17.198c-41.94 0-76.06 34.09-76.06 76s34.12 76 76.06 76l10.128-15.108-10.128-14.892c-25.4 0-46.06-20.64-46.06-46s20.66-46 46.06-46z" fill="#4d628c"/><g><path d="m231.17 0 15.671 13.636-15.671 16.364c-50.65 0-98.52 16.34-138.44 47.25-6.55 5.07-15.98 3.87-21.05-2.68s-3.87-15.97 2.68-21.04c45.23-35.02 99.45-53.53 156.81-53.53z" fill="#80bfff"/></g><g><path d="m231.17 60 11.499 14.726-11.499 15.274c-37.2 0-72.36 12-101.68 34.71-2.74 2.12-5.97 3.14-9.18 3.14-4.48 0-8.91-2-11.87-5.82-5.07-6.55-3.87-15.97 2.68-21.04 34.62-26.82 76.14-40.99 120.05-40.99z" fill="#80bfff"/></g><g><path d="m231.17 120 20.073 15.22-20.073 14.78c-23.77 0-46.22 7.66-64.92 22.16-6.55 5.08-15.97 3.89-21.05-2.66-5.07-6.55-3.88-15.97 2.67-21.04 24.01-18.62 52.81-28.46 83.3-28.46z" fill="#80bfff"/></g><g><path d="m231.17 482 20.073 10.9-20.073 19.1c-57.36 0-111.58-18.51-156.81-53.53-6.55-5.07-7.75-14.49-2.68-21.04s14.5-7.75 21.05-2.68c39.92 30.91 87.79 47.25 138.44 47.25z" fill="#80bfff"/></g><g><path d="m231.17 422 15.671 11.875-15.671 18.125c-43.91 0-85.43-14.17-120.05-40.99-6.55-5.07-7.75-14.49-2.68-21.04s14.5-7.75 21.05-2.68c29.32 22.71 64.48 34.71 101.68 34.71z" fill="#80bfff"/></g><g><path d="m231.17 362 15.671 17.952-15.671 12.048c-30.49 0-59.29-9.84-83.3-28.46-6.55-5.07-7.74-14.49-2.67-21.04 5.08-6.55 14.5-7.74 21.05-2.66 18.7 14.5 41.15 22.16 64.92 22.16z" fill="#80bfff"/></g><g fill="#8095ff"><path d="m314.48 363.54c-24.01 18.62-52.82 28.46-83.31 28.46v-30c23.77 0 46.22-7.66 64.92-22.16 6.55-5.08 15.97-3.89 21.05 2.66s3.88 15.97-2.66 21.04z"/><path d="m317.14 169.5c-2.96 3.81-7.39 5.81-11.86 5.81-3.22 0-6.45-1.03-9.19-3.15-18.7-14.5-41.15-22.16-64.92-22.16v-30c30.49 0 59.3 9.84 83.31 28.46 6.54 5.07 7.74 14.49 2.66 21.04z"/><path d="m351.23 411.01c-34.63 26.82-76.14 40.99-120.06 40.99v-30c37.21 0 72.37-12 101.69-34.71 6.55-5.07 15.97-3.87 21.04 2.68 5.08 6.55 3.88 15.97-2.67 21.04z"/><path d="m353.9 122.03c-5.07 6.55-14.49 7.75-21.04 2.68-29.32-22.71-64.48-34.71-101.69-34.71v-30c43.92 0 85.43 14.17 120.06 40.99 6.55 5.07 7.75 14.49 2.67 21.04z"/><path d="m387.98 458.47c-45.23 35.02-99.45 53.53-156.81 53.53v-30c50.65 0 98.52-16.34 138.45-47.25 6.55-5.07 15.97-3.87 21.04 2.68s3.87 15.97-2.68 21.04z"/><path d="m390.66 74.57c-2.95 3.82-7.39 5.82-11.87 5.82-3.21 0-6.44-1.02-9.17-3.14-39.93-30.91-87.8-47.25-138.45-47.25v-30c57.36 0 111.58 18.51 156.81 53.53 6.55 5.07 7.75 14.49 2.68 21.04z"/></g><path d="m307.23 256c0 41.91-34.12 76-76.06 76v-30c25.4 0 46.06-20.64 46.06-46s-20.66-46-46.06-46v-30c41.94 0 76.06 34.09 76.06 76z" fill="#283d66"/></g></svg>