<svg id="Layer_1" height="512" viewBox="0 0 512 512" width="512" xmlns="http://www.w3.org/2000/svg" data-name="Layer 1"><path d="m415.48 324.361c-6.312-4.914-16.293-5.246-25.888 5.167-15.276 16.578-21.041 22.13-38.031 37.364-10.85 9.728-11.946 24.626-11.946 39.198 0 24.619-1.925 37.387-6.395 61.596h72.055c-3.062-33.728 4.547-45.767 20.47-63.297 14.965-16.477 17.956-17.402 25.218-39.869l29.261-101.758c7.402-25.742-21.33-28.84-27.674-8.274-7.664 24.83-24.513 62.7-32.449 75.445-.969-2.03-2.477-3.903-4.62-5.572z" fill="#f1d0a5" fill-rule="evenodd"/><path d="m415.48 324.361c-5.016-3.905-12.349-4.915-19.964.059 3.941.053 7.766 1.63 10.475 3.737 2.441 1.895 3.666 4.079 3.848 6.862.861 13.08-19.671 33.904-29.537 43.904-1.673 1.695-3.112 3.16-4.292 4.403-2.09 2.219-1.988 5.712.231 7.811 2.219 2.09 5.721 1.993 7.812-.231 1.087-1.149 2.494-2.579 4.119-4.225 16.391-16.617 33.793-35.746 32.697-52.39-.102-1.504-.351-2.956-.768-4.359-.969-2.03-2.477-3.903-4.62-5.572zm-27.421 143.324-.609-9.52c-.963-29.803 11.562-43.973 25.654-59.471 2.046-2.259 3.87-4.221 5.508-5.987 10.199-10.98 15.083-12.186 20.972-30.369l30.817-104.881c2.166-7.532.701-13.053-3.83-14.402-1.479-.44-3.636-.348-5.892.377 10.405-6.506 25.08.078 19.544 19.331l-29.261 101.758c-7.262 22.467-10.253 23.392-25.218 39.869-15.923 17.53-23.531 29.569-20.47 63.297h-17.217z" fill="#e8c290" fill-rule="evenodd"/><path d="m320.14 464.254h99.377v36.743h-99.377z" fill="#57a4ff"/><path d="m404.995 464.254h14.522v36.743h-14.522z" fill="#3b96ff"/><path d="m96.409 324.362c6.312-4.914 16.293-5.245 25.888 5.167 15.276 16.578 21.041 22.13 38.031 37.364 10.85 9.728 11.946 24.626 11.946 39.198 0 24.619 1.925 37.387 6.395 61.596h-72.055c3.062-33.728-4.547-45.767-20.469-63.297-14.965-16.477-17.956-17.402-25.218-39.869l-29.261-101.758c-7.402-25.742 21.33-28.84 27.674-8.274 7.664 24.83 24.513 62.7 32.449 75.445.969-2.03 2.477-3.903 4.62-5.572z" fill="#f1d0a5" fill-rule="evenodd"/><path d="m96.409 324.362c5.016-3.905 12.349-4.915 19.964.059-3.941.053-7.766 1.63-10.475 3.737-2.441 1.895-3.666 4.079-3.848 6.862-.861 13.08 19.671 33.904 29.537 43.904 1.673 1.695 3.112 3.16 4.292 4.403 2.09 2.219 1.988 5.712-.231 7.811-2.219 2.09-5.721 1.993-7.811-.231-1.087-1.149-2.495-2.579-4.119-4.225-16.391-16.617-33.794-35.746-32.697-52.39.102-1.504.351-2.956.768-4.359.969-2.03 2.477-3.903 4.62-5.572zm27.421 143.324.609-9.52c.963-29.803-11.562-43.973-25.654-59.471-2.046-2.259-3.87-4.221-5.508-5.987-10.199-10.98-15.083-12.186-20.972-30.369l-30.817-104.881c-2.166-7.532-.701-13.053 3.83-14.402 1.479-.44 3.636-.348 5.892.377-10.405-6.506-25.08.078-19.544 19.331l29.261 101.758c7.262 22.467 10.253 23.392 25.218 39.869 15.923 17.53 23.531 29.569 20.469 63.297h17.217z" fill="#e8c290" fill-rule="evenodd"/><path d="m92.372 464.255h99.377v36.743h-99.377z" fill="#57a4ff"/><path d="m92.371 464.255h14.522v36.743h-14.522z" fill="#3b96ff"/><path d="m362.923 190.631 14.93 6.193 11.946-8.011 16.513 16.513-8.011 11.945 6.193 14.93 14.102 2.781v23.352l-14.102 2.781-6.193 14.93 8.011 11.945-16.513 16.513-11.946-8.011-14.93 6.193-2.78 14.102h-23.353l-2.78-14.102-14.93-6.193-11.946 8.011-16.513-16.513 8.011-11.945-6.193-14.93-14.102-2.781v-23.352l14.102-2.781 6.193-14.93-8.011-11.945 16.513-16.513 11.946 8.011 14.93-6.193 2.78-14.102h23.353z" fill="#ffbf29" fill-rule="evenodd"/><path d="m362.924 190.631 14.929 6.193 5.075 2.105 10.168-6.819 13.216 13.216-8.011 11.945 6.193 14.93 14.102 2.781v23.352l-14.102 2.781-6.193 14.93 8.011 11.945-13.216 13.216-10.168-6.819-5.075 2.105-14.929 6.193-2.781 14.102h-17.674l-3.33-16.884-15.536-6.445-4.523 3.034-7.03 4.714-13.216-13.215 6.763-10.085-6.413-15.461-6.745-1.33-5.889-1.161v-13.296-13.296l12.634-2.491 6.413-15.461-6.763-10.085 13.216-13.215 11.553 7.748 15.536-6.445 3.33-16.884h17.674z" fill="#ffd064" fill-rule="evenodd"/><circle cx="348.467" cy="246.658" fill="#ebf4ff" r="36.301" transform="matrix(.944 -.331 .331 .944 -62.002 129.25)"/><path d="m178.031 190.631 14.93 6.193 11.946-8.011 16.512 16.513-8.01 11.945 6.192 14.93 14.102 2.781v23.352l-14.102 2.781-6.192 14.93 8.01 11.945-16.512 16.513-11.946-8.011-14.93 6.193-2.781 14.102h-23.352l-2.781-14.102-14.929-6.193-11.946 8.011-16.513-16.513 8.011-11.945-6.193-14.93-14.102-2.781v-23.352l14.102-2.781 6.193-14.93-8.011-11.945 16.513-16.513 11.946 8.011 14.929-6.193 2.781-14.102h23.352z" fill="#268bff" fill-rule="evenodd"/><path d="m178.031 190.631 14.93 6.193 5.074 2.105 10.168-6.819 13.216 13.216-8.01 11.945 6.193 14.93 14.101 2.781v23.352l-14.101 2.781-6.193 14.93 8.01 11.945-13.216 13.216-10.168-6.819-5.074 2.105-14.93 6.193-2.781 14.102h-17.674l-3.329-16.884-15.536-6.445-4.523 3.034-7.03 4.714-13.216-13.215 6.763-10.085-6.414-15.461-6.744-1.33-5.889-1.161v-13.296-13.296l12.633-2.491 6.414-15.461-6.763-10.085 13.216-13.215 11.553 7.748 15.536-6.445 3.329-16.884h17.674z" fill="#57a4ff" fill-rule="evenodd"/><circle cx="163.574" cy="246.658" fill="#ebf4ff" r="36.301" transform="matrix(.957 -.29 .29 .957 -64.459 57.985)"/><path d="m247.743 171.824h16.554v176.684h-16.554z" fill="#57a4ff"/><path d="m247.743 171.824h6.962v176.684h-6.962z" fill="#3b96ff"/><path d="m274.233 28.763 18.808 7.801 15.048-10.091 20.802 20.802-10.092 15.048 7.802 18.808 17.765 3.503v29.419l-17.765 3.503-7.802 18.807 10.092 15.049-20.802 20.802-15.048-10.092-18.808 7.802-3.503 17.765h-29.419l-3.503-17.765-18.807-7.802-15.049 10.092-20.802-20.802 10.092-15.049-7.802-18.807-17.765-3.503v-29.419l17.765-3.503 7.802-18.808-10.092-15.048 20.802-20.802 15.049 10.091 18.807-7.801 3.503-17.765h29.419z" fill="#8aabdb" fill-rule="evenodd"/><path d="m274.233 28.763 18.808 7.801 6.392 2.652 12.809-8.59 16.649 16.649-10.092 15.048 7.802 18.808 17.765 3.503v29.419l-17.765 3.503-7.802 18.807 10.092 15.049-16.649 16.649-12.809-8.59-6.392 2.651-18.808 7.802-3.503 17.765h-22.265l-4.195-21.27-19.571-8.118-5.699 3.821-8.855 5.939-16.649-16.649 8.52-12.704-8.08-19.477-8.496-1.675-7.419-1.463v-16.749-16.75l15.915-3.138 8.08-19.477-8.52-12.704 16.649-16.649 14.554 9.76 19.571-8.118 4.195-21.27h22.265z" fill="#9dbbe8" fill-rule="evenodd"/><circle cx="256.021" cy="99.343" fill="#ebf4ff" r="45.73"/><path d="m163.553 277.962c-17.265 0-31.303-14.042-31.303-31.303s14.037-31.298 31.303-31.298 31.308 14.043 31.308 31.298-14.052 31.303-31.308 31.303zm0-72.602c-22.771 0-41.304 18.527-41.304 41.299s18.532 41.304 41.304 41.304 41.308-18.528 41.308-41.304-18.532-41.299-41.308-41.299zm65.125 48.867v-15.131l-10.068-1.985c-1.638-.328-3.011-1.45-3.651-2.992l-6.19-14.929c-.641-1.546-.467-3.309.472-4.702l5.718-8.531-10.699-10.699-8.527 5.723c-1.392.93-3.165 1.108-4.702.462l-14.929-6.19c-1.551-.641-2.674-2.014-2.992-3.652l-1.99-10.068h-15.131l-1.99 10.068c-.323 1.638-1.44 3.011-2.991 3.652l-14.929 6.19c-1.542.641-3.31.467-4.702-.462l-8.527-5.723-10.699 10.699 5.718 8.531c.93 1.392 1.108 3.156.467 4.702l-6.185 14.929c-.655 1.542-2.023 2.664-3.661 2.992l-10.073 1.985v15.131l10.073 1.985c1.638.323 3.006 1.445 3.661 2.991l6.185 14.929c.641 1.546.462 3.309-.467 4.702l-5.718 8.532 10.699 10.699 8.527-5.723c1.392-.93 3.16-1.108 4.702-.467l14.929 6.195c1.551.641 2.669 2.009 2.991 3.652l1.99 10.068h15.131l1.99-10.068c.318-1.643 1.441-3.011 2.992-3.652l14.929-6.195c1.537-.641 3.309-.462 4.702.467l8.527 5.723 10.699-10.699-5.718-8.532c-.939-1.392-1.113-3.155-.472-4.702l6.19-14.929c.641-1.546 2.014-2.669 3.651-2.991zm5.969-24.149-11.475-2.264-4.143-9.982 6.518-9.721c1.334-1.985 1.074-4.63-.617-6.32l-16.509-16.509c-1.691-1.691-4.34-1.951-6.32-.617l-9.721 6.518-9.982-4.143-2.259-11.475c-.467-2.341-2.52-4.032-4.909-4.032h-23.349c-2.389 0-4.451 1.691-4.909 4.032l-2.26 11.475-9.981 4.143-9.721-6.518c-1.99-1.334-4.639-1.074-6.32.617l-16.518 16.509c-1.691 1.691-1.942 4.34-.612 6.32l6.513 9.721-4.143 9.982-11.47 2.264c-2.351.463-4.042 2.519-4.042 4.909v23.35c0 2.39 1.691 4.446 4.042 4.909l11.47 2.259 4.143 9.981-6.513 9.721c-1.329 1.985-1.079 4.634.612 6.32l16.518 16.514c1.691 1.691 4.331 1.946 6.32.617l9.721-6.518 9.981 4.143 2.26 11.475c.458 2.341 2.519 4.032 4.909 4.032h23.349c2.389 0 4.442-1.691 4.909-4.032l2.259-11.475 9.982-4.143 9.721 6.518c1.98 1.329 4.63 1.074 6.32-.617l16.509-16.514c1.691-1.686 1.951-4.336.617-6.32l-6.518-9.721 4.143-9.981 11.475-2.259c2.341-.463 4.032-2.519 4.032-4.909v-23.35c0-2.389-1.691-4.446-4.032-4.909zm82.501 16.581c0-17.256 14.042-31.298 31.303-31.298s31.298 14.043 31.298 31.298-14.038 31.303-31.298 31.303-31.303-14.042-31.303-31.303zm72.602 0c0-22.772-18.532-41.299-41.299-41.299s-41.304 18.527-41.304 41.299 18.523 41.304 41.304 41.304 41.299-18.528 41.299-41.304zm-73.469 45.683c1.378-.93 3.15-1.108 4.697-.467l14.919 6.195c1.551.641 2.674 2.009 2.991 3.652l1.99 10.068h15.131l1.989-10.068c.323-1.643 1.441-3.011 2.992-3.652l14.929-6.195c1.542-.641 3.31-.462 4.702.467l8.527 5.723 10.699-10.699-5.718-8.532c-.93-1.392-1.108-3.155-.467-4.702l6.2-14.929c.641-1.546 2.009-2.669 3.647-2.991l10.073-1.985v-15.131l-10.073-1.985c-1.638-.328-3.006-1.45-3.647-2.992l-6.2-14.929c-.641-1.546-.463-3.309.467-4.702l5.718-8.531-10.699-10.699-8.527 5.723c-1.392.93-3.16 1.108-4.702.462l-14.929-6.19c-1.551-.641-2.669-2.014-2.992-3.652l-1.989-10.068h-15.131l-1.99 10.068c-.318 1.638-1.44 3.011-2.991 3.652l-14.919 6.19c-1.546.641-3.319.467-4.697-.462l-8.541-5.723-10.699 10.699 5.718 8.531c.939 1.392 1.113 3.156.472 4.702l-6.19 14.929c-.641 1.542-2.014 2.664-3.652 2.992l-10.068 1.985v15.131l10.068 1.985c1.638.323 3.011 1.445 3.652 2.991l6.19 14.929c.641 1.546.467 3.309-.472 4.702l-5.718 8.532 10.699 10.699zm13.32 13.941 2.26 11.475c.467 2.341 2.52 4.032 4.909 4.032h23.35c2.389 0 4.451-1.691 4.909-4.032l2.259-11.475 9.982-4.143 9.721 6.518c1.989 1.329 4.629 1.074 6.32-.617l16.519-16.514c1.691-1.686 1.941-4.336.612-6.32l-6.513-9.721 4.143-9.981 11.47-2.259c2.351-.463 4.042-2.519 4.042-4.909v-23.35c0-2.389-1.691-4.446-4.042-4.909l-11.47-2.264-4.143-9.982 6.513-9.721c1.33-1.985 1.079-4.63-.612-6.32l-16.519-16.509c-1.691-1.691-4.331-1.951-6.32-.617l-9.721 6.518-9.982-4.143-2.259-11.475c-.458-2.341-2.519-4.032-4.909-4.032h-23.35c-2.389 0-4.442 1.691-4.909 4.032l-2.26 11.475-9.981 4.143-9.721-6.518c-1.98-1.334-4.629-1.074-6.32.617l-16.509 16.509c-1.691 1.691-1.951 4.34-.617 6.32l6.518 9.721-4.143 9.982-11.475 2.264c-2.341.463-4.032 2.519-4.032 4.909v23.35c0 2.39 1.691 4.446 4.032 4.909l11.475 2.259 4.143 9.981-6.518 9.721c-1.334 1.985-1.074 4.634.617 6.32l16.509 16.514c1.691 1.691 4.331 1.946 6.32.617l9.721-6.518zm-73.599-166.207c-22.463 0-40.735-18.272-40.735-40.73s18.272-40.73 40.735-40.73 40.73 18.272 40.73 40.73-18.272 40.73-40.73 40.73zm50.726-40.73c0-27.974-22.757-50.731-50.726-50.731s-50.731 22.757-50.731 50.731 22.757 50.731 50.731 50.731 50.726-22.757 50.726-50.731zm-40.128 83.349h-21.201l-2.707-13.734c-.323-1.643-1.44-3.011-2.991-3.652l-18.802-7.804c-1.547-.641-3.31-.463-4.697.467l-11.643 7.804-14.987-14.992 7.799-11.634c.939-1.388 1.108-3.155.467-4.702l-7.799-18.807c-.636-1.546-2.009-2.669-3.647-2.991l-13.744-2.707v-21.196l13.744-2.707c1.638-.323 3.011-1.445 3.647-2.992l7.799-18.807c.641-1.546.472-3.309-.467-4.702l-7.799-11.634 14.987-14.987 11.643 7.799c1.387.935 3.15 1.108 4.697.467l18.802-7.804c1.551-.641 2.669-2.009 2.991-3.647l2.707-13.734h21.201l2.707 13.734c.323 1.638 1.441 3.006 2.992 3.647l18.802 7.804c1.546.641 3.319.467 4.697-.467l11.643-7.799 14.987 14.987-7.799 11.634c-.939 1.392-1.108 3.156-.467 4.702l7.799 18.807c.641 1.546 2.009 2.669 3.652 2.992l13.739 2.707v21.196l-13.739 2.707c-1.643.323-3.011 1.445-3.652 2.991l-7.799 18.807c-.641 1.547-.472 3.314.467 4.702l7.799 11.634-14.987 14.992-11.643-7.804c-1.388-.935-3.151-1.108-4.697-.467l-18.802 7.804c-1.551.641-2.669 2.009-2.992 3.652zm-7.322 160.816h-6.556v-150.82h6.556zm16.331-154.852 2.992-15.141 13.859-5.747 12.819 8.599c1.989 1.329 4.634 1.069 6.32-.617l20.811-20.801c1.681-1.691 1.941-4.336.612-6.32l-8.599-12.824 5.747-13.864 15.141-2.987c2.351-.458 4.042-2.515 4.042-4.904v-29.419c0-2.385-1.691-4.442-4.042-4.904l-15.141-2.982-5.747-13.864 8.599-12.824c1.33-1.98 1.079-4.629-.612-6.32l-20.811-20.801c-1.686-1.686-4.331-1.946-6.32-.617l-12.819 8.599-13.859-5.747-2.992-15.141c-.458-2.341-2.51-4.032-4.899-4.032h-29.419c-2.389 0-4.442 1.691-4.899 4.032l-2.992 15.141-13.859 5.747-12.819-8.599c-1.99-1.33-4.63-1.07-6.32.617l-20.81 20.801c-1.691 1.691-1.942 4.34-.612 6.32l8.604 12.829-5.752 13.859-15.141 2.982c-2.351.462-4.042 2.519-4.042 4.904v29.419c0 2.389 1.691 4.446 4.042 4.904l15.141 2.987 5.752 13.864-8.604 12.824c-1.329 1.985-1.079 4.629.612 6.32l20.81 20.801c1.691 1.686 4.331 1.946 6.32.617l12.819-8.599 13.859 5.747 2.992 15.141c.458 2.346 2.51 4.032 4.899 4.032h1.431v155.82c0 2.76 2.24 5.001 5 5.001h16.557c2.76 0 5-2.24 5-5.001v-155.82h1.431c2.389 0 4.442-1.686 4.899-4.032zm-88.88 307.34h-89.231v-26.683h89.231zm-96.736-94.824c14.476 15.95 23.417 28.176 22.29 58.14h59.778c-3.242-18.369-4.779-31.038-4.779-53.077 0-13.262-.79-26.924-10.261-35.417-16.654-14.924-22.579-20.57-38.312-37.643-6.547-7.096-13.686-8.816-19.1-4.6-2.568 1.999-3.849 4.292-4.037 7.226-.882 13.296 19.727 34.198 29.641 44.238 1.657 1.691 3.097 3.15 4.268 4.384 1.888 2.009 1.802 5.174-.212 7.072-1.999 1.893-5.169 1.802-7.057-.207-1.113-1.171-2.519-2.597-4.124-4.225-16.287-16.519-33.577-35.513-32.497-51.916.101-1.561.361-3.049.79-4.47-8.589-14.804-24.197-50.264-31.64-74.341-2.428-7.881-8.96-11.08-13.869-9.611-4.822 1.44-6.431 7.192-4.181 15.02l29.198 101.525c5.911 18.267 8.353 20.902 18.604 31.939 1.638 1.763 3.459 3.719 5.502 5.964zm101.737 58.14h-9.509c-3.348-18.754-4.938-31.134-4.938-53.077 0-14.842-1.05-31.616-13.594-42.86-16.36-14.673-22.189-20.218-37.628-36.973-12.308-13.363-25.262-11.432-32.599-5.718-.28.217-.554.438-.809.665-8.58-16.123-21.933-47.162-28.355-67.963-4.258-13.802-16.707-19.101-26.279-16.244-8.618 2.568-15.348 12.024-10.94 27.367l29.222 101.602c.019.048.029.101.048.154 6.609 20.445 10.193 24.299 20.811 35.744 1.619 1.744 3.411 3.671 5.419 5.887 14.293 15.729 20.792 25.826 19.703 51.415h-9.784c-2.756 0-5 2.235-5 5v36.684c0 2.765 2.245 5 5 5h99.232c2.76 0 5-2.235 5-5v-36.684c0-2.765-2.24-5-5-5zm283.581-197.568c2.25-7.828.65-13.58-4.181-15.02-4.909-1.464-11.441 1.729-13.869 9.611-7.38 23.908-23.089 59.595-31.64 74.341.428 1.421.689 2.91.79 4.47 1.079 16.403-16.21 35.398-32.498 51.916-1.604 1.628-3.011 3.054-4.124 4.225-1.888 2.009-5.049 2.1-7.057.207-2.014-1.898-2.1-5.063-.212-7.072 1.171-1.233 2.611-2.693 4.273-4.384 9.909-10.04 30.517-30.942 29.646-44.238-.197-2.933-1.479-5.227-4.047-7.226-5.41-4.215-12.549-2.495-19.101 4.6-15.729 17.073-21.659 22.718-38.312 37.643-9.471 8.493-10.261 22.155-10.261 35.417 0 22.039-1.537 34.709-4.779 53.077h59.783c-1.132-29.964 7.809-42.19 22.285-58.14 2.042-2.245 3.863-4.201 5.501-5.964 10.251-11.036 12.694-13.672 18.605-31.939l29.198-101.525zm-60.814 234.251h-89.226v-26.683h89.226zm59.484-258.853c-9.572-2.857-22.02 2.442-26.278 16.244-6.373 20.642-19.794 51.834-28.35 67.963-.26-.227-.535-.448-.814-.665-7.337-5.713-20.291-7.645-32.599 5.718-15.439 16.755-21.269 22.299-37.628 36.973-12.539 11.244-13.59 28.018-13.59 42.86 0 21.943-1.595 34.323-4.943 53.077h-9.509c-2.76 0-5 2.235-5 5v36.684c0 2.765 2.24 5 5 5h99.232c2.756 0 5-2.235 5-5v-36.684c0-2.765-2.245-5-5-5h-9.784c-1.089-25.59 5.41-35.687 19.703-51.415 2.009-2.216 3.801-4.143 5.42-5.887 10.617-11.446 14.201-15.3 20.811-35.744.019-.053.029-.106.048-.154l29.222-101.602c4.408-15.343-2.322-24.8-10.94-27.367z" fill-rule="evenodd"/></svg>