<svg id="Layer_1" enable-background="new 0 0 512 512" height="512" viewBox="0 0 512 512" width="512" xmlns="http://www.w3.org/2000/svg"><path d="m404.852 159.614c-.883 0-1.767.012-2.647.037-15.012-37.341-51.437-62.123-92.032-62.123-14.589 0-29.021 3.224-42.108 9.369-17.007-32.529-50.856-53.223-87.92-53.223-54.671 0-99.149 44.425-99.149 99.031 0 3.379.181 6.808.537 10.245-42.928 11.445-73.533 50.826-73.533 95.695 0 54.606 44.479 99.031 99.149 99.031h36.366c4.158 77.768 81.805 123.667 112.485 131.873 30.68-8.206 108.327-54.105 112.485-131.873h36.366c54.671 0 99.148-44.425 99.148-99.031s-44.477-99.031-99.147-99.031z" fill="#c0dafc"/><g fill="#e2e7f6"><path d="m363.824 67.686c-10.979-5.28-23.374-6.085-34.901-2.271-3.146 1.042-4.852 4.436-3.811 7.582s4.438 4.853 7.582 3.811c8.559-2.833 17.768-2.231 25.922 1.689 6.334 3.058 11.522 7.888 15.005 13.97 1.108 1.936 3.131 3.02 5.213 3.02 1.011 0 2.035-.256 2.976-.794 2.876-1.647 3.872-5.313 2.226-8.188-4.692-8.195-11.679-14.701-20.212-18.819z"/><path d="m419.297 66.312c-8.789-15.313-21.861-27.476-37.809-35.175-20.504-9.872-43.69-11.382-65.287-4.255-3.147 1.039-4.856 4.431-3.818 7.578 1.038 3.146 4.43 4.855 7.578 3.817 18.633-6.148 38.634-4.844 56.316 3.669 13.754 6.641 25.031 17.132 32.611 30.339 1.109 1.933 3.131 3.014 5.21 3.014 1.013 0 2.039-.257 2.98-.797 2.875-1.649 3.868-5.316 2.219-8.19z"/></g><path d="m143.33 266.407v84.747c0 81.727 81.142 129.962 112.67 138.394 31.529-8.433 112.67-56.668 112.67-138.394v-84.747c-18.384 0-54.254-5.233-62.818-34.06h-49.852-49.853c-8.563 28.827-44.433 34.06-62.817 34.06z" fill="#4c6cb5"/><path d="m305.853 232.347h-18.667c6.287 34.349 42.354 45.727 60.685 45.727v84.747c0 56.833-39.237 97.463-73.744 119.781 36.999-17.551 94.543-62.622 94.543-131.448v-84.747c-18.383 0-54.253-5.233-62.817-34.06z" fill="#3d62ad"/><g><g fill="#a8cdf4"><path d="m458.798 175.595c12.308 16.499 19.602 36.939 19.602 59.049 0 54.606-44.478 99.031-99.148 99.031h-10.582v17.478c0 2.2-.07 4.37-.185 6.522h36.366c54.671 0 99.148-44.425 99.148-99.031.001-34.748-18.014-65.37-45.201-83.049z"/><path d="m143.33 351.154v-17.478h-61.781c-19.88 0-38.41-5.879-53.947-15.982 18.09 24.248 47.013 39.982 79.547 39.982h36.366c-.115-2.151-.185-4.322-.185-6.522z"/></g></g><path d="m208.064 371.07c-5.509-5.353-5.629-14.144-.269-19.647 5.33-5.502 14.162-5.622 19.672-.269l15.929 15.46 41.05-40.639c5.449-5.413 14.252-5.383 19.672.06 5.419 5.413 5.389 14.234-.06 19.647l-50.751 50.238c-5.389 5.323-14.073 5.413-19.522.12z" fill="#e2e7f6"/></svg>