<svg id="Layer_1" enable-background="new 0 0 512 512" height="512" viewBox="0 0 512 512" width="512" xmlns="http://www.w3.org/2000/svg"><path clip-rule="evenodd" d="m452.429 205.489v-88.179c0-8.026-4.399-14.894-11.69-18.249l-176.341-81.156c-5.52-2.54-11.277-2.54-16.797 0l-176.34 81.156c-7.291 3.355-11.69 10.223-11.69 18.249v88.179c0 250.368 168.169 286.284 193.302 290.254 2.175.343 4.079.343 6.254 0 25.133-3.97 193.302-39.886 193.302-290.254zm-196.429 72.578c4.677 0 8.469 3.792 8.469 8.469s-3.792 8.469-8.469 8.469-8.469-3.792-8.469-8.469 3.791-8.469 8.469-8.469zm0-61.073c4.659 0 8.47 3.811 8.47 8.47v31.795c0 4.659-3.811 8.47-8.47 8.47s-8.47-3.811-8.47-8.47v-31.795c0-4.659 3.811-8.47 8.47-8.47zm0-23.904c34.743 0 62.91 28.167 62.91 62.91s-28.167 62.91-62.91 62.91-62.91-28.167-62.91-62.91 28.167-62.91 62.91-62.91zm0 10c29.222 0 52.91 23.688 52.91 52.91s-23.687 52.91-52.91 52.91-52.91-23.687-52.91-52.91c0-29.222 23.687-52.91 52.91-52.91zm13.923-80.362c9.104.946 16.112 8.048 16.959 17.153l1.733 18.645c.565 6.079 7.722 9.149 12.506 5.114l14.307-12.068c6.965-5.876 16.983-6.025 24.106-.338 7.536 6.016 14.446 12.871 20.544 20.381 5.759 7.093 5.7 17.08-.135 24.111l-11.947 14.395c-3.842 4.63-1.142 11.928 5.213 12.467l18.665 1.584c9.103.772 16.282 7.764 17.293 16.845 1.054 9.469 1.093 19.395.105 28.905-.945 9.103-8.048 16.112-17.153 16.959l-18.646 1.733c-6.078.564-9.15 7.722-5.114 12.506l12.068 14.307c5.874 6.964 6.023 16.985.338 24.107-6.015 7.535-12.872 14.448-20.381 20.544-7.093 5.759-17.08 5.7-24.111-.135l-14.395-11.947c-4.708-3.906-11.937-1.034-12.467 5.213l-1.584 18.665c-.772 9.103-7.763 16.282-16.845 17.293-9.471 1.055-19.393 1.093-28.905.105-9.103-.945-16.112-8.047-16.959-17.153l-1.733-18.646c-.565-6.079-7.722-9.149-12.506-5.114l-14.307 12.068c-6.964 5.874-16.985 6.023-24.107.338-7.534-6.014-14.448-12.874-20.544-20.381-5.759-7.093-5.7-17.08.135-24.111l11.948-14.396c3.841-4.629 1.143-11.928-5.213-12.467l-18.665-1.584c-9.103-.772-16.282-7.762-17.293-16.845-1.055-9.471-1.093-19.393-.105-28.905.945-9.104 8.048-16.112 17.153-16.959l18.646-1.733c6.078-.564 9.149-7.722 5.114-12.506l-12.068-14.307c-5.876-6.965-6.024-16.983-.338-24.107 6.014-7.534 12.873-14.448 20.381-20.544 7.093-5.759 17.08-5.7 24.111.135l14.405 11.955c4.637 3.848 11.923 1.084 12.458-5.22l1.584-18.665c.772-9.103 7.762-16.282 16.845-17.293 9.468-1.053 19.395-1.091 28.904-.104zm4.495 12.537c1.413 1.429 2.341 3.348 2.542 5.515l1.733 18.645c1.325 14.258 18.042 20.969 28.874 11.833l14.307-12.068c3.358-2.832 8.019-2.882 11.45-.143 7.023 5.606 13.376 11.906 19.021 18.858 2.756 3.395 2.737 8.089-.056 11.454l-11.963 14.415c-9.191 11.077-1.894 27.591 12.064 28.776l18.665 1.584c4.362.37 7.707 3.629 8.191 7.978 1.004 9.014 1.039 17.807.105 26.796-.45 4.332-3.785 7.649-8.13 8.052l-18.646 1.733c-14.258 1.325-20.969 18.042-11.833 28.873l12.068 14.307c2.832 3.358 2.882 8.019.143 11.451-5.606 7.023-11.906 13.377-18.858 19.02-3.395 2.757-8.089 2.737-11.455-.057l-14.415-11.963c-10.97-9.102-27.574-2.096-28.776 12.064l-1.584 18.665c-.37 4.362-3.629 7.707-7.978 8.192-9.015 1.004-17.806 1.039-26.796.105-4.332-.45-7.648-3.785-8.052-8.13l-1.733-18.646c-1.325-14.259-18.043-20.968-28.873-11.832l-14.307 12.068c-3.358 2.833-8.019 2.882-11.45.143-7.022-5.605-13.377-11.908-19.021-18.858-2.756-3.395-2.736-8.089.057-11.454l11.963-14.415c9.202-11.091 1.912-27.59-12.064-28.776l-18.665-1.584c-4.363-.37-7.707-3.629-8.192-7.978-1.004-9.015-1.039-17.805-.105-26.796.45-4.332 3.785-7.649 8.13-8.052l18.646-1.733c14.257-1.325 20.969-18.042 11.832-28.873l-12.068-14.307c-2.833-3.358-2.882-8.019-.143-11.451 5.604-7.021 11.909-13.379 18.858-19.021 3.395-2.756 8.089-2.736 11.454.056l14.405 11.955c11.081 9.197 27.593 1.992 28.786-12.056l1.584-18.665c.37-4.362 3.629-7.707 7.978-8.192 9.011-1.003 17.81-1.039 26.796-.105 2.172.227 4.089 1.18 5.511 2.617zm143.011-8.414v78.638c0 76.203-16.753 158.386-75.664 211.543-22.921 20.682-55.205 38.31-85.766 43.754-30.561-5.444-62.846-23.073-85.766-43.754-58.91-53.158-75.664-135.338-75.664-211.543v-78.638l161.431-74.293zm-159.339-84.317 166.124 76.454c1.88.719 3.215 2.539 3.215 4.672v81.83c0 79.137-17.889 163.835-78.984 218.964-24.449 22.061-58.868 40.698-91.494 46.304-.575.112-1.18.124-1.792.019-32.662-5.582-67.133-24.241-91.605-46.323-61.095-55.129-78.984-139.828-78.984-218.965v-81.83c.001-1.886 1.085-3.69 2.91-4.531l166.43-76.594c1.28-.59 2.8-.637 4.18 0z" fill="#f2626b" fill-rule="evenodd"/></svg>