<?xml version="1.0" encoding="iso-8859-1"?>
<!-- Generator: Adobe Illustrator 19.0.0, SVG Export Plug-In . SVG Version: 6.00 Build 0)  -->
<svg version="1.1" id="Capa_1" xmlns="http://www.w3.org/2000/svg" xmlns:xlink="http://www.w3.org/1999/xlink" x="0px" y="0px"
	 viewBox="0 0 512 512" style="enable-background:new 0 0 512 512;" xml:space="preserve">
<path style="fill:#E4EAF8;" d="M143.563,368.602c-3.025-2.995-3.05-7.875-0.054-10.9l34.255-34.597
	c2.995-3.026,7.875-3.049,10.9-0.054c3.025,2.995,3.05,7.875,0.054,10.9l-34.255,34.598
	C151.471,371.57,146.591,371.598,143.563,368.602z"/>
<path style="fill:#54A0FF;" d="M178.621,333.301c-76.147-76.147-76.147-200.045-0.001-276.19
	c76.147-76.147,200.046-76.147,276.191-0.001s76.146,200.045-0.001,276.191C378.665,409.446,254.767,409.446,178.621,333.301z"/>
<path style="fill:#338DEF;" d="M199.174,333.301c-76.147-76.147-76.147-200.045-0.001-276.19
	C234.637,21.645,280.46,2.707,326.992,0.276C273.613-2.511,219.301,16.428,178.62,57.11c-76.146,76.146-76.146,200.044,0.001,276.19
	c40.682,40.682,94.994,59.621,148.371,56.833C280.461,387.703,234.638,368.765,199.174,333.301z"/>
<path style="fill:#ACD6FC;" d="M316.717,356.354c-88.88,0-160.931-72.052-160.931-160.932S227.837,34.49,316.717,34.49
	c88.881,0,160.931,72.052,160.931,160.931S405.597,356.354,316.717,356.354z"/>
<path style="fill:#8AC2FF;" d="M176.338,195.421c0-85.426,66.565-155.295,150.655-160.595c-3.399-0.214-6.824-0.336-10.276-0.336
	c-88.88,0-160.931,72.052-160.931,160.931c0,92.486,77.944,166.475,171.208,160.596
	C242.904,350.716,176.338,280.849,176.338,195.421z"/>
<path style="fill:#FF6B6B;" d="M23.758,506.057L6.381,488.68c-8.402-8.402-8.402-22.152,0-30.554l114.063-114.063
	c4.665-4.665,12.298-4.665,16.963,0l30.099,30.099c4.665,4.665,4.665,12.298,0,16.963L52.571,506.057
	C44.648,513.98,31.681,513.98,23.758,506.057z"/>
<g>
	<path style="fill:#EE5253;" d="M19.042,474.524l117.991-117.991c2.538-2.538,5.929-3.719,9.273-3.571l-8.661-8.661
		c-4.796-4.796-12.644-4.796-17.44,0L6.811,457.695c-8.639,8.639-8.639,22.775,0,31.415l6.41,6.41
		C11.449,488.224,13.374,480.193,19.042,474.524z"/>
	
		<rect x="72.957" y="389.881" transform="matrix(-0.7071 -0.7071 0.7071 -0.7071 -105.2557 767.0641)" style="fill:#EE5253;" width="66.558" height="30.9"/>
</g>
<rect x="74.525" y="378.796" transform="matrix(0.7071 -0.7071 0.7071 0.7071 -248.7612 177.5778)" style="fill:#D83941;" width="30.9" height="20.548"/>
<path style="fill:#576574;" d="M255.131,344.749V176.38h-51.255c-4.584,0-8.299,3.716-8.299,8.299V302.06
	C211.756,320.521,232.099,335.224,255.131,344.749z"/>
<path style="fill:#15BA8B;" d="M314.685,356.876V117.893h-29.777c0,0-12.67,0-21.481,0c-4.584,0-8.297,3.716-8.297,8.299v218.556
	C273.515,352.351,293.61,356.641,314.685,356.876z"/>
<path style="fill:#FECA57;" d="M374.24,346.213V125.362V59.406h-29.777h-21.478c-4.584,0-8.299,3.716-8.299,8.3v57.657l0,0v231.515
	C335.508,357.105,355.427,353.456,374.24,346.213z"/>
<path style="fill:#EE5253;" d="M433.793,306.094V8.991c0-4.458-3.614-8.073-8.072-8.073h-21.705c0,0-12.669,0-21.48,0
	c-4.584,0-8.297,3.716-8.297,8.3v336.995C397.054,337.431,417.366,323.611,433.793,306.094z"/>
<path style="fill:#3E4B5A;" d="M216.145,183.652c0-3.133,1.737-5.858,4.3-7.272h-16.568c-4.584,0-8.299,3.716-8.299,8.299V302.06
	c6.259,7.142,13.148,13.712,20.567,19.647V183.652z"/>
<path style="fill:#11AA7B;" d="M275.699,124.136c0-2.492,1.102-4.722,2.841-6.243c-4.413,0-10.329,0-15.112,0
	c-4.584,0-8.297,3.716-8.297,8.3v218.556c6.643,2.748,13.513,5.055,20.567,6.902L275.699,124.136L275.699,124.136z"/>
<path style="fill:#F4B537;" d="M335.253,125.363L335.253,125.363V65.648c0-2.492,1.103-4.722,2.843-6.243h-15.111
	c-4.584,0-8.299,3.716-8.299,8.3v57.657l0,0v231.515c6.906,0.077,13.26-0.2,20.567-1.051L335.253,125.363L335.253,125.363z"/>
<path style="fill:#D83941;" d="M394.807,7.161c0-2.492,1.102-4.722,2.841-6.243c-4.413,0-10.329,0-15.112,0
	c-4.584,0-8.297,3.715-8.297,8.299v336.995c7.114-2.739,13.982-5.967,20.567-9.644L394.807,7.161L394.807,7.161z"/>
<g>
</g>
<g>
</g>
<g>
</g>
<g>
</g>
<g>
</g>
<g>
</g>
<g>
</g>
<g>
</g>
<g>
</g>
<g>
</g>
<g>
</g>
<g>
</g>
<g>
</g>
<g>
</g>
<g>
</g>
</svg>
