<svg id="Layer_1" enable-background="new 0 0 468 468" height="512" viewBox="0 0 468 468" width="512" xmlns="http://www.w3.org/2000/svg"><g><g><g><path d="m386.653 178.566v-52.114h-15.53c-12.288 0-23.209-7.531-27.89-18.881-.051-.124-.102-.247-.154-.37-4.733-11.365-2.386-24.434 6.327-33.138l10.979-10.968-36.885-36.85-10.979 10.968c-8.712 8.704-21.794 11.049-33.169 6.321-.123-.051-.247-.102-.371-.153-11.361-4.677-18.899-15.587-18.899-27.864v-15.517h-52.163v15.516c0 12.277-7.538 23.187-18.899 27.864-.124.051-.247.102-.371.153-11.376 4.729-24.457 2.384-33.169-6.321l-10.979-10.968-36.885 36.85 10.979 10.968c8.712 8.704 11.06 21.773 6.327 33.138-.051.123-.103.247-.154.37-4.682 11.351-15.602 18.881-27.89 18.881h-15.53v52.114h15.53c12.288 0 23.209 7.531 27.89 18.881.051.124.102.247.153.37 4.733 11.365 2.386 24.434-6.327 33.138l-10.979 10.969 36.885 36.85 10.979-10.968c8.712-8.704 21.794-11.049 33.17-6.321.123.051.247.102.371.153 11.361 4.677 18.899 15.587 18.899 27.864v15.516h52.163v-15.516c0-12.277 7.538-23.187 18.899-27.864.124-.051.247-.102.371-.153 11.376-4.729 24.457-2.384 33.17 6.321l10.979 10.968 36.885-36.85-10.979-10.969c-8.712-8.704-11.06-21.773-6.327-33.138.051-.123.103-.247.154-.37 4.682-11.351 15.602-18.881 27.89-18.881h15.529z" fill="#ffd629"/><g><g><g><path d="m235.015 92.158h-2.03c-44.415.887-77.916 57.444-77.916 57.444s33.501 56.558 77.916 57.444h2.03c44.415-.887 77.916-57.444 77.916-57.444s-33.501-56.557-77.916-57.444z" fill="#ff8cde"/><path d="m167.175 149.603s30.993-52.311 72.878-57.096c-1.663-.19-3.342-.314-5.038-.348h-2.03c-44.415.887-77.916 57.444-77.916 57.444s33.501 56.558 77.916 57.444h2.03c1.696-.034 3.375-.158 5.038-.348-41.885-4.786-72.878-57.096-72.878-57.096z" fill="#fd4cc8"/></g><g><ellipse cx="234" cy="149.603" fill="#f5f5f5" rx="38.07" ry="38.042"/><path d="m205.01 149.603c0-19.474 14.646-35.52 33.53-37.763-1.49-.177-3.002-.279-4.54-.279-21.025 0-38.07 17.032-38.07 38.042s17.044 38.042 38.07 38.042c1.537 0 3.05-.102 4.54-.279-18.884-2.244-33.53-18.289-33.53-37.763z" fill="#e3d7fe"/></g><g><ellipse cx="234" cy="149.603" fill="#00d5fe" rx="15.228" ry="15.217"/><path d="m227.852 149.603c0-6.824 4.495-12.598 10.688-14.529-1.434-.447-2.959-.688-4.54-.688-8.41 0-15.228 6.813-15.228 15.217s6.818 15.217 15.228 15.217c1.581 0 3.106-.241 4.54-.688-6.193-1.931-10.688-7.705-10.688-14.529z" fill="#11a7e9"/></g></g><g fill="#fff"><path d="m234 67.494c-1.104 0-2-.896-2-2v-21.843c0-1.104.896-2 2-2s2 .896 2 2v21.843c0 1.105-.896 2-2 2z"/><path d="m174.348 91.906c-.512 0-1.023-.195-1.414-.585l-15.456-15.445c-.781-.781-.782-2.047-.001-2.828.78-.782 2.046-.783 2.828-.001l15.456 15.445c1.364 1.633.401 3.173-1.413 3.414z"/><path d="m293.456 92.382c-1.814-.242-2.643-1.507-1.414-3.415l15.456-15.445c.78-.781 2.047-.781 2.828.001.781.781.78 2.047-.001 2.828l-15.456 15.445c-.39.391-.902.586-1.413.586z"/></g></g></g><g><g><path d="m287.318 468h-106.636l22.001-62.663h62.634z" fill="#6e4acf"/></g><g><g><path d="m397.054 414.904h-326.108c-4.418 0-8-3.582-8-8v-222.033c0-4.418 3.582-8 8-8h326.108c4.418 0 8 3.582 8 8v222.033c0 4.418-3.582 8-8 8z" fill="#915efd"/></g><g fill="#fff"><path d="m137.162 147.028h193.676v297.719h-193.676z" transform="matrix(0 1 -1 0 529.888 61.888)"/><path d="m271.832 224.757c0 3.341 2.71 6.049 6.053 6.049h53.469c3.343 0 6.053-2.708 6.053-6.049 0-3.341-2.71-6.049-6.053-6.049h-53.469c-3.343 0-6.053 2.708-6.053 6.049z" opacity=".5"/></g></g><g><g><path d="m365.648 243.406c-.207-1.719-1.16-2.361-2.858-1.927l-15.637 5.652c-1.039.375-1.577 1.522-1.201 2.561s1.522 1.575 2.561 1.201l9.74-3.52-39.343 55.121c-1.284-.568-2.703-.89-4.2-.89-2.6 0-4.969.959-6.786 2.53l-44.485-33.958c.682-1.368 1.076-2.902 1.076-4.532 0-5.659-4.628-10.247-10.337-10.247s-10.337 4.588-10.337 10.247c0 1.63.39 3.167 1.073 4.534l-44.481 33.955c-1.816-1.571-4.186-2.53-6.786-2.53-5.709 0-10.337 4.588-10.337 10.247 0 1.344.268 2.624.743 3.8l-43.559 28.158c-1.876-1.897-4.487-3.076-7.378-3.076-2.82 0-5.373 1.122-7.238 2.937l-40.737-27.452v4.864l38.45 25.911c-.523 1.225-.812 2.573-.812 3.987 0 4.974 3.577 9.118 8.319 10.049v31.698h4.035v-31.698c4.742-.931 8.319-5.074 8.319-10.049 0-1.344-.268-2.625-.743-3.801l43.559-28.157c1.428 1.444 3.281 2.47 5.36 2.878v70.826h4.035v-70.826c4.742-.931 8.319-5.074 8.319-10.049 0-1.629-.394-3.164-1.076-4.532l44.481-33.954c1.334 1.153 2.968 1.975 4.772 2.329v117.033h4.035v-117.036c1.802-.356 3.435-1.175 4.768-2.329l44.484 33.958c-.682 1.368-1.076 2.903-1.076 4.532 0 4.975 3.577 9.118 8.319 10.049v70.826h4.035v-70.826c4.742-.931 8.319-5.074 8.319-10.049 0-2.728-1.083-5.2-2.836-7.037l39.782-55.737.659 10.642c.038 1.469 1.154 1.932 2.12 1.873 1.103-.068 1.941-1.017 1.873-2.12z" fill="#00d5fe"/><g fill="#11a7e9"><path d="m192.538 311.85c0-4.013 2.333-7.478 5.722-9.16-1.39-.69-2.954-1.088-4.615-1.088-5.709 0-10.337 4.588-10.337 10.247s4.628 10.247 10.337 10.247c1.661 0 3.224-.398 4.615-1.088-3.389-1.68-5.722-5.144-5.722-9.158z"/><path d="m132.008 350.979c0-4.013 2.333-7.478 5.722-9.16-1.39-.69-2.954-1.088-4.615-1.088-5.709 0-10.337 4.588-10.337 10.247s4.628 10.247 10.337 10.247c1.661 0 3.224-.398 4.615-1.088-3.39-1.68-5.722-5.145-5.722-9.158z"/><path d="m253.069 265.644c0-4.013 2.333-7.478 5.722-9.16-1.39-.69-2.954-1.088-4.615-1.088-5.709 0-10.337 4.588-10.337 10.247s4.628 10.247 10.337 10.247c1.661 0 3.224-.398 4.615-1.088-3.389-1.68-5.722-5.145-5.722-9.158z"/><path d="m313.6 311.85c0-4.013 2.333-7.478 5.722-9.16-1.39-.69-2.954-1.088-4.615-1.088-5.709 0-10.337 4.588-10.337 10.247s4.628 10.247 10.337 10.247c1.661 0 3.224-.398 4.615-1.088-3.389-1.68-5.722-5.144-5.722-9.158z"/></g></g></g></g></g><g><g fill="#a1e032"><g><g><ellipse cx="10.035" cy="315.715" rx="4.035" ry="4.032"/><ellipse cx="10.035" cy="340.918" rx="4.035" ry="4.032"/><ellipse cx="10.035" cy="289.504" rx="4.035" ry="4.032"/></g><g><ellipse cx="10.035" cy="243.131" rx="4.035" ry="4.032"/><ellipse cx="10.035" cy="268.334" rx="4.035" ry="4.032"/><ellipse cx="10.035" cy="216.92" rx="4.035" ry="4.032"/></g><g><ellipse cx="33.239" cy="315.715" rx="4.035" ry="4.032"/><ellipse cx="33.239" cy="340.918" rx="4.035" ry="4.032"/><ellipse cx="33.239" cy="289.504" rx="4.035" ry="4.032"/></g><g><ellipse cx="33.239" cy="243.131" rx="4.035" ry="4.032"/><ellipse cx="33.239" cy="268.334" rx="4.035" ry="4.032"/><ellipse cx="33.239" cy="216.92" rx="4.035" ry="4.032"/></g></g><g><g><ellipse cx="434.761" cy="315.715" rx="4.035" ry="4.032"/><ellipse cx="434.761" cy="340.918" rx="4.035" ry="4.032"/><ellipse cx="434.761" cy="289.504" rx="4.035" ry="4.032"/></g><g><ellipse cx="434.761" cy="243.131" rx="4.035" ry="4.032"/><ellipse cx="434.761" cy="268.334" rx="4.035" ry="4.032"/><ellipse cx="434.761" cy="216.92" rx="4.035" ry="4.032"/></g><g><ellipse cx="457.965" cy="315.715" rx="4.035" ry="4.032"/><ellipse cx="457.965" cy="340.918" rx="4.035" ry="4.032"/><ellipse cx="457.965" cy="289.504" rx="4.035" ry="4.032"/></g><g><ellipse cx="457.965" cy="243.131" rx="4.035" ry="4.032"/><ellipse cx="457.965" cy="268.334" rx="4.035" ry="4.032"/><ellipse cx="457.965" cy="216.92" rx="4.035" ry="4.032"/></g></g></g><g><g><path d="m117.451 455.408 3.861 6.151c.822 1.309 2.752 1.246 3.486-.115l3.195-5.925c.201-.372.513-.672.894-.857l6.511-3.163c1.617-.785 1.476-3.132-.223-3.719l-6.06-2.093c-.519-.179-.943-.563-1.173-1.061l-3.079-6.674c-.7-1.516-2.835-1.574-3.616-.098l-3.718 7.024c-.236.445-.629.786-1.104.956l-5.565 1.99c-1.655.592-1.814 2.868-.258 3.684l6.078 3.187c.315.165.581.411.771.713z" fill="#cc1dab"/><path d="m339.398 455.408 3.861 6.151c.822 1.309 2.752 1.246 3.486-.115l3.195-5.925c.201-.372.513-.672.894-.857l6.511-3.163c1.617-.785 1.476-3.132-.223-3.719l-6.06-2.093c-.519-.179-.943-.563-1.173-1.061l-3.079-6.674c-.7-1.516-2.835-1.574-3.616-.098l-3.718 7.024c-.236.445-.629.786-1.104.956l-5.565 1.99c-1.655.592-1.814 2.868-.258 3.684l6.078 3.187c.315.165.581.411.771.713z" fill="#11a7e9"/></g><g fill="#fff"><path d="m281.593 123.188 5.992 9.546 5.148-9.546 11.477-5.576-11.477-3.964-5.148-11.157-5.992 11.32-10.634 3.801z"/><path d="m163.654 138.428 5.992 9.546 5.148-9.546 11.477-5.575-11.477-3.965-5.148-11.157-5.992 11.32-10.633 3.802z"/></g><g><g><path d="m12.793 117.206c0-3.65 1.893-7.142 5.134-8.824 3.589-1.862 6.047-5.612 6.047-9.924 0-4.313-2.458-8.063-6.047-9.924-3.242-1.681-5.134-5.174-5.134-8.824 0-7.486 7.96-12.481 14.586-8.987 9.965 5.254 16.773 15.715 16.773 27.735s-6.808 22.481-16.773 27.735c-6.626 3.494-14.586-1.501-14.586-8.987z" fill="#ff8cde"/><path d="m46.546 6.526c2.798 2.346 4.259 6.04 3.464 9.602-.88 3.944.415 8.236 3.721 11.008s7.761 3.301 11.495 1.75c3.373-1.401 7.267-.604 10.064 1.742 5.739 4.812 4.451 14.116-2.486 16.942-10.433 4.251-22.828 2.738-32.043-4.989s-12.857-19.661-10.48-30.666c1.581-7.317 10.527-10.2 16.265-5.389z" fill="#a1e032"/></g><g><path d="m455.207 117.206c0-3.65-1.893-7.142-5.134-8.824-3.589-1.862-6.047-5.612-6.047-9.924 0-4.313 2.458-8.063 6.047-9.924 3.242-1.681 5.134-5.174 5.134-8.824 0-7.486-7.96-12.481-14.586-8.987-9.965 5.254-16.773 15.715-16.773 27.735s6.808 22.481 16.773 27.735c6.626 3.494 14.586-1.501 14.586-8.987z" fill="#ff8cde"/><path d="m421.454 6.526c-2.798 2.346-4.259 6.04-3.464 9.602.88 3.944-.415 8.236-3.721 11.008s-7.761 3.301-11.495 1.75c-3.373-1.401-7.267-.604-10.064 1.742-5.739 4.812-4.451 14.116 2.486 16.942 10.433 4.251 22.828 2.738 32.043-4.989 9.215-7.726 12.858-19.662 10.481-30.667-1.582-7.316-10.528-10.199-16.266-5.388z" fill="#a1e032"/></g></g></g></g></g></svg>