<?xml version="1.0" encoding="utf-8"?>
<!-- Generator: Adobe Illustrator 21.1.0, SVG Export Plug-In . SVG Version: 6.00 Build 0)  -->
<svg version="1.1" id="Layer_1" xmlns="http://www.w3.org/2000/svg" xmlns:xlink="http://www.w3.org/1999/xlink" x="0px" y="0px"
	 viewBox="0 0 346 157" style="enable-background:new 0 0 346 157;" xml:space="preserve">
<style type="text/css">
	.st0{clip-path:url(#SVGID_2_);fill:#DC392D;}
	.st1{fill:#010101;}
	.st2{clip-path:url(#SVGID_4_);fill:#010101;}
	.st3{clip-path:url(#SVGID_4_);fill:#FFFFFF;}
	.st4{clip-path:url(#SVGID_4_);fill:none;stroke:#DC392D;stroke-miterlimit:10;}
</style>
<g>
	<defs>
		<rect id="SVGID_1_" x="-106" y="-35.6" width="500" height="233.6"/>
	</defs>
	<clipPath id="SVGID_2_">
		<use xlink:href="#SVGID_1_"  style="overflow:visible;"/>
	</clipPath>
	<path class="st0" d="M111.5,99.5c0,6.4-2.3,8.6-8.6,8.6H16.4c-6.4,0-8.6-2.3-8.6-8.6V13.1c0-6.4,2.3-8.6,8.6-8.6h86.4
		c6.4,0,8.6,2.3,8.6,8.6V99.5z"/>
	<path class="st0" d="M224.5,99.5c0,6.4-2.3,8.6-8.6,8.6h-86.4c-6.4,0-8.6-2.3-8.6-8.6V13.1c0-6.4,2.3-8.6,8.6-8.6h86.4
		c6.4,0,8.6,2.3,8.6,8.6V99.5z"/>
	<path class="st0" d="M337.5,99.5c0,6.4-2.3,8.6-8.6,8.6h-86.4c-6.4,0-8.6-2.3-8.6-8.6V13.1c0-6.4,2.3-8.6,8.6-8.6h86.4
		c6.4,0,8.6,2.3,8.6,8.6V99.5z"/>
</g>
<path class="st1" d="M9.7,149.8H7.6l8.1-18h1.8l8.1,18h-2.1l-1.9-4.4h-10L9.7,149.8z M12.4,143.8h8.5l-4.2-9.6L12.4,143.8z"/>
<polygon class="st1" points="36,149.8 36,132 37.9,132 37.9,148.1 47.8,148.1 47.8,149.8 "/>
<polygon class="st1" points="62.7,140 62.7,141.8 53.3,141.8 53.3,148.1 63.8,148.1 63.8,149.8 51.4,149.8 51.4,132 63.8,132 
	63.8,133.7 53.3,133.7 53.3,140 "/>
<g>
	<defs>
		<rect id="SVGID_3_" x="-106" y="-35.6" width="500" height="233.6"/>
	</defs>
	<clipPath id="SVGID_4_">
		<use xlink:href="#SVGID_3_"  style="overflow:visible;"/>
	</clipPath>
	<path class="st2" d="M84.7,148.4c-2.8,1.2-5.5,1.8-8.1,1.8c-5.7,0-9.5-3.7-9.5-9.3c0-5.6,3.8-9.3,9.5-9.3c2.1,0,4.4,0.3,6.4,0.9
		l-0.4,1.7c-2.2-0.6-4.3-0.8-5.9-0.8c-4.6,0-7.7,3-7.7,7.5c0,4.5,3,7.6,7.6,7.6c1.9,0,4.2-0.4,6.3-1.2v-5.5h-7.1v-1.7h8.9V148.4z"/>
	<path class="st2" d="M89.7,149.8h-2.1l8.1-18h1.8l8.1,18h-2.1l-1.9-4.4h-10L89.7,149.8z M92.4,143.8h8.5l-4.2-9.6L92.4,143.8z"/>
	<polygon class="st2" points="109.2,149.8 109.2,132 111.1,132 111.1,148.1 121,148.1 121,149.8 	"/>
	<polygon class="st2" points="130.1,149.8 128.3,149.8 128.3,133.7 121.2,133.7 121.2,132 137.2,132 137.2,133.7 130.1,133.7 	"/>
	<polygon class="st2" points="151,140 151,141.8 141.5,141.8 141.5,148.1 152.1,148.1 152.1,149.8 139.7,149.8 139.7,132 152.1,132 
		152.1,133.7 141.5,133.7 141.5,140 	"/>
	<path class="st2" d="M170.9,134.2c-2.1-0.6-3.9-0.8-5.5-0.8c-5.1,0-8.1,3.1-8.1,7.5c0,4.6,3,7.6,7.8,7.6c1.6,0,3.7-0.3,6.2-1
		l0.3,1.6c-2.3,0.7-4.6,1.1-6.6,1.1c-5.9,0-9.7-3.7-9.7-9.3c0-5.6,3.8-9.3,9.8-9.3c2.1,0,4.1,0.3,6.1,0.9L170.9,134.2z"/>
	<polygon class="st2" points="188.6,149.8 188.6,141.8 177.8,141.8 177.8,149.8 175.9,149.8 175.9,132 177.8,132 177.8,140.1 
		188.6,140.1 188.6,132 190.5,132 190.5,149.8 	"/>
	<path class="st2" d="M216.9,134.2c-2.1-0.6-3.9-0.8-5.5-0.8c-5.1,0-8.1,3.1-8.1,7.5c0,4.6,3,7.6,7.8,7.6c1.6,0,3.7-0.3,6.2-1
		l0.3,1.6c-2.3,0.7-4.6,1.1-6.6,1.1c-5.9,0-9.7-3.7-9.7-9.3c0-5.6,3.8-9.3,9.8-9.3c2.1,0,4.1,0.3,6.1,0.9L216.9,134.2z"/>
	<path class="st2" d="M238.1,140.9c0,5.6-3.8,9.3-9.4,9.3c-5.6,0-9.4-3.7-9.4-9.3c0-5.6,3.8-9.3,9.4-9.3
		C234.3,131.6,238.1,135.3,238.1,140.9 M236.1,140.9c0-4.5-3-7.6-7.5-7.6c-4.4,0-7.4,3-7.4,7.6c0,4.5,3,7.6,7.4,7.6
		C233.1,148.5,236.1,145.4,236.1,140.9"/>
	<polygon class="st2" points="253,149.8 251.3,149.8 244.8,136 244,149.8 242.2,149.8 243.2,132 245,132 252.2,147.6 259.3,132 
		261.1,132 262.2,149.8 260.3,149.8 259.5,136 	"/>
	<path class="st2" d="M280.2,137.8c0,3.6-2.8,6-7,6H269v6.1h-1.9V132c2-0.1,4-0.2,6-0.2C277.4,131.8,280.2,134,280.2,137.8
		 M273.4,142.1c2.9,0,5-1.7,5-4.3c0-2.8-2-4.3-5-4.3c-1.4,0-2.8,0-4.4,0.1v8.5H273.4z"/>
	<path class="st2" d="M282,149.8h-2.1l8.1-18h1.8l8.1,18h-2.1l-1.9-4.4h-10L282,149.8z M284.6,143.8h8.5l-4.2-9.6L284.6,143.8z"/>
	<polygon class="st2" points="316.7,149.8 314.8,149.8 303.3,135 303.3,149.8 301.5,149.8 301.5,132 303.3,132 314.9,146.8 
		314.9,132 316.7,132 	"/>
	<polygon class="st2" points="319.6,132 321.7,132 328,141.5 334.3,132 336.4,132 329,143.4 329,149.8 327.1,149.8 327.1,143.4 	"/>
	<path class="st3" d="M147.4,67.9l7.9-0.7c0.4,3.1,1.3,5.7,2.7,7.8c1.4,2.1,3.5,3.8,6.4,5c2.9,1.3,6.2,1.9,9.9,1.9
		c3.3,0,6.2-0.5,8.6-1.4c2.4-1,4.2-2.3,5.4-3.9c0.6-0.7,1-1.6,1.3-2.5c0.3-0.9,0.5-1.9,0.5-2.9c0-2-0.6-3.8-1.7-5.3
		c-1.2-1.5-3.1-2.7-5.8-3.7c-1.4-0.6-5.2-1.7-11.3-3.1c-2.9-0.7-5.3-1.4-7.5-2.1c-2.1-0.7-3.7-1.3-4.9-1.9c-3.1-1.6-5.4-3.6-6.8-5.9
		c-1.5-2.5-2.3-5.2-2.3-8c0-3.2,0.9-6.2,2.8-9c1.9-2.8,4.5-5,8-6.4c3.5-1.5,7.4-2.2,11.7-2.2c2.4,0,4.5,0.2,6.6,0.6
		c2,0.3,4,0.9,5.9,1.7c3.6,1.4,6.4,3.7,8.5,6.8c2,3.1,3,6.4,3,10l-8.1,0.7c-0.3-3.9-1.8-7-4.4-9.2c-2.6-2.1-6.3-3.2-11.2-3.2
		c-5.1,0-8.8,0.9-11.1,2.8c-2.4,1.9-3.5,4.2-3.5,6.8c0,2.2,0.8,4.1,2.4,5.6c1.6,1.5,5.8,3.1,12.8,4.6c6.9,1.5,11.7,2.9,14.2,4.1
		c3.6,1.7,6.4,3.8,8.2,6.5c0.9,1.4,1.6,2.8,2,4.3c0.5,1.5,0.7,3.1,0.7,4.8c0,3.4-1,6.6-2.9,9.6c-1.9,3-4.7,5.3-8.4,7
		c-3.6,1.7-7.8,2.5-12.4,2.5c-5.8,0-10.7-0.8-14.6-2.5c-3.9-1.7-6.9-4.2-9.1-7.5c-1.1-1.7-1.9-3.5-2.5-5.4
		C147.8,71.9,147.4,69.9,147.4,67.9"/>
	<path class="st3" d="M288.2,63.4v-7.6h27.4v24c-4.1,3.3-8.4,5.8-12.9,7.6c-4.4,1.7-9,2.6-13.9,2.6c-3.4,0-6.4-0.3-9.1-0.9
		c-2.7-0.6-5.4-1.7-8.2-3.1c-5.2-2.7-9.1-6.6-11.7-11.8c-2.6-5.1-4-10.9-4-17.2c0-6.4,1.3-12.4,4-17.8c2.6-5.4,6.4-9.5,11.4-12.1
		c4.9-2.6,10.6-3.9,17.1-3.9c4.7,0,8.9,0.8,12.6,2.3c3.7,1.5,6.7,3.6,8.8,6.3c2.1,2.7,3.8,6.3,5,10.6l-7.8,2.2
		c-1-3.4-2.2-5.9-3.6-7.8c-1.4-1.9-3.4-3.4-6.1-4.5c-2.7-1.1-5.7-1.7-9-1.7c-2.2,0-4,0.1-5.5,0.4c-1.5,0.2-3,0.7-4.7,1.5
		c-2.9,1.2-5.2,2.8-6.9,4.7c-1.7,1.9-3.1,4-4.1,6.4c-1.6,4-2.5,8.3-2.5,13c0,5.7,1,10.5,3,14.4c2,3.9,4.9,6.8,8.8,8.7
		c3.9,1.9,7.9,2.8,12,2.8c3.7,0,7.2-0.7,10.7-2c3.5-1.4,6.2-2.9,8.2-4.6V63.4H288.2z"/>
	<polygon class="st3" points="38.4,89.5 38.4,23.4 47.1,23.4 47.1,81.7 79.7,81.7 79.7,89.5 	"/>
	<line class="st4" x1="5.3" y1="119.8" x2="338.7" y2="119.8"/>
</g>
</svg>
