<svg width="131" height="24" viewBox="0 0 131 24" fill="none" xmlns="http://www.w3.org/2000/svg">
<g clip-path="url(#clip0_184_13)">
<path d="M16.7635 4.65714L4.82526 11.6538L4.81934 7.97669L13.5957 2.86328L16.7635 4.65714Z" fill="#13384D"/>
<path d="M0.870514 15.8487L12.8088 8.85132L12.8147 12.5292L4.03764 17.6425L0.870514 15.8487Z" fill="#13384D"/>
<path opacity="0.7" d="M16.6262 15.7579L8.67281 20.4709L5.56421 18.6154L13.5392 13.9753L16.6262 15.7579Z" fill="#13384D"/>
<path opacity="0.7" d="M0.690369 4.68371L8.72903 0L11.8376 1.85545L3.93238 6.5527L0.690369 4.68371Z" fill="#13384D"/>
<path opacity="0.7" d="M0 6.0332L3.05667 7.81954V12.6828L0 14.4165V6.0332Z" fill="#13384D"/>
<path opacity="0.7" d="M17.4878 14.5252L14.4311 12.7389V7.87557L17.4878 6.14258V14.5252Z" fill="#13384D"/>
<path d="M27.0179 14.1992C27.2633 15.9674 28.9136 17.0492 31.2304 17.0492C33.5472 17.0492 35.0217 15.8946 35.0217 14.2712C35.0217 12.8642 34.1091 11.9981 31.7567 11.4933L29.8611 11.0967C26.3855 10.3027 24.7708 8.6433 24.7708 6.04562C24.7708 2.97923 27.4034 0.850342 31.1251 0.850342C34.8468 0.850342 37.3741 3.01529 37.4438 6.1538H34.8112C34.6355 4.35017 33.1965 3.23164 31.0903 3.23164C28.9841 3.23164 27.545 4.242 27.545 5.90139C27.545 7.20021 28.4577 8.06633 30.7048 8.57115L32.6353 8.96775C36.2866 9.76178 37.7959 11.2769 37.7959 13.8746C37.7959 17.2663 35.1982 19.3952 31.1258 19.3952C27.0535 19.3952 24.5261 17.3744 24.3853 14.1638H27.0179V14.1999V14.1992Z" fill="#13384D"/>
<path d="M39.686 1.1377H42.2838V8.2095H42.3542C43.0563 6.6943 44.4605 5.79212 46.391 5.79212C49.1993 5.79212 50.8496 7.70467 50.8496 10.6629V19.1056H48.217V11.1676C48.217 9.21907 47.2687 8.06452 45.4435 8.06452C43.513 8.06452 42.3194 9.43545 42.3194 11.4922V19.0688H39.6868V1.1377H39.686Z" fill="#13384D"/>
<path d="M53.2679 23.9406V21.7756C53.4784 21.8117 53.8996 21.8117 54.1101 21.8117C55.3386 21.8117 55.971 21.2709 56.3921 19.9352C56.3921 19.8992 56.6374 19.1412 56.6374 19.1412L52.0387 6.00806H54.8819L58.1113 16.6878H58.1461L61.3756 6.00806H64.149L59.3746 19.7902C58.2863 22.9656 57.0222 23.9752 54.3896 23.9752C54.1087 24.0112 53.4414 24.0112 53.2664 23.9391L53.2679 23.9406Z" fill="#13384D"/>
<path d="M66.9314 8.24543H65.1758V6.15261H66.9314V4.85379C66.9314 2.32827 68.0902 1.10156 70.6879 1.10156C71.2143 1.10156 71.8111 1.17367 72.1624 1.20973V3.1944C71.9171 3.1944 71.5656 3.15834 71.2143 3.15834C70.0911 3.15834 69.5291 3.73525 69.5291 4.88985V6.11656H72.1269V8.24543H69.564V19.2136H66.9314V8.24543Z" fill="#13384D"/>
<path d="M77.6748 3.0144V6.1176H80.0975V8.24649H77.6748V15.4625C77.6748 16.581 78.1664 17.1219 79.2189 17.1219C79.5005 17.1219 79.9213 17.0858 80.0967 17.0498V19.1786C79.8159 19.2508 79.2189 19.2869 78.6573 19.2869C76.0591 19.2869 75.0764 18.2765 75.0764 15.751V8.24574H73.2155V6.11685H75.0764V3.0144H77.6748Z" fill="#13384D"/>
<path d="M93.2622 19.3585H82.6248V1.35449H84.8014V17.3377H93.2275V19.3585H93.2622Z" fill="#13384D"/>
<path d="M94.8418 15.7861C94.8418 13.549 96.4921 12.1781 99.4057 11.9979L103.02 11.7815V10.699C103.02 9.11174 102.002 8.17349 100.247 8.17349C98.6325 8.17349 97.6146 8.96752 97.3331 10.2303H95.2973C95.4373 7.99319 97.2977 6.26172 100.283 6.26172C103.267 6.26172 105.127 7.92112 105.127 10.4827V19.4302H103.126V17.1931H103.091C102.354 18.6722 100.739 19.6465 99.0534 19.6465C96.526 19.6826 94.8418 18.1314 94.8418 15.7861ZM103.021 14.5234V13.477L99.6512 13.6933C97.9655 13.8015 96.983 14.5955 96.983 15.7861C96.983 16.9768 98.0009 17.8429 99.5096 17.8429C101.511 17.8429 103.02 16.3999 103.02 14.5234H103.021Z" fill="#13384D"/>
<path d="M110.007 17.2656H109.936V19.4666H107.936V1.46265H110.042V8.64262H110.077C110.849 7.16348 112.323 6.26129 114.115 6.26129C117.309 6.26129 119.45 8.895 119.45 12.9725C119.45 17.05 117.309 19.6837 114.08 19.6837C112.253 19.6837 110.815 18.7447 110.007 17.2656ZM110.042 12.9718C110.042 15.8578 111.552 17.7703 113.693 17.7703C115.939 17.7703 117.308 15.9307 117.308 12.9718C117.308 10.0128 115.939 8.17312 113.693 8.17312C111.446 8.17312 110.042 10.0856 110.042 12.9718Z" fill="#13384D"/>
<path d="M126.015 6.1531C128.788 6.1531 130.613 7.81253 130.719 10.1217H128.718C128.578 8.7507 127.595 7.92068 126.05 7.92068C124.505 7.92068 123.487 8.7147 123.487 9.83318C123.487 10.7354 124.119 11.3484 125.523 11.6729L127.524 12.1777C130.087 12.8275 130.999 13.8371 130.999 15.6776C130.999 17.9507 128.928 19.538 126.12 19.538C123.171 19.538 121.311 17.9867 121.065 15.5693H123.171C123.416 17.0485 124.4 17.7704 126.12 17.7704C127.839 17.7704 128.893 17.0124 128.893 15.8579C128.893 14.9196 128.402 14.3787 126.962 14.0174L124.96 13.5126C122.574 12.9349 121.415 11.7811 121.415 9.90458C121.38 7.73963 123.276 6.15234 126.015 6.15234L126.015 6.1531Z" fill="#13384D"/>
</g>
<defs>
<clipPath id="clip0_184_13">
<rect width="131" height="24" fill="white"/>
</clipPath>
</defs>
</svg>
