<svg id="svg31911" height="512" viewBox="0 0 16.933333 16.933334" width="512" xmlns="http://www.w3.org/2000/svg" xmlns:svg="http://www.w3.org/2000/svg"><g id="layer1" transform="translate(0 -280.067)"><g fill="#33658a"><path id="path17087" d="m2.9871068 283.42851 1.5878911 1.58789c.25.25.6249998-.125.375-.375l-1.587891-1.58789c-.04977-.0512-.118087-.08-.1894531-.0801-.238968-.002-.357568.28919-.185547.45508z" font-variant-ligatures="normal" font-variant-position="normal" font-variant-caps="normal" font-variant-numeric="normal" font-variant-alternates="normal" font-feature-settings="normal" text-indent="0" text-align="start" text-decoration-line="none" text-decoration-style="solid" text-decoration-color="#000000" text-transform="none" text-orientation="mixed" white-space="normal" shape-padding="0" isolation="auto" mix-blend-mode="normal" solid-color="#000000" solid-opacity="1" vector-effect="none"/><path id="path17089" d="m6.5847635 281.65116a.26460982.26460982 0 0 0 -.234375.26758v1.85156a.2646485.2646485 0 1 0 .529297 0v-1.85156a.26460982.26460982 0 0 0 -.294922-.26758z" font-variant-ligatures="normal" font-variant-position="normal" font-variant-caps="normal" font-variant-numeric="normal" font-variant-alternates="normal" font-feature-settings="normal" text-indent="0" text-align="start" text-decoration-line="none" text-decoration-style="solid" text-decoration-color="#000000" text-transform="none" text-orientation="mixed" white-space="normal" shape-padding="0" isolation="auto" mix-blend-mode="normal" solid-color="#000000" solid-opacity="1" vector-effect="none"/><path id="path17091" d="m1.8523378 286.94609h1.851562c.3528651 0 .3528651-.5293 0-.5293h-1.865232c-.366206.0185-.338866.54782.01367.5293z" font-variant-ligatures="normal" font-variant-position="normal" font-variant-caps="normal" font-variant-numeric="normal" font-variant-alternates="normal" font-feature-settings="normal" text-indent="0" text-align="start" text-decoration-line="none" text-decoration-style="solid" text-decoration-color="#000000" text-transform="none" text-orientation="mixed" white-space="normal" shape-padding="0" isolation="auto" mix-blend-mode="normal" solid-color="#000000" solid-opacity="1" vector-effect="none"/><path id="path17093" d="m11.983201 292.4246 1.587891 1.58789c.25.25.625-.125.375-.375l-1.587891-1.58789c-.04977-.0512-.118087-.08-.189453-.0801-.238968-.002-.357568.2892-.185547.45508z" font-variant-ligatures="normal" font-variant-position="normal" font-variant-caps="normal" font-variant-numeric="normal" font-variant-alternates="normal" font-feature-settings="normal" text-indent="0" text-align="start" text-decoration-line="none" text-decoration-style="solid" text-decoration-color="#000000" text-transform="none" text-orientation="mixed" white-space="normal" shape-padding="0" isolation="auto" mix-blend-mode="normal" solid-color="#000000" solid-opacity="1" vector-effect="none"/><path id="path17095" d="m10.287889 293.02812a.26460982.26460982 0 0 0 -.234375.26757v1.85157a.264648.264648 0 1 0 .529296 0v-1.85157a.26460982.26460982 0 0 0 -.294921-.26757z" font-variant-ligatures="normal" font-variant-position="normal" font-variant-caps="normal" font-variant-numeric="normal" font-variant-alternates="normal" font-feature-settings="normal" text-indent="0" text-align="start" text-decoration-line="none" text-decoration-style="solid" text-decoration-color="#000000" text-transform="none" text-orientation="mixed" white-space="normal" shape-padding="0" isolation="auto" mix-blend-mode="normal" solid-color="#000000" solid-opacity="1" vector-effect="none"/><path id="path17097" d="m13.229295 290.11991a.26465.26465 0 1 0 0 .5293h1.851562a.26465.26465 0 1 0 0-.5293z" font-variant-ligatures="normal" font-variant-position="normal" font-variant-caps="normal" font-variant-numeric="normal" font-variant-alternates="normal" font-feature-settings="normal" text-indent="0" text-align="start" text-decoration-line="none" text-decoration-style="solid" text-decoration-color="#000000" text-transform="none" text-orientation="mixed" white-space="normal" shape-padding="0" isolation="auto" mix-blend-mode="normal" solid-color="#000000" solid-opacity="1" vector-effect="none"/></g><path id="path3135" d="m12.957865 280.59634c-.880547 0-1.762332.33865-2.435511 1.01183l-3.6896965 3.68556c-.282226.28205-.499748.60347-.663009.94154.472509-.22882.984906-.34722 1.498616-.34726.271838-.00002.542994.0362.808736.10025l3.2132405-3.21221c.352888-.35288.809135-.52709 1.267624-.52709.458491 0 .916805.17421 1.26969.52709.705779.70578.705779 1.82947 0 2.53525l-3.691765 3.68763c-.7060755.70563-1.8294645.70578-2.5352455 0-.399762-.39976-.568077-.93406-.514697-1.45107-.394697.0403-.779113.2119-1.085204.51779l-.4769755.47646c.1432851.59463.4439555 1.15967.9089895 1.62471 1.346332 1.34633 3.5243215 1.34583 4.8710215 0l3.691763-3.68763c1.346335-1.34634 1.346335-3.52469 0-4.87102-.673179-.67318-1.557028-1.01183-2.437577-1.01183z" fill="#33b9ef" font-variant-ligatures="normal" font-variant-position="normal" font-variant-caps="normal" font-variant-numeric="normal" font-variant-alternates="normal" font-feature-settings="normal" text-indent="0" text-align="start" text-decoration-line="none" text-decoration-style="solid" text-decoration-color="#000000" text-transform="none" text-orientation="mixed" white-space="normal" shape-padding="0" isolation="auto" mix-blend-mode="normal" solid-color="#000000" solid-opacity="1" vector-effect="none"/><path id="path3152" d="m3.9783939 296.4681c.8805458 0 1.7623309-.33865 2.4355096-1.01183l3.6896975-3.68556c.282226-.28205.499748-.60347.663009-.94154-.472509.22882-.9849065.34723-1.4986165.34726-.271838.00002-.542994-.0362-.808736-.10025l-3.2132398 3.21221c-.352888.35288-.8091358.52709-1.2676238.52709-.4584922 0-.9168061-.17421-1.2696909-.52709-.7057792-.70578-.7057792-1.82947 0-2.53525l3.6917655-3.68763c.706075-.70563 1.829464-.70578 2.535245 0 .399762.39976.568077.93406.514697 1.45107.394697-.0403.7791135-.2119 1.0852045-.51779l.476975-.47646c-.143285-.59463-.443955-1.15967-.908989-1.62471-1.3463325-1.34633-3.5243225-1.34583-4.8710222 0l-3.691763 3.68763c-1.34633486 1.34634-1.34633486 3.52469 0 4.87102.67318.67318 1.5570281 1.01183 2.4375781 1.01183z" fill="#33658a" font-variant-ligatures="normal" font-variant-position="normal" font-variant-caps="normal" font-variant-numeric="normal" font-variant-alternates="normal" font-feature-settings="normal" text-indent="0" text-align="start" text-decoration-line="none" text-decoration-style="solid" text-decoration-color="#000000" text-transform="none" text-orientation="mixed" white-space="normal" shape-padding="0" isolation="auto" mix-blend-mode="normal" solid-color="#000000" solid-opacity="1" vector-effect="none"/></g></svg>