<svg width="794" height="784" viewBox="0 0 794 784" fill="none" xmlns="http://www.w3.org/2000/svg">
<path opacity="0.3" d="M704.251 784H0.451172V0H380.051C391.851 25.2 414.451 46.4 436.651 61.3C471.451 84.7 511.551 99.1 547.551 120.5C584.251 142.2 617.151 172 636.451 210C655.751 248 660.051 294.8 641.951 333.4C625.851 367.6 594.751 391.9 571.551 421.7C548.351 451.5 533.351 494.8 554.251 526.3C569.551 549.2 600.451 560.2 610.451 585.9C620.651 612.1 604.451 641.8 609.851 669.4C619.251 717.2 685.051 733.4 702.551 778.8C703.218 780.533 703.784 782.267 704.251 784Z" fill="#DAE0EE"/>
<path d="M371.645 128.998C219.245 132.198 96.4445 255.998 94.8445 408.798" stroke="#594A96" stroke-width="4" stroke-linecap="round"/>
<path d="M660.444 411.798C660.444 255.598 533.844 128.898 377.644 128.898" stroke="#DAE0EE" stroke-width="10"/>
<path d="M377.644 694.598C379.177 694.598 380.711 694.565 382.244 694.498" stroke="#594A96" stroke-width="4"/>
<path d="M391.545 694.298C538.245 687.198 655.545 568.298 660.345 420.998" stroke="#594A96" stroke-width="4" stroke-dasharray="8 8"/>
<path d="M660.444 416.399C660.444 414.866 660.444 413.332 660.444 411.799" stroke="#594A96" stroke-width="4"/>
<path d="M94.8445 411.799C94.8445 567.999 221.445 694.599 377.645 694.599" stroke="#DAE0EE" stroke-width="12"/>
<path d="M377.644 578C503.244 534.1 537.444 428.3 531.044 316.7C446.044 306.5 377.644 245.6 377.644 245.6C377.644 245.6 309.244 306.5 224.244 316.7C217.844 428.3 252.044 534.1 377.644 578Z" fill="#DAE0EE"/>
<path d="M377.644 556.199C468.544 521.699 513.444 447.099 511.244 334.199C450.644 322.399 400.644 289.299 377.644 271.799C354.644 289.299 304.644 322.399 244.044 334.199C241.844 447.099 286.744 521.699 377.644 556.199Z" fill="#00B4BE"/>
<path d="M377.644 556.199V271.799C354.644 289.299 304.644 322.399 244.044 334.199C241.844 447.099 286.744 521.699 377.644 556.199Z" fill="#05A4AD"/>
<path d="M361.344 307.799C336.544 323.399 303.044 340.499 264.444 350.499" stroke="#DAE0EE" stroke-width="4.1" stroke-linecap="round"/>
<path d="M452.344 478.5C476.944 446.1 489.644 403.6 490.844 350.5" stroke="#DAE0EE" stroke-width="4.1" stroke-linecap="round"/>
<path d="M427.444 504.5C433.111 499.833 438.377 494.833 443.244 489.5" stroke="#DAE0EE" stroke-width="4.1" stroke-linecap="round"/>
<path d="M395.144 526.099C402.277 522.299 409.01 518.199 415.344 513.799" stroke="#DAE0EE" stroke-width="4.1" stroke-linecap="round"/>
<path d="M626.744 206.199C624.844 206.199 623.344 207.699 623.344 209.599C623.344 211.499 624.844 213.099 626.744 213.099C628.644 213.099 630.244 211.499 630.244 209.599C630.244 207.699 628.644 206.199 626.744 206.199Z" fill="#594A96"/>
<path d="M626.745 192.398C631.245 192.398 635.545 194.098 638.745 197.198C640.145 198.598 640.145 200.698 638.845 202.098C637.545 203.498 635.345 203.498 633.945 202.198C629.845 198.498 623.645 198.498 619.645 202.198C618.245 203.498 616.045 203.498 614.745 202.098C613.445 200.698 613.445 198.598 614.845 197.198C618.045 194.098 622.345 192.398 626.745 192.398Z" fill="#594A96"/>
<path d="M626.745 175.199C635.145 175.199 643.245 178.599 649.045 184.599C650.445 185.999 650.345 188.299 648.945 189.599C647.545 190.899 645.345 190.799 644.045 189.399C634.745 179.799 619.445 179.599 609.845 188.799C609.645 188.999 609.445 189.199 609.245 189.399C608.645 190.099 607.745 190.499 606.845 190.499C604.945 190.499 603.345 188.899 603.345 186.999C603.345 186.099 603.745 185.299 604.345 184.599C610.245 178.599 618.345 175.099 626.745 175.199Z" fill="#594A96"/>
<path d="M593.245 171.499C611.945 153.399 641.545 153.399 660.245 171.499C661.545 172.899 661.445 175.099 660.045 176.299C658.745 177.499 656.845 177.499 655.545 176.399C639.545 160.899 614.045 160.899 598.045 176.399C597.345 177.099 596.545 177.399 595.645 177.399C594.745 177.399 593.845 176.999 593.145 176.299C591.845 174.999 591.945 172.799 593.245 171.499Z" fill="#594A96"/>
<path d="M104.044 170.398V236.298C104.044 243.498 109.844 249.398 117.044 249.398H247.044C254.144 249.398 260.044 243.498 260.044 236.298V170.398C260.044 163.198 254.144 157.398 247.044 157.398H117.044C109.844 157.398 104.044 163.198 104.044 170.398Z" fill="#DAE0EE"/>
<path d="M104.044 176.098V203.198H260.044V176.098H104.044Z" fill="#594A96"/>
<path d="M166.843 218.099H249.443V210.799H166.843V218.099Z" fill="#F8F6F6"/>
<path d="M186.943 228.3H249.443V224.6H186.943V228.3Z" fill="#F8F6F6"/>
<path d="M186.943 236.999H249.443V233.299H186.943V236.999Z" fill="#F8F6F6"/>
<path d="M113.643 228.3H176.043V224.6H113.643V228.3Z" fill="#F8F6F6"/>
<path d="M113.643 236.999H176.043V233.299H113.643V236.999Z" fill="#F8F6F6"/>
<path d="M767.944 325.199H771.644C773.644 325.199 775.344 323.499 775.344 321.499V317.799C775.344 315.999 776.544 314.399 778.244 313.999C780.644 313.599 782.744 315.399 782.744 317.699V321.499C782.744 323.499 784.444 325.199 786.444 325.199H790.144C791.944 325.199 793.544 326.399 793.944 328.099C794.344 330.499 792.544 332.599 790.244 332.599H786.444C784.444 332.599 782.744 334.199 782.744 336.299V339.899C782.744 341.699 781.544 343.399 779.744 343.699C777.444 344.199 775.344 342.399 775.344 340.099V336.299C775.344 334.199 773.644 332.599 771.644 332.599H767.844C765.544 332.599 763.744 330.499 764.144 328.099C764.544 326.399 766.144 325.199 767.944 325.199Z" fill="#DAE0EE"/>
<path d="M689.744 544.2H692.844C694.544 544.2 695.944 542.8 695.944 541.1V538C695.944 536.5 696.944 535.1 698.444 534.8C700.444 534.4 702.244 536 702.244 537.9V541.1C702.244 542.8 703.544 544.2 705.344 544.2H708.344C709.944 544.2 711.244 545.2 711.544 546.7C711.944 548.7 710.444 550.5 708.544 550.5H705.344C703.544 550.5 702.244 551.8 702.244 553.6V556.7C702.244 558.2 701.144 559.6 699.744 559.8C697.744 560.2 695.944 558.7 695.944 556.8V553.6C695.944 551.8 694.544 550.5 692.844 550.5H689.644C687.744 550.5 686.144 548.7 686.544 546.7C686.844 545.2 688.244 544.2 689.744 544.2Z" stroke="#DAE0EE" stroke-width="2"/>
<path d="M492.744 224.399C492.744 229.099 496.644 232.999 501.344 232.999C506.144 232.999 509.944 229.099 509.944 224.399C509.944 219.599 506.144 215.799 501.344 215.799C496.644 215.799 492.744 219.599 492.744 224.399Z" stroke="#DAE0EE" stroke-width="2"/>
<path d="M179.544 496.5C179.544 499.5 181.944 501.9 184.944 501.9C187.944 501.9 190.344 499.5 190.344 496.5C190.344 493.5 187.944 491 184.944 491C181.944 491 179.544 493.5 179.544 496.5Z" fill="#DAE0EE"/>
<path d="M328.044 742.699C328.044 745.199 330.044 747.299 332.544 747.299C335.044 747.299 337.044 745.199 337.044 742.699C337.044 740.199 335.044 738.199 332.544 738.199C330.044 738.199 328.044 740.199 328.044 742.699Z" fill="#DAE0EE"/>
<path d="M133.344 114.798C133.344 117.598 135.544 119.798 138.344 119.798C141.044 119.798 143.344 117.598 143.344 114.798C143.344 112.098 141.044 109.898 138.344 109.898C135.544 109.898 133.344 112.098 133.344 114.798Z" fill="#DAE0EE"/>
<path d="M141.844 467.299H75.3438" stroke="#594A96" stroke-width="2"/>
<path d="M166.444 474.799H125.544" stroke="#594A96" stroke-width="3.4"/>
<path d="M458.544 261.4H461.244C462.744 261.4 463.944 260.2 463.944 258.7V256C463.944 254.6 464.844 253.4 466.144 253.2C467.944 252.8 469.444 254.2 469.444 255.8V258.7C469.444 260.2 470.644 261.4 472.144 261.4H474.944C476.244 261.4 477.444 262.3 477.744 263.6C478.044 265.3 476.744 266.9 475.044 266.9H472.144C470.644 266.9 469.444 268.1 469.444 269.6V272.3C469.444 273.7 468.544 274.9 467.244 275.1C465.544 275.5 463.944 274.1 463.944 272.4V269.6C463.944 268.1 462.744 266.9 461.244 266.9H458.444C456.744 266.9 455.444 265.3 455.744 263.6C456.044 262.3 457.244 261.4 458.544 261.4Z" fill="#594A96"/>
<path d="M212.844 282.9H216.344C218.344 282.9 219.944 281.3 219.944 279.3V275.7C219.944 274 221.144 272.4 222.844 272.1C225.144 271.6 227.144 273.4 227.144 275.6V279.3C227.144 281.3 228.744 282.9 230.744 282.9H234.344C236.044 282.9 237.644 284 237.944 285.8C238.444 288 236.644 290.1 234.444 290.1H230.744C228.744 290.1 227.144 291.7 227.144 293.6V297.2C227.144 299 225.944 300.6 224.244 300.9C222.044 301.3 219.944 299.6 219.944 297.4V293.6C219.944 291.7 218.344 290.1 216.344 290.1H212.644C210.444 290.1 208.644 288 209.144 285.8C209.444 284 211.044 282.9 212.844 282.9Z" fill="#4872AF"/>
<path d="M480.144 489.698H483.644C485.644 489.698 487.244 488.098 487.244 486.198V482.598C487.244 480.898 488.444 479.298 490.144 478.898C492.444 478.498 494.444 480.198 494.444 482.398V486.198C494.444 488.098 496.044 489.698 498.044 489.698H501.544C503.344 489.698 504.944 490.898 505.244 492.598C505.744 494.898 503.944 496.898 501.744 496.898H498.044C496.044 496.898 494.444 498.498 494.444 500.498V504.098C494.444 505.798 493.244 507.398 491.544 507.698C489.244 508.198 487.244 506.398 487.244 504.198V500.498C487.244 498.498 485.644 496.898 483.644 496.898H479.944C477.744 496.898 475.944 494.898 476.444 492.598C476.744 490.898 478.344 489.698 480.144 489.698Z" fill="#4872AF"/>
<path d="M289.444 384.798H291.744C292.944 384.798 294.044 383.798 294.044 382.498V380.198C294.044 379.098 294.744 377.998 295.844 377.798C297.344 377.498 298.644 378.698 298.644 380.098V382.498C298.644 383.798 299.644 384.798 300.944 384.798H303.244C304.344 384.798 305.344 385.498 305.644 386.598C305.944 388.098 304.744 389.398 303.344 389.398H300.944C299.644 389.398 298.644 390.398 298.644 391.698V393.998C298.644 395.098 297.844 396.198 296.744 396.398C295.344 396.698 294.044 395.498 294.044 394.098V391.698C294.044 390.398 292.944 389.398 291.744 389.398H289.344C287.844 389.398 286.744 388.098 287.044 386.598C287.244 385.498 288.344 384.798 289.444 384.798Z" fill="white"/>
<path d="M302.544 513.699H304.844C306.044 513.699 307.144 512.699 307.144 511.399V509.099C307.144 507.999 307.844 506.899 308.944 506.699C310.444 506.399 311.744 507.599 311.744 508.999V511.399C311.744 512.699 312.744 513.699 314.044 513.699H316.344C317.444 513.699 318.444 514.399 318.644 515.499C318.944 516.999 317.844 518.299 316.444 518.299H314.044C312.744 518.299 311.744 519.299 311.744 520.599V522.899C311.744 523.999 310.944 525.099 309.844 525.299C308.444 525.599 307.144 524.399 307.144 522.999V520.599C307.144 519.299 306.044 518.299 304.844 518.299H302.444C300.944 518.299 299.844 516.999 300.144 515.499C300.344 514.399 301.344 513.699 302.544 513.699Z" fill="white"/>
<path d="M725.844 401.3L637.144 417.1L630.544 380.4L719.344 364.6L725.844 401.3Z" fill="#C7CCD9"/>
<path d="M724.044 412.499H633.944V375.199H724.044V412.499Z" fill="#DAE0EE"/>
<path d="M720.444 419.5L636.444 412.9L638.944 381L722.944 387.6L720.444 419.5Z" fill="white"/>
<path d="M701.444 383.1L692.744 391.8C691.444 393 689.744 393.7 687.944 393.7H630.544C626.844 393.7 623.844 396.8 623.844 400.5V450.3C623.844 454 626.844 457.1 630.544 457.1H729.944C733.744 457.1 736.744 454 736.744 450.3V387.8C736.744 384.1 733.744 381.1 729.944 381.1H706.144C704.444 381.1 702.644 381.8 701.444 383.1Z" fill="#594A96"/>
<path d="M640.544 446.599H655.944V443.799H640.544V446.599Z" fill="#DAE0EE"/>
<path d="M635.144 441.499H655.944V438.699H635.144V441.499Z" fill="#DAE0EE"/>
<path d="M629.245 402.9C629.245 404.8 630.845 406.3 632.745 406.3C634.645 406.3 636.145 404.8 636.145 402.9C636.145 400.9 634.645 399.4 632.745 399.4C630.845 399.4 629.245 400.9 629.245 402.9Z" fill="#DAE0EE"/>
<path d="M522.044 665.099H662.344C669.844 665.099 675.944 658.999 675.944 651.499V588.399C675.944 580.899 669.844 574.799 662.344 574.799H522.044C514.544 574.799 508.544 580.899 508.544 588.399V651.499C508.544 658.999 514.544 665.099 522.044 665.099Z" fill="white" stroke="#DAE0EE" stroke-width="1.8"/>
<path d="M642.044 616.798H656.444V623.098H642.044V616.798ZM550.444 590.498H642.744V596.798H550.444V590.498ZM656.444 649.198H620.644V642.898H656.444V649.198ZM637.644 622.998H581.744V616.798H637.644V622.998ZM597.344 629.798H656.444V636.098H597.344V629.798ZM577.344 622.898H527.944V616.698H577.344V622.898ZM621.444 609.798H527.944V603.498H621.444V609.798ZM546.644 590.398V596.698H527.944V590.398H546.644ZM542.944 635.998H527.944V629.798H542.944V635.998ZM613.144 649.098H576.244V642.798H613.144V649.098ZM571.844 649.098H543.744V642.898H571.844V649.098Z" fill="#DAE0EE"/>
<path d="M589.944 636.198H550.444V629.898H589.944V636.198Z" fill="#4872AF"/>
<path d="M628.944 603.699H656.444V609.999H628.944V603.699Z" fill="#4872AF"/>
<path d="M441.544 153.599C441.544 178.299 461.644 198.399 486.344 198.399C511.144 198.399 531.244 178.299 531.244 153.599C531.244 128.799 511.144 108.699 486.344 108.699C461.644 108.699 441.544 128.799 441.544 153.599Z" fill="white" stroke="#DAE0EE" stroke-width="1.8"/>
<path fill-rule="evenodd" clip-rule="evenodd" d="M460.644 176.7C462.744 178.7 466.144 178.7 468.144 176.7L481.544 163.3L479.344 161.2L481.744 158.8C489.244 164.7 500.044 164.3 506.944 157.4C514.444 150 514.444 138 506.944 130.6C499.544 123.1 487.544 123.1 480.144 130.6C473.344 137.4 472.844 148.1 478.544 155.5L476.144 157.9L473.944 155.8L460.644 169.1C458.544 171.2 458.544 174.6 460.644 176.7ZM479.644 144C479.644 142.466 479.878 141.033 480.344 139.7C481.644 135.8 484.444 132.7 488.244 131.2C489.844 130.5 491.644 130.1 493.544 130.1C501.244 130.1 507.444 136.3 507.444 144C507.444 145.9 507.044 147.7 506.344 149.4C504.844 153.1 501.744 156 497.844 157.2C496.511 157.666 495.078 157.9 493.544 157.9C485.844 157.9 479.644 151.7 479.644 144Z" fill="#594A96"/>
<path d="M125.244 588.699H256.344C258.344 588.699 260.044 590.299 260.044 592.399V679.199C260.044 681.299 258.344 682.899 256.344 682.899H125.244C123.244 682.899 121.644 681.299 121.644 679.199V592.399C121.644 590.299 123.244 588.699 125.244 588.699Z" fill="#223B61"/>
<path d="M127.344 593.799V677.799H254.344V593.799H127.344Z" fill="#594A96"/>
<path d="M205.144 682.299H239.544C239.844 682.299 240.044 682.499 240.044 682.799C240.044 683.099 239.844 683.299 239.544 683.299H205.144C204.844 683.299 204.644 683.099 204.644 682.799C204.644 682.499 204.844 682.299 205.144 682.299Z" fill="#DAE0EE"/>
<path d="M254.644 682.299H264.744C264.944 682.299 265.244 682.499 265.244 682.799C265.244 683.099 264.944 683.299 264.744 683.299H254.644C254.344 683.299 254.144 683.099 254.144 682.799C254.144 682.499 254.344 682.299 254.644 682.299Z" fill="#DAE0EE"/>
<path d="M242.044 682.299H252.144C252.444 682.299 252.644 682.499 252.644 682.799C252.644 683.099 252.444 683.299 252.144 683.299H242.044C241.844 683.299 241.644 683.099 241.644 682.799C241.644 682.499 241.844 682.299 242.044 682.299Z" fill="#DAE0EE"/>
<path d="M191.943 682.299H202.043C202.243 682.299 202.443 682.499 202.443 682.799C202.443 683.099 202.243 683.299 202.043 683.299H191.943C191.643 683.299 191.443 683.099 191.443 682.799C191.443 682.499 191.643 682.299 191.943 682.299Z" fill="#DAE0EE"/>
<path d="M179.744 682.299H189.844C190.044 682.299 190.244 682.499 190.244 682.799C190.244 683.099 190.044 683.299 189.844 683.299H179.744C179.444 683.299 179.244 683.099 179.244 682.799C179.244 682.499 179.444 682.299 179.744 682.299Z" fill="#DAE0EE"/>
<path d="M167.544 682.299H177.544C177.844 682.299 178.044 682.499 178.044 682.799C178.044 683.099 177.844 683.299 177.544 683.299H167.544C167.244 683.299 167.044 683.099 167.044 682.799C167.044 682.499 167.244 682.299 167.544 682.299Z" fill="#DAE0EE"/>
<path d="M155.344 682.299H165.344C165.644 682.299 165.844 682.499 165.844 682.799C165.844 683.099 165.644 683.299 165.344 683.299H155.344C155.044 683.299 154.844 683.099 154.844 682.799C154.844 682.499 155.044 682.299 155.344 682.299Z" fill="#DAE0EE"/>
<path d="M143.144 682.299H153.144C153.444 682.299 153.644 682.499 153.644 682.799C153.644 683.099 153.444 683.299 153.144 683.299H143.144C142.844 683.299 142.644 683.099 142.644 682.799C142.644 682.499 142.844 682.299 143.144 682.299Z" fill="#DAE0EE"/>
<path d="M130.843 682.299H140.943C141.243 682.299 141.443 682.499 141.443 682.799C141.443 683.099 141.243 683.299 140.943 683.299H130.843C130.643 683.299 130.443 683.099 130.443 682.799C130.443 682.499 130.643 682.299 130.843 682.299Z" fill="#DAE0EE"/>
<path d="M118.644 682.299H128.744C129.044 682.299 129.244 682.499 129.244 682.799C129.244 683.099 129.044 683.299 128.744 683.299H118.644C118.444 683.299 118.244 683.099 118.244 682.799C118.244 682.499 118.444 682.299 118.644 682.299Z" fill="#DAE0EE"/>
<path d="M141.244 685.999V685.299L205.044 685.699L239.944 685.299V685.999L271.544 686.099V686.599L263.644 688.799C257.744 690.399 251.644 691.199 245.544 691.199H135.644C129.444 691.199 123.344 690.399 117.444 688.799L109.544 686.599V686.099L141.244 685.999Z" fill="#594A96"/>
<path d="M109.544 686.198H271.544V682.898H109.544V686.198Z" fill="#213A5E"/>
<g style="mix-blend-mode:multiply" opacity="0.2">
<path d="M127.344 593.799V594.799H253.144V677.799H254.344V593.799H127.344Z" fill="black"/>
</g>
<path d="M168.144 631.599H212.944C215.344 631.599 217.344 629.599 217.344 627.199C217.344 624.799 215.344 622.799 212.944 622.799H168.144C165.744 622.799 163.744 624.799 163.744 627.199C163.744 629.599 165.744 631.599 168.144 631.599Z" fill="#DAE0EE"/>
<path d="M168.144 644.999H212.944C215.344 644.999 217.344 642.999 217.344 640.599C217.344 638.199 215.344 636.199 212.944 636.199H168.144C165.744 636.199 163.744 638.199 163.744 640.599C163.744 642.999 165.744 644.999 168.144 644.999Z" fill="#DAE0EE"/>
<path d="M175.143 618.399H205.943V615.699H175.143V618.399Z" fill="#4872AF"/>
</svg>
