<svg xmlns="http://www.w3.org/2000/svg" version="1.1" xmlns:xlink="http://www.w3.org/1999/xlink" xmlns:svgjs="http://svgjs.com/svgjs" width="512" height="512" x="0" y="0" viewBox="0 0 73.895 73.895" style="enable-background:new 0 0 512 512" xml:space="preserve" class=""><g><path d="M20.267 21.96h3.39a1 1 0 1 0 0-2h-3.39a1 1 0 1 0 0 2zM11.589 21.96h3.39a1 1 0 1 0 0-2h-3.39a1 1 0 1 0 0 2z" fill="#8c0674" data-original="#000000" class=""></path><path d="M65.288 14.401H43.28V13h2.25a1 1 0 0 0 .785-1.618L38.018.852a1.001 1.001 0 0 0-1.071-.847 1.001 1.001 0 0 0-1.071.847L30.94 7.114c-.214.126-.377.33-.45.572l-2.911 3.696A1 1 0 0 0 28.364 13h2.083v1.401H8.605a3.172 3.172 0 0 0-3.169 3.169v42.58a3.173 3.173 0 0 0 3.169 3.17h9.262a2.976 2.976 0 0 0 .866 2.287l2.539 2.539c1.133 1.133 3.109 1.133 4.242 0l.975-.974a20 20 0 0 0 5.662 2.339v1.383c0 1.654 1.346 3 3 3h3.591c1.654 0 3-1.346 3-3v-1.373a19.876 19.876 0 0 0 5.663-2.35l.973.974c1.135 1.135 3.112 1.132 4.242 0l2.539-2.539c.625-.625.916-1.46.867-2.287h9.262a3.174 3.174 0 0 0 3.17-3.17v-42.58a3.172 3.172 0 0 0-3.17-3.168zm-9.584 42.885c.12-.302.23-.604.336-.907.043-.125.088-.25.129-.376.137-.422.262-.848.366-1.273h1.374c1.654 0 3-1.346 3-3v-3.592c0-.801-.312-1.554-.879-2.12s-1.32-.879-2.121-.879h-1.384a19.944 19.944 0 0 0-2.339-5.663l.973-.973c.566-.567.88-1.321.879-2.125a2.974 2.974 0 0 0-.879-2.119l-2.538-2.54c-1.133-1.134-3.108-1.133-4.243 0l-.974.974c-.347-.21-.702-.408-1.063-.597-.11-.059-.228-.112-.34-.168a20.523 20.523 0 0 0-.763-.364c-.14-.063-.282-.121-.424-.18a19.532 19.532 0 0 0-1.183-.455c-.117-.042-.232-.088-.353-.127v-3.281h17.669a1.17 1.17 0 0 1 1.169 1.169v27.663a1.17 1.17 0 0 1-1.169 1.17h-5.332c.033-.079.058-.159.089-.237zM43.856 38.925c.148.094.296.191.439.291.107.073.215.146.32.223.146.107.288.22.432.332.096.076.191.151.285.229.149.126.295.258.438.391.077.072.157.141.233.215.182.175.354.357.523.542.033.037.068.071.104.108.201.224.393.455.576.69.055.069.104.144.155.214.127.169.252.339.37.515.062.094.122.192.184.289.1.157.199.313.293.475.062.107.117.216.176.324.084.156.168.313.246.473.055.114.106.23.16.347.07.159.141.318.205.48a12.243 12.243 0 0 1 .311.856c.039.123.078.245.115.369.049.171.094.344.137.518.031.122.062.244.089.367.039.183.071.367.104.551.02.118.043.235.06.354.028.205.05.41.069.617.01.103.022.202.029.305.021.308.035.619.035.933 0 .354-.016.706-.043 1.055-.01.114-.027.227-.04.34-.024.233-.05.469-.087.699-.021.133-.053.263-.077.394-.041.21-.081.42-.132.628-.034.136-.076.269-.113.404-.057.198-.111.396-.178.593-.046.137-.1.271-.148.406-.07.188-.143.378-.222.563-.06.135-.123.269-.187.401-.084.181-.17.361-.265.539-.069.132-.146.262-.219.392a12.44 12.44 0 0 1-.564.896c-.064.096-.135.188-.201.282H26.422c-.067-.093-.135-.185-.199-.278a11.93 11.93 0 0 1-.56-.891c-.078-.135-.156-.27-.229-.407a12.56 12.56 0 0 1-.256-.521c-.066-.14-.133-.279-.194-.421-.076-.178-.144-.36-.212-.542-.054-.143-.109-.283-.158-.427-.063-.188-.116-.38-.17-.571-.04-.141-.084-.281-.119-.423-.051-.202-.089-.407-.129-.612-.026-.135-.059-.27-.08-.406-.037-.227-.061-.458-.086-.688-.013-.117-.031-.232-.041-.351-.027-.35-.043-.7-.043-1.055 0-.311.013-.619.034-.925.007-.102.021-.201.03-.302.02-.204.039-.408.068-.609.017-.118.039-.234.059-.352.031-.183.063-.364.102-.544.026-.122.057-.243.087-.364a11.513 11.513 0 0 1 .246-.876 14.737 14.737 0 0 1 .305-.85c.066-.165.137-.327.209-.489.05-.111.099-.223.151-.332.08-.166.166-.329.253-.491.054-.102.105-.202.162-.3.102-.18.211-.354.32-.527.05-.077.095-.156.146-.232.33-.495.693-.969 1.089-1.416.063-.07.13-.138.193-.206.139-.15.278-.299.424-.442.081-.08.165-.155.248-.232.136-.127.273-.254.415-.375.092-.079.187-.153.28-.229a11.466 11.466 0 0 1 .733-.552c.147-.104.298-.203.45-.301.104-.066.211-.134.318-.197.059-.035.119-.067.179-.103v3.94a1 1 0 0 0 1 1H42.28a1 1 0 0 0 1-1v-4.037c.078.043.156.085.232.13.118.067.231.135.344.206zm.971 21.316c-.156.119-.312.242-.474.355-.255.177-.521.338-.788.497-.126.075-.25.155-.379.226H30.708c-.129-.07-.251-.149-.377-.225a13.2 13.2 0 0 1-.792-.5c-.16-.112-.313-.234-.469-.353-.232-.179-.462-.36-.683-.556-.06-.053-.116-.109-.176-.165h17.472c-.059.055-.115.111-.176.165-.22.197-.449.378-.68.556zM28.523 31.625c-.098.044-.192.093-.288.139-.598.285-1.184.589-1.746.931l-.974-.974c-1.132-1.133-3.109-1.135-4.243 0l-2.539 2.539a2.983 2.983 0 0 0-.879 2.122c0 .802.313 1.555.879 2.122l.974.974a19.986 19.986 0 0 0-2.35 5.663h-1.374a3.002 3.002 0 0 0-2.998 2.999v3.592c0 1.654 1.346 3 3 3h1.384c.104.424.229.846.362 1.266.043.134.091.266.136.398.103.299.212.598.329.895.031.079.056.158.088.236h-5.34a1.17 1.17 0 0 1-1.17-1.17V28.69a1.17 1.17 0 0 1 1.17-1.169h17.503v3.332c-.053.018-.103.043-.155.062-.603.21-1.194.445-1.769.71zM30.425 11l1.808-2.295a.759.759 0 0 0 .042-.057c.016-.017.03-.035.045-.053l4.628-5.874L43.47 11h-1.188a1 1 0 0 0-1 1v29.625h-8.833V37.42c.006-.013.004-.028.009-.042a.978.978 0 0 0 .074-.357v-5.466a.813.813 0 0 0-.075-.323c-.004-.011-.003-.024-.008-.036V12a1 1 0 0 0-1-1h-1.024zM7.437 60.15V17.57a1.17 1.17 0 0 1 1.169-1.169h21.842v9.12H12.944a3.173 3.173 0 0 0-3.17 3.169v27.663a3.174 3.174 0 0 0 3.17 3.17h6.283l.041.074c.148.278.296.544.442.791l-.933.933H8.605a1.171 1.171 0 0 1-1.168-1.171zm46.308 4.042-2.54 2.54a1.025 1.025 0 0 1-1.413 0l-1.539-1.541a1 1 0 0 0-1.262-.125 17.998 17.998 0 0 1-6.445 2.675 1 1 0 0 0-.804.979v2.175c0 .551-.448 1-1 1h-3.591c-.552 0-1-.449-1-1V68.71a1 1 0 0 0-.802-.98 18.031 18.031 0 0 1-6.447-2.665 1.003 1.003 0 0 0-1.261.126L24.1 66.732a1.025 1.025 0 0 1-1.414 0l-2.538-2.539a.99.99 0 0 1-.103-1.284c.031-.042.06-.088.102-.13l1.541-1.541a1 1 0 0 0 .126-1.261 17.946 17.946 0 0 1-1.084-1.901c-.737-1.472-1.27-3-1.581-4.546a1.002 1.002 0 0 0-.98-.802h-2.184c-.552 0-1-.449-1-1v-3.592a.99.99 0 0 1 .293-.706.994.994 0 0 1 .707-.293h2.174a.998.998 0 0 0 .98-.803 17.962 17.962 0 0 1 2.675-6.446 1 1 0 0 0-.126-1.261l-1.541-1.542a.99.99 0 0 1-.293-.708.99.99 0 0 1 .293-.707l2.539-2.539a.998.998 0 0 1 .707-.284c.259 0 .518.095.707.284l1.541 1.541a1 1 0 0 0 1.261.125 17.867 17.867 0 0 1 1.919-1.097 18.404 18.404 0 0 1 1.615-.72l.011-.005v3.437c-.071.034-.138.074-.208.109a14.183 14.183 0 0 0-1.396.795 14.14 14.14 0 0 0-1.33.96c-.133.107-.263.216-.392.326a16.585 16.585 0 0 0-.78.727 16.402 16.402 0 0 0-.725.777c-.123.142-.24.285-.357.431-.104.13-.209.261-.31.395-.112.149-.219.303-.325.456-.095.137-.19.272-.28.412-.102.158-.197.32-.294.48-.084.143-.17.283-.249.429-.092.167-.176.336-.261.506-.073.146-.148.291-.217.439-.081.176-.153.354-.228.533-.062.149-.126.296-.184.447-.069.185-.13.374-.192.562-.05.149-.104.298-.148.449-.058.195-.105.394-.156.591-.037.149-.08.298-.113.448-.046.209-.081.421-.118.633-.025.144-.057.285-.077.43-.035.236-.057.478-.08.718-.012.122-.03.242-.039.365a14.851 14.851 0 0 0 3.132 10.308 14.936 14.936 0 0 0 4.849 4.067 15.03 15.03 0 0 0 6.978 1.728c2.455 0 4.804-.581 6.979-1.728a14.97 14.97 0 0 0 4.85-4.067 14.865 14.865 0 0 0 3.17-9.206 14.97 14.97 0 0 0-8.583-13.56v-3.421a17.853 17.853 0 0 1 3.628 1.849c.395.263.922.212 1.262-.125l1.539-1.54a1.022 1.022 0 0 1 1.414-.001l2.54 2.541a.99.99 0 0 1 .292.705.994.994 0 0 1-.293.708l-1.54 1.54a1 1 0 0 0-.126 1.261 17.987 17.987 0 0 1 2.664 6.447 1 1 0 0 0 .98.802h2.188a1 1 0 0 1 .998.999v3.592a1 1 0 0 1-1 1h-2.175a.995.995 0 0 0-.979.804c-.093.455-.209.909-.341 1.362a18.572 18.572 0 0 1-1.247 3.181 18.162 18.162 0 0 1-1.087 1.901.998.998 0 0 0 .125 1.261l1.544 1.546c.028.027.049.06.071.091l.024.031c.29.4.249.941-.099 1.286zm12.713-4.042a1.17 1.17 0 0 1-1.17 1.17H55.115l-.933-.933c.146-.248.296-.515.445-.792.012-.025.025-.046.039-.072h6.281a3.173 3.173 0 0 0 3.169-3.17V28.69a3.172 3.172 0 0 0-3.169-3.169H43.28V21.96h19.838a1 1 0 1 0 0-2H43.28V16.4h22.008c.646 0 1.17.524 1.17 1.169V60.15z" fill="#8c0674" data-original="#000000" class=""></path></g></svg>