<?xml version="1.0" encoding="iso-8859-1"?>
<!-- Generator: Adobe Illustrator 19.0.0, SVG Export Plug-In . SVG Version: 6.00 Build 0)  -->
<svg version="1.1" id="Capa_1" xmlns="http://www.w3.org/2000/svg" xmlns:xlink="http://www.w3.org/1999/xlink" x="0px" y="0px"
	 viewBox="0 0 512 512" style="enable-background:new 0 0 512 512;" xml:space="preserve">
<path style="fill:#F2F2F2;" d="M330.667,170.667v42.667c0,5.891-4.776,10.667-10.667,10.667H192
	c-5.891,0-10.667-4.776-10.667-10.667v-42.667H330.667z"/>
<path style="fill:#FFC751;" d="M330.667,42.667v128H181.333v-128v-32h149.333V42.667z"/>
<path style="fill:#D9EEF7;" d="M74.667,373.333h64v64h-64V373.333z"/>
<path style="fill:#FFE451;" d="M501.333,53.333v405.333c0,23.564-19.103,42.667-42.667,42.667H53.333
	c-23.564,0-42.667-19.103-42.667-42.667V53.333c0-23.564,19.103-42.667,42.667-42.667h128v202.667
	c0,5.891,4.776,10.667,10.667,10.667h128c5.891,0,10.667-4.776,10.667-10.667V10.667h128
	C482.231,10.667,501.333,29.769,501.333,53.333z M138.667,437.333v-64h-64v64H138.667z"/>
<circle style="fill:#D9EEF7;" cx="352" cy="352" r="42.667"/>
<path style="fill:#AAC4DA;" d="M501.333,320v64H453.76c-1.929,5.953-4.356,11.733-7.253,17.28l33.707,33.707l-45.227,45.227
	l-33.707-33.707c-5.547,2.898-11.327,5.324-17.28,7.253v47.573h-64V453.76c-5.953-1.929-11.733-4.356-17.28-7.253l-33.707,33.707
	l-45.227-45.227l33.707-33.707c-2.898-5.547-5.324-11.327-7.253-17.28h-47.573v-64h47.573c1.929-5.953,4.356-11.733,7.253-17.28
	l-33.707-33.707l45.227-45.227l33.707,33.707c5.547-2.898,11.327-5.324,17.28-7.253v-47.573h64v47.573
	c5.953,1.929,11.733,4.356,17.28,7.253l33.707-33.707l45.227,45.227l-33.707,33.707c2.898,5.547,5.324,11.327,7.253,17.28H501.333z
	 M394.667,352c0-23.564-19.102-42.667-42.667-42.667c-23.564,0-42.667,19.103-42.667,42.667c0,23.564,19.103,42.667,42.667,42.667
	C375.564,394.667,394.667,375.564,394.667,352z"/>
<g>
	<path style="fill:#4C5B66;" d="M458.667,0H53.333C23.893,0.035,0.035,23.893,0,53.333v405.333
		C0.035,488.107,23.893,511.965,53.333,512H224v-21.333H53.333c-17.673,0-32-14.327-32-32V53.333c0-17.673,14.327-32,32-32h405.333
		c17.673,0,32,14.327,32,32v181.333H512V53.333C511.965,23.893,488.107,0.035,458.667,0z"/>
	<path style="fill:#4C5B66;" d="M320,42.667h21.333V160H320V42.667z"/>
	<path style="fill:#4C5B66;" d="M170.667,42.667v170.667c0,11.782,9.551,21.333,21.333,21.333h21.333v-21.333H192v-32h85.333V160
		H192V42.667H170.667z"/>
	<path style="fill:#4C5B66;" d="M74.667,362.667c-5.891,0-10.667,4.776-10.667,10.667v64C64,443.224,68.776,448,74.667,448h64
		c5.891,0,10.667-4.776,10.667-10.667v-64c0-5.891-4.776-10.667-10.667-10.667H74.667z M128,426.667H85.333V384H128V426.667z"/>
	<path style="fill:#4C5B66;" d="M501.333,309.333h-40.085c-0.587-1.472-1.195-2.944-1.856-4.416l28.363-28.363
		c4.164-4.165,4.164-10.917,0-15.083l-45.227-45.227c-4.165-4.164-10.917-4.164-15.083,0l-28.363,28.363
		c-1.472-0.651-2.933-1.269-4.416-1.856v-40.085c0-5.891-4.776-10.667-10.667-10.667h-64c-5.891,0-10.667,4.776-10.667,10.667
		v40.085c-1.483,0.587-2.944,1.205-4.416,1.856l-28.363-28.363c-4.231-4.001-10.851-4.001-15.083,0l-45.227,45.227
		c-4.164,4.165-4.164,10.917,0,15.083l28.363,28.363c-0.661,1.472-1.28,2.944-1.856,4.416h-40.085
		c-5.891,0-10.667,4.776-10.667,10.667v64c0,5.891,4.776,10.667,10.667,10.667h40.085c0.576,1.472,1.195,2.944,1.856,4.416
		l-28.363,28.363c-4.164,4.165-4.164,10.917,0,15.083l45.227,45.227c4.165,4.164,10.917,4.164,15.083,0l28.363-28.363
		c1.472,0.661,2.944,1.28,4.416,1.856v40.085c0,5.891,4.776,10.667,10.667,10.667h64c5.891,0,10.667-4.776,10.667-10.667v-40.085
		c1.472-0.576,2.944-1.195,4.416-1.856l28.363,28.363c4.165,4.164,10.917,4.164,15.083,0l45.227-45.227
		c4.164-4.165,4.164-10.917,0-15.083l-28.363-28.363c0.661-1.472,1.269-2.944,1.856-4.416h40.085
		c5.891,0,10.667-4.776,10.667-10.667v-64C512,314.109,507.224,309.333,501.333,309.333L501.333,309.333z M490.667,373.333H453.76
		c-4.633,0-8.737,2.991-10.155,7.403c-1.744,5.387-3.938,10.618-6.56,15.637c-2.14,4.125-1.363,9.16,1.92,12.448l26.155,26.165
		l-30.133,30.133l-26.165-26.155c-3.288-3.283-8.323-4.06-12.448-1.92c-5.019,2.622-10.25,4.816-15.637,6.56
		c-4.411,1.418-7.402,5.521-7.403,10.155v36.907h-42.667V453.76c0-4.633-2.991-8.737-7.403-10.155
		c-5.387-1.744-10.618-3.938-15.637-6.56c-4.125-2.14-9.16-1.363-12.448,1.92l-26.165,26.155l-30.08-30.133l26.155-26.165
		c3.283-3.288,4.06-8.323,1.92-12.448c-2.622-5.019-4.816-10.25-6.56-15.637c-1.424-4.43-5.555-7.426-10.208-7.403h-36.907v-42.667
		h36.907c4.633,0,8.737-2.992,10.155-7.403c1.744-5.387,3.938-10.618,6.56-15.637c2.14-4.125,1.363-9.16-1.92-12.448l-26.101-26.165
		l30.133-30.144l26.165,26.165c3.29,3.288,8.331,4.065,12.459,1.92c5.021-2.617,10.252-4.811,15.637-6.56
		c4.386-1.44,7.348-5.538,7.339-10.155v-36.907h42.667v36.907c-0.001,4.631,2.985,8.733,7.392,10.155
		c5.385,1.749,10.616,3.943,15.637,6.56c4.127,2.145,9.169,1.368,12.459-1.92l26.165-26.165l30.133,30.144l-26.155,26.165
		c-3.283,3.288-4.06,8.323-1.92,12.448c2.622,5.019,4.816,10.25,6.56,15.637c1.418,4.411,5.521,7.403,10.155,7.403h36.907
		L490.667,373.333z"/>
	<path style="fill:#4C5B66;" d="M352,298.667c-29.455,0-53.333,23.878-53.333,53.333c0,29.455,23.878,53.333,53.333,53.333
		c29.455,0,53.333-23.878,53.333-53.333C405.298,322.559,381.441,298.702,352,298.667z M352,384c-17.673,0-32-14.327-32-32
		s14.327-32,32-32c17.673,0,32,14.327,32,32S369.673,384,352,384z"/>
</g>
<g>
</g>
<g>
</g>
<g>
</g>
<g>
</g>
<g>
</g>
<g>
</g>
<g>
</g>
<g>
</g>
<g>
</g>
<g>
</g>
<g>
</g>
<g>
</g>
<g>
</g>
<g>
</g>
<g>
</g>
</svg>
