<svg xmlns="http://www.w3.org/2000/svg" version="1.1" xmlns:xlink="http://www.w3.org/1999/xlink" xmlns:svgjs="http://svgjs.com/svgjs" width="512" height="512" x="0" y="0" viewBox="0 0 587.697 587.697" style="enable-background:new 0 0 512 512" xml:space="preserve" class=""><g><path d="M476.237 141.858H70.929c-22.383 0-40.531 18.148-40.531 40.531v314.114h486.37V182.389c0-22.384-18.148-40.531-40.531-40.531z" style="" fill="#904508" data-original="#4398d1" class=""></path><path d="M70.929 182.389h405.308v334.379H70.929z" style="" fill="#87ced9" data-original="#87ced9" class=""></path><path d="M476.237 182.389H273.836c0 1.692-.253 3.354-.253 5.066.01 86.736 70.331 157.047 157.067 157.047 15.442 0 30.803-2.28 45.587-6.769V182.389z" style="" fill="#71c4d1" data-original="#71c4d1" class=""></path><path d="M117.995 516.768h358.242V182.389h-49.671z" style="" fill="#71c4d1" data-original="#71c4d1" class=""></path><path d="M101.327 212.787h20.265v20.265h-20.265zM141.858 212.787h20.265v20.265h-20.265zM182.389 212.787h20.265v20.265h-20.265zM111.46 445.839h50.663v20.265H111.46zM202.654 445.839h50.663v20.265h-50.663zM293.848 445.839h50.663v20.265h-50.663zM385.043 445.839h50.663v20.265h-50.663zM111.46 263.45h324.246v60.796H111.46zM202.654 364.777h50.663v50.663h-50.663zM111.46 364.777h50.663v50.663H111.46zM385.043 364.777h50.663v50.663h-50.663zM293.848 364.777h50.663v50.663h-50.663z" style="" fill="#2387aa" data-original="#5eb3d1" class=""></path><circle cx="445.839" cy="172.256" r="141.858" style="" fill="#025c98" data-original="#e34b87" class=""></circle><path d="M445.839 101.327c4.489.051 8.967.527 13.375 1.419l-14.976 9.423 10.801 17.155 34.198-21.532c4.732-2.979 6.151-9.241 3.172-13.973a10.836 10.836 0 0 0-.385-.567l-24.906-34.198-16.385 11.926 8.106 11.065c-49.61-7.387-95.815 26.842-103.202 76.451a90.753 90.753 0 0 0-.993 13.76 90.588 90.588 0 0 0 16.516 52.356l16.587-11.642c-22.484-32.08-14.713-76.309 17.367-98.794a70.997 70.997 0 0 1 40.725-12.849zM520.091 118.725l-16.587 11.642c22.484 32.08 14.713 76.309-17.367 98.794a70.993 70.993 0 0 1-40.723 12.848 71.34 71.34 0 0 1-13.365-1.419l14.966-9.434-10.791-17.145-34.198 21.532c-4.732 2.979-6.161 9.231-3.182 13.973.122.193.253.385.385.567l24.906 34.198 16.385-11.936-8.106-11.065c49.853 7.133 96.058-27.5 103.191-77.353a91.197 91.197 0 0 0-15.554-65.204l.04.002z" style="" fill="#f4eef0" data-original="#bf3d75" class=""></path><path d="M516.768 557.298H30.398C13.608 557.298 0 543.69 0 526.9v-30.398h211.591a18.325 18.325 0 0 1 16.395 10.133 18.326 18.326 0 0 0 16.395 10.133h58.405a18.325 18.325 0 0 0 16.395-10.133 18.326 18.326 0 0 1 16.395-10.133h211.591V526.9c-.001 16.79-13.609 30.398-30.399 30.398z" style="" fill="#0c4f67" data-original="#dadddf" class=""></path><path d="M496.502 496.502V526.9c0 16.79-13.608 30.398-30.398 30.398h50.663c16.79 0 30.398-13.608 30.398-30.398v-30.398h-50.663z" style="" fill="#041f29" data-original="#d0d4d6" class=""></path></g></svg>