<svg id="Layer_1" height="512" viewBox="0 0 256 256" width="512" xmlns="http://www.w3.org/2000/svg"><g><path d="m59.391 16.736h137.218v172.406h-137.218z" fill="#63bce7"/><g><path d="m59.391 16.736h14.667v172.406h-14.667z" fill="#6377e7"/></g><g><path d="m181.942 16.736h14.667v172.406h-14.667z" fill="#63e2e7"/></g><path d="m59.391 88.673v29.396l5.786-6.788c2.399-2.815 6.665-3.155 9.48-.755 2.815 2.399 3.155 6.665.756 9.48l-13.163 15.441s3.929 16.579-6.427 26.051h-29.276l2.595-35.615c.311-3.289 2.34-6.071 4.402-8.373z" fill="#f8af23"/><g><path d="m48.212 117.511 11.18-12.474v-16.364l-25.846 28.838c-2.062 2.301-4.091 5.083-4.402 8.373l-2.595 35.614h14.667l2.595-35.614c.31-3.289 2.338-6.072 4.401-8.373z" fill="#f87023"/></g><path d="m17.539 161.498h51.233v21.13h-51.233z" fill="#707070" transform="matrix(-1 0 0 -1 86.31 344.127)"/><path d="m17.539 161.498h14.667v21.131h-14.667z" fill="#5b5b5b"/><path d="m20.574 182.629h45.161v44.881h-45.161z" fill="#cecece" transform="matrix(-1 0 0 -1 86.31 410.139)"/><g><path d="m20.574 182.629h14.667v44.881h-14.667z" fill="#afafaf"/></g><path d="m196.609 88.673v29.396l-5.786-6.788c-2.399-2.815-6.665-3.155-9.48-.755-2.815 2.399-3.155 6.665-.755 9.48l13.162 15.442s-3.929 16.579 6.427 26.051h29.276l-2.595-35.615c-.311-3.289-2.34-6.071-4.402-8.373z" fill="#f8af23"/><g><path d="m226.857 125.884c-.312-3.289-2.34-6.072-4.402-8.373l-25.846-28.838v16.364l11.18 12.474c2.062 2.301 4.091 5.083 4.402 8.373l2.595 35.614h14.667z" fill="#f8d323"/></g><path d="m187.229 161.498h51.233v21.13h-51.233z" fill="#707070"/><g><path d="m223.795 161.498h14.667v21.131h-14.667z" fill="#9e9e9e"/></g><path d="m190.265 182.629h45.161v44.881h-45.161z" fill="#cecece"/><g><path d="m220.759 182.629h14.667v44.881h-14.667z" fill="#e2e2e2"/></g><path d="m120.211 46.691h15.579v43.972h-15.579z" fill="#f46275"/><g><path d="m88.334 58.663h15.579v32h-15.579z" fill="#f8af23"/><path d="m152.087 33.225h15.579v57.439h-15.579z" fill="#cecece"/></g><g fill="#3f3679"><path d="m25.89 237.765h-18.5c-.828 0-1.5.672-1.5 1.5s.672 1.5 1.5 1.5h18.5c.828 0 1.5-.672 1.5-1.5s-.672-1.5-1.5-1.5z"/><path d="m248.61 237.765h-18.5c-.828 0-1.5.672-1.5 1.5s.672 1.5 1.5 1.5h18.5c.828 0 1.5-.672 1.5-1.5s-.672-1.5-1.5-1.5z"/><path d="m215.337 237.765h-174.674c-.828 0-1.5.672-1.5 1.5s.672 1.5 1.5 1.5h174.674c.828 0 1.5-.672 1.5-1.5s-.672-1.5-1.5-1.5z"/><path d="m7.39 229.01h13.185 45.161 124.529 45.161 13.185c.828 0 1.5-.672 1.5-1.5s-.672-1.5-1.5-1.5h-11.685v-41.881h1.536c.828 0 1.5-.672 1.5-1.5v-21.131c0-.828-.672-1.5-1.5-1.5h-7.615l-2.496-34.256c-.366-3.865-2.746-6.964-4.778-9.232l-25.464-28.411v-71.364c0-.828-.672-1.5-1.5-1.5h-137.217c-.828 0-1.5.672-1.5 1.5v71.364l-25.464 28.411c-2.032 2.269-4.412 5.367-4.781 9.265l-2.493 34.224h-7.615c-.828 0-1.5.672-1.5 1.5v21.131c0 .828.672 1.5 1.5 1.5h1.536v41.881h-11.685c-.828 0-1.5.672-1.5 1.5s.672 1.499 1.5 1.499zm59.845-38.368h121.529v35.368h-121.529zm166.691 35.368h-42.161v-41.881h42.161zm3.036-44.881h-1.536-45.161-1.536v-7.565h28.048c.828 0 1.5-.672 1.5-1.5s-.672-1.5-1.5-1.5h-28.048v-7.565h11.448 29.275 7.51zm-15.624-62.617c1.726 1.926 3.743 4.521 4.023 7.481l2.478 34.005h-27.066c-9.046-8.819-5.599-24.051-5.563-24.206.109-.465-.009-.955-.318-1.317l-13.162-15.443c-1.869-2.191-1.605-5.495.586-7.364 2.193-1.868 5.497-1.604 7.366.587l5.785 6.788 10.987 12.889c.297.349.718.527 1.143.527.344 0 .689-.118.972-.358.631-.537.706-1.484.169-2.114l-10.629-12.468v-24.925zm-160.446-100.277h134.217v70.438 25.324l-3.144-3.688c-1.42-1.667-3.411-2.681-5.606-2.856-2.196-.172-4.321.511-5.989 1.932-1.666 1.421-2.68 3.411-2.854 5.606s.512 4.321 1.932 5.987l12.686 14.884c-.55 2.887-2.014 13.203 2.977 21.711v2.426h-7.88c-.828 0-1.5.672-1.5 1.5v21.131c0 .828.672 1.5 1.5 1.5h1.536v3.513h-121.532v-3.513h1.536c.828 0 1.5-.672 1.5-1.5v-21.131c0-.828-.672-1.5-1.5-1.5h-7.88v-1.621c0-.211-.045-.412-.124-.595 5.14-8.547 3.655-19.01 3.101-21.921l12.686-14.883c1.42-1.667 2.106-3.793 1.932-5.988s-1.188-4.186-2.855-5.606-3.796-2.104-5.988-1.932c-2.195.176-4.187 1.189-5.606 2.856l-3.144 3.688v-25.324-70.438zm-30.256 107.79c.283-2.993 2.301-5.588 4.026-7.514l23.229-25.918v24.923l-10.629 12.468c-.537.63-.462 1.577.169 2.114.282.24.628.358.972.358.425 0 .846-.179 1.143-.527l10.987-12.889 5.785-6.788c1.869-2.192 5.173-2.456 7.365-.587s2.456 5.173.587 7.365l-13.162 15.442c-.31.362-.428.853-.318 1.317.036.155 3.483 15.387-5.563 24.206h-27.066zm-11.598 36.973h7.51 29.275 11.448v7.565h-28.047c-.828 0-1.5.672-1.5 1.5s.672 1.5 1.5 1.5h28.048v7.565h-1.536-45.162-1.536zm3.036 21.131h42.161v41.881h-42.161z"/><path d="m26.548 173.563h6.084c.828 0 1.5-.672 1.5-1.5s-.672-1.5-1.5-1.5h-6.084c-.828 0-1.5.672-1.5 1.5s.672 1.5 1.5 1.5z"/><path d="m223.368 170.563c-.828 0-1.5.672-1.5 1.5s.672 1.5 1.5 1.5h6.084c.828 0 1.5-.672 1.5-1.5s-.672-1.5-1.5-1.5z"/><path d="m120.211 92.163h15.578c.828 0 1.5-.672 1.5-1.5v-43.972c0-.828-.672-1.5-1.5-1.5h-15.578c-.828 0-1.5.672-1.5 1.5v43.972c0 .828.672 1.5 1.5 1.5zm1.5-43.972h12.578v40.972h-12.578z"/><path d="m88.334 92.163h15.578c.828 0 1.5-.672 1.5-1.5v-32c0-.828-.672-1.5-1.5-1.5h-15.578c-.828 0-1.5.672-1.5 1.5v32c0 .828.672 1.5 1.5 1.5zm1.5-32h12.578v29h-12.578z"/><path d="m152.088 92.163h15.578c.828 0 1.5-.672 1.5-1.5v-57.438c0-.828-.672-1.5-1.5-1.5h-15.578c-.828 0-1.5.672-1.5 1.5v57.438c0 .828.672 1.5 1.5 1.5zm1.5-57.438h12.578v54.438h-12.578z"/><path d="m88.334 106.903h79.332c.828 0 1.5-.672 1.5-1.5s-.672-1.5-1.5-1.5h-79.332c-.828 0-1.5.672-1.5 1.5s.672 1.5 1.5 1.5z"/><path d="m88.334 126.586h79.332c.828 0 1.5-.672 1.5-1.5s-.672-1.5-1.5-1.5h-79.332c-.828 0-1.5.672-1.5 1.5s.672 1.5 1.5 1.5z"/><path d="m88.334 146.268h79.332c.828 0 1.5-.672 1.5-1.5s-.672-1.5-1.5-1.5h-79.332c-.828 0-1.5.672-1.5 1.5s.672 1.5 1.5 1.5z"/><path d="m88.334 165.95h79.332c.828 0 1.5-.672 1.5-1.5s-.672-1.5-1.5-1.5h-79.332c-.828 0-1.5.672-1.5 1.5s.672 1.5 1.5 1.5z"/></g></g></svg>