<svg id="Capa_1" enable-background="new 0 0 511.997 511.997" height="512" viewBox="0 0 511.997 511.997" width="512" xmlns="http://www.w3.org/2000/svg"><g><g><g><path d="m339.29 182.054v94.196c0 4.533-1.931 9.074-5.785 12.256-57.899 47.751-116.145 63.089-130.656 66.34-2.27.502-4.603.502-6.873 0-10.418-2.332-43.38-10.897-82.566-33.209-15.4-8.773-31.764-19.663-48.091-33.131-3.854-3.182-5.785-7.723-5.785-12.256v-94.196z" fill="#365e7d"/><path d="m113.409 182.058v139.577c-15.399-8.769-31.76-19.661-48.09-33.13-3.852-3.181-5.781-7.718-5.781-12.255v-94.191h53.871z" fill="#2b4d66"/><path d="m339.29 182.054v44.322c-63.066 40.599-118.972 55.211-135.167 58.833-1.552.348-3.136.517-4.711.517-1.576 0-3.159-.17-4.711-.517-16.195-3.622-72.101-18.234-135.167-58.833v-44.322z" fill="#2b4d66"/><path d="m391.327 120.078v31.61c0 6.225-2.641 12.449-7.931 16.813-79.446 65.521-159.363 86.574-179.272 91.03-1.552.348-3.136.517-4.711.517-1.576 0-3.159-.17-4.711-.517-19.91-4.456-99.826-25.509-179.272-91.03-5.29-4.364-7.931-10.588-7.931-16.813v-31.61z" fill="#365e7d"/><path d="m199.412 120.078v139.97c-1.576 0-3.159-.17-4.711-.517-19.91-4.456-99.826-25.509-179.272-91.03-5.29-4.364-7.931-10.588-7.931-16.813v-31.61z" fill="#2b4d66"/><path d="m204.12 227.912c19.91-4.451 99.832-25.506 179.276-91.03 10.574-8.721 10.574-24.89 0-33.611-79.444-65.524-159.366-86.579-179.276-91.03-3.1-.693-6.316-.693-9.416 0-19.91 4.451-99.832 25.506-179.276 91.03-10.574 8.721-10.574 24.89 0 33.611 79.444 65.524 159.366 86.579 179.276 91.03 3.101.693 6.316.693 9.416 0z" fill="#365e7d"/><ellipse cx="199.412" cy="120.077" fill="#f6e266" rx="26.709" ry="16.95"/><g><circle cx="105.616" cy="276.228" fill="#f6e266" r="15.452"/><path d="m111.379 290.569c-1.784.718-3.722 1.112-5.761 1.112-8.534 0-15.454-6.92-15.454-15.454s6.92-15.446 15.454-15.446c2.039 0 3.977.394 5.761 1.112-5.684 2.278-9.692 7.839-9.692 14.334 0 6.496 4.008 12.056 9.692 14.342z" fill="#ffc250"/><path d="m126.263 330.058c0-11.403-9.244-38.379-20.647-38.379s-20.647 26.976-20.647 38.379 9.244 20.647 20.647 20.647 20.647-9.244 20.647-20.647z" fill="#f6e266"/><path d="m105.62 350.709c-11.407 0-20.651-9.244-20.651-20.651 0-11.399 9.245-38.375 20.651-38.375-4.016 0-7.275 26.976-7.275 38.375 0 11.407 3.259 20.651 7.275 20.651z" fill="#ffc250"/></g></g><g><path d="m374.678 467.641-52.733-13.96-28.37 46.592-34.641-86.097 81.103-32.631z" fill="#dd636e"/><path d="m493.229 349.588-311.255 125.236-33.816-84.059-10.279-25.553 311.246-125.226c8.574-3.45 19.937 2.968 30.246 15.584 6.288 7.692 12.175 17.69 16.788 29.163 12.173 30.266 10.86 59.309-2.93 64.855z" fill="#f9f6f6"/><path d="m479.37 255.57c-1.795 1.986-3.891 3.49-6.268 4.453l-324.944 130.742-10.279-25.553 311.246-125.226c8.573-3.45 19.936 2.968 30.245 15.584z" fill="#e7ecf6"/><ellipse cx="159.927" cy="420.018" fill="#e7ecf6" rx="26.928" ry="59.072" transform="matrix(.928 -.373 .373 .928 -145.221 90.054)"/><path d="m368.023 399.961-78.263 31.49c13.799-5.546 15.113-34.588 2.939-64.854-4.332-10.751-9.778-20.217-15.625-27.699-10.6-13.579-22.514-20.629-31.409-17.048l78.263-31.49c8.895-3.58 20.809 3.47 31.409 17.049 5.846 7.481 11.292 16.948 15.624 27.699 12.175 30.264 10.861 59.307-2.938 64.853z" fill="#dd636e"/><path d="m355.337 307.407-78.263 31.49c-10.6-13.579-22.514-20.629-31.409-17.048l78.263-31.49c8.895-3.58 20.809 3.47 31.409 17.048z" fill="#cb5769"/></g></g><path d="m503.113 281.937c-14.167-35.206-38.573-56.229-56.788-48.908l-99.535 40.047v-68.293c13.592-8.925 27.485-19.041 41.377-30.498 6.773-5.587 10.658-13.824 10.658-22.598v-31.61l-.002.001v-.001c0-8.767-3.882-17.002-10.654-22.596-79.853-65.858-159.808-87.497-182.421-92.562-4.144-.923-8.526-.922-12.679.002-7.336 1.643-22.692 5.503-43.117 12.908-3.895 1.411-5.907 5.712-4.495 9.607 1.411 3.894 5.713 5.907 9.606 4.495 19.641-7.12 34.296-10.807 41.275-12.37 2.038-.455 4.107-.455 6.14-.002 21.783 4.879 98.86 25.754 176.142 89.493 3.307 2.731 5.203 6.75 5.203 11.027s-1.896 8.296-5.199 11.024c-77.285 63.743-154.363 84.617-176.135 89.494-2.043.454-4.112.454-6.142.002-12.04-2.697-40.977-10.286-77.5-27.293l61.832-52.662c5.35 2.462 11.765 3.884 18.733 3.884 19.182 0 34.209-10.74 34.209-24.45s-15.026-24.449-34.209-24.449-34.21 10.74-34.21 24.449c0 3.988 1.279 7.722 3.554 11.016l-64.624 55.04c-26.012-13.262-54.956-31.133-83.928-55.028-3.307-2.731-5.203-6.75-5.203-11.027s1.896-8.296 5.199-11.024c32.602-26.89 68.879-49.193 107.821-66.288 3.793-1.665 5.518-6.089 3.853-9.882s-6.091-5.518-9.882-3.852c-40.207 17.65-77.665 40.68-111.339 68.453-6.768 5.591-10.65 13.826-10.65 22.593v.003l-.003-.004v31.61c0 8.774 3.885 17.011 10.659 22.599 13.892 11.457 27.785 21.573 41.378 30.498v71.465c0 7.005 3.103 13.579 8.512 18.034 6.727 5.549 13.775 10.896 20.994 15.974-2.698 7.754-4.072 15.358-4.072 19.798 0 15.52 12.627 28.147 28.147 28.147 12.096 0 22.432-7.669 26.406-18.4 7.799 3.732 15.657 7.152 23.534 10.215l-20.459 8.232c-.006.002-.012.004-.018.006-18.208 7.326-21.256 39.401-7.09 74.61 6.282 15.613 15.053 29.264 24.696 38.441 8.272 7.871 16.687 11.947 24.386 11.946 2.666 0 5.247-.489 7.706-1.478.022-.009.043-.021.065-.03l80.21-32.274 21.565 53.597c1.06 2.633 3.514 4.442 6.342 4.675.207.017.413.025.618.025 2.601 0 5.036-1.353 6.404-3.6l25.457-41.809 47.32 12.527c2.739.725 5.661-.158 7.54-2.285s2.396-5.132 1.337-7.765l-21.564-53.593 77.114-31.033c3.843-1.546 5.704-5.915 4.158-9.758s-5.916-5.704-9.758-4.158l-45.705 18.39c2.496-13.953-.037-32.673-7.965-52.379-6.282-15.612-15.053-29.264-24.696-38.44-1.931-1.837-3.87-3.454-5.805-4.874l104.51-42.049c7.343-2.958 25.522 11.387 37.273 40.591 5.499 13.665 8.249 27.359 7.743 38.556-.395 8.742-2.891 15.077-6.514 16.535l-31.3 12.59c-3.843 1.545-5.705 5.914-4.159 9.757s5.915 5.704 9.757 4.159l31.3-12.59c9.56-3.845 15.207-14.419 15.9-29.775.599-13.291-2.53-29.213-8.813-44.828zm-303.7-171.309c11.725 0 19.209 5.597 19.209 9.45s-7.483 9.45-19.209 9.45-19.21-5.597-19.21-9.45 7.484-9.45 19.21-9.45zm-.003 125.301c2.134 0 4.269-.231 6.348-.693 22.193-4.972 99.675-25.927 178.068-89.027v5.479c0 4.28-1.896 8.3-5.202 11.027-77.321 63.768-154.366 84.623-176.12 89.492-2.052.454-4.131.454-6.163.004-12.658-2.833-44.004-11.072-83.223-30.004v-15.048c37.65 17.467 67.506 25.289 79.961 28.079 2.07.461 4.199.691 6.331.691zm-184.41-84.241v-5.479c28.719 23.118 57.315 40.578 83.117 53.668v14.748c-24.418-12.907-51.148-29.835-77.913-51.91-3.308-2.728-5.204-6.747-5.204-11.027zm55.089 131.022c-1.94-1.598-3.053-3.952-3.053-6.459v-62.011c10.677 6.457 21.088 12.184 31.081 17.254v23.047c-8.982 3.115-15.451 11.657-15.451 21.686 0 6.757 2.937 12.84 7.599 17.044-.782 1.016-1.529 2.089-2.241 3.211-6.155-4.403-12.166-9.013-17.935-13.772zm35.528 1.469c-4.385 0-7.951-3.567-7.951-7.952s3.566-7.952 7.951-7.952 7.952 3.567 7.952 7.952-3.567 7.952-7.952 7.952zm0 59.025c-7.25 0-13.147-5.897-13.147-13.147 0-11.901 9.245-30.361 13.124-30.879h.003c3.923.52 13.167 18.979 13.167 30.879 0 7.25-5.897 13.147-13.147 13.147zm27.528-19.549c-1.469-8.971-5.571-21.804-12.176-30.383 4.663-4.204 7.6-10.287 7.6-17.045 0-10.03-6.469-18.571-15.452-21.687v-15.764c37.655 17.471 67.508 25.288 79.963 28.076 2.1.465 4.213.697 6.329.697 2.119 0 4.241-.233 6.352-.701 17.205-3.851 67.661-17.312 126.029-52.61v62.01c0 1.086-.226 2.132-.62 3.113l-154.659 62.226c-14.489-4.747-29.046-10.767-43.366-17.932zm131.472 12.569c8.122 7.728 15.623 19.51 21.12 33.173 11.725 29.141 8.588 52.034 1.274 55.072l-87.179 35.078c2.496-13.953-.036-32.674-7.965-52.381-6.282-15.613-15.053-29.264-24.696-38.441-1.931-1.838-3.87-3.454-5.806-4.874l87.138-35.059c3.623-1.421 9.794 1.42 16.114 7.432zm-101.592 124.218c-8.122-7.728-15.623-19.51-21.12-33.173-11.75-29.204-8.576-52.135-1.229-55.095h.002l.008-.003c.626-.251 1.328-.374 2.094-.374 3.67 0 8.809 2.807 14.051 7.795 8.122 7.728 15.623 19.51 21.12 33.173 11.73 29.155 8.586 52.056 1.264 55.077l-.037.015c-.006.002-.01.006-.016.008-3.625 1.447-9.804-1.397-16.137-7.423zm199.11-3.882-38.272-10.132c-3.212-.85-6.597.514-8.325 3.35l-20.589 33.814-15.979-39.715 13.586-5.466c.002-.001.004-.001.006-.002l53.593-21.564zm-19.256-151.825c8.122 7.728 15.622 19.509 21.12 33.173 11.721 29.132 8.59 52.019 1.281 55.068l-57.659 23.2c2.495-13.953-.042-32.674-7.969-52.377-6.282-15.613-15.053-29.264-24.696-38.441-1.927-1.833-3.862-3.461-5.793-4.879l57.594-23.173c3.625-1.432 9.798 1.412 16.122 7.429z"/></g></svg>