<svg height="512" viewBox="0 0 512 512" width="512" xmlns="http://www.w3.org/2000/svg"><path d="m93.54 35.29h330.38v433.12h-330.38z" fill="#007aca"/><path d="m119.26 68.44h276.5a0 0 0 0 1 0 0v372.19a0 0 0 0 1 0 0h-241.81a34.69 34.69 0 0 1 -34.69-34.69v-337.5a0 0 0 0 1 0 0z" fill="#fff"/><path d="m264.8 26.67h46.38v20.18h-46.38z" fill="#fff"/><path d="m206.27 26.67h88.73v20.18h-88.73z" fill="#cecece"/><path d="m379.75 440.63h31.33a37.07 37.07 0 0 0 37.07-37.07h-255.52a37.07 37.07 0 0 1 -37.06 37.07" fill="#f7aa8f"/><path d="m151.18 352.09a5 5 0 0 1 -4.05-7.94l22.36-30.82a4.25 4.25 0 0 0 -3.44-6.74h-14.87a5 5 0 0 1 0-10h14.87a14.24 14.24 0 0 1 11.53 22.61l-6.88 9.49 60.79-38.82a5 5 0 1 1 5.38 8.43l-83 53a5 5 0 0 1 -2.69.79z" fill="#007aca"/><path d="m104.59 267.51 12.24-5.67a84.25 84.25 0 0 0 48.85-76.46v-62.26h-31.68a31.07 31.07 0 0 1 -29.41-21.12 31.07 31.07 0 0 1 -29.43 21.11h-31.66v62.26a84.26 84.26 0 0 0 48.86 76.46z" fill="#fc8c5c"/><path d="m165.68 123.12v62.26a84.25 84.25 0 0 1 -48.85 76.46l-12.23 5.67-6.17-2.85 6.08-2.82a84.25 84.25 0 0 0 48.85-76.46v-62.26z" fill="#fff"/><path d="m132.7 187a40.16 40.16 0 1 1 -45.36-39.83 38.82 38.82 0 0 1 5.2-.34 40.17 40.17 0 0 1 40.16 40.17z" fill="#e85021"/><path d="m144.76 187a40.17 40.17 0 0 1 -40.16 40.16 40.71 40.71 0 0 1 -5.21-.34 40.16 40.16 0 0 1 0-79.65 39 39 0 0 1 5.21-.34 40.17 40.17 0 0 1 40.16 40.17z" fill="#fff"/><path d="m135.06 187a30.46 30.46 0 0 1 -30.46 30.46 32.1 32.1 0 0 1 -3.95-.25 30.47 30.47 0 1 1 34.41-30.21z" fill="#f7bf08"/><path d="m366.52 329.44-8.36 8.36-13.31 29.87-46.34 9.74a5.69 5.69 0 0 1 -6.74-6.74l9.74-46.34 29.87-13.33 8.36-8.36" opacity=".37"/><path d="m342.86 290.45h42.27v23.22h-42.27z" opacity=".37" transform="matrix(-.707 -.707 .707 -.707 407.78 773.03)"/><path d="m449.5 246.44-62.35 62.35-29.89-29.89 92.24-92.24" opacity=".37"/><path d="m359.26 313.05-8.36 8.36-13.31 29.86-54.88 11.55 11.54-54.88 29.87-13.32 8.36-8.35" fill="#f7aa8f"/><circle cx="314.16" cy="330.02" fill="#3b8c99" r="7.63"/><path d="m342.86 269.92h42.27v23.22h-42.27z" fill="#f7bf08" transform="matrix(-.707 -.707 .707 -.707 422.3 737.99)"/><path d="m449.5 225.92-62.35 62.35-29.89-29.89 92.24-92.24" fill="#cecece"/><path d="m93.54 93.75a5 5 0 0 0 5-5v-48.46h102.73v6.56a5 5 0 0 0 5 5h104.91a5 5 0 0 0 5-5v-6.56h102.74v148l-18.16 18.16v-137.78a5 5 0 0 0 -5-5h-277.28a5 5 0 0 0 -5 5v20.08a5 5 0 0 0 10 0v-15.08h267.28v142.79l-38.38 38.38-12.88 12.89-7.71-7.7a5 5 0 0 0 -7.07 7.07l11.28 11.24 29.89 29.89 11.24 11.24a5 5 0 1 0 7.07-7.07l-7.7-7.71 12.88-12.88 1.42-1.43v108.18h-198.17a5 5 0 0 0 -5 5 32.1 32.1 0 0 1 -32.07 32.07h-2.28a30.08 30.08 0 0 1 -29.42-29.95v-120.68a5 5 0 0 0 -10 0v120.67a40.13 40.13 0 0 0 39.14 39.95h258.08a42.11 42.11 0 0 0 42.07-42.07 5 5 0 0 0 -5-5h-47.39v-118.17l18.16-18.16v108.6a5 5 0 0 0 10 0v-118.6l22.77-22.76a5 5 0 0 0 -7.08-7.08l-58.81 58.82-22.8-22.82 88.71-88.7a5 5 0 0 0 -7.08-7.08l-15.69 15.7v-143a5 5 0 0 0 -5-5h-107.76v-3.63a5 5 0 0 0 -5-5h-104.91a5 5 0 0 0 -5 5v3.62h-107.73a5 5 0 0 0 -5 5v53.46a5 5 0 0 0 5 5zm317.54 341.88h-228.34a42 42 0 0 0 14.59-27.07h245.43a32.12 32.12 0 0 1 -31.68 27.07zm-41.7-138-22.82-22.83 9.35-9.35 22.82 22.82zm-63.2-265.96v10.18h-94.91v-6.56-3.62z"/><path d="m428.92 468.41a5 5 0 0 0 -5-5h-325.38v-178.41a5 5 0 0 0 -10 0v183.41a5 5 0 0 0 5 5h330.38a5 5 0 0 0 5-5z"/><path d="m324.81 299.19a5 5 0 0 0 1.5-1l8.36-8.36a5 5 0 1 0 -7.08-7.07l-7.7 7.7-29 12.94a5 5 0 0 0 -2.86 3.54l-11.54 54.88a5 5 0 0 0 4.89 6 5.15 5.15 0 0 0 1-.11l54.88-11.54a5 5 0 0 0 3.54-2.86l12.94-29 7.7-7.71a5 5 0 0 0 -7.07-7.07l-8.37 8.34a5 5 0 0 0 -1 1.5l-12.28 27.54-35.92 7.55 12.71-12.71a12.45 12.45 0 0 0 4.66.89 12.62 12.62 0 1 0 -11.74-8l-12.7 12.71 7.55-35.92zm-12.51 29a2.63 2.63 0 0 1 3.72 0 2.63 2.63 0 1 1 -3.72 0z"/><path d="m90.08 266.38 12.24 5.67a4.94 4.94 0 0 0 2.1.46 5 5 0 0 0 2.1-.46l12.23-5.67a89.55 89.55 0 0 0 51.76-81v-62.26a5 5 0 0 0 -5-5h-31.67a26.06 26.06 0 0 1 -24.69-17.71 5 5 0 0 0 -4.73-3.4 5 5 0 0 0 -4.74 3.4 26.06 26.06 0 0 1 -24.68 17.71h-31.67a5 5 0 0 0 -5 5v62.26a89.54 89.54 0 0 0 51.75 81zm-41.75-138.26h26.67a36.08 36.08 0 0 0 29.43-15.21 36 36 0 0 0 29.42 15.21h26.67v57.26a79.52 79.52 0 0 1 -46 71.93l-10.1 4.69-10.14-4.69a79.52 79.52 0 0 1 -45.95-71.93z"/><path d="m104.59 232.14a45.21 45.21 0 0 0 45.16-45.14 45.7 45.7 0 0 0 -.27-5 5 5 0 1 0 -9.94 1.09 35.75 35.75 0 0 1 .21 3.88 35.16 35.16 0 1 1 -10.53-25.1 5 5 0 1 0 7-7.14 45.16 45.16 0 1 0 -31.63 77.4z"/><path d="m84.24 183.66a5 5 0 0 0 -7.07 7.07l20.83 20.8a5 5 0 0 0 7.08 0l49.68-49.69a5 5 0 0 0 -7.07-7.07l-46.19 46.15z"/><path d="m206.27 151.8h9.48a5 5 0 0 0 0-10h-9.48a5 5 0 0 0 0 10z"/><path d="m357.09 141.8h-121a5 5 0 1 0 0 10h121a5 5 0 0 0 0-10z"/><path d="m206.27 208.06h9.48a5 5 0 0 0 0-10h-9.48a5 5 0 0 0 0 10z"/><path d="m362.09 203.06a5 5 0 0 0 -5-5h-121a5 5 0 1 0 0 10h121a5 5 0 0 0 5-5z"/><path d="m357.09 170.46h-15.82a5 5 0 0 0 0 10h15.82a5 5 0 0 0 0-10z"/><path d="m206.27 180.46h117.06a5 5 0 0 0 0-10h-117.06a5 5 0 0 0 0 10z"/><path d="m329.33 231.33a5 5 0 0 0 -5-5h-117.73a5 5 0 0 0 0 10h117.73a5 5 0 0 0 5-5z"/><path d="m146.18 365.5a5 5 0 0 0 5 5h76.49a5 5 0 0 0 0-10h-76.49a5 5 0 0 0 -5 5z"/></svg>