<svg id="_x33_0" enable-background="new 0 0 62 62" height="512" viewBox="0 0 62 62" width="512" xmlns="http://www.w3.org/2000/svg"><g><g><g><path d="m37 49c-2.61 0-4.84 1.67-5.66 4h-.34v-16h10.44c.92 0 1.72.62 1.94 1.51l.62 2.49h-6c-.55 0-1 .45-1 1v2c0 .55.45 1 1 1h7l1.15 4.61.79 3.15c.02.08.04.16.04.24h-4.32c-.82-2.33-3.05-4-5.66-4z" fill="#fcd770"/></g><g><path d="m30 31h-26c-.55 0-1 .45-1 1v21h28v-21c0-.55-.45-1-1-1z" fill="#d3a06c"/></g><g><path d="m21 31v7l-4-2-4 2v-7z" fill="#b27946"/></g><g><path d="m44 41 1 4h-7c-.55 0-1-.45-1-1v-2c0-.55.45-1 1-1z" fill="#69d6f4"/></g><g><path d="m31.34 53c.82-2.33 3.05-4 5.66-4s4.84 1.67 5.66 4c.22.63.34 1.3.34 2s-.12 1.37-.34 2c-.82 2.33-3.05 4-5.66 4s-4.84-1.67-5.66-4c-.22-.63-.34-1.3-.34-2s.12-1.37.34-2z" fill="#969faa"/></g><g><path d="m18.66 53c.22.63.34 1.3.34 2s-.12 1.37-.34 2c-.82 2.33-3.05 4-5.66 4s-4.84-1.67-5.66-4c-.22-.63-.34-1.3-.34-2s.12-1.37.34-2c.82-2.33 3.05-4 5.66-4s4.84 1.67 5.66 4z" fill="#969faa"/></g><g><path d="m43 55c0-.7-.12-1.37-.34-2h4.32c.02.08.02.16.02.25v2.75c0 .55-.45 1-1 1h-3.34c.22-.63.34-1.3.34-2z" fill="#ccd1d9"/></g><g><circle cx="37" cy="55" fill="#ccd1d9" r="2"/></g><g><path d="m31 55c0 .7.12 1.37.34 2h-12.68c.22-.63.34-1.3.34-2s-.12-1.37-.34-2h12.34.34c-.22.63-.34 1.3-.34 2z" fill="#ccd1d9"/></g><g><circle cx="13" cy="55" fill="#ccd1d9" r="2"/></g><g><path d="m7 55c0 .7.12 1.37.34 2h-5.34c-.55 0-1-.45-1-1v-2c0-.55.45-1 1-1h1 4.34c-.22.63-.34 1.3-.34 2z" fill="#ccd1d9"/></g><g><path d="m61 39c0 1.3-.42 2.56-1.2 3.6l-4.8 6.4-3.79-5.05-1.01-1.35c-.78-1.04-1.2-2.3-1.2-3.6 0-1.66.67-3.16 1.76-4.24 1.06-1.07 2.53-1.74 4.16-1.76h.08c1.66 0 3.16.67 4.24 1.76 1.09 1.08 1.76 2.58 1.76 4.24z" fill="#ff826e"/></g><g><path d="m53 12v.2c0 2.11-.61 4.17-1.74 5.93-.19.3-.39.58-.61.86l-8.65 11.01-8.65-11.01c-1.52-1.94-2.35-4.33-2.35-6.79v-.2c0-1.79.43-3.48 1.18-4.97 1.82-3.58 5.53-6.03 9.82-6.03 3.04 0 5.79 1.23 7.78 3.22s3.22 4.74 3.22 7.78z" fill="#ff826e"/></g><g><path d="m19.99 9.67c.64.95 1.01 2.1 1.01 3.33 0 1.3-.42 2.56-1.2 3.6l-4.8 6.4-3.98-5.3-.82-1.1c-.78-1.04-1.2-2.3-1.2-3.6 0-1.66.67-3.16 1.76-4.24 1.08-1.09 2.58-1.76 4.24-1.76s3.16.67 4.24 1.76c.28.28.53.58.75.91z" fill="#ff826e"/></g><g><circle cx="55" cy="39" fill="#ffeaa7" r="2"/></g><g><circle cx="42" cy="12" fill="#ffeaa7" r="7"/></g><g><circle cx="15" cy="13" fill="#ffeaa7" r="2"/></g></g><g><path d="m37 52c-1.654 0-3 1.346-3 3s1.346 3 3 3 3-1.346 3-3-1.346-3-3-3zm0 4c-.551 0-1-.448-1-1s.449-1 1-1 1 .448 1 1-.449 1-1 1z"/><path d="m13 52c-1.654 0-3 1.346-3 3s1.346 3 3 3 3-1.346 3-3-1.346-3-3-3zm0 4c-.551 0-1-.448-1-1s.449-1 1-1 1 .448 1 1-.449 1-1 1z"/><path d="m15 16c1.654 0 3-1.346 3-3s-1.346-3-3-3-3 1.346-3 3 1.346 3 3 3zm0-4c.551 0 1 .448 1 1s-.449 1-1 1-1-.448-1-1 .449-1 1-1z"/><path d="m55 36c-1.654 0-3 1.346-3 3s1.346 3 3 3 3-1.346 3-3-1.346-3-3-3zm0 4c-.551 0-1-.448-1-1s.449-1 1-1 1 .448 1 1-.449 1-1 1z"/><path d="m55.956 32.073c.015-.358.044-.716.044-1.073 0-4.558-1.244-8.989-3.58-12.87 1.023-1.8 1.58-3.853 1.58-5.934v-.196c0-6.617-5.383-12-12-12-4.438 0-8.313 2.428-10.389 6.02-3.877-.089-7.813.738-11.327 2.403-1.285-1.481-3.175-2.423-5.284-2.423-3.86 0-7 3.141-7 7 0 1.506.498 2.997 1.4 4.199l.414.552c-2.311 3.689-3.605 7.888-3.777 12.249h-2.037c-1.103 0-2 .897-2 2v20c-1.103 0-2 .897-2 2v2c0 1.103.897 2 2 2h4.685c1.126 2.361 3.53 4 6.315 4s5.189-1.639 6.315-4h11.37c1.126 2.361 3.53 4 6.315 4s5.189-1.639 6.315-4h2.685c1.103 0 2-.897 2-2v-2.754c0-.244-.03-.488-.089-.728l-.64-2.56c1.49-1.279 2.819-2.721 3.968-4.307l3.761 5.016 5.6-7.467c.903-1.203 1.4-2.695 1.4-4.2 0-3.534-2.636-6.458-6.044-6.927zm-13.956-30.073c5.514 0 10 4.486 10 10v.195c0 2.23-.759 4.425-2.137 6.178l-7.863 10.009-7.863-10.009c-1.378-1.753-2.137-3.947-2.137-6.178v-.195c0-5.514 4.486-10 10-10zm-27 6c2.757 0 5 2.243 5 5 0 1.075-.355 2.141-1 2.999l-4 5.334-4-5.334c-.645-.858-1-1.924-1-2.999 0-2.757 2.243-5 5-5zm-11 24h8v7.618l5-2.5 5 2.5v-7.618h8v20h-10.685c-1.126-2.361-3.53-4-6.315-4s-5.189 1.639-6.315 4h-2.685zm10 0h6v4.382l-3-1.5-3 1.5zm18 6h9.438c.459 0 .859.312.97.757l.311 1.243h-4.719c-1.103 0-2 .897-2 2v2c0 1.103.897 2 2 2h6.219l1.5 6h-2.404c-1.126-2.361-3.53-4-6.315-4-1.958 0-3.728.81-5 2.111zm11.719 6h-5.719v-2h5.219zm-41.719 12v-2h4.08c-.047.328-.08.66-.08 1s.033.672.08 1zm11 4c-2.757 0-5-2.243-5-5s2.243-5 5-5 5 2.243 5 5-2.243 5-5 5zm6.92-4c.047-.328.08-.66.08-1s-.033-.672-.08-1h10.16c-.047.328-.08.66-.08 1s.033.672.08 1zm17.08 4c-2.757 0-5-2.243-5-5s2.243-5 5-5 5 2.243 5 5-2.243 5-5 5zm6.92-4c.047-.328.08-.66.08-1s-.033-.672-.08-1h2.08v2zm2.805-8.225-2.376-9.503c-.335-1.337-1.532-2.272-2.911-2.272h-9.438v-4c0-1.103-.897-2-2-2h-21.964c.16-3.726 1.204-7.322 3.067-10.529l3.897 5.196 5.6-7.467c.903-1.203 1.4-2.695 1.4-4.2 0-1.029-.229-2.004-.63-2.885 2.93-1.357 6.06-2.065 9.326-2.106-.442 1.251-.696 2.59-.696 3.991v.195c0 2.677.911 5.311 2.564 7.414l9.436 12.009 9.17-11.671c1.853 3.376 2.83 7.166 2.83 11.053 0 .361-.028.724-.044 1.087-3.365.507-5.956 3.409-5.956 6.913 0 1.506.498 2.997 1.4 4.199l.577.77c-.947 1.383-2.03 2.661-3.252 3.806zm12.275-5.776-4 5.334-4-5.334c-.645-.858-1-1.924-1-2.999 0-2.757 2.243-5 5-5s5 2.243 5 5c0 1.075-.355 2.141-1 2.999z"/><path d="m42 20c4.411 0 8-3.589 8-8s-3.589-8-8-8-8 3.589-8 8 3.589 8 8 8zm0-14c3.309 0 6 2.691 6 6s-2.691 6-6 6-6-2.691-6-6 2.691-6 6-6z"/><path d="m24 26h2v2h-2z"/><path d="m28 26h2v2h-2z"/><path d="m32 26h2v2h-2z"/></g></g></svg>