<?xml version="1.0" standalone="no"?>
<!DOCTYPE svg PUBLIC "-//W3C//DTD SVG 20010904//EN"
 "http://www.w3.org/TR/2001/REC-SVG-20010904/DTD/svg10.dtd">
<svg version="1.0" xmlns="http://www.w3.org/2000/svg"
 width="808.000000pt" height="796.000000pt" viewBox="0 0 808.000000 796.000000"
 preserveAspectRatio="xMidYMid meet">

<g transform="translate(0.000000,796.000000) scale(0.100000,-0.100000)"
fill="#000000" stroke="none">
<path d="M3620 7746 c-1059 -112 -1994 -620 -2649 -1441 -450 -563 -720 -1216
-813 -1965 -17 -141 -17 -699 0 -840 93 -749 363 -1401 813 -1965 634 -795
1539 -1301 2564 -1432 200 -26 730 -26 930 0 727 93 1391 371 1946 815 671
535 1142 1269 1343 2092 79 326 101 520 101 910 0 390 -22 584 -101 910 -201
823 -672 1557 -1343 2092 -546 437 -1195 712 -1904 809 -195 27 -695 35 -887
15z m580 -76 c380 -23 670 -79 1018 -195 743 -250 1404 -742 1867 -1390 372
-521 600 -1127 671 -1779 22 -201 22 -571 0 -772 -62 -578 -245 -1108 -547
-1592 -155 -249 -310 -443 -529 -663 -197 -197 -363 -334 -590 -485 -1069
-711 -2439 -828 -3616 -310 -617 272 -1164 718 -1559 1271 -372 521 -600 1127
-671 1779 -22 201 -22 571 0 772 71 652 299 1258 671 1779 191 267 471 564
710 754 629 500 1363 783 2151 830 191 12 243 12 424 1z"/>
<path d="M3715 7534 c-16 -2 -77 -9 -135 -15 -612 -64 -1241 -311 -1750 -687
-745 -550 -1250 -1352 -1415 -2247 -44 -240 -58 -394 -58 -655 0 -276 16 -452
64 -697 231 -1180 1042 -2175 2155 -2642 1227 -514 2636 -329 3678 483 701
547 1185 1339 1340 2196 50 277 70 677 47 952 -54 632 -281 1260 -641 1770
-230 326 -562 657 -893 891 -387 274 -891 490 -1365 586 -263 53 -372 64 -697
66 -165 2 -313 1 -330 -1z m345 -1301 l0 -468 -347 -442 -347 -443 -404 0
c-331 0 -402 2 -395 13 12 20 1485 1807 1489 1807 2 0 4 -210 4 -467z m916
-378 c378 -462 713 -873 746 -912 l59 -73 -405 0 -405 0 -345 444 -345 443 -7
473 c-5 338 -4 472 4 469 6 -2 320 -382 698 -844z m-2279 -2478 c277 -606 507
-1108 510 -1115 4 -10 -10 -12 -66 -10 l-72 3 -474 1055 c-261 580 -475 1060
-475 1066 0 7 12 40 27 74 21 50 28 58 36 45 5 -9 236 -513 514 -1118z m1893
1118 c427 -64 774 -422 866 -892 24 -119 24 -347 0 -466 -70 -359 -284 -650
-591 -802 -156 -77 -220 -90 -435 -89 -172 0 -191 2 -273 27 -385 118 -661
435 -747 856 -25 122 -27 338 -5 462 53 302 220 568 465 741 208 147 457 203
720 163z m2820 -35 l0 -50 -575 0 -575 0 0 -615 0 -615 341 0 342 0 -7 -37
c-3 -21 -6 -46 -6 -55 0 -17 -23 -18 -335 -18 l-335 0 0 -415 0 -415 -78 0
-79 0 -6 443 c-4 243 -7 754 -7 1135 l0 692 660 0 660 0 0 -50z m-1610 -1085
l0 -1125 -70 0 -70 0 0 1125 0 1125 70 0 70 0 0 -1125z m220 0 l0 -1125 -70 0
-70 0 0 1125 0 1125 70 0 70 0 0 -1125z m-3500 -110 c249 -539 456 -988 462
-998 8 -17 4 -18 -64 -15 l-72 3 -427 934 -427 934 31 69 c17 38 34 65 38 61
4 -4 211 -449 459 -988z m-157 -118 c224 -492 407 -897 407 -900 0 -4 -33 -7
-74 -7 l-73 0 -230 503 c-127 276 -277 604 -334 729 -57 124 -106 225 -109
223 -3 -2 -154 -330 -335 -729 l-330 -726 -78 0 c-46 0 -77 4 -75 10 13 37
814 1789 818 1790 3 0 189 -402 413 -893z"/>
<path d="M4291 4389 c-73 -14 -142 -39 -225 -82 l-79 -41 6 -345 c4 -189 7
-593 7 -897 l0 -553 53 -30 c103 -59 199 -83 343 -89 156 -5 242 10 355 64
103 50 181 108 280 211 159 164 251 368 280 618 29 251 -57 579 -206 790 -53
75 -178 194 -256 245 -153 99 -382 144 -558 109z"/>
<path d="M3797 4082 l-27 -28 0 -682 0 -682 30 -32 29 -33 1 743 c0 408 -1
742 -3 742 -2 0 -15 -13 -30 -28z"/>
<path d="M3587 3633 c-41 -171 -41 -361 0 -521 l18 -67 3 168 c1 93 1 241 0
330 l-3 162 -18 -72z"/>
</g>
</svg>
