<?xml version="1.0" encoding="UTF-8"?>
<svg width="150px" height="34px" viewBox="0 0 150 34" version="1.1" xmlns="http://www.w3.org/2000/svg" xmlns:xlink="http://www.w3.org/1999/xlink">
    <!-- Generator: Sketch 52.6 (67491) - http://www.bohemiancoding.com/sketch -->
    <title>GSPANN Logo</title>
    <desc>Created with Sketch.</desc>
    <defs>
        <polygon id="path-1" points="0 0.0319700461 33.003729 0.0319700461 33.003729 33.0357067 0 33.0357067"></polygon>
    </defs>
    <g id="Page-1" stroke="none" stroke-width="1" fill="none" fill-rule="evenodd">
        <g id="Home-Page" transform="translate(-250.000000, -15.000000)">
            <g id="Navigation">
                <g id="GSPANN-Logo" transform="translate(250.000000, 15.000000)">
                    <path d="M51.1879587,15.6821375 C51.8967784,15.5665132 52.5869568,15.5090432 53.2583426,15.5090432 C53.9285916,15.5090432 54.628318,15.5665132 55.3571429,15.6821375 L55.3571429,25.8627728 C54.3599153,26.2283461 53.3202525,26.4731259 52.2373967,26.5984045 C51.154541,26.723075 50.2107363,26.7857143 49.405907,26.7857143 C47.7186525,26.7857143 46.2430437,26.5210176 44.9780196,25.9926125 C43.7135259,25.4636753 42.6590866,24.7235585 41.8156867,23.7716539 C40.9723626,22.8205095 40.3395474,21.6909495 39.9184537,20.383202 C39.4968295,19.0759866 39.2857143,17.653223 39.2857143,16.1148352 C39.2857143,14.5770555 39.505847,13.1491226 39.9474005,11.8316447 C40.3878175,10.5153831 41.0251792,9.37609277 41.8588797,8.41445782 C42.6925801,7.45289889 43.7180726,6.70305169 44.9354328,6.1644601 C46.1522626,5.62640064 47.5370146,5.35714286 49.0892342,5.35714286 C50.009169,5.35714286 50.8667393,5.4146129 51.6624753,5.53023715 C52.4575294,5.64578538 53.2866832,5.88600407 54.1493305,6.25096924 C54.11076,6.82825428 53.9955787,7.39025959 53.8042413,7.93850554 C53.6124493,8.48621935 53.4019403,9.03902641 53.1721081,9.59700274 C52.5006466,9.36583026 51.9070083,9.20299848 51.3894502,9.10622683 C50.8718163,9.01059547 50.2583244,8.96217164 49.5495047,8.96217164 C47.7095592,8.96217164 46.2957846,9.56340253 45.3088627,10.764724 C44.3214104,11.9666537 43.8281768,13.7498214 43.8281768,16.1148352 C43.8281768,18.479849 44.3168638,20.2442401 45.2946924,21.4068681 C46.2719905,22.5705604 47.7095592,23.1518745 49.606868,23.1518745 C49.9326341,23.1518745 50.2248309,23.1330979 50.4836857,23.0944044 C50.7424647,23.0562431 50.9768435,23.0175496 51.1879587,22.9787802 L51.1879587,15.6821375 Z" id="Fill-1" fill="#1C355E"></path>
                    <path d="M62.6674349,16.8356433 C62.0345898,16.5862263 61.467787,16.3124074 60.9654087,16.0140345 C60.4631039,15.7157377 60.035152,15.3604269 59.6820678,14.9465057 C59.3284688,14.5338009 59.0541501,14.0384639 58.8585969,13.461711 C58.663632,12.8843499 58.565598,12.1926569 58.565598,11.3847315 C58.565598,10.40432 58.7285713,9.53892455 59.0541501,8.78907735 C59.3791405,8.03930616 59.8395988,7.40956831 60.4350837,6.90001581 C61.0304215,6.39107147 61.7465183,6.00618943 62.5836684,5.74650999 C63.4209656,5.48690656 64.3601211,5.35714286 65.4016497,5.35714286 C66.3507336,5.35714286 67.2385554,5.44365199 68.066439,5.61674628 C68.8937342,5.78984057 69.7634642,6.03978964 70.6751143,6.36659349 C70.5638424,7.48193799 70.2658425,8.57789775 69.7822179,9.6545488 C69.5034866,9.53892455 69.2199013,9.42390845 68.9312416,9.30836022 C68.6425818,9.19273597 68.3358302,9.0971046 68.0108398,9.0197177 C67.6847462,8.94339505 67.3173944,8.88075575 66.9086375,8.83240793 C66.4993658,8.78459225 66.03398,8.76011427 65.5134364,8.76011427 C65.1967564,8.76011427 64.8761786,8.78907735 64.5505998,8.84662341 C64.2251681,8.9047016 63.9320957,9.01059547 63.672118,9.16430502 C63.4110372,9.31801458 63.1973186,9.54409381 63.0304476,9.84185856 C62.8629881,10.1401554 62.7792952,10.5295986 62.7792952,11.010112 C62.7792952,11.394994 62.8442344,11.7167046 62.97426,11.9763081 C63.1042121,12.2359115 63.2810851,12.4568215 63.5046586,12.6395701 C63.7277907,12.8223187 63.9789431,12.9761043 64.2576009,13.1007748 C64.5369206,13.2259774 64.8161668,13.3461627 65.0948981,13.461711 L66.7692718,14.124973 C67.4760286,14.4130834 68.1176255,14.7114563 68.6943567,15.0188754 C69.2704995,15.3268267 69.7591251,15.7066154 70.1589833,16.1580897 C70.5589149,16.6101722 70.8705939,17.157886 71.0936526,17.8017633 C71.3172995,18.4462488 71.4285714,19.2394266 71.4285714,20.1816768 C71.4285714,21.1620883 71.2567729,22.0559147 70.9124404,22.8638401 C70.568255,23.6708533 70.0708777,24.3631544 69.4197936,24.9399073 C68.7681948,25.5166602 67.9640659,25.9687427 67.0061567,26.2955465 C66.0477327,26.6223504 64.945604,26.7857143 63.6996234,26.7857143 C63.0860467,26.7857143 62.5369681,26.7663295 62.0538582,26.7282442 C61.5696453,26.6889426 61.1092605,26.6269115 60.6724098,26.5403263 C60.2351179,26.4538172 59.8026798,26.3433622 59.3747279,26.2089614 C58.9467024,26.0746366 58.5005852,25.9111966 58.0357143,25.7187936 C58.0913135,25.1608173 58.1938336,24.5795033 58.3424659,23.9737113 C58.4912451,23.3679953 58.6680447,22.7579462 58.8729379,22.1424999 C59.653974,22.4698358 60.388751,22.7146156 61.0772689,22.8780556 C61.7651985,23.0414195 62.500049,23.1229114 63.2810851,23.1229114 C64.4531541,23.1229114 65.3741442,22.8974403 66.0433201,22.4453578 C66.7131578,21.9938075 67.0480032,21.3060675 67.0480032,20.383202 C67.0480032,19.9220734 66.9686493,19.5371913 66.8106035,19.2296962 C66.6525577,18.9222771 66.4481792,18.6626737 66.1970268,18.4508859 C65.9458744,18.2396303 65.6622157,18.0614428 65.3460505,17.9173876 C65.0292969,17.7733324 64.7043065,17.6338383 64.3694612,17.4989053 L62.6674349,16.8356433 Z" id="Fill-3" fill="#1C355E"></path>
                    <path d="M79.107924,16.3919807 C79.3328501,16.4310425 79.5439826,16.4499979 79.7410989,16.4499979 L80.4581483,16.4499979 C80.9269112,16.4499979 81.3867751,16.3873762 81.8372948,16.2609051 C82.287147,16.1350479 82.6853842,15.9258486 83.0325254,15.6349957 C83.3797408,15.3436055 83.656282,14.9608154 83.8628907,14.484937 C84.0689062,14.0095958 84.1722847,13.422211 84.1722847,12.7232431 C84.1722847,12.0053965 84.0689062,11.3984424 83.8628907,10.903532 C83.656282,10.4086983 83.3797408,10.0110202 83.0325254,9.70980704 C82.6853842,9.40920784 82.287147,9.19594126 81.8372948,9.06947011 C81.3867751,8.9430757 80.9269112,8.87984013 80.4581483,8.87984013 C80.2515396,8.87984013 80.059392,8.8850586 79.8817055,8.89480486 C79.7033516,8.90455112 79.4456469,8.92872491 79.107924,8.96717276 L79.107924,16.3919807 Z M75,5.61921748 C75.8626247,5.54163111 76.7346677,5.47839554 77.6166481,5.43012469 C78.4980353,5.38185385 79.388989,5.35714286 80.289361,5.35714286 C81.227406,5.35714286 82.178874,5.45429848 83.145248,5.648533 C84.1111771,5.84284425 84.9832201,6.20660229 85.7618962,6.74003733 C86.5400531,7.27400957 87.173228,8.01656711 87.6608275,8.96717276 C88.1485012,9.91846909 88.3928571,11.1512558 88.3928571,12.665226 C88.3928571,14.1791961 88.1485012,15.4068411 87.6608275,16.3483144 C87.173228,17.2897878 86.5450218,18.0323453 85.775764,18.5755266 C85.0065063,19.1192451 84.1484053,19.4882216 83.2013869,19.6819189 C82.2544427,19.8761534 81.320773,19.9733091 80.4020836,19.9733091 C80.1582467,19.9733091 79.9283519,19.9687045 79.7127699,19.9583443 C79.4967429,19.949212 79.2951029,19.9342473 79.107924,19.914678 L79.107924,26.6402878 C78.7513645,26.6983049 78.4042233,26.7373667 78.0670937,26.756936 C77.7293708,26.7758913 77.4006212,26.7857143 77.0824022,26.7857143 C76.7818333,26.7857143 76.4536028,26.7758913 76.0975624,26.756936 C75.741003,26.7373667 75.3749511,26.6983049 75,26.6402878 L75,5.61921748 Z" id="Fill-5" fill="#1C355E"></path>
                    <path d="M99.6299817,18.841783 L97.2196757,9.98896505 L94.6935728,18.841783 L99.6299817,18.841783 Z M94.9841749,5.53307885 C95.3904974,5.47466532 95.7774567,5.43070064 96.1455118,5.40110754 C96.5128782,5.37166897 96.9192772,5.35714286 97.3646324,5.35714286 C97.7522039,5.35714286 98.1293667,5.37166897 98.4973453,5.40110754 C98.8647882,5.43070064 99.2711872,5.47466532 99.7171547,5.53307885 L106.25,26.6097783 C105.456106,26.7273008 104.682264,26.7857143 103.927326,26.7857143 C103.191292,26.7857143 102.475387,26.7273008 101.778386,26.6097783 L100.617049,22.3885507 L93.7065054,22.3885507 L92.5159322,26.6097783 C91.8188546,26.7273008 91.1511662,26.7857143 90.5119487,26.7857143 C89.7961201,26.7857143 89.089246,26.7273008 88.3928571,26.6097783 L94.9841749,5.53307885 Z" id="Fill-7" fill="#1C355E"></path>
                    <path d="M108.035714,5.53307885 C108.629379,5.41555639 109.19516,5.35714286 109.731997,5.35714286 C110.30687,5.35714286 110.900459,5.41555639 111.513824,5.53307885 L119.505756,18.9592282 L119.505756,5.53307885 C120.195802,5.41555639 120.856978,5.35714286 121.48921,5.35714286 C122.08333,5.35714286 122.658128,5.41555639 123.214286,5.53307885 L123.214286,26.6097783 C122.600314,26.7272235 122.044762,26.7857143 121.547024,26.7857143 C121.010187,26.7857143 120.425691,26.7272235 119.793534,26.6097783 L111.744244,13.2133765 L111.744244,26.6097783 C111.130272,26.7272235 110.507739,26.7857143 109.875507,26.7857143 C109.24335,26.7857143 108.629379,26.7272235 108.035714,26.6097783 L108.035714,5.53307885 Z" id="Fill-9" fill="#1C355E"></path>
                    <path d="M127.678571,5.53307885 C128.27216,5.41555639 128.838017,5.35714286 129.374854,5.35714286 C129.949727,5.35714286 130.543316,5.41555639 131.156681,5.53307885 L139.148614,18.9592282 L139.148614,5.53307885 C139.838659,5.41555639 140.499835,5.35714286 141.131992,5.35714286 C141.726187,5.35714286 142.300985,5.41555639 142.857143,5.53307885 L142.857143,26.6097783 C142.243172,26.7272235 141.68762,26.7857143 141.189881,26.7857143 C140.653044,26.7857143 140.068548,26.7272235 139.436391,26.6097783 L131.387101,13.2133765 L131.387101,26.6097783 C130.773129,26.7272235 130.150596,26.7857143 129.518364,26.7857143 C128.886207,26.7857143 128.27216,26.7272235 127.678571,26.6097783 L127.678571,5.53307885 Z" id="Fill-11" fill="#1C355E"></path>
                    <g id="Group-15">
                        <mask id="mask-2" fill="white">
                            <use xlink:href="#path-1"></use>
                        </mask>
                        <g id="Clip-14"></g>
                        <path d="M20.9711171,18.0782161 L20.972335,21.5086021 C19.7690434,22.1110091 18.4842281,22.4849064 17.4522807,22.4849064 C14.1277765,22.4849064 11.5769474,19.9053804 11.5769474,16.4947854 C11.5769474,13.1408231 14.0990796,10.5613732 17.394963,10.5613732 C19.2580555,10.5613732 21.2931773,11.3924422 22.7547412,12.7399796 L25.6210081,9.27199082 C23.5578744,7.43759525 20.4047145,6.29086015 17.4236599,6.29086015 C11.0893281,6.29086015 6.35996873,10.6760848 6.35996873,16.4947854 C6.35996873,22.3414218 10.9746165,26.7560284 17.0801341,26.7560284 C18.997119,26.7560284 21.1810537,26.2486942 23.0578477,25.4434297 C24.4907147,24.8286914 25.4202057,23.4207914 25.4202057,21.8616427 L25.4202057,18.0799669 L20.9711171,18.0782161 Z M33.003729,16.5338346 C33.003729,25.6475813 25.6156797,33.0357067 16.5018569,33.0357067 C7.38818631,33.0357067 -1.52238315e-05,25.6475813 -1.52238315e-05,16.5338346 C-1.52238315e-05,7.42008785 7.38818631,0.0319624342 16.5018569,0.0319624342 C25.6156797,0.0319624342 33.003729,7.42008785 33.003729,16.5338346 Z" id="Fill-13" fill="#9C182F" mask="url(#mask-2)"></path>
                    </g>
                    <polygon id="Fill-16" fill="#1C355E" points="146.614688 6.65549236 146.614688 8.92857143 146.239213 8.92857143 146.239213 6.65549236 145.535714 6.65549236 145.535714 6.25 147.321429 6.25 147.321429 6.65549236"></polygon>
                    <polygon id="Fill-18" fill="#1C355E" points="149.605403 8.92857143 149.601873 6.92723029 148.802012 8.64928753 148.52326 8.64928753 147.72332 6.92723029 147.72332 8.92857143 147.321429 8.92857143 147.321429 6.25 147.828342 6.25 148.664518 8.02935687 149.496851 6.25 150 6.25 150 8.92857143"></polygon>
                </g>
            </g>
        </g>
    </g>
</svg>