<svg id="Layer_1" enable-background="new 0 0 128 128" height="512" viewBox="0 0 128 128" width="512" xmlns="http://www.w3.org/2000/svg"><path d="m114.951 34.256h-42.89-9.592-18.308l1.18-1.18c.74-.739.74-1.943 0-2.682l-4.109-4.109c-.74-.74-1.943-.74-2.682 0l-2.101 2.1c-.959-.515-1.972-.934-3.011-1.249v-2.969c0-1.046-.851-1.896-1.897-1.896h-5.812c-1.046 0-1.896.851-1.896 1.896v2.969c-1.041.314-2.053.734-3.012 1.249l-2.1-2.1c-.739-.739-1.942-.739-2.682 0l-4.109 4.109c-.359.358-.556.834-.556 1.341s.197.983.556 1.341l2.1 2.101c-.514.958-.934 1.971-1.248 3.011h-2.97c-1.046 0-1.896.851-1.896 1.896v5.812c0 1.046.851 1.896 1.896 1.896h2.969c.314 1.041.734 2.053 1.248 3.011l-2.099 2.1c-.359.358-.556.834-.556 1.342 0 .507.197.983.556 1.341l4.109 4.109c.739.739 1.942.739 2.682 0l1.184-1.184v41.084c0 5.037 4.097 9.134 9.134 9.134h85.913c5.036 0 9.134-4.097 9.134-9.134v-56.205c-.001-5.037-4.099-9.134-9.135-9.134z" fill="#e6e7e8"/><path d="m22.142 45.324c2.239 1.038 5.116.472 6.795-1.337.459-.494.818-1.07 1.074-1.691.681-1.652.628-3.618-.246-5.185-1.21-2.171-3.895-3.405-6.33-2.904-2.402.495-4.371 2.632-4.665 5.067-.294 2.451 1.134 5.012 3.372 6.05z" fill="#0089ef"/><path d="m110.951 31.256h-72.204l-.268.268c-.278.278-.346.706-.158 1.052.51.94.926 1.937 1.236 2.981.112.376.462.631.855.631h3.047c.495 0 .897.401.897.897v5.812c0 .495-.401.897-.897.897h-3.047c-.393 0-.743.254-.855.631-.31 1.044-.726 2.041-1.236 2.981-.188.345-.12.774.158 1.052l2.156 2.156c.35.35.35.918 0 1.268l-4.109 4.109c-.35.35-.918.35-1.268 0l-2.156-2.156c-.278-.278-.706-.346-1.052-.158-.94.51-1.937.926-2.981 1.236-.376.112-.631.462-.631.855v3.047c0 .495-.401.897-.897.897h-5.812c-.495 0-.897-.401-.897-.897v-3.047c0-.393-.254-.743-.631-.855-1.044-.31-2.041-.726-2.981-1.236-.1-.054-.207-.081-.316-.094v42.015c0 4.492 3.642 8.134 8.134 8.134h85.913c4.492 0 8.134-3.642 8.134-8.134v-56.208c0-4.492-3.641-8.134-8.134-8.134z" fill="#0089ef"/><path d="m110.951 31.256h-72.204l-.268.268c-.278.278-.346.706-.158 1.052.293.54.546 1.104.774 1.68h71.857c4.492 0 8.134 3.642 8.134 8.134v-3c-.001-4.492-3.642-8.134-8.135-8.134z" fill="#fff"/><path d="m27.724 67.493h80.542v7.944h-80.542z" fill="#fff"/><path d="m44.355 42.896v-5.812c0-.495-.401-.897-.897-.897h-3.047c-.393 0-.743-.254-.855-.631-.31-1.044-.726-2.041-1.236-2.981-.188-.345-.12-.774.158-1.052l2.156-2.156c.35-.35.35-.918 0-1.268l-4.109-4.109c-.35-.35-.918-.35-1.268 0l-2.156 2.156c-.278.278-.706.345-1.052.158-.94-.51-1.937-.926-2.981-1.236-.376-.112-.631-.462-.631-.855v-3.047c0-.495-.401-.897-.897-.897h-5.812c-.495 0-.897.401-.897.897v3.047c0 .393-.254.743-.631.855-1.044.31-2.041.726-2.981 1.236-.345.188-.774.12-1.052-.158l-2.156-2.156c-.35-.35-.918-.35-1.268 0l-4.109 4.109c-.35.35-.35.918 0 1.268l2.156 2.156c.278.278.345.706.158 1.052-.51.94-.926 1.937-1.236 2.981-.112.376-.462.631-.855.631h-3.045c-.495 0-.897.401-.897.897v5.812c0 .495.401.897.897.897h3.047c.393 0 .743.254.855.631.31 1.044.726 2.041 1.236 2.981.188.345.12.774-.158 1.052l-2.156 2.156c-.35.35-.35.918 0 1.268l4.109 4.109c.35.35.918.35 1.268 0l2.156-2.156c.278-.278.706-.345 1.052-.158.94.51 1.937.926 2.981 1.236.376.112.631.462.631.855v3.047c0 .495.401.897.897.897h5.812c.495 0 .897-.401.897-.897v-3.047c0-.393.254-.743.631-.855 1.044-.31 2.041-.726 2.981-1.236.345-.188.774-.12 1.052.158l2.156 2.156c.35.35.918.35 1.268 0l4.109-4.109c.35-.35.35-.918 0-1.268l-2.156-2.156c-.278-.278-.345-.706-.158-1.052.51-.94.926-1.937 1.236-2.981.112-.376.462-.631.855-.631h3.047c.493 0 .895-.402.895-.897zm-14.343-.6c-.256.621-.615 1.197-1.074 1.691-1.679 1.809-4.556 2.375-6.795 1.337s-3.667-3.6-3.371-6.05c.293-2.435 2.263-4.572 4.665-5.067 2.435-.502 5.121.733 6.33 2.903.872 1.568.925 3.534.245 5.186z" fill="#fa759e"/><g fill="#3a2c60"><path d="m110.951 30.256h-39.005c-.553 0-1 .448-1 1s.447 1 1 1h39.005c3.934 0 7.134 3.2 7.134 7.134v8.544h-78.715l-.129-.129c.514-.959.934-1.971 1.249-3.012h2.969c1.046 0 1.896-.851 1.896-1.896v-5.812c0-1.046-.851-1.896-1.896-1.896h-2.969c-.306-1.012-.715-1.996-1.211-2.932h16.28c.552 0 1-.448 1-1s-.448-1-1-1h-14.398l.18-.18c.74-.739.74-1.943 0-2.682l-4.109-4.109c-.739-.74-1.943-.74-2.682 0l-2.101 2.1c-.958-.514-1.971-.934-3.011-1.248v-2.969c0-1.046-.851-1.896-1.896-1.896h-5.812c-1.046 0-1.896.851-1.896 1.896v2.969c-1.041.314-2.053.734-3.011 1.248l-2.101-2.1c-.739-.739-1.943-.738-2.682 0l-4.109 4.109c-.74.739-.74 1.943 0 2.682l2.1 2.101c-.514.958-.934 1.971-1.248 3.011h-2.972c-1.046 0-1.896.851-1.896 1.896v5.812c0 1.046.851 1.896 1.896 1.896h2.969c.314 1.041.734 2.053 1.248 3.011l-2.1 2.101c-.74.739-.74 1.943 0 2.682l4.109 4.109c.738.739 1.942.739 2.682 0l1.185-1.184v40.084c0 5.037 4.097 9.134 9.134 9.134h85.912c5.036 0 9.134-4.097 9.134-9.134v-56.206c.001-5.037-4.097-9.134-9.133-9.134zm-97.571 24.952-3.963-3.963 2.082-2.082c.59-.589.726-1.508.331-2.236-.481-.885-.87-1.823-1.156-2.789-.235-.792-.981-1.346-1.813-1.346h-2.946v-5.605h2.944c.833 0 1.578-.554 1.813-1.347.287-.965.675-1.903 1.156-2.788.395-.728.259-1.647-.33-2.235l-2.082-2.083 3.963-3.963 2.082 2.082c.588.59 1.509.726 2.236.331.885-.481 1.823-.87 2.789-1.156.792-.235 1.346-.981 1.346-1.813v-2.945h5.605v2.944c0 .833.554 1.578 1.347 1.813.965.287 1.903.675 2.788 1.156.726.395 1.647.259 2.235-.33l2.083-2.082 3.963 3.963-2.083 2.083c-.589.589-.725 1.508-.33 2.235.481.885.87 1.823 1.156 2.789.235.792.981 1.346 1.813 1.346h2.944v5.605h-2.944c-.833 0-1.578.554-1.813 1.346-.287.965-.675 1.903-1.156 2.789-.395.727-.259 1.646.33 2.235l2.083 2.083-3.963 3.963-2.082-2.082c-.588-.59-1.509-.726-2.236-.331-.885.481-1.823.87-2.789 1.156-.792.235-1.346.981-1.346 1.813v2.944h-5.605v-2.944c0-.833-.554-1.578-1.346-1.813-.965-.287-1.903-.675-2.789-1.156-.728-.396-1.647-.26-2.235.33zm97.571 47.522h-85.912c-3.934 0-7.134-3.2-7.134-7.134v-33.237h100.18v33.237c0 3.934-3.2 7.134-7.134 7.134z"/><path d="m60.469 32.256h6.592c.553 0 1-.448 1-1s-.447-1-1-1h-6.592c-.552 0-1 .448-1 1s.447 1 1 1z"/><path d="m21.722 46.231c.888.412 1.856.609 2.826.609 1.905 0 3.815-.764 5.123-2.173.531-.572.957-1.242 1.265-1.99.818-1.987.708-4.25-.297-6.053-1.427-2.559-4.543-3.988-7.406-3.396-2.817.581-5.112 3.073-5.456 5.927-.346 2.881 1.313 5.857 3.945 7.076zm-1.958-6.836c.24-1.993 1.906-3.802 3.874-4.207.295-.061.596-.09.897-.09 1.742 0 3.509.978 4.358 2.501.7 1.256.774 2.91.195 4.317-.217.527-.514.995-.882 1.392-1.379 1.485-3.805 1.961-5.642 1.11-1.839-.853-3.043-3.012-2.8-5.023z"/></g></svg>