<?xml version="1.0" encoding="UTF-8" standalone="no"?>
<!-- Created with Inkscape (http://www.inkscape.org/) -->

<svg
   version="1.1"
   id="svg4950"
   xml:space="preserve"
   width="682.66669"
   height="682.66669"
   viewBox="0 0 682.66669 682.66669"
   xmlns="http://www.w3.org/2000/svg"
   xmlns:svg="http://www.w3.org/2000/svg"><defs
     id="defs4954"><clipPath
       clipPathUnits="userSpaceOnUse"
       id="clipPath4980"><path
         d="M 0,512 H 512 V 0 H 0 Z"
         id="path4978" /></clipPath></defs><g
     id="g4956"
     transform="matrix(1.3333333,0,0,-1.3333333,0,682.66667)"><g
       id="g4958"
       transform="translate(128.1426,90.374)"><path
         d="m 0,0 h -90.109 l 9.602,142.864 3.132,46.683 3.811,56.77 h 57.008 l 3.811,-56.77 3.144,-46.683 z"
         style="fill:#eb5569;fill-opacity:1;fill-rule:nonzero;stroke:none"
         id="path4960" /></g><g
       id="g4962"
       transform="translate(128.1401,90.3701)"><path
         d="m 0,0 h -26.1 l -9.6,142.87 -3.14,46.68 -3.81,56.77 h 26.1 l 3.81,-56.77 3.14,-46.68 z"
         style="fill:#e53950;fill-opacity:1;fill-rule:nonzero;stroke:none"
         id="path4964" /></g><g
       id="g4966"
       transform="translate(264.4258,121.7783)"><path
         d="m 0,0 h -90.098 l 10.031,149.322 2.974,44.33 3.54,52.677 h 57.008 l 3.54,-52.677 2.974,-44.33 z"
         style="fill:#eb5569;fill-opacity:1;fill-rule:nonzero;stroke:none"
         id="path4968" /></g><g
       id="g4970"
       transform="translate(264.4297,121.7803)"><path
         d="m 0,0 h -26 l -10.04,149.319 -2.97,44.33 -3.54,52.681 h 26 l 3.54,-52.681 2.97,-44.33 z"
         style="fill:#e53950;fill-opacity:1;fill-rule:nonzero;stroke:none"
         id="path4972" /></g><g
       id="g4974"><g
         id="g4976"
         clip-path="url(#clipPath4980)"><g
           id="g4982"
           transform="translate(309.4805,481.7227)"><path
             d="m 0,0 c 0,-6.254 -2.533,-11.908 -6.627,-15.991 -4.083,-4.094 -9.737,-6.627 -15.991,-6.627 h -22.493 c -0.385,-5.598 -2.827,-10.642 -6.56,-14.373 -4.093,-4.094 -9.748,-6.627 -15.99,-6.627 h -0.589 c -4.263,0 -7.712,-3.449 -7.712,-7.713 v -14.046 c 0,-7.803 -6.333,-14.136 -14.136,-14.136 -3.913,0 -7.441,1.583 -9.997,4.139 -2.556,2.557 -4.139,6.096 -4.139,9.997 v 14.046 c 0,4.264 -3.46,7.713 -7.724,7.713 -6.231,0 -11.999,2.465 -16.217,6.479 -4.218,4.027 -6.898,9.602 -6.977,15.844 -0.079,6.356 2.465,12.123 6.627,16.285 4.093,4.094 9.748,6.627 15.99,6.627 h 22.505 c 0.384,5.598 2.827,10.642 6.559,14.373 4.094,4.094 9.748,6.627 15.991,6.627 h 44.862 C -10.122,22.617 0,12.484 0,0"
             style="fill:#d9e7ec;fill-opacity:1;fill-rule:nonzero;stroke:none"
             id="path4984" /></g><g
           id="g4986"
           transform="translate(250.3701,459.0996)"><path
             d="M 0,0 H 14 C 13.61,-5.59 11.17,-10.64 7.439,-14.369 3.35,-18.46 -2.31,-21 -8.55,-21 h -0.59 c -4.26,0 -7.71,-3.439 -7.71,-7.71 v -14.04 c 0,-7.81 -6.33,-14.14 -14.14,-14.14 -2.55,0 -4.94,0.67 -7,1.861 4.27,2.429 7.14,7.019 7.14,12.279 v 14.04 c 0,4.271 3.45,7.71 7.71,7.71 h 0.59 c 6.24,0 11.9,2.54 15.99,6.631 C -2.83,-10.64 -0.39,-5.59 0,0"
             style="fill:#c5d3dd;fill-opacity:1;fill-rule:nonzero;stroke:none"
             id="path4988" /></g><g
           id="g4990"
           transform="translate(309.4805,481.7197)"><path
             d="m 0,0 c 0,-6.25 -2.53,-11.91 -6.631,-15.989 -4.08,-4.091 -9.729,-6.631 -15.989,-6.631 h -14 c 6.26,0 11.909,2.54 15.989,6.631 C -16.53,-11.91 -14,-6.25 -14,0 c 0,12.49 -10.12,22.62 -22.62,22.62 h 14 C -10.12,22.62 0,12.49 0,0"
             style="fill:#c5d3dd;fill-opacity:1;fill-rule:nonzero;stroke:none"
             id="path4992" /></g><g
           id="g4994"
           transform="translate(128.1426,426.6191)"><path
             d="m 0,0 c 0,-6.242 -2.533,-11.896 -6.627,-15.99 -4.094,-4.094 -9.748,-6.627 -15.991,-6.627 h -0.588 c -4.263,0 -7.712,-3.449 -7.712,-7.713 v -14.045 c 0,-7.804 -6.333,-14.137 -14.136,-14.137 -3.902,0 -7.442,1.583 -9.997,4.14 -2.556,2.556 -4.139,6.095 -4.139,9.997 v 14.045 c 0,4.264 -3.45,7.713 -7.713,7.713 -6.243,0 -11.998,2.465 -16.217,6.479 -4.229,4.027 -6.909,9.602 -6.989,15.844 v 0.397 c -12.417,1.074 -22.165,11.511 -22.165,24.211 0,13.424 10.89,24.315 24.314,24.315 13.423,0 24.314,-10.891 24.314,-24.315 0,-0.565 -0.022,-1.13 -0.068,-1.696 h 41.096 C -10.132,22.618 0,12.497 0,0"
             style="fill:#d9e7ec;fill-opacity:1;fill-rule:nonzero;stroke:none"
             id="path4996" /></g><g
           id="g4998"
           transform="translate(64.5,450.9297)"><path
             d="m 0,0 c 0,-0.56 -0.03,-1.13 -0.07,-1.689 h -14.17 c 0.04,0.559 0.07,1.129 0.07,1.689 0,10.96 -7.26,20.23 -17.23,23.271 2.24,0.679 4.62,1.049 7.08,1.049 C -10.89,24.32 0,13.431 0,0"
             style="fill:#c5d3dd;fill-opacity:1;fill-rule:nonzero;stroke:none"
             id="path5000" /></g><g
           id="g5002"
           transform="translate(128.1401,426.6201)"><path
             d="m 0,0 c 0,-6.24 -2.53,-11.9 -6.62,-15.99 -4.1,-4.09 -9.75,-6.63 -15.99,-6.63 h -0.59 c -4.27,0 -7.72,-3.45 -7.72,-7.71 v -14.05 c 0,-7.8 -6.33,-14.13 -14.13,-14.13 -2.58,0 -5.01,0.69 -7.09,1.909 4.21,2.441 7.05,7 7.05,12.221 v 14.05 c 0,4.26 3.45,7.71 7.72,7.71 h 0.58 c 6.25,0 11.9,2.54 16,6.63 4.09,4.09 6.62,9.75 6.62,15.99 0,12.5 -10.13,22.62 -22.62,22.62 h 14.18 C -10.13,22.62 0,12.5 0,0"
             style="fill:#c5d3dd;fill-opacity:1;fill-rule:nonzero;stroke:none"
             id="path5004" /></g><g
           id="g5006"
           transform="translate(118.5415,233.2383)"><path
             d="m 0,0 h -70.906 l 3.132,46.683 h 64.63 z"
             style="fill:#ffe177;fill-opacity:1;fill-rule:nonzero;stroke:none"
             id="path5008" /></g><g
           id="g5010"
           transform="translate(118.54,233.2402)"><path
             d="m 0,0 h -26.1 l -3.14,46.68 h 26.1 z"
             style="fill:#ffc344;fill-opacity:1;fill-rule:nonzero;stroke:none"
             id="path5012" /></g><g
           id="g5014"
           transform="translate(254.3945,271.1006)"><path
             d="m 0,0 h -70.036 l 2.974,44.33 h 64.088 z"
             style="fill:#ffe177;fill-opacity:1;fill-rule:nonzero;stroke:none"
             id="path5016" /></g><g
           id="g5018"
           transform="translate(254.3901,271.0996)"><path
             d="m 0,0 h -26 l -2.97,44.33 h 26 z"
             style="fill:#ffc344;fill-opacity:1;fill-rule:nonzero;stroke:none"
             id="path5020" /></g><path
           d="M 504.5,7.66 H 298.024 V 293.265 H 504.5 Z"
           style="fill:#eb5569;fill-opacity:1;fill-rule:nonzero;stroke:none"
           id="path5022" /><path
           d="M 504.5,7.66 H 479 v 285.609 h 25.5 z"
           style="fill:#e53950;fill-opacity:1;fill-rule:nonzero;stroke:none"
           id="path5024" /><g
           id="g5026"
           transform="translate(298.0244,201.8232)"><path
             d="m 0,0 v -194.162 h -290.524 v 111.018 l 75.588,13.775 v 28.137 z"
             style="fill:#fff9df;fill-opacity:1;fill-rule:nonzero;stroke:none"
             id="path5028" /></g><g
           id="g5030"
           transform="translate(298.0195,201.8203)"><path
             d="M 0,0 V -194.16 H -27.5 V -5.28 Z"
             style="fill:#fff3be;fill-opacity:1;fill-rule:nonzero;stroke:none"
             id="path5032" /></g><path
           d="M 429.8,7.661 H 372.725 V 75.667 H 429.8 Z"
           style="fill:#a8d3d8;fill-opacity:1;fill-rule:nonzero;stroke:none"
           id="path5034" /><path
           d="M 463.272,223.146 H 339.251 v 28.272 h 124.021 z"
           style="fill:#ffe177;fill-opacity:1;fill-rule:nonzero;stroke:none"
           id="path5036" /><path
           d="m 386.233,165.075 h -46.981 v 28.271 h 46.981 z"
           style="fill:#ffe177;fill-opacity:1;fill-rule:nonzero;stroke:none"
           id="path5038" /><path
           d="m 463.272,165.075 h -46.981 v 28.271 h 46.981 z"
           style="fill:#ffe177;fill-opacity:1;fill-rule:nonzero;stroke:none"
           id="path5040" /><path
           d="m 386.233,107.004 h -46.981 v 28.272 h 46.981 z"
           style="fill:#ffe177;fill-opacity:1;fill-rule:nonzero;stroke:none"
           id="path5042" /><path
           d="m 463.272,107.004 h -46.981 v 28.272 h 46.981 z"
           style="fill:#ffe177;fill-opacity:1;fill-rule:nonzero;stroke:none"
           id="path5044" /><g
           id="g5046"
           transform="translate(504.5,293.2656)"><path
             d="m 0,0 h -74.7 l 17.124,54.192 H 0 Z"
             style="fill:#ffe177;fill-opacity:1;fill-rule:nonzero;stroke:none"
             id="path5048" /></g><path
           d="M 504.5,293.27 H 479 v 54.19 h 25.5 z"
           style="fill:#ffc344;fill-opacity:1;fill-rule:nonzero;stroke:none"
           id="path5050" /><path
           d="m 154.17,111.649 h -26.028 v 26.027 h 26.028 z"
           style="fill:#ffe177;fill-opacity:1;fill-rule:nonzero;stroke:none"
           id="path5052" /><path
           d="m 207.701,111.649 h -26.027 v 26.027 h 26.027 z"
           style="fill:#ffe177;fill-opacity:1;fill-rule:nonzero;stroke:none"
           id="path5054" /><path
           d="m 261.232,111.649 h -26.028 v 26.027 h 26.028 z"
           style="fill:#ffe177;fill-opacity:1;fill-rule:nonzero;stroke:none"
           id="path5056" /><g
           id="g5058"
           transform="translate(504.5,35.333)"><path
             d="M 0,0 V -27.673 H -206.476 V 257.933 H 0 V 34.334"
             style="fill:none;stroke:#000000;stroke-width:15;stroke-linecap:round;stroke-linejoin:round;stroke-miterlimit:10;stroke-dasharray:none;stroke-opacity:1"
             id="path5060" /></g><g
           id="g5062"
           transform="translate(298.0244,201.8232)"><path
             d="m 0,0 v -194.162 h -290.524 v 111.018 l 75.588,13.775 v 28.137 z"
             style="fill:none;stroke:#000000;stroke-width:15;stroke-linecap:round;stroke-linejoin:round;stroke-miterlimit:10;stroke-dasharray:none;stroke-opacity:1"
             id="path5064" /></g><g
           id="g5066"
           transform="translate(99.6226,336.6914)"><path
             d="m 0,0 h 11.964 l 3.811,-56.771 3.144,-46.682 4.369,-65.008"
             style="fill:none;stroke:#000000;stroke-width:15;stroke-linecap:round;stroke-linejoin:round;stroke-miterlimit:10;stroke-dasharray:none;stroke-opacity:1"
             id="path5068" /></g><g
           id="g5070"
           transform="translate(40.3384,124.6631)"><path
             d="m 0,0 7.297,108.575 3.132,46.683 3.811,56.77 h 8.754"
             style="fill:none;stroke:#000000;stroke-width:15;stroke-linecap:round;stroke-linejoin:round;stroke-miterlimit:10;stroke-dasharray:none;stroke-opacity:1"
             id="path5072" /></g><g
           id="g5074"
           transform="translate(178.1606,178.8291)"><path
             d="m 0,0 6.198,92.271 2.974,44.331 3.54,52.676 H 69.72 l 3.54,-52.676 2.974,-44.331 2.716,-40.422"
             style="fill:none;stroke:#000000;stroke-width:15;stroke-linecap:round;stroke-linejoin:round;stroke-miterlimit:10;stroke-dasharray:none;stroke-opacity:1"
             id="path5076" /></g><path
           d="M 429.8,7.661 H 372.725 V 75.667 H 429.8 Z"
           style="fill:none;stroke:#000000;stroke-width:15;stroke-linecap:round;stroke-linejoin:round;stroke-miterlimit:10;stroke-dasharray:none;stroke-opacity:1"
           id="path5078" /><path
           d="M 463.272,223.146 H 339.251 v 28.272 h 124.021 z"
           style="fill:none;stroke:#000000;stroke-width:15;stroke-linecap:round;stroke-linejoin:round;stroke-miterlimit:10;stroke-dasharray:none;stroke-opacity:1"
           id="path5080" /><path
           d="m 386.233,165.075 h -46.981 v 28.271 h 46.981 z"
           style="fill:none;stroke:#000000;stroke-width:15;stroke-linecap:round;stroke-linejoin:round;stroke-miterlimit:10;stroke-dasharray:none;stroke-opacity:1"
           id="path5082" /><path
           d="m 463.272,165.075 h -46.981 v 28.271 h 46.981 z"
           style="fill:none;stroke:#000000;stroke-width:15;stroke-linecap:round;stroke-linejoin:round;stroke-miterlimit:10;stroke-dasharray:none;stroke-opacity:1"
           id="path5084" /><path
           d="m 386.233,107.004 h -46.981 v 28.272 h 46.981 z"
           style="fill:none;stroke:#000000;stroke-width:15;stroke-linecap:round;stroke-linejoin:round;stroke-miterlimit:10;stroke-dasharray:none;stroke-opacity:1"
           id="path5086" /><path
           d="m 463.272,107.004 h -46.981 v 28.272 h 46.981 z"
           style="fill:none;stroke:#000000;stroke-width:15;stroke-linecap:round;stroke-linejoin:round;stroke-miterlimit:10;stroke-dasharray:none;stroke-opacity:1"
           id="path5088" /><g
           id="g5090"
           transform="translate(504.5,293.2656)"><path
             d="m 0,0 h -74.7 l 17.124,54.192 H 0 Z"
             style="fill:none;stroke:#000000;stroke-width:15;stroke-linecap:round;stroke-linejoin:round;stroke-miterlimit:10;stroke-dasharray:none;stroke-opacity:1"
             id="path5092" /></g><g
           id="g5094"
           transform="translate(309.4805,481.7227)"><path
             d="m 0,0 c 0,-6.254 -2.533,-11.908 -6.627,-15.991 -4.083,-4.094 -9.737,-6.627 -15.991,-6.627 h -22.493 c -0.385,-5.598 -2.827,-10.642 -6.56,-14.373 -4.093,-4.094 -9.748,-6.627 -15.99,-6.627 h -0.589 c -4.263,0 -7.712,-3.449 -7.712,-7.713 v -14.046 c 0,-7.803 -6.333,-14.136 -14.136,-14.136 -3.913,0 -7.441,1.583 -9.997,4.139 -2.556,2.557 -4.139,6.096 -4.139,9.997 v 14.046 c 0,4.264 -3.46,7.713 -7.724,7.713 -6.231,0 -11.999,2.465 -16.217,6.479 -4.218,4.027 -6.898,9.602 -6.977,15.844 -0.079,6.356 2.465,12.123 6.627,16.285 4.093,4.094 9.748,6.627 15.99,6.627 h 22.505 c 0.384,5.598 2.827,10.642 6.559,14.373 4.094,4.094 9.748,6.627 15.991,6.627 h 44.862 C -10.122,22.617 0,12.484 0,0 Z"
             style="fill:none;stroke:#000000;stroke-width:15;stroke-linecap:round;stroke-linejoin:round;stroke-miterlimit:10;stroke-dasharray:none;stroke-opacity:1"
             id="path5096" /></g><g
           id="g5098"
           transform="translate(128.1426,426.6191)"><path
             d="m 0,0 c 0,-6.242 -2.533,-11.896 -6.627,-15.99 -4.094,-4.094 -9.748,-6.627 -15.991,-6.627 h -0.588 c -4.263,0 -7.712,-3.449 -7.712,-7.713 v -14.045 c 0,-7.804 -6.333,-14.137 -14.136,-14.137 -3.902,0 -7.442,1.583 -9.997,4.14 -2.556,2.556 -4.139,6.095 -4.139,9.997 v 14.045 c 0,4.264 -3.45,7.713 -7.713,7.713 -6.243,0 -11.998,2.465 -16.217,6.479 -4.229,4.027 -6.909,9.602 -6.989,15.844 v 0.397 c -12.417,1.074 -22.165,11.511 -22.165,24.211 0,13.424 10.89,24.315 24.314,24.315 13.423,0 24.314,-10.891 24.314,-24.315 0,-0.565 -0.022,-1.13 -0.068,-1.696 h 41.096 C -10.132,22.618 0,12.497 0,0 Z"
             style="fill:none;stroke:#000000;stroke-width:15;stroke-linecap:round;stroke-linejoin:round;stroke-miterlimit:10;stroke-dasharray:none;stroke-opacity:1"
             id="path5100" /></g><g
           id="g5102"
           transform="translate(118.5415,233.2383)"><path
             d="m 0,0 h -70.906 l 3.132,46.683 h 64.63 z"
             style="fill:none;stroke:#000000;stroke-width:15;stroke-linecap:round;stroke-linejoin:round;stroke-miterlimit:10;stroke-dasharray:none;stroke-opacity:1"
             id="path5104" /></g><g
           id="g5106"
           transform="translate(254.3945,271.1006)"><path
             d="m 0,0 h -70.036 l 2.974,44.33 h 64.088 z"
             style="fill:none;stroke:#000000;stroke-width:15;stroke-linecap:round;stroke-linejoin:round;stroke-miterlimit:10;stroke-dasharray:none;stroke-opacity:1"
             id="path5108" /></g><path
           d="m 154.17,111.649 h -26.028 v 26.027 h 26.028 z"
           style="fill:none;stroke:#000000;stroke-width:15;stroke-linecap:round;stroke-linejoin:round;stroke-miterlimit:10;stroke-dasharray:none;stroke-opacity:1"
           id="path5110" /><path
           d="m 207.701,111.649 h -26.027 v 26.027 h 26.027 z"
           style="fill:none;stroke:#000000;stroke-width:15;stroke-linecap:round;stroke-linejoin:round;stroke-miterlimit:10;stroke-dasharray:none;stroke-opacity:1"
           id="path5112" /><path
           d="m 261.232,111.649 h -26.028 v 26.027 h 26.028 z"
           style="fill:none;stroke:#000000;stroke-width:15;stroke-linecap:round;stroke-linejoin:round;stroke-miterlimit:10;stroke-dasharray:none;stroke-opacity:1"
           id="path5114" /><g
           id="g5116"
           transform="translate(52.5,79)"><path
             d="M 0,0 H 208.732"
             style="fill:none;stroke:#000000;stroke-width:15;stroke-linecap:round;stroke-linejoin:round;stroke-miterlimit:10;stroke-dasharray:none;stroke-opacity:1"
             id="path5118" /></g></g></g></g></svg>
