<svg width="674" height="581" viewBox="0 0 674 581" fill="none" xmlns="http://www.w3.org/2000/svg">
<path d="M66.5996 224.699L64.5996 224.199C64.9996 222.599 65.3996 220.965 65.7996 219.299L67.7996 219.799C67.3996 221.465 66.9996 223.099 66.5996 224.699Z" fill="#2688C4"/>
<path d="M70.498 210.2L68.498 209.6C69.498 206.4 70.4981 203.2 71.5981 200L73.498 200.7C72.398 203.8 71.398 207 70.498 210.2ZM76.898 191.2L74.998 190.5C76.198 187.4 77.398 184.2 78.698 181.2L80.5981 181.9C79.2981 185 77.998 188.1 76.898 191.2ZM84.5981 172.8L82.798 171.9C84.198 168.9 85.698 165.9 87.198 162.9L88.998 163.8C87.498 166.7 85.9981 169.8 84.5981 172.8ZM93.5981 154.9L91.898 154C93.498 151 95.198 148.1 96.898 145.2L98.5981 146.3C96.8981 149.1 95.1981 152 93.5981 154.9ZM103.898 137.8L102.198 136.7C103.998 133.9 105.898 131 107.798 128.3L109.498 129.5C107.598 132.2 105.698 135 103.898 137.8ZM115.398 121.4L113.798 120.2C115.798 117.5 117.898 114.8 119.998 112.2L121.498 113.5C119.398 116.1 117.398 118.7 115.398 121.4ZM127.898 105.8L126.398 104.5C128.598 102 130.898 99.5 133.198 97L134.598 98.4C132.398 100.8 130.098 103.3 127.898 105.8ZM141.598 91.2L140.198 89.8C142.498 87.4 144.998 85.1 147.398 82.8L148.798 84.3C146.398 86.5 143.898 88.9 141.598 91.2ZM156.198 77.6L154.898 76.1C157.398 73.9 159.998 71.7 162.598 69.6L163.898 71.2C161.298 73.3 158.698 75.4 156.198 77.6ZM171.798 65.1L170.598 63.5C173.198 61.5 175.998 59.5 178.698 57.6L179.898 59.2C177.098 61.1 174.398 63.1 171.798 65.1ZM188.198 53.7L187.098 52C189.898 50.2 192.798 48.4 195.598 46.7L196.598 48.4C193.798 50.1 190.898 51.9 188.198 53.7ZM205.298 43.4L204.298 41.7C207.298 40.1 210.298 38.5 213.198 37L214.098 38.8C211.198 40.3 208.198 41.8 205.298 43.4ZM223.098 34.5L222.298 32.6C225.298 31.2 228.398 29.9 231.498 28.6L232.298 30.4C229.198 31.7 226.098 33.1 223.098 34.5ZM241.498 26.8L240.798 24.9C243.998 23.7 247.098 22.6 250.298 21.5L250.898 23.4C247.798 24.5 244.598 25.6 241.498 26.8ZM260.398 20.4L259.898 18.5C263.098 17.5 266.298 16.6 269.598 15.8L270.098 17.7C266.898 18.6 263.598 19.5 260.398 20.4ZM279.798 15.4L279.298 13.5C282.598 12.7 285.898 12.1 289.198 11.5L289.598 13.4C286.298 14 282.998 14.7 279.798 15.4ZM299.398 11.8L299.098 9.79999C302.398 9.29999 305.798 8.9 309.098 8.5L309.298 10.5C305.998 10.9 302.698 11.3 299.398 11.8Z" fill="#2688C4"/>
<path d="M319.399 9.59921L319.199 7.59921C320.866 7.46588 322.533 7.33255 324.199 7.19922L324.399 9.19922C322.733 9.33255 321.066 9.46588 319.399 9.59921Z" fill="#2688C4"/>
<path d="M75.1988 220L74.0988 218.4L65.7988 223.7L61.0988 215.1L59.2988 216L65.0988 226.6L75.1988 220Z" fill="#2688C4"/>
<path d="M316.398 574.1C314.665 573.966 312.998 573.8 311.398 573.6L311.598 571.6C313.198 571.8 314.832 571.966 316.498 572.1L316.398 574.1Z" fill="#2688C4"/>
<path d="M301.599 572.399C298.299 571.999 295.099 571.499 291.799 570.899L292.199 568.899C295.399 569.499 298.599 569.999 301.799 570.499L301.599 572.399ZM282.199 568.999C278.999 568.299 275.799 567.599 272.599 566.799L273.099 564.799C276.299 565.599 279.499 566.299 282.599 566.999L282.199 568.999ZM263.099 564.299C259.899 563.399 256.799 562.399 253.599 561.399L254.299 559.499C257.399 560.499 260.499 561.499 263.699 562.399L263.099 564.299ZM244.199 558.199C241.199 557.099 238.099 555.899 234.999 554.699L235.799 552.799C238.799 553.999 241.899 555.199 244.899 556.299L244.199 558.199ZM225.899 550.799C222.899 549.499 219.899 548.099 216.899 546.699L217.799 544.899C220.799 546.299 223.799 547.699 226.699 548.999L225.899 550.799ZM208.099 542.199C205.299 540.699 202.399 539.099 199.499 537.399L200.499 535.699C203.299 537.299 206.199 538.899 209.099 540.399L208.099 542.199ZM190.999 532.399C188.199 530.599 185.399 528.799 182.699 526.999L183.799 525.399C186.499 527.199 189.299 528.999 191.999 530.699L190.999 532.399ZM174.599 521.399C171.999 519.499 169.299 517.499 166.799 515.499L167.999 513.899C170.499 515.899 173.199 517.899 175.799 519.799L174.599 521.399ZM158.999 509.299C156.499 507.199 153.999 504.999 151.599 502.799L152.899 501.299C155.299 503.499 157.799 505.599 160.299 507.699L158.999 509.299ZM144.299 496.199C141.999 493.999 139.599 491.599 137.299 489.299L138.799 487.899C141.099 490.199 143.399 492.499 145.699 494.699L144.299 496.199ZM130.599 482.099C128.399 479.699 126.199 477.199 124.099 474.699L125.599 473.399C127.699 475.899 129.799 478.399 131.999 480.799L130.599 482.099ZM117.899 467.099C115.899 464.499 113.899 461.899 111.899 459.199L113.499 457.999C115.499 460.699 117.499 463.299 119.499 465.799L117.899 467.099ZM106.199 451.299C104.299 448.499 102.499 445.799 100.799 442.999L102.499 441.999C104.199 444.699 105.999 447.399 107.799 450.099L106.199 451.299ZM95.6988 434.699C93.9988 431.899 92.3988 428.999 90.8988 426.099L92.5988 425.199C94.1988 427.999 95.7988 430.899 97.3988 433.699L95.6988 434.699ZM86.3988 417.399C84.8988 414.499 83.4988 411.499 82.0988 408.499L83.9988 407.699C85.2988 410.599 86.6988 413.599 88.1988 416.499L86.3988 417.399ZM78.1988 399.499C76.9988 396.499 75.7988 393.399 74.5988 390.299L76.4988 389.599C77.5988 392.699 78.7988 395.699 80.0988 398.699L78.1988 399.499ZM71.2988 381.099C70.2988 377.999 69.2988 374.799 68.2988 371.699L70.2988 371.099C71.1988 374.199 72.1988 377.399 73.1988 380.499L71.2988 381.099ZM65.6988 362.099C64.8988 358.999 64.0988 355.799 63.3988 352.599L65.3988 352.099C66.0988 355.299 66.7988 358.499 67.5988 361.599L65.6988 362.099ZM61.4988 342.899C60.8988 339.699 60.3988 336.399 59.8988 333.199L61.8988 332.899C62.2988 336.099 62.8988 339.299 63.4988 342.499L61.4988 342.899ZM58.5988 323.399C58.1988 320.199 57.8988 316.899 57.5988 313.599L59.5988 313.499C59.8988 316.699 60.1988 319.999 60.5988 323.199L58.5988 323.399ZM56.9988 303.799C56.8988 300.499 56.7988 297.199 56.7988 293.899H58.7988C58.7988 297.099 58.8988 300.399 58.9988 303.699L56.9988 303.799ZM58.7988 284.099H56.7988C56.8988 280.799 57.0988 277.499 57.1988 274.199L59.1988 274.299C59.0988 277.599 58.8988 280.899 58.7988 284.099Z" fill="#2688C4"/>
<path d="M59.998 264.3L57.998 264.1C58.1314 262.433 58.298 260.766 58.498 259.1L60.498 259.3C60.298 260.966 60.1314 262.633 59.998 264.3Z" fill="#2688C4"/>
<path d="M310.699 564.199L309.199 565.599L315.699 572.999L307.799 578.899L308.999 580.499L318.599 573.299L310.699 564.199Z" fill="#2688C4"/>
<path d="M363.798 9.69885C362.198 9.56552 360.565 9.43216 358.898 9.29883L358.998 7.29883C360.665 7.43216 362.332 7.56552 363.998 7.69885L363.798 9.69885Z" fill="#2688C4"/>
<path d="M378.7 572.699L378.4 570.699C381.7 570.199 385.1 569.699 388.3 569.199L388.7 571.099C385.4 571.699 382 572.199 378.7 572.699ZM398.7 569.299L398.2 567.299C401.5 566.599 404.8 565.899 408.1 565.099L408.5 566.999C405.3 567.799 401.9 568.599 398.7 569.299ZM418.4 564.499L417.8 562.499C421 561.599 424.3 560.599 427.5 559.599L428.1 561.499C424.9 562.599 421.6 563.499 418.4 564.499ZM437.7 558.199L437 556.399C440.1 555.199 443.3 553.999 446.4 552.799L447.1 554.599C444 555.899 440.8 557.099 437.7 558.199ZM456.4 550.699L455.6 548.899C458.7 547.499 461.7 546.099 464.7 544.599L465.6 546.399C462.6 547.899 459.5 549.299 456.4 550.699ZM474.6 541.799L473.7 539.999C476.6 538.499 479.6 536.799 482.5 535.099L483.5 536.899C480.6 538.499 477.6 540.199 474.6 541.799ZM492.1 531.599L491.1 529.899C493.9 528.099 496.7 526.299 499.5 524.399L500.6 526.099C497.9 527.899 495 529.799 492.1 531.599ZM508.9 520.199L507.7 518.599C510.4 516.599 513.1 514.599 515.7 512.499L517 514.099C514.3 516.199 511.6 518.199 508.9 520.199ZM524.8 507.599L523.5 506.099C526.1 503.899 528.6 501.699 531.1 499.499L532.4 500.899C529.9 503.199 527.4 505.499 524.8 507.599ZM539.8 493.999L538.4 492.499C540.8 490.199 543.2 487.799 545.5 485.399L546.9 486.699C544.6 489.199 542.2 491.599 539.8 493.999ZM553.8 479.299L552.3 477.899C554.5 475.499 556.7 472.899 558.8 470.299L560.4 471.599C558.2 474.199 556 476.799 553.8 479.299ZM566.7 463.599L565.1 462.399C567.1 459.699 569.2 456.999 571.1 454.299L572.7 455.399C570.8 458.199 568.7 460.899 566.7 463.599ZM578.4 447.099L576.8 445.999C578.6 443.199 580.4 440.299 582.2 437.399L583.9 438.499C582.1 441.399 580.3 444.199 578.4 447.099ZM589 429.699L587.3 428.699C588.9 425.799 590.5 422.799 592 419.799L593.8 420.799C592.3 423.699 590.7 426.699 589 429.699ZM598.3 411.599L596.5 410.799C597.9 407.699 599.3 404.599 600.6 401.599L602.5 402.399C601.1 405.499 599.7 408.599 598.3 411.599ZM606.3 392.899L604.4 392.199C605.6 389.099 606.8 385.899 607.9 382.699L609.8 383.399C608.7 386.599 607.5 389.799 606.3 392.899ZM612.9 373.699L611 373.099C611.9 369.899 612.9 366.699 613.7 363.399L615.7 363.899C614.8 367.199 613.9 370.499 612.9 373.699ZM618.1 354.099L616.1 353.599C616.9 350.299 617.6 346.999 618.2 343.799L620.1 344.099C619.5 347.399 618.8 350.799 618.1 354.099ZM621.9 334.099L619.9 333.799C620.4 330.499 620.8 327.199 621.2 323.899L623.2 324.099C622.8 327.399 622.4 330.799 621.9 334.099ZM624.2 313.999L622.2 313.799C622.5 310.499 622.7 307.099 622.8 303.799L624.8 303.899C624.7 307.199 624.5 310.599 624.2 313.999ZM625.1 293.699H623.1C623.1 292.766 623.1 291.832 623.1 290.899C623.1 288.499 623.066 286.065 623 283.599H625C625.066 286.065 625.1 288.499 625.1 290.899C625.1 291.832 625.1 292.766 625.1 293.699ZM622.6 273.599C622.4 270.199 622.1 266.799 621.8 263.499L623.8 263.299C624.1 266.699 624.4 270.099 624.6 273.399L622.6 273.599ZM620.7 253.599C620.2 250.299 619.7 246.899 619.2 243.599L621.1 243.299C621.7 246.599 622.2 249.999 622.6 253.299L620.7 253.599ZM617.4 233.799C616.7 230.499 616 227.199 615.2 223.999L617.1 223.499C617.9 226.799 618.7 230.099 619.3 233.399L617.4 233.799ZM612.7 214.199C611.8 210.999 610.8 207.699 609.8 204.599L611.7 203.899C612.7 207.199 613.7 210.399 614.6 213.699L612.7 214.199ZM606.5 194.999C605.4 191.899 604.2 188.699 602.9 185.599L604.8 184.899C606.1 187.999 607.3 191.199 608.4 194.299L606.5 194.999ZM599 176.399C597.6 173.299 596.2 170.299 594.7 167.299L596.5 166.399C598 169.399 599.5 172.499 600.8 175.599L599 176.399ZM590.2 158.299C588.6 155.399 587 152.399 585.3 149.499L587 148.499C588.7 151.399 590.4 154.399 592 157.399L590.2 158.299ZM580.1 140.899C578.3 137.999 576.4 135.199 574.5 132.399L576.2 131.299C578.1 134.099 580 136.999 581.7 139.799L580.1 140.899ZM568.8 124.299C566.9 121.599 564.8 118.899 562.7 116.299L564.3 114.999C566.4 117.699 568.5 120.399 570.4 123.099L568.8 124.299ZM556.4 108.499C554.2 105.899 552 103.399 549.7 100.899L551.2 99.5988C553.5 102.099 555.7 104.599 557.9 107.199L556.4 108.499ZM542.8 93.5988C540.5 91.1988 538.1 88.7988 535.6 86.4988L537 85.0988C539.5 87.3988 541.9 89.7989 544.2 92.1989L542.8 93.5988ZM528.2 79.6989C525.7 77.4989 523.2 75.2989 520.6 73.1989L521.9 71.5988C524.4 73.7988 527 75.9989 529.6 78.1989L528.2 79.6989ZM512.6 66.8988C510 64.8988 507.2 62.8988 504.5 60.8988L505.7 59.2988C508.4 61.1988 511.2 63.2988 513.8 65.2988L512.6 66.8988ZM496.2 55.1989C493.4 53.3989 490.5 51.5988 487.7 49.7988L488.7 48.0988C491.6 49.8988 494.5 51.6988 497.3 53.5988L496.2 55.1989ZM479 44.6989C476.1 42.9989 473.1 41.3988 470.1 39.8988L471 38.0988C474 39.6988 477 41.2988 479.9 42.8988L479 44.6989ZM461.1 35.4988C458.1 34.0988 455 32.6988 451.9 31.3988L452.7 29.4988C455.8 30.8988 458.9 32.2989 462 33.6989L461.1 35.4988ZM442.5 27.5988C439.4 26.3988 436.2 25.1988 433 24.0988L433.6 22.1989C436.9 23.2989 440.1 24.4989 443.2 25.6989L442.5 27.5988ZM423.4 20.9988C420.2 20.0988 417 19.0988 413.7 18.2988L414.2 16.2988C417.5 17.1988 420.8 18.0988 424 19.0988L423.4 20.9988ZM403.9 15.8988C400.6 15.0988 397.3 14.3988 394.1 13.7988L394.4 11.7988C397.7 12.4988 401.1 13.1988 404.4 13.8988L403.9 15.8988ZM384.1 12.1989C380.8 11.6989 377.4 11.1988 374.1 10.7988L374.3 8.79883C377.7 9.19883 381 9.69885 384.4 10.1989L384.1 12.1989Z" fill="#2688C4"/>
<path d="M363.299 574.299L363.199 572.299C364.866 572.165 366.533 571.999 368.199 571.799L368.299 573.799C366.633 573.999 364.966 574.165 363.299 574.299Z" fill="#2688C4"/>
<path d="M364.899 16.9992L366.399 15.6992L359.699 8.39922L367.399 2.29922L366.199 0.699219L356.799 8.19923L364.899 16.9992Z" fill="#2688C4"/>
<path fill-rule="evenodd" clip-rule="evenodd" d="M390.798 194.7V204.4C390.798 207.7 388.398 210.5 385.098 211.1L377.398 212.3C376.598 214.9 375.598 217.4 374.298 219.8L378.798 226.2C380.798 228.9 380.398 232.6 378.098 235L371.298 241.8C369.998 243.1 368.298 243.8 366.498 243.8C364.998 243.8 363.698 243.4 362.498 242.5L356.198 238C353.798 239.266 351.298 240.3 348.698 241.1L347.398 248.8C346.798 252.1 343.998 254.5 340.698 254.5H330.998C327.598 254.5 324.798 252.1 324.298 248.8L322.998 241.1C320.465 240.3 318.032 239.3 315.698 238.1L309.298 242.7C308.098 243.5 306.798 244 305.398 244C303.498 244 301.798 243.2 300.598 242L293.698 235.1C291.398 232.8 291.098 229.1 292.998 226.4L297.498 220.1C296.232 217.7 295.198 215.2 294.398 212.6L286.598 211.3C283.298 210.7 280.898 207.9 280.898 204.6V194.9C280.898 191.6 283.298 188.8 286.598 188.2L294.198 186.9C294.932 184.3 295.932 181.8 297.198 179.4L292.598 173C290.698 170.3 290.998 166.6 293.398 164.2L300.198 157.4C301.498 156.1 303.198 155.4 304.998 155.4C306.498 155.4 307.798 155.8 308.998 156.7L315.298 161.2C317.698 159.933 320.198 158.9 322.798 158.1L324.098 150.2C324.598 147 327.498 144.6 330.798 144.6H340.498C343.798 144.6 346.598 147 347.198 150.2L348.398 157.9C351.132 158.7 353.732 159.766 356.198 161.1L362.598 156.5C363.898 155.6 365.498 155.1 367.198 155.3C368.798 155.4 370.298 156.2 371.398 157.4L378.098 164.1C380.498 166.4 380.798 170.1 378.898 172.8L374.298 179.2C375.565 181.6 376.598 184.1 377.398 186.7L385.098 188C388.398 188.5 390.798 191.4 390.798 194.7ZM362.898 199.5C362.898 184.6 350.798 172.5 335.798 172.5C320.898 172.5 308.798 184.6 308.798 199.5C308.798 214.5 320.898 226.6 335.798 226.6C350.798 226.6 362.898 214.5 362.898 199.5Z" fill="#D8AE27"/>
<path fill-rule="evenodd" clip-rule="evenodd" d="M395.499 194.7V204.4C395.499 207.7 393.199 210.5 389.899 211.1L382.199 212.3C381.399 214.9 380.299 217.4 379.099 219.8L383.599 226.2C385.499 228.9 385.199 232.6 382.899 235L375.999 241.8C374.699 243.1 372.999 243.8 371.199 243.8C369.799 243.8 368.399 243.4 367.299 242.5L360.899 238C358.499 239.266 355.999 240.3 353.399 241.1L352.099 248.8C351.599 252.1 348.799 254.5 345.399 254.5H335.699C332.399 254.5 329.599 252.1 328.999 248.8L327.799 241.1C325.266 240.3 322.833 239.3 320.499 238.1L314.099 242.7C312.899 243.5 311.599 244 310.099 244C308.299 244 306.599 243.2 305.299 242L298.499 235.1C296.099 232.8 295.799 229.1 297.799 226.4L302.299 220.1C300.966 217.7 299.899 215.2 299.099 212.6L291.299 211.3C287.999 210.7 285.699 207.9 285.699 204.6V194.9C285.699 191.6 287.999 188.8 291.299 188.2L298.999 186.9C299.733 184.3 300.733 181.8 301.999 179.4L297.399 173C295.499 170.3 295.799 166.6 298.099 164.2L304.999 157.4C306.299 156.1 307.999 155.4 309.799 155.4C311.199 155.4 312.599 155.8 313.799 156.7L320.099 161.2C322.499 159.933 324.966 158.9 327.499 158.1L328.899 150.2C329.399 147 332.199 144.6 335.599 144.6H345.199C348.599 144.6 351.399 147 351.899 150.2L353.199 157.9C355.933 158.7 358.533 159.766 360.999 161.1L367.399 156.5C368.699 155.6 370.299 155.1 371.999 155.3C373.599 155.4 374.999 156.2 376.199 157.4L382.899 164.1C385.299 166.4 385.599 170.1 383.699 172.8L379.099 179.2C380.366 181.6 381.399 184.1 382.199 186.7L389.899 188C393.199 188.5 395.599 191.4 395.499 194.7ZM367.599 199.5C367.599 184.6 355.499 172.5 340.599 172.5C325.699 172.5 313.599 184.6 313.599 199.5C313.599 214.5 325.699 226.6 340.599 226.6C355.499 226.6 367.599 214.5 367.599 199.5Z" fill="#F1C833"/>
<path d="M212.699 109.6C212.699 164.8 167.899 209.6 112.699 209.6C57.3992 209.6 12.6992 164.8 12.6992 109.6C12.6992 54.3996 57.3992 9.59961 112.699 9.59961C167.899 9.59961 212.699 54.3996 212.699 109.6Z" fill="white"/>
<path d="M661.299 109.6C661.299 164.8 616.599 209.6 561.299 209.6C506.099 209.6 461.299 164.8 461.299 109.6C461.299 54.3996 506.099 9.59961 561.299 9.59961C616.599 9.59961 661.299 54.3996 661.299 109.6Z" fill="white"/>
<path d="M212.699 454.799C212.699 509.999 167.899 554.799 112.699 554.799C57.3992 554.799 12.6992 509.999 12.6992 454.799C12.6992 399.599 57.3992 354.799 112.699 354.799C167.899 354.799 212.699 399.599 212.699 454.799Z" fill="white"/>
<path d="M661.299 454.799C661.299 509.999 616.599 554.799 561.299 554.799C506.099 554.799 461.299 509.999 461.299 454.799C461.299 399.599 506.099 354.799 561.299 354.799C616.599 354.799 661.299 399.599 661.299 454.799Z" fill="white"/>
<path d="M143.999 107.699C143.999 90.3988 129.499 76.4988 111.899 77.3988C96.3991 78.1988 83.7991 91.0988 83.1991 106.599C82.8991 115.099 86.0991 122.799 91.3991 128.499C95.7991 133.099 99.4991 138.399 101.999 144.299L103.599 148.199V153.999H111.599H115.599H123.599V148.199L124.699 145.599C127.399 139.099 131.399 133.299 136.199 127.999C140.999 122.699 143.999 115.599 143.999 107.699Z" fill="#FE9D04"/>
<path d="M124.298 163.398H102.898V148.398H124.298V163.398Z" fill="#594A96"/>
<path d="M117.299 155.199H111.199L100.199 103.799L102.499 103.299L113.199 152.799H115.299L124.599 102.299L126.999 102.699L117.299 155.199Z" fill="#594A96"/>
<path d="M118.399 163.698C118.399 166.298 116.199 168.498 113.599 168.498C110.999 168.498 108.799 166.298 108.799 163.698C108.799 161.098 110.999 158.898 113.599 158.898C116.199 158.898 118.399 161.098 118.399 163.698Z" fill="#594A96"/>
<path d="M114.698 65.9992H112.898V41.1992H114.698V65.9992Z" fill="#594A96"/>
<path d="M174.798 102.999H149.898V101.299H174.798V102.999Z" fill="#594A96"/>
<path d="M77.5988 102.999H52.7988V101.299H77.5988V102.999Z" fill="#594A96"/>
<path d="M85.9988 78.9984L67.2988 62.6985L68.3988 61.3984L87.1988 77.6985L85.9988 78.9984Z" fill="#594A96"/>
<path d="M138.198 75.5992L136.898 74.3992L153.298 55.6992L154.598 56.7992L138.198 75.5992Z" fill="#594A96"/>
<path opacity="0.2" d="M434.698 107.898C433.698 105.898 432.398 103.998 430.798 102.398C430.732 102.332 430.665 102.265 430.598 102.198C429.998 101.598 429.332 101.032 428.598 100.498C427.665 99.7651 426.665 99.1318 425.598 98.5984C424.598 98.1318 423.565 97.6984 422.498 97.2984C420.598 96.7984 418.598 96.3984 416.498 96.3984H273.098C261.898 96.3984 252.898 105.498 252.898 116.598V130.098V403.998V441.798C252.898 445.298 253.698 448.498 255.298 451.398C258.698 457.698 265.398 461.998 273.098 461.998H416.498C425.598 461.998 433.198 455.998 435.798 447.798C436.398 445.898 436.698 443.898 436.698 441.798V403.998V130.098V116.598C436.698 113.498 435.998 110.598 434.698 107.898Z" fill="#3672C9"/>
<path d="M408.498 91.2988H265.498C254.398 91.2988 245.398 100.399 245.398 111.499V435.399C245.398 446.499 254.398 455.599 265.498 455.599H408.498C419.598 455.599 428.598 446.499 428.598 435.399V111.499C428.598 100.399 419.598 91.2988 408.498 91.2988Z" fill="white"/>
<path fill-rule="evenodd" clip-rule="evenodd" d="M428.598 111.499V435.399C428.598 437.499 428.298 439.499 427.698 441.399C425.098 449.599 417.498 455.599 408.498 455.599H265.498C257.898 455.599 251.198 451.299 247.798 444.999C246.298 442.199 245.398 438.899 245.398 435.399V111.499C245.398 100.399 254.398 91.2988 265.498 91.2988H408.498C410.498 91.2988 412.598 91.6989 414.398 92.1989C415.532 92.5989 416.598 93.0322 417.598 93.4988C418.598 94.0322 419.565 94.6655 420.498 95.3988C421.232 95.9322 421.932 96.4988 422.598 97.0988C422.598 97.1655 422.632 97.1989 422.698 97.1989C424.298 98.7989 425.598 100.699 426.598 102.799C427.898 105.399 428.598 108.399 428.598 111.499ZM418.398 124.899H255.598V397.799H418.398V124.899Z" fill="#00B4BE"/>
<path d="M356.498 412.998H319.098C312.498 412.998 307.098 418.398 307.098 425.098C307.098 431.698 312.498 437.198 319.098 437.198H356.498C363.198 437.198 368.598 431.698 368.598 425.098C368.598 418.398 363.198 412.998 356.498 412.998Z" fill="white"/>
<path d="M344.399 110.898C344.399 114.498 341.399 117.498 337.799 117.498C334.199 117.498 331.299 114.498 331.299 110.898C331.299 107.298 334.199 104.398 337.799 104.398C341.399 104.398 344.399 107.298 344.399 110.898Z" fill="white"/>
<path d="M405.798 244.798H266.598C263.298 244.798 260.598 242.098 260.598 238.798V137.898C260.598 134.498 263.298 131.898 266.598 131.898H405.798C409.098 131.898 411.798 134.498 411.798 137.898V238.798C411.798 242.098 409.098 244.798 405.798 244.798Z" fill="#00B4BE"/>
<path d="M410.999 274.999H263.799V264.699H410.999V274.999Z" fill="#62BDDD"/>
<path d="M410.999 294.099H263.799V283.799H410.999V294.099Z" fill="#62BDDD"/>
<path d="M410.999 313.198H263.799V302.898H410.999V313.198Z" fill="#62BDDD"/>
<path d="M331.399 332.298H263.799V321.998H331.399V332.298Z" fill="#62BDDD"/>
<path opacity="0.4" d="M399.898 91.2988H265.498C254.398 91.2988 245.398 100.399 245.398 111.499V408.799C286.098 328.899 374.298 144.899 399.898 91.2988Z" fill="url(#paint0_linear_2956_21336)"/>
<path d="M402.399 389.898H378.999C376.899 389.898 375.299 388.198 375.299 386.098V362.698C375.299 360.598 376.899 358.998 378.999 358.998H402.399C404.499 358.998 406.199 360.598 406.199 362.698V386.098C406.199 388.198 404.499 389.898 402.399 389.898Z" fill="#594A96"/>
<path d="M347.899 389.898H324.399C322.399 389.898 320.699 388.198 320.699 386.098V362.698C320.699 360.598 322.399 358.998 324.399 358.998H347.899C349.899 358.998 351.599 360.598 351.599 362.698V386.098C351.599 388.198 349.899 389.898 347.899 389.898Z" fill="#594A96"/>
<path d="M293.299 389.898H269.899C267.799 389.898 266.199 388.198 266.199 386.098V362.698C266.199 360.598 267.799 358.998 269.899 358.998H293.299C295.399 358.998 297.099 360.598 297.099 362.698V386.098C297.099 388.198 295.399 389.898 293.299 389.898Z" fill="#594A96"/>
<path fill-rule="evenodd" clip-rule="evenodd" d="M390.4 383.797C390.4 384.797 389.6 385.497 388.7 385.497C387.8 385.497 387 384.797 387 383.797C387 382.897 387.8 382.197 388.7 382.197C389.6 382.197 390.4 382.897 390.4 383.797ZM389.4 383.797C389.4 383.397 389.1 383.097 388.7 383.097C388.3 383.097 388 383.397 388 383.797C388 384.297 388.3 384.597 388.7 384.597C389.1 384.597 389.4 384.297 389.4 383.797Z" fill="white"/>
<path fill-rule="evenodd" clip-rule="evenodd" d="M396.199 383.797C396.199 384.797 395.399 385.497 394.499 385.497C393.599 385.497 392.799 384.797 392.799 383.797C392.799 382.897 393.599 382.197 394.499 382.197C395.399 382.197 396.199 382.897 396.199 383.797ZM395.199 383.797C395.199 383.397 394.899 383.097 394.499 383.097C394.099 383.097 393.799 383.397 393.799 383.797C393.799 384.297 394.099 384.597 394.499 384.597C394.899 384.597 395.199 384.297 395.199 383.797Z" fill="white"/>
<path d="M388.299 374.398H394.899C395.199 374.398 395.399 374.198 395.399 373.898C395.399 373.698 395.199 373.498 394.899 373.498H388.299C387.999 373.498 387.799 373.698 387.799 373.898C387.799 374.198 387.999 374.398 388.299 374.398Z" fill="white"/>
<path d="M394.599 375.898H388.599C388.399 375.898 388.199 376.098 388.199 376.298C388.199 376.598 388.399 376.798 388.599 376.798H394.599C394.799 376.798 394.999 376.598 394.999 376.298C394.999 376.098 394.799 375.898 394.599 375.898Z" fill="white"/>
<path d="M399.399 371.398C399.199 371.198 398.999 371.098 398.699 371.098H384.299L383.999 369.698C383.999 369.398 383.799 369.098 383.499 368.998L381.399 368.098C381.199 367.998 380.899 368.098 380.799 368.398C380.699 368.598 380.799 368.898 381.099 368.998L383.099 369.798L385.299 380.698C385.399 381.098 385.799 381.398 386.299 381.398H397.299C397.599 381.398 397.799 381.198 397.799 380.998C397.799 380.698 397.599 380.498 397.299 380.498H386.299L385.999 379.198H397.399C397.799 379.198 398.199 378.898 398.299 378.498L399.599 372.198C399.699 371.898 399.599 371.598 399.399 371.398Z" fill="white"/>
<path fill-rule="evenodd" clip-rule="evenodd" d="M280 377.699L276.2 383.199L274.5 381.999L278.3 376.499C276.2 374.399 275.8 371.099 277.5 368.599C279.4 365.799 283.3 365.099 286.1 366.999C288.9 368.899 289.6 372.799 287.7 375.599C285.9 378.099 282.7 378.899 280 377.699ZM286.5 374.699C287.9 372.599 287.4 369.699 285.2 368.199C283.1 366.699 280.2 367.299 278.7 369.399C277.2 371.599 277.8 374.499 279.9 375.999C282 377.399 285 376.899 286.5 374.699Z" fill="white"/>
<path d="M339.899 369.498C339.899 371.798 338.099 373.598 335.799 373.598C333.599 373.598 331.699 371.798 331.699 369.498C331.699 367.298 333.599 365.398 335.799 365.398C338.099 365.398 339.899 367.298 339.899 369.498Z" fill="white"/>
<path d="M335.899 374.398C332.499 374.398 329.699 377.198 329.699 380.698V384.298H342.199V380.698C342.199 377.198 339.399 374.398 335.899 374.398Z" fill="white"/>
<path fill-rule="evenodd" clip-rule="evenodd" d="M556.199 88.9988L556.999 93.3988C557.299 94.8988 556.399 96.3988 554.999 96.8988L551.599 98.0988C551.466 99.3654 551.233 100.599 550.899 101.799L553.499 104.299C554.599 105.299 554.699 106.999 553.899 108.299L551.399 111.899C550.899 112.599 550.199 113.099 549.399 113.299C548.699 113.399 547.999 113.299 547.499 112.999L544.199 111.499C543.199 112.299 542.166 112.965 541.099 113.499V117.099C541.199 118.699 540.099 119.999 538.599 120.299L534.199 121.099C532.699 121.399 531.199 120.499 530.699 119.099L529.499 115.699C528.299 115.565 527.099 115.332 525.899 114.999L523.399 117.599C522.999 118.099 522.399 118.399 521.799 118.499C520.899 118.699 520.099 118.499 519.399 117.999L515.699 115.499C514.499 114.599 513.999 112.999 514.699 111.599L516.199 108.399C515.399 107.399 514.699 106.365 514.099 105.299H510.499C508.999 105.399 507.599 104.299 507.399 102.799L506.499 98.3988C506.299 96.8988 507.099 95.4988 508.499 94.8988L511.899 93.6988C512.033 92.4321 512.266 91.1988 512.599 89.9988L509.999 87.4988C508.899 86.4988 508.699 84.7988 509.599 83.4988L512.099 79.7988C512.599 79.0988 513.299 78.6988 514.099 78.4988C514.699 78.3988 515.399 78.4988 515.999 78.7988L519.199 80.2988C520.199 79.4988 521.232 78.7988 522.299 78.1988V74.5988C522.199 73.0988 523.299 71.6988 524.799 71.4988L529.199 70.5988C530.699 70.3988 532.199 71.1988 532.699 72.5988L533.899 75.9988C535.166 76.1321 536.433 76.3654 537.699 76.6988L540.199 74.1988C540.699 73.5988 541.399 73.2988 542.199 73.1988C542.899 73.0988 543.599 73.3988 544.299 73.7988L547.899 76.2988C549.099 77.0988 549.599 78.7988 548.899 80.0988L547.399 83.3988C548.199 84.3988 548.899 85.4321 549.499 86.4988H553.099C554.599 86.3988 555.899 87.4988 556.199 88.9988ZM540.699 94.1988C539.799 89.1988 534.999 85.9988 530.099 86.8988C525.099 87.7988 521.899 92.5988 522.799 97.4988C523.699 102.499 528.499 105.699 533.399 104.799C538.399 103.899 541.599 99.0988 540.699 94.1988Z" fill="black" fill-opacity="0.54"/>
<path fill-rule="evenodd" clip-rule="evenodd" d="M604.2 69.0984L605 73.4984C605.3 74.9984 604.5 76.4984 603 76.9984L599.7 78.1984C599.566 79.465 599.3 80.6984 598.9 81.8984L601.5 84.3984C602.6 85.3984 602.8 87.0984 601.9 88.3984L599.4 92.0984C598.9 92.7984 598.2 93.1984 597.4 93.3984C596.8 93.4984 596.1 93.3984 595.5 93.0984L592.2 91.5984C591.266 92.3984 590.233 93.0984 589.1 93.6984L589.2 97.2984C589.2 98.7984 588.1 100.098 586.6 100.398L582.3 101.198C580.8 101.498 579.3 100.598 578.8 99.1984L577.5 95.7984C576.3 95.665 575.133 95.4317 574 95.0984L571.5 97.6984C571 98.1984 570.4 98.4984 569.8 98.5984C569 98.7984 568.2 98.5984 567.5 98.0984L563.8 95.5984C562.5 94.7984 562.1 93.0984 562.7 91.6984L564.2 88.4984C563.466 87.4984 562.8 86.465 562.2 85.3984L558.5 85.4984C557 85.4984 555.7 84.3984 555.4 82.8984L554.6 78.4984C554.3 76.9984 555.1 75.5984 556.6 74.9984L559.9 73.7984C560.033 72.5984 560.3 71.3984 560.7 70.1984L558 67.5984C556.9 66.5984 556.8 64.8984 557.6 63.5984L560.1 59.8984C560.6 59.2984 561.3 58.7984 562.1 58.5984C562.8 58.4984 563.4 58.5984 564 58.8984L567.3 60.3984C568.233 59.5984 569.266 58.8984 570.4 58.2984L570.3 54.6984C570.3 53.1984 571.4 51.8984 572.9 51.5984L577.2 50.6984C578.7 50.4984 580.2 51.2984 580.7 52.6984L582 56.0984C583.266 56.2317 584.5 56.4984 585.7 56.8984L588.2 54.2984C588.8 53.6984 589.5 53.3984 590.2 53.2984C591 53.2984 591.7 53.4984 592.3 53.8984L595.9 56.3984C597.2 57.1984 597.6 58.8984 597 60.2984L595.5 63.4984C596.233 64.4984 596.9 65.5317 597.5 66.5984H601.1C602.6 66.4984 604 67.5984 604.2 69.0984ZM588.8 74.2984C587.8 69.2984 583.1 66.0984 578.1 66.9984C573.2 67.8984 569.9 72.6984 570.9 77.5984C571.8 82.5984 576.5 85.7984 581.5 84.8984C586.4 83.9984 589.7 79.1984 588.8 74.2984Z" fill="#00B4BE"/>
<path fill-rule="evenodd" clip-rule="evenodd" d="M613.5 129.498L614.7 135.498C615.1 137.598 613.9 139.598 611.9 140.398L607.3 141.998C607.1 143.731 606.733 145.431 606.2 147.098L609.8 150.498C611.3 151.898 611.6 154.298 610.4 155.998L606.9 160.998C606.3 161.998 605.3 162.598 604.2 162.798C603.3 162.998 602.4 162.898 601.6 162.498L597.1 160.398C595.766 161.464 594.333 162.398 592.8 163.198L592.9 168.198C592.9 170.298 591.5 172.098 589.4 172.498L583.4 173.598C581.3 173.998 579.3 172.798 578.6 170.898L576.9 166.198C575.233 165.998 573.6 165.664 572 165.198L568.6 168.798C567.9 169.498 567.1 169.898 566.3 170.098C565.1 170.298 564 169.998 563.1 169.398L558 165.898C556.3 164.798 555.7 162.498 556.5 160.598L558.6 156.198C557.533 154.864 556.6 153.431 555.8 151.898L550.8 151.998C548.7 151.998 546.9 150.498 546.5 148.498L545.4 142.498C545 140.398 546.1 138.398 548.1 137.698L552.7 135.998C552.833 134.264 553.166 132.598 553.7 130.998L550.1 127.498C548.6 125.998 548.4 123.698 549.5 121.998L553 116.898C553.6 115.998 554.6 115.298 555.7 115.098C556.6 114.998 557.5 115.098 558.3 115.398L562.8 117.498C564.133 116.431 565.566 115.498 567.1 114.698L567 109.698C566.9 107.598 568.4 105.798 570.5 105.398L576.5 104.298C578.5 103.898 580.6 105.098 581.3 106.998L583 111.598C584.733 111.798 586.466 112.164 588.2 112.698L591.6 109.098C592.3 108.398 593.3 107.898 594.3 107.798C595.3 107.698 596.3 107.998 597.2 108.598L602.1 111.998C603.9 113.198 604.5 115.398 603.6 117.398L601.5 121.798C602.566 123.131 603.5 124.564 604.3 126.098L609.3 125.998C611.4 125.998 613.2 127.498 613.5 129.498ZM592.3 136.598C591 129.798 584.5 125.398 577.7 126.598C570.9 127.898 566.4 134.398 567.7 141.198C569 147.998 575.5 152.498 582.3 151.198C589.1 149.998 593.6 143.398 592.3 136.598Z" fill="#594A96"/>
<path d="M148.999 363.1H77.7992C72.1992 363.1 67.6992 367.6 67.6992 373.1V534.7C67.6992 540.2 72.1992 544.7 77.7992 544.7H148.999C154.599 544.7 159.099 540.2 159.099 534.7V373.1C159.099 367.6 154.599 363.1 148.999 363.1Z" fill="white"/>
<path fill-rule="evenodd" clip-rule="evenodd" d="M159.099 373.1V534.7C159.099 536.1 158.799 537.4 158.299 538.6C156.799 542.2 153.199 544.7 148.999 544.7H77.7992C75.2992 544.7 73.0992 543.9 71.3992 542.4C69.0992 540.6 67.6992 537.8 67.6992 534.7V373.1C67.6992 372.433 67.7659 371.766 67.8992 371.1C67.9659 370.766 68.0659 370.433 68.1992 370.1C69.3992 366 73.2992 363.1 77.7992 363.1H148.999C150.066 363.1 151.066 363.233 151.999 363.5C152.133 363.566 152.233 363.6 152.299 363.6C153.233 363.933 154.099 364.366 154.899 364.9C155.299 365.233 155.699 365.6 156.099 366C156.366 366.266 156.599 366.5 156.799 366.7C157.066 367.033 157.333 367.4 157.599 367.8C157.799 368.133 157.999 368.5 158.199 368.9C158.333 369.3 158.466 369.7 158.599 370.1C158.733 370.433 158.833 370.766 158.899 371.1C159.033 371.766 159.099 372.433 159.099 373.1ZM153.999 379.8H72.7992V515.9H153.999V379.8Z" fill="#CAE6FF"/>
<path d="M123.1 523.5H104.5C101.2 523.5 98.5 526.2 98.5 529.5C98.5 532.8 101.2 535.5 104.5 535.5H123.1C126.5 535.5 129.2 532.8 129.2 529.5C129.2 526.2 126.5 523.5 123.1 523.5Z" fill="white"/>
<path d="M117.1 372.8C117.1 374.6 115.6 376.1 113.8 376.1C112 376.1 110.5 374.6 110.5 372.8C110.5 371 112 369.6 113.8 369.6C115.6 369.6 117.1 371 117.1 372.8Z" fill="white"/>
<path d="M147.999 437.399H79.2988V386.299H147.999V437.399Z" fill="#CAE6FF"/>
<path d="M79.2988 386.299L147.999 437.399" stroke="#00B4BE" stroke-width="2"/>
<path d="M147.999 386.299L79.2988 437.399" stroke="#00B4BE" stroke-width="2"/>
<path d="M99.8988 507.299H81.7988V489.299H99.8988V507.299Z" fill="#CAE6FF"/>
<path d="M81.7988 489.299L99.8988 507.299" stroke="#00B4BE" stroke-width="2"/>
<path d="M99.8988 489.299L81.7988 507.299" stroke="#00B4BE" stroke-width="2"/>
<path d="M122.7 507.299H104.6V489.299H122.7V507.299Z" fill="#CAE6FF"/>
<path d="M104.6 489.299L122.7 507.299" stroke="#00B4BE" stroke-width="2"/>
<path d="M122.7 489.299L104.6 507.299" stroke="#00B4BE" stroke-width="2"/>
<path d="M145.498 507.299H127.498V489.299H145.498V507.299Z" fill="#CAE6FF"/>
<path d="M127.498 489.299L145.498 507.299" stroke="#00B4BE" stroke-width="2"/>
<path d="M145.498 489.299L127.498 507.299" stroke="#00B4BE" stroke-width="2"/>
<path d="M147.7 481.1H79.5996V443.1H147.7V481.1Z" fill="#CAE6FF"/>
<path d="M15.3989 273.199L9.99891 272.399C5.79891 271.699 1.8989 274.599 1.1989 278.899L0.8989 280.899C0.2989 285.099 3.1989 288.999 7.3989 289.699L12.7989 290.499L15.3989 273.199Z" fill="white"/>
<path d="M130.9 299.299L14.0996 281.799L14.4996 279.199L131.3 296.599L130.9 299.299Z" fill="#3672C9"/>
<path d="M129.599 307.898L12.7988 290.498L13.0988 288.398L129.899 305.898L129.599 307.898Z" fill="#3672C9"/>
<path d="M131.999 291.999L15.1992 274.499L15.3992 273.199L132.199 290.599L131.999 291.999Z" fill="#3672C9"/>
<path d="M158.399 303.399L137.199 291.399L136.099 291.199L131.599 290.599C131.532 290.533 131.499 290.499 131.499 290.499L15.3988 273.199L12.7988 290.499L133.499 308.499L134.599 308.699L158.399 303.399Z" fill="#594A96"/>
<path d="M158.399 303.398L137.199 291.398H137.099C136.499 295.998 135.499 303.398 134.699 308.698L158.399 303.398Z" fill="white"/>
<path d="M149.6 298.398C148.4 299.298 147.6 300.598 147.4 302.098C147.2 303.398 147.5 304.698 148.1 305.698L158.4 303.398L149.6 298.398Z" fill="#1B3759"/>
<path d="M625.399 411.898H505.199C502.099 411.898 499.699 414.298 499.699 417.398V490.398C499.699 493.398 502.099 495.898 505.199 495.898H625.399C628.499 495.898 630.999 493.398 630.999 490.398V417.398C630.999 414.298 628.499 411.898 625.399 411.898Z" fill="#00B4BE"/>
<path d="M620.198 488.999H510.398V418.699H620.198V488.999Z" fill="black"/>
<path d="M485.299 495.498C485.299 502.398 490.799 507.898 497.699 507.898H632.999C639.799 507.898 645.399 502.398 645.399 495.498H485.299Z" fill="#CAE6FF"/>
<path d="M518.298 426.198H514.998V422.898H518.298V426.198Z" fill="#CAE6FF"/>
<path d="M582.098 426.198H522.498V422.898H582.098V426.198Z" fill="#CAE6FF"/>
<path d="M539.2 432.499H529.6V429.199H539.2V432.499Z" fill="#CAE6FF"/>
<path d="M552.2 432.499H542.6V429.199H552.2V432.499Z" fill="#CAE6FF"/>
<path d="M565.3 432.499H555.6V429.199H565.3V432.499Z" fill="#CAE6FF"/>
<path d="M607.099 432.499H561.699V429.199H607.099V432.499Z" fill="#CAE6FF"/>
<path d="M568 438.898H536.6V435.598H568V438.898Z" fill="#CAE6FF"/>
<path d="M582.098 445.198H522.498V441.898H582.098V445.198Z" fill="#CAE6FF"/>
<path d="M568 451.599H536.6V448.299H568V451.599Z" fill="#CAE6FF"/>
<path d="M602.798 451.599H571.398V448.299H602.798V451.599Z" fill="#CAE6FF"/>
<path d="M582.098 457.898H522.498V454.598H582.098V457.898Z" fill="#CAE6FF"/>
<path d="M553.9 464.298H536.6V460.998H553.9V464.298Z" fill="#CAE6FF"/>
<path d="M575.698 464.298H558.398V460.998H575.698V464.298Z" fill="#CAE6FF"/>
<path d="M591.8 464.298H580.1V460.998H591.8V464.298Z" fill="#CAE6FF"/>
<path d="M610.199 470.599H550.699V467.299H610.199V470.599Z" fill="#CAE6FF"/>
<path d="M596.1 476.899H536.6V473.699H596.1V476.899Z" fill="#CAE6FF"/>
<path d="M553.898 483.298H522.498V479.998H553.898V483.298Z" fill="#CAE6FF"/>
<path d="M588.398 483.298H556.998V479.998H588.398V483.298Z" fill="#CAE6FF"/>
<path d="M518.298 432.499H514.998V429.199H518.298V432.499Z" fill="#CAE6FF"/>
<path d="M518.298 438.898H514.998V435.598H518.298V438.898Z" fill="#CAE6FF"/>
<path d="M518.298 445.198H514.998V441.898H518.298V445.198Z" fill="#CAE6FF"/>
<path d="M518.298 451.599H514.998V448.299H518.298V451.599Z" fill="#CAE6FF"/>
<path d="M518.298 457.898H514.998V454.598H518.298V457.898Z" fill="#CAE6FF"/>
<path d="M518.298 464.298H514.998V460.998H518.298V464.298Z" fill="#CAE6FF"/>
<path d="M518.298 470.599H514.998V467.299H518.298V470.599Z" fill="#CAE6FF"/>
<path d="M518.298 476.899H514.998V473.699H518.298V476.899Z" fill="#CAE6FF"/>
<path d="M518.298 483.298H514.998V479.998H518.298V483.298Z" fill="#CAE6FF"/>
<path d="M668.398 246.299H567.198C564.598 246.299 562.498 248.399 562.498 251.099V312.399C562.498 314.999 564.598 317.099 567.198 317.099H668.398C670.998 317.099 673.198 314.999 673.198 312.399V251.099C673.198 248.399 670.998 246.299 668.398 246.299Z" fill="white"/>
<path d="M607.698 275.197C607.831 276.064 607.898 276.764 607.898 277.297C607.898 277.697 607.898 278.097 607.898 278.497C607.898 278.897 607.831 279.264 607.698 279.597L597.198 283.397L607.698 286.997C607.831 287.331 607.898 287.697 607.898 288.097C607.898 288.497 607.898 288.897 607.898 289.297C607.898 289.631 607.898 289.997 607.898 290.397C607.898 290.797 607.831 291.231 607.698 291.697L593.298 285.997C593.098 285.064 592.998 284.164 592.998 283.297C592.998 282.497 593.098 281.664 593.298 280.797L607.698 275.197Z" fill="black"/>
<path d="M619.698 270.198C620.565 270.065 621.398 269.998 622.198 269.998C622.998 269.998 623.831 270.065 624.698 270.198L616.198 295.198C615.331 295.331 614.498 295.398 613.698 295.398C612.898 295.398 612.098 295.331 611.298 295.198L619.698 270.198Z" fill="black"/>
<path d="M638.698 283.397L628.198 279.897C628.131 279.497 628.098 279.131 628.098 278.797C628.098 278.397 628.098 277.997 628.098 277.597C628.098 277.264 628.098 276.897 628.098 276.497C628.098 276.097 628.164 275.664 628.298 275.197L642.698 280.897C642.898 281.831 642.998 282.731 642.998 283.597C642.998 284.397 642.898 285.197 642.698 285.997L628.298 291.697C628.164 290.831 628.098 290.097 628.098 289.497C628.098 289.097 628.098 288.697 628.098 288.297C628.098 287.897 628.131 287.531 628.198 287.197L638.698 283.397Z" fill="black"/>
<path d="M668.398 246.299H567.198C564.598 246.299 562.498 248.399 562.498 251.099V257.199H673.198V251.099C673.198 248.399 670.998 246.299 668.398 246.299Z" fill="#00B4BE"/>
<path d="M571.698 251.499C571.698 252.499 570.798 253.399 569.798 253.399C568.798 253.399 567.998 252.499 567.998 251.499C567.998 250.499 568.798 249.699 569.798 249.699C570.798 249.699 571.698 250.499 571.698 251.499Z" fill="white"/>
<path d="M577.598 251.499C577.598 252.499 576.798 253.399 575.798 253.399C574.798 253.399 573.898 252.499 573.898 251.499C573.898 250.499 574.798 249.699 575.798 249.699C576.798 249.699 577.598 250.499 577.598 251.499Z" fill="white"/>
<defs>
<linearGradient id="paint0_linear_2956_21336" x1="278.398" y1="29.3988" x2="642.399" y2="-50.6012" gradientUnits="userSpaceOnUse">
<stop offset="0.002" stop-color="white" stop-opacity="0.8"/>
<stop offset="0.99" stop-color="#2688C4" stop-opacity="0"/>
</linearGradient>
</defs>
</svg>
