<svg xmlns="http://www.w3.org/2000/svg" viewBox="0 0 60 59.96"><defs><linearGradient id="a" x1="-4556.39" y1="47.63" x2="-4545.05" y2="-16.72" gradientTransform="translate(4580.74 14.52)" gradientUnits="userSpaceOnUse"><stop offset="0" stop-color="#f9ac41"/><stop offset="1" stop-color="#ee3d30"/></linearGradient><linearGradient id="b" x1="30.63" y1=".97" x2="22.34" y2="47.99" gradientUnits="userSpaceOnUse"><stop offset="0" stop-color="#e19e3a"/><stop offset="1" stop-color="#d23829"/></linearGradient></defs><g data-name="Layer 2"><g data-name="Layer 1"><rect x=".05" width="59.95" height="59.95" rx="13" transform="rotate(-180 30.025 29.98)" fill="url(#a)"/><path d="M50.65 49.06s-2.32-3.88-6.21-3.88-5.95 3.88-13.51 3.88c-16.75 0-24.71-13.93-24.77-14L0 28.4V13.28A13.29 13.29 0 0 1 13.28 0h11.85l8.77 8.89c19.79 13.46 13.39 28.27 13.39 28.27s5.63 6.33 3.36 11.9z" fill="url(#b)"/><path d="M34 8.9c19.74 13.45 13.34 28.26 13.34 28.26S53 43.5 50.7 49.06c0 0-2.33-3.88-6.21-3.88s-6 3.88-13.52 3.88C14.16 49.06 6.2 35 6.2 35c15.14 10 25.49 2.91 25.49 2.91C24.86 34 10.34 15 10.34 15 23 25.8 28.45 28.62 28.45 28.62 25.18 25.93 16 12.78 16 12.78c7.36 7.4 21.9 17.72 21.9 17.72C42 19.1 34 8.9 34 8.9z" fill="#fff"/></g></g></svg>