<svg xmlns="http://www.w3.org/2000/svg" viewBox="0 0 500 500"><defs><style>.cls-1{fill:#fff}</style></defs><g id="Layer_2" data-name="Layer 2"><g id="Layer_1-2" data-name="Layer 1"><path id="_5" data-name="5" class="cls-1" d="M0 0h500v500H0z"/><path d="M48.85 103H451a46 46 0 0 1 46 46v153.51a46 46 0 0 1-46 46.05H306.75L326.54 397l-87-48.47H49.05A46 46 0 0 1 3 302.51V149a45.86 45.86 0 0 1 45.85-46z" fill="#9b5c8f"/><path class="cls-1" d="M31.13 144.94c2.81-3.81 7-5.82 12.65-6.22q15.36-1.22 17.47 14.45 9.34 63 20.28 106.64l44-83.74q6-11.44 15.06-12c8.84-.6 14.26 5 16.47 16.87 5 26.7 11.45 49.4 19.08 68.67q7.83-76.5 26.51-110.44c3-5.62 7.43-8.44 13.25-8.84a17.45 17.45 0 0 1 12.65 4 15.75 15.75 0 0 1 6.23 11.45 17.47 17.47 0 0 1-2 9.63c-7.83 14.46-14.26 38.76-19.48 72.5-5 32.73-6.83 58.24-5.62 76.51a23.9 23.9 0 0 1-2.41 13.25c-2.42 4.42-6 6.83-10.65 7.23-5.22.4-10.64-2-15.86-7.43q-28-28.62-44.38-85.55-19.57 38.57-28.92 57.84c-11.85 22.69-21.89 34.34-30.32 34.94-5.42.4-10-4.22-14.06-13.85Q45.69 271.36 27.92 158.4a17.09 17.09 0 0 1 3.21-13.46zm431.55 31.53c-7.23-12.65-17.87-20.28-32.13-23.3A53 53 0 0 0 419.7 152c-19.27 0-34.94 10-47.19 30.12a106.44 106.44 0 0 0-15.66 56.63q0 23.19 9.64 39.76c7.23 12.65 17.87 20.28 32.13 23.3a52.87 52.87 0 0 0 10.84 1.2c19.48 0 35.15-10 47.19-30.12A107.55 107.55 0 0 0 472.32 216c.2-15.66-3.22-28.72-9.64-39.56zm-25.3 55.63c-2.82 13.25-7.84 23.09-15.27 29.71-5.82 5.23-11.24 7.43-16.26 6.43-4.85-1-8.85-5.24-11.85-13.05a51 51 0 0 1-3.61-18.28 70 70 0 0 1 1.4-14.65 65 65 0 0 1 10.64-23.9c6.63-9.84 13.66-13.86 20.89-12.45 4.82 1 8.84 5.22 11.85 13.05a51 51 0 0 1 3.61 18.27 70.62 70.62 0 0 1-1.4 14.86zM337 176.47c-7.23-12.65-18.07-20.28-32.13-23.3A53 53 0 0 0 294 152c-19.27 0-34.94 10-47.19 30.12a106.44 106.44 0 0 0-15.66 56.63q0 23.19 9.64 39.76c7.23 12.65 17.87 20.28 32.13 23.3a52.94 52.94 0 0 0 10.84 1.2c19.48 0 35.15-10 47.19-30.12A107.55 107.55 0 0 0 346.61 216c0-15.66-3.22-28.72-9.64-39.56zm-25.5 55.63c-2.82 13.25-7.84 23.09-15.27 29.71-5.82 5.23-11.24 7.43-16.26 6.43-4.82-1-8.84-5.22-11.85-13.05a51 51 0 0 1-3.61-18.28 70 70 0 0 1 1.4-14.65 64.82 64.82 0 0 1 10.65-23.9c6.62-9.84 13.65-13.86 20.88-12.45 4.82 1 8.84 5.22 11.85 13.05a51 51 0 0 1 3.61 18.27 59.47 59.47 0 0 1-1.4 14.86z"/></g></g></svg>