<svg xmlns="http://www.w3.org/2000/svg" viewBox="0 0 500 500"><defs><style>.cls-2{fill:#424242}</style></defs><g id="Layer_2" data-name="Layer 2"><g id="Layer_1-2" data-name="Layer 1"><path fill="#fff" d="M0 0h500v500H0z"/><g id="Layer_1-3" data-name="Layer_1"><path class="cls-2" d="M346.27 49.38a122 122 0 0 1-21.68 39.29 106.88 106.88 0 0 1-35.68 27.89c-12.73 6.07-26.69 9.34-40.58 8.26l-4.25-.33-.56-4.24c-1.81-13.65.28-27.46 4.67-40.25a120.71 120.71 0 0 1 22.25-38.75 115.73 115.73 0 0 1 34.7-26.9c13.23-6.79 27.45-11.05 40.39-11.57l4.89-.2.58 4.88a100.15 100.15 0 0 1-4.68 41.92z"/><path class="cls-2" d="M436.19 177.76c-4.69 2.9-50 30.94-49.44 87.47.59 68.14 58.37 91.77 61.56 93.07l.14.06 4.53 1.87-1.55 4.64c-.09.28 0 0-.12.42A273.36 273.36 0 0 1 417.28 435c-10.25 15-20.68 29.91-33 41.43-12.76 11.94-27.33 20-45.33 20.33-17 .32-28.08-4.49-39.63-9.49-11-4.76-22.46-9.72-40.38-9.72-18.83 0-30.86 5.13-42.45 10.07-10.91 4.64-21.46 9.14-36.67 9.75-17.55.65-32.77-7.91-46.3-20.58-12.94-12.13-24.28-28-34.61-42.95-23.36-33.66-43.65-82.67-49.91-132.5-5.16-41-.85-82.62 19-117a128.26 128.26 0 0 1 44.6-45.89 119.05 119.05 0 0 1 60-17.44c18.76-.34 36.45 6.68 51.93 12.82 11 4.35 20.71 8.23 28 8.23 6.46 0 16-3.76 27.1-8.14 18.76-7.4 41.71-16.44 66-14a125.67 125.67 0 0 1 53.12 14.64 111.75 111.75 0 0 1 39.37 35.61l3 4.45-4.54 2.93c-.25.16 0 0-.42.25z"/></g></g></g></svg>