<svg xmlns="http://www.w3.org/2000/svg" viewBox="0 0 60 57.43"><defs><style>.cls-1,.cls-15,.cls-53{fill:none}.cls-2{fill:#fff}.cls-3{fill:#ba8449}.cls-4{fill:#fff8ee}.cls-6{opacity:.3}.cls-9{fill:#895b2e}.cls-10{fill:#e5d0ae}.cls-12{opacity:.15}.cls-13{fill:#e3ab5e}.cls-14{fill:#fcd4c3}.cls-15{stroke:#f8a38f}.cls-15,.cls-53{stroke-miterlimit:10}.cls-15{stroke-width:2px}.cls-17{opacity:.5}.cls-20{opacity:.25}.cls-31{fill:#f8a38f}.cls-36{fill:#d8cab2}.cls-38{fill:#333}.cls-43{fill:#ffdc99}.cls-53{stroke:#333;stroke-width:4px}.cls-62{fill:#d0dddc}.cls-69{opacity:.1}</style><clipPath id="clip-path"><path class="cls-1" d="M9.92 10.22h39.74V24.1H9.92z"/></clipPath><clipPath id="clip-path-2"><path class="cls-1" d="M10.5 9.21h7.83v3.8H10.5z"/></clipPath><clipPath id="clip-path-3"><path class="cls-1" d="M42.39 11.23h5.96v4.03h-5.96z"/></clipPath><clipPath id="clip-path-4"><path class="cls-1" d="M45.32 38.71h5.51v6.4h-5.51z"/></clipPath><clipPath id="clip-path-5"><path class="cls-1" d="M47.6 35.5h1.83V37H47.6z"/></clipPath><clipPath id="clip-path-6"><path class="cls-1" d="M50.57 35.12h1.81v1.69h-1.81z"/></clipPath><clipPath id="clip-path-7"><path class="cls-1" d="M47.9 37.89h3.7v2.02h-3.7z"/></clipPath><clipPath id="clip-path-8"><path class="cls-1" d="M52.24 37.4h1.34v1.17h-1.34z"/></clipPath><clipPath id="clip-path-9"><path class="cls-1" d="M15.45 35.45h30.22v8.56H15.45z"/></clipPath><clipPath id="clip-path-10"><path class="cls-1" d="M42.27 3.14h4.22V13.6h-4.22z"/></clipPath><clipPath id="clip-path-11"><path class="cls-1" d="M9 4.71h10.36v7.41H9z"/></clipPath><clipPath id="clip-path-12"><path class="cls-1" d="M42.41 2.53h6.14v10.36h-6.14z"/></clipPath><clipPath id="clip-path-13"><path class="cls-1" d="M14.42 7.78h27.5v26.24h-27.5z"/></clipPath><clipPath id="clip-path-14"><path class="cls-1" d="M27.74 20.59h3.07v1.29h-3.07z"/></clipPath><clipPath id="clip-path-15"><path class="cls-1" d="M27.6 19.18H31v2.32h-3.4z"/></clipPath><clipPath id="clip-path-16"><path class="cls-1" d="M17.33 21.92H43.8v15.03H17.33z"/></clipPath><clipPath id="clip-path-17"><path class="cls-1" d="M18.71 22.16h21.95V33.3H18.71z"/></clipPath><clipPath id="clip-path-18"><path class="cls-1" d="M18.94 22.39h21.48v10.9H18.94z"/></clipPath><clipPath id="clip-path-19"><path class="cls-1" d="M19.18 22.63h21.01v10.64H19.18z"/></clipPath><clipPath id="clip-path-20"><path class="cls-1" d="M24.13 27.67H35.9v4.85H24.13z"/></clipPath><clipPath id="clip-path-21"><path class="cls-1" d="M25.7 24.97h7.06v5.44H25.7z"/></clipPath><clipPath id="clip-path-22"><path class="cls-1" d="M25.72 24.88h6.96v2.41h-6.96z"/></clipPath><clipPath id="clip-path-23"><path class="cls-1" d="M29.03 26.35h1.29v3.45h-1.29z"/></clipPath><clipPath id="clip-path-24"><path class="cls-1" d="M9.12 4.71h9.24v8.37H9.12z"/></clipPath><clipPath id="clip-path-25"><path class="cls-1" d="M14 13.43h31.35v9.96H14z"/></clipPath><clipPath id="clip-path-26"><path class="cls-1" d="M11.47 10.48h36.88v12.45H11.47z"/></clipPath><clipPath id="clip-path-27"><path class="cls-1" d="M15.05 12.19h11.84v8.02H15.05z"/></clipPath><clipPath id="clip-path-28"><path class="cls-1" d="M32.73 13.29h11.75v8.21H32.73z"/></clipPath><clipPath id="clip-path-29"><path class="cls-1" d="M11.47 11.77h36.65v10.79H11.47z"/></clipPath><clipPath id="clip-path-30"><path class="cls-1" d="M12.05 10.74h4.74v.7h-4.74z"/></clipPath><clipPath id="clip-path-31"><path class="cls-1" d="M27.29 11.89h5.09v1.24h-5.09z"/></clipPath><clipPath id="clip-path-32"><path class="cls-1" d="M43.89 12.8h2.88v.91h-2.88z"/></clipPath><clipPath id="clip-path-33"><path class="cls-1" d="M14.56 12.05h6.78v6.71h-6.78z"/></clipPath><clipPath id="clip-path-34"><path class="cls-1" d="M38.66 13.22h6.52v7.15h-6.52z"/></clipPath><clipPath id="clip-path-35"><path class="cls-1" d="M15.38 12.52h11.21v6.45H15.38z"/></clipPath><clipPath id="clip-path-36"><path class="cls-1" d="M15.62 16.79h8.25v3.26h-8.25z"/></clipPath><clipPath id="clip-path-37"><path class="cls-1" d="M33.06 13.62h11.18v5.98H33.06z"/></clipPath><clipPath id="clip-path-38"><path class="cls-1" d="M35.17 18.52h8.51v2.74h-8.51z"/></clipPath><clipPath id="clip-path-39"><path class="cls-1" d="M20.42 14.96h.47v.47h-.47z"/></clipPath><clipPath id="clip-path-40"><path class="cls-1" d="M38.94 16.06h.47v.47h-.47z"/></clipPath><clipPath id="clip-path-41"><path class="cls-1" d="M12.15 11.18h15.19v2.23H12.15z"/></clipPath><clipPath id="clip-path-42"><path class="cls-1" d="M32.24 11.93h11.23v2.16H32.24z"/></clipPath></defs><g id="Layer_2" data-name="Layer 2"><g id="Layer_1-2" data-name="Layer 1"><path class="cls-2" d="M13.53 44.06l.14-.36c.12-.28.24-.59.35-.87s.29-.77.43-1.15a5.66 5.66 0 0 0 .25-.68c.19-.51.45-1.19.75-1.85a9.74 9.74 0 0 1 .49-.94c.19-.3.38-.58.59-.86l.16-.24.26-.16a.35.35 0 0 1 .12-.07c.12-.07.26-.12.35-.17a6.06 6.06 0 0 1 .61-.21l1.15-.28c.66-.14 1.36-.28 2.25-.42 1.34-.21 2.77-.4 4.48-.59 3-.33 6.05-.56 9-.7 1.55-.07 2.72-.09 3.83-.09h.7a18.91 18.91 0 0 1 2.34.16 4.51 4.51 0 0 1 .73.16l.17.07.23.1.19.16.21.21a11.24 11.24 0 0 1 .82.92 19.15 19.15 0 0 1 2.39 4 18.71 18.71 0 0 1 1.36 4.15l.35 1.85h-4.36l-.26-1.2c-.28-1.31-3.82-4.78-5.58-5.46a10.9 10.9 0 0 0-3.26-.28 94.34 94.34 0 0 0-12.5 1.05c-1.14.54-2.9 2.79-3.91 5l-.42.92"/><path class="cls-3" d="M42.84 37.21a5.19 5.19 0 0 0-.71-.77l-.13-.17a2.39 2.39 0 0 0-.44-.1c-.68-.09-1.41-.11-2.14-.14-1.47 0-3 0-4.43.1-2.95.14-5.93.37-8.86.7-1.48.16-3 .35-4.41.59-.73.11-1.45.23-2.16.4-.35.07-.7.16-1 .25a3.26 3.26 0 0 0-.47.17c-.07 0-.14 0-.16.09-.17.24-.33.47-.5.73s-.28.54-.42.82c-.26.57-.49 1.15-.7 1.74s-.45 1.19-.66 1.8c-.12.31-.23.61-.37.92a3.89 3.89 0 0 1-.19.42h2c1.08-2.42 3.12-5.18 4.81-5.86a91.56 91.56 0 0 1 13-1.13 12.46 12.46 0 0 1 3.82.4c2 .8 6.12 4.57 6.54 6.61h1.15A16.65 16.65 0 0 0 45 41a17.35 17.35 0 0 0-2.2-3.8"/><path class="cls-2" d="M45 46.24L44.76 45a15.32 15.32 0 0 0-1.13-3.42 15.89 15.89 0 0 0-2-3.38 4.26 4.26 0 0 0-.42-.49 14.6 14.6 0 0 0-1.88-.12h-.66c-1 0-2.18 0-3.68.09-2.86.15-5.79.38-8.77.71-1.66.19-3 .37-4.31.56-.82.12-1.48.26-2.06.38l-.92.23h-.09c-.02 0-.12.17-.17.26s-.21.4-.37.68c-.26.54-.47 1.1-.66 1.6-.09.21-.16.42-.23.63-.14.4-.28.8-.45 1.2s-.26.6-.37.93a3.7 3.7 0 0 1-.16.4l-.42.94h-2.79l-.39-.19h-.05a1.69 1.69 0 0 1-.92-1.67v-.07l.05-.21.07-.26c0-.16.09-.35.14-.51.1-.36.21-.68.33-1 .21-.61.47-1.27.77-2a19.61 19.61 0 0 1 1-1.95c.16-.3.35-.61.58-1s.45-.66.68-1a3.06 3.06 0 0 1 .54-.52 1.65 1.65 0 0 1 .35-.21 3.8 3.8 0 0 1 .49-.23c.28-.12.54-.19.75-.26.47-.14.92-.23 1.24-.3.68-.15 1.41-.29 2.33-.43 1.36-.21 2.79-.37 4.54-.56 3.05-.3 6.1-.54 9.05-.66 1.41 0 2.51-.09 3.52-.09h1.08a19.74 19.74 0 0 1 2.51.19 7.24 7.24 0 0 1 .92.21c.09 0 .23.09.4.16l.28.17.12.09.09.07.09.09.26.26a10.32 10.32 0 0 1 .89 1 21.17 21.17 0 0 1 2.51 4.3 19.25 19.25 0 0 1 .89 2.29 19.7 19.7 0 0 1 .67 2.5l.28 1.8H45z"/><path class="cls-2" d="M15 46.24l1-2.23c.87-1.85 3-5.25 5.28-6.21a90.65 90.65 0 0 1 13.39-1.19 11.29 11.29 0 0 1 4.2.47c2.41.93 6.61 4.9 7.17 7.24l.47 1.92H15z"/><path class="cls-2" d="M43.42 46.24L43.14 45c-.26-1.1-3.56-4.41-5.27-5.09a10 10 0 0 0-3.1-.26 96.81 96.81 0 0 0-12.33 1c-.89.44-2.51 2.34-3.57 4.59l-.42.89h-3.89l1-2.18c1.15-2.58 3.43-5.77 5.66-6.66a84 84 0 0 1 13.59-1.24 13.72 13.72 0 0 1 4.37.49c2.41.94 6.94 5 7.5 7.74l.32 1.96z"/><path class="cls-2" d="M45.23 46.24l-.45-.43a6.9 6.9 0 0 1-1.64-6.16 1.79 1.79 0 0 1 1.67-1.2 1.56 1.56 0 0 1 .44.07 2.63 2.63 0 0 0 1.22-.94 1.91 1.91 0 0 1 1.74-1 5.56 5.56 0 0 1 3.63 1.78A1.73 1.73 0 0 1 52.1 40s-.05.14-.1.25a32.5 32.5 0 0 1-2.11 5.3l-.44.73h-4.22z"/><path class="cls-2" d="M45.09 46.24l1.45-2.37a27 27 0 0 0 1.53-2.82 6.87 6.87 0 0 1-3.69 1V42v.16a1.9 1.9 0 0 1-1.87-1.83 1.92 1.92 0 0 1 .42-1.33 1.83 1.83 0 0 1 1.29-.6c1.69-.08 1.9-.47 2.2-1.06A2.72 2.72 0 0 1 49 36.08a3.74 3.74 0 0 1 .89.1 3.07 3.07 0 0 1 2.51 2.91c.07 1.47-.75 3.63-2.4 6.4l-.44.75z"/><path class="cls-2" d="M51.25 41.62a7.38 7.38 0 0 1-5-2.46 3.34 3.34 0 0 1-1-2.72 1.83 1.83 0 0 1 1.9-1.55 3.76 3.76 0 0 1 .61 0c.19-.85.64-2.61 2.44-2.61h.26a2 2 0 0 1 1.78 1.46 2.2 2.2 0 0 1 1-.26 2.07 2.07 0 0 1 1.5.65 2.24 2.24 0 0 1 .37 2.51 2 2 0 0 1 .89 1.23 2.18 2.18 0 0 1-.35 1.92c-.82 1.15-2.72 1.69-4.22 1.73-.09.1-.14.1-.19.1M49.38 3c-1.71 1.08-3.59 3.54-5.89 6.92a1.83 1.83 0 0 1-1.59.82 5.6 5.6 0 0 1-3.17-1.53c-2-1.59-2-2.48-2-2.83a1.77 1.77 0 0 1 1.64-1.83c1.9-.17 3.47-1.31 5-2.42S46.26 0 48 0a5 5 0 0 1 1 .12"/><path class="cls-4" d="M38.48 6.12c4.59-.42 7.29-5.18 10.08-4.46-1.88 1.18-3.73 3.52-6.33 7.34-.64.91-5-2.79-3.75-2.91"/><path class="cls-2" d="M8.7 3.94a6.53 6.53 0 0 1 4.59-1.6 17.14 17.14 0 0 1 5.77 1.2 6.24 6.24 0 0 0 2 .26h.87a2.18 2.18 0 0 1 2.18 1A2.27 2.27 0 0 1 23.8 7 6.28 6.28 0 0 1 19 9.5h-.1a7.48 7.48 0 0 1-3.19-1.22 10.23 10.23 0 0 0-5-1.72c-.26 0-.54 0-.8.05M44.06 15.31c-.85 0-2.44-.35-3.45-2.74a9.46 9.46 0 0 1-.75-3.5c0-1.64.87-2.08 1.41-2.2a25.1 25.1 0 0 0 1.59-2.06C45 1.9 46.54 0 48.35 0a2.3 2.3 0 0 1 .86.16 4.86 4.86 0 0 1 3.19 5.58A13.39 13.39 0 0 1 49.17 12c-.82 1-3 3.21-4.86 3.35h-.25"/><path class="cls-2" d="M16.34 16.2a2.43 2.43 0 0 1-.61-.05c-3-.49-6.75-3.51-8.16-6.63a4.46 4.46 0 0 1 0-4.43A4.24 4.24 0 0 1 11.32 3c1.93 0 3.85 1 5.54 2a13.81 13.81 0 0 0 2 1 1.29 1.29 0 0 1 .45-.07 1.74 1.74 0 0 1 1.5.89c.77 1.36.3 5-.92 7.13a4 4 0 0 1-3.54 2.34z"/><path class="cls-2" d="M26.8 42.37c-7 0-14-3.45-16.32-6a9.59 9.59 0 0 1-2.63-8.79 23.59 23.59 0 0 1 3.33-7.13 16.14 16.14 0 0 0 2-3.8c2.86-12.63 10-14.25 16-14.25h1.22C43 2.84 44.24 8.93 45 12.59a11.65 11.65 0 0 0 .45 1.74c4.24 10.41 5 16.64 2.34 20.86s-8.16 6.19-19.32 7.11c-.54 0-1.1.07-1.66.07z"/><path class="cls-2" d="M26.54 42.39c-7.17 0-13.81-3.56-16-6a9.56 9.56 0 0 1-2.62-8.79 23.36 23.36 0 0 1 3.33-7.13 16.53 16.53 0 0 0 2-3.8c2.86-12.63 10-14.25 16-14.25h1.22C43 2.84 44.27 8.93 45 12.59a13.19 13.19 0 0 0 .44 1.74c4.18 10.24 4.86 16.43 2.3 20.65-2.93 4.86-9.82 6.43-19.25 7.32a18.55 18.55 0 0 1-2 .09"/><path class="cls-2" d="M44.81 33.58c.09-.22.18-.45.28-.66 1-2.3 1.69-4.32.54-5.6-1.36-1.51-7.11-4.23-12.22-6.62-9.78-4.62-15.83-7.59-16.69-10.55A2.73 2.73 0 0 1 17 8c1.69-2.65 6.4-5.48 12.85-5.48H30c6.08 0 10.49 1.8 13.13 5.18 2.26 2.86 2.75 6.21 3.12 8.65a10.06 10.06 0 0 0 .45 2.16c4.59 7.9 2.48 13.74.82 16.48z"/><path class="cls-2" d="M40 24.48c-2.37 0-6.33-.59-7.69-1.9-1.08-1-1.48-2.74-1.9-4.41a14.13 14.13 0 0 0-.7-2.34l-.3.84c-.63 1.78-1.53 4.24-3.38 5.58-.8.59-3.68 1.1-5.91 1.1a7.63 7.63 0 0 1-5-1.43c-1.62-1.36-2.83-3.87-3.66-7.45l-.11-.07a3 3 0 0 1-1.13-1.11 4 4 0 0 1 .19-3.14 1.94 1.94 0 0 1 1.5-1h.21a5.53 5.53 0 0 1 1 .12 7 7 0 0 0 1.2.14h.21a42.49 42.49 0 0 1 6.21-.47 19.93 19.93 0 0 1 8 1.32.58.58 0 0 1 .19.07 5.26 5.26 0 0 0 1.27.16 1.91 1.91 0 0 0 .54-.05 39.17 39.17 0 0 1 5.84-.44 20 20 0 0 1 8.58 1.6.62.62 0 0 0 .26.09h.09a7.17 7.17 0 0 0 1.12-.16c.29-.07.57-.12.83-.17h.21a2.08 2.08 0 0 1 1.78 1.13 4 4 0 0 1 .12 3.51 3.71 3.71 0 0 1-1.67 1.22 1.2 1.2 0 0 0-.23.11c-.19.33-.52 1-.8 1.53a27.08 27.08 0 0 1-2.58 4.41c-.75.84-2.16 1.24-4.29 1.24"/><g class="cls-6" clip-path="url(#clip-path)"><path class="cls-2" d="M39.06 24.1a11.55 11.55 0 0 1-6.43-1.62c-1.08-.77-1.57-2.32-2.25-4.81a22 22 0 0 0-.68-2.18c-.12.29-.26.66-.37 1-.71 1.9-1.67 4.48-3.43 5.56a15.42 15.42 0 0 1-5.9 1.04c-2.37 0-4.08-.54-5.07-1.57a12.24 12.24 0 0 1-3.3-6.61c-.05-.21-.1-.49-.14-.66a2.52 2.52 0 0 1-1.55-2.41 1.67 1.67 0 0 1 1.64-1.6 2.06 2.06 0 0 1 1.24.47h.1a.25.25 0 0 1 .11 0 2.22 2.22 0 0 1 1.72 1.86 23.77 23.77 0 0 0 1 3.33c1 2.5 1.64 2.93 1.71 3a8.44 8.44 0 0 0 2.79.42A13 13 0 0 0 24 18.8c.36-.54 1.06-1.95 1.55-2.91 1.48-2.93 1.74-3.37 2.37-3.7a2.68 2.68 0 0 1 1.31-.28 6.61 6.61 0 0 1 2.18.37c1.08.47 1.64 1.88 2.91 5.51.23.66.52 1.5.7 1.92a15 15 0 0 0 5.3.75h1.41c.21-.45.52-1.08.77-1.62 1.78-3.8 2.07-4.24 2.51-4.6a5.84 5.84 0 0 1 2.91-1 1.68 1.68 0 0 1 1.73 1.34c.26 1.36-1.07 1.87-1.52 2l-.4.16c-.16.28-.47.89-.7 1.38-1.92 3.75-2.56 4.79-3.28 5.23a12.54 12.54 0 0 1-4.69.73"/></g><g class="cls-6" clip-path="url(#clip-path-2)"><path class="cls-2" d="M14.35 13a6 6 0 0 1-1.9-.4c-.28-.09-.54-.18-.71-.25a1.69 1.69 0 0 1-1.26-1.57V9.19H12a1.53 1.53 0 0 1 .46.08c.33 0 1.39.11 1.74.14h.21c.28 0 1.15-.12 1.52-.16a4.51 4.51 0 0 1 .8-.1h1.37l.21 1.31a1.59 1.59 0 0 1-1.13 1.74l-.35.12a8.45 8.45 0 0 1-2.34.61.2.2 0 0 1-.14 0"/></g><g class="cls-6" clip-path="url(#clip-path-3)"><path class="cls-2" d="M45.32 15.24a3.07 3.07 0 0 1-1.74-.7 2.12 2.12 0 0 1-1.19-1.76v-1.57h1.52a1.68 1.68 0 0 1 .64.14c.16.07.79.28 1.07.35a4.46 4.46 0 0 0 .66-.12 2 2 0 0 1 .47 0h1.34l.21 1.31a1.58 1.58 0 0 1-1.06 1.74l-.28.14a5.81 5.81 0 0 1-1.41.54.49.49 0 0 0-.23 0"/></g><path class="cls-2" d="M40.21 49.68h-5.77v-5h5.77z"/><path class="cls-3" d="M42.84 37.21a5.19 5.19 0 0 0-.71-.77l-.13-.17a2.39 2.39 0 0 0-.44-.1c-.68-.09-1.41-.11-2.14-.14-1.47 0-3 0-4.43.1-2.95.14-5.93.37-8.86.7-1.48.16-3 .35-4.41.59-.73.11-1.45.23-2.16.4-.35.07-.7.16-1 .25a3.26 3.26 0 0 0-.47.17c-.07 0-.14 0-.16.09-.17.24-.33.47-.5.73s-.28.54-.42.82c-.26.57-.49 1.15-.7 1.74s-.45 1.19-.66 1.8c-.12.31-.23.61-.37.92a3.89 3.89 0 0 1-.19.42h2c1.08-2.42 3.12-5.18 4.81-5.86a91.56 91.56 0 0 1 13-1.13 12.46 12.46 0 0 1 3.82.4c2 .8 6.12 4.57 6.54 6.61h1.15A16.65 16.65 0 0 0 45 41a17.35 17.35 0 0 0-2.2-3.8"/><path class="cls-9" d="M46.12 40.42a18.51 18.51 0 0 0-2.32-4 8.15 8.15 0 0 0-.78-.89l-.21-.21-.12-.07a.64.64 0 0 0-.21-.09 4.29 4.29 0 0 0-.66-.17 18.41 18.41 0 0 0-2.3-.16c-1.52 0-3 0-4.5.07-3 .12-6 .35-8.95.65-1.48.17-3 .33-4.48.57-.75.11-1.48.23-2.23.4-.38.09-.75.16-1.13.28a2.74 2.74 0 0 0-.58.21 2.45 2.45 0 0 0-.33.16 1.57 1.57 0 0 1-.19.12 1.23 1.23 0 0 0-.23.23c-.21.26-.42.57-.61.85a8.77 8.77 0 0 0-.54.89c-.33.59-.63 1.19-.92 1.8s-.51 1.22-.72 1.86a5.87 5.87 0 0 0-.28.93c-.05.17-.1.31-.14.47l-.07.24v.12l.14.11H15c.07-.14.11-.28.18-.42.12-.3.26-.61.38-.89.23-.61.44-1.2.65-1.81s.45-1.19.71-1.73l.42-.82c.16-.26.31-.49.49-.73a1 1 0 0 0 .16-.1l.51-.29c.33-.09.68-.19 1-.26.7-.16 1.43-.28 2.16-.4 1.45-.23 2.93-.42 4.41-.58q4.42-.49 8.86-.71c1.51-.05 2.98-.05 4.46-.05a20.23 20.23 0 0 1 2.13.14c.17 0 .33.07.45.09s.05 0 .05 0l.16.16c.26.26.47.52.7.78a18.77 18.77 0 0 1 2.21 3.7 16.73 16.73 0 0 1 1.24 3.78h1.17a14.44 14.44 0 0 0-.5-2.09c-.28-.73-.57-1.44-.87-2.14"/><path class="cls-4" d="M38.43 38.52a12.18 12.18 0 0 0-3.64-.37A92.72 92.72 0 0 0 22 39.25c-1.52.61-3.42 3.19-4.48 5.44h27.15c-.45-1.76-4.22-5.37-6.24-6.17"/><path class="cls-10" d="M38.59 38.08a12.37 12.37 0 0 0-3.82-.4 93.7 93.7 0 0 0-13 1.12c-1.71.71-3.73 3.45-4.81 5.87h.52c1.05-2.23 3-4.81 4.48-5.44a90.2 90.2 0 0 1 12.82-1.11 11.19 11.19 0 0 1 3.64.38c2 .77 5.79 4.41 6.23 6.17h.47c-.4-2-4.48-5.8-6.52-6.59"/><path class="cls-3" d="M47.88 38.29c-.28.58-1.76 2.08-3 1.73-.66-.18-.54 3.29 1 4.67h2.72a38.81 38.81 0 0 0 2.06-5.23c.16-.45-2.46-1.76-2.74-1.17"/><path class="cls-9" d="M50.76 39.16a1.55 1.55 0 0 0-1.29-1.48c-.63-.14-1.48 0-1.69.37-.42.8-.93 1.76-3.49 1.9a.34.34 0 0 0-.3.33.33.33 0 0 0 .32.31c2.68-.12 3.45-1.15 4-2.21a1.75 1.75 0 0 1 1.27 0 .86.86 0 0 1 .56.82c.07 1.46-1.45 4.15-2.27 5.51h.72c.92-1.59 2.23-4.05 2.16-5.55"/><g class="cls-12" clip-path="url(#clip-path-4)"><path class="cls-13" d="M45.49 44.76a4.59 4.59 0 0 0 3.26-4.43c0-.45-.89-1.29-.89-1.53s2.79.05 2.93.71-1.73 4.62-2.36 5.27-3.92.21-2.94 0"/></g><path class="cls-14" d="M46.8 36.67c-.21 1.45 2.63 3.45 4.55 3.4 1.59 0 3.4-.8 3.14-1.69s-1.81.17-2-.47 1.81-1.76 1-2.6-1.58 1.22-2.42.94.16-2.23-.89-2.35c-1.24-.11-.77 2.65-1.71 2.7-.66.07-1.69-.4-1.76.07"/><path class="cls-15" d="M46.8 36.67c-.21 1.45 2.63 3.45 4.55 3.4 1.59 0 3.4-.8 3.14-1.69s-1.81.17-2-.47 1.81-1.76 1-2.6-1.58 1.22-2.42.94.16-2.23-.89-2.35c-1.24-.11-.77 2.65-1.71 2.7-.57.07-1.6-.4-1.67.07z"/><g class="cls-17" clip-path="url(#clip-path-5)"><path class="cls-14" d="M47.61 36.66c.3.23 1.4.54 1.57.14a2.42 2.42 0 0 0 .21-1.32c-.1.38-.21 1.08-.61 1.25a3 3 0 0 1-1.17-.07"/></g><g class="cls-17" clip-path="url(#clip-path-6)"><path class="cls-14" d="M50.63 35.11c0 .26-.25 1.48.38 1.64s.94-.19 1.36-.87c-.23.21-.82.73-1.27.54s-.49-.68-.47-1.31"/></g><g class="cls-20" clip-path="url(#clip-path-7)"><path class="cls-14" d="M47.92 38.4c3.19-1.58 3.84 1 3.68 1.5a5.54 5.54 0 0 1-3.68-1.5"/></g><g class="cls-17" clip-path="url(#clip-path-8)"><path class="cls-14" d="M52.56 37.4c-.54.61-.29 1.1.07 1.17s1-.38.93-.38-1 .28-1.15-.14a.68.68 0 0 1 .15-.65"/></g><g class="cls-12" clip-path="url(#clip-path-9)"><path class="cls-13" d="M16.14 41.47c10.25 5.88 30.57-.1 29.49-2-1.43-2.55-2-4.15-5.13-4s-23.19 1.76-24 2.37-1.69 2.88-.35 3.66"/></g><path class="cls-4" d="M38.48 6.12c4.59-.42 7.29-5.18 10.08-4.46-1.88 1.18-3.73 3.52-6.33 7.34-.64.91-5-2.79-3.75-2.91"/><path d="M38.48 6.12c4.59-.42 7.29-5.18 10.08-4.46-1.88 1.18-3.73 3.52-6.33 7.34-.64.94-5.02-2.76-3.75-2.88z" stroke-linecap="round" stroke-linejoin="round" stroke="#e5d0ae" stroke-width="3" fill="none"/><path class="cls-3" d="M9.75 5.09c2.07-1.92 5.79-1.17 8.8-.1 1.71.61 3.94.12 4.08.47.37.82-1.86 2.54-3.69 2.46S14.11 4.5 9.75 5.09"/><path d="M9.75 5.09c2.07-1.92 5.79-1.17 8.8-.1 1.71.61 3.94.12 4.08.47.37.82-1.86 2.54-3.69 2.46S14.11 4.5 9.75 5.09z" stroke="#895b2e" stroke-linecap="round" stroke-linejoin="round" stroke-width="2" fill="none"/><path class="cls-14" d="M41.62 8.39c1.05.31 5.06-7.55 7-6.77 6.19 2.46-1.88 11.93-4.43 12.14S41 8.21 41.62 8.39"/><path class="cls-15" d="M41.62 8.39c1.05.31 5.06-7.55 7-6.77 6.19 2.46-1.88 11.93-4.43 12.14S41 8.21 41.62 8.39z"/><path class="cls-14" d="M19.25 7.46c-1.71.75-7.78-5.61-10.34-1.53-1.69 2.7 3.42 8.14 7.08 8.72s4.15-7.59 3.26-7.19"/><path class="cls-15" d="M19.25 7.46c-1.71.75-7.78-5.61-10.34-1.53-1.69 2.7 3.42 8.14 7.08 8.72s4.15-7.59 3.26-7.19z"/><g clip-path="url(#clip-path-10)"><path class="cls-14" d="M46.39 3.14C46.06 4.22 43.3 7 43.67 9.4c.14.89 1.08 3.52 1.48 3.43s1.41-.73 1.31-.59a12.71 12.71 0 0 1-1.9 1.36c-.49-.26-2.58-5.11-2.27-5.37.91-.82 3.7-5 4.1-5.09"/></g><g clip-path="url(#clip-path-11)"><path class="cls-14" d="M9 6.1c1.87-1.15 5.3-.66 7.29 1.29.7.7.91 3-.68 4.64-.63.63 3.75-2.25 3.77-3.1a1.14 1.14 0 0 0-.93-1.31c-2.42-.89-5-2.95-7.15-2.91A2.63 2.63 0 0 0 9 6.1"/></g><g class="cls-20" clip-path="url(#clip-path-12)"><path class="cls-14" d="M47.15 2.53c4.27 2.34-2.6 5.9-2.09 10.34-.89-.1-3.09-4.39-2.55-4.76.75-.52 3.91-5.77 4.64-5.58"/></g><path class="cls-10" d="M14.23 16.93a4.32 4.32 0 0 0 .12-.94 5.86 5.86 0 0 1 .12-1 1.5 1.5 0 0 1 .14-.47 3.43 3.43 0 0 0 .16-.45c.12-.3.24-.6.38-.89a19.87 19.87 0 0 1 1.9-3.37A17.85 17.85 0 0 1 19.55 7a10.66 10.66 0 0 1 3.22-2 13.4 13.4 0 0 1 3.7-1 25.44 25.44 0 0 1 3.8-.17 37.31 37.31 0 0 1 3.8.26 17.63 17.63 0 0 1 3.75.91 12.78 12.78 0 0 1 1.76.82A8.62 8.62 0 0 1 41.17 7a7.24 7.24 0 0 1 1.27 1.54 9.92 9.92 0 0 1 .84 1.81 16.82 16.82 0 0 1 .52 1.88c.14.63.23 1.24.37 1.82.07.29.17.57.26.85a7.79 7.79 0 0 1 .33.89c.21.59.44 1.2.66 1.78a50.12 50.12 0 0 1 2 7.32 26.49 26.49 0 0 1 .4 3.77 12.81 12.81 0 0 1-.45 3.75c-.09.31-.19.61-.3.89s-.28.57-.38.87a2.63 2.63 0 0 1-.16.45 4.78 4.78 0 0 1-.26.42 5.42 5.42 0 0 1-.59.77 10.09 10.09 0 0 1-3 2.39 17.67 17.67 0 0 1-3.56 1.43 36.68 36.68 0 0 1-3.73.87c-1.27.24-2.51.4-3.75.56l-1.9.22-.94.09-1 .07a23.85 23.85 0 0 1-7.62-.91 29.75 29.75 0 0 1-3.61-1.29 24.62 24.62 0 0 1-3.4-1.81 11.87 11.87 0 0 1-1.57-1.2l-.38-.35c-.11-.11-.21-.25-.32-.37s-.43-.52-.61-.78a8.34 8.34 0 0 1-1.15-7.59 17.89 17.89 0 0 1 1.57-3.54c.63-1.1 1.31-2.18 2-3.24.33-.54.63-1.08.91-1.62a13.68 13.68 0 0 0 .61-1.8zm.94.21a8.34 8.34 0 0 1-.75 1.86c-.31.59-.63 1.13-1 1.67-.66 1.07-1.34 2.13-1.92 3.21a16.76 16.76 0 0 0-1.46 3.35 8.09 8.09 0 0 0-.28 3.52A7.59 7.59 0 0 0 11.18 34c.17.23.38.47.57.7a3.28 3.28 0 0 0 .3.33c.1.12.21.21.31.31a10.8 10.8 0 0 0 1.43 1.1 22 22 0 0 0 3.26 1.73 24.53 24.53 0 0 0 3.49 1.25 29.65 29.65 0 0 0 3.61.75 21.36 21.36 0 0 0 3.66.16l.91-.07.94-.09c.61 0 1.24-.12 1.88-.19 1.24-.12 2.48-.28 3.7-.49a36 36 0 0 0 3.63-.78 26.21 26.21 0 0 0 3.5-1.19 10.73 10.73 0 0 0 3.05-2 8 8 0 0 0 .61-.68c.09-.12.18-.26.28-.37s.21-.24.3-.38a4.12 4.12 0 0 0 .45-.82 6.58 6.58 0 0 0 .28-.89 12.67 12.67 0 0 0 .3-3.73 21.32 21.32 0 0 0-.61-3.7 53.36 53.36 0 0 0-2.36-7.11c-.24-.58-.47-1.17-.71-1.73l-.37-.87c-.12-.3-.24-.63-.33-.94-.17-.63-.28-1.24-.42-1.85a13.75 13.75 0 0 0-.47-1.76 7.44 7.44 0 0 0-1.85-3 9.71 9.71 0 0 0-3-1.92 16.46 16.46 0 0 0-3.56-1 32.62 32.62 0 0 0-3.71-.4 26.09 26.09 0 0 0-3.75.07 12.84 12.84 0 0 0-3.61.9 9.7 9.7 0 0 0-3.09 2 10.12 10.12 0 0 0-2.19 3 20.57 20.57 0 0 0-1.31 3.45c-.09.28-.16.59-.23.89 0 .14-.07.31-.12.45a1.89 1.89 0 0 1-.05.23.64.64 0 0 1-.09.21c-.12.28-.26.56-.4.85s-.14.53-.21.84z"/><path class="cls-4" d="M14.7 17.05c-1 4.36-9.59 11.25-3 18.31 2.23 2.39 9.45 6.07 16.7 5.39C47.2 39 52 34.42 44 14.91 42.72 11.75 44.17 4.43 30.32 4c-5.82-.16-12.81.63-15.62 13"/><path d="M18 8.51a8.68 8.68 0 0 1 2.3-2.34 12.1 12.1 0 0 1 2.91-1.48 20.45 20.45 0 0 1 6.37-1.1 23.77 23.77 0 0 1 6.42.65 13.87 13.87 0 0 1 3.07 1.2 10.56 10.56 0 0 1 2.67 2 10.76 10.76 0 0 1 1.9 2.74 15.1 15.1 0 0 1 1.11 3.12c.25 1.08.42 2.13.56 3.19a14.11 14.11 0 0 0 .26 1.54 3.32 3.32 0 0 0 .18.68l.07.14v.1l.21.35a18 18 0 0 1 2.09 6.16 13.91 13.91 0 0 1 0 3.29 11.33 11.33 0 0 1-.69 3.25 14.35 14.35 0 0 1-.72 1.48l-.22.35c-.07.12-.14.21-.23.35s0 .05 0 .07.1.17-.37 0c-.12-.21-.05-.16-.07-.21s0-.09 0-.14l.07-.21.12-.38a15.25 15.25 0 0 0 .73-3.07 7.49 7.49 0 0 0 0-1.57 4 4 0 0 0-.47-1.43 1.17 1.17 0 0 0-.24-.3 3.45 3.45 0 0 0-.26-.28 4.78 4.78 0 0 0-.58-.52 7.41 7.41 0 0 0-1.34-.82 6.82 6.82 0 0 0-3-.54 14.09 14.09 0 0 0-3.09.54c-.52.14-1 .3-1.53.47-.25.09-.51.16-.77.23a2.58 2.58 0 0 1-.42.1 2.71 2.71 0 0 1-.4 0 24.84 24.84 0 0 1-3.24.17 17 17 0 0 1-3.23-.38 15.45 15.45 0 0 1-3.1-1 13.19 13.19 0 0 1-2.76-1.73A14.38 14.38 0 0 1 20 20.8a14.7 14.7 0 0 1-2.61-5.93 13.71 13.71 0 0 1-.25-3.26 9.31 9.31 0 0 1 .19-1.61A7 7 0 0 1 18 8.51zm.47.31a4.63 4.63 0 0 0-.54 1.4 11 11 0 0 0-.21 1.53 12.36 12.36 0 0 0 .28 3.09 14.19 14.19 0 0 0 2.58 5.63 13.81 13.81 0 0 0 2.12 2.23 12.49 12.49 0 0 0 2.62 1.66 14.16 14.16 0 0 0 3 1 16 16 0 0 0 3.09.4 20.57 20.57 0 0 0 3.14-.12h.4l.38-.07.75-.21c.51-.14 1-.3 1.54-.42a13.24 13.24 0 0 1 3.22-.45 7.32 7.32 0 0 1 3.16.66 8.21 8.21 0 0 1 1.39.85 6.14 6.14 0 0 1 .6.53l.29.29a2 2 0 0 1 .25.32 3.63 3.63 0 0 1 .47 1.53 8.31 8.31 0 0 1 0 1.65 16.25 16.25 0 0 1-.64 3.16l-.11.38-.05.18v.07s.05 0 0-.16c-.44-.16-.28 0-.33 0 0-.1.12-.21.19-.33s.12-.24.19-.35a15.13 15.13 0 0 0 .63-1.43 12 12 0 0 0 .5-6.12 14.52 14.52 0 0 0-.85-3 20.62 20.62 0 0 0-1.34-2.81l-.19-.33-.05-.1v-.05a1 1 0 0 1-.09-.21 6.62 6.62 0 0 1-.26-.84c-.12-.54-.21-1.08-.28-1.6a30.65 30.65 0 0 0-.56-3.09 14.3 14.3 0 0 0-1-2.91A10.15 10.15 0 0 0 41 8.23a11.4 11.4 0 0 0-5.2-3.05 22.22 22.22 0 0 0-6.21-.77 19.75 19.75 0 0 0-6.17.91 11.82 11.82 0 0 0-2.79 1.36 7 7 0 0 0-2.2 2.14z" fill="#e5bfa1"/><path class="cls-9" d="M17.68 8.39A8.44 8.44 0 0 1 18.87 7a11.17 11.17 0 0 1 1.41-1.1 15.11 15.11 0 0 1 3.14-1.57 19.45 19.45 0 0 1 6.83-1A21.63 21.63 0 0 1 37 4.41 12.19 12.19 0 0 1 40.14 6a10.94 10.94 0 0 1 2.51 2.48 13.12 13.12 0 0 1 1.59 3.12 20.22 20.22 0 0 1 .82 3.4c.1.56.17 1.1.26 1.66s.17 1.11.26 1.6a2.87 2.87 0 0 0 .21.68v.1l.1.18.21.38c.26.49.52 1 .75 1.52A18.88 18.88 0 0 1 48 24.43a14.82 14.82 0 0 1 .37 3.4 12.67 12.67 0 0 1-1.85 6.52.31.31 0 0 1-.42.12.33.33 0 0 1-.14-.38c.33-.84.68-1.64.94-2.46a7.83 7.83 0 0 0 .47-2.49 3.66 3.66 0 0 0-.71-2.25.53.53 0 0 0-.09-.11l-.05-.05v-.07l-.21-.21a3.67 3.67 0 0 0-.47-.4c-.32-.26-.7-.49-1.05-.73-1.48-.91-3-1.71-4.64-2.51s-3.22-1.52-4.81-2.25c-3.24-1.47-6.47-2.95-9.66-4.55-1.59-.82-3.16-1.64-4.71-2.62a25.37 25.37 0 0 1-2.3-1.76 4.72 4.72 0 0 1-1-1.22 2.17 2.17 0 0 1-.29-.94 2.12 2.12 0 0 1 .05-.56 1.52 1.52 0 0 1 .09-.28 2.65 2.65 0 0 1 .12-.24zm1.31.8V9.4a1.4 1.4 0 0 0 .1.33 3 3 0 0 0 .67.84 13 13 0 0 0 2 1.55c1.43 1 3 1.81 4.55 2.65 3.11 1.64 6.33 3.17 9.52 4.71l4.78 2.37a49.66 49.66 0 0 1 4.69 2.65c.37.26.75.52 1.1.82.19.14.35.31.54.47l.26.28v.07l.07.07a1.74 1.74 0 0 0 .12.14 4.59 4.59 0 0 1 .61 1.32 4.67 4.67 0 0 1 .17 1.43 8.78 8.78 0 0 1-.59 2.72c-.3.86-.68 1.66-1 2.48L46 34a11.89 11.89 0 0 0 1.59-6.19 15.7 15.7 0 0 0-1.52-6.26c-.24-.49-.47-1-.75-1.45l-.42-.75a3.51 3.51 0 0 1-.31-.89c-.14-.59-.23-1.13-.33-1.69s-.18-1.1-.28-1.62a20.18 20.18 0 0 0-.84-3.12 12.07 12.07 0 0 0-1.48-2.77 9.11 9.11 0 0 0-2.23-2.15 11 11 0 0 0-2.83-1.37 20.39 20.39 0 0 0-6.33-.93 17.89 17.89 0 0 0-3.19.19 17.46 17.46 0 0 0-3.08.81 13.77 13.77 0 0 0-2.8 1.36 8.22 8.22 0 0 0-1.2.94 7 7 0 0 0-1 1.08z"/><path class="cls-3" d="M18.19 8.65c-2.57 4 .5 19.3 16.7 17.23 1.71-.21 7.41-3.25 11.25 1 2.09 2.35-.72 8.28 0 7s4-6.61-.75-14.7c-1.5-2.61 1-15.1-15.24-15.27-6.21 0-10.24 2-12 4.69"/><g class="cls-12" clip-path="url(#clip-path-13)"><path class="cls-13" d="M17.76 9.62c4.67-3 18.79-2.79 23.29 4.41 3 4.78-2.49 16.6-4.53 18.1s-4.83 2.81-12.24 1C18 31.66 27.45 25.82 20.09 25c-6.73-.78-7.41-12.08-2.33-15.36"/></g><g class="cls-20" clip-path="url(#clip-path-14)"><path class="cls-13" d="M30.81 21.23c0 .36-.68.66-1.53.66s-1.52-.28-1.52-.66.68-.65 1.52-.65 1.53.3 1.53.65"/></g><path class="cls-31" d="M28.11 19.32a4.26 4.26 0 0 1 2.46.09c.24.24.75 1.22.17 1.64-.21.15-.21-.44-.68-.35s-.26.85-.71.85c-.68 0 0-.8-.6-.89s-.54.35-.75.3c-.68-.14-.38-1.31.11-1.64"/><g clip-path="url(#clip-path-15)"><path class="cls-31" d="M29.13 19.18a2.53 2.53 0 0 0-1 .14c-.5.33-.8 1.5-.14 1.62.16 0 .26-.33.61-.33h.12c.58.09-.05.89.61.89.42 0 .11-.7.7-.82h.09c.33 0 .38.38.52.38a.07.07 0 0 0 .07 0c.61-.42.09-1.4-.16-1.64a3.42 3.42 0 0 0-1.43-.21m0 .16a3.66 3.66 0 0 1 1.33.17 1.65 1.65 0 0 1 .38 1 .5.5 0 0 1-.17.33v-.05a.64.64 0 0 0-.5-.3h-.11c-.4.09-.47.4-.54.61s-.07.21-.14.21c-.19 0-.19-.05-.19-.26s0-.54-.42-.61h-.14a.84.84 0 0 0-.54.26s-.07.07-.1.07-.18-.07-.23-.26a1.3 1.3 0 0 1 .42-1.07 2 2 0 0 1 1-.15"/></g><g clip-path="url(#clip-path-16)"><path d="M43.75 25.47c.7 4.51-4.92 10.16-12.5 11.33S18.1 31.2 17.4 26.67s3.94-2.79 11.51-3.94S43.05 21 43.75 25.47" fill="#f7e8d0"/></g><g class="cls-17" clip-path="url(#clip-path-17)"><path class="cls-36" d="M24 32.33a4.8 4.8 0 0 1-.45-1.1l-.35-1.13a14.25 14.25 0 0 0-.84-2.2A6.08 6.08 0 0 0 21 26a4.19 4.19 0 0 0-2-1 .43.43 0 0 1-.28-.58.47.47 0 0 1 .54-.31 23.66 23.66 0 0 0 5.18.61 40.65 40.65 0 0 0 5.27-.28 50.19 50.19 0 0 0 5.21-.91c1.71-.4 3.42-.87 5.09-1.44a.44.44 0 0 1 .58.29.44.44 0 0 1-.14.49c0 .05-.14.12-.21.19l-.21.23c-.14.16-.28.35-.42.54a12.9 12.9 0 0 0-.78 1.15c-.51.77-1 1.57-1.43 2.39s-.89 1.64-1.29 2.46c-.21.42-.39.85-.56 1.27-.09.21-.16.42-.26.65a2.34 2.34 0 0 0-.09.33v.05h-.05a.22.22 0 0 1-.09.07.75.75 0 0 1-.17.1 6.7 6.7 0 0 1-1.36.37 10.19 10.19 0 0 1-1.38.21c-.94.12-1.85.21-2.79.24a17.27 17.27 0 0 1-2.79 0 10.6 10.6 0 0 1-1.39-.12 3 3 0 0 1-.65-.26 1.39 1.39 0 0 1-.54-.42m0 0a1.28 1.28 0 0 0 .54.43 5.66 5.66 0 0 0 .66.23 6.3 6.3 0 0 0 1.38.21 21.65 21.65 0 0 0 2.79 0c.94 0 1.85-.16 2.77-.28.44-.07.91-.14 1.36-.25a9.07 9.07 0 0 0 1.31-.4.45.45 0 0 0 .14-.1s.07 0 .07-.07a2.68 2.68 0 0 1 .1-.35c.07-.23.14-.44.21-.68.16-.44.33-.87.51-1.31.38-.87.75-1.71 1.15-2.56s.82-1.69 1.27-2.51c.21-.42.44-.82.7-1.24a6.41 6.41 0 0 1 .4-.61l.21-.3a3.92 3.92 0 0 1 .28-.31l.45.8a49.82 49.82 0 0 1-5.18 1.45 50.71 50.71 0 0 1-5.3.94 37.36 37.36 0 0 1-5.4.28A26.69 26.69 0 0 1 19 25l.26-.94a8.14 8.14 0 0 1 2 1.55 7.69 7.69 0 0 1 1.22 2.11 22.05 22.05 0 0 1 .7 2.28c.09.37.21.77.3 1.14A4.52 4.52 0 0 0 24 32.3"/></g><g class="cls-17" clip-path="url(#clip-path-18)"><path class="cls-36" d="M24 32.33a4.45 4.45 0 0 1-.44-1.08c-.12-.37-.21-.75-.33-1.12a15.76 15.76 0 0 0-.82-2.23 6.41 6.41 0 0 0-1.32-1.9 4.32 4.32 0 0 0-2-1.08.24.24 0 0 1-.14-.3.25.25 0 0 1 .28-.17 24.22 24.22 0 0 0 5.25.61 40.74 40.74 0 0 0 5.3-.28c1.76-.21 3.49-.54 5.23-.91s3.44-.87 5.11-1.43a.23.23 0 0 1 .3.14.24.24 0 0 1-.07.25 5.05 5.05 0 0 0-.44.47c-.14.17-.28.38-.43.54-.25.38-.51.78-.75 1.17-.49.78-1 1.6-1.4 2.42s-.87 1.64-1.24 2.48l-.57 1.27a5.66 5.66 0 0 0-.23.66 1.8 1.8 0 0 0-.1.33c0 .09-.09.11-.14.16a.37.37 0 0 1-.16.09 7.93 7.93 0 0 1-1.36.38c-.45.09-.92.16-1.38.23-.92.12-1.86.21-2.79.26a17.27 17.27 0 0 1-2.79 0 8.07 8.07 0 0 1-1.36-.29 6.21 6.21 0 0 1-.65-.23 1.38 1.38 0 0 1-.57-.45m0 0a1.58 1.58 0 0 0 .54.44 4.28 4.28 0 0 0 .66.24 7.78 7.78 0 0 0 1.38.21 18.56 18.56 0 0 0 2.79 0c.94 0 1.85-.14 2.79-.28.45-.07.92-.14 1.39-.26a5.85 5.85 0 0 0 1.31-.4.37.37 0 0 0 .14-.09s.09-.07.09-.09a2.42 2.42 0 0 1 .1-.36 6.21 6.21 0 0 1 .23-.65c.17-.45.35-.87.54-1.29.38-.87.77-1.69 1.2-2.53s.84-1.67 1.31-2.49c.23-.42.47-.82.73-1.2a3.74 3.74 0 0 1 .4-.58 3.12 3.12 0 0 1 .49-.56l.23.42a51.29 51.29 0 0 1-5.16 1.45c-1.73.4-3.49.7-5.27.94a37 37 0 0 1-5.37.28 27.71 27.71 0 0 1-5.35-.63l.12-.45a5.38 5.38 0 0 1 2 1.39 7.24 7.24 0 0 1 1.24 2 18 18 0 0 1 .75 2.25c.09.37.21.75.33 1.14a2.72 2.72 0 0 0 .37 1"/></g><path class="cls-38" d="M24 32.31c1.19 1.87 11 .59 11.14-.16.42-1.9 3.94-8.61 5.06-9.55-2 .71-12.5 4.06-21 2 3.8 1.31 3.87 6.26 4.8 7.71"/><g clip-path="url(#clip-path-19)"><path class="cls-38" d="M40.18 22.64a50.48 50.48 0 0 1-15 2.67 27.11 27.11 0 0 1-6-.63c3.82 1.24 3.88 6.21 4.82 7.66.44.71 2.15 1 4.1 1 3.14 0 6.92-.66 7-1.13.43-1.92 3.92-8.63 5-9.54m-1.32.91A42.49 42.49 0 0 0 34.69 32a21.68 21.68 0 0 1-6.59.89c-2.39 0-3.47-.4-3.7-.75a6.18 6.18 0 0 1-.61-1.76 10.76 10.76 0 0 0-2.3-4.76 30.9 30.9 0 0 0 3.68.21 50.77 50.77 0 0 0 13.69-2.23"/></g><path class="cls-14" d="M28 33.29c-2 0-3.33-.28-3.85-.84 0-.05 0-.33.19-.87a6.34 6.34 0 0 1 5.3-3.68h.59c3.51 0 5.62 1.78 5.62 2.08l-.16.43c-.19.44-.47 1.15-.73 1.9-.3.3-3.82 1-7 1"/><path class="cls-31" d="M30.25 27.76h-.61c-4.11.26-6 4.32-5.58 4.81.61.66 2.18.89 4 .89 3.16 0 7-.73 7.1-1.08.35-1 .75-1.92.92-2.34s-2.23-2.32-5.79-2.3m0 .31c3.14 0 5.25 1.5 5.46 1.94a3.17 3.17 0 0 0-.14.35c-.19.45-.47 1.11-.73 1.86a23.84 23.84 0 0 1-6.82.91c-1.9 0-3.21-.28-3.71-.77a3.33 3.33 0 0 1 .65-1.63 6.09 6.09 0 0 1 4.62-2.64h.59"/><g clip-path="url(#clip-path-20)"><path class="cls-14" d="M24.12 32.34c-.28 1.26 7.48-5 11.66-2 .86-1.15-3.76-3.1-6.45-2.65a6.12 6.12 0 0 0-5.21 4.62"/></g><path d="M25.7 25.65c.4.7 1.12 4.13 1.43 4.2a12 12 0 0 0 2.48.49c.28-.12.26-.77.54-.59s.35.47.59.36a8.31 8.31 0 0 0 1.87-1.32 13 13 0 0 0 0-3.84 27.32 27.32 0 0 1-6.91.7" fill="#fff7e3"/><g clip-path="url(#clip-path-21)"><path class="cls-43" d="M32.63 25a30.13 30.13 0 0 1-6.24.73 4.51 4.51 0 0 1-.68 0c.4.71 1.12 4.13 1.43 4.2a17 17 0 0 0 2.37.51h.11c.24-.09.26-.61.45-.61a.09.09 0 0 1 .09.05c.21.12.31.37.5.37a.15.15 0 0 0 .09 0 8.26 8.26 0 0 0 1.88-1.31 12.82 12.82 0 0 0 0-3.87m-.12.21a14 14 0 0 1 0 3.56A7.47 7.47 0 0 1 30.7 30c-.05 0-.12-.07-.16-.14l-.24-.21a.3.3 0 0 0-.19-.07c-.21 0-.28.21-.35.37s-.09.24-.16.26h-.07a17.06 17.06 0 0 1-2.09-.44.76.76 0 0 0-.21-.05 13.77 13.77 0 0 1-.68-2.06c-.21-.73-.4-1.41-.56-1.81h.44a33.28 33.28 0 0 0 6.1-.68"/></g><g clip-path="url(#clip-path-22)"><path d="M26.25 27.3c-.12-1.3 5.75-1.68 6.45-1.57 0-.3-.05-.49-.05-.84a24.36 24.36 0 0 1-6.92.8 11.07 11.07 0 0 1 .52 1.61" fill="#eadcbe"/></g><g clip-path="url(#clip-path-23)"><path class="cls-43" d="M29.16 26.35c.11.28.23.54.33.82l.28.84.25.85.26.84-.4.12-.18-.82-.21-.87-.22-.84c-.09-.28-.16-.57-.25-.82z"/></g><g clip-path="url(#clip-path-24)"><path class="cls-14" d="M9.42 6.5c3.1.8 2.6 6.14 4.43 6.56s4.27-4.4 4.5-5.46c-3.56-1.52-5.22-3.31-7.78-2.79-.84.16-2 1.45-1.15 1.69" opacity=".4"/></g><g class="cls-17" clip-path="url(#clip-path-25)"><path class="cls-13" d="M18 22.14c3.89.31 7.1.47 8.25-.73s1.57-6.49 3.45-6.35c1.59.12 2.13 7 3.16 7.2s8.33 2.2 10.16.33 2.65-3.05 2.22-4.18-11.09-4.76-13.27-5-16.9 1.67-17.28 2.59-.77.8-.7 1.78c.14 1.9.12 4.06 4 4.36"/></g><path class="cls-38" d="M28.91 14.3c.28 0 1.38-.09 1.64.12 1.41 1.1 1.36 5.63 2.84 7 1.31 1.27 8.49 2.18 9.73.75s3.07-5.79 3.49-6.12 1.36-.54 1.64-1 0-2.35-.61-2.25a7.78 7.78 0 0 1-2.67.28c-.77-.23-4.55-2.6-14-1.17a6.24 6.24 0 0 1-2.47-.17c-.63-.16-4.19-2.22-13.74-.86a18.84 18.84 0 0 1-2.76-.19c-.46.05-.61 1.53-.42 1.9s1.17.7 1.29 1.17 1 5.07 3.24 7 8.49.61 9 .23c2.42-1.71 3-6.66 3.78-6.66"/><g clip-path="url(#clip-path-26)"><path d="M20.69 10.49a40.29 40.29 0 0 0-6 .46 2 2 0 0 1-.43 0c-.82 0-1.78-.26-2.22-.26H12c-.47 0-.61 1.52-.43 1.9s1.18.7 1.29 1.17 1 5.07 3.24 7a6.46 6.46 0 0 0 4 1 14.28 14.28 0 0 0 5-.82c2.44-1.74 3-6.68 3.82-6.68h.7a2.33 2.33 0 0 1 .92.12c1.4 1.1 1.36 5.63 2.83 7 .85.79 4.08 1.47 6.62 1.47 1.43 0 2.64-.21 3.09-.72 1.24-1.43 3.07-5.8 3.49-6.12s1.36-.54 1.64-1 0-2.25-.58-2.25h-.05a15.23 15.23 0 0 1-2.13.33 1.86 1.86 0 0 1-.54-.07 18.7 18.7 0 0 0-8.37-1.62 37.83 37.83 0 0 0-5.68.45 5 5 0 0 1-.77 0 6.52 6.52 0 0 1-1.66-.21 21.33 21.33 0 0 0-7.74-1.26m0 .46a18.09 18.09 0 0 1 7.22 1.18 2.42 2.42 0 0 0 .4.14 8.22 8.22 0 0 0 1.78.23 4.53 4.53 0 0 0 .84-.07 37.86 37.86 0 0 1 5.61-.32 17.92 17.92 0 0 1 7.78 1.43l.47.18a2.07 2.07 0 0 0 .68.1 8.52 8.52 0 0 0 1.53-.22 5.63 5.63 0 0 1 .59-.12 2.51 2.51 0 0 1 .23 1.55 2.17 2.17 0 0 1-.77.44 3.53 3.53 0 0 0-.73.38 7.54 7.54 0 0 0-1.27 2.18 23.7 23.7 0 0 1-2.29 4c-.24.29-1.08.57-2.77.57-2.46 0-5.61-.66-6.31-1.34s-1-2-1.31-3.42c-.38-1.55-.73-3-1.55-3.66a2 2 0 0 0-1.19-.23h-.73c-.66 0-.94.77-1.43 2.18s-1.31 3.63-2.65 4.59a14.51 14.51 0 0 1-4.74.75 6 6 0 0 1-3.73-.94c-.89-.75-2.13-2.5-3-6.51a2 2 0 0 1 0-.22c-.11-.44-.54-.7-.89-.93a2.93 2.93 0 0 1-.42-.33 2.36 2.36 0 0 1 .14-1.24 4.05 4.05 0 0 1 .66.09 10.13 10.13 0 0 0 1.52.16 1.91 1.91 0 0 0 .49 0 48.63 48.63 0 0 1 5.84-.44" fill="#1a1a1a"/></g><g class="cls-17" clip-path="url(#clip-path-27)"><path class="cls-53" d="M15.47 13.85c-.21.28-.35 4.43 1.41 5.55 1.15.75 6 .59 7 .05 1.53-.87 3-4.81 2.6-5.37-.7-.94-5.76-2.18-9.56-1.2a3.14 3.14 0 0 0-1.45.97z"/></g><path class="cls-2" d="M15.47 13.83c-.21.28-.35 4.43 1.41 5.56 1.15.75 6 .59 7 .05 1.53-.87 3-4.81 2.6-5.37-.7-.94-5.76-2.18-9.56-1.2a3.37 3.37 0 0 0-1.46 1"/><g class="cls-17" clip-path="url(#clip-path-28)"><path class="cls-53" d="M44.12 15.65c.19.31-.23 4.43-2.11 5.35-1.24.59-6-.21-6.94-.87-1.4-1.05-2.39-5.16-1.89-5.67.82-.85 6-1.41 9.63 0a3.34 3.34 0 0 1 1.31 1.19z"/></g><path class="cls-2" d="M44.13 15.66c.18.31-.24 4.43-2.11 5.35-1.25.58-6.05-.21-6.94-.87-1.41-1.05-2.4-5.16-1.9-5.67.82-.85 6-1.41 9.63 0a3.34 3.34 0 0 1 1.32 1.15"/><path d="M21 16.37c-.12.91-.58 1.59-1 1.52s-.68-.84-.56-1.76.58-1.59 1-1.52.68.84.56 1.76M39.72 17.4c.09.91-.19 1.69-.61 1.73s-.87-.65-1-1.57.18-1.69.61-1.73.84.68 1 1.57"/><g class="cls-6" clip-path="url(#clip-path-29)"><path class="cls-38" d="M12 12c.54.35 1 .14 1.15.84s1.74 6.8 3.75 7.51a12.9 12.9 0 0 0 8-.33c.57-.35 3.22-6.29 3.66-6.52a4.19 4.19 0 0 1 2.16.16c.91.4 2.6 6.83 3 7.16 2 1.43 8.58 1.31 8.88.93s2.77-6 3.22-6.33c.63-.49 2.11-.82 2.15-.61s-1.19.43-1.57.87-2.73 5.88-3.5 6.32-6.49 1.24-9.4-.8c-1.38-1-1.92-6.82-3-7.15a3 3 0 0 0-1.78-.05c-.68.45-1.65 5.42-3.69 6.66-.82.49-7.17 1.74-9.07-.26-3.54-3.7-2.46-7-3.61-7.48-.77-.32-.94-.75-.94-1s.33-.07.61.12"/></g><g class="cls-6" clip-path="url(#clip-path-30)"><path class="cls-38" d="M12.09 10.8a8.39 8.39 0 0 0 2.32.63 12.58 12.58 0 0 0 2.34-.68c.35-.12-1.83.28-2.37.26s-2.08-.14-2.29-.21"/></g><g class="cls-6" clip-path="url(#clip-path-31)"><path class="cls-38" d="M27.29 11.9c.68.3 1 1.08 1.64 1.15a3.79 3.79 0 0 0 1.83 0 10.85 10.85 0 0 1 1.57-.75 20.86 20.86 0 0 1-2.9.24 17.53 17.53 0 0 1-2.14-.61"/></g><g class="cls-6" clip-path="url(#clip-path-32)"><path class="cls-38" d="M43.93 12.8c-.28-.12 1 .93 1.43.89a8.67 8.67 0 0 0 1.41-.61 12 12 0 0 1-1.29.16 8.2 8.2 0 0 1-1.55-.44"/></g><g class="cls-6" clip-path="url(#clip-path-33)"><path class="cls-38" d="M14.74 13.23c1.73-1.71 5.86-1.13 6.61-1-5 .36-5 .73-5.91 1.6a10.36 10.36 0 0 0 .49 4.9c-.87-.47-1.78-4.92-1.19-5.51"/></g><g class="cls-6" clip-path="url(#clip-path-34)"><path class="cls-38" d="M45.08 15.08c-1.5-1.93-5.65-1.9-6.43-1.83 4.86 1 4.9 1.38 5.65 2.36a10.14 10.14 0 0 1-1.1 4.79c.89-.38 2.37-4.69 1.88-5.32"/></g><g clip-path="url(#clip-path-35)"><path class="cls-62" d="M15.52 16.69c.17-2 .36-3.66 4.37-3.78 3.21-.09 5.76.66 6.11 1.43.24.5.05 2.65-1.54 4.62 1-.91 2.67-4.55 2-5-2.61-1.67-7.79-1.71-9.71-1a3.61 3.61 0 0 0-1.29.93 11.17 11.17 0 0 0 .09 2.82"/></g><g clip-path="url(#clip-path-36)"><path class="cls-62" d="M15.63 16.83c.61 3.94 7.81 2.75 8.23 2.58 0 .21-3.77 1.27-6.91.05-1.27-.47-1.36-3.07-1.32-2.63"/></g><g clip-path="url(#clip-path-37)"><path class="cls-62" d="M43.79 18.45c.09-2 .09-3.66-3.85-4.27-3.16-.49-5.79-.07-6.26.66-.28.44-.37 2.62 1 4.78-.92-1.05-2.11-4.83-1.34-5.2 2.79-1.34 8-.75 9.75.16a3.42 3.42 0 0 1 1.18 1.1 12.19 12.19 0 0 1-.47 2.77"/></g><g clip-path="url(#clip-path-38)"><path class="cls-62" d="M43.65 18.57c-1.08 3.82-8.09 1.76-8.48 1.55 0 .21 3.58 1.71 6.87.91 1.31-.32 1.75-2.9 1.61-2.46"/></g><g class="cls-20" clip-path="url(#clip-path-39)"><path class="cls-2" d="M20.91 15.19a.24.24 0 0 0-.24-.23.22.22 0 0 0-.23.23.22.22 0 0 0 .23.24.23.23 0 0 0 .24-.24"/></g><g class="cls-20" clip-path="url(#clip-path-40)"><path class="cls-2" d="M39.43 16.3a.24.24 0 1 0-.47 0 .22.22 0 0 0 .24.23.26.26 0 0 0 .23-.23"/></g><g class="cls-69" clip-path="url(#clip-path-41)"><path class="cls-62" d="M12.15 11.79a1.56 1.56 0 0 0 1.67.61c7.29-.94 11.32-.92 13.31.94.43.39.19-1.2-.61-1.41a23.25 23.25 0 0 0-11.53 0 17.62 17.62 0 0 1-2.84-.09"/></g><g class="cls-69" clip-path="url(#clip-path-42)"><path class="cls-62" d="M32.31 12.73c-.16.16-.09 1.85.71 1.21 2.3-1.82 7.1-1.4 10.46-.28-.54-1.05-4.46-1.78-6.66-1.76-1.06 0-4.06.36-4.51.83"/></g><path class="cls-62" d="M46.19 14.07c0 .07-.38.12-.82.12s-.82 0-.82-.12.37-.12.82-.12a1.64 1.64 0 0 1 .82.12M14.58 12.05c0 .07-.37.07-.82 0s-.79-.19-.77-.26.37-.07.82 0 .8.17.77.26"/><path class="cls-2" d="M60 49.62a2.15 2.15 0 0 0-2.16-2.06 2.11 2.11 0 0 0-.94.19l-.19.09-.16.12a4.58 4.58 0 0 1-1 .54 4.83 4.83 0 0 1 .05-1c.26-2.5-.26-4-1.57-4.36a2.19 2.19 0 0 0-.68-.09 3.4 3.4 0 0 0-2 .7 2.21 2.21 0 0 0-1.77-.75 2.55 2.55 0 0 0-2.51 1.46 1.56 1.56 0 0 0-.14.42 3.67 3.67 0 0 0-3.47-2.14 5.49 5.49 0 0 0-2.94.85l-.07.05a8.8 8.8 0 0 0-2.79 3.21 5.08 5.08 0 0 0-2.27-2.93h-.1c1.25-2.18 2.32-5.09 1.67-7.86-.71-3-2.44-3.37-3.4-3.37a3.94 3.94 0 0 0-1.24.21 6.16 6.16 0 0 0-2.82 2.06 18.64 18.64 0 0 0-2.67 7.78c-.05.5-.12 1-.16 1.53a2.63 2.63 0 0 0-1.48-1 2.4 2.4 0 0 0-.7-.09 3.48 3.48 0 0 0-2.28 1 2.09 2.09 0 0 0-1.66-.94h-.17a3.89 3.89 0 0 0-2.55 1 2.3 2.3 0 0 0-2-1.15h-.35a2.56 2.56 0 0 0-2.51 1.5 2.34 2.34 0 0 0-.09.28A4.47 4.47 0 0 0 9 43.1h-.13c-1 0-3.49.45-5 3.9a11.62 11.62 0 0 0-.56 1.59 2 2 0 0 0-.87-.19 2 2 0 0 0-1.69.89 3.55 3.55 0 0 0-.65 2.79 2.18 2.18 0 0 0 1.32 1.41c.58.23 1.31.45 1.85.61a6.23 6.23 0 0 0 2 2.46 4.58 4.58 0 0 0 2.87.87 10.32 10.32 0 0 0 4-.92h.07a2.76 2.76 0 0 0 1.46.78 3.29 3.29 0 0 0 .7.07 2.88 2.88 0 0 0 2.44-1.53 3.08 3.08 0 0 0 2.72 1.34h.21a2.28 2.28 0 0 0 2-1.27 3 3 0 0 0 2.69 1.53 4.91 4.91 0 0 0 2.11-.52h.05c.35-.19.63-.36.87-.47a7.12 7.12 0 0 0 3.4.86 4.71 4.71 0 0 0 .75 0h.14A27.77 27.77 0 0 0 38 55.32a5.83 5.83 0 0 0 4 2h.63a8.06 8.06 0 0 0 3.71-.91 3.13 3.13 0 0 0 1.12.77 2.23 2.23 0 0 0 .87.16c1.9 0 2.79-2.25 3-3l.45-1.22a3.46 3.46 0 0 0 1.57 1 4.23 4.23 0 0 0 1.13.17A8 8 0 0 0 59 52.48a3.6 3.6 0 0 0 1-2.86"/><path d="M40.83 50.25a4 4 0 0 1 .73-2.72c1-1.78 1.73-.82 1.73-.82a1.76 1.76 0 0 1-.11 2.29 2.84 2.84 0 0 1-2.35 1.27m-7.52 1.29a2.81 2.81 0 0 1-3.85 1.73s-.3-1.05.59-4S33 47.51 33 47.51s1.43 1.1.31 4m-2-12.31S33 34.8 33.38 37s-3.57 8.56-3.57 8.56a49.08 49.08 0 0 1 1.46-6.28M7 50.25c.07-2.84 1.92-4.08 2.58-3.47s.42 2-.82 2.79-1.76.68-1.76.68m51.42-.47a.66.66 0 0 0-1-.61 4.52 4.52 0 0 1-2.61 1C53.63 50 54 47.29 54 47.29s.26-2.5-.44-2.72-1.6.66-1.6.66A8.93 8.93 0 0 0 50.37 48h-.14a19.72 19.72 0 0 0 0-3.35c-.14-.3-1.45-.28-1.66.26a32.29 32.29 0 0 0-1.34 6 10.35 10.35 0 0 1-3.85 2c-1.8.28-2.22-.85-2.22-.85s4.87-1.36 4.71-5.25-3.94-2.46-4.36-2.13A7.59 7.59 0 0 0 38.23 50c0 .11-.07.68-.07.68a17.4 17.4 0 0 1-2.93 1.59s2.93-5-.66-7.2c-1.62-1-2.93 1.08-2.93 1.08s4.85-5.39 3.78-10c-.52-2.18-1.6-2.42-2.61-2.07a4.53 4.53 0 0 0-2.08 1.48 16.56 16.56 0 0 0-2.42 7.08c-.44 4.25-1.12 9.33-1.12 9.33a3.6 3.6 0 0 1-1.79 1c-.86 0-.46-2.56-.46-2.56s.65-4 .6-4.64-.09-1-.89-1.27-1.64.77-1.64.77-2.27 3.45-2.46 4l-.12.21-.11-.14s1.59-4.69.07-4.76-2.54 1.66-2.54 1.66-1.73 2.93-1.8 3.26l-.12-.14a23.57 23.57 0 0 0 .59-4.24.75.75 0 0 0-.94-.66s-1-.12-1.27.54A48.48 48.48 0 0 0 13 51.3s-2.51 1.81-4.15 1.81-1.48-1.06-1.48-1.06 6.03-2.05 4.39-6.16a3 3 0 0 0-2.82-1.36c-1.21 0-2.64.77-3.63 2.95a7.09 7.09 0 0 0-.66 2.79A2.52 2.52 0 0 1 2.94 50c-.58-.45-.94 0-.94 0s-1 1.43 0 1.81 2.49.75 2.49.75a4.36 4.36 0 0 0 1.74 2.54c1.78 1.36 5.22-.21 5.22-.21l1.41-.84s.05 1.26 1.08 1.45 1.45 0 3.26-4.36c1.05-2.23 1.12-2.14 1.12-2.14h.12s-.82 4.24-.49 5.39a1.59 1.59 0 0 0 1.66 1s.75.26 1.34-1.85a29 29 0 0 1 1.73-4.32h.15s-.5 4.25.25 5.63 2.75.42 2.75.42a14.84 14.84 0 0 0 1.59-.93 5.63 5.63 0 0 0 4 1.12c5.18-1 7-2.41 7-2.41a4.28 4.28 0 0 0 3.65 2.46A6.06 6.06 0 0 0 47 53.79a1.9 1.9 0 0 0 1 1.73c1.1.45 1.85-1.94 1.85-1.94l1.85-4.95h.17s.09 3.17 1.92 3.68S58 51 58 51s.51-.26.4-1.22" fill="#e24b31"/></g></g></svg>