<svg xmlns="http://www.w3.org/2000/svg" viewBox="0 0 500 500"><defs><linearGradient id="a" x1="124.44" y1="317.19" x2="370.44" y2="726.62" gradientTransform="matrix(1 0 0 -1 0 783.36)" gradientUnits="userSpaceOnUse"><stop offset="0" stop-color="#a4c639"/><stop offset="1" stop-color="#d0db3a"/></linearGradient></defs><g data-name="Layer 2"><g data-name="Layer 1"><path fill="none" d="M0 0h500v500H0z"/><path d="M122 5.2l32.45 56.21M378 5.2l-32.43 56.21" stroke="#a4c639" stroke-linecap="round" stroke-linejoin="round" stroke-width="3" fill="none"/><path d="M389.66 142.66c.1 1.16.14 2.35.14 3.54v199.92c0 21.5-17 38.83-38.15 38.83h-1.51V464a30.76 30.76 0 1 1-61.52 0v-79h-77.25v79a30.76 30.76 0 0 1-61.51 0v-79h-1.51c-21.13 0-38.15-17.32-38.15-38.83V146.2c0-1.19.09-2.37.2-3.54h279.26zm-328.89 17.8A30.75 30.75 0 0 0 30 191.19v132a30.76 30.76 0 0 0 61.52 0v-132a30.75 30.75 0 0 0-30.75-30.73zm378.46 0a30.76 30.76 0 0 0-30.75 30.76v132a30.76 30.76 0 1 0 61.52 0v-132a30.75 30.75 0 0 0-30.75-30.75zm-50.52-30.93H111.28c.86-61.41 54.46-111.77 123.26-118.4h30.91c68.81 6.64 122.41 56.99 123.26 118.4zm-180-55.12a15.92 15.92 0 0 0-31.84.08v.09a15.92 15.92 0 0 0 31.84-.09zm118.79 0a15.92 15.92 0 0 0-31.84.08v.09a15.92 15.92 0 0 0 31.84-.09z" fill="url(#a)"/></g></g></svg>