<svg xmlns="http://www.w3.org/2000/svg" viewBox="0 0 500 500"><defs><style>.cls-1{fill:#fff}</style></defs><g id="Layer_2" data-name="Layer 2"><g id="Layer_1-2" data-name="Layer 1"><path id="_4" data-name="4" class="cls-1" d="M0 0h500v500H0z"/><path d="M413.27 99.18a4.76 4.76 0 0 0-4.31-4c-1.8-.16-39.77-3-39.77-3l-29.26-29.05c-2.89-2.87-8.55-2-10.75-1.37l-14.75 4.56c-8.81-25.32-24.36-48.64-51.71-48.64-.75 0-1.53 0-2.31.07C252.63 7.47 243 3 234.68 3 171 3 140.53 82.64 131 123.12c-24.75 7.67-42.34 13.12-44.59 13.83-13.81 4.33-14.25 4.77-16.06 17.79C69 164.6 32.8 444.21 32.8 444.21L314.54 497l152.66-33s-53.59-362.3-53.93-364.79zm-114.42-28L275 78.52v-5.14c0-15.76-2.19-28.44-5.69-38.5 14.09 1.77 23.47 17.8 29.51 36.26zM251.86 38c3.91 9.81 6.46 23.9 6.46 42.91v2.77l-49.25 15.25c9.48-36.59 27.25-54.26 42.79-60.92zm-18.93-17.91a14.35 14.35 0 0 1 8.17 2.76c-20.42 9.6-42.31 33.8-51.55 82.13l-38.92 12c10.83-36.86 36.54-96.94 82.3-96.94z" fill="#95bf46"/><path d="M409 95.18c-1.8-.16-39.77-3-39.77-3S342.82 66 339.93 63.13a7.21 7.21 0 0 0-4.07-1.87L314.56 497l152.64-33s-53.59-362.3-53.93-364.79a4.76 4.76 0 0 0-4.31-4" fill="#5e8e3e"/><path class="cls-1" d="M262.72 179.52l-18.82 56s-16.49-8.81-36.71-8.81c-29.64 0-31.13 18.6-31.13 23.29 0 25.57 66.66 35.37 66.66 95.27 0 47.13-29.89 77.47-70.19 77.47-48.36 0-73.09-30.1-73.09-30.1l12.94-42.78s25.43 21.82 46.88 21.82c14 0 19.72-11 19.72-19.1 0-33.35-54.69-34.84-54.69-89.65 0-46.14 33.11-90.78 100-90.78 25.76 0 38.48 7.37 38.48 7.37"/></g></g></svg>