<svg data-name="Layer 1" xmlns="http://www.w3.org/2000/svg" viewBox="0 0 60 54.25"><path d="M30 0C13.85 0 1.2 22.29 0 41.12c5.07 9.55 17.29 13.13 30 13.13s24.93-3.58 30-13.13C58.8 22.29 46.15 0 30 0" fill="#b6deff"/><path d="M55.78 36.64s-3.57-8.37-7.19-13.25-8.06-10.2-10.68-10.2S28 27.25 24.61 27.25s-5.1-6.38-9.23-6.38S4.69 36.24 4.69 36.24l-.45 2.61s2.28 11 26.13 11S56.13 39 56.13 39l-.35-2.39" fill="#6c6"/><path d="M25 33.25c-3.71 0-5.61-4-6.64-6.41-.92-2.21-1.08-5.69-3.71-5.79a2 2 0 0 1 .74-.18c4.13 0 5.87 6.38 9.23 6.38s10.68-14.06 13.3-14.06a3.57 3.57 0 0 1 1.65.52 1.6 1.6 0 0 0-1.46.46c-.84.92-8.53 19.08-13.11 19.08" fill="#17ad49"/></svg>