<svg xmlns="http://www.w3.org/2000/svg" xmlns:xlink="http://www.w3.org/1999/xlink" viewBox="0 0 57.03 58.97"><defs><linearGradient id="a" x1="26.96" y1="-127.67" x2="14.78" y2="-139.84" gradientTransform="matrix(1 0 0 -1 0 -115.73)" gradientUnits="userSpaceOnUse"><stop offset=".18" stop-color="#0052cc"/><stop offset="1" stop-color="#2684ff"/></linearGradient><linearGradient id="b" x1="30.18" y1="-162.64" x2="42.33" y2="-150.49" xlink:href="#a"/></defs><g data-name="Layer 2"><g data-name="Layer 1"><path d="M56.35 27.83L31 2.46 28.52 0 9.42 19.1.68 27.83a2.34 2.34 0 0 0 0 3.3l17.45 17.45L28.52 59l19.1-19.1.29-.3 8.44-8.44a2.34 2.34 0 0 0 0-3.33zM28.52 38.2l-8.72-8.72 8.72-8.71 8.71 8.71z" fill="#2684ff"/><path d="M28.52 20.77a14.68 14.68 0 0 1-.07-20.7L9.38 19.14l10.38 10.38z" fill="url(#a)"/><path d="M37.26 29.46l-8.74 8.74a14.68 14.68 0 0 1 0 20.76l19.12-19.12z" fill="url(#b)"/></g></g></svg>