<svg xmlns="http://www.w3.org/2000/svg" viewBox="0 0 60 59.86"><g data-name="Layer 2"><path d="M57.88 34.92l-.06.32-.1-.6c.06.09.1.19.16.28a28.38 28.38 0 0 0 .47-5.13 28.09 28.09 0 0 0-2.23-11A28.28 28.28 0 0 0 30 1.46a29.16 29.16 0 0 0-5.37.5 2.64 2.64 0 0 1 .29.15L24.34 2l.3-.06A16.76 16.76 0 0 0 2.11 24.91c0-.11 0-.21.05-.31l.1.59-.15-.28A28.25 28.25 0 0 0 10 49.82a28.29 28.29 0 0 0 20 8.3 28.41 28.41 0 0 0 5-.44l-.29-.16.6.11H35a16.77 16.77 0 0 0 22.9-22.76zM30.13 47.14c-10.07 0-14.57-5-14.57-8.66a3.17 3.17 0 0 1 3.34-3.23c4.31 0 3.19 6.18 11.23 6.18 4.11 0 6.39-2.23 6.39-4.52 0-1.37-.68-2.9-3.39-3.56l-9-2.24c-7.13-1.81-8.47-5.71-8.47-9.37 0-7.61 7.16-10.46 13.89-10.46 6.19 0 13.5 3.42 13.5 8 0 1.95-1.7 3.09-3.63 3.09-3.68 0-3-5.09-10.41-5.09-3.67 0-5.71 1.66-5.71 4s2.91 3.14 5.43 3.71l6.62 1.48c7.26 1.61 9.1 5.85 9.1 9.84 0 6.21-4.74 10.83-14.32 10.83zm4.56 10.38l.29.16h.31zm23.13-22.28l.06-.32c-.06-.09-.1-.19-.16-.28zM2.16 24.6c0 .1 0 .2-.05.31l.15.28zM24.93 2.12a2.64 2.64 0 0 0-.29-.12l-.3.06z" fill="#00aff0" data-name="Layer 1"/></g></svg>