<svg xmlns="http://www.w3.org/2000/svg" viewBox="0 0 60 60"><g data-name="Layer 2"><g data-name="Layer 1"><path d="M38.91 3.69A5.35 5.35 0 0 0 28.74 7l13.82 42.52a5.35 5.35 0 0 0 10.17-3.3c0-.11-13.82-42.53-13.82-42.53" fill="#dfa22f"/><path d="M17.5 10.65A5.35 5.35 0 0 0 7.33 14l13.82 42.48a5.35 5.35 0 0 0 10.16-3.31L17.5 10.65" fill="#3cb187"/><path d="M56.31 38.91A5.35 5.35 0 0 0 53 28.74L10.48 42.56a5.36 5.36 0 0 0-3.31 6.51 5.3 5.3 0 0 0 6.61 3.66l42.53-13.82" fill="#ce1e5b"/><path d="M19.34 50.92l10.17-3.3c-.9-2.77-2.06-6.34-3.31-10.17L16 40.76l3.3 10.16" fill="#392538"/><path d="M40.76 44l10.16-3.3-3.3-10.17-10.17 3.27L40.76 44" fill="#bb242a"/><path d="M49.35 17.5A5.35 5.35 0 0 0 46 7.33L3.52 21.15a5.35 5.35 0 0 0 3.31 10.16L49.35 17.5" fill="#72c5cd"/><path d="M12.38 29.51l10.17-3.31-3.3-10.2-10.17 3.34 3.3 10.17" fill="#248c73"/><path d="M33.8 22.55l10.2-3.3-3.34-10.17-10.17 3.3 3.31 10.17" fill="#62803a"/></g></g></svg>