<svg data-name="Layer 1" xmlns="http://www.w3.org/2000/svg" viewBox="0 0 60 60"><defs><radialGradient id="a" cx="-1001.53" cy="-1028.76" r=".08" gradientTransform="matrix(545.67 0 0 541.87 546526.95 557476.14)" gradientUnits="userSpaceOnUse"><stop offset="0" stop-color="#423325" stop-opacity=".98"/><stop offset="1" stop-color="#1c0a00"/></radialGradient></defs><path d="M2.5 2.56h55v54.88h-55z" fill="url(#a)"/><path d="M2.5 2.56h55v54.88h-55zM0 60h60V0H0zm39.3-38.61c0-.21.07-.31.3-.31h3.93c.2 0 .3.08.3.31v20.24c0 .21 0 .3-.3.3h-3.88c-.25 0-.33-.12-.33-.33V21.39zm-.3-5.83a2.55 2.55 0 1 1 5.1 0 2.42 2.42 0 0 1-2.6 2.62 2.38 2.38 0 0 1-2.5-2.62zM27.78 29.82c-.7-2.85-2.36-9-3-12h-.05c-.53 3-1.85 8.07-2.9 12.05zm-7 4.15l-2 7.69c-.05.21-.12.26-.37.26h-3.6c-.25 0-.3-.07-.25-.38l7.1-25.48a8.35 8.35 0 0 0 .25-2.14c0-.18.08-.25.21-.25h5.25c.18 0 .25.05.3.25l7.95 27.67c.05.21 0 .33-.2.33h-4.15c-.2 0-.32-.05-.37-.23l-2-7.72z" fill="#ff7f18"/></svg>