<svg data-name="Layer 1" xmlns="http://www.w3.org/2000/svg" viewBox="0 0 61.53 60"><defs><radialGradient id="a" cx="-1000.42" cy="-1027.97" r=".08" gradientTransform="matrix(545.67 0 0 528.31 545924.85 543105.21)" gradientUnits="userSpaceOnUse"><stop offset="0" stop-color="#34364e" stop-opacity=".98"/><stop offset="1" stop-color="#0c0824"/></radialGradient></defs><path d="M2.56 2.56H59v54.88H2.56z" fill="url(#a)"/><path d="M2.56 2.56H59v54.88H2.56zM0 60h61.53V0H0zm41.49-35.38c-2 0-2.71 1-2.71 1.88s.46 1.56 3.18 3c4 2 5.28 3.82 5.28 6.56 0 4.11-3.13 6.31-7.36 6.31a11.16 11.16 0 0 1-5.26-1.09c-.18-.08-.21-.21-.21-.41v-3.82c0-.26.13-.33.31-.21a9.58 9.58 0 0 0 5.16 1.52c2 0 2.87-.85 2.87-2 0-.92-.59-1.74-3.18-3.08-3.64-1.74-5.16-3.5-5.16-6.46 0-3.31 2.59-6.06 7.08-6.06a11.83 11.83 0 0 1 4.59.72.55.55 0 0 1 .26.52v3.51c0 .21-.13.33-.38.26a8.79 8.79 0 0 0-4.47-1.15zm-22 3.05h2.07c3 0 5.82-1 5.82-5.13 0-3.26-2-4.9-5.44-4.9-1 0-2 0-2.47.08v9.9zm-4.62-13.61c0-.19.36-.31.57-.31 1.64-.08 4.08-.12 6.61-.12 7.1 0 9.87 3.89 9.87 8.86 0 6.51-4.72 9.31-10.51 9.31-1 0-1.31-.05-2-.05v9.84c0 .21-.08.31-.31.31h-3.92c-.21 0-.31-.08-.31-.31V14.06z" fill="#31c5f0"/></svg>