<svg xmlns="http://www.w3.org/2000/svg" viewBox="0 0 45 60"><defs><linearGradient id="a" x1="271.33" y1="130.35" x2="271.33" y2="130.03" gradientTransform="matrix(138.75 0 0 -185 -37624.54 24115.54)" gradientUnits="userSpaceOnUse"><stop offset="0" stop-color="#c063d5"/><stop offset="1" stop-color="#5a1aa9"/></linearGradient></defs><g data-name="Layer 2"><g data-name="Layer 1"><g data-name="principle icon"><path d="M2.58 58.38a4.05 4.05 0 0 0-1.77-7.7 3.59 3.59 0 0 0-.81.08V22.6A22.58 22.58 0 0 1 22.55 0h.2A22.2 22.2 0 0 1 45 22.74l-14.15-.28v-.4l14.15.28C44.76 34.65 34.66 44.8 22.65 44.8a7.1 7.1 0 0 1 0-14.19c4.23 0 8.1-3.9 8.2-8.55l14.15.28v.4l-14.15-.28a8 8 0 0 0-8.09-8.27h-.2a8.4 8.4 0 0 0-8.39 8.41v30.31a7.07 7.07 0 0 1-11.59 5.47z"/><path d="M2.58 58.38a4.05 4.05 0 0 0-1.77-7.7 3.59 3.59 0 0 0-.81.08V22.6A22.58 22.58 0 0 1 22.55 0h.2A22.2 22.2 0 0 1 45 22.74l-14.15-.28v-.4l14.15.28C44.76 34.65 34.66 44.8 22.65 44.8a7.1 7.1 0 0 1 0-14.19c4.23 0 8.1-3.9 8.2-8.55l14.15.28v.4l-14.15-.28a8 8 0 0 0-8.09-8.27h-.2a8.4 8.4 0 0 0-8.39 8.41v30.31a7.07 7.07 0 0 1-11.59 5.47z" fill="url(#a)"/><g><circle cx="22.7" cy="37.7" r="4.46"/><circle cx="22.7" cy="37.7" r="4.46" fill="#f7f7f7"/></g></g></g></g></svg>