<svg xmlns="http://www.w3.org/2000/svg" viewBox="0 0 60 54.3"><defs><style>.cls-2{fill:#eb6c00}.cls-3{fill:#fdad00}.cls-4{fill:#fdd231}</style></defs><g id="Layer_2" data-name="Layer 2"><g id="Layer_1-2" data-name="Layer 1"><path fill="#fdb300" d="M30 0L13.09 1.79 0 19.36 30 54.3l30-34.94L46.91 1.79 30 0z"/><path class="cls-2" d="M0 19.36L30 54.3 12.15 19.36H0zM47.85 19.36L30 54.3l30-34.94H47.85z"/><path class="cls-3" d="M12.15 19.36L30 54.3l17.85-34.94h-35.7z"/><path class="cls-4" d="M13.09 1.79l-.94 17.57L30 0 13.09 1.79zM47.85 19.36l-.94-17.57L30 0l17.85 19.36z"/><path class="cls-3" d="M47.85 19.36H60L46.91 1.79l.94 17.57zM0 19.36h12.15l.94-17.57L0 19.36z"/><path fill="#feeeb7" d="M30 0L12.15 19.36h35.7L30 0z"/></g></g></svg>