<svg id="Layer_1" data-name="Layer 1" xmlns="http://www.w3.org/2000/svg" viewBox="0 0 60 60"><defs><style>.cls-2{fill:#ff2bc2}</style></defs><path d="M2.5 2.56h55v54.88h-55z" fill="#2e001e"/><path class="cls-2" d="M0 0v60h60V0zm2.5 2.56h55v54.88h-55z"/><path class="cls-2" d="M43.58 25.21a3.38 3.38 0 0 0-1.46-.21c-3.15 0-5.25 2.49-5.25 6.61 0 4.72 2.16 6.62 5 6.62a4.71 4.71 0 0 0 1.72-.28V25.21zm-11.21 6.56c0-6 3.75-10.64 9.91-10.64a11.13 11.13 0 0 1 1.3.05v-6.67a.25.25 0 0 1 .25-.25h4c.2 0 .25.07.25.2V37.9a18 18 0 0 0 .13 2.51c0 .18 0 .21-.15.28a14.54 14.54 0 0 1-6.41 1.49c-5.42 0-9.3-3.44-9.3-10.41zm-8.52-4.15l7 13.92c.13.2 0 .41-.15.41h-4.35a.49.49 0 0 1-.52-.33q-2.4-5.09-4.9-10.54h-.05c-1.5 3.43-3.15 7.18-4.75 10.56a.47.47 0 0 1-.45.28h-4.16c-.25 0-.27-.2-.15-.36l6.86-13.51-6.63-13.43a.23.23 0 0 1 .18-.39h4.3c.25 0 .37 0 .45.28 1.57 3.41 3.17 6.77 4.67 10.21h.05c1.45-3.39 3.05-6.8 4.58-10.16.12-.2.2-.33.45-.33h4c.2 0 .28.15.15.39l-6.6 13z"/></svg>