<svg xmlns="http://www.w3.org/2000/svg" xmlns:xlink="http://www.w3.org/1999/xlink" width="998" height="29" viewBox="0 0 998 29">
  <defs>
    <clipPath id="clip-path">
      <rect width="998" height="29" fill="none"/>
    </clipPath>
  </defs>
  <g id="Design_eliment" data-name="Design eliment" opacity="0.3" clip-path="url(#clip-path)" style="mix-blend-mode: normal;isolation: isolate">
    <g transform="translate(-730 -155)">
      <circle id="Ellipse_25" data-name="Ellipse 25" cx="2" cy="2" r="2" transform="translate(723 160)" fill="#1985bf"/>
      <circle id="Ellipse_28" data-name="Ellipse 28" cx="2" cy="2" r="2" transform="translate(736 170)" fill="#1985bf"/>
    </g>
    <g transform="translate(-704 -155)">
      <circle id="Ellipse_25-2" data-name="Ellipse 25" cx="2" cy="2" r="2" transform="translate(723 160)" fill="#1985bf"/>
      <circle id="Ellipse_28-2" data-name="Ellipse 28" cx="2" cy="2" r="2" transform="translate(736 170)" fill="#1985bf"/>
    </g>
    <g transform="translate(-678 -155)">
      <circle id="Ellipse_25-3" data-name="Ellipse 25" cx="2" cy="2" r="2" transform="translate(723 160)" fill="#1985bf"/>
      <circle id="Ellipse_28-3" data-name="Ellipse 28" cx="2" cy="2" r="2" transform="translate(736 170)" fill="#1985bf"/>
    </g>
    <g transform="translate(-652 -155)">
      <circle id="Ellipse_25-4" data-name="Ellipse 25" cx="2" cy="2" r="2" transform="translate(723 160)" fill="#1985bf"/>
      <circle id="Ellipse_28-4" data-name="Ellipse 28" cx="2" cy="2" r="2" transform="translate(736 170)" fill="#1985bf"/>
    </g>
    <g transform="translate(-626 -155)">
      <circle id="Ellipse_25-5" data-name="Ellipse 25" cx="2" cy="2" r="2" transform="translate(723 160)" fill="#1985bf"/>
      <circle id="Ellipse_28-5" data-name="Ellipse 28" cx="2" cy="2" r="2" transform="translate(736 170)" fill="#1985bf"/>
    </g>
    <g transform="translate(-600 -155)">
      <circle id="Ellipse_25-6" data-name="Ellipse 25" cx="2" cy="2" r="2" transform="translate(723 160)" fill="#1985bf"/>
      <circle id="Ellipse_28-6" data-name="Ellipse 28" cx="2" cy="2" r="2" transform="translate(736 170)" fill="#1985bf"/>
    </g>
    <g transform="translate(-574 -155)">
      <circle id="Ellipse_25-7" data-name="Ellipse 25" cx="2" cy="2" r="2" transform="translate(723 160)" fill="#1985bf"/>
      <circle id="Ellipse_28-7" data-name="Ellipse 28" cx="2" cy="2" r="2" transform="translate(736 170)" fill="#1985bf"/>
    </g>
    <g transform="translate(-548 -155)">
      <circle id="Ellipse_25-8" data-name="Ellipse 25" cx="2" cy="2" r="2" transform="translate(723 160)" fill="#1985bf"/>
      <circle id="Ellipse_28-8" data-name="Ellipse 28" cx="2" cy="2" r="2" transform="translate(736 170)" fill="#1985bf"/>
    </g>
    <g transform="translate(-522 -155)">
      <circle id="Ellipse_25-9" data-name="Ellipse 25" cx="2" cy="2" r="2" transform="translate(723 160)" fill="#1985bf"/>
      <circle id="Ellipse_28-9" data-name="Ellipse 28" cx="2" cy="2" r="2" transform="translate(736 170)" fill="#1985bf"/>
    </g>
    <g transform="translate(-496 -155)">
      <circle id="Ellipse_25-10" data-name="Ellipse 25" cx="2" cy="2" r="2" transform="translate(723 160)" fill="#1985bf"/>
      <circle id="Ellipse_28-10" data-name="Ellipse 28" cx="2" cy="2" r="2" transform="translate(736 170)" fill="#1985bf"/>
    </g>
    <g transform="translate(-470 -155)">
      <circle id="Ellipse_25-11" data-name="Ellipse 25" cx="2" cy="2" r="2" transform="translate(723 160)" fill="#1985bf"/>
      <circle id="Ellipse_28-11" data-name="Ellipse 28" cx="2" cy="2" r="2" transform="translate(736 170)" fill="#1985bf"/>
    </g>
    <g transform="translate(-444 -155)">
      <circle id="Ellipse_25-12" data-name="Ellipse 25" cx="2" cy="2" r="2" transform="translate(723 160)" fill="#1985bf"/>
      <circle id="Ellipse_28-12" data-name="Ellipse 28" cx="2" cy="2" r="2" transform="translate(736 170)" fill="#1985bf"/>
    </g>
    <g transform="translate(-418 -155)">
      <circle id="Ellipse_25-13" data-name="Ellipse 25" cx="2" cy="2" r="2" transform="translate(723 160)" fill="#1985bf"/>
      <circle id="Ellipse_28-13" data-name="Ellipse 28" cx="2" cy="2" r="2" transform="translate(736 170)" fill="#1985bf"/>
    </g>
    <g transform="translate(-392 -155)">
      <circle id="Ellipse_25-14" data-name="Ellipse 25" cx="2" cy="2" r="2" transform="translate(723 160)" fill="#1985bf"/>
      <circle id="Ellipse_28-14" data-name="Ellipse 28" cx="2" cy="2" r="2" transform="translate(736 170)" fill="#1985bf"/>
    </g>
    <g transform="translate(-366 -155)">
      <circle id="Ellipse_25-15" data-name="Ellipse 25" cx="2" cy="2" r="2" transform="translate(723 160)" fill="#1985bf"/>
      <circle id="Ellipse_28-15" data-name="Ellipse 28" cx="2" cy="2" r="2" transform="translate(736 170)" fill="#1985bf"/>
    </g>
    <g transform="translate(-340 -155)">
      <circle id="Ellipse_25-16" data-name="Ellipse 25" cx="2" cy="2" r="2" transform="translate(723 160)" fill="#1985bf"/>
      <circle id="Ellipse_28-16" data-name="Ellipse 28" cx="2" cy="2" r="2" transform="translate(736 170)" fill="#1985bf"/>
    </g>
    <g transform="translate(-314 -155)">
      <circle id="Ellipse_25-17" data-name="Ellipse 25" cx="2" cy="2" r="2" transform="translate(723 160)" fill="#1985bf"/>
      <circle id="Ellipse_28-17" data-name="Ellipse 28" cx="2" cy="2" r="2" transform="translate(736 170)" fill="#1985bf"/>
    </g>
    <g transform="translate(-288 -155)">
      <circle id="Ellipse_25-18" data-name="Ellipse 25" cx="2" cy="2" r="2" transform="translate(723 160)" fill="#1985bf"/>
      <circle id="Ellipse_28-18" data-name="Ellipse 28" cx="2" cy="2" r="2" transform="translate(736 170)" fill="#1985bf"/>
    </g>
    <g transform="translate(-262 -155)">
      <circle id="Ellipse_25-19" data-name="Ellipse 25" cx="2" cy="2" r="2" transform="translate(723 160)" fill="#1985bf"/>
      <circle id="Ellipse_28-19" data-name="Ellipse 28" cx="2" cy="2" r="2" transform="translate(736 170)" fill="#1985bf"/>
    </g>
    <g transform="translate(-236 -155)">
      <circle id="Ellipse_25-20" data-name="Ellipse 25" cx="2" cy="2" r="2" transform="translate(723 160)" fill="#1985bf"/>
      <circle id="Ellipse_28-20" data-name="Ellipse 28" cx="2" cy="2" r="2" transform="translate(736 170)" fill="#1985bf"/>
    </g>
    <g transform="translate(-210 -155)">
      <circle id="Ellipse_25-21" data-name="Ellipse 25" cx="2" cy="2" r="2" transform="translate(723 160)" fill="#1985bf"/>
      <circle id="Ellipse_28-21" data-name="Ellipse 28" cx="2" cy="2" r="2" transform="translate(736 170)" fill="#1985bf"/>
    </g>
    <g transform="translate(-184 -155)">
      <circle id="Ellipse_25-22" data-name="Ellipse 25" cx="2" cy="2" r="2" transform="translate(723 160)" fill="#1985bf"/>
      <circle id="Ellipse_28-22" data-name="Ellipse 28" cx="2" cy="2" r="2" transform="translate(736 170)" fill="#1985bf"/>
    </g>
    <g transform="translate(-158 -155)">
      <circle id="Ellipse_25-23" data-name="Ellipse 25" cx="2" cy="2" r="2" transform="translate(723 160)" fill="#1985bf"/>
      <circle id="Ellipse_28-23" data-name="Ellipse 28" cx="2" cy="2" r="2" transform="translate(736 170)" fill="#1985bf"/>
    </g>
    <g transform="translate(-132 -155)">
      <circle id="Ellipse_25-24" data-name="Ellipse 25" cx="2" cy="2" r="2" transform="translate(723 160)" fill="#1985bf"/>
      <circle id="Ellipse_28-24" data-name="Ellipse 28" cx="2" cy="2" r="2" transform="translate(736 170)" fill="#1985bf"/>
    </g>
    <g transform="translate(-106 -155)">
      <circle id="Ellipse_25-25" data-name="Ellipse 25" cx="2" cy="2" r="2" transform="translate(723 160)" fill="#1985bf"/>
      <circle id="Ellipse_28-25" data-name="Ellipse 28" cx="2" cy="2" r="2" transform="translate(736 170)" fill="#1985bf"/>
    </g>
    <g transform="translate(-80 -155)">
      <circle id="Ellipse_25-26" data-name="Ellipse 25" cx="2" cy="2" r="2" transform="translate(723 160)" fill="#1985bf"/>
      <circle id="Ellipse_28-26" data-name="Ellipse 28" cx="2" cy="2" r="2" transform="translate(736 170)" fill="#1985bf"/>
    </g>
    <g transform="translate(-54 -155)">
      <circle id="Ellipse_25-27" data-name="Ellipse 25" cx="2" cy="2" r="2" transform="translate(723 160)" fill="#1985bf"/>
      <circle id="Ellipse_28-27" data-name="Ellipse 28" cx="2" cy="2" r="2" transform="translate(736 170)" fill="#1985bf"/>
    </g>
    <g transform="translate(-28 -155)">
      <circle id="Ellipse_25-28" data-name="Ellipse 25" cx="2" cy="2" r="2" transform="translate(723 160)" fill="#1985bf"/>
      <circle id="Ellipse_28-28" data-name="Ellipse 28" cx="2" cy="2" r="2" transform="translate(736 170)" fill="#1985bf"/>
    </g>
    <g transform="translate(-2 -155)">
      <circle id="Ellipse_25-29" data-name="Ellipse 25" cx="2" cy="2" r="2" transform="translate(723 160)" fill="#1985bf"/>
      <circle id="Ellipse_28-29" data-name="Ellipse 28" cx="2" cy="2" r="2" transform="translate(736 170)" fill="#1985bf"/>
    </g>
    <g transform="translate(24 -155)">
      <circle id="Ellipse_25-30" data-name="Ellipse 25" cx="2" cy="2" r="2" transform="translate(723 160)" fill="#1985bf"/>
      <circle id="Ellipse_28-30" data-name="Ellipse 28" cx="2" cy="2" r="2" transform="translate(736 170)" fill="#1985bf"/>
    </g>
    <g transform="translate(50 -155)">
      <circle id="Ellipse_25-31" data-name="Ellipse 25" cx="2" cy="2" r="2" transform="translate(723 160)" fill="#1985bf"/>
      <circle id="Ellipse_28-31" data-name="Ellipse 28" cx="2" cy="2" r="2" transform="translate(736 170)" fill="#1985bf"/>
    </g>
    <g transform="translate(76 -155)">
      <circle id="Ellipse_25-32" data-name="Ellipse 25" cx="2" cy="2" r="2" transform="translate(723 160)" fill="#1985bf"/>
      <circle id="Ellipse_28-32" data-name="Ellipse 28" cx="2" cy="2" r="2" transform="translate(736 170)" fill="#1985bf"/>
    </g>
    <g transform="translate(102 -155)">
      <circle id="Ellipse_25-33" data-name="Ellipse 25" cx="2" cy="2" r="2" transform="translate(723 160)" fill="#1985bf"/>
      <circle id="Ellipse_28-33" data-name="Ellipse 28" cx="2" cy="2" r="2" transform="translate(736 170)" fill="#1985bf"/>
    </g>
    <g transform="translate(128 -155)">
      <circle id="Ellipse_25-34" data-name="Ellipse 25" cx="2" cy="2" r="2" transform="translate(723 160)" fill="#1985bf"/>
      <circle id="Ellipse_28-34" data-name="Ellipse 28" cx="2" cy="2" r="2" transform="translate(736 170)" fill="#1985bf"/>
    </g>
    <g transform="translate(154 -155)">
      <circle id="Ellipse_25-35" data-name="Ellipse 25" cx="2" cy="2" r="2" transform="translate(723 160)" fill="#1985bf"/>
      <circle id="Ellipse_28-35" data-name="Ellipse 28" cx="2" cy="2" r="2" transform="translate(736 170)" fill="#1985bf"/>
    </g>
    <g transform="translate(180 -155)">
      <circle id="Ellipse_25-36" data-name="Ellipse 25" cx="2" cy="2" r="2" transform="translate(723 160)" fill="#1985bf"/>
      <circle id="Ellipse_28-36" data-name="Ellipse 28" cx="2" cy="2" r="2" transform="translate(736 170)" fill="#1985bf"/>
    </g>
    <g transform="translate(206 -155)">
      <circle id="Ellipse_25-37" data-name="Ellipse 25" cx="2" cy="2" r="2" transform="translate(723 160)" fill="#1985bf"/>
      <circle id="Ellipse_28-37" data-name="Ellipse 28" cx="2" cy="2" r="2" transform="translate(736 170)" fill="#1985bf"/>
    </g>
    <g transform="translate(232 -155)">
      <circle id="Ellipse_25-38" data-name="Ellipse 25" cx="2" cy="2" r="2" transform="translate(723 160)" fill="#1985bf"/>
      <circle id="Ellipse_28-38" data-name="Ellipse 28" cx="2" cy="2" r="2" transform="translate(736 170)" fill="#1985bf"/>
    </g>
    <g transform="translate(258 -155)">
      <circle id="Ellipse_25-39" data-name="Ellipse 25" cx="2" cy="2" r="2" transform="translate(723 160)" fill="#1985bf"/>
      <circle id="Ellipse_28-39" data-name="Ellipse 28" cx="2" cy="2" r="2" transform="translate(736 170)" fill="#1985bf"/>
    </g>
    <g transform="translate(-730 -135)">
      <circle id="Ellipse_25-40" data-name="Ellipse 25" cx="2" cy="2" r="2" transform="translate(723 160)" fill="#1985bf"/>
      <circle id="Ellipse_28-40" data-name="Ellipse 28" cx="2" cy="2" r="2" transform="translate(736 170)" fill="#1985bf"/>
    </g>
    <g transform="translate(-704 -135)">
      <circle id="Ellipse_25-41" data-name="Ellipse 25" cx="2" cy="2" r="2" transform="translate(723 160)" fill="#1985bf"/>
      <circle id="Ellipse_28-41" data-name="Ellipse 28" cx="2" cy="2" r="2" transform="translate(736 170)" fill="#1985bf"/>
    </g>
    <g transform="translate(-678 -135)">
      <circle id="Ellipse_25-42" data-name="Ellipse 25" cx="2" cy="2" r="2" transform="translate(723 160)" fill="#1985bf"/>
      <circle id="Ellipse_28-42" data-name="Ellipse 28" cx="2" cy="2" r="2" transform="translate(736 170)" fill="#1985bf"/>
    </g>
    <g transform="translate(-652 -135)">
      <circle id="Ellipse_25-43" data-name="Ellipse 25" cx="2" cy="2" r="2" transform="translate(723 160)" fill="#1985bf"/>
      <circle id="Ellipse_28-43" data-name="Ellipse 28" cx="2" cy="2" r="2" transform="translate(736 170)" fill="#1985bf"/>
    </g>
    <g transform="translate(-626 -135)">
      <circle id="Ellipse_25-44" data-name="Ellipse 25" cx="2" cy="2" r="2" transform="translate(723 160)" fill="#1985bf"/>
      <circle id="Ellipse_28-44" data-name="Ellipse 28" cx="2" cy="2" r="2" transform="translate(736 170)" fill="#1985bf"/>
    </g>
    <g transform="translate(-600 -135)">
      <circle id="Ellipse_25-45" data-name="Ellipse 25" cx="2" cy="2" r="2" transform="translate(723 160)" fill="#1985bf"/>
      <circle id="Ellipse_28-45" data-name="Ellipse 28" cx="2" cy="2" r="2" transform="translate(736 170)" fill="#1985bf"/>
    </g>
    <g transform="translate(-574 -135)">
      <circle id="Ellipse_25-46" data-name="Ellipse 25" cx="2" cy="2" r="2" transform="translate(723 160)" fill="#1985bf"/>
      <circle id="Ellipse_28-46" data-name="Ellipse 28" cx="2" cy="2" r="2" transform="translate(736 170)" fill="#1985bf"/>
    </g>
    <g transform="translate(-548 -135)">
      <circle id="Ellipse_25-47" data-name="Ellipse 25" cx="2" cy="2" r="2" transform="translate(723 160)" fill="#1985bf"/>
      <circle id="Ellipse_28-47" data-name="Ellipse 28" cx="2" cy="2" r="2" transform="translate(736 170)" fill="#1985bf"/>
    </g>
    <g transform="translate(-522 -135)">
      <circle id="Ellipse_25-48" data-name="Ellipse 25" cx="2" cy="2" r="2" transform="translate(723 160)" fill="#1985bf"/>
      <circle id="Ellipse_28-48" data-name="Ellipse 28" cx="2" cy="2" r="2" transform="translate(736 170)" fill="#1985bf"/>
    </g>
    <g transform="translate(-496 -135)">
      <circle id="Ellipse_25-49" data-name="Ellipse 25" cx="2" cy="2" r="2" transform="translate(723 160)" fill="#1985bf"/>
      <circle id="Ellipse_28-49" data-name="Ellipse 28" cx="2" cy="2" r="2" transform="translate(736 170)" fill="#1985bf"/>
    </g>
    <g transform="translate(-470 -135)">
      <circle id="Ellipse_25-50" data-name="Ellipse 25" cx="2" cy="2" r="2" transform="translate(723 160)" fill="#1985bf"/>
      <circle id="Ellipse_28-50" data-name="Ellipse 28" cx="2" cy="2" r="2" transform="translate(736 170)" fill="#1985bf"/>
    </g>
    <g transform="translate(-444 -135)">
      <circle id="Ellipse_25-51" data-name="Ellipse 25" cx="2" cy="2" r="2" transform="translate(723 160)" fill="#1985bf"/>
      <circle id="Ellipse_28-51" data-name="Ellipse 28" cx="2" cy="2" r="2" transform="translate(736 170)" fill="#1985bf"/>
    </g>
    <g transform="translate(-418 -135)">
      <circle id="Ellipse_25-52" data-name="Ellipse 25" cx="2" cy="2" r="2" transform="translate(723 160)" fill="#1985bf"/>
      <circle id="Ellipse_28-52" data-name="Ellipse 28" cx="2" cy="2" r="2" transform="translate(736 170)" fill="#1985bf"/>
    </g>
    <g transform="translate(-392 -135)">
      <circle id="Ellipse_25-53" data-name="Ellipse 25" cx="2" cy="2" r="2" transform="translate(723 160)" fill="#1985bf"/>
      <circle id="Ellipse_28-53" data-name="Ellipse 28" cx="2" cy="2" r="2" transform="translate(736 170)" fill="#1985bf"/>
    </g>
    <g transform="translate(-366 -135)">
      <circle id="Ellipse_25-54" data-name="Ellipse 25" cx="2" cy="2" r="2" transform="translate(723 160)" fill="#1985bf"/>
      <circle id="Ellipse_28-54" data-name="Ellipse 28" cx="2" cy="2" r="2" transform="translate(736 170)" fill="#1985bf"/>
    </g>
    <g transform="translate(-340 -135)">
      <circle id="Ellipse_25-55" data-name="Ellipse 25" cx="2" cy="2" r="2" transform="translate(723 160)" fill="#1985bf"/>
      <circle id="Ellipse_28-55" data-name="Ellipse 28" cx="2" cy="2" r="2" transform="translate(736 170)" fill="#1985bf"/>
    </g>
    <g transform="translate(-314 -135)">
      <circle id="Ellipse_25-56" data-name="Ellipse 25" cx="2" cy="2" r="2" transform="translate(723 160)" fill="#1985bf"/>
      <circle id="Ellipse_28-56" data-name="Ellipse 28" cx="2" cy="2" r="2" transform="translate(736 170)" fill="#1985bf"/>
    </g>
    <g transform="translate(-288 -135)">
      <circle id="Ellipse_25-57" data-name="Ellipse 25" cx="2" cy="2" r="2" transform="translate(723 160)" fill="#1985bf"/>
      <circle id="Ellipse_28-57" data-name="Ellipse 28" cx="2" cy="2" r="2" transform="translate(736 170)" fill="#1985bf"/>
    </g>
    <g transform="translate(-262 -135)">
      <circle id="Ellipse_25-58" data-name="Ellipse 25" cx="2" cy="2" r="2" transform="translate(723 160)" fill="#1985bf"/>
      <circle id="Ellipse_28-58" data-name="Ellipse 28" cx="2" cy="2" r="2" transform="translate(736 170)" fill="#1985bf"/>
    </g>
    <g transform="translate(-236 -135)">
      <circle id="Ellipse_25-59" data-name="Ellipse 25" cx="2" cy="2" r="2" transform="translate(723 160)" fill="#1985bf"/>
      <circle id="Ellipse_28-59" data-name="Ellipse 28" cx="2" cy="2" r="2" transform="translate(736 170)" fill="#1985bf"/>
    </g>
    <g transform="translate(-210 -135)">
      <circle id="Ellipse_25-60" data-name="Ellipse 25" cx="2" cy="2" r="2" transform="translate(723 160)" fill="#1985bf"/>
      <circle id="Ellipse_28-60" data-name="Ellipse 28" cx="2" cy="2" r="2" transform="translate(736 170)" fill="#1985bf"/>
    </g>
    <g transform="translate(-184 -135)">
      <circle id="Ellipse_25-61" data-name="Ellipse 25" cx="2" cy="2" r="2" transform="translate(723 160)" fill="#1985bf"/>
      <circle id="Ellipse_28-61" data-name="Ellipse 28" cx="2" cy="2" r="2" transform="translate(736 170)" fill="#1985bf"/>
    </g>
    <g transform="translate(-158 -135)">
      <circle id="Ellipse_25-62" data-name="Ellipse 25" cx="2" cy="2" r="2" transform="translate(723 160)" fill="#1985bf"/>
      <circle id="Ellipse_28-62" data-name="Ellipse 28" cx="2" cy="2" r="2" transform="translate(736 170)" fill="#1985bf"/>
    </g>
    <g transform="translate(-132 -135)">
      <circle id="Ellipse_25-63" data-name="Ellipse 25" cx="2" cy="2" r="2" transform="translate(723 160)" fill="#1985bf"/>
      <circle id="Ellipse_28-63" data-name="Ellipse 28" cx="2" cy="2" r="2" transform="translate(736 170)" fill="#1985bf"/>
    </g>
    <g transform="translate(-106 -135)">
      <circle id="Ellipse_25-64" data-name="Ellipse 25" cx="2" cy="2" r="2" transform="translate(723 160)" fill="#1985bf"/>
      <circle id="Ellipse_28-64" data-name="Ellipse 28" cx="2" cy="2" r="2" transform="translate(736 170)" fill="#1985bf"/>
    </g>
    <g transform="translate(-80 -135)">
      <circle id="Ellipse_25-65" data-name="Ellipse 25" cx="2" cy="2" r="2" transform="translate(723 160)" fill="#1985bf"/>
      <circle id="Ellipse_28-65" data-name="Ellipse 28" cx="2" cy="2" r="2" transform="translate(736 170)" fill="#1985bf"/>
    </g>
    <g transform="translate(-54 -135)">
      <circle id="Ellipse_25-66" data-name="Ellipse 25" cx="2" cy="2" r="2" transform="translate(723 160)" fill="#1985bf"/>
      <circle id="Ellipse_28-66" data-name="Ellipse 28" cx="2" cy="2" r="2" transform="translate(736 170)" fill="#1985bf"/>
    </g>
    <g transform="translate(-28 -135)">
      <circle id="Ellipse_25-67" data-name="Ellipse 25" cx="2" cy="2" r="2" transform="translate(723 160)" fill="#1985bf"/>
      <circle id="Ellipse_28-67" data-name="Ellipse 28" cx="2" cy="2" r="2" transform="translate(736 170)" fill="#1985bf"/>
    </g>
    <g transform="translate(-2 -135)">
      <circle id="Ellipse_25-68" data-name="Ellipse 25" cx="2" cy="2" r="2" transform="translate(723 160)" fill="#1985bf"/>
      <circle id="Ellipse_28-68" data-name="Ellipse 28" cx="2" cy="2" r="2" transform="translate(736 170)" fill="#1985bf"/>
    </g>
    <g transform="translate(24 -135)">
      <circle id="Ellipse_25-69" data-name="Ellipse 25" cx="2" cy="2" r="2" transform="translate(723 160)" fill="#1985bf"/>
      <circle id="Ellipse_28-69" data-name="Ellipse 28" cx="2" cy="2" r="2" transform="translate(736 170)" fill="#1985bf"/>
    </g>
    <g transform="translate(50 -135)">
      <circle id="Ellipse_25-70" data-name="Ellipse 25" cx="2" cy="2" r="2" transform="translate(723 160)" fill="#1985bf"/>
      <circle id="Ellipse_28-70" data-name="Ellipse 28" cx="2" cy="2" r="2" transform="translate(736 170)" fill="#1985bf"/>
    </g>
    <g transform="translate(76 -135)">
      <circle id="Ellipse_25-71" data-name="Ellipse 25" cx="2" cy="2" r="2" transform="translate(723 160)" fill="#1985bf"/>
      <circle id="Ellipse_28-71" data-name="Ellipse 28" cx="2" cy="2" r="2" transform="translate(736 170)" fill="#1985bf"/>
    </g>
    <g transform="translate(102 -135)">
      <circle id="Ellipse_25-72" data-name="Ellipse 25" cx="2" cy="2" r="2" transform="translate(723 160)" fill="#1985bf"/>
      <circle id="Ellipse_28-72" data-name="Ellipse 28" cx="2" cy="2" r="2" transform="translate(736 170)" fill="#1985bf"/>
    </g>
    <g transform="translate(128 -135)">
      <circle id="Ellipse_25-73" data-name="Ellipse 25" cx="2" cy="2" r="2" transform="translate(723 160)" fill="#1985bf"/>
      <circle id="Ellipse_28-73" data-name="Ellipse 28" cx="2" cy="2" r="2" transform="translate(736 170)" fill="#1985bf"/>
    </g>
    <g transform="translate(154 -135)">
      <circle id="Ellipse_25-74" data-name="Ellipse 25" cx="2" cy="2" r="2" transform="translate(723 160)" fill="#1985bf"/>
      <circle id="Ellipse_28-74" data-name="Ellipse 28" cx="2" cy="2" r="2" transform="translate(736 170)" fill="#1985bf"/>
    </g>
    <g transform="translate(180 -135)">
      <circle id="Ellipse_25-75" data-name="Ellipse 25" cx="2" cy="2" r="2" transform="translate(723 160)" fill="#1985bf"/>
      <circle id="Ellipse_28-75" data-name="Ellipse 28" cx="2" cy="2" r="2" transform="translate(736 170)" fill="#1985bf"/>
    </g>
    <g transform="translate(206 -135)">
      <circle id="Ellipse_25-76" data-name="Ellipse 25" cx="2" cy="2" r="2" transform="translate(723 160)" fill="#1985bf"/>
      <circle id="Ellipse_28-76" data-name="Ellipse 28" cx="2" cy="2" r="2" transform="translate(736 170)" fill="#1985bf"/>
    </g>
    <g transform="translate(232 -135)">
      <circle id="Ellipse_25-77" data-name="Ellipse 25" cx="2" cy="2" r="2" transform="translate(723 160)" fill="#1985bf"/>
      <circle id="Ellipse_28-77" data-name="Ellipse 28" cx="2" cy="2" r="2" transform="translate(736 170)" fill="#1985bf"/>
    </g>
    <g transform="translate(258 -135)">
      <circle id="Ellipse_25-78" data-name="Ellipse 25" cx="2" cy="2" r="2" transform="translate(723 160)" fill="#1985bf"/>
      <circle id="Ellipse_28-78" data-name="Ellipse 28" cx="2" cy="2" r="2" transform="translate(736 170)" fill="#1985bf"/>
    </g>
  </g>
</svg>
