<svg id="&#x421;&#x43B;&#x43E;&#x439;_1" enable-background="new 0 0 300 300" viewBox="0 0 300 300" xmlns="http://www.w3.org/2000/svg"><g fill="#333"><path d="m253.523 270.303c.466.466 1.076.7 1.687.7s1.221-.233 1.687-.7l10.952-10.952c.931-.931.931-2.441 0-3.373l-60.968-60.968c-.933-.933-2.441-.933-3.374 0l-10.952 10.952c-.931.931-.931 2.441 0 3.373zm1.687-5.061-57.595-57.594 7.579-7.578 57.595 57.594z"/><path d="m19.953 113.398c0 52.882 43.022 95.906 95.905 95.906 24.337 0 46.57-9.128 63.498-24.119l9.411 9.411-5.139 5.139c-2.114 2.114-3.278 4.924-3.278 7.916 0 2.99 1.165 5.8 3.278 7.914l63.666 63.665c2.115 2.115 4.926 3.278 7.915 3.278 2.99 0 5.801-1.163 7.916-3.278l13.651-13.651c4.363-4.364 4.363-11.465 0-15.829l-63.666-63.667c-2.115-2.115-4.926-3.278-7.915-3.278-2.99 0-5.801 1.163-7.916 3.278l-5.139 5.139-9.288-9.288c17.82-17.424 28.911-41.704 28.911-68.536 0-52.882-43.022-95.906-95.905-95.906s-95.905 43.024-95.905 95.906zm187.039 0c0 50.252-40.883 91.134-91.134 91.134s-91.134-40.882-91.134-91.134 40.883-91.134 91.134-91.134 91.134 40.882 91.134 91.134zm-13.166 82.884s.001-.001.002-.002l6.824-6.824c1.213-1.212 2.826-1.881 4.542-1.881 1.715 0 3.328.668 4.541 1.881l63.666 63.667c2.504 2.504 2.504 6.579 0 9.083l-13.651 13.651c-1.213 1.212-2.826 1.881-4.542 1.881-1.715 0-3.328-.668-4.541-1.881l-63.666-63.665c-1.213-1.214-1.881-2.827-1.881-4.542 0-1.716.668-3.329 1.881-4.543l6.823-6.823c.001-.001.002-.001.002-.002z"/><path d="m115.857 191.456c43.042 0 78.059-35.017 78.059-78.059s-35.017-78.06-78.059-78.06-78.059 35.018-78.059 78.06 35.018 78.059 78.059 78.059zm73.289-78.058c0 40.411-32.877 73.287-73.288 73.287s-73.288-32.876-73.288-73.287c0-40.412 32.877-73.288 73.288-73.288s73.288 32.876 73.288 73.288z"/><path d="m60.994 106.633 2.124 33.283c.005.085.046.156.06.238l.459 6.972c-.016 1.55.575 3.056 1.631 4.146 1.029 1.06 2.39 1.644 3.834 1.644h8.825c2.621 0 4.755-2.229 4.755-4.968v-5.675h68.908v5.675c0 2.739 2.133 4.968 4.756 4.968h7.545c1.444 0 2.805-.585 3.834-1.644 1.085-1.12 1.678-2.676 1.629-4.132l.208-7.095c0-.001 0-.002 0-.003l1.152-33.326c.213-2.127-.706-4.217-2.389-5.445l-3.217-2.374c-.313-.227-.543-.525-.689-.895-2.281-5.708-8.319-19.959-15.072-29.001-2.031-2.737-5.112-4.307-8.453-4.307h-50.072c-3.341 0-6.422 1.57-8.448 4.301-6.763 9.054-12.797 23.302-15.082 29.019-.141.359-.371.656-.694.891l-3.199 2.361c-1.692 1.233-2.611 3.322-2.405 5.367zm10.567-6.928c1.726-4.32 7.873-19.103 14.496-27.969 1.156-1.556 2.892-2.45 4.764-2.45h50.071c1.872 0 3.609.894 4.769 2.456 6.612 8.853 12.764 23.642 14.487 27.952.459 1.166 1.237 2.174 2.241 2.906l3.217 2.374c.377.274.587.779.526 1.434l-1.085 31.273h-11.158c-.001 0-.002 0-.003 0s-.002 0-.002 0l-73.472.002c-.009 0-.017-.003-.026-.003s-.017.003-.026.003h-10.557l-2.232-.109-2-31.317c-.051-.505.16-1.011.546-1.292l3.199-2.359c1.013-.739 1.791-1.747 2.245-2.901zm6.529 48.243c0 .241-.133.363-.162.375h-8.825c-.244 0-.426-.135-.536-.248-.225-.232-.348-.571-.336-.931.002-.075.001-.148-.004-.223l-.312-4.733 1.777.085h8.398zm86.337.127c-.11.114-.292.248-.536.248l-7.537.001c-.037-.012-.171-.139-.171-.377v-5.675h8.72l-.139 4.871c.011.361-.112.7-.337.932z"/><path d="m75.77 122.04 15.614 1.537c.076.007.152.01.228.01 1.167 0 2.165-.885 2.282-2.072.124-1.262-.798-2.386-2.06-2.51l-15.555-1.519c-.013-.009-.069-.072-.081-.194-.247-2.367.57-3.204.837-3.479.369-.38.955-.522 1.565-.384l9.039 2.042c1.239.281 2.467-.496 2.746-1.734.28-1.236-.496-2.465-1.733-2.745l-9.039-2.042c-2.179-.493-4.369.126-5.864 1.656-1.718 1.761-2.431 4.171-2.118 7.162.233 2.263 1.975 4.058 4.139 4.272z"/><path d="m142.56 113.737c.28 1.238 1.509 2.017 2.746 1.734l9.04-2.042c.61-.138 1.195.006 1.564.383.268.277 1.085 1.114.839 3.48-.012.115-.062.178-.031.178l-15.445 1.519c-1.262.124-2.184 1.248-2.06 2.51.117 1.187 1.115 2.072 2.282 2.072.075 0 .152-.003.228-.01l15.451-1.52c2.163-.214 3.905-2.009 4.141-4.271.312-2.991-.401-5.401-2.119-7.164-1.492-1.526-3.68-2.151-5.863-1.655l-9.04 2.042c-1.237.279-2.013 1.508-1.733 2.744z"/><path d="m83.893 103.821h63.929c1.174 0 2.241-.588 2.928-1.615.803-1.197.952-2.791.389-4.158-.003-.007-.006-.013-.008-.019l-7.652-18.155c-1.377-3.337-4.107-5.41-7.125-5.41h-40.992c-3.018 0-5.748 2.072-7.118 5.392l-7.666 18.191c-.564 1.366-.416 2.96.386 4.159.687 1.026 1.754 1.615 2.929 1.615zm9.165-21.957c.547-1.328 1.452-2.186 2.305-2.186h40.991c.852 0 1.757.858 2.311 2.202l7.05 16.726h-59.714z"/><path d="m130.924 112.241-30.33.003c-1.386-.078-2.66.51-3.426 1.567-.686.945-.846 2.153-.427 3.231l1.619 4.159c1.164 2.99 4.261 5.098 7.89 5.371.057.004.114.006.172.006h18.599c.058 0 .115-.001.172-.006 3.629-.274 6.726-2.382 7.89-5.371l1.619-4.159c.419-1.078.259-2.286-.427-3.231-.754-1.038-1.983-1.606-3.351-1.57zm-2.122 7.294c-.511 1.311-2.062 2.29-3.875 2.45h-18.412c-1.813-.16-3.364-1.139-3.875-2.45l-1.052-2.701h28.266z"/></g></svg>