<svg width="449" height="393" viewBox="0 0 449 393" fill="none" xmlns="http://www.w3.org/2000/svg">
<path d="M442.535 277.536C448.709 263.55 449.69 247.82 445.303 233.174L431.608 187.646C430.094 182.542 427.41 177.862 423.767 173.98C420.125 170.097 415.626 167.119 410.629 165.283C410.629 165.283 400.795 161.714 400.43 161.641C400.438 172.415 399.463 183.168 397.517 193.765C404.758 196.879 410.57 202.592 413.806 209.779C417.042 216.967 417.468 225.106 414.999 232.591L402.907 268.795C401.031 274.219 402.137 282.928 394.195 282.999C384.034 282.571 386.827 270.644 389.14 264.133L401.704 226.517C402.346 223.735 402.273 220.836 401.492 218.089C400.71 215.343 399.245 212.839 397.234 210.812C395.223 208.786 392.731 207.301 389.99 206.499C387.25 205.696 384.351 205.601 381.564 206.222C378.821 206.84 376.258 208.082 374.073 209.85C371.888 211.619 370.139 213.867 368.962 216.42C363.863 224.617 343.667 257.344 338.222 266.172C330.474 276.47 325.417 288.538 323.508 301.283C320.651 320.663 329.879 338.399 336.692 357.665C340.694 365.756 342.598 374.724 342.228 383.743L340.553 391.974C340.553 391.974 405.407 389.812 425.125 389.935C426.636 389.136 427.811 387.823 428.439 386.233C429.067 384.644 429.106 382.882 428.549 381.266L422.211 362.69C417.393 348.516 418.068 333.049 424.105 319.348L442.535 277.536Z" fill="#00B4BE"/>
<path d="M119.689 282.999C117.351 277.102 114.161 271.58 110.22 266.609C104.651 257.629 84.3163 224.803 79.1151 216.42C77.4279 212.359 74.2456 209.101 70.2255 207.319C66.2053 205.538 61.6544 205.368 57.5127 206.845C53.3709 208.322 49.9546 211.334 47.9694 215.257C45.9842 219.181 45.5817 223.717 46.845 227.929C49.2203 236.352 61.1559 266.995 61.173 275.328C61.2281 276.318 61.0801 277.309 60.7381 278.239C60.396 279.17 59.8672 280.021 59.1841 280.739C58.501 281.458 57.6781 282.029 56.766 282.418C55.854 282.806 54.872 283.004 53.8805 282.999C45.9457 282.929 47.036 274.217 45.17 268.794L33.0775 232.591C30.9274 226.158 30.9225 219.201 33.0635 212.765C35.2045 206.328 39.3759 200.761 44.9511 196.897C46.6722 195.667 48.5299 194.64 50.4871 193.838C49.4438 188.223 48.69 182.558 48.229 176.865C47.7854 171.766 47.5676 166.74 47.5736 161.641C47.209 161.714 37.3753 165.283 37.3753 165.283C32.3782 167.119 27.8791 170.097 24.2368 173.98C20.5944 177.862 17.9095 182.542 16.3961 187.646L2.70135 233.174C-1.68631 247.82 -0.704807 263.55 5.46935 277.536L23.8992 319.349C29.9357 333.049 30.6115 348.516 25.7927 362.691L19.4553 381.267C19.1087 382.347 19.0159 383.492 19.1843 384.614C19.3527 385.735 19.7778 386.803 20.4263 387.734C21.0749 388.664 21.9295 389.432 22.9235 389.978C23.9176 390.524 25.0243 390.834 26.1574 390.882C34.7254 391.033 107.451 392.631 107.451 392.631L105.703 382.505C105.644 374.428 107.386 366.44 110.802 359.121C120.928 333.927 131.47 308.07 119.689 282.999Z" fill="#00B4BE"/>
<path d="M224.005 41.2352H224.002C197.62 41.2401 171.969 49.8989 150.981 65.8836C129.994 81.8683 114.83 104.296 107.814 129.728L106.949 132.866L109.845 134.351C110.612 134.744 111.593 135.312 112.59 135.89C113.117 136.195 113.648 136.502 114.154 136.788L114.342 136.894L114.541 136.98C119.701 139.197 124.724 139.953 130.195 139.154C135.52 138.377 141.057 136.157 147.348 132.798C171.865 121.204 198.64 115.166 225.761 115.117C252.842 115.068 279.6 120.991 304.129 132.462C309.939 135.99 316.378 138.359 323.091 139.439L323.1 139.44L323.109 139.441C328.128 140.225 333.238 140.225 338.256 139.441L342.513 138.777L341.535 134.581C335.345 108.046 320.366 84.3828 299.029 67.4366C277.692 50.4904 251.253 41.2565 224.005 41.2352ZM109.738 200.642L109.762 200.723L109.789 200.802C115.453 217.331 124.626 232.437 136.68 245.084C148.731 257.726 163.373 267.612 179.604 274.061C181.756 274.938 184.104 275.223 186.403 274.887C188.711 274.549 190.885 273.599 192.7 272.134C194.515 270.67 195.903 268.745 196.721 266.561C197.538 264.377 197.754 262.014 197.346 259.718L197.323 259.586L197.291 259.457C196.835 257.611 196.398 254.997 195.888 251.812C195.836 251.488 195.784 251.16 195.731 250.827C195.273 247.958 194.763 244.767 194.152 241.615C193.471 238.105 192.64 234.518 191.56 231.338C190.528 228.302 189.146 225.258 187.157 223.032L164.242 193.229C164.241 193.228 164.241 193.227 164.24 193.226C161.149 189.184 157.063 186.012 152.382 184.018C147.703 182.026 142.588 181.278 137.534 181.849C137.53 181.849 137.527 181.849 137.523 181.85L123.995 183.33C121.928 183.133 119.84 183.414 117.895 184.155C115.784 184.959 113.908 186.279 112.438 187.994C110.968 189.71 109.951 191.766 109.479 193.975C109.008 196.184 109.097 198.476 109.738 200.642ZM223.97 211.678L224.002 211.678L224.034 211.678C233.988 211.598 243.506 207.588 250.517 200.522C257.527 193.455 261.461 183.905 261.461 173.951C261.461 163.997 257.527 154.447 250.517 147.38C243.507 140.314 233.989 136.304 224.035 136.224L224.003 136.224L223.971 136.224C214.018 136.304 204.499 140.313 197.489 147.38C190.478 154.446 186.545 163.997 186.545 173.95C186.544 183.904 190.478 193.455 197.488 200.521C204.498 207.588 214.017 211.598 223.97 211.678ZM250.712 259.466L250.681 259.591L250.658 259.717C250.251 262.013 250.467 264.377 251.284 266.561C252.102 268.745 253.49 270.669 255.305 272.134C257.12 273.598 259.294 274.549 261.602 274.886C263.901 275.222 266.248 274.937 268.401 274.061C284.631 267.611 299.274 257.726 311.324 245.084C323.378 232.437 332.552 217.33 338.215 200.802L338.22 200.788L338.225 200.773C338.84 198.933 339.036 196.978 338.798 195.053C338.561 193.127 337.896 191.279 336.852 189.643C335.809 188.007 334.413 186.625 332.767 185.598C331.127 184.574 329.279 183.929 327.359 183.708C326.202 183.567 319.964 182.886 315.353 182.383C313.027 182.129 311.115 181.921 310.479 181.849C305.423 181.277 300.304 182.024 295.622 184.018C290.942 186.011 286.858 189.182 283.767 193.222C283.765 193.224 283.764 193.226 283.762 193.228L260.757 223.055C258.815 225.293 257.456 228.333 256.435 231.374C255.371 234.542 254.547 238.109 253.868 241.606C253.259 244.742 252.748 247.919 252.287 250.784C252.233 251.118 252.18 251.447 252.128 251.771C251.615 254.951 251.172 257.582 250.712 259.466ZM379.842 187.567C363.379 189.467 353.949 204.063 347.584 215.718L323.039 255.396C313.86 267.718 307.812 282.075 305.404 297.233C280.824 311.941 252.706 319.717 224.039 319.717C195.38 319.718 167.269 311.946 142.694 297.246C140.475 282.371 134.611 268.264 125.615 256.188C123.145 252.244 116.405 241.353 109.656 230.449C102.637 219.109 95.6087 207.754 93.3689 204.187C90.3672 199.281 86.2112 195.184 81.263 192.252C77.2391 189.868 72.7908 188.314 68.1801 187.668C64.5717 165.819 65.5967 143.444 71.2019 121.998C77.0611 99.5794 87.7816 78.7249 102.603 60.9136C117.424 43.1022 135.983 28.7703 156.963 18.9346C177.944 9.09877 200.831 4.00003 224.003 4C247.174 3.99997 270.062 9.09863 291.042 18.9344C312.022 28.7701 330.581 43.1019 345.403 60.9132C360.224 78.7245 370.944 99.579 376.804 121.997C382.4 143.411 383.431 165.751 379.842 187.567Z" stroke="black" stroke-width="8"/>
<path d="M213.438 163.292C216.233 160.465 220.028 158.85 224.002 158.793C227.977 158.849 231.771 160.465 234.567 163.292C237.373 166.13 238.947 169.96 238.947 173.951C238.947 177.942 237.373 181.772 234.567 184.61C231.771 187.437 227.977 189.053 224.003 189.109C220.028 189.053 216.234 187.437 213.438 184.61C210.632 181.772 209.058 177.942 209.058 173.951C209.058 169.96 210.631 166.13 213.438 163.292Z" stroke="black" stroke-width="8"/>
</svg>
