<svg width="512" height="322" viewBox="0 0 512 322" fill="none" xmlns="http://www.w3.org/2000/svg">
<path d="M504.5 2.5H450.814C447.923 2.5 445.581 4.72263 445.502 7.34472L504.5 2.5ZM504.5 2.5C507.313 2.5 509.582 4.82025 509.499 7.65513L504.5 2.5ZM450.5 12.5C447.687 12.5 445.418 10.1782 445.502 7.34487L509.499 7.65588C509.42 10.2777 507.078 12.5 504.186 12.5H487C484.515 12.5 482.5 14.5143 482.5 17V47.5C482.5 50.3132 480.179 52.5828 477.345 52.4981C474.723 52.4195 472.5 50.0774 472.5 47.186V17C472.5 14.5143 470.486 12.5 468 12.5H450.5Z" stroke="black" stroke-width="5"/>
<path d="M61.5004 2.5H7.81439C4.92327 2.5 2.58125 4.72226 2.50229 7.34412L61.5004 2.5ZM61.5004 2.5C64.313 2.5 66.5822 4.82025 66.4985 7.65513L61.5004 2.5ZM7.50039 12.5C4.68774 12.5 2.4186 10.1798 2.50227 7.34487L66.4985 7.65588C66.4195 10.2777 64.0775 12.5 61.1864 12.5H44.0004C41.5147 12.5 39.5004 14.5143 39.5004 17V48.5C39.5004 51.3132 37.1786 53.5828 34.3453 53.4981C31.7231 53.4195 29.5004 51.0774 29.5004 48.186V17C29.5004 14.5143 27.4861 12.5 25.0004 12.5H7.50039Z" stroke="black" stroke-width="5"/>
<path d="M474.5 31.5H480.5C488.232 31.5 494.5 37.768 494.5 45.5V73H460.5V45.5C460.5 37.768 466.768 31.5 474.5 31.5Z" fill="#00B4BE"/>
<path d="M37.5 31.5H31.5C23.768 31.5 17.5 37.768 17.5 45.5V73H51.5V45.5C51.5 37.768 45.232 31.5 37.5 31.5Z" fill="#00B4BE"/>
<path d="M245.5 170.5H267.5V224.5H245.5V170.5Z" stroke="black" stroke-width="8"/>
<path d="M147.797 204.096L147.797 204.097C125.359 231.136 113 265.384 113 300.521V307C113 313.075 117.925 318 124 318C130.075 318 135 313.075 135 307V300.521C135 270.5 145.555 241.249 164.728 218.145C164.728 218.145 164.728 218.145 164.728 218.145L210.466 163.024L210.466 163.024C214.345 158.349 213.7 151.415 209.024 147.534L147.797 204.096ZM147.797 204.096L193.534 148.976L193.534 148.976M147.797 204.096L193.534 148.976M193.534 148.976C197.414 144.3 204.35 143.657 209.024 147.534L193.534 148.976Z" stroke="black" stroke-width="8"/>
<path d="M364.203 204.097L364.202 204.096L318.465 148.976L318.465 148.976C314.585 144.3 307.649 143.657 302.976 147.534L364.203 204.097ZM364.203 204.097C386.641 231.136 399 265.384 399 300.521V307C399 313.075 394.075 318 388 318C381.925 318 377 313.075 377 307V300.521C377 270.5 366.445 241.249 347.272 218.145C347.272 218.145 347.272 218.145 347.272 218.145L301.534 163.024L301.534 163.024M364.203 204.097L301.534 163.024M301.534 163.024C297.655 158.349 298.3 151.415 302.976 147.534L301.534 163.024Z" stroke="black" stroke-width="8"/>
<path d="M69.4083 100.92L69.408 100.92C62.9238 97.3645 55.6474 95.5 48.252 95.5H28.5C19.1111 95.5 11.5 87.8889 11.5 78.5C11.5 75.1861 14.1861 72.5 17.5 72.5H51.811C55.7965 72.5 59.7556 73.1616 63.5233 74.4583L63.5236 74.4584L151.113 104.595L166.46 126.386L150.541 145.412L69.4083 100.92Z" stroke="black" stroke-width="8"/>
<path d="M442.592 100.92L442.592 100.92L362.442 144.873L353.806 124.703L361.305 104.486L448.478 74.459C448.478 74.459 448.478 74.459 448.478 74.4589C452.245 73.1615 456.203 72.5 460.189 72.5H494.5C497.814 72.5 500.5 75.1861 500.5 78.5C500.5 87.8889 492.889 95.5 483.5 95.5H463.748C456.353 95.5 449.076 97.3645 442.592 100.92Z" stroke="black" stroke-width="8"/>
<path d="M239.5 44.5H272.5C293.457 44.5 310.649 60.6153 312.36 81.13L256 90.4457L199.64 81.13C201.351 60.6153 218.543 44.5 239.5 44.5Z" stroke="black" stroke-width="8"/>
<path d="M285.238 305.501H226.763C221.095 305.501 216.501 300.907 216.501 295.239V236.764C216.501 231.096 221.095 226.502 226.763 226.502H285.238C290.906 226.502 295.5 231.096 295.5 236.764V295.239C295.5 300.907 290.906 305.501 285.238 305.501Z" stroke="black" stroke-width="8"/>
<path d="M181.718 77H334.282C351.248 77 365 90.431 365 107V150C365 166.569 351.248 180 334.282 180H181.718C164.752 180 151 166.569 151 150V107C151 90.431 164.752 77 181.718 77Z" fill="#00B4BE"/>
</svg>
