<svg width="413" height="497" viewBox="0 0 413 497" fill="none" xmlns="http://www.w3.org/2000/svg">
<mask id="path-1-inside-1_2826_19383" fill="white">
<path fill-rule="evenodd" clip-rule="evenodd" d="M83.2 480C87.618 480 91.2 483.582 91.2 488C91.2 492.418 87.618 496 83.2 496H9C4.582 496 1 492.418 1 488V413.8C1 409.382 4.582 405.8 9 405.8C13.418 405.8 17 409.382 17 413.8V480H83.2ZM239.51 451.495C233.971 451.495 229.483 455.983 229.483 461.522C229.483 467.061 233.971 471.549 239.51 471.549C245.049 471.549 249.537 467.062 249.537 461.522C249.537 455.983 245.05 451.495 239.51 451.495ZM322.722 160.645C317.183 160.645 312.695 165.132 312.695 170.672C312.695 176.212 317.183 180.699 322.722 180.699C328.261 180.699 332.749 176.211 332.749 170.672C332.749 165.133 328.261 160.645 322.722 160.645ZM237.994 160.559C232.455 160.559 227.967 165.046 227.967 170.586C227.967 176.126 232.455 180.613 237.994 180.613C243.533 180.613 248.021 176.125 248.021 170.586C248.021 165.047 243.533 160.559 237.994 160.559ZM140.727 211.792C135.188 211.792 130.7 216.28 130.7 221.819C130.7 227.358 135.188 231.846 140.727 231.846C146.266 231.846 150.754 227.358 150.754 221.819C150.754 216.28 146.266 211.792 140.727 211.792ZM98.65 275.846C93.111 275.846 88.623 280.333 88.623 285.873C88.623 291.412 93.111 295.9 98.65 295.9C104.189 295.9 108.677 291.413 108.677 285.873C108.676 280.334 104.189 275.846 98.65 275.846ZM239.822 283.034C234.283 283.034 229.795 287.522 229.795 293.061C229.795 298.6 234.283 303.088 239.822 303.088C245.361 303.088 249.849 298.6 249.849 293.061C249.849 287.521 245.362 283.034 239.822 283.034ZM138.167 377.61C132.628 377.61 128.14 382.097 128.14 387.637C128.14 393.176 132.628 397.664 138.167 397.664C143.706 397.664 148.194 393.176 148.194 387.637C148.194 382.098 143.706 377.61 138.167 377.61ZM230.114 8C230.916 20.759 218.363 25.005 211.106 25.005H171.64C163.205 25.005 162.214 32.864 162.214 36.216H159.095C141.9 36.216 130.072 48.171 134.26 65.209L142.672 99.429L155.741 66.358C172.802 74.948 203.831 78.831 221.311 70.989L232.129 99.429C255.177 70.923 240.172 15.151 230.114 8ZM165.698 163.493V165.583C162.6 165.912 159.363 166.262 156.056 166.671C169.873 186.149 194.232 190.839 212.219 174.22C211.843 171.523 211.888 168.762 212.356 166.079C211.291 165.924 210.209 165.784 209.104 165.664V163.493C195.252 169.918 179.55 169.918 165.698 163.493ZM224.996 125.677C207.444 160.73 167.64 161.832 149.639 125.337L164.849 86.848C179.447 90.919 196.552 92.416 211.489 90.169L224.996 125.677ZM138.275 169.258L143.006 175.927C151.795 188.317 164.607 197.336 179.401 199.762V285.06H138.167V247.72C139.009 247.803 139.863 247.845 140.727 247.845C155.1 247.845 166.754 236.191 166.754 221.818C166.754 207.446 155.1 195.791 140.727 195.791C126.355 195.791 114.7 207.445 114.7 221.818C114.7 228.924 117.549 235.366 122.167 240.063V274.712C117.86 265.652 108.732 259.846 98.649 259.846C95.928 259.846 93.305 260.264 90.839 261.039L91.109 207.24C91.231 183.032 114.742 173.693 138.275 169.258ZM92.853 311.251C97.301 323.091 108.14 332.179 122.167 334.708V297.034C117.86 306.094 108.731 311.9 98.649 311.9C96.657 311.9 94.717 311.675 92.853 311.251ZM195.401 199.773C204.342 198.328 212.538 194.504 219.566 188.964C224.413 193.867 231.109 196.612 237.994 196.612C252.367 196.612 264.021 184.958 264.021 170.585C264.021 169.12 263.9 167.683 263.667 166.283C288.926 156.029 307.907 130.922 325.433 113.168C330.88 107.652 337.926 105.498 347.803 111.25C360.545 118.675 351.362 136.597 340.119 151.314C335.509 147.168 329.41 144.644 322.722 144.644C308.35 144.644 296.696 156.298 296.696 170.671C296.696 176.905 298.889 182.628 302.545 187.11C281.26 202.408 256.553 214.559 239.945 214.55L239.853 267.034C228.619 266.928 218.486 274.416 215.05 285.06H195.402L195.401 199.773ZM138.167 301.06H215.049C218.502 311.757 228.473 319.06 239.761 319.086L239.556 435.495C225.189 435.406 213.484 447.196 213.484 461.521H195.401V346.993C195.401 342.575 191.819 338.993 187.401 338.993C182.983 338.993 179.401 342.575 179.401 346.993V461.522H138.167V413.664C152.54 413.664 164.194 402.01 164.194 387.637C164.194 373.265 152.54 361.61 138.167 361.61V301.06ZM17 82.2C17 86.618 13.418 90.2 9 90.2C4.582 90.2 1 86.618 1 82.2V8C1 3.582 4.582 0 9 0H83.2C87.618 0 91.2 3.582 91.2 8C91.2 12.418 87.618 16 83.2 16H17V82.2ZM329.89 16C325.472 16 321.89 12.418 321.89 8C321.89 3.582 325.472 0 329.89 0H404.09C408.508 0 412.09 3.582 412.09 8V82.2C412.09 86.618 408.508 90.2 404.09 90.2C399.672 90.2 396.09 86.618 396.09 82.2V16H329.89ZM396.09 413.8C396.09 409.382 399.672 405.8 404.09 405.8C408.508 405.8 412.09 409.382 412.09 413.8V488C412.09 492.418 408.508 496 404.09 496H329.89C325.472 496 321.89 492.418 321.89 488C321.89 483.582 325.472 480 329.89 480H396.09V413.8Z"/>
</mask>
<path fill-rule="evenodd" clip-rule="evenodd" d="M83.2 480C87.618 480 91.2 483.582 91.2 488C91.2 492.418 87.618 496 83.2 496H9C4.582 496 1 492.418 1 488V413.8C1 409.382 4.582 405.8 9 405.8C13.418 405.8 17 409.382 17 413.8V480H83.2ZM239.51 451.495C233.971 451.495 229.483 455.983 229.483 461.522C229.483 467.061 233.971 471.549 239.51 471.549C245.049 471.549 249.537 467.062 249.537 461.522C249.537 455.983 245.05 451.495 239.51 451.495ZM322.722 160.645C317.183 160.645 312.695 165.132 312.695 170.672C312.695 176.212 317.183 180.699 322.722 180.699C328.261 180.699 332.749 176.211 332.749 170.672C332.749 165.133 328.261 160.645 322.722 160.645ZM237.994 160.559C232.455 160.559 227.967 165.046 227.967 170.586C227.967 176.126 232.455 180.613 237.994 180.613C243.533 180.613 248.021 176.125 248.021 170.586C248.021 165.047 243.533 160.559 237.994 160.559ZM140.727 211.792C135.188 211.792 130.7 216.28 130.7 221.819C130.7 227.358 135.188 231.846 140.727 231.846C146.266 231.846 150.754 227.358 150.754 221.819C150.754 216.28 146.266 211.792 140.727 211.792ZM98.65 275.846C93.111 275.846 88.623 280.333 88.623 285.873C88.623 291.412 93.111 295.9 98.65 295.9C104.189 295.9 108.677 291.413 108.677 285.873C108.676 280.334 104.189 275.846 98.65 275.846ZM239.822 283.034C234.283 283.034 229.795 287.522 229.795 293.061C229.795 298.6 234.283 303.088 239.822 303.088C245.361 303.088 249.849 298.6 249.849 293.061C249.849 287.521 245.362 283.034 239.822 283.034ZM138.167 377.61C132.628 377.61 128.14 382.097 128.14 387.637C128.14 393.176 132.628 397.664 138.167 397.664C143.706 397.664 148.194 393.176 148.194 387.637C148.194 382.098 143.706 377.61 138.167 377.61ZM230.114 8C230.916 20.759 218.363 25.005 211.106 25.005H171.64C163.205 25.005 162.214 32.864 162.214 36.216H159.095C141.9 36.216 130.072 48.171 134.26 65.209L142.672 99.429L155.741 66.358C172.802 74.948 203.831 78.831 221.311 70.989L232.129 99.429C255.177 70.923 240.172 15.151 230.114 8ZM165.698 163.493V165.583C162.6 165.912 159.363 166.262 156.056 166.671C169.873 186.149 194.232 190.839 212.219 174.22C211.843 171.523 211.888 168.762 212.356 166.079C211.291 165.924 210.209 165.784 209.104 165.664V163.493C195.252 169.918 179.55 169.918 165.698 163.493ZM224.996 125.677C207.444 160.73 167.64 161.832 149.639 125.337L164.849 86.848C179.447 90.919 196.552 92.416 211.489 90.169L224.996 125.677ZM138.275 169.258L143.006 175.927C151.795 188.317 164.607 197.336 179.401 199.762V285.06H138.167V247.72C139.009 247.803 139.863 247.845 140.727 247.845C155.1 247.845 166.754 236.191 166.754 221.818C166.754 207.446 155.1 195.791 140.727 195.791C126.355 195.791 114.7 207.445 114.7 221.818C114.7 228.924 117.549 235.366 122.167 240.063V274.712C117.86 265.652 108.732 259.846 98.649 259.846C95.928 259.846 93.305 260.264 90.839 261.039L91.109 207.24C91.231 183.032 114.742 173.693 138.275 169.258ZM92.853 311.251C97.301 323.091 108.14 332.179 122.167 334.708V297.034C117.86 306.094 108.731 311.9 98.649 311.9C96.657 311.9 94.717 311.675 92.853 311.251ZM195.401 199.773C204.342 198.328 212.538 194.504 219.566 188.964C224.413 193.867 231.109 196.612 237.994 196.612C252.367 196.612 264.021 184.958 264.021 170.585C264.021 169.12 263.9 167.683 263.667 166.283C288.926 156.029 307.907 130.922 325.433 113.168C330.88 107.652 337.926 105.498 347.803 111.25C360.545 118.675 351.362 136.597 340.119 151.314C335.509 147.168 329.41 144.644 322.722 144.644C308.35 144.644 296.696 156.298 296.696 170.671C296.696 176.905 298.889 182.628 302.545 187.11C281.26 202.408 256.553 214.559 239.945 214.55L239.853 267.034C228.619 266.928 218.486 274.416 215.05 285.06H195.402L195.401 199.773ZM138.167 301.06H215.049C218.502 311.757 228.473 319.06 239.761 319.086L239.556 435.495C225.189 435.406 213.484 447.196 213.484 461.521H195.401V346.993C195.401 342.575 191.819 338.993 187.401 338.993C182.983 338.993 179.401 342.575 179.401 346.993V461.522H138.167V413.664C152.54 413.664 164.194 402.01 164.194 387.637C164.194 373.265 152.54 361.61 138.167 361.61V301.06ZM17 82.2C17 86.618 13.418 90.2 9 90.2C4.582 90.2 1 86.618 1 82.2V8C1 3.582 4.582 0 9 0H83.2C87.618 0 91.2 3.582 91.2 8C91.2 12.418 87.618 16 83.2 16H17V82.2ZM329.89 16C325.472 16 321.89 12.418 321.89 8C321.89 3.582 325.472 0 329.89 0H404.09C408.508 0 412.09 3.582 412.09 8V82.2C412.09 86.618 408.508 90.2 404.09 90.2C399.672 90.2 396.09 86.618 396.09 82.2V16H329.89ZM396.09 413.8C396.09 409.382 399.672 405.8 404.09 405.8C408.508 405.8 412.09 409.382 412.09 413.8V488C412.09 492.418 408.508 496 404.09 496H329.89C325.472 496 321.89 492.418 321.89 488C321.89 483.582 325.472 480 329.89 480H396.09V413.8Z" stroke="black" stroke-width="16" mask="url(#path-1-inside-1_2826_19383)"/>
<rect x="1" y="16" width="16" height="92" rx="8" transform="rotate(-90 1 16)" fill="#00B4BE"/>
<rect x="1" y="16" width="16" height="92" rx="8" transform="rotate(-90 1 16)" fill="#00B4BE"/>
<rect x="1" y="1" width="16" height="90" rx="8" fill="#00B4BE"/>
<rect x="1" y="1" width="16" height="90" rx="8" fill="#00B4BE"/>
<rect x="412" y="480" width="16" height="92" rx="8" transform="rotate(90 412 480)" fill="#00B4BE"/>
<rect x="412" y="480" width="16" height="92" rx="8" transform="rotate(90 412 480)" fill="#00B4BE"/>
<rect x="412" y="495" width="16" height="90" rx="8" transform="rotate(-180 412 495)" fill="#00B4BE"/>
<rect x="412" y="495" width="16" height="90" rx="8" transform="rotate(-180 412 495)" fill="#00B4BE"/>
<rect x="17.5" y="495.5" width="17" height="92" rx="8.5" transform="rotate(180 17.5 495.5)" fill="#00B4BE"/>
<rect x="17.5" y="495.5" width="17" height="92" rx="8.5" transform="rotate(180 17.5 495.5)" fill="#00B4BE"/>
<rect x="1" y="497" width="19" height="90" rx="9.5" transform="rotate(-90 1 497)" fill="#00B4BE"/>
<rect x="1" y="497" width="19" height="90" rx="9.5" transform="rotate(-90 1 497)" fill="#00B4BE"/>
<rect x="396" width="16" height="92" rx="8" fill="#00B4BE"/>
<rect x="396" width="16" height="92" rx="8" fill="#00B4BE"/>
<rect x="411" width="16" height="90" rx="8" transform="rotate(90 411 0)" fill="#00B4BE"/>
<rect x="411" width="16" height="90" rx="8" transform="rotate(90 411 0)" fill="#00B4BE"/>
</svg>
