<svg width="304" height="464" viewBox="0 0 304 464" fill="none" xmlns="http://www.w3.org/2000/svg">
<path d="M4 92H300V460H4V92Z" stroke="black" stroke-width="8"/>
<path d="M132 276H172V316H132V276Z" stroke="black" stroke-width="8"/>
<path d="M188 196V240C188 249.548 184.207 258.705 177.456 265.456C170.705 272.207 161.548 276 152 276C142.452 276 133.295 272.207 126.544 265.456C119.793 258.705 116 249.548 116 240V196H188Z" stroke="black" stroke-width="8"/>
<path d="M196 184V196H108V184.005C108.016 178.136 109.875 172.421 113.316 167.666C116.757 162.91 121.607 159.355 127.179 157.506C132.751 155.656 138.763 155.605 144.365 157.359C149.968 159.113 154.878 162.584 158.4 167.28L160.824 170.513L164.032 168.056C167.467 165.425 171.673 164 176 164H176C181.304 164 186.391 166.107 190.142 169.858C193.893 173.609 196 178.696 196 184Z" stroke="black" stroke-width="8"/>
<path d="M112 0V120H192V0H112ZM152 56C148.835 56 145.742 55.0616 143.111 53.3035C140.48 51.5454 138.429 49.0466 137.218 46.1229C136.007 43.1993 135.69 39.9823 136.307 36.8786C136.925 33.7749 138.449 30.9239 140.686 28.6863C142.924 26.4487 145.775 24.9248 148.879 24.3074C151.982 23.6901 155.199 24.0069 158.123 25.2179C161.047 26.4289 163.545 28.4797 165.304 31.1109C167.062 33.7421 168 36.8355 168 40C167.987 44.2396 166.298 48.3019 163.3 51.2997C160.302 54.2976 156.24 55.9873 152 56Z" fill="#00B4BE"/>
<path d="M61.7206 336C62.6258 334.892 63.9466 333.683 65.8153 332.394C70.1787 329.385 76.7541 326.516 85.239 324.041C102.156 319.107 125.761 316 152 316C178.239 316 201.844 319.107 218.761 324.041C227.246 326.516 233.821 329.385 238.185 332.394C240.053 333.683 241.374 334.892 242.279 336H61.7206Z" stroke="black" stroke-width="8"/>
<path d="M67 371H237V381H67V371Z" stroke="black" stroke-width="6"/>
<path d="M67 403H237V413H67V403Z" stroke="black" stroke-width="6"/>
<path d="M138.5 82.5H165.5V93.5H138.5V82.5Z" stroke="black" stroke-width="5"/>
<path d="M32 108C38.6274 108 44 113.373 44 120V184C44 190.627 38.6274 196 32 196C25.3726 196 20 190.627 20 184V120C20 113.373 25.3726 108 32 108Z" stroke="black" stroke-width="8"/>
</svg>
