<svg width="418" height="544" viewBox="0 0 418 544" fill="none" xmlns="http://www.w3.org/2000/svg">
<mask id="path-1-inside-1_2826_19366" fill="white">
<path d="M165.845 343.006H20.0164C18.3128 343.006 16.9307 344.789 16.9307 346.999V527.632C16.9307 536.112 22.2624 543.006 28.8115 543.006H157.046C163.599 543.006 168.931 536.112 168.931 527.632V346.999C168.931 344.789 167.553 343.006 165.845 343.006ZM162.759 527.632C162.759 531.708 160.196 535.02 157.05 535.02H28.8115C25.6655 535.02 23.1021 531.708 23.1021 527.632V350.992H162.759V527.632Z"/>
</mask>
<path d="M23.1021 350.992V342.992H15.1021V350.992H23.1021ZM162.759 350.992H170.759V342.992H162.759V350.992ZM165.845 335.006H20.0164V351.006H165.845V335.006ZM20.0164 335.006C12.1048 335.006 8.93066 342.404 8.93066 346.999H24.9307C24.9307 347.513 24.7781 348.273 24.1627 349.068C23.5393 349.874 22.1389 351.006 20.0164 351.006V335.006ZM8.93066 346.999V527.632H24.9307V346.999H8.93066ZM8.93066 527.632C8.93066 538.492 16.0502 551.006 28.8115 551.006V535.006C28.5247 535.006 27.7236 534.873 26.7447 533.606C25.761 532.334 24.9307 530.245 24.9307 527.632H8.93066ZM28.8115 551.006H157.046V535.006H28.8115V551.006ZM157.046 551.006C169.81 551.006 176.931 538.494 176.931 527.632H160.931C160.931 530.245 160.1 532.333 159.117 533.606C158.138 534.871 157.336 535.006 157.046 535.006V551.006ZM176.931 527.632V346.999H160.931V527.632H176.931ZM176.931 346.999C176.931 342.411 173.766 335.006 165.845 335.006V351.006C163.728 351.006 162.325 349.877 161.698 349.066C161.081 348.267 160.931 347.507 160.931 346.999H176.931ZM154.759 527.632C154.759 528.042 154.621 528.134 154.755 527.961C154.894 527.782 155.635 527.02 157.05 527.02V543.02C166.406 543.02 170.759 534.09 170.759 527.632H154.759ZM157.05 527.02H28.8115V543.02H157.05V527.02ZM28.8115 527.02C30.2258 527.02 30.9674 527.782 31.106 527.961C31.24 528.134 31.1021 528.042 31.1021 527.632H15.1021C15.1021 534.09 19.4549 543.02 28.8115 543.02V527.02ZM31.1021 527.632V350.992H15.1021V527.632H31.1021ZM23.1021 358.992H162.759V342.992H23.1021V358.992ZM154.759 350.992V527.632H170.759V350.992H154.759Z" fill="black" mask="url(#path-1-inside-1_2826_19366)"/>
<path d="M71.3374 304.815C71.3372 304.814 71.3374 304.815 71.3375 304.818L219.709 304.826C223.304 304.826 226.236 307.758 226.236 311.353V340.744C226.236 344.339 223.306 347.269 219.709 347.271C219.707 347.271 219.706 347.271 219.704 347.271H10.5322C6.93043 347.271 4 344.338 4 340.744V311.353C4 307.757 6.93306 304.826 10.5322 304.826H71.3432C71.3485 304.826 71.3495 304.827 71.3475 304.826C71.3462 304.826 71.3447 304.826 71.3432 304.825C71.3426 304.825 71.3421 304.825 71.3416 304.824C71.3411 304.824 71.3407 304.824 71.3404 304.824C71.3401 304.823 71.3398 304.823 71.3395 304.822C71.3393 304.822 71.3391 304.821 71.339 304.821C71.3388 304.82 71.3387 304.82 71.3386 304.82C71.3389 304.819 71.3392 304.818 71.3395 304.817C71.3407 304.817 71.3419 304.816 71.3432 304.816C71.344 304.816 71.3448 304.815 71.3456 304.815C71.3481 304.815 71.3477 304.815 71.3432 304.815H71.3404C71.3411 304.814 71.3412 304.814 71.3402 304.815H71.3374ZM106.264 304.815C106.264 304.814 106.264 304.815 106.264 304.816C106.264 304.816 106.263 304.817 106.263 304.818C106.263 304.818 106.263 304.817 106.262 304.817C106.262 304.817 106.262 304.817 106.262 304.817C106.262 304.817 106.261 304.817 106.261 304.816C106.261 304.816 106.261 304.815 106.261 304.815H106.264Z" stroke="black" stroke-width="8"/>
<path d="M172.218 3.5H245.481V18.1833H172.218V3.5Z" stroke="black" stroke-width="7"/>
<path d="M216.303 25.6836H234.989V98.5707H216.303V25.6836Z" stroke="black" stroke-width="8"/>
<path d="M178.642 141.521H273.837C280.34 141.521 285.612 146.794 285.612 153.296V522.9C285.612 529.403 280.34 534.675 273.837 534.675H178.642C172.139 534.675 166.867 529.403 166.867 522.9V153.296C166.867 146.794 172.139 141.521 178.642 141.521Z" stroke="black" stroke-width="8"/>
<path d="M194.552 97.3965H257.932C263.341 97.3965 267.751 101.788 267.751 107.221V133.522H184.732V107.221C184.732 101.788 189.143 97.3965 194.552 97.3965Z" stroke="black" stroke-width="8"/>
<path d="M162.867 288.867H289.612V374.914H162.867V288.867Z" fill="#00B4BE"/>
<mask id="path-9-inside-2_2826_19366" fill="white">
<path d="M389.737 219.006H308.221C304.341 219.006 301.184 222.158 301.184 226.038V253.983C301.184 257.863 304.341 261.015 308.221 261.015H389.737C393.612 261.015 396.769 257.858 396.769 253.983V226.038C396.769 222.158 393.612 219.006 389.737 219.006ZM388.78 253.026H309.178V226.995H388.78V253.026Z"/>
</mask>
<path d="M388.78 253.026V261.026H396.78V253.026H388.78ZM309.178 253.026H301.178V261.026H309.178V253.026ZM309.178 226.995V218.995H301.178V226.995H309.178ZM388.78 226.995H396.78V218.995H388.78V226.995ZM389.737 211.006H308.221V227.006H389.737V211.006ZM308.221 211.006C299.93 211.006 293.184 217.732 293.184 226.038H309.184C309.184 226.584 308.751 227.006 308.221 227.006V211.006ZM293.184 226.038V253.983H309.184V226.038H293.184ZM293.184 253.983C293.184 262.289 299.93 269.015 308.221 269.015V253.015C308.751 253.015 309.184 253.437 309.184 253.983H293.184ZM308.221 269.015H389.737V253.015H308.221V269.015ZM389.737 269.015C398.03 269.015 404.769 262.276 404.769 253.983H388.769C388.769 253.44 389.194 253.015 389.737 253.015V269.015ZM404.769 253.983V226.038H388.769V253.983H404.769ZM404.769 226.038C404.769 217.736 398.026 211.006 389.737 211.006V227.006C389.198 227.006 388.769 226.58 388.769 226.038H404.769ZM388.78 245.026H309.178V261.026H388.78V245.026ZM317.178 253.026V226.995H301.178V253.026H317.178ZM309.178 234.995H388.78V218.995H309.178V234.995ZM380.78 226.995V253.026H396.78V226.995H380.78Z" fill="black" mask="url(#path-9-inside-2_2826_19366)"/>
<path d="M396.221 334.449L396.221 334.449C407.186 351.094 413.027 370.582 413.032 390.516C413.032 390.517 413.032 390.517 413.032 390.517V520.189C413.032 527.96 406.731 534.258 398.958 534.258H298.999C291.225 534.258 284.925 527.96 284.925 520.189V390.516C284.925 370.588 290.77 351.095 301.736 334.449L301.74 334.442L302.994 332.53C302.995 332.529 302.996 332.528 302.996 332.527C314.821 314.575 321.119 293.558 321.119 272.062V261.025H376.832V272.062C376.832 293.554 383.131 314.577 394.957 332.529C394.957 332.53 394.957 332.53 394.957 332.53L396.221 334.449Z" stroke="black" stroke-width="8"/>
<path d="M280.925 399.404H417.027V471.788H280.925V399.404Z" fill="#00B4BE"/>
<path d="M80.2257 189.816C81.7139 189.106 83.2571 188.287 84.8136 187.342C91.3469 183.377 98.1643 177.159 102.032 167.698C103.014 169.636 104.163 171.689 105.491 173.758C109.619 180.188 115.727 187.125 124.249 190.94C121.806 192.275 119.127 193.893 116.434 195.802C110.531 199.987 104.198 205.835 100.363 213.441C99.5241 211.513 98.542 209.489 97.3986 207.451C93.7418 200.933 88.2216 193.941 80.2257 189.816Z" stroke="black" stroke-width="8"/>
<path d="M29.9858 224.74C30.6923 224.373 31.411 223.972 32.1338 223.534C36.5461 220.857 41.152 216.744 44.0205 210.618C44.5675 211.629 45.1755 212.67 45.848 213.718C48.6112 218.022 52.65 222.7 58.2255 225.556C56.7969 226.377 55.284 227.324 53.7635 228.402C49.8657 231.165 45.6511 234.981 42.8382 239.908C42.3712 238.91 41.8513 237.886 41.2738 236.857C38.8277 232.497 35.1867 227.787 29.9858 224.74Z" stroke="black" stroke-width="7"/>
<path d="M44.0206 139.63C44.5676 140.64 45.1756 141.682 45.848 142.729C48.6112 147.034 52.65 151.712 58.2255 154.568C56.7969 155.388 55.284 156.336 53.7635 157.414C49.8657 160.177 45.651 163.992 42.8381 168.92C42.3712 167.922 41.8512 166.898 41.2738 165.869C38.8277 161.51 35.1867 156.801 29.9861 153.754C30.6926 153.388 31.4114 152.986 32.1343 152.548C36.5464 149.87 41.1521 145.757 44.0206 139.63Z" stroke="black" stroke-width="7"/>
</svg>
