<svg width="512" height="353" viewBox="0 0 512 353" fill="none" xmlns="http://www.w3.org/2000/svg">
<path d="M116.29 37.8139L116.29 37.8141C117.497 39.1748 118.163 40.9291 118.163 42.7494C118.163 45.1973 115.316 46.5433 113.424 44.9895L95.929 30.6185L95.9287 30.6183C91.5931 27.0576 85.0549 28.6337 82.8178 33.7783L82.8176 33.7789L18.8812 180.871L4.88194 168.78L78.3572 7.4204C78.3573 7.42029 78.3573 7.42019 78.3574 7.42008C80.1084 3.57605 85.2338 2.8065 88.0357 5.96492L91.0248 3.31327L88.0357 5.96494L116.29 37.8139Z" stroke="black" stroke-width="8"/>
<path d="M493.119 180.871L429.182 33.7789L429.182 33.7783C426.945 28.6337 420.407 27.0576 416.071 30.6183L416.071 30.6185L398.576 44.9895C398.576 44.9895 398.576 44.9895 398.576 44.9895C396.684 46.5433 393.837 45.1973 393.837 42.7494C393.837 40.9291 394.503 39.1747 395.71 37.8141L395.71 37.8139L423.964 5.96494L421.072 3.39919L423.964 5.96492C426.766 2.8065 431.891 3.57605 433.643 7.42008C433.643 7.42018 433.643 7.42029 433.643 7.4204L507.118 168.78L493.119 180.871Z" stroke="black" stroke-width="8"/>
<path d="M255.931 218.708C255.147 214.786 255.146 214.786 255.144 214.786L255.142 214.787L255.136 214.788L255.12 214.791L255.072 214.801C255.033 214.809 254.981 214.82 254.917 214.834C254.788 214.863 254.608 214.903 254.383 214.957C253.935 215.064 253.307 215.225 252.55 215.444C251.045 215.881 248.988 216.565 246.811 217.555C242.716 219.416 237.058 222.867 235.074 228.817C234.787 229.679 234.548 230.915 234.33 232.162C234.111 233.405 233.865 234.955 233.585 236.723L233.52 237.128C232.901 241.03 232.09 246.086 230.955 251.911C228.682 263.575 225.122 278.224 219.261 292.551C207.486 321.335 187.003 347.65 150.005 347.65C141.821 347.65 134.127 347.82 126.832 347.98C116.205 348.215 106.426 348.43 97.2171 348.075C81.8664 347.484 69.1221 345.3 58.4881 339.282C37.4931 327.402 22.8507 299.392 16.0894 231.352L19.6616 231.471L16.3086 225.324L4 202.758V174.169C4.84964 173.731 5.96784 173.175 7.34256 172.535C10.911 170.874 16.2033 168.647 23.0093 166.437C36.6237 162.014 56.2675 157.663 80.2779 158.012L80.278 158.012C84.3749 158.071 88.5467 158.111 92.7764 158.151C114.033 158.354 136.751 158.571 158.748 161.357C185.1 164.695 209.897 171.672 229.358 186.352L229.581 186.521L229.825 186.656L231.767 183.159C229.825 186.656 229.826 186.657 229.827 186.657L229.829 186.658L229.834 186.661L229.847 186.669L229.888 186.691C229.922 186.709 229.967 186.734 230.025 186.765C230.14 186.826 230.303 186.912 230.509 187.019C230.922 187.231 231.512 187.526 232.252 187.872C233.727 188.561 235.814 189.462 238.284 190.317C243.015 191.954 249.541 193.56 255.971 192.871C263.015 193.556 269.524 191.98 274.195 190.3C276.603 189.434 278.581 188.519 279.969 187.814C280.664 187.461 281.215 187.158 281.602 186.938C281.795 186.828 281.948 186.738 282.058 186.672C282.112 186.64 282.156 186.613 282.189 186.593L282.23 186.568L282.245 186.559L282.25 186.555L282.253 186.554C282.254 186.553 282.255 186.553 280.137 183.159L282.255 186.553L282.405 186.459L282.546 186.353C302.006 171.672 326.811 164.695 353.171 161.358C375.173 158.572 397.894 158.355 419.151 158.152C423.383 158.111 427.557 158.071 431.656 158.012C455.667 157.664 475.328 162.015 488.959 166.438C495.774 168.649 501.075 170.876 504.65 172.537C506.028 173.177 507.148 173.733 508 174.171V202.752L495.626 225.315L492.245 231.479L495.771 231.357C489.01 299.393 474.367 327.402 453.373 339.283C442.739 345.3 429.995 347.484 414.644 348.075C405.436 348.43 395.657 348.215 385.03 347.98C377.735 347.82 370.041 347.65 361.857 347.65C324.86 347.65 304.377 321.335 292.602 292.551C286.741 278.224 283.181 263.575 280.907 251.911C279.772 246.086 278.962 241.029 278.342 237.128L278.279 236.73C277.997 234.958 277.751 233.406 277.533 232.162C277.314 230.915 277.075 229.679 276.788 228.817C274.804 222.867 269.146 219.416 265.051 217.555C262.874 216.565 260.817 215.881 259.312 215.444C258.555 215.225 257.927 215.064 257.479 214.957C257.254 214.903 257.074 214.863 256.945 214.834C256.881 214.82 256.829 214.809 256.79 214.801L256.742 214.791L256.726 214.788L256.72 214.787L256.718 214.786C256.716 214.786 256.715 214.786 255.931 218.708ZM255.931 218.708L256.715 214.786L255.931 214.629L255.147 214.786L255.931 218.708ZM499.776 231.504L497.636 231.292L497.637 231.292L499.776 231.504Z" stroke="black" stroke-width="8"/>
<path d="M24.8352 188.118C33.8397 188.118 41.1393 183.391 41.1393 177.559C41.1393 171.727 33.8397 167 24.8352 167C15.8308 167 8.53125 171.727 8.53125 177.559C8.53125 183.391 15.8308 188.118 24.8352 188.118Z" fill="white"/>
<path d="M487.033 188.118C496.038 188.118 503.337 183.391 503.337 177.559C503.337 171.727 496.038 167 487.033 167C478.029 167 470.729 171.727 470.729 177.559C470.729 183.391 478.029 188.118 487.033 188.118Z" fill="white"/>
<path d="M92.4201 240.721C117.502 269.521 179.601 254.742 219.644 241.036C220.516 228.275 219.306 216.602 216.831 208.018C206.168 171.051 119.436 171.762 119.436 171.762C25.5951 167.496 33.4141 218.683 33.4141 218.683C33.4141 218.683 33.0241 221.723 32.7871 226.739C52.7111 220.936 75.3671 221.143 92.4201 240.721Z" fill="#00B4BE"/>
<path d="M92.4202 240.722C75.3682 221.144 52.7102 220.937 32.7862 226.739C32.1832 239.526 32.6062 265.412 43.1612 288.424C76.2852 301.742 156.577 294.335 206.054 287.975C214.562 272.979 218.604 256.241 219.643 241.037C179.601 254.745 117.503 269.522 92.4202 240.722Z" fill="#00B4BE"/>
<path d="M43.1611 288.423C53.3431 310.622 72.9481 330.102 110.192 332.43C161.772 335.654 190.946 314.6 206.054 287.975C156.578 294.334 76.2851 301.742 43.1611 288.423Z" fill="#00B4BE"/>
<path d="M419.432 240.721C394.35 269.521 332.251 254.742 292.208 241.036C291.336 228.275 292.546 216.602 295.021 208.018C305.684 171.051 392.416 171.762 392.416 171.762C486.257 167.496 478.438 218.683 478.438 218.683C478.438 218.683 478.828 221.723 479.065 226.739C459.142 220.936 436.486 221.143 419.432 240.721Z" fill="#00B4BE"/>
<path d="M419.432 240.722C436.484 221.144 459.142 220.937 479.066 226.739C479.669 239.526 479.246 265.412 468.691 288.424C435.567 301.742 355.275 294.335 305.798 287.975C297.29 272.979 293.248 256.241 292.209 241.037C332.251 254.745 394.35 269.522 419.432 240.722Z" fill="#00B4BE"/>
<path d="M468.691 288.423C458.51 310.622 438.904 330.102 401.66 332.43C350.08 335.654 320.906 314.6 305.798 287.975C355.275 294.334 435.567 301.742 468.691 288.423Z" fill="#00B4BE"/>
</svg>
