<svg width="397" height="397" viewBox="0 0 397 397" fill="none" xmlns="http://www.w3.org/2000/svg">
<g filter="url(#filter0_d_2232_13609)">
<circle cx="197.5" cy="197.5" r="178.5" fill="white"/>
</g>
<path d="M275.903 134.935C284.098 134.935 290.742 128.292 290.742 120.097C290.742 111.901 284.098 105.258 275.903 105.258C267.708 105.258 261.064 111.901 261.064 120.097C261.064 128.292 267.708 134.935 275.903 134.935Z" fill="#00B4BE"/>
<path d="M120.096 290.742C128.291 290.742 134.934 284.098 134.934 275.903C134.934 267.708 128.291 261.064 120.096 261.064C111.9 261.064 105.257 267.708 105.257 275.903C105.257 284.098 111.9 290.742 120.096 290.742Z" fill="#00B4BE"/>
<path d="M207.162 175.741V201.709H187.241V175.778C182.486 177.702 178.391 180.963 175.451 185.166C172.51 189.369 170.852 194.334 170.675 199.46C170.498 204.587 171.811 209.655 174.455 214.05C177.099 218.446 180.961 221.98 185.572 224.227V253.644H208.832V224.227C213.453 221.984 217.324 218.448 219.975 214.049C222.626 209.649 223.943 204.575 223.766 199.441C223.589 194.307 221.926 189.336 218.979 185.129C216.032 180.922 211.927 177.661 207.162 175.741Z" fill="#594A96"/>
<path d="M269.998 183.717H265.181C263.653 183.691 262.173 183.176 260.959 182.248C259.745 181.32 258.86 180.027 258.434 178.56C257.329 175.084 255.927 171.71 254.245 168.474C253.505 167.133 253.215 165.591 253.417 164.074C253.619 162.556 254.303 161.143 255.367 160.043L258.793 156.617C253.424 148.645 246.565 141.786 238.593 136.417L235.167 139.844C234.067 140.908 232.654 141.591 231.137 141.793C229.619 141.995 228.077 141.705 226.736 140.965C223.5 139.283 220.126 137.881 216.65 136.776C215.183 136.35 213.89 135.465 212.962 134.251C212.034 133.037 211.519 131.557 211.493 130.03V125.212C202.063 123.338 192.357 123.338 182.927 125.212V130.03C182.901 131.558 182.386 133.037 181.458 134.251C180.53 135.465 179.238 136.35 177.77 136.776C174.294 137.881 170.92 139.283 167.684 140.965C166.344 141.705 164.801 141.995 163.284 141.793C161.766 141.591 160.354 140.908 159.253 139.844L155.827 136.417C147.855 141.786 140.997 148.645 135.627 156.617L139.054 160.043C140.118 161.143 140.801 162.556 141.003 164.074C141.205 165.591 140.915 167.133 140.176 168.474C138.493 171.71 137.092 175.084 135.986 178.56C135.56 180.027 134.675 181.32 133.461 182.248C132.247 183.176 130.768 183.691 129.24 183.717H124.422C122.548 193.147 122.548 202.853 124.422 212.283H129.24C130.768 212.309 132.247 212.824 133.461 213.752C134.675 214.68 135.56 215.972 135.986 217.44C137.091 220.916 138.493 224.29 140.176 227.526C140.915 228.866 141.205 230.409 141.003 231.926C140.801 233.444 140.118 234.857 139.054 235.957L135.627 239.383C140.996 247.355 147.855 254.214 155.827 259.583L159.253 256.157C160.354 255.093 161.766 254.409 163.284 254.207C164.801 254.005 166.343 254.295 167.684 255.034C170.92 256.717 174.294 258.119 177.77 259.224C179.238 259.65 180.53 260.535 181.458 261.749C182.387 262.963 182.901 264.443 182.927 265.971V270.789C192.357 272.662 202.064 272.662 211.493 270.789V265.971C211.52 264.443 212.034 262.963 212.962 261.749C213.89 260.535 215.183 259.65 216.65 259.224C220.126 258.119 223.501 256.717 226.737 255.034C228.077 254.295 229.619 254.005 231.137 254.207C232.654 254.409 234.067 255.093 235.167 256.157L238.594 259.583C246.565 254.214 253.424 247.355 258.793 239.383L255.367 235.957C254.303 234.857 253.62 233.444 253.418 231.926C253.216 230.409 253.506 228.866 254.245 227.526C255.927 224.29 257.329 220.916 258.435 217.44C258.861 215.972 259.745 214.68 260.959 213.752C262.174 212.824 263.653 212.309 265.181 212.283H269.999C271.872 202.853 271.872 193.147 269.998 183.717ZM197.21 246.226C187.672 246.226 178.348 243.398 170.417 238.098C162.487 232.799 156.305 225.268 152.655 216.455C149.005 207.643 148.05 197.947 149.911 188.592C151.772 179.237 156.365 170.644 163.109 163.899C169.854 157.155 178.447 152.562 187.802 150.701C197.157 148.84 206.853 149.795 215.665 153.445C224.478 157.095 232.009 163.277 237.309 171.207C242.608 179.138 245.436 188.462 245.436 198C245.436 204.333 244.189 210.604 241.765 216.455C239.341 222.306 235.789 227.623 231.311 232.101C226.833 236.579 221.516 240.131 215.665 242.555C209.814 244.979 203.543 246.226 197.21 246.226Z" fill="#00B4BE"/>
<path d="M98.3883 255.504C85.7401 233.576 80.6782 208.089 83.9872 182.992C87.2962 157.896 98.7913 134.591 116.691 116.692C134.59 98.792 157.894 87.2966 182.991 83.9873C208.088 80.6781 233.575 85.7397 255.503 98.3877L251.786 104.811C231.273 92.9813 207.431 88.2481 183.955 91.3446C160.48 94.4412 138.681 105.194 121.937 121.938C105.193 138.682 94.4395 160.481 91.3426 183.956C88.2458 207.432 92.9787 231.274 104.808 251.787L98.3883 255.504Z" fill="#594A96"/>
<path d="M197.998 313C177.849 313.008 158.051 307.72 140.589 297.667L144.299 291.24C164.815 303.045 188.652 307.757 212.117 304.645C235.582 301.533 257.366 290.771 274.096 274.025C290.826 257.28 301.568 235.485 304.658 212.017C307.748 188.549 303.014 164.717 291.189 144.211L297.609 140.494C307.695 157.979 313.003 177.811 312.998 197.996C312.994 218.182 307.678 238.011 297.584 255.492C287.49 272.972 272.974 287.489 255.493 297.584C238.013 307.678 218.184 312.995 197.998 313Z" fill="#594A96"/>
<defs>
<filter id="filter0_d_2232_13609" x="0" y="0" width="397" height="397" filterUnits="userSpaceOnUse" color-interpolation-filters="sRGB">
<feFlood flood-opacity="0" result="BackgroundImageFix"/>
<feColorMatrix in="SourceAlpha" type="matrix" values="0 0 0 0 0 0 0 0 0 0 0 0 0 0 0 0 0 0 127 0" result="hardAlpha"/>
<feOffset dx="1" dy="1"/>
<feGaussianBlur stdDeviation="10"/>
<feComposite in2="hardAlpha" operator="out"/>
<feColorMatrix type="matrix" values="0 0 0 0 0 0 0 0 0 0 0 0 0 0 0 0 0 0 0.25 0"/>
<feBlend mode="normal" in2="BackgroundImageFix" result="effect1_dropShadow_2232_13609"/>
<feBlend mode="normal" in="SourceGraphic" in2="effect1_dropShadow_2232_13609" result="shape"/>
</filter>
</defs>
</svg>
