<svg width="397" height="397" viewBox="0 0 397 397" fill="none" xmlns="http://www.w3.org/2000/svg">
<g filter="url(#filter0_d_2232_13610)">
<circle cx="197.5" cy="197.5" r="178.5" fill="white"/>
</g>
<path d="M207.118 112.476L207.816 113.89L209.377 114.117L227.396 116.735C227.396 116.735 227.396 116.735 227.396 116.735C227.776 116.79 228.134 116.951 228.428 117.199C228.722 117.447 228.941 117.772 229.059 118.138C229.178 118.504 229.192 118.895 229.1 119.269C229.008 119.642 228.813 119.982 228.538 120.251L215.499 132.96L214.369 134.061L214.636 135.615L217.715 153.561C217.78 153.94 217.738 154.33 217.593 154.686C217.448 155.042 217.206 155.351 216.895 155.577C216.584 155.803 216.215 155.937 215.832 155.965C215.448 155.993 215.065 155.913 214.724 155.734L214.724 155.734L198.608 147.261L197.212 146.527L195.816 147.261L179.699 155.734L179.699 155.734C179.358 155.913 178.975 155.993 178.591 155.965C178.208 155.937 177.839 155.803 177.528 155.577C177.217 155.351 176.975 155.042 176.83 154.686C176.686 154.33 176.643 153.94 176.708 153.561C176.708 153.561 176.708 153.561 176.708 153.561L179.787 135.615L180.054 134.061L178.924 132.96L165.886 120.251C165.886 120.251 165.886 120.251 165.886 120.251C165.611 119.982 165.416 119.642 165.324 119.269C165.232 118.895 165.246 118.504 165.365 118.138C165.483 117.772 165.702 117.447 165.996 117.199C166.29 116.951 166.648 116.79 167.028 116.735C167.028 116.735 167.028 116.735 167.028 116.735L185.047 114.117L186.608 113.89L187.306 112.476L195.364 96.1491L195.364 96.149C195.534 95.8041 195.797 95.5137 196.124 95.3107C196.45 95.1076 196.827 95 197.212 95C197.597 95 197.973 95.1076 198.3 95.3107C198.627 95.5137 198.89 95.8041 199.06 96.149L199.06 96.1491L207.118 112.476Z" stroke="#594A96" stroke-width="6"/>
<path d="M283.835 156.104L283.771 157.68L285.033 158.626L299.6 169.55C299.6 169.55 299.6 169.55 299.6 169.55C299.908 169.781 300.145 170.093 300.284 170.451C300.423 170.809 300.46 171.199 300.389 171.577C300.318 171.955 300.143 172.306 299.884 172.59C299.624 172.873 299.29 173.079 298.92 173.183C298.92 173.183 298.92 173.183 298.92 173.183L281.389 178.101L279.87 178.527L279.36 180.019L273.473 197.249C273.349 197.613 273.125 197.935 272.827 198.179C272.53 198.422 272.171 198.577 271.79 198.627C271.7 198.638 271.61 198.644 271.52 198.644C271.181 198.644 270.848 198.56 270.55 198.4C270.251 198.24 269.996 198.008 269.807 197.726L267.615 199.186L269.807 197.726L259.712 182.572L258.838 181.259L257.261 181.236L239.055 180.961C239.055 180.961 239.055 180.961 239.055 180.961C238.671 180.955 238.296 180.842 237.972 180.634C237.648 180.426 237.39 180.132 237.225 179.784C237.06 179.437 236.995 179.05 237.038 178.668C237.082 178.286 237.231 177.924 237.47 177.622L237.47 177.622L248.762 163.338L249.74 162.101L249.275 160.594L243.911 143.194C243.911 143.194 243.911 143.194 243.911 143.194C243.798 142.826 243.79 142.435 243.887 142.063C243.985 141.691 244.185 141.354 244.465 141.09C244.744 140.825 245.092 140.645 245.468 140.568C245.845 140.491 246.236 140.521 246.596 140.654C246.596 140.654 246.597 140.654 246.597 140.654L263.67 146.981L265.149 147.529L266.439 146.621L281.328 136.142L281.329 136.142C281.644 135.92 282.014 135.791 282.398 135.769C282.782 135.747 283.164 135.833 283.502 136.017C283.84 136.201 284.119 136.476 284.309 136.811C284.499 137.145 284.591 137.526 284.575 137.911L284.575 137.911L283.835 156.104Z" stroke="#594A96" stroke-width="6"/>
<path d="M145.148 160.594L144.683 162.101L145.661 163.339L156.954 177.622L156.954 177.622C157.192 177.924 157.341 178.286 157.385 178.669C157.428 179.051 157.364 179.437 157.199 179.785C157.034 180.132 156.775 180.426 156.451 180.634C156.128 180.842 155.753 180.956 155.368 180.961L137.163 181.236L135.585 181.26L134.711 182.572L124.616 197.726C124.616 197.726 124.616 197.726 124.616 197.726C124.403 198.046 124.104 198.3 123.754 198.459C123.404 198.619 123.016 198.677 122.635 198.627C122.254 198.578 121.894 198.422 121.596 198.179C121.298 197.936 121.075 197.614 120.95 197.25L115.064 180.02L114.554 178.527L113.035 178.101L95.5043 173.183C95.5042 173.183 95.5042 173.183 95.5042 173.183C95.1339 173.079 94.8002 172.874 94.5406 172.59C94.281 172.307 94.1059 171.956 94.0352 171.578C93.9644 171.2 94.0009 170.81 94.1404 170.451C94.2798 170.093 94.5167 169.781 94.8243 169.55C94.8244 169.55 94.8244 169.55 94.8245 169.55L109.391 158.626L110.653 157.68L110.589 156.104L109.849 137.911L109.849 137.911C109.833 137.526 109.925 137.145 110.115 136.811C110.305 136.476 110.584 136.201 110.922 136.017C111.26 135.833 111.642 135.747 112.026 135.769C112.41 135.791 112.781 135.92 113.095 136.142L113.096 136.142L127.984 146.621L129.274 147.529L130.753 146.981L147.827 140.654C147.827 140.654 147.827 140.654 147.827 140.654C148.187 140.521 148.578 140.491 148.955 140.568C149.332 140.645 149.68 140.825 149.959 141.09C150.238 141.354 150.438 141.691 150.536 142.063C150.634 142.435 150.626 142.827 150.512 143.194L145.148 160.594Z" stroke="#594A96" stroke-width="6"/>
<path d="M268.067 231.934C268.067 229.25 267 226.675 265.102 224.777C263.204 222.879 260.629 221.812 257.945 221.812H220.83V198.616C220.83 192.305 220.83 179.725 204.275 178.118C203.807 178.074 203.335 178.129 202.89 178.278C202.444 178.427 202.034 178.667 201.687 178.984C201.34 179.3 201.062 179.686 200.873 180.116C200.683 180.546 200.585 181.011 200.586 181.481V204.409C200.586 205.033 200.412 205.645 200.085 206.177L190.464 221.812H190.885L170.219 235.308L168.532 259.275L170.219 289.293C170.219 292.873 171.641 296.306 174.172 298.837C176.703 301.368 180.136 302.79 183.715 302.79H251.197C253.881 302.79 256.456 301.723 258.354 299.825C260.252 297.927 261.319 295.352 261.319 292.667C261.319 289.983 260.252 287.408 258.354 285.51C256.456 283.612 253.881 282.545 251.197 282.545H254.571C257.255 282.545 259.83 281.479 261.728 279.581C263.626 277.682 264.693 275.108 264.693 272.423C264.693 269.739 263.626 267.164 261.728 265.266C259.83 263.367 257.255 262.301 254.571 262.301H257.945C260.629 262.301 263.204 261.234 265.102 259.336C267 257.438 268.067 254.863 268.067 252.179C268.067 249.494 267 246.92 265.102 245.021C263.204 243.123 260.629 242.057 257.945 242.057C260.629 242.057 263.204 240.99 265.102 239.092C267 237.194 268.067 234.619 268.067 231.934Z" fill="#594A96"/>
<path d="M165.158 221.812H131.418C128.622 221.812 126.356 224.078 126.356 226.874V297.729C126.356 300.524 128.622 302.79 131.418 302.79H165.158C167.953 302.79 170.219 300.524 170.219 297.729V226.874C170.219 224.078 167.953 221.812 165.158 221.812Z" fill="#00B4BE"/>
<path d="M149.131 294.776C151.927 294.776 154.192 292.511 154.192 289.715C154.192 286.92 151.927 284.654 149.131 284.654C146.336 284.654 144.07 286.92 144.07 289.715C144.07 292.511 146.336 294.776 149.131 294.776Z" fill="white"/>
<defs>
<filter id="filter0_d_2232_13610" x="0" y="0" width="397" height="397" filterUnits="userSpaceOnUse" color-interpolation-filters="sRGB">
<feFlood flood-opacity="0" result="BackgroundImageFix"/>
<feColorMatrix in="SourceAlpha" type="matrix" values="0 0 0 0 0 0 0 0 0 0 0 0 0 0 0 0 0 0 127 0" result="hardAlpha"/>
<feOffset dx="1" dy="1"/>
<feGaussianBlur stdDeviation="10"/>
<feComposite in2="hardAlpha" operator="out"/>
<feColorMatrix type="matrix" values="0 0 0 0 0 0 0 0 0 0 0 0 0 0 0 0 0 0 0.25 0"/>
<feBlend mode="normal" in2="BackgroundImageFix" result="effect1_dropShadow_2232_13610"/>
<feBlend mode="normal" in="SourceGraphic" in2="effect1_dropShadow_2232_13610" result="shape"/>
</filter>
</defs>
</svg>
