<svg width="397" height="397" viewBox="0 0 397 397" fill="none" xmlns="http://www.w3.org/2000/svg">
<g filter="url(#filter0_d_2232_13611)">
<circle cx="197.5" cy="197.5" r="178.5" fill="white"/>
</g>
<path d="M276.597 225.314C272.802 231.913 262.07 233.291 256.704 238.632C255.704 239.663 254.828 240.807 254.093 242.041C250.685 247.697 248.776 255.431 243.385 258.525C236.883 262.296 226.925 258.163 219.504 260.145C217.387 260.794 215.382 261.764 213.558 263.021C208.555 266.238 203.576 270.683 197.992 270.683C192.409 270.683 187.429 266.238 182.426 263.021C180.602 261.764 178.597 260.794 176.48 260.145C169.059 258.163 159.101 262.296 152.599 258.525C147.209 255.407 145.299 247.697 141.891 242.067C141.163 240.821 140.287 239.667 139.28 238.632C133.914 233.291 123.182 231.913 119.388 225.314C115.617 218.812 119.75 208.854 117.768 201.409C115.834 194.254 107.229 187.704 107.229 179.921C107.229 172.138 115.834 165.587 117.768 158.408C119.75 150.988 115.617 141.029 119.388 134.527C123.182 127.929 133.914 126.551 139.28 121.212C144.646 115.872 146 105.099 152.599 101.316C159.101 97.5456 169.059 101.679 176.48 99.6968C183.659 97.7631 190.209 89.1582 197.992 89.1582C205.775 89.1582 212.326 97.7631 219.504 99.6968C226.925 101.679 236.883 97.5456 243.385 101.316C249.984 105.111 251.362 115.843 256.704 121.212C262.046 126.58 272.802 127.929 276.597 134.527C280.367 141.029 276.234 150.988 278.216 158.408C280.15 165.587 288.755 172.138 288.755 179.921C288.755 187.704 280.15 194.254 278.216 201.409C276.234 208.842 280.367 218.8 276.597 225.314Z" fill="#00B4BE"/>
<path d="M252.558 189.542C257.845 159.444 237.731 130.759 207.632 125.473C177.534 120.186 148.849 140.3 143.563 170.399C138.277 200.497 158.391 229.182 188.489 234.468C218.587 239.754 247.272 219.64 252.558 189.542Z" fill="white"/>
<path d="M192.575 202.658C192.02 202.66 191.469 202.551 190.956 202.339C190.442 202.126 189.976 201.814 189.583 201.421L167.457 179.295C166.663 178.501 166.218 177.425 166.218 176.303C166.218 175.182 166.663 174.106 167.457 173.312C168.25 172.519 169.326 172.073 170.448 172.073C171.57 172.073 172.646 172.519 173.439 173.312L192.575 192.441L220.897 164.127C221.695 163.357 222.763 162.931 223.872 162.941C224.981 162.95 226.042 163.396 226.826 164.18C227.61 164.964 228.055 166.025 228.064 167.134C228.074 168.244 227.647 169.312 226.877 170.11L195.575 201.421C195.182 201.815 194.714 202.128 194.199 202.34C193.684 202.553 193.132 202.661 192.575 202.658Z" fill="#594A96"/>
<path d="M275.267 287.396L250.492 288.291L233.911 306.685L213.559 263.02C215.382 261.763 217.387 260.793 219.505 260.143C226.925 258.161 236.884 262.294 243.386 258.524C248.776 255.43 250.685 247.695 254.094 242.039L275.267 287.396Z" fill="white"/>
<path d="M182.426 263.02L162.074 306.698L145.492 288.303L120.741 287.409L141.891 242.066C145.299 247.696 147.209 255.406 152.599 258.525C159.101 262.295 169.059 258.162 176.48 260.144C178.597 260.794 180.602 261.764 182.426 263.02Z" fill="white"/>
<path d="M286.647 194.887C289.618 190.611 292.985 185.767 292.985 179.993C292.985 174.218 289.623 169.381 286.659 165.108C284.815 162.777 283.347 160.172 282.309 157.388C281.778 154.332 281.734 151.212 282.178 148.142C282.338 146.209 282.5 144.2 282.5 142.213C282.5 141.091 282.054 140.015 281.261 139.222C280.467 138.429 279.391 137.983 278.27 137.983C277.148 137.983 276.072 138.429 275.279 139.222C274.485 140.015 274.04 141.091 274.04 142.213C274.04 143.857 273.897 145.597 273.747 147.453C273.183 151.488 273.315 155.59 274.139 159.58C275.394 163.323 277.279 166.824 279.713 169.932C282.19 173.5 284.53 176.872 284.53 179.993C284.53 183.113 282.185 186.49 279.696 190.06C277.266 193.162 275.384 196.657 274.132 200.393C273.312 204.382 273.179 208.481 273.738 212.515C274.078 216.747 274.4 220.745 272.93 223.278C271.444 225.864 267.779 227.59 263.902 229.418C260.173 230.916 256.728 233.041 253.717 235.702C252.473 236.975 251.384 238.391 250.473 239.92V239.934C249.364 241.856 248.352 243.833 247.442 245.856C245.612 249.753 243.884 253.429 241.276 254.928C238.757 256.39 234.75 256.064 230.532 255.725C226.51 255.17 222.423 255.302 218.446 256.117C215.903 256.88 213.492 258.03 211.299 259.525C210.235 260.209 209.169 260.944 208.101 261.686C204.516 264.168 201.135 266.52 198.017 266.52C194.899 266.52 191.515 264.173 187.932 261.686C186.864 260.944 185.798 260.209 184.735 259.525C182.544 258.031 180.137 256.883 177.597 256.122C173.613 255.301 169.519 255.167 165.49 255.725C161.26 256.064 157.271 256.39 154.741 254.925C152.14 253.422 150.414 249.755 148.587 245.871C147.673 243.842 146.655 241.863 145.536 239.939C144.622 238.4 143.523 236.979 142.264 235.707C139.255 233.046 135.812 230.921 132.085 229.422C128.218 227.595 124.544 225.869 123.048 223.269C121.597 220.75 121.909 216.742 122.25 212.52C122.808 208.48 122.673 204.375 121.851 200.381C120.598 196.651 118.718 193.162 116.292 190.065C113.812 186.495 111.457 183.12 111.457 179.997C111.457 176.874 113.797 173.505 116.275 169.937C118.712 166.824 120.598 163.317 121.853 159.568C122.674 155.585 122.808 151.491 122.25 147.463C121.909 143.231 121.588 139.245 123.057 136.702C124.544 134.116 128.208 132.387 132.085 130.56C135.818 129.058 139.265 126.928 142.278 124.261C144.938 121.251 147.063 117.807 148.563 114.08C150.39 110.201 152.116 106.539 154.717 105.04C157.238 103.59 161.243 103.902 165.461 104.245C169.492 104.804 173.589 104.67 177.575 103.849C181.318 102.592 184.819 100.706 187.928 98.2724C191.5 95.7997 194.874 93.4599 197.993 93.4599C201.111 93.4599 204.482 95.7997 208.053 98.2772C211.163 100.712 214.665 102.598 218.41 103.853C222.398 104.675 226.498 104.811 230.532 104.255C233.574 103.814 236.668 103.863 239.695 104.4C240.233 104.557 240.797 104.605 241.354 104.542C241.911 104.479 242.45 104.307 242.939 104.034C243.429 103.761 243.859 103.393 244.205 102.953C244.552 102.512 244.807 102.007 244.956 101.467C245.106 100.927 245.146 100.362 245.076 99.8061C245.005 99.2501 244.825 98.7137 244.545 98.228C244.265 97.7424 243.892 97.3171 243.446 96.977C243.001 96.6369 242.492 96.3887 241.95 96.2468C237.977 95.4053 233.887 95.2613 229.865 95.8214C226.793 96.2638 223.671 96.2173 220.614 95.6836C217.825 94.6458 215.215 93.1778 212.88 91.3328C208.604 88.3622 203.76 85 197.993 85C192.225 85 187.381 88.3622 183.11 91.328C180.775 93.1735 178.165 94.6416 175.376 95.6788C172.323 96.2113 169.205 96.2578 166.137 95.8166C161.049 95.4033 155.275 94.9367 150.479 97.7188C145.59 100.532 143.1 105.814 140.905 110.476C139.783 113.303 138.226 115.937 136.288 118.281C133.941 120.225 131.303 121.787 128.469 122.91C123.807 125.107 118.525 127.597 115.721 132.475C112.932 137.28 113.398 143.054 113.809 148.145C114.249 151.21 114.203 154.326 113.674 157.378C112.636 160.167 111.168 162.777 109.323 165.113C106.362 169.381 103 174.225 103 179.993C103 185.76 106.367 190.611 109.338 194.887C111.178 197.206 112.646 199.797 113.688 202.568C114.223 205.631 114.27 208.758 113.829 211.836C113.418 216.931 112.951 222.713 115.731 227.494C118.544 232.386 123.826 234.875 128.488 237.073C131.319 238.194 133.955 239.753 136.301 241.694C136.558 241.968 136.8 242.255 137.026 242.555L116.908 285.693C116.613 286.326 116.479 287.022 116.518 287.719C116.557 288.417 116.768 289.094 117.133 289.69C117.498 290.285 118.004 290.782 118.607 291.134C119.21 291.486 119.891 291.684 120.589 291.709L143.552 292.538L158.932 309.603C159.329 310.043 159.813 310.395 160.355 310.635C160.896 310.876 161.482 311 162.074 311C162.284 311.001 162.493 310.984 162.7 310.952C163.391 310.848 164.046 310.575 164.605 310.157C165.165 309.739 165.612 309.189 165.908 308.556L184.159 269.385C188.181 272.147 192.701 274.985 197.993 274.985C203.284 274.985 207.804 272.147 211.826 269.385L230.077 308.556C230.372 309.19 230.819 309.74 231.379 310.158C231.939 310.576 232.594 310.849 233.285 310.952C233.492 310.985 233.701 311.001 233.911 311C234.503 311 235.089 310.875 235.63 310.635C236.171 310.394 236.656 310.042 237.053 309.603L252.433 292.538L275.42 291.709C276.118 291.684 276.799 291.486 277.402 291.134C278.005 290.782 278.512 290.285 278.876 289.69C279.241 289.094 279.452 288.417 279.491 287.719C279.531 287.022 279.397 286.326 279.101 285.693L258.962 242.543C259.203 242.243 259.445 241.943 259.687 241.701C262.033 239.756 264.672 238.194 267.506 237.073C272.166 234.875 277.45 232.386 280.254 227.508C283.041 222.703 282.577 216.931 282.166 211.836C281.727 208.766 281.772 205.647 282.301 202.593C283.34 199.813 284.806 197.213 286.647 194.887ZM160.938 299.192L148.635 285.543C148.256 285.123 147.796 284.783 147.283 284.543C146.769 284.304 146.213 284.169 145.648 284.148L127.277 283.486L142.036 251.834C143.748 256.071 146.687 259.7 150.477 262.254C155.282 265.041 161.052 264.572 166.147 264.166C169.218 263.726 172.339 263.773 175.395 264.306C175.92 264.455 176.434 264.644 176.93 264.872L160.938 299.192ZM250.337 284.148C249.772 284.169 249.216 284.304 248.703 284.543C248.189 284.783 247.729 285.123 247.35 285.543L235.047 299.192L219.055 264.869C219.553 264.638 220.069 264.447 220.597 264.299C223.651 263.765 226.77 263.719 229.838 264.161C234.914 264.572 240.696 265.039 245.491 262.259C249.296 259.707 252.244 256.069 253.951 251.817L268.729 283.481L250.337 284.148Z" fill="#594A96"/>
<path d="M253.73 124.289C256.101 126.457 258.806 128.227 261.741 129.532C262.24 129.775 262.783 129.917 263.337 129.951C263.892 129.984 264.448 129.908 264.973 129.726C265.498 129.545 265.982 129.262 266.398 128.893C266.813 128.524 267.152 128.077 267.395 127.578C267.638 127.078 267.781 126.536 267.814 125.981C267.847 125.426 267.771 124.871 267.589 124.346C267.408 123.821 267.125 123.336 266.756 122.921C266.388 122.505 265.941 122.166 265.441 121.923C263.352 121.013 261.414 119.791 259.693 118.297C258.985 117.558 258.363 116.74 257.842 115.858C257.255 114.902 256.312 114.219 255.22 113.958C254.129 113.697 252.979 113.88 252.023 114.467C251.066 115.055 250.383 115.998 250.122 117.089C249.861 118.18 250.044 119.33 250.631 120.287C251.506 121.736 252.546 123.08 253.73 124.289Z" fill="#594A96"/>
<path d="M197.992 120.435C186.213 120.435 174.698 123.928 164.904 130.472C155.11 137.016 147.476 146.318 142.968 157.201C138.46 168.083 137.281 180.058 139.579 191.611C141.877 203.164 147.549 213.777 155.879 222.106C164.208 230.435 174.82 236.107 186.373 238.406C197.926 240.704 209.901 239.524 220.784 235.016C231.667 230.509 240.968 222.875 247.513 213.081C254.057 203.286 257.55 191.772 257.55 179.992C257.532 164.202 251.251 149.064 240.086 137.898C228.921 126.733 213.782 120.452 197.992 120.435ZM197.992 231.09C187.886 231.09 178.007 228.093 169.604 222.478C161.201 216.864 154.652 208.883 150.784 199.546C146.917 190.21 145.905 179.936 147.876 170.024C149.848 160.112 154.715 151.007 161.861 143.861C169.007 136.714 178.112 131.848 188.024 129.876C197.936 127.905 208.21 128.917 217.547 132.784C226.883 136.652 234.864 143.201 240.478 151.604C246.093 160.007 249.09 169.886 249.09 179.992C249.074 193.539 243.685 206.527 234.106 216.106C224.527 225.685 211.539 231.074 197.992 231.09Z" fill="#594A96"/>
<path d="M220.897 164.212L192.576 192.531L173.44 173.397C172.645 172.603 171.568 172.158 170.445 172.159C169.322 172.16 168.246 172.607 167.452 173.402C166.659 174.196 166.214 175.273 166.215 176.396C166.216 177.519 166.663 178.595 167.457 179.389L189.583 201.515C189.976 201.908 190.442 202.22 190.956 202.433C191.469 202.646 192.019 202.755 192.575 202.755C193.13 202.755 193.68 202.646 194.194 202.433C194.707 202.22 195.173 201.908 195.566 201.515L226.877 170.204C227.27 169.811 227.581 169.345 227.794 168.832C228.006 168.319 228.116 167.769 228.116 167.214C228.116 166.659 228.006 166.109 227.794 165.596C227.581 165.083 227.27 164.616 226.877 164.224C226.484 163.831 226.018 163.52 225.505 163.307C224.992 163.095 224.442 162.985 223.887 162.985C223.332 162.985 222.782 163.095 222.269 163.307C221.756 163.52 221.29 163.831 220.897 164.224V164.212Z" fill="#594A96"/>
<defs>
<filter id="filter0_d_2232_13611" x="0" y="0" width="397" height="397" filterUnits="userSpaceOnUse" color-interpolation-filters="sRGB">
<feFlood flood-opacity="0" result="BackgroundImageFix"/>
<feColorMatrix in="SourceAlpha" type="matrix" values="0 0 0 0 0 0 0 0 0 0 0 0 0 0 0 0 0 0 127 0" result="hardAlpha"/>
<feOffset dx="1" dy="1"/>
<feGaussianBlur stdDeviation="10"/>
<feComposite in2="hardAlpha" operator="out"/>
<feColorMatrix type="matrix" values="0 0 0 0 0 0 0 0 0 0 0 0 0 0 0 0 0 0 0.25 0"/>
<feBlend mode="normal" in2="BackgroundImageFix" result="effect1_dropShadow_2232_13611"/>
<feBlend mode="normal" in="SourceGraphic" in2="effect1_dropShadow_2232_13611" result="shape"/>
</filter>
</defs>
</svg>
